<svg width="22" height="22" viewBox="0 0 22 22" fill="none" xmlns="http://www.w3.org/2000/svg">
<path fill-rule="evenodd" clip-rule="evenodd" d="M2.59535 6.84947C3.07342 6.47804 3.688 6.37698 4.24707 6.57786L6.45028 7.36949L17.8142 3.74809C18.3687 3.57138 18.9681 3.68702 19.4313 4.06009C19.8945 4.43315 20.1673 5.01992 20.1673 5.64321V15.5242C20.1673 16.1552 19.8878 16.7482 19.4151 17.1203C18.9423 17.4924 18.3332 17.5987 17.7756 17.4066L12.834 15.7033V16.3575C12.834 17.4489 12.0131 18.3337 11.0006 18.3337H9.16729C8.15477 18.3337 7.33396 17.4489 7.33396 16.3575V13.8077L6.42915 13.4958L4.24707 14.2799C3.688 14.4807 3.07342 14.3797 2.59535 14.0082C2.11727 13.6368 1.83398 13.0403 1.83398 12.4051V8.45265C1.83398 7.81741 2.11727 7.2209 2.59535 6.84947ZM9.16729 14.4396L11.0006 15.0714V16.3575H9.16729V14.4396ZM18.334 5.64321L16.5007 6.22745L7.20326 9.19029V11.6878L16.5007 14.8924L18.334 15.5242V13.4495V7.70397V5.64321ZM5.36993 11.7933V9.06441L3.66732 8.45265V10.322V10.5358V12.4051L5.36993 11.7933Z" fill="#82879E"/>
</svg>
