<svg width="22" height="22" viewBox="0 0 22 22" fill="none" xmlns="http://www.w3.org/2000/svg">
<path fill-rule="evenodd" clip-rule="evenodd" d="M1.83398 10.9997C1.83398 16.0623 5.93804 20.1663 11.0007 20.1663C16.0633 20.1663 20.1673 16.0623 20.1673 10.9997C20.1673 5.93706 16.0633 1.83301 11.0007 1.83301C5.93804 1.83301 1.83398 5.93706 1.83398 10.9997ZM3.66732 10.9997C3.66732 6.94959 6.95056 3.66634 11.0007 3.66634C15.0507 3.66634 18.334 6.94959 18.334 10.9997C18.334 15.0498 15.0507 18.333 11.0007 18.333C6.95056 18.333 3.66732 15.0498 3.66732 10.9997ZM15.343 8.86909C15.6851 8.4959 15.6599 7.91604 15.2867 7.57395C14.9135 7.23186 14.3337 7.25707 13.9916 7.63026L9.65852 12.3572L8.03819 10.4128C7.71409 10.0239 7.13607 9.97137 6.74715 10.2955C6.35823 10.6196 6.30568 11.1976 6.62978 11.5865L8.92145 14.3365C9.09077 14.5397 9.3396 14.6598 9.60402 14.6661C9.86843 14.6723 10.1227 14.5641 10.3014 14.3691L15.343 8.86909Z" fill="#82879E"/>
</svg>
