<svg width="24" height="24" viewBox="0 0 24 24" fill="none" xmlns="http://www.w3.org/2000/svg">
<path d="M9.68691 1.57038C10.6754 -0.280621 13.3274 -0.280621 14.3159 1.57038L23.4389 18.6374C23.6527 19.0373 23.7592 19.4858 23.7481 19.9391C23.737 20.3924 23.6087 20.8352 23.3756 21.2241C23.1425 21.6131 22.8126 21.9351 22.4181 22.1587C22.0236 22.3822 21.5779 22.4998 21.1244 22.4999H2.87841C2.42494 22.4998 1.97923 22.3822 1.5847 22.1587C1.19018 21.9351 0.860302 21.6131 0.627216 21.2241C0.394131 20.8352 0.265787 20.3924 0.254692 19.9391C0.243597 19.4858 0.35013 19.0373 0.563908 18.6374L9.68691 1.57038ZM12.0014 7.49988C11.703 7.49988 11.4169 7.6184 11.2059 7.82938C10.9949 8.04036 10.8764 8.32651 10.8764 8.62488V12.3749C10.8764 12.6732 10.9949 12.9594 11.2059 13.1704C11.4169 13.3814 11.703 13.4999 12.0014 13.4999C12.2998 13.4999 12.5859 13.3814 12.7969 13.1704C13.0079 12.9594 13.1264 12.6732 13.1264 12.3749V8.62488C13.1264 8.32651 13.0079 8.04036 12.7969 7.82938C12.5859 7.6184 12.2998 7.49988 12.0014 7.49988ZM13.5014 16.4999C13.5014 16.1021 13.3434 15.7205 13.0621 15.4392C12.7808 15.1579 12.3992 14.9999 12.0014 14.9999C11.6036 14.9999 11.2221 15.1579 10.9407 15.4392C10.6594 15.7205 10.5014 16.1021 10.5014 16.4999C10.5014 16.8977 10.6594 17.2792 10.9407 17.5605C11.2221 17.8418 11.6036 17.9999 12.0014 17.9999C12.3992 17.9999 12.7808 17.8418 13.0621 17.5605C13.3434 17.2792 13.5014 16.8977 13.5014 16.4999Z" fill="white"/>
</svg>
