<svg width="22" height="22" viewBox="0 0 22 22" fill="none" xmlns="http://www.w3.org/2000/svg">
<path fill-rule="evenodd" clip-rule="evenodd" d="M5.5 1.83301H16.5C18.0188 1.83301 19.25 3.06422 19.25 4.58301V17.4163C19.25 18.9351 18.0188 20.1663 16.5 20.1663H5.5C3.98122 20.1663 2.75 18.9351 2.75 17.4163V4.58301C2.75 3.06422 3.98122 1.83301 5.5 1.83301ZM5.5 3.66634C4.99374 3.66634 4.58333 4.07675 4.58333 4.58301V17.4163C4.58333 17.9226 4.99374 18.333 5.5 18.333H16.5C17.0063 18.333 17.4167 17.9226 17.4167 17.4163V4.58301C17.4167 4.07675 17.0063 3.66634 16.5 3.66634H5.5ZM5.5 6.41634C5.5 5.40382 6.32081 4.58301 7.33333 4.58301H14.6667C15.6792 4.58301 16.5 5.40382 16.5 6.41634V8.24967C16.5 9.2622 15.6792 10.083 14.6667 10.083H7.33333C6.32081 10.083 5.5 9.2622 5.5 8.24967V6.41634ZM9.16667 6.41634H7.33333V8.24967H9.16667H12.8333H14.6667V6.41634H12.8333H9.16667ZM6.875 10.9997C6.11561 10.9997 5.5 11.6153 5.5 12.3747C5.5 13.1341 6.11561 13.7497 6.875 13.7497C7.63439 13.7497 8.25 13.1341 8.25 12.3747C8.25 11.6153 7.63439 10.9997 6.875 10.9997ZM9.625 12.3747C9.625 11.6153 10.2406 10.9997 11 10.9997C11.7594 10.9997 12.375 11.6153 12.375 12.3747C12.375 13.1341 11.7594 13.7497 11 13.7497C10.2406 13.7497 9.625 13.1341 9.625 12.3747ZM15.125 10.9997C14.3656 10.9997 13.75 11.6153 13.75 12.3747V16.0413C13.75 16.8007 14.3656 17.4163 15.125 17.4163C15.8844 17.4163 16.5 16.8007 16.5 16.0413V12.3747C16.5 11.6153 15.8844 10.9997 15.125 10.9997ZM5.5 16.0413C5.5 15.282 6.11561 14.6663 6.875 14.6663C7.63439 14.6663 8.25 15.282 8.25 16.0413C8.25 16.8007 7.63439 17.4163 6.875 17.4163C6.11561 17.4163 5.5 16.8007 5.5 16.0413ZM11 14.6663C10.2406 14.6663 9.625 15.282 9.625 16.0413C9.625 16.8007 10.2406 17.4163 11 17.4163C11.7594 17.4163 12.375 16.8007 12.375 16.0413C12.375 15.282 11.7594 14.6663 11 14.6663Z" fill="#82879E"/>
</svg>
