<svg width="22" height="22" viewBox="0 0 22 22" fill="none" xmlns="http://www.w3.org/2000/svg">
<path fill-rule="evenodd" clip-rule="evenodd" d="M2 7.33366C2 4.8944 3.97741 2.91699 6.41667 2.91699H15.5833C18.0226 2.91699 20 4.8944 20 7.33366V15.5837C20 18.0229 18.0226 20.0003 15.5833 20.0003H6.41667C3.97741 20.0003 2 18.0229 2 15.5837V7.33366ZM6.41667 4.41699C4.80584 4.41699 3.5 5.72283 3.5 7.33366V15.5837C3.5 17.1945 4.80584 18.5003 6.41667 18.5003H15.5833C17.1942 18.5003 18.5 17.1945 18.5 15.5837V7.33366C18.5 5.72283 17.1942 4.41699 15.5833 4.41699H6.41667Z" fill="#C1C3D1"/>
<path fill-rule="evenodd" clip-rule="evenodd" d="M7.33398 2C7.7482 2 8.08398 2.33579 8.08398 2.75V5.5C8.08398 5.91421 7.7482 6.25 7.33398 6.25C6.91977 6.25 6.58398 5.91421 6.58398 5.5V2.75C6.58398 2.33579 6.91977 2 7.33398 2Z" fill="#C1C3D1"/>
<path fill-rule="evenodd" clip-rule="evenodd" d="M5.66602 9.16699C5.66602 8.75278 6.0018 8.41699 6.41602 8.41699H15.5827C15.9969 8.41699 16.3327 8.75278 16.3327 9.16699C16.3327 9.58121 15.9969 9.91699 15.5827 9.91699H6.41602C6.0018 9.91699 5.66602 9.58121 5.66602 9.16699Z" fill="#C1C3D1"/>
<path fill-rule="evenodd" clip-rule="evenodd" d="M14.666 2C15.0802 2 15.416 2.33579 15.416 2.75V5.5C15.416 5.91421 15.0802 6.25 14.666 6.25C14.2518 6.25 13.916 5.91421 13.916 5.5V2.75C13.916 2.33579 14.2518 2 14.666 2Z" fill="#C1C3D1"/>
</svg>
