<svg width="22" height="22" viewBox="0 0 22 22" fill="none" xmlns="http://www.w3.org/2000/svg">
<path fill-rule="evenodd" clip-rule="evenodd" d="M5.77374 3.84677L5.77435 3.84754ZM5.81316 3.90867L7.65064 6.804C7.42861 7.01246 7.18641 7.21895 6.92575 7.44118C6.70173 7.63217 6.46407 7.8348 6.21384 8.0603C5.59366 8.6192 5.47387 9.51809 5.87525 10.2176C7.99774 13.9168 10.8927 15.6001 12.188 16.2044C12.9684 16.5685 13.8163 16.2812 14.2883 15.6862L15.5598 14.0834C15.5598 14.0834 15.5608 14.0825 15.5628 14.0821C15.5647 14.0818 15.5682 14.0821 15.5682 14.0821C15.5682 14.0821 15.571 14.0828 15.5736 14.0844C16.3146 14.5372 17.3483 15.1527 18.2978 15.6737C18.1272 16.6933 17.7355 17.2872 17.3036 17.6503C16.8501 18.0316 16.2635 18.2322 15.6094 18.3047C14.3032 18.4493 12.9772 18.0569 12.6831 17.9613C12.3586 17.797 10.5795 16.8696 8.67873 15.3667C6.71874 13.817 4.75342 11.7517 4.00178 9.38299C3.45245 7.65185 3.65959 6.43365 4.09134 5.59336C4.50873 4.78105 5.18416 4.22971 5.81316 3.90867ZM5.14845 2.19509C6.01438 1.78837 6.90977 2.21244 7.32684 2.86961L9.24912 5.89854C9.63773 6.51088 9.66438 7.40604 9.0326 8.01925C8.76184 8.28206 8.38513 8.60507 8.03459 8.90565C7.84217 9.07064 7.65763 9.22887 7.50283 9.36668C9.32956 12.5167 11.7718 13.974 12.8825 14.507L14.119 12.9483C14.7028 12.2124 15.7423 12.0404 16.5338 12.5242C17.2661 12.9717 18.2784 13.5741 19.1958 14.0771C19.8076 14.4125 20.2453 15.1118 20.1213 15.9014C19.8986 17.3195 19.3168 18.3523 18.4879 19.0493C17.6727 19.7345 16.7017 20.0253 15.8122 20.1238C14.0626 20.3175 12.3892 19.7929 12.0836 19.6915C12.0063 19.6659 11.9421 19.6388 11.8731 19.6041C11.545 19.4391 9.61166 18.4408 7.53719 16.8005C5.4843 15.1774 3.16913 12.8294 2.25063 9.93483C1.57594 7.80862 1.77552 6.08464 2.45657 4.75918C3.12568 3.45695 4.20927 2.63622 5.14845 2.19509Z" fill="#82879E"/>
<path fill-rule="evenodd" clip-rule="evenodd" d="M13.4853 1.91662C13.0243 1.70583 12.4792 1.90734 12.2677 2.3667C12.0562 2.82606 12.2584 3.36933 12.7193 3.58012C14.8519 4.55533 17.2927 6.38877 18.408 8.9188C18.612 9.38153 19.1538 9.59185 19.6181 9.38856C20.0825 9.18527 20.2935 8.64535 20.0895 8.18262C18.7271 5.09218 15.8474 2.99678 13.4853 1.91662ZM12.8054 5.16328C12.3518 4.93725 11.8002 5.12049 11.5734 5.57255C11.3466 6.02461 11.5304 6.57431 11.9841 6.80034C12.847 7.23031 13.4442 7.63549 13.9264 8.11601C14.4086 8.59654 14.8152 9.19169 15.2466 10.0516C15.4734 10.5037 16.025 10.6869 16.4787 10.4609C16.9323 10.2349 17.1162 9.68517 16.8893 9.23311C16.4025 8.26277 15.8908 7.48521 15.2251 6.82181C14.5594 6.15841 13.7791 5.64845 12.8054 5.16328Z" fill="#82879E"/>
</svg>
