<svg width="22" height="22" viewBox="0 0 22 22" fill="none" xmlns="http://www.w3.org/2000/svg">
<path fill-rule="evenodd" clip-rule="evenodd" d="M4.58333 4.6665C4.36232 4.6665 4.15036 4.7543 3.99408 4.91058C3.84369 5.06097 3.75672 5.26291 3.75037 5.47486C3.96075 8.79349 5.37395 11.9221 7.72587 14.274C10.0778 16.6259 13.2063 18.0391 16.525 18.2495C16.7369 18.2431 16.9389 18.1561 17.0893 18.0058C17.2455 17.8495 17.3333 17.6375 17.3333 17.4165V14.4269L14.1693 13.1613L13.2325 14.7227C12.9647 15.1689 12.3994 15.3352 11.9327 15.105C9.7447 14.026 7.97388 12.2551 6.89481 10.0672C6.66461 9.6004 6.8309 9.03511 7.27717 8.76734L8.83857 7.83051L7.57297 4.6665H4.58333ZM2.57986 3.49637C3.11122 2.96501 3.83189 2.6665 4.58333 2.6665H8.25C8.6589 2.6665 9.02661 2.91545 9.17848 3.29511L11.0118 7.87845C11.1941 8.33416 11.0187 8.8548 10.5978 9.10733L9.13581 9.98454C9.86527 11.1498 10.85 12.1346 12.0153 12.864L12.8925 11.402C13.145 10.9811 13.6657 10.8057 14.1214 10.988L18.7047 12.8214C19.0844 12.9732 19.3333 13.3409 19.3333 13.7498V17.4165C19.3333 18.168 19.0348 18.8886 18.5035 19.42C17.9721 19.9513 17.2514 20.2498 16.5 20.2498C16.4798 20.2498 16.4595 20.2492 16.4393 20.248C12.6199 20.0159 9.01741 18.3939 6.31165 15.6882C3.6059 12.9824 1.98395 9.37997 1.75184 5.5605C1.75061 5.5403 1.75 5.52007 1.75 5.49984C1.75 4.74839 2.04851 4.02772 2.57986 3.49637Z" fill="#1E1F23"/>
<path fill-rule="evenodd" clip-rule="evenodd" d="M12.75 6.4165C12.75 5.86422 13.1977 5.4165 13.75 5.4165C14.5014 5.4165 15.2221 5.71501 15.7535 6.24637C16.2848 6.77772 16.5833 7.49839 16.5833 8.24984C16.5833 8.80212 16.1356 9.24984 15.5833 9.24984C15.031 9.24984 14.5833 8.80212 14.5833 8.24984C14.5833 8.02882 14.4955 7.81686 14.3393 7.66058C14.183 7.5043 13.971 7.4165 13.75 7.4165C13.1977 7.4165 12.75 6.96879 12.75 6.4165Z" fill="#1E1F23"/>
<path fill-rule="evenodd" clip-rule="evenodd" d="M12.75 2.75C12.75 2.19772 13.1977 1.75 13.75 1.75C15.4739 1.75 17.1272 2.43482 18.3462 3.65381C19.5652 4.87279 20.25 6.52609 20.25 8.25C20.25 8.80228 19.8023 9.25 19.25 9.25C18.6977 9.25 18.25 8.80228 18.25 8.25C18.25 7.05653 17.7759 5.91193 16.932 5.06802C16.0881 4.22411 14.9435 3.75 13.75 3.75C13.1977 3.75 12.75 3.30228 12.75 2.75Z" fill="#1E1F23"/>
</svg>
