<svg width="22" height="22" viewBox="0 0 22 22" fill="none" xmlns="http://www.w3.org/2000/svg">
<path fill-rule="evenodd" clip-rule="evenodd" d="M1.83398 9.81145V9.50443C1.83398 5.77406 4.84362 2.75 8.55621 2.75H13.4451C17.1577 2.75 20.1673 5.77406 20.1673 9.50443C20.1673 13.2171 17.1862 16.2301 13.498 16.2586L10.4599 18.8025C9.21862 19.8419 7.33398 18.955 7.33398 17.3314V16.1936C4.22438 15.7466 1.83398 13.0595 1.83398 9.81145ZM9.28626 17.3873L12.5487 14.6556C12.733 14.5013 12.9654 14.4167 13.2053 14.4167H13.4451C16.1452 14.4167 18.334 12.2174 18.334 9.50443C18.334 6.79143 16.1452 4.59212 13.4451 4.59212H8.55621C5.85615 4.59212 3.66732 6.79143 3.66732 9.50443V9.81145C3.66732 12.3549 5.71935 14.4167 8.25065 14.4167C8.67946 14.4167 9.0395 14.7126 9.13963 15.1122C9.15771 15.1844 9.16732 15.26 9.16732 15.3378V17.3314C9.16732 17.3931 9.23903 17.4269 9.28626 17.3873Z" fill="#82879E"/>
</svg>
