<svg width="22" height="22" viewBox="0 0 22 22" fill="none" xmlns="http://www.w3.org/2000/svg">
<path fill-rule="evenodd" clip-rule="evenodd" d="M1.83398 9.47222V9.77778C1.83398 13.0104 4.22438 15.6847 7.33398 16.1295V17.2618C7.33398 18.8777 9.21862 19.7604 10.4599 18.7259L13.498 16.1942C17.1862 16.1658 20.1673 13.1672 20.1673 9.47222C20.1673 5.75964 17.1577 2.75 13.4451 2.75H8.55621C4.84363 2.75 1.83398 5.75964 1.83398 9.47222ZM12.5487 14.5989L9.28626 17.3175C9.23903 17.3569 9.16732 17.3233 9.16732 17.2618V15.2778C9.16732 15.2003 9.15771 15.1251 9.13963 15.0533C9.0395 14.6555 8.67946 14.3611 8.25065 14.3611C5.71935 14.3611 3.66732 12.3091 3.66732 9.77778V9.47222C3.66732 6.77216 5.85615 4.58333 8.55621 4.58333H13.4451C16.1452 4.58333 18.334 6.77216 18.334 9.47222C18.334 12.1723 16.1452 14.3611 13.4451 14.3611H13.2053C12.9654 14.3611 12.733 14.4452 12.5487 14.5989ZM11.0346 5.5C10.4093 5.5 9.90953 6.02014 9.93452 6.64492L10.1408 9.05277C10.16 9.53246 10.5545 9.91146 11.0346 9.91146C11.5146 9.91146 11.9091 9.53246 11.9283 9.05277L12.1346 6.64492C12.1596 6.02014 11.6598 5.5 11.0346 5.5ZM9.71696 12.6328C9.71696 11.9209 10.2941 11.3438 11.006 11.3438C11.718 11.3438 12.2951 11.9209 12.2951 12.6328C12.2951 13.3447 11.718 13.9219 11.006 13.9219C10.2941 13.9219 9.71696 13.3447 9.71696 12.6328Z" fill="#82879E"/>
</svg>
