<?xml version="1.0" encoding="utf-8"?>
<!-- Generator: Adobe Illustrator 26.0.3, SVG Export Plug-In . SVG Version: 6.00 Build 0)  -->
<svg version="1.1" id="Слой_1" xmlns="http://www.w3.org/2000/svg" xmlns:xlink="http://www.w3.org/1999/xlink" x="0px" y="0px"
	 viewBox="0 0 22 22" style="enable-background:new 0 0 22 22;" xml:space="preserve">
<style type="text/css">
	.st0{fill-rule:evenodd;clip-rule:evenodd;fill:#3E5BF1;}
	.st1{fill:#3E5BF1;}
</style>
<path class="st0" d="M20.1,18.4l-0.5-3.1c-0.1-0.4-0.2-0.8-0.5-1l-4.5-4.5l-1.2-0.5l-0.6-0.2l-0.4-1.2c-0.1-0.1-0.1-0.3-0.2-0.4
	l0-0.1l-1.1-1.1l-0.9-0.9L9.5,4.6L7.9,3C6.8,1.9,5.1,1.9,4,3L2.7,4.3c-1.1,1.1-1.1,2.8,0,3.9l1.6,1.6l3.3,3.3l6.3,6.3
	c0.3,0.3,0.6,0.5,1,0.5l3.1,0.5c0.6,0.1,1.2-0.1,1.6-0.5S20.2,19,20.1,18.4z M4,6.9C3.6,6.6,3.6,6,4,5.6l1.3-1.3
	C5.6,4,6.2,4,6.6,4.3l1.6,1.6L5.6,8.6L4,6.9z M15.2,18.2l-8.1-8.1l2.6-2.6l0.6,0.6l1.2,1.2h0l6.3,6.3l0.5,3.1L15.2,18.2z"/>
<path class="st0" d="M17,0h-2c-2.5,0.4-4.5,2.4-4.9,4.9c-0.1,0.3-0.1,0.7-0.1,1c0,0.6,0.1,1.2,0.3,1.8c0.1,0.4,0.3,0.8,0.5,1.2
	c0.5,0.9,0.9,1.4,1.9,2c0.5,0.3,1,0.6,1.5,0.7c0.6,0.2,1.1,0.3,1.8,0.3c0.4,0,0.7,0,1-0.1c2.8-0.5,4.9-3,4.9-5.9
	C22,2.9,19.8,0.5,17,0z M16,9.9c-0.3,0-0.7,0-1-0.1c-0.6-0.2-1.1-0.4-1.6-0.8c-0.5-0.4-0.8-0.9-1-1.5c-0.1-0.1-0.1-0.3-0.2-0.4
	c-0.1-0.4-0.2-0.8-0.2-1.2c0-2.2,1.8-4,4-4s4,1.8,4,4C20,8.1,18.2,9.9,16,9.9z"/>
<path class="st1" d="M18.1,6.7c0.4,0.4,0.4,1,0,1.4c-0.4,0.4-1,0.4-1.4,0l-0.7-0.7L15.4,8c-0.4,0.4-1,0.4-1.4,0
	c-0.4-0.4-0.4-1,0-1.4L14.7,6L14,5.3c-0.4-0.4-0.4-1,0-1.4c0.4-0.4,1-0.4,1.4,0l0.7,0.7L16.8,4c0.4-0.4,1-0.4,1.4,0
	c0.4,0.4,0.4,1,0,1.4L17.4,6L18.1,6.7z"/>
</svg>
