<svg width="26" height="26" viewBox="0 0 26 26" fill="none" xmlns="http://www.w3.org/2000/svg">
<path fill-rule="evenodd" clip-rule="evenodd" d="M8.29289 8.29289C8.68342 7.90237 9.31658 7.90237 9.70711 8.29289L17.7071 16.2929C18.0976 16.6834 18.0976 17.3166 17.7071 17.7071C17.3166 18.0976 16.6834 18.0976 16.2929 17.7071L8.29289 9.70711C7.90237 9.31658 7.90237 8.68342 8.29289 8.29289Z" fill="#C1C3D1"/>
<path fill-rule="evenodd" clip-rule="evenodd" d="M17.7071 8.29289C17.3166 7.90237 16.6834 7.90237 16.2929 8.29289L8.29289 16.2929C7.90237 16.6834 7.90237 17.3166 8.29289 17.7071C8.68342 18.0976 9.31658 18.0976 9.70711 17.7071L17.7071 9.70711C18.0976 9.31658 18.0976 8.68342 17.7071 8.29289Z" fill="#C1C3D1"/>
</svg>
