<svg width="16" height="16" viewBox="0 0 16 16" fill="none" xmlns="http://www.w3.org/2000/svg">
<path fill-rule="evenodd" clip-rule="evenodd" d="M4.53679 1.7662C4.24825 1.7662 3.97154 1.88661 3.76752 2.10093C3.56349 2.31526 3.44888 2.60595 3.44888 2.90906V13.0909C3.44888 13.394 3.56349 13.6847 3.76752 13.899C3.97154 14.1133 4.24826 14.2337 4.53679 14.2337H11.4599C11.7484 14.2337 12.0251 14.1133 12.2291 13.899C12.4332 13.6847 12.5478 13.394 12.5478 13.0909V5.40256H10.0752C9.81295 5.40256 9.56139 5.2931 9.37591 5.09826C9.19044 4.90341 9.08624 4.63915 9.08624 4.3636V1.7662H4.53679ZM9.67964 2.20699L12.1282 4.77919H10.0752C9.97033 4.77919 9.8697 4.7354 9.79551 4.65746C9.72132 4.57953 9.67964 4.47382 9.67964 4.3636V2.20699ZM3.34792 1.66014C3.66322 1.32891 4.09087 1.14282 4.53679 1.14282H9.38294C9.46163 1.14282 9.5371 1.17566 9.59274 1.23411L13.0543 4.87048C13.1099 4.92893 13.1412 5.00821 13.1412 5.09087V13.0909C13.1412 13.5593 12.964 14.0086 12.6487 14.3398C12.3334 14.671 11.9058 14.8571 11.4599 14.8571H4.53679C4.09087 14.8571 3.66322 14.671 3.34792 14.3398C3.03261 14.0086 2.85547 13.5593 2.85547 13.0909V2.90906C2.85547 2.44062 3.03261 1.99137 3.34792 1.66014Z" fill="#595C68"/>
</svg>
