<svg width="20" height="20" viewBox="0 0 20 20" fill="none" xmlns="http://www.w3.org/2000/svg">
<path fill-rule="evenodd" clip-rule="evenodd" d="M13.4172 2.54687C12.6981 1.80446 11.5275 1.81995 10.827 2.58115L3.04738 11.0347C2.82131 11.2803 2.66426 11.5849 2.59306 11.9156L2.04428 14.4649C1.7607 15.7822 2.88282 16.9655 4.16464 16.7008L7.05658 16.1037C7.40673 16.0314 7.72831 15.8538 7.98081 15.5931L15.7391 7.58425C16.4455 6.85509 16.4455 5.67289 15.7391 4.94373L13.4172 2.54687ZM12.1383 3.86713L14.4602 6.26399L6.70186 14.2729L3.80992 14.8699L4.3587 12.3207L12.1383 3.86713ZM11.6695 15.1329C11.17 15.1329 10.7651 15.5508 10.7651 16.0664C10.7651 16.582 11.17 17 11.6695 17H17.0956C17.5951 17 18 16.582 18 16.0664C18 15.5508 17.5951 15.1329 17.0956 15.1329H11.6695Z" fill="#1E1F23"/>
</svg>
