<svg width="12" height="12" viewBox="0 0 12 12" fill="none" xmlns="http://www.w3.org/2000/svg">
<path fill-rule="evenodd" clip-rule="evenodd" d="M1.8 1C0.805887 1 0 1.83947 0 2.875V9.125C0 10.1605 0.805887 11 1.8 11H10.2C11.1941 11 12 10.1605 12 9.125V2.875C12 1.83947 11.1941 1 10.2 1H1.8ZM1.25479 2.61371C1.34977 2.39902 1.55818 2.25 1.8 2.25H10.2C10.4418 2.25 10.6502 2.39902 10.7452 2.61371L6.36836 6.15977C6.1517 6.33531 5.8483 6.33531 5.63164 6.15977L1.25479 2.61371ZM1.2 4.1529V7.7906L3.36757 5.90903L1.2 4.1529ZM1.24974 9.37456C1.34223 9.59553 1.5538 9.75 1.8 9.75H10.2C10.4462 9.75 10.6578 9.59553 10.7503 9.37456L7.66288 6.69454L7.10509 7.14646C6.45509 7.67308 5.54491 7.67308 4.89491 7.14646L4.33712 6.69454L1.24974 9.37456ZM10.8 7.7906V4.1529L8.63243 5.90903L10.8 7.7906Z" fill="#3E5BF1"/>
</svg>
