<svg width="20" height="20" viewBox="0 0 20 20" fill="none" xmlns="http://www.w3.org/2000/svg">
<path fill-rule="evenodd" clip-rule="evenodd" d="M11.9011 1.92778C12.1509 2.19186 12.2006 2.58733 12.0241 2.90506C12.0121 2.9266 12.0002 2.94801 11.9884 2.9693C11.7459 3.40453 11.5313 3.7897 11.5386 4.27166C11.5454 4.72156 11.8694 5.53993 12.9442 6.44678C14.3989 7.67419 15.118 9.18735 15.4735 10.373C15.6517 10.9671 15.7411 11.487 15.7862 11.8621C15.8088 12.0501 15.8204 12.2028 15.8264 12.3118C15.8294 12.3663 15.8309 12.41 15.8318 12.4418C15.8322 12.4576 15.8324 12.4705 15.8325 12.4804L15.8327 12.4927L15.8327 12.4971L15.8327 12.4989C15.8327 12.4989 15.8327 12.5004 14.9993 12.5004H15.8327C15.8327 15.722 13.221 18.3337 9.99935 18.3337C6.77769 18.3337 4.16602 15.722 4.16602 12.5004C4.16602 10.8927 4.3917 9.48965 4.71211 8.44808C4.87137 7.93038 5.06215 7.47533 5.27793 7.12237C5.38567 6.94612 5.51243 6.77416 5.66179 6.63027C5.80524 6.49208 6.01724 6.33383 6.2979 6.27068C6.52694 6.21915 6.76709 6.26661 6.9593 6.40141C7.15151 6.5362 7.27795 6.74582 7.30753 6.97871C7.33425 7.18914 7.42167 7.4973 7.56082 7.82264C7.55387 7.26994 7.59471 6.68316 7.70769 6.09353C8.02244 4.45089 8.91527 2.72789 10.9322 1.75044C11.2593 1.59193 11.6514 1.6637 11.9011 1.92778ZM14.166 12.5026C14.1648 14.8027 12.2998 16.667 9.99935 16.667C7.69816 16.667 5.83268 14.8015 5.83268 12.5004C5.83268 11.0766 6.02854 9.86704 6.28455 9.0061C6.35019 9.12639 6.41998 9.24434 6.49352 9.35834C6.91232 10.0075 7.65416 10.8337 8.70306 10.8337C8.96562 10.8337 9.21283 10.7099 9.37018 10.4997C9.52753 10.2895 9.57661 10.0175 9.50263 9.76556C9.28633 9.02898 9.09545 7.70739 9.34458 6.40718C9.45087 5.85246 9.63376 5.31298 9.92378 4.82374C10.0925 5.75182 10.6837 6.72018 11.8694 7.7206C13.0072 8.68068 13.5844 9.87585 13.8771 10.8517C14.023 11.3383 14.0955 11.7624 14.1315 12.0611C14.1494 12.2101 14.158 12.3267 14.1622 12.4028C14.1643 12.4409 14.1652 12.4687 14.1657 12.4854L14.166 12.5017L14.166 12.5026Z" fill="#82879E"/>
</svg>
