<svg xmlns="http://www.w3.org/2000/svg" viewBox="0 0 22 22"><defs><style>.cls-1,.cls-2{fill:#82879e;}.cls-1{opacity:0;}.cls-2{fill-rule:evenodd;}</style></defs><g id="Layer_2" data-name="Layer 2"><g id="Layer_1-2" data-name="Layer 1"><rect class="cls-1" width="22" height="22"/><path class="cls-2" d="M11,12.64H6.42a.9.9,0,1,0,0,1.8H11a.9.9,0,1,0,0-1.8ZM11,9H6.42a.9.9,0,1,0,0,1.8H11A.9.9,0,1,0,11,9Zm0-3.6H6.42a.9.9,0,1,0,0,1.8H11a.9.9,0,1,0,0-1.8Zm0,7.2H6.42a.9.9,0,1,0,0,1.8H11a.9.9,0,1,0,0-1.8ZM11,9H6.42a.9.9,0,1,0,0,1.8H11A.9.9,0,1,0,11,9Zm0-3.6H6.42a.9.9,0,1,0,0,1.8H11a.9.9,0,1,0,0-1.8ZM6.42,7.24H11a.9.9,0,1,0,0-1.8H6.42a.9.9,0,1,0,0,1.8ZM11,9H6.42a.9.9,0,1,0,0,1.8H11A.9.9,0,1,0,11,9Zm0,3.6H6.42a.9.9,0,1,0,0,1.8H11a.9.9,0,1,0,0-1.8ZM17,1.83a3.44,3.44,0,0,0-.46,0v0H4.13a2.28,2.28,0,0,0-2.3,2.25V18.74a1.38,1.38,0,0,0,2.36,1l1.93-1.93,1.52,1.76a1.4,1.4,0,0,0,2.14-.06l1.37-1.75L14,19.94a1,1,0,0,0,1.63-.76V11.74h3.59a1,1,0,0,0,1-1V5A3.18,3.18,0,0,0,17,1.83ZM13.75,5V17.46l-1.44-1.15a1.85,1.85,0,0,0-2.61.3l-1,1.31L7.51,16.59a1.85,1.85,0,0,0-2.7-.1L3.67,17.64V4.08a.46.46,0,0,1,.46-.45h9.93A3.08,3.08,0,0,0,13.75,5Zm4.58,5H15.58V5a1.38,1.38,0,0,1,2.75,0ZM6.42,7.24H11a.9.9,0,1,0,0-1.8H6.42a.9.9,0,1,0,0,1.8Zm0,3.6H11A.9.9,0,1,0,11,9H6.42a.9.9,0,1,0,0,1.8Zm0,3.6H11a.9.9,0,1,0,0-1.8H6.42a.9.9,0,1,0,0,1.8ZM11,9H6.42a.9.9,0,1,0,0,1.8H11A.9.9,0,1,0,11,9Zm0,3.6H6.42a.9.9,0,1,0,0,1.8H11a.9.9,0,1,0,0-1.8Zm0-7.2H6.42a.9.9,0,1,0,0,1.8H11a.9.9,0,1,0,0-1.8Z"/></g></g></svg>