<svg width="16" height="16" viewBox="0 0 16 16" fill="none" xmlns="http://www.w3.org/2000/svg">
<path fill-rule="evenodd" clip-rule="evenodd" d="M14.0904 8.5444C13.8508 9.74869 13.2596 10.8549 12.3914 11.7232L9.56238 14.5522C9.1483 14.9658 8.58694 15.1982 8.00164 15.1982C7.41634 15.1982 6.85474 14.9656 6.44066 14.5519L3.61124 11.7232C2.74302 10.8549 2.15176 9.74869 1.91224 8.5444C1.67272 7.34011 1.79568 6.09184 2.26558 4.95743C2.73549 3.82303 3.53122 2.85344 4.55217 2.17127C5.57312 1.4891 6.77343 1.125 8.00131 1.125C9.22918 1.125 10.4295 1.4891 11.4504 2.17127C12.4714 2.85344 13.2671 3.82303 13.737 4.95743C14.2069 6.09184 14.3299 7.34011 14.0904 8.5444ZM8 4.4585C6.41218 4.4585 5.125 5.74568 5.125 7.3335C5.125 8.92132 6.41218 10.2085 8 10.2085C9.58782 10.2085 10.875 8.92132 10.875 7.3335C10.875 5.74568 9.58782 4.4585 8 4.4585Z" fill="#1E1F23"/>
</svg>
