<svg width="18" height="18" viewBox="0 0 18 18" fill="none" xmlns="http://www.w3.org/2000/svg">
<path fill-rule="evenodd" clip-rule="evenodd" d="M9 3.125C7.98639 3.125 6.99553 3.42557 6.15273 3.9887C5.30994 4.55183 4.65305 5.35223 4.26515 6.28869C3.87724 7.22514 3.77573 8.25559 3.97346 9.24974C4.17118 10.2438 4.65923 11.157 5.3759 11.8737L8.55866 15.0557C8.67585 15.1728 8.83473 15.2386 9.00038 15.2386C9.16603 15.2386 9.3249 15.1728 9.4421 15.0557L12.624 11.8738C13.3407 11.1571 13.8288 10.2439 14.0265 9.24974C14.2243 8.25559 14.1228 7.22514 13.7349 6.28869C13.347 5.35223 12.6901 4.55183 11.8473 3.9887C11.0045 3.42557 10.0136 3.125 9 3.125ZM13.8615 13.1112C14.8229 12.1497 15.4777 10.9247 15.7429 9.59111C16.0082 8.25751 15.872 6.87519 15.3516 5.61897C14.8313 4.36275 13.9501 3.28904 12.8195 2.53362C11.6889 1.7782 10.3597 1.375 9 1.375C7.64027 1.375 6.31108 1.7782 5.18049 2.53362C4.04991 3.28904 3.16873 4.36275 2.64837 5.61897C2.128 6.87519 1.99183 8.25751 2.25708 9.59111C2.52232 10.9247 3.17707 12.1497 4.13852 13.1112L7.32161 16.2936C7.76694 16.7385 8.3709 16.9886 9.00038 16.9886C9.62985 16.9886 10.2336 16.7387 10.6789 16.2938L13.8615 13.1112Z" fill="#1E1F23"/>
<path fill-rule="evenodd" clip-rule="evenodd" d="M9 6.875C8.24061 6.875 7.625 7.49061 7.625 8.25C7.625 9.00939 8.24061 9.625 9 9.625C9.75939 9.625 10.375 9.00939 10.375 8.25C10.375 7.49061 9.75939 6.875 9 6.875ZM5.875 8.25C5.875 6.52411 7.27411 5.125 9 5.125C10.7259 5.125 12.125 6.52411 12.125 8.25C12.125 9.97589 10.7259 11.375 9 11.375C7.27411 11.375 5.875 9.97589 5.875 8.25Z" fill="#1E1F23"/>
</svg>
