<svg width="24" height="24" viewBox="0 0 24 24" fill="none" xmlns="http://www.w3.org/2000/svg">
<path fill-rule="evenodd" clip-rule="evenodd" d="M7.42857 8.98016V7.6C7.42857 5.16995 9.47527 3.2 12 3.2C14.5247 3.2 16.5714 5.16995 16.5714 7.6V8.98016C15.2756 8.1102 13.6997 7.6 12 7.6C10.3003 7.6 8.72438 8.1102 7.42857 8.98016ZM5.14286 11.3317L5.14286 7.6C5.14286 3.95492 8.2129 1 12 1C15.7871 1 18.8571 3.95492 18.8571 7.6V11.3317C19.5827 12.4906 20 13.8484 20 15.3C20 19.5526 16.4183 23 12 23C7.58172 23 4 19.5526 4 15.3C4 13.8484 4.41735 12.4906 5.14286 11.3317ZM11.9492 13C10.7066 13 9.69922 14.0074 9.69922 15.25C9.69922 16.4926 10.7066 17.5 11.9492 17.5C13.1919 17.5 14.1992 16.4926 14.1992 15.25C14.1992 14.0074 13.1919 13 11.9492 13Z" fill="white"/>
</svg>
