<svg width="18" height="18" viewBox="0 0 18 18" fill="none" xmlns="http://www.w3.org/2000/svg">
<path fill-rule="evenodd" clip-rule="evenodd" d="M9 2.75C5.54822 2.75 2.75 5.54822 2.75 9C2.75 12.4518 5.54822 15.25 9 15.25C12.4518 15.25 15.25 12.4518 15.25 9C15.25 5.54822 12.4518 2.75 9 2.75ZM1.75 9C1.75 4.99594 4.99594 1.75 9 1.75C13.0041 1.75 16.25 4.99594 16.25 9C16.25 13.0041 13.0041 16.25 9 16.25C4.99594 16.25 1.75 13.0041 1.75 9Z" fill="#EC9023"/>
<path fill-rule="evenodd" clip-rule="evenodd" d="M6.25 7.5C6.25 7.22386 6.47386 7 6.75 7H6.75667C7.03281 7 7.25667 7.22386 7.25667 7.5C7.25667 7.77614 7.03281 8 6.75667 8H6.75C6.47386 8 6.25 7.77614 6.25 7.5Z" fill="#EC9023"/>
<path fill-rule="evenodd" clip-rule="evenodd" d="M10.75 7.5C10.75 7.22386 10.9739 7 11.25 7H11.2567C11.5328 7 11.7567 7.22386 11.7567 7.5C11.7567 7.77614 11.5328 8 11.2567 8H11.25C10.9739 8 10.75 7.77614 10.75 7.5Z" fill="#EC9023"/>
<path fill-rule="evenodd" clip-rule="evenodd" d="M6.25 11.25C6.25 10.9739 6.47386 10.75 6.75 10.75H11.25C11.5261 10.75 11.75 10.9739 11.75 11.25C11.75 11.5261 11.5261 11.75 11.25 11.75H6.75C6.47386 11.75 6.25 11.5261 6.25 11.25Z" fill="#EC9023"/>
</svg>
