<svg width="40" height="40" viewBox="0 0 40 40" fill="none" xmlns="http://www.w3.org/2000/svg">
<path fill-rule="evenodd" clip-rule="evenodd" d="M20 10C18.8954 10 18 10.8954 18 12V12.3414C15.6696 13.1651 14 15.3876 14 18L14 19.5L14 21.5996L12.3825 23.8237C11.9401 24.432 11.8764 25.2372 12.2178 25.9076C12.5591 26.5779 13.2478 27 14 27H17C17 28.6569 18.3432 30 20 30C21.6569 30 23 28.6569 23 27H26C26.7523 27 27.4409 26.5779 27.7822 25.9076C28.1236 25.2372 28.0599 24.432 27.6175 23.8237L26 21.5996L26 19.5V18C26 15.3876 24.3304 13.1651 22 12.3414V12C22 10.8954 21.1046 10 20 10ZM21.0012 25H21H19L16.473 25H14L15.4546 23L15.6175 22.776C15.8661 22.4341 16 22.0223 16 21.5996V19.5V18C16 15.7909 17.7909 14 20 14C22.2091 14 24 15.7909 24 18L24 19.5V21.5996C24 22.0223 24.1339 22.4341 24.3825 22.776L24.5455 23L26 25H23.527H21.0012ZM20 28C19.4477 28 19 27.5523 19 27H21C21 27.5523 20.5523 28 20 28Z" fill="#82879E"/>
</svg>
