<svg width="20" height="20" viewBox="0 0 20 20" fill="none" xmlns="http://www.w3.org/2000/svg">
<path fill-rule="evenodd" clip-rule="evenodd" d="M9.99935 18.3337C5.39698 18.3337 1.66602 14.6027 1.66602 10.0003C1.66602 5.39795 5.39698 1.66699 9.99935 1.66699C14.6017 1.66699 18.3327 5.39795 18.3327 10.0003C18.3327 14.6027 14.6017 18.3337 9.99935 18.3337ZM9.99935 3.33366C6.31745 3.33366 3.33268 6.31843 3.33268 10.0003C3.33268 13.6822 6.31745 16.667 9.99935 16.667C13.6812 16.667 16.666 13.6822 16.666 10.0003C16.666 6.31843 13.6812 3.33366 9.99935 3.33366ZM8.33268 5.83366C8.33268 5.37342 8.70578 5.00033 9.16602 5.00033H11.041C12.7669 5.00033 14.166 6.39944 14.166 8.12533C14.166 9.85122 12.7669 11.2503 11.041 11.2503H9.99935V12.0837H11.666C12.1263 12.0837 12.4993 12.4568 12.4993 12.917C12.4993 13.3772 12.1263 13.7503 11.666 13.7503H9.99935V14.5837C9.99935 15.0439 9.62625 15.417 9.16602 15.417C8.70578 15.417 8.33268 15.0439 8.33268 14.5837V13.7503H6.66602C6.20578 13.7503 5.83268 13.3772 5.83268 12.917C5.83268 12.4568 6.20578 12.0837 6.66602 12.0837H8.33268V11.2503H6.66602C6.20578 11.2503 5.83268 10.8772 5.83268 10.417C5.83268 9.95676 6.20578 9.58366 6.66602 9.58366H8.33268V5.83366ZM9.99935 9.58366H11.041C11.8464 9.58366 12.4993 8.93074 12.4993 8.12533C12.4993 7.31991 11.8464 6.66699 11.041 6.66699H9.99935V9.58366Z" fill="#1E1F23"/>
</svg>
