<svg width="18" height="18" viewBox="0 0 18 18" fill="none" xmlns="http://www.w3.org/2000/svg">
<path fill-rule="evenodd" clip-rule="evenodd" d="M13.2433 4.75723C12.3647 3.87855 10.94 3.87855 10.0614 4.75723L9.00069 5.81789C8.7078 6.11079 8.23293 6.11079 7.94003 5.81789C7.64714 5.525 7.64714 5.05013 7.94003 4.75723L9.00069 3.69657C10.4652 2.23211 12.8395 2.23211 14.304 3.69657C15.7685 5.16104 15.7685 7.53541 14.304 8.99987L13.2433 10.0605C12.9504 10.3534 12.4756 10.3534 12.1827 10.0605C11.8898 9.76764 11.8898 9.29277 12.1827 8.99987L13.2433 7.93921C14.122 7.06053 14.122 5.63591 13.2433 4.75723ZM4.75805 13.2425C3.87937 12.3638 3.87937 10.9392 4.75805 10.0605L5.81871 8.99987C6.11161 8.70698 6.11161 8.23211 5.81871 7.93921C5.52582 7.64632 5.05095 7.64632 4.75805 7.93921L3.69739 8.99987C2.23293 10.4643 2.23293 12.8387 3.69739 14.3032C5.16186 15.7676 7.53623 15.7676 9.00069 14.3032L10.0614 13.2425C10.3542 12.9496 10.3542 12.4747 10.0614 12.1819C9.76846 11.889 9.29359 11.889 9.00069 12.1819L7.94003 13.2425C7.06135 14.1212 5.63673 14.1212 4.75805 13.2425ZM11.6523 7.40888C11.9452 7.11599 11.9452 6.64112 11.6523 6.34822C11.3595 6.05533 10.8846 6.05533 10.5917 6.34822L6.34904 10.5909C6.05615 10.8838 6.05615 11.3586 6.34904 11.6515C6.64194 11.9444 7.11681 11.9444 7.4097 11.6515L11.6523 7.40888Z" fill="#C1C3D1"/>
</svg>
