<svg width="22" height="22" viewBox="0 0 22 22" fill="none" xmlns="http://www.w3.org/2000/svg">
<path fill-rule="evenodd" clip-rule="evenodd" d="M14.869 2.36936C15.5836 1.65422 16.7423 1.65422 17.457 2.36936L19.6313 4.54513C20.346 5.26026 20.346 6.41972 19.6313 7.13485L10.614 16.1582C10.3596 16.4127 10.0359 16.5866 9.68331 16.6581L6.95663 17.2108C6.35537 17.3327 5.73308 17.145 5.2993 16.7109C4.86551 16.2768 4.67794 15.6541 4.79973 15.0525L5.35208 12.324C5.42351 11.9712 5.59727 11.6472 5.85165 11.3927L14.869 2.36936ZM6.98772 13.4677L7.08593 12.9826L9.02516 14.9231L8.54036 15.0214L6.5933 15.416L6.98772 13.4677ZM10.4367 13.7458L8.26238 11.5701L14.869 4.95908L16.163 3.66422L17.0433 4.54513L17.457 4.95908L18.3373 5.83999L17.0433 7.13485L10.4367 13.7458ZM2.74898 18.3351C2.24364 18.3351 1.83398 18.7451 1.83398 19.2507C1.83398 19.7564 2.24364 20.1663 2.74898 20.1663L19.2189 20.1663C19.7243 20.1663 20.1339 19.7564 20.1339 19.2507C20.1339 18.7451 19.7243 18.3351 19.2189 18.3351L2.74898 18.3351Z" fill="#82879E"/>
</svg>
