<svg width="20" height="20" viewBox="0 0 20 20" fill="none" xmlns="http://www.w3.org/2000/svg">
<path fill-rule="evenodd" clip-rule="evenodd" d="M3.6302 9.65156C3.54998 9.78369 3.48336 9.90143 3.4299 10.0003C3.48336 10.0992 3.54998 10.217 3.6302 10.3491C3.89076 10.7783 4.28983 11.351 4.84029 11.9219C5.93746 13.0597 7.60892 14.167 9.99935 14.167C12.3898 14.167 14.0612 13.0597 15.1584 11.9219C15.7089 11.351 16.1079 10.7783 16.3685 10.3491C16.4487 10.217 16.5153 10.0992 16.5688 10.0003C16.5153 9.90143 16.4487 9.78369 16.3685 9.65156C16.1079 9.22239 15.7089 8.64962 15.1584 8.07877C14.0612 6.94096 12.3898 5.83366 9.99935 5.83366C7.60892 5.83366 5.93746 6.94096 4.84029 8.07877C4.28983 8.64962 3.89076 9.22239 3.6302 9.65156ZM18.265 10.3293C18.2651 10.329 18.2653 10.3286 17.4993 10.0003L18.2653 10.3286C18.3551 10.119 18.3551 9.88168 18.2653 9.67206L17.4993 10.0003C18.2653 9.67206 18.2651 9.6717 18.265 9.67132L18.2646 9.67047L18.2637 9.66843L18.2614 9.66296L18.2541 9.64664C18.2482 9.63341 18.2401 9.6155 18.2298 9.59325C18.2092 9.54875 18.1795 9.48675 18.1406 9.40977C18.0629 9.25593 17.9479 9.04147 17.7931 8.78659C17.4845 8.27826 17.013 7.60103 16.3581 6.92188C15.0446 5.55969 12.9661 4.16699 9.99935 4.16699C7.03263 4.16699 4.95409 5.55969 3.64055 6.92188C2.98565 7.60103 2.51418 8.27826 2.20555 8.78659C2.05081 9.04147 1.93576 9.25593 1.85806 9.40977C1.81917 9.48675 1.78954 9.54875 1.76888 9.59325C1.75855 9.6155 1.75045 9.63341 1.74455 9.64664L1.73734 9.66296L1.73496 9.66843L1.73408 9.67047L1.73371 9.67132C1.73355 9.6717 1.73339 9.67206 2.49932 10.0003L1.73339 9.67206C1.64356 9.88168 1.64356 10.119 1.73339 10.3286L2.49932 10.0003C1.73339 10.3286 1.73355 10.329 1.73371 10.3293L1.73408 10.3302L1.73496 10.3322L1.73734 10.3377L1.74455 10.354C1.75045 10.3672 1.75855 10.3851 1.76888 10.4074C1.78954 10.4519 1.81917 10.5139 1.85806 10.5909C1.93576 10.7447 2.05081 10.9592 2.20555 11.2141C2.51418 11.7224 2.98565 12.3996 3.64055 13.0788C4.95409 14.441 7.03263 15.8337 9.99935 15.8337C12.9661 15.8337 15.0446 14.441 16.3581 13.0788C17.013 12.3996 17.4845 11.7224 17.7931 11.2141C17.9479 10.9592 18.0629 10.7447 18.1406 10.5909C18.1795 10.5139 18.2092 10.4519 18.2298 10.4074C18.2401 10.3851 18.2482 10.3672 18.2541 10.354L18.2614 10.3377L18.2637 10.3322L18.2646 10.3302L18.265 10.3293ZM9.99935 11.667C9.07887 11.667 8.33268 10.9208 8.33268 10.0003C8.33268 9.07985 9.07887 8.33366 9.99935 8.33366C10.9198 8.33366 11.666 9.07985 11.666 10.0003C11.666 10.9208 10.9198 11.667 9.99935 11.667ZM6.66602 10.0003C6.66602 8.15938 8.1584 6.66699 9.99935 6.66699C11.8403 6.66699 13.3327 8.15938 13.3327 10.0003C13.3327 11.8413 11.8403 13.3337 9.99935 13.3337C8.1584 13.3337 6.66602 11.8413 6.66602 10.0003Z" fill="#1E1F23"/>
</svg>
