<svg width="16" height="16" viewBox="0 0 16 16" fill="none" xmlns="http://www.w3.org/2000/svg">
<path d="M7.11164 1.27209C7.51461 0.642622 8.48539 0.642622 8.88836 1.27209L10.845 4.32851C10.9898 4.55464 11.226 4.71592 11.4995 4.77547L15.1963 5.58034C15.9577 5.7461 16.2577 6.61402 15.7454 7.16881L13.2578 9.86266C13.0738 10.062 12.9836 10.3229 13.0078 10.5859L13.3359 14.1397C13.4035 14.8716 12.6181 15.408 11.8985 15.1214L8.40446 13.7299C8.14594 13.627 7.85406 13.627 7.59554 13.7299L4.10147 15.1214C3.38187 15.408 2.5965 14.8716 2.66407 14.1397L2.99216 10.5859C3.01644 10.3229 2.92624 10.062 2.7422 9.86266L0.254642 7.16881C-0.257664 6.61402 0.0423232 5.7461 0.803681 5.58034L4.50053 4.77547C4.77405 4.71592 5.01019 4.55464 5.15495 4.32851L7.11164 1.27209Z" fill="#C1C3D1"/>
</svg>
