<svg width="18" height="18" viewBox="0 0 18 18" fill="none" xmlns="http://www.w3.org/2000/svg">
<path fill-rule="evenodd" clip-rule="evenodd" d="M9 2C9.50479 2 9.97049 2.27175 10.2188 2.71122L11.9236 5.72787L14.8688 6.30406C15.3818 6.40444 15.7962 6.78235 15.9434 7.28403C16.0905 7.78571 15.9458 8.32757 15.5683 8.68916L13.3282 10.8343L13.8464 14.3986C13.9216 14.9156 13.7026 15.4315 13.2784 15.7366C12.8543 16.0416 12.2955 16.0851 11.8292 15.8494L9 14.4188L6.17075 15.8494C5.70449 16.0851 5.14575 16.0416 4.72159 15.7366C4.29742 15.4315 4.07843 14.9156 4.1536 14.3986L4.67181 10.8343L2.43175 8.68916C2.05415 8.32757 1.90949 7.78571 2.05662 7.28403C2.20375 6.78235 2.61815 6.40444 3.13123 6.30406L6.07643 5.72787L7.78116 2.71122C8.02951 2.27175 8.49521 2 9 2ZM6.97803 6.97802L3.40003 7.67802L6.16101 10.322L5.53903 14.6L9 12.85L12.461 14.6L11.839 10.322L14.6 7.67802L11.022 6.97802L9 3.4L6.97803 6.97802Z" fill="#C1C3D1"/>
</svg>
