<svg width="24" height="24" viewBox="0 0 24 24" fill="none" xmlns="http://www.w3.org/2000/svg">
<path fill-rule="evenodd" clip-rule="evenodd" d="M13 4.5C12.6022 4.5 12.2206 4.65804 11.9393 4.93934C11.658 5.22064 11.5 5.60218 11.5 6V7C11.5 8.19347 11.0259 9.33807 10.182 10.182C9.45677 10.9072 8.50951 11.3593 7.5 11.4722V17C7.5 17.663 7.76339 18.2989 8.23223 18.7678C8.70107 19.2366 9.33696 19.5 10 19.5H17C17.0141 19.5 17.0283 19.5006 17.0424 19.5018C17.3022 19.5239 17.5925 19.4241 17.8691 19.1474C18.1487 18.8678 18.3834 18.4341 18.5114 17.8936L19.4993 12.954C19.4876 12.5729 19.3311 12.2098 19.0607 11.9393C18.7794 11.658 18.3978 11.5 18 11.5H15C14.7239 11.5 14.5 11.2761 14.5 11V6C14.5 5.60218 14.342 5.22064 14.0607 4.93934C13.7794 4.65804 13.3978 4.5 13 4.5ZM7.44721 19.3944C7.37913 19.6442 7.24692 19.8744 7.06066 20.0607C6.77935 20.342 6.39782 20.5 6 20.5H4C3.60218 20.5 3.22065 20.342 2.93934 20.0607C2.65803 19.7794 2.5 19.3978 2.5 19V12C2.5 11.6022 2.65804 11.2206 2.93934 10.9393C3.22064 10.658 3.60218 10.5 4 10.5H7C7.92826 10.5 8.8185 10.1313 9.47487 9.47487C10.1313 8.8185 10.5 7.92826 10.5 7V6C10.5 5.33696 10.7634 4.70107 11.2322 4.23223C11.7011 3.76339 12.337 3.5 13 3.5C13.663 3.5 14.2989 3.76339 14.7678 4.23223C15.2366 4.70107 15.5 5.33696 15.5 6V10.5H18C18.663 10.5 19.2989 10.7634 19.7678 11.2322C20.2366 11.7011 20.5 12.337 20.5 13C20.5 13.0329 20.4967 13.0658 20.4903 13.0981L19.4903 18.0981L19.4868 18.1141C19.3267 18.797 19.0167 19.414 18.5762 19.8545C18.137 20.2937 17.5777 20.5434 16.9804 20.5H10C9.07174 20.5 8.1815 20.1313 7.52513 19.4749C7.49869 19.4484 7.47271 19.4216 7.44721 19.3944ZM6.5 11.5H4C3.86739 11.5 3.74021 11.5527 3.64645 11.6464C3.55268 11.7402 3.5 11.8674 3.5 12V19C3.5 19.1326 3.55268 19.2598 3.64645 19.3536C3.74021 19.4473 3.86739 19.5 4 19.5H6C6.13261 19.5 6.25979 19.4473 6.35355 19.3536C6.44732 19.2598 6.5 19.1326 6.5 19V11.5Z" fill="#1E1F23"/>
</svg>
