<svg width="20" height="20" viewBox="0 0 20 20" fill="none" xmlns="http://www.w3.org/2000/svg">
<path fill-rule="evenodd" clip-rule="evenodd" d="M10.0013 18.3332C5.39893 18.3332 1.66797 14.6022 1.66797 9.99984C1.66797 5.39747 5.39893 1.6665 10.0013 1.6665C14.6037 1.6665 18.3346 5.39747 18.3346 9.99984C18.3346 14.6022 14.6037 18.3332 10.0013 18.3332ZM10.0013 3.33317C6.3194 3.33317 3.33464 6.31794 3.33464 9.99984C3.33464 11.7878 4.03847 13.4113 5.18418 14.6085C5.50165 13.5746 6.21058 12.7119 7.13806 12.1936C6.33539 11.4341 5.83464 10.3588 5.83464 9.1665C5.83464 6.86532 7.70012 4.99984 10.0013 4.99984C12.3025 4.99984 14.168 6.86532 14.168 9.1665C14.168 10.3588 13.6672 11.4341 12.8645 12.1936C13.792 12.7119 14.501 13.5746 14.8184 14.6085C15.9641 13.4113 16.668 11.7878 16.668 9.99984C16.668 6.31794 13.6832 3.33317 10.0013 3.33317ZM13.334 15.775C13.3031 14.4212 12.1959 13.3332 10.8346 13.3332H10.0013H9.16797C7.8067 13.3332 6.69954 14.4212 6.66863 15.775C7.64906 16.342 8.78729 16.6665 10.0013 16.6665C11.2153 16.6665 12.3535 16.342 13.334 15.775ZM10.0013 11.6665C11.382 11.6665 12.5013 10.5472 12.5013 9.1665C12.5013 7.78579 11.382 6.6665 10.0013 6.6665C8.62059 6.6665 7.5013 7.78579 7.5013 9.1665C7.5013 10.5472 8.62059 11.6665 10.0013 11.6665Z" fill="#1E1F23"/>
</svg>
