<svg width="123" height="169" viewBox="0 0 123 169" fill="none" xmlns="http://www.w3.org/2000/svg">
<path fill-rule="evenodd" clip-rule="evenodd" d="M20.4828 10.5258C30.8905 9.41859 36.5918 9.07665 47.9361 8.87898C56.0055 8.73841 88.3178 8.83782 92.5397 9.01624C94.2996 9.09067 97.64 9.19619 99.963 9.25074C104.213 9.35066 104.958 9.43133 105.413 9.84107C105.549 9.9638 105.786 10.1267 105.94 10.2031C106.667 10.5641 106.744 10.9655 106.709 14.2268C106.672 17.5955 106.452 23.4982 106.352 23.7818C106.316 23.8839 106.203 25.5184 106.101 27.414C105.838 32.3112 105.823 32.3461 103.786 32.7718C102.746 32.9892 101.722 32.9951 83.4086 32.8869C72.8034 32.8243 60.2101 32.7945 55.4234 32.8207C50.6367 32.847 44.2052 32.8754 41.131 32.8839L35.542 32.8995C35.3143 32.906 29.6823 33.2238 28.0981 33.3442C26.5718 33.46 15.2947 33.7781 12.9316 33.772C11.4327 33.768 10.7362 33.1915 10.5738 31.8199C10.4554 30.82 10.9866 21.2576 11.4023 16.9051C11.5128 15.7485 11.6291 14.4868 11.6607 14.1013C11.7609 12.8777 12.2749 11.9363 12.9956 11.6558C13.4283 11.4873 15.8232 11.035 15.931 11.1012C15.9783 11.1304 16.2443 11.1047 16.5221 11.0443C16.7999 10.9839 17.4015 10.9041 17.8591 10.867C18.3166 10.83 18.8062 10.7687 18.947 10.7309C19.0878 10.693 19.7789 10.6008 20.4828 10.5258ZM13.3689 18.9199C13.3525 25.141 13.1287 30.5656 12.8773 30.8319C12.3563 31.3842 12.4558 20.9962 13.0184 16.117C13.2787 13.8585 13.38 14.6691 13.3689 18.9199ZM97.4033 11.5616C91.3934 11.2154 89.2008 11.1517 82.0448 11.1155C77.8916 11.0945 71.3258 11.0481 67.4542 11.0122C63.5826 10.9763 59.9542 10.9667 59.391 10.9905C58.8279 11.0143 54.0763 11.0933 48.832 11.166C39.9803 11.2886 38.2026 11.3447 32.4497 11.6825C29.4919 11.8562 25.155 12.2251 19.7149 12.7658C18.5886 12.8777 17.1369 13.0092 16.4889 13.0582C15.8409 13.107 15.2562 13.204 15.1897 13.2737C15.0242 13.447 14.7865 18.431 14.7159 23.2136C14.6837 25.3866 14.5905 28.1587 14.5086 29.3738C14.3438 31.8221 14.363 31.898 15.1074 31.7433C15.3185 31.6993 18.1407 31.6152 21.3787 31.5563C24.8505 31.4933 28.1064 31.3685 29.314 31.2523C30.4403 31.1438 32.2061 31.0175 33.2381 30.9715L35.1142 30.8879L35.542 30.8287C35.6031 30.8157 35.6857 30.8148 35.7897 30.8226C35.9887 30.8087 36.0628 30.8022 36.137 30.7992C36.2014 30.7966 36.2658 30.7966 36.412 30.7966H36.9306C37.0268 30.7966 37.1205 30.7913 37.2066 30.7863C37.4274 30.7737 37.5982 30.7639 37.6331 30.8549C37.7496 31.0793 37.8317 31.0111 37.9914 30.8784C38.1229 30.7691 38.1968 30.749 38.4962 30.6798C38.7763 30.615 38.9459 30.6163 38.9046 30.6828C38.6966 31.0179 103.7 30.8667 104.052 30.5314C104.345 30.2513 104.413 29.752 104.701 25.7626C104.812 24.2205 104.989 21.8117 105.093 20.4098C105.198 19.008 105.318 16.5664 105.36 14.9841L105.436 12.1072L105.095 11.8399C104.769 11.5843 104.652 11.5757 102.359 11.6408C101.041 11.6784 98.8111 11.6428 97.4033 11.5616Z" fill="#3E5BF1"/>
<path d="M79.7513 106.15C80.1348 106.73 80.2948 107.136 80.1396 107.136C79.9841 107.136 79.0384 105.326 79.1235 105.191C79.1953 105.078 79.2357 105.097 79.2682 105.261C79.2932 105.386 79.5105 105.786 79.7513 106.15Z" fill="#3E5BF1"/>
<path d="M68.7341 110.633C68.6637 110.66 68.4521 110.716 68.264 110.757C67.4309 110.94 66.8756 111.962 67.3683 112.406C67.677 112.684 67.7802 112.674 68.4904 112.298C69.2565 111.892 69.7021 111.895 70.1961 112.309C71.1239 113.087 70.2671 114.674 68.505 115.443C67.2629 115.986 67.4298 116.949 68.7661 116.95C70.4659 116.952 71.6691 118.178 71.4304 119.665C71.2074 121.054 70.3228 121.616 67.975 121.862C66.9031 121.974 66.4125 122.337 66.5545 122.914C66.7357 123.65 67.3982 123.783 69.0008 123.403C69.4173 123.304 70.1009 123.148 70.5198 123.055C73.0517 122.495 73.83 118.879 71.9298 116.504C71.8506 116.405 71.7794 116.318 71.7157 116.239C71.4128 115.867 71.2811 115.704 71.2792 115.541C71.2777 115.415 71.353 115.288 71.4862 115.064C71.5226 115.003 71.5634 114.935 71.6081 114.857C72.4828 113.334 72.1476 111.566 70.8583 110.902C70.5081 110.722 68.9966 110.53 68.7341 110.633Z" fill="#3E5BF1"/>
<path d="M96.7482 85.4388C95.6923 86.7756 94.7891 87.7647 94.6244 87.7647C94.5584 87.7647 93.8607 87.2496 93.0741 86.62C91.571 85.4169 91.083 85.2213 90.8176 85.7152C90.6199 86.0828 92.0018 87.6514 93.4762 88.7333C93.8009 88.9715 93.5699 89.5576 92.5463 91.0938C91.5876 92.5322 91.4375 92.9247 91.7334 93.2193C92.1965 93.6804 92.6759 93.2915 93.9662 91.4077C94.7988 90.1919 95.0032 90.0969 95.6235 90.6379C97.7578 92.4993 98.2807 92.7232 98.5424 91.8878C98.6133 91.6615 98.4151 91.4076 97.3987 90.4222C97.2485 90.2766 97.111 90.1458 96.9862 90.027C96.3945 89.4641 96.0865 89.1712 96.0524 88.8495C96.0153 88.5004 96.3005 88.1174 96.8951 87.3188L96.8952 87.3186C97.0109 87.1632 97.1383 86.9921 97.2773 86.8025C98.365 85.3186 98.5619 84.8275 98.2096 84.4766C97.8945 84.1628 97.6064 84.3525 96.7482 85.4388Z" fill="#3E5BF1"/>
<path fill-rule="evenodd" clip-rule="evenodd" d="M87.7402 78.3955C87.6346 78.4235 87.0358 78.4843 86.4094 78.5305C85.4499 78.6014 85.2233 78.6618 84.9695 78.9145L84.6685 79.2143V84.3072C84.6685 87.3185 84.62 89.4177 84.5499 89.4428C84.2472 89.5512 84.3279 100.02 84.6365 100.667C84.7228 100.855 84.7691 101.128 84.8624 101.392C84.8821 101.448 84.9039 101.503 84.9286 101.557C85.0853 101.9 85.359 102.19 85.9584 102.204L90.6569 101.987C93.2411 101.868 95.9602 101.719 96.6993 101.656C97.4385 101.594 99.5523 101.503 101.397 101.455C101.798 101.445 102.158 101.439 102.481 101.434C103.919 101.41 104.633 101.399 104.995 101.038C105.352 100.682 105.366 99.9855 105.395 98.6029C105.402 98.2876 105.409 97.9365 105.422 97.5456C105.478 95.776 105.583 93.984 105.656 93.5635C105.731 93.1318 105.757 92.0773 105.715 91.142C105.672 90.1672 105.701 89.0918 105.786 88.5294C106.184 85.8692 106.325 81.6712 106.049 80.6513C105.612 79.0353 104.788 78.6877 101.115 78.5694C97.413 78.4501 87.9966 78.3277 87.7402 78.3955ZM97.9792 79.8117C102.442 79.9749 103.739 80.0597 103.97 80.204C104.267 80.3897 104.302 81.9699 104.066 84.5786C104.037 84.894 103.976 85.5822 103.93 86.1079C103.884 86.6336 103.82 87.2358 103.787 87.4461C103.753 87.6564 103.677 89.6923 103.617 91.9704C103.512 95.9742 103.327 98.4879 103.095 99.0677C102.921 99.503 102.225 99.6151 99.643 99.6228C98.3408 99.6268 96.325 99.6844 95.1635 99.7508C94.002 99.8171 92.0589 99.9084 90.8456 99.9538L88.6393 100.036C88.5786 100.041 88.5193 100.045 88.4616 100.049C88.2371 100.065 88.0354 100.076 87.8554 100.083C87.7049 100.089 87.5695 100.092 87.4484 100.094C87.1675 100.096 86.9636 100.088 86.8272 100.077C86.7396 100.069 86.6799 100.06 86.6457 100.052C85.7368 99.9724 85.653 99.7377 85.7637 97.5812C85.8161 96.563 85.8664 92.3464 85.8756 88.2108C85.8932 80.2528 85.9072 80.0639 86.4879 79.9302C86.6487 79.8933 87.9322 79.8144 89.3401 79.7549C90.7479 79.6955 91.9862 79.6371 92.0918 79.6251C92.1974 79.6133 94.8467 79.6971 97.9792 79.8117Z" fill="#3E5BF1"/>
<path fill-rule="evenodd" clip-rule="evenodd" d="M14.9387 91.6444C13.7288 93.3901 13.838 93.4586 17.3078 93.132C17.4531 93.1184 17.5886 93.1049 17.7151 93.0924C18.5658 93.0081 19.008 92.9643 19.2466 93.1629C19.5049 93.3779 19.5248 93.8769 19.5663 94.9161L19.5663 94.9164C19.572 95.0591 19.5781 95.212 19.5853 95.3757C19.6836 97.6226 19.7593 97.9603 20.1644 97.9603C20.6806 97.9603 20.8417 97.423 20.9422 95.3677C21.065 92.8557 21.0906 92.7618 21.6798 92.6648C21.9365 92.6225 22.3137 92.535 22.5177 92.4704C22.7218 92.4056 23.0011 92.3527 23.1383 92.3527C23.5687 92.3527 24.2585 91.9571 24.2585 91.7103C24.2585 91.3059 23.6193 90.9163 23.1066 91.0079C22.9853 91.0296 22.871 91.0508 22.7634 91.0708C22.0749 91.1986 21.6572 91.2762 21.4072 91.1074C21.0217 90.8472 21.0349 90.0011 21.0684 87.8501L21.0685 87.8473C21.0719 87.6301 21.0755 87.3995 21.0789 87.1549C21.1021 85.4869 21.1152 84.6121 21.1542 84.1324C21.155 83.7095 21.143 83.4297 21.1099 83.2455C21.0697 83.0221 20.9986 82.9395 20.8818 82.9129C20.812 82.897 20.726 82.901 20.6205 82.907L20.6067 82.9078C20.5207 82.9127 20.4222 82.9183 20.3094 82.9152C20.2932 82.9247 20.2872 82.9246 20.2909 82.9146C19.7671 82.8949 19.518 83.2347 19.4589 83.4071C19.4371 83.4454 19.4102 83.4948 19.3791 83.5535C19.3362 83.6344 19.2854 83.7328 19.2289 83.8439C19.2062 83.8885 19.1827 83.9351 19.1583 83.9834C18.9705 84.3564 18.7372 84.8321 18.5272 85.2644C18.4993 85.3219 18.4718 85.3785 18.4449 85.4341C18.3904 85.5466 18.3382 85.6546 18.2897 85.7552C18.2373 85.8639 18.1892 85.9639 18.1471 86.0518C17.9308 86.9025 16.5808 89.2751 14.9387 91.6444ZM18.3101 91.6561C19.4775 91.5317 19.7426 90.8959 19.699 88.3261C19.6748 86.9033 19.5722 86.966 18.2111 89.234L18.2038 89.2461C17.2993 90.7531 16.9218 91.3823 17.0905 91.6101C17.2115 91.7733 17.613 91.7305 18.3023 91.6569L18.3101 91.6561Z" fill="#3E5BF1"/>
<path fill-rule="evenodd" clip-rule="evenodd" d="M105.786 0.156626C105.34 0.287257 104.335 0.309433 101.307 0.255651C99.0471 0.215378 96.4331 0.245201 95.0995 0.326383C92.8016 0.466063 89.9802 0.641428 83.1967 1.06595C79.6705 1.28656 58.224 1.37156 36.9292 1.24934C33.6559 1.23048 30.6322 1.24182 30.2099 1.27458C29.7875 1.3072 27.6277 1.36914 25.4103 1.41222C23.193 1.45542 21.1772 1.51685 20.9308 1.54884C20.6844 1.58083 19.4461 1.66685 18.1791 1.74013C14.1821 1.97119 11.9696 2.42273 9.7013 3.47008C8.27642 4.12795 7.68857 4.74415 7.03609 6.26342C6.91579 6.5438 6.56984 7.30121 6.26753 7.94659C5.31492 9.98036 5.24158 10.4899 5.12447 15.8855C5.09184 17.3926 5.03603 19.0844 5.00045 19.6452C4.96487 20.2059 4.87285 21.7814 4.79619 23.1462C4.71939 24.511 4.62583 25.6772 4.58833 25.7376C4.55083 25.798 4.47212 28.8392 4.4135 32.4959C4.30804 39.0631 4.10045 43.4489 3.71866 47.1734C3.61089 48.2248 3.46576 49.8593 3.39613 50.8056C3.32651 51.7518 3.20466 53.1569 3.12531 53.928C3.04596 54.699 2.93512 57.4805 2.87906 60.1091C2.82288 62.7376 2.72036 65.3184 2.65112 65.8441C2.58188 66.3698 2.4599 68.1477 2.38004 69.7949C2.30018 71.4421 2.17155 73.6215 2.09399 74.6378C2.01144 75.7193 1.92031 82.3794 1.87398 90.6959C1.83059 98.5115 1.74945 104.977 1.69377 105.063C1.6381 105.149 1.5375 106.927 1.47018 109.014C1.40298 111.1 1.28562 113.209 1.20947 113.7C1.02965 114.86 0.861853 122.031 0.716204 134.792C0.651826 140.435 0.541502 145.682 0.471109 146.453C0.400716 147.224 0.307797 149.031 0.264537 150.468C0.221406 151.905 0.127974 153.717 0.0569406 154.495C-0.32459 158.672 1.20371 161.523 4.86837 163.468C5.43152 163.767 6.26663 164.213 6.72419 164.459C7.18174 164.706 7.91588 165.099 8.35552 165.333C8.79515 165.567 9.66367 166.103 10.2856 166.525C10.9075 166.946 11.4587 167.291 11.5105 167.291C11.5624 167.291 11.7881 167.427 12.0122 167.593C13.4434 168.656 16.0673 169.154 19.203 168.958C20.3996 168.883 23.9705 168.763 27.1382 168.691C30.3059 168.619 34.6542 168.478 36.8012 168.379C44.1277 168.04 48.7678 167.796 48.96 167.739C49.1269 167.689 54.1314 167.516 68.9261 167.046C71.7821 166.956 74.1153 166.982 79.677 167.165C105.212 168.009 109.009 167.847 111.226 165.821C111.578 165.499 112.384 164.848 113.018 164.374C115.411 162.581 115.774 161.82 116.093 157.923C116.624 151.427 116.752 148.355 116.782 141.419C116.802 136.653 116.85 134.983 117.175 127.846C117.238 126.444 117.294 124.236 117.299 122.94C117.308 120.432 117.573 115.754 117.873 112.808C118.226 109.329 118.337 107.935 118.46 105.416C118.707 100.364 118.84 97.9954 118.97 96.3672C119.201 93.4844 119.481 88.0542 119.495 86.187C119.502 85.1972 119.555 83.7852 119.613 83.0492C119.671 82.3132 119.777 78.8148 119.849 75.2751C119.972 69.247 120.067 66.7175 120.382 61.0649C120.556 57.9598 120.841 53.9884 121.072 51.4428C121.177 50.2862 121.323 48.6804 121.395 47.8743C121.468 47.0682 121.586 45.7778 121.658 45.0068C121.73 44.2358 121.845 42.4005 121.914 40.9285C122.12 36.5475 122.288 33.8543 122.425 32.772C122.495 32.2113 122.609 30.4621 122.677 28.885C122.746 27.3078 122.869 24.8323 122.95 23.3839C123.175 19.3976 122.61 13.5808 121.757 11.1063C120.834 8.4291 119.814 7.0165 118.09 6.02918C114.36 3.89256 112.646 2.89224 111.866 2.39622C111.092 1.9039 108.729 0.719552 108.521 0.719552C108.481 0.719552 108.267 0.637094 108.046 0.536285C106.66 -0.0930399 106.647 -0.095206 105.786 0.156626ZM107.861 2.74275C108.634 3.07283 109.857 4.43242 110.422 5.59077C111.31 7.41043 111.516 8.24545 111.957 11.8073C112.149 13.3555 112.142 21.6737 111.946 24.1695C111.491 29.9749 111.404 31.2247 111.292 33.6004C111.224 35.0374 111.112 36.8152 111.042 37.5512C110.973 38.2872 110.883 39.4056 110.841 40.0364C110.799 40.6673 110.711 41.6136 110.645 42.1393C110.578 42.665 110.465 43.8407 110.393 44.7519C109.528 55.6806 109.521 55.8014 109.105 69.4126C109.03 71.8308 108.914 75.0711 108.847 76.6132C108.779 78.1553 108.639 81.453 108.536 83.9413C108.309 89.4347 108.138 92.5941 107.969 94.4556C107.899 95.2266 107.752 97.2912 107.644 99.0436C107.284 104.847 106.89 109.721 106.733 110.323C106.687 110.498 106.604 113.05 106.549 115.994C106.426 122.531 106.228 128.501 106.034 131.478C105.954 132.705 105.84 137.035 105.779 141.101C105.71 145.804 105.601 149.211 105.48 150.468C105.376 151.554 105.225 153.16 105.145 154.036C104.923 156.453 104.798 156.682 102.651 158.607C100.4 160.625 99.0552 160.775 85.3085 160.548C80.205 160.463 74.8199 160.341 73.3416 160.278C71.8634 160.214 68.3933 160.16 65.6304 160.158C61.7046 160.155 60.6047 160.119 60.5968 159.994C60.5887 159.867 60.5737 159.867 60.5222 159.994C60.4742 160.113 59.9241 160.154 58.3885 160.154C57.2504 160.153 54.8219 160.211 52.9916 160.28C51.1614 160.35 47.9073 160.467 45.7604 160.54C42.0473 160.667 39.091 160.797 30.0819 161.23C27.8997 161.335 24.8184 161.48 23.2346 161.551C20.3383 161.682 19.9655 161.701 15.7478 161.94C8.6591 162.34 4.68381 161.833 3.44682 160.369C2.06954 158.739 1.9829 157.73 2.35035 147.6C2.67236 138.721 2.7608 134.434 2.76413 127.528C2.76618 123.567 2.82275 119.725 2.88994 118.989C2.95701 118.253 3.0983 116.188 3.20389 114.401C3.30936 112.613 3.4527 110.606 3.52233 109.94C3.59195 109.274 3.67566 103.883 3.70829 97.9603C3.74106 92.0373 3.82566 86.1015 3.89631 84.7697C3.96708 83.4379 4.02749 81.3073 4.03069 80.0349C4.03697 77.4957 4.33914 70.6157 4.5502 68.2018C4.62379 67.3607 4.73936 64.6652 4.80694 62.2119C4.87464 59.7586 5.0153 56.6903 5.11974 55.3936C5.61019 49.299 5.70797 48.2189 5.89765 46.791C6.00938 45.9499 6.12393 45.0036 6.15221 44.6882C6.20802 44.0668 6.52363 35.3975 6.50955 34.8749C6.47602 33.6326 6.75311 24.5977 6.85947 23.4685C6.93204 22.6975 7.01626 20.5581 7.04646 18.7143C7.07679 16.8707 7.13362 15.3103 7.17304 15.2469C7.21233 15.1837 7.2954 14.1114 7.3576 12.8642C7.47407 10.529 7.48034 10.4992 8.25185 8.62116C9.23671 6.22379 10.1089 5.3072 11.9985 4.68387C14.101 3.99044 19.1635 3.58694 27.3942 3.45682C29.9283 3.4168 33.1824 3.33498 34.6254 3.27521C38.0951 3.13133 56.7598 3.22143 62.5907 3.41018C69.7174 3.64098 81.3597 3.45045 86.7163 3.01548C87.5962 2.94398 89.6408 2.82176 91.2599 2.74402C92.8789 2.66615 94.9235 2.55629 95.8034 2.49984C98.9179 2.29987 107.215 2.46695 107.861 2.74275ZM115.314 10.2058C117.007 11.3389 117.511 12.0603 116.072 11.2914C114.695 10.5554 113.832 9.82807 114.063 9.59828C114.198 9.46357 114.225 9.4767 115.314 10.2058ZM117.625 12.0622C117.669 12.1323 117.647 12.1896 117.576 12.1896C117.506 12.1896 117.413 12.1323 117.369 12.0622C117.326 11.9921 117.348 11.9347 117.418 11.9347C117.489 11.9347 117.582 11.9921 117.625 12.0622ZM115.118 13.2925C117.222 14.5044 120.446 16.9107 120.558 17.3517C120.913 18.7631 120.456 18.7935 118.552 17.4841C117.691 16.8913 116.517 16.0859 115.944 15.6942C114.577 14.7593 114.505 14.6675 114.408 13.7411C114.313 12.8427 114.325 12.8355 115.118 13.2925ZM13.3689 18.9199C13.3525 25.141 13.1287 30.5656 12.8773 30.8319C12.3563 31.3842 12.4558 20.9962 13.0184 16.117C13.2787 13.8585 13.38 14.6691 13.3689 18.9199ZM117.794 19.6421L117.794 19.6422C120.154 21.2163 120.741 21.6075 120.862 22.1101C120.902 22.2763 120.892 22.4547 120.877 22.6921L120.877 22.6933L120.877 22.6941L120.877 22.6943C120.872 22.779 120.867 22.8712 120.863 22.973C120.809 24.4073 120.567 24.4186 118.892 23.0659C118.618 22.8444 117.788 22.1977 117.049 21.6287C116.31 21.0598 115.595 20.5022 115.461 20.3898C115.326 20.2774 115.024 20.0726 114.789 19.9346C114.376 19.6923 114.362 19.6561 114.362 18.8783V18.8209C114.361 18.2222 114.361 17.8666 114.523 17.7637C114.76 17.6132 115.343 18.0036 116.78 18.9651L116.78 18.9652L116.875 19.0283C117.208 19.2511 117.513 19.455 117.794 19.6421ZM115.012 22.8001C115.44 23.0668 116.929 24.2258 119.402 26.216C120.506 27.1044 120.785 27.6285 120.581 28.4351C120.413 29.1029 120.163 28.9901 117.369 26.9855C116.877 26.632 116.128 26.1318 115.705 25.8738C114.149 24.9235 113.887 24.5195 114.115 23.4159L114.122 23.3835L114.122 23.3832C114.235 22.8364 114.286 22.586 114.415 22.5369C114.524 22.4955 114.688 22.5979 114.991 22.7869L115.012 22.8001ZM115.908 28.4941C119.099 30.6088 120.35 31.8129 120.198 32.6226C120.051 33.4037 119.819 33.3184 117.369 31.5812C116.947 31.2817 116.021 30.6395 115.311 30.1542C113.796 29.1179 113.542 28.7342 113.846 27.9374C114.044 27.4195 114.452 27.5298 115.908 28.4941ZM115.613 33.0523C116.509 33.662 117.644 34.4426 118.137 34.787C118.63 35.1313 119.189 35.5069 119.38 35.6216C120.196 36.111 120.316 38.7045 119.538 39.0021C119.359 39.0704 117.371 37.8129 116.803 37.2728C116.633 37.1105 116.279 36.8344 116.018 36.6591C113.759 35.1462 113.301 34.5514 113.406 33.2625L113.411 33.199L113.417 33.125C113.469 32.4713 113.498 32.1045 113.675 32.0083C113.902 31.8854 114.37 32.2049 115.438 32.9326L115.462 32.9494C115.511 32.9829 115.562 33.0172 115.613 33.0523ZM46.2723 34.4537C45.9555 34.4771 43.5366 34.5488 40.8968 34.6127C32.1558 34.8246 31.2237 34.8555 17.7951 35.381C14.7048 35.5018 11.9662 35.6866 10.9822 35.8404C9.98787 35.9959 9.5522 38.3023 9.53428 43.5052C9.53121 44.4012 9.47976 45.5553 9.41986 46.0698C9.28151 47.2591 9.4109 47.7251 9.98761 48.1144L10.4377 48.4183L14.1803 48.3178C16.2389 48.2626 18.5854 48.2035 19.3949 48.1863C23.266 48.104 30.0558 47.8699 32.0657 47.7494C33.2976 47.6756 35.2558 47.5576 36.4173 47.487C37.5788 47.4165 39.537 47.265 40.7688 47.1502C42.0007 47.0353 44.4911 46.9283 46.303 46.9122C49.8977 46.8804 50.1645 46.8508 50.3738 46.4613C50.558 46.1188 50.7741 36.3039 50.6106 35.714C50.2778 34.5141 49.2984 34.2295 46.2723 34.4537ZM71.6778 34.5664C68.8283 34.7343 62.5806 34.9127 59.0397 34.9273C58.4773 34.9296 57.9808 34.9252 57.5424 34.9213H57.5417H57.5412C55.8575 34.9064 55.0304 34.8991 54.6179 35.3073C54.2197 35.7014 54.208 36.4828 54.185 38.0189C54.1789 38.4334 54.1719 38.9029 54.1562 39.4345C53.9581 46.1677 53.9679 46.7118 54.2933 46.9739C54.5673 47.1948 59.5355 47.3848 63.1666 47.3134C63.765 47.3017 73.0588 47.2757 83.8196 47.2558C102.878 47.2205 103.406 47.213 104.202 46.9682C105.151 46.6763 105.39 46.3996 105.475 45.4958C105.507 45.1568 105.561 44.6499 105.595 44.3696C105.63 44.0892 105.693 42.156 105.737 40.0734L105.817 36.2871L105.437 35.909C104.884 35.3586 102.655 35.2075 92.8597 35.0568C90.22 35.0161 86.7067 34.8996 85.0525 34.7978C82.204 34.6224 73.3308 34.4689 71.6778 34.5664ZM80.9827 36.3837C82.4075 36.4922 82.4115 36.4969 82.4737 38.1599C82.5304 39.675 82.1381 45.0611 81.9563 45.2617C81.8467 45.3828 80.8724 45.4342 74.6215 45.6491C71.7667 45.7473 70.5577 45.6303 70.4078 45.2413C70.3045 44.9734 70.332 38.1755 70.4399 37.2995C70.5103 36.7282 70.5839 36.5728 70.8459 36.4412C71.1958 36.2655 78.8589 36.2221 80.9827 36.3837ZM66.5202 36.7026C66.8671 36.8723 66.9442 37.7562 66.9163 41.2472C66.9135 41.5977 66.9122 41.9205 66.9111 42.2176C66.9035 44.1838 66.9002 45.0283 66.4789 45.3902C66.1616 45.6627 65.6073 45.6615 64.6357 45.6594C64.4406 45.6589 64.2287 45.6585 63.9986 45.6602C62.8019 45.6691 60.4981 45.7185 58.8791 45.7699C58.4915 45.7822 58.1469 45.799 57.8407 45.8139C56.7429 45.8674 56.1384 45.8968 55.8178 45.6107C55.4249 45.2599 55.4589 44.4349 55.5346 42.5986L55.5347 42.5972L55.5348 42.5946L55.5348 42.5937C55.552 42.177 55.5713 41.7084 55.5883 41.1815C55.7267 36.875 55.7496 36.7268 56.2967 36.6201C56.8162 36.5188 66.3009 36.5953 66.5202 36.7026ZM101.085 36.929C102.461 37.0265 103.112 37.0726 103.391 37.4176C103.641 37.7281 103.589 38.2809 103.489 39.3314L103.489 39.3316L103.489 39.3317L103.489 39.3319L103.476 39.4694C103.393 40.342 103.289 41.9505 103.244 43.0438C103.187 44.44 103.11 45.0942 102.987 45.2422C102.768 45.505 85.3517 45.5724 85.0897 45.3115C84.8108 45.0338 85.0274 37.149 85.3209 36.8938C85.5914 36.6585 97.5397 36.6767 100.923 36.9175L101.085 36.929ZM48.6773 37.3959C48.867 37.6466 48.8521 45.0933 48.6616 45.2831C48.5381 45.4061 41.4967 45.5024 41.0365 45.3875L40.728 45.3104L40.8139 41.6015C40.8628 39.4852 40.9539 37.8275 41.026 37.741C41.4339 37.2516 48.3328 36.9404 48.6773 37.3959ZM38.9725 37.9252C39.1371 38.2315 39.1469 43.909 38.9839 44.6081C38.8045 45.3783 38.794 45.3815 36.1232 45.4772C34.7715 45.5258 33.1673 45.6043 32.5584 45.6519C31.1127 45.7648 31.1049 45.7525 31.2228 43.5509C31.27 42.6693 31.3493 41.1396 31.3991 40.1515C31.5101 37.9517 31.5184 37.938 32.7532 37.921C33.2551 37.914 34.1551 37.8655 34.7534 37.8133C37.1076 37.6074 38.8262 37.6531 38.9725 37.9252ZM29.2075 38.0112C29.8228 38.1756 29.8867 39.4039 29.5034 43.7116C29.4967 43.7872 29.4902 43.8602 29.484 43.9307C29.3941 44.9537 29.3502 45.4527 29.0777 45.7246C28.8183 45.9834 28.3515 46.0362 27.4402 46.1392C27.3743 46.1467 27.306 46.1544 27.2353 46.1625C26.4076 46.257 25.2408 46.3938 24.6424 46.4662C23.1402 46.6482 21.2762 46.638 21.0844 46.4469C20.806 46.1697 20.8717 38.9177 21.1548 38.6666C21.3069 38.5317 21.8916 38.4184 22.9786 38.3134C23.8585 38.2282 24.9816 38.1165 25.4743 38.0649C26.6091 37.9459 28.8431 37.9138 29.2075 38.0112ZM114.799 38.5853C114.988 38.7336 115.114 38.8834 115.079 38.9185C115.015 38.9825 114.106 38.4694 114.106 38.3692C114.106 38.2249 114.493 38.3456 114.799 38.5853ZM19.1135 38.9531C19.3596 39.3153 19.4035 39.507 19.3468 39.9727C19.3084 40.2881 19.2397 41.7792 19.1941 43.2863C19.1861 43.5513 19.1801 43.7952 19.1746 44.0197L19.1746 44.0201C19.1415 45.3652 19.1256 46.0135 18.792 46.3327C18.4817 46.6297 17.8964 46.6418 16.7665 46.6651C16.5638 46.6692 16.3436 46.6738 16.1043 46.6804C15.9398 46.6849 15.7848 46.6897 15.6387 46.6941L15.6313 46.6943L15.6279 46.6944L15.6264 46.6945L15.6257 46.6945L15.6253 46.6945H15.6252L15.6201 46.6947L15.6178 46.6947L15.6169 46.6948L15.6163 46.6948C14.3352 46.7338 13.7453 46.7518 13.475 46.468C13.2442 46.2257 13.2464 45.7635 13.2504 44.9069C13.251 44.7872 13.2515 44.6599 13.2515 44.5244C13.2515 42.2884 13.4905 39.18 13.6767 38.9929C13.7659 38.9033 14.4806 38.8042 15.4273 38.7501C16.3072 38.6999 17.1712 38.6139 17.3471 38.5591C18.1019 38.3239 18.7905 38.4775 19.1135 38.9531ZM11.894 39.1548C12.0801 39.6375 11.9767 45.9657 11.7764 46.3513C11.5757 46.7379 11.0549 46.8755 10.8771 46.589C10.657 46.2346 10.972 39.4388 11.2199 39.192C11.513 38.9001 11.7899 38.8848 11.894 39.1548ZM116.089 39.4629C116.133 39.533 116.111 39.5904 116.041 39.5904C115.97 39.5904 115.877 39.533 115.833 39.4629C115.79 39.3928 115.812 39.3355 115.882 39.3355C115.953 39.3355 116.046 39.3928 116.089 39.4629ZM116.039 44.9431C119.13 47.5529 119.225 47.6501 119.225 48.2055C119.225 49.2426 118.859 49.371 117.902 48.6708C116.054 47.3197 115.004 46.6502 113.824 46.0701C112.646 45.4907 112.525 45.2901 112.594 44.0284C112.695 42.1971 112.83 42.2331 116.039 44.9431ZM118.521 43.7961C118.847 44.0764 119.167 44.3058 119.233 44.3058C119.299 44.3058 119.353 44.3919 119.353 44.497C119.353 44.6022 119.325 44.6882 119.291 44.6882C119.196 44.6882 117.707 43.546 117.621 43.4074C117.428 43.0959 117.991 43.339 118.521 43.7961ZM115.353 49.774C118.445 52.0971 118.603 52.2538 118.682 53.075C118.848 54.797 118.162 54.54 113.984 51.3152C113.53 50.9647 113.068 50.6781 112.957 50.6781C112.38 50.6781 112.186 50.3256 112.186 49.2794C112.186 47.407 112.208 47.4104 115.353 49.774ZM46.5283 52.7306C45.226 52.7891 42.2152 52.8848 39.8377 52.9432C39.5143 52.9511 39.2104 52.9575 38.9248 52.9636C36.6692 53.0111 35.5561 53.0345 34.9952 53.6006C34.4487 54.1519 34.4262 55.2182 34.3817 57.3232C34.3759 57.5967 34.3698 57.8877 34.362 58.1974C34.3248 59.6932 34.2899 61.0633 34.258 62.3187C33.9505 74.4181 33.914 75.8531 34.5718 76.3215C34.6603 76.3845 34.7613 76.43 34.876 76.4817C34.9645 76.5216 35.0611 76.5651 35.1662 76.623L35.8413 76.9956L40.2569 76.9766C42.6854 76.9661 45.3636 76.894 46.2083 76.8163C47.053 76.7385 49.7312 76.642 52.1597 76.6019C54.7021 76.5598 56.7241 76.4728 56.9261 76.3967C57.8866 76.0351 58.0451 75.104 58.0562 69.7568C58.0612 67.3594 58.1224 64.9392 58.1921 64.3785C58.4476 62.323 58.4797 54.8386 58.235 54.3555C57.9596 53.8116 57.3257 53.1388 56.8313 52.8657C56.3798 52.6163 50.7192 52.542 46.5283 52.7306ZM64.6385 52.7274C60.9883 52.9126 60.9338 52.9294 60.7454 53.9292C60.5703 54.8592 60.5638 72.6151 60.7381 73.7023C60.752 73.7888 60.7651 73.8727 60.7779 73.954C60.8928 74.6868 60.9753 75.2135 61.2644 75.5777C62.0031 76.5085 64.0904 76.3781 71.5123 75.9145L71.9912 75.8846L72.312 75.8646L72.5097 75.8523C74.2343 75.7449 76.8453 75.5988 78.3118 75.5275C80.85 75.4043 81.6996 75.2538 81.7345 74.9213C81.7398 74.8705 81.7682 73.7393 81.7975 72.4075C81.8268 71.0757 81.8945 69.1545 81.9478 68.1381C82.0011 67.1217 82.0043 65.774 81.9551 65.1432C81.8958 64.3856 81.9311 63.4119 82.0591 62.2756C82.1938 61.0807 82.2407 59.637 82.2128 57.5497L82.1728 54.5443L81.7836 53.9175C81.5347 53.517 81.1884 53.1758 80.8236 52.9721L80.253 52.6535L73.4696 52.6385C69.7388 52.6302 65.7648 52.6702 64.6385 52.7274ZM100.859 52.7185C99.803 52.7766 98.6223 52.8547 98.2352 52.8922C97.848 52.9296 95.4867 52.9926 92.9877 53.0325C89.0325 53.0955 86.8475 53.2087 85.3609 53.4276C84.2309 53.5939 84.1782 54.2753 84.2448 67.8571L84.2458 68.0641C84.2734 73.7272 84.2775 74.5526 84.6937 74.9791C84.7645 75.0517 84.8472 75.1127 84.9441 75.1841L84.9442 75.1842L84.9446 75.1845L84.9448 75.1847L84.9655 75.1999C85.7606 75.7866 93.2483 75.5644 101.318 74.7147C101.522 74.6932 101.715 74.6739 101.898 74.6556L101.902 74.6553L101.908 74.6547L101.91 74.6545C103.175 74.5286 103.965 74.45 104.462 74.0285C105.288 73.3271 105.302 71.676 105.339 67.2768L105.339 67.2694L105.339 67.2668V67.2659V67.2651C105.343 66.8779 105.346 66.4693 105.35 66.0383C105.386 62.3917 105.47 58.6307 105.537 57.6803C105.9 52.5225 105.827 52.4451 100.859 52.7185ZM114.903 54.5992C115.94 55.3515 117.075 56.1678 117.426 56.4131C118.315 57.0348 118.701 58.3043 118.04 58.4291C117.449 58.5403 112.7 54.1696 112.698 53.5138C112.697 53.0506 112.919 53.1597 114.903 54.5992ZM26.4342 53.8664C21.8995 54.1037 17.5561 54.3887 15.8753 54.5592C13.3875 54.8117 10.721 55.1145 10.1413 55.2103C9.0853 55.3849 8.84404 56.1576 8.83086 59.4081C8.8187 62.4015 8.54263 69.593 8.39302 70.8145C8.20769 72.3264 8.22766 77.2225 8.42002 77.4772C8.58193 77.6914 9.73509 78.1691 11.1398 78.6039C12.0392 78.8823 14.1556 78.9213 17.3471 78.718C22.524 78.3884 23.5401 78.3127 25.0904 78.1416C28.8558 77.7257 30.4555 77.4085 30.9261 76.9845C31.5477 76.4244 31.6907 75.3056 31.9351 69.091C32.0069 67.2669 32.1297 65.2883 32.208 64.6942C32.2863 64.1 32.3584 61.9506 32.368 59.9179L32.3857 56.222L32.0182 55.6485C30.8577 53.837 30.3141 53.6635 26.4342 53.8664ZM80.0382 54.1024C80.4787 54.3805 80.5508 56.0734 80.2368 58.7709C80.1001 59.9445 80.0155 61.929 79.9897 64.5696C79.968 66.7776 79.8893 69.2437 79.8147 70.0498C79.7402 70.8559 79.6787 71.8725 79.6782 72.309C79.6765 73.4964 79.6358 73.5126 76.1679 73.7052C74.6134 73.7915 71.873 73.9531 70.078 74.0641C63.7065 74.4584 62.7271 74.4653 62.4822 74.117C62.2949 73.8509 62.2705 73.2762 62.2687 69.0974C62.2675 66.502 62.2074 63.6903 62.1349 62.8491C61.8113 59.089 61.9385 54.4932 62.3716 54.2997C62.9486 54.0419 79.6469 53.8554 80.0382 54.1024ZM55.7341 54.3056C55.9334 54.4082 56.1428 54.5945 56.1998 54.7198C56.4979 55.3759 56.3783 69.1629 56.0398 73.1722L56.0385 73.1871L56.0375 73.1998C56.0366 73.2111 56.0358 73.2222 56.0349 73.2332C56.034 73.2457 56.0331 73.2581 56.0322 73.2704C56.0292 73.3136 56.0267 73.355 56.0242 73.3948L56.0241 73.3956L56.0241 73.3962L56.024 73.3976L56.024 73.3982C56.009 73.6413 55.9977 73.8225 55.9132 73.9586C55.666 74.3566 54.7912 74.3681 51.3572 74.4134L51.3555 74.4134C51.0177 74.4179 50.655 74.4227 50.2658 74.4282C47.3302 74.4696 44.5253 74.5582 44.0325 74.625C43.5398 74.6917 41.4935 74.7878 39.4853 74.8386C39.044 74.8497 38.649 74.863 38.2956 74.8749C36.6666 74.9298 35.9217 74.9549 35.6005 74.5999C35.3299 74.3007 35.3602 73.7316 35.416 72.6829C35.4304 72.413 35.4465 72.1113 35.4595 71.7743C35.5167 70.3001 35.5757 68.2337 35.5907 67.1823C35.6057 66.1309 35.6495 62.9287 35.6881 60.0664C35.7529 55.2572 35.7757 54.8494 35.9876 54.6951C36.2246 54.5225 36.7346 54.5008 46.0803 54.2671C53.3265 54.0859 55.3229 54.0938 55.7341 54.3056ZM103.094 54.4942C103.509 54.7589 103.378 72.2481 102.958 72.666C102.306 73.3157 86.5385 74.4138 85.8642 73.8565C85.6773 73.702 85.6661 73.4433 85.7596 71.4523C85.901 68.4411 85.8972 67.8172 85.7199 65.0794C85.5136 61.8913 85.625 55.1353 85.8871 54.9358C86.3016 54.6204 102.635 54.2011 103.094 54.4942ZM29.7338 55.6485C29.9368 56.0274 29.8653 66.3349 29.6476 68.0744C29.5775 68.6352 29.4874 70.2857 29.4476 71.7424C29.4412 71.9773 29.4363 72.1957 29.4318 72.3988L29.4318 72.4005C29.4025 73.7247 29.3876 74.4002 29.0416 74.7601C28.6814 75.1348 27.9624 75.1676 26.4949 75.2344L26.4922 75.2345L26.4836 75.2349C26.27 75.2446 26.0407 75.2551 25.7943 75.2674C24.2809 75.3434 22.0347 75.4902 20.8028 75.5939C14.3568 76.1363 10.7966 76.2048 10.29 75.7958C9.94589 75.5181 9.91543 73.1689 10.1998 68.8391C10.2735 67.7175 10.3575 64.7353 10.3865 62.2119C10.4476 56.8925 10.4535 56.8309 10.9167 56.6555C11.2343 56.5354 12.8954 56.3524 16.5152 56.0387C17.3599 55.9656 18.6846 55.8492 19.4589 55.78C20.2333 55.7109 22.2203 55.589 23.8745 55.5091C25.5287 55.4291 26.9081 55.3399 26.9397 55.3107C27.2046 55.0668 29.5756 55.3534 29.7338 55.6485ZM112.803 56.7074C113.935 57.762 115.351 58.9445 116.632 59.9049C117.836 60.808 118.077 61.0863 117.758 61.2082C117.588 61.2733 114.799 59.2255 113.722 58.2439C113.035 57.6183 112.661 57.349 112.342 57.2494C111.953 57.1279 111.631 56.6202 111.736 56.292C111.859 55.9059 112.003 55.9619 112.803 56.7074ZM44.4805 56.8786C42.2013 57.6263 41.227 60.4446 42.5152 62.5633C43.0148 63.3847 43.0021 63.641 42.4461 63.968C40.0078 65.4022 39.0582 69.2631 40.7823 70.7326C42.427 72.1345 46.9684 71.7896 48.3727 70.156C49.7116 68.5985 49.4166 65.954 47.6907 64.0395C46.9583 63.2273 46.9232 63.0598 47.334 62.3394C48.263 60.71 48.4846 58.8229 47.8472 57.9661C47.1809 57.0704 45.5257 56.5357 44.4805 56.8786ZM69.63 57.2985C68.3017 57.5217 66.9846 58.4887 66.5139 59.5867C64.9724 63.1813 67.2135 65.6947 71.6952 65.3978C73.2634 65.2938 73.2657 65.296 72.9431 66.5877C72.2591 69.3268 70.7307 70.1222 67.6136 69.3615C66.6563 69.1279 66.6119 69.1275 66.3657 69.3494C64.6467 70.8985 70.0538 71.8464 72.4021 70.4075C75.0907 68.7603 76.1041 60.9805 73.9269 58.7016C72.9944 57.7255 70.9883 57.0704 69.63 57.2985ZM46.0602 58.4663C47.5344 59.1351 46.1164 62.5934 44.5305 62.197C43.5944 61.963 43.1607 60.1654 43.8188 59.2466C44.3588 58.4929 45.3546 58.1461 46.0602 58.4663ZM93.3077 58.4148C91.9623 58.7453 92.4522 60.8189 93.8155 60.5643C95.0034 60.3424 95.1106 58.5951 93.9476 58.4124C93.7364 58.3791 93.4485 58.3803 93.3077 58.4148ZM72.0121 59.4246C72.9099 60.025 73.5336 61.259 73.5336 62.4348C73.5336 64.0298 69.2705 64.1649 68.001 62.6102C67.493 61.9881 67.8039 60.3427 68.5626 59.638C69.4155 58.8457 71 58.7477 72.0121 59.4246ZM112.612 60.1098C113.092 60.5191 116.317 63.044 116.957 63.5124C117.693 64.0504 117.945 64.495 117.945 65.2539C117.945 66.5369 117.811 66.5207 116.075 65.03C115.868 64.8522 115.67 64.6824 115.481 64.5203L115.422 64.4692C111.946 61.4852 111.53 61.1281 111.462 60.7147C111.453 60.6585 111.45 60.6013 111.447 60.5363L111.447 60.5349L111.447 60.5346V60.5344L111.446 60.5169C111.446 60.5094 111.446 60.5018 111.445 60.494L111.444 60.4751C111.444 60.4655 111.443 60.4557 111.442 60.4458C111.374 59.3896 111.667 59.3055 112.612 60.1098ZM18.8466 59.8148L16.8264 59.8607L16.6991 60.1938C16.4378 60.8784 16.7583 60.9995 18.8708 61.0139L18.9503 61.0145H18.9505C20.4305 61.0244 21.1176 61.0291 21.2956 61.3312C21.4499 61.593 21.2218 62.0783 20.7961 62.9841L20.7697 63.0403C19.4369 65.8762 18.2431 69.7244 18.2059 71.3035C18.1711 72.7837 19.4692 72.6617 19.7194 71.1612C19.7687 70.8653 19.9151 70.2218 20.0447 69.7312C20.7558 67.0404 21.2435 65.7565 22.6705 62.817C24.1425 59.7854 24.0297 59.6969 18.8466 59.8148ZM96.4434 62.2176C95.4227 62.3072 94.0404 62.4419 93.3717 62.517C92.7029 62.5921 91.7991 62.6545 91.363 62.6558C90.0448 62.6594 89.4363 63.5327 90.4774 63.9269C90.8133 64.0541 93.3786 63.9825 94.7795 63.8069C95.3075 63.7407 96.373 63.6476 97.1473 63.6C98.9223 63.491 99.8656 63.1648 99.8949 62.6502C99.9299 62.0374 99.34 61.9636 96.4434 62.2176ZM46.0463 64.9561C46.9876 65.577 47.4314 66.3478 47.5111 67.5009C47.6072 68.8897 46.7519 69.6477 44.7423 69.9551C40.6694 70.5779 40.5168 66.984 44.5207 64.7309C44.9714 64.4771 45.4208 64.5435 46.0463 64.9561ZM112.914 65.2246C113.253 65.5148 114.104 66.2746 114.806 66.9132C115.507 67.5519 116.437 68.3898 116.872 68.7753C117.726 69.5333 117.994 69.9941 117.792 70.3539C117.674 70.5635 117.65 70.5635 117.327 70.3527C116.121 69.5678 112.186 65.4681 112.186 64.9975C112.186 64.6053 112.194 64.6079 112.914 65.2246ZM93.9797 66.7053C93.2787 67.1381 93.2525 68.2282 93.9356 68.5382C94.9029 68.9771 95.7483 67.5618 94.9773 66.7942C94.6083 66.4267 94.4534 66.4129 93.9797 66.7053ZM114.071 70.0633C115.322 71.2974 116.575 72.4586 116.855 72.6441C117.205 72.8758 117.29 72.981 117.127 72.981C116.996 72.981 116.68 72.8039 116.425 72.5875C116.17 72.3711 115.414 71.8373 114.746 71.4015C111.613 69.3596 111.096 68.879 111.244 68.1416C111.376 67.4887 111.653 67.6769 114.071 70.0633ZM113.54 73.2694C114.52 73.9887 115.72 74.8592 116.208 75.2036C117.385 76.0349 117.561 76.226 117.561 76.6694C117.561 77.4042 117.153 77.2391 115.07 75.6617C111.73 73.1321 111.089 72.5159 111.353 72.0901C111.512 71.8344 111.786 71.9826 113.54 73.2694ZM112.323 75.9267C115.49 78.0977 117.833 80.118 117.183 80.118C117.056 80.118 115.407 79.1284 113.361 77.8243C113.273 77.7686 113.189 77.7151 113.108 77.6636L113.085 77.6487C111.523 76.6539 111.188 76.4406 111.1 76.1525C111.076 76.0739 111.071 75.9897 111.063 75.8826L111.063 75.8823L111.062 75.8569L111.061 75.8405L111.06 75.8317L111.059 75.8127C111.007 75.1048 111.142 75.117 112.323 75.9267ZM68.2861 78.4179C61.3359 78.6773 61.0821 78.6959 60.8094 78.9677C60.549 79.2269 60.547 79.3105 60.5517 89.646L60.5565 100.063L60.8456 100.7C61.5527 102.259 61.8144 102.342 65.4704 102.173C67.9825 102.057 69.26 101.962 72.5097 101.65C73.3192 101.573 75.4502 101.469 77.2452 101.42C80.9274 101.319 81.4184 101.21 81.624 100.445C81.6805 100.235 81.7516 97.1956 81.7819 93.6909C81.8124 90.1862 81.8962 86.7451 81.9684 86.0442C82.4999 80.8829 81.9021 78.9439 79.6743 78.6037C78.8523 78.4781 70.3769 78.3399 68.2861 78.4179ZM46.4643 78.6006C39.7566 78.7297 35.2564 78.9689 34.9622 79.212C34.8558 79.2999 34.6256 79.7549 34.4507 80.2229L34.1328 81.0738L33.9847 89.8038C33.9033 94.6053 33.8088 99.0885 33.7746 99.7663C33.6934 101.376 34.0409 102.117 35.1374 102.673C36.0023 103.112 36.1051 103.112 45.0564 102.678C46.3235 102.617 49.376 102.499 51.8398 102.415C52.29 102.4 52.7059 102.388 53.0901 102.377L53.0918 102.377C55.5302 102.307 56.6914 102.274 57.2458 101.679C57.7498 101.138 57.752 100.134 57.7561 98.2155V98.2137C57.7568 97.8813 57.7576 97.5215 57.7611 97.1319C57.7798 95.0291 57.8541 92.9071 57.9263 92.4164C57.9985 91.9258 58.0912 89.1443 58.1324 86.2353C58.1412 85.6095 58.1548 85.0332 58.1673 84.5024C58.2305 81.8178 58.2662 80.3003 57.5263 79.4603C56.5641 78.368 54.2905 78.4213 49.0606 78.5437L49.0595 78.5437L49.0575 78.5438L49.0538 78.5439L49.0467 78.5441C48.2554 78.5626 47.3964 78.5827 46.4643 78.6006ZM112.043 79.5023C112.83 79.9726 116.055 82.1306 116.729 82.6391C117.488 83.2111 117.588 83.619 117.19 84.5157L116.931 85.0984L116.062 84.4665C113.78 82.8072 110.906 80.1534 110.906 79.7058C110.906 79.1354 111.308 79.0635 112.043 79.5023ZM76.7702 79.8442C79.2736 79.9121 79.8362 79.9608 79.9358 80.118C80.0932 80.3661 80.0868 85.3599 79.9282 86.1079C79.8613 86.4233 79.7456 89.3195 79.6711 92.5439C79.5968 95.7683 79.4922 98.5784 79.439 98.7887C79.308 99.3059 78.5392 99.4303 74.3655 99.6095C72.6057 99.685 70.4459 99.8038 69.566 99.8734C65.7508 100.175 62.7829 100.268 62.4247 100.098L62.0787 99.9325L62.0009 93.7531C61.9581 90.3543 61.9099 86.6272 61.8939 85.4707C61.8884 85.0679 61.8825 84.6946 61.8771 84.3487V84.3485C61.831 81.4187 61.8158 80.4483 62.2659 80.1297C62.4888 79.9718 62.8259 79.9738 63.3299 79.9768H63.3309H63.3319H63.3329H63.3339H63.335C63.4538 79.9776 63.5818 79.9783 63.7197 79.977C64.5067 79.9696 65.6688 79.9213 66.3023 79.8698C67.7711 79.7502 72.8444 79.7378 76.7702 79.8442ZM55.7043 80.3224L56.0376 80.6543L55.9691 90.1167C55.9225 96.5671 55.8565 99.6616 55.7615 99.8382C55.5428 100.245 53.939 100.357 46.0163 100.52C42.1095 100.599 38.1497 100.69 37.2167 100.721L35.5203 100.778L35.3929 100.444C35.2262 100.008 35.2407 93.5622 35.4185 89.0391C35.585 84.8017 35.5941 83.6084 35.4716 82.0297C35.4634 81.9247 35.455 81.8268 35.4471 81.7353L35.447 81.7342C35.4033 81.2269 35.3768 80.9192 35.5139 80.7275C35.7252 80.4319 36.3253 80.412 37.8506 80.3615C38.0297 80.3555 38.2216 80.3492 38.4272 80.3419C39.9615 80.2876 42.2247 80.195 43.4566 80.1359C44.6885 80.0771 47.8732 80.0201 50.5336 80.0096L55.3711 79.9905L55.7043 80.3224ZM70.3303 82.0754C68.3688 82.4962 66.6682 84.4073 66.1742 86.7459C65.904 88.0248 65.9146 90.9577 66.1924 91.7884C67.3284 95.1848 72.8893 95.5172 74.4793 92.2836C76.5127 88.1488 74.3599 85.1238 69.8626 85.7959C69.8186 85.8025 69.7759 85.8089 69.7345 85.8151L69.6472 85.8282C68.7254 85.9664 68.4906 86.0016 68.4322 85.9167C68.4122 85.8876 68.4129 85.8445 68.4137 85.7867L68.4139 85.7768L68.414 85.7683L68.4141 85.7607L68.4141 85.7542L68.4141 85.7472C68.4141 85.3929 69.7113 84.0416 70.3621 83.7179C70.981 83.4101 71.8836 83.3436 72.6135 83.5521C73.0645 83.681 73.5336 83.3957 73.5336 82.9926C73.5336 82.1672 71.9783 81.7219 70.3303 82.0754ZM43.6327 82.38C42.8127 82.4501 42.4849 82.8695 42.672 83.6095C42.7515 83.9241 42.8166 84.8126 42.8166 85.5837C42.8166 87.5698 42.8564 87.6087 44.9924 87.7107C47.8624 87.8477 48.7349 88.473 48.7391 90.3966C48.7435 92.3225 47.1754 93.2872 43.9685 93.3314C41.5959 93.3641 41.237 93.4948 41.5631 94.2074C41.9313 95.0121 46.2299 95.1281 47.7557 94.3745C50.0161 93.2582 50.9168 91.1289 50.1275 88.7673C49.541 87.0123 48.5337 86.3808 46.1008 86.2429C44.2808 86.1398 44.2245 86.0973 44.2245 84.8335C44.2245 83.513 44.2299 83.5098 46.3724 83.5865C47.5586 83.629 48.223 83.6048 48.3123 83.5158C48.5478 83.2813 48.471 82.688 48.1852 82.5357C47.9287 82.3991 44.7015 82.2886 43.6327 82.38ZM20.3094 82.9152C20.2932 82.9247 20.2872 82.9246 20.2909 82.9146C20.2971 82.9149 20.3033 82.915 20.3094 82.9152ZM111.557 83.2731C112.038 83.5958 116.252 86.9929 116.753 87.4611C117.465 88.1277 117.255 88.9492 116.512 88.4052C115.079 87.357 111.131 84.1401 110.962 83.8836C110.581 83.304 110.985 82.8891 111.557 83.2731ZM112.034 87.5417C112.434 87.9097 112.791 88.242 112.826 88.2802C112.861 88.3183 113.731 89.0513 114.76 89.909C117.127 91.8833 117.136 91.8989 116.932 93.7029C116.928 93.7357 116.924 93.768 116.921 93.7998L116.909 93.9044L116.909 93.9045C116.817 94.7291 116.767 95.1804 116.557 95.2727C116.303 95.3842 115.817 94.9704 114.741 94.0561C114.671 93.9967 114.599 93.9351 114.524 93.8714C113.696 93.168 112.701 92.3555 112.314 92.0657C110.49 90.7004 110.338 90.4388 110.377 88.721C110.423 86.6869 110.806 86.4142 112.034 87.5417ZM72.4457 87.682C73.7521 88.3809 73.8554 90.1003 72.6884 91.7202C71.2324 93.7416 67.9691 92.9427 67.5716 90.4676C67.2394 88.3994 70.4052 86.59 72.4457 87.682ZM112.783 95.2643C113.827 96.1649 115.114 97.3049 115.641 97.798L116.601 98.6941V99.6973C116.601 101.986 116.443 101.984 113.624 99.6469C112.375 98.6118 111.135 97.5989 110.866 97.3957C110.15 96.8533 110.024 96.5184 110.022 95.1514C110.019 93.092 110.275 93.1025 112.783 95.2643ZM112.972 104.548C115.775 106.991 116.047 107.254 115.942 107.422C115.824 107.612 115.646 107.5 113.721 106.021C111.081 103.993 111.038 103.966 110.5 103.958C109.719 103.945 109.626 103.863 109.626 103.182C109.626 101.703 109.78 101.766 112.972 104.548ZM79.1374 105.04C79.1008 105.076 76.0827 105.104 72.4306 105.101C62.9167 105.094 59.9828 105.313 59.785 106.047C59.589 106.773 59.7114 126.628 59.9155 127.236C60.5215 129.043 60.6539 129.067 67.7742 128.616C69.4284 128.512 72.3945 128.338 74.3655 128.23C79.3002 127.961 80.2938 127.86 80.5525 127.603C80.7417 127.415 80.7735 126.763 80.8435 121.629C80.8866 118.46 80.9927 114.633 81.0792 113.126C81.3085 109.13 81.2376 107.215 80.8365 106.572C80.6646 106.297 80.6016 106.119 80.6963 106.178C80.8125 106.249 80.8384 106.235 80.7758 106.134C80.7249 106.052 80.6362 106.014 80.5786 106.05C80.4219 106.146 80.153 105.768 80.258 105.599C80.3199 105.499 80.2684 105.478 80.0968 105.532C79.9249 105.586 79.7427 105.51 79.5242 105.293C79.348 105.117 79.1739 105.003 79.1374 105.04ZM47.6695 105.149C47.6199 105.198 42.4227 105.39 37.1351 105.539C34.3875 105.616 34.0925 105.712 33.6019 106.69L33.2823 107.328L33.1887 114.656C33.1372 118.686 33.0307 123.281 32.9523 124.866C32.773 128.486 32.8683 128.726 34.7712 129.433L35.4929 129.702L40.9786 129.506C43.9958 129.399 46.781 129.278 47.1682 129.238C47.5554 129.198 49.6677 129.126 51.8623 129.079C52.2192 129.071 52.5507 129.066 52.8584 129.061H52.8586C54.7493 129.031 55.747 129.015 56.2803 128.512C56.8761 127.949 56.8926 126.779 56.9277 124.3L56.9277 124.299C56.9328 123.938 56.9383 123.549 56.9461 123.131C56.9862 120.958 57.0737 118.52 57.1402 117.714C57.3302 115.416 57.3143 107.232 57.1192 106.862C56.7418 106.147 56.3399 105.736 55.7174 105.427L55.0531 105.097H51.388C49.3722 105.097 47.6988 105.121 47.6695 105.149ZM79.7513 106.15C80.1348 106.73 80.2948 107.136 80.1396 107.136C79.9841 107.136 79.0384 105.326 79.1235 105.191C79.1953 105.078 79.2357 105.097 79.2682 105.261C79.2932 105.386 79.5105 105.786 79.7513 106.15ZM83.8037 105.246C83.3423 105.479 83.2797 106.02 83.1131 111.215C82.6152 126.724 82.7682 128.324 84.7782 128.624C85.4942 128.731 91.3615 128.592 93.2437 128.423C93.9828 128.356 96.4306 128.268 98.6831 128.227C98.8111 128.224 98.9359 128.222 99.0578 128.22C102.148 128.164 103.32 128.142 103.756 127.568C104.023 127.216 104.015 126.658 104.002 125.759L104.001 125.691L104 125.625L104 125.58C103.991 124.864 104.018 123.79 104.06 123.194C104.102 122.599 104.162 120.686 104.192 118.945C104.223 117.203 104.31 115.546 104.387 115.263C104.568 114.594 104.756 108.356 104.621 107.506C104.42 106.239 103.739 105.601 102.31 105.342C101.15 105.131 84.2034 105.043 83.8037 105.246ZM110.428 106.276C112.795 107.942 115.591 110.398 115.761 110.96C116.141 112.216 115.627 114.097 114.996 113.761C114.643 113.572 113.582 112.77 113.406 112.557C113.205 112.316 111.209 110.738 110.674 110.398C109.518 109.663 109.178 109 109.207 107.539C109.239 105.944 109.529 105.644 110.428 106.276ZM25.0904 106.381C22.4179 106.537 19.9306 106.724 17.6031 106.944C16.512 107.047 14.6114 107.218 13.3795 107.323C12.9675 107.358 12.5862 107.389 12.2333 107.418C9.90014 107.607 8.80878 107.695 8.29445 108.284C7.84244 108.801 7.83611 109.705 7.82422 111.402L7.82421 111.402C7.82217 111.694 7.81996 112.01 7.81528 112.351C7.79365 113.934 7.68473 116.835 7.57338 118.798C7.46204 120.76 7.36937 123.398 7.36745 124.66C7.36553 125.922 7.3032 127.585 7.22897 128.356L7.09407 129.758L7.47547 130.077C8.34822 130.806 10.1832 131.26 12.4836 131.318C16.9538 131.431 27.432 130.516 29.2274 129.856L29.254 129.846C29.4761 129.764 29.6595 129.697 29.8137 129.588C30.5455 129.073 30.6169 127.628 31.0277 119.324L31.038 119.116C31.5595 108.576 31.5568 108.532 30.3233 107.339C29.252 106.303 28.5727 106.178 25.0904 106.381ZM101.432 106.629C102.035 106.676 102.387 106.703 102.588 106.891C102.872 107.156 102.853 107.743 102.806 109.158L102.806 109.16C102.803 109.267 102.799 109.378 102.795 109.494C102.755 110.756 102.667 112.051 102.599 112.372C102.53 112.694 102.41 114.385 102.332 116.132C102.013 123.22 101.865 125.559 101.716 125.83C101.563 126.108 100.831 126.266 99.835 126.235C99.4321 126.222 90.0334 126.568 86.8443 126.713L86.734 126.718C85.4766 126.775 84.8808 126.802 84.6005 126.519C84.3482 126.265 84.3516 125.759 84.3582 124.797L84.3588 124.703C84.3877 120.283 84.3992 112.301 84.3781 111.406C84.3475 110.115 84.5427 107.164 84.6834 106.786L84.7901 106.499L92.3766 106.505C96.5491 106.509 100.533 106.557 101.23 106.613L101.285 106.618C101.335 106.622 101.385 106.625 101.432 106.629ZM54.9114 107.026C55.2182 107.321 55.2841 125.385 54.9818 126.298L54.9737 126.322C54.9375 126.432 54.9079 126.521 54.8556 126.595C54.6231 126.92 53.9413 126.928 50.2335 126.971H50.2333L50.0479 126.973C47.6546 127 44.7748 127.078 43.6486 127.146C39.0056 127.426 34.8312 127.459 34.5902 127.219C34.3213 126.952 34.28 121.728 34.5119 117.332C34.5877 115.895 34.6592 113.085 34.6709 111.087C34.6825 109.089 34.736 107.387 34.7898 107.303C34.961 107.036 35.8024 106.994 44.3525 106.824C53.6422 106.638 54.5251 106.655 54.9114 107.026ZM28.61 108.028C28.7987 108.216 28.8725 108.476 28.8906 109.016C28.9227 109.973 28.9194 110.036 28.7575 111.548C28.6816 112.256 28.6067 114.751 28.5911 117.091C28.5286 126.483 28.4321 127.447 27.5412 127.582C26.6264 127.72 25.658 127.798 22.6367 127.979C20.8889 128.084 18.0479 128.262 16.3232 128.374C12.3695 128.631 9.3039 128.622 9.0318 128.351C8.81537 128.135 8.81614 125.94 9.03372 122.812C9.09964 121.866 9.18398 119.859 9.22122 118.352C9.2586 116.845 9.34844 114.866 9.42114 113.955C9.49934 112.972 9.50996 111.853 9.44725 111.204C9.27728 109.451 9.41525 109.2 10.6383 109.04C13.6063 108.651 22.7927 107.964 26.3703 107.863C27.0742 107.843 27.8086 107.815 28.0021 107.8C28.2121 107.784 28.4573 107.876 28.61 108.028ZM43.8723 111.582C42.5061 112.052 41.7569 113.11 42.4007 113.661C42.827 114.025 42.9119 114.009 43.4739 113.458C45.0089 111.95 46.6586 112.751 46.6543 115.001C46.651 116.816 46.4464 117.161 43.6806 120.008C40.9677 122.802 40.9363 123.307 43.4858 123.146C44.2088 123.1 45.7316 123.016 46.8696 122.959C49.4542 122.829 50.0241 122.552 49.398 121.729C49.2204 121.495 49.0418 121.472 47.2583 121.455C46.1881 121.444 45.2405 121.43 45.1524 121.423C44.8138 121.396 44.9931 120.779 45.4607 120.362C46.2979 119.616 46.4677 119.442 46.8665 118.925C48.3485 117.003 48.5338 113.372 47.2171 112.057C46.4707 111.312 45.1871 111.129 43.8723 111.582ZM110.714 113.239C111.347 113.771 111.885 114.25 111.908 114.304C111.932 114.357 112.011 114.401 112.083 114.401C112.223 114.401 113.416 115.376 114.335 116.241C115.753 117.577 115.399 118.602 113.948 117.364C109.479 113.552 108.858 112.975 108.858 112.627C108.858 111.859 109.209 111.975 110.714 113.239ZM17.6722 113.668C16.5003 114.946 16.4228 115.548 17.4308 115.548C18.0696 115.548 18.0908 116.176 17.5962 120.454C17.2422 123.517 17.2823 123.959 17.9143 123.959H17.932C18.0488 123.959 18.1475 123.959 18.2335 123.926C18.699 123.749 18.7926 122.605 19.393 115.272L19.4097 115.068C19.6298 112.379 19.184 112.02 17.6722 113.668ZM94.4955 115.805C93.9521 115.857 92.5533 115.941 91.3871 115.992C88.8481 116.103 88.4669 116.283 89.2063 117.019C90.0117 117.821 97.3393 117.297 97.3393 116.437C97.3393 115.715 96.7695 115.589 94.4955 115.805ZM110.093 116.453C114.033 119.948 115.002 120.891 115.002 121.232C115.002 121.784 114.723 121.695 113.771 120.838C113.74 120.809 113.671 120.747 113.579 120.664L113.472 120.568C113.351 120.458 113.207 120.328 113.066 120.2C112.185 119.402 110.624 118.036 110.211 117.7C109.013 116.727 108.525 116.049 108.816 115.76C109.004 115.573 109.254 115.709 110.093 116.453ZM109.877 120.199L109.877 120.199C114.086 124.058 114.992 124.889 115.107 125.816C115.138 126.07 115.11 126.332 115.074 126.665L115.071 126.692C114.94 127.914 114.72 127.913 113.309 126.682C112.938 126.358 112.461 125.942 112.25 125.758C111.868 125.426 111.523 125.127 111.211 124.858L111.211 124.858L111.211 124.858C109.361 123.259 108.686 122.676 108.537 121.981C108.452 121.582 108.54 121.146 108.678 120.459L108.678 120.458C108.719 120.257 108.764 120.035 108.81 119.785C108.886 119.374 109.03 119.422 109.785 120.115L109.877 120.199ZM109.358 126.344C110.937 127.53 114.874 131.157 114.874 131.425C114.874 132.002 114.521 131.936 113.705 131.206C110.311 128.17 108.474 126.423 108.474 126.231C108.474 125.898 108.824 125.943 109.358 126.344ZM109.946 130.242C110.23 130.647 110.069 130.658 109.599 130.266C108.901 129.681 108.739 129.378 109.302 129.708C109.553 129.856 109.843 130.097 109.946 130.242ZM44.6661 130.834C44.5993 130.9 43.2774 130.987 41.7287 131.027C40.9461 131.047 40.2396 131.064 39.6016 131.079L39.578 131.079C34.8914 131.192 33.9089 131.215 33.52 131.706C33.4168 131.836 33.3554 131.999 33.2777 132.205L33.2776 132.205C33.2374 132.312 33.1927 132.43 33.1357 132.562C32.9296 133.036 32.6447 142.337 32.5309 152.298L32.5136 153.81L33.1169 154.354C34.3212 155.439 34.9096 155.472 44.5445 154.991C46.6563 154.886 49.9679 154.762 51.9037 154.717L55.4234 154.634L55.8193 154.239C56.3829 153.678 56.4852 152.877 56.5694 148.365C56.6087 146.262 56.6965 143.997 56.7646 143.331C56.9517 141.5 56.9316 133.222 56.7383 132.58C56.5179 131.847 55.779 131.154 54.9593 130.912C54.1801 130.682 44.8911 130.611 44.6661 130.834ZM62.8467 130.911C61.5092 131 60.2961 131.078 60.1511 131.085C60.006 131.091 59.7599 131.214 59.6042 131.359L59.3214 131.621L59.3562 142.223L59.391 152.826L59.6778 153.36C60.0391 154.033 60.6405 154.494 61.3774 154.663C62.7051 154.968 70.3099 154.799 77.3365 154.308L77.3909 154.304C77.4472 154.301 77.5024 154.297 77.5565 154.293C78.4849 154.23 79.099 154.188 79.5107 153.879C80.3154 153.275 80.3466 151.649 80.4389 146.846L80.4404 146.771L80.4467 146.444L80.4502 146.263C80.5164 142.863 80.6319 139.135 80.7069 137.978C81.0475 132.729 80.6976 131.492 78.7025 130.894C77.9155 130.658 66.4455 130.67 62.8467 130.911ZM82.9271 130.886L82.9268 130.886C82.8381 130.927 82.7625 130.962 82.6976 131.01C82.3201 131.295 82.3077 132.06 82.2235 137.266V137.267L82.2233 137.277C82.1724 140.431 82.0896 145.048 82.0393 147.537L82.0356 147.717L82.0315 147.915L82.0305 147.967C81.959 151.438 81.9253 153.078 82.7318 153.872C83.4546 154.584 84.852 154.617 87.5015 154.679H87.5018L87.6745 154.683L87.8682 154.687C92.101 154.788 99.5041 154.535 101.519 154.22C102.899 154.004 102.998 153.394 103.364 142.885C103.427 141.062 103.534 139.284 103.601 138.934C103.898 137.388 103.768 133.117 103.403 132.387C103.005 131.592 102.355 131.131 101.39 130.96C100.165 130.742 83.3865 130.675 82.9279 130.886L82.9271 130.886ZM24.0025 132.059C22.2779 132.148 20.5212 132.257 20.0989 132.301C19.6765 132.346 18.3806 132.464 17.2192 132.564C14.9647 132.758 11.8395 133.045 9.70361 133.255C7.57415 133.464 7.36732 133.816 7.36515 137.235C7.36451 138.053 7.30717 140.003 7.23755 141.568C7.16792 143.133 7.05299 146.192 6.98234 148.365C6.91156 150.538 6.81634 153.013 6.77078 153.866C6.66928 155.767 6.70537 155.817 8.61495 156.436C10.7558 157.13 12.9569 157.191 18.627 156.714C20.8006 156.531 21.9343 156.442 22.7226 156.391C23.8187 156.321 25.7223 156.1 27.2662 155.864C29.9036 155.461 30.0786 155.174 30.2063 151.046C30.2539 149.506 30.316 148.209 30.3441 148.164C30.3723 148.118 30.4836 146.052 30.5917 143.571C30.6997 141.091 30.8446 138.249 30.9138 137.257C31.0999 134.589 30.8517 133.726 29.6099 132.717C29.0682 132.277 27.9253 131.843 27.4029 131.879C27.2573 131.889 25.7271 131.97 24.0025 132.059ZM100.535 132.244C102.129 132.419 102.24 133.106 101.594 138.807C101.444 140.138 101.255 143.006 101.175 145.179C100.993 150.135 100.897 151.315 100.659 151.544C100.408 151.785 97.2432 151.954 85.9484 152.327C85.6359 152.338 85.3619 152.364 85.1217 152.386C84.6281 152.433 84.2775 152.466 84.0294 152.323C83.4211 151.972 83.4293 150.561 83.4579 145.692L83.4579 145.688V145.687V145.687V145.687V145.686V145.686C83.4635 144.721 83.47 143.62 83.4726 142.365C83.4748 141.307 83.4751 140.357 83.4754 139.505C83.4772 133.795 83.4776 132.454 84.0392 132.154C84.2117 132.062 84.4371 132.068 84.7317 132.076H84.7319H84.7321H84.7323H84.7326H84.7328H84.733H84.7333H84.7336H84.7339H84.7342H84.7344H84.7347H84.735H84.7353H84.7356H84.7358C84.878 132.079 85.0363 132.083 85.2125 132.077C87.3761 131.999 99.5055 132.131 100.535 132.244ZM78.6035 132.438C78.8752 132.851 78.9168 135.372 78.6854 137.408C78.5976 138.181 78.4714 141.509 78.4049 144.804C78.3339 148.335 78.2296 150.937 78.151 151.143C78.1386 151.175 78.1282 151.206 78.1186 151.235L78.1185 151.235L78.1184 151.235C78.0992 151.292 78.0824 151.342 78.0561 151.386C77.8727 151.694 77.2274 151.728 72.1006 152C71.7279 152.02 71.3315 152.041 70.9099 152.064C69.0093 152.165 66.7055 152.307 65.7904 152.378C62.9049 152.604 61.1034 152.578 60.9041 152.306C60.771 152.125 60.7322 150.987 60.7226 146.971C60.7158 144.163 60.6725 140.919 60.6266 139.762C60.5289 137.309 60.6239 132.692 60.7751 132.543C61.0438 132.276 64.1926 132.151 71.0669 132.134L78.3912 132.116L78.6035 132.438ZM54.4462 132.608C54.8568 133.017 54.9315 150.833 54.528 152.084C54.3845 152.529 54.2835 152.538 48.5121 152.648C45.4852 152.706 42.0583 152.81 40.8968 152.879C38.0614 153.047 34.543 153.05 34.233 152.885C33.9181 152.717 33.8835 145.146 34.1722 139.571C34.3068 136.976 34.3169 135.795 34.2136 134.766C34.2009 134.64 34.1877 134.521 34.1753 134.41L34.1752 134.409C34.1117 133.839 34.0687 133.454 34.2279 133.19C34.5602 132.638 35.773 132.612 39.5172 132.532C39.8689 132.525 40.243 132.517 40.6409 132.508C49.5818 132.307 54.1772 132.34 54.4462 132.608ZM109.421 133.231C114.045 137.393 114.618 138.035 114.618 139.063C114.618 140.534 114.285 140.427 111.853 138.172C111.142 137.513 110.163 136.641 109.678 136.233C108.253 135.038 108.09 134.799 107.996 133.768C107.847 132.136 108.099 132.041 109.421 133.231ZM28.3831 134.027C28.4399 134.273 28.427 135.592 28.3546 136.959C28.282 138.325 28.2 141.824 28.1722 144.733C28.1054 151.755 28.015 152.851 27.4799 153.13C27.2379 153.256 24.824 153.475 21.6987 153.654C18.1039 153.86 15.5246 154.045 14.7234 154.154C13.6121 154.306 8.95283 154.167 8.68854 153.974C8.51064 153.845 8.47954 153.586 8.49515 152.367C8.53112 149.564 8.77659 142.866 8.91252 140.973C8.98816 139.922 9.03065 138.189 9.00697 137.124L9.00496 137.033C8.97627 135.745 8.96425 135.206 9.22905 134.948C9.42015 134.763 9.75543 134.724 10.3327 134.657L10.3889 134.651C15.4947 134.061 22.9367 133.549 26.1092 133.568L28.2798 133.581L28.3831 134.027ZM114.276 134.495C114.229 134.448 114.268 134.41 114.362 134.41C114.455 134.41 114.494 134.448 114.447 134.495C114.4 134.541 114.323 134.541 114.276 134.495ZM17.8189 136.698C16.8669 137.004 16.3401 138.321 15.9306 141.419C15.3435 145.861 15.4063 148.516 16.1154 149.222C17.4398 150.54 19.6367 150.394 20.5938 148.922C21.4676 147.579 22.2931 138.904 21.6576 137.744C21.2112 136.929 18.9851 136.322 17.8189 136.698ZM19.6027 138.123C20.5321 138.356 20.5896 138.531 20.5057 140.878C20.2882 146.973 19.7446 148.786 18.1733 148.657C16.9783 148.558 16.5546 147.551 16.7638 145.306C16.8095 144.816 16.9014 143.783 16.9679 143.012C17.3308 138.811 17.9278 137.703 19.6027 138.123ZM91.7359 138.137C91.6635 138.225 91.5366 138.87 91.4535 139.571C91.2437 141.344 91.2306 141.39 90.9077 141.498C90.7493 141.55 90.1592 141.604 89.596 141.617C89.5242 141.618 89.4568 141.62 89.3934 141.621L89.3813 141.621C88.6614 141.637 88.4705 141.641 88.3698 141.738C88.3335 141.773 88.3089 141.82 88.2755 141.885L88.2675 141.9L88.2586 141.917L88.2517 141.93L88.2476 141.937C88.0165 142.367 88.3953 142.82 88.991 142.826C90.5124 142.84 91.3734 143.248 91.2677 143.904C90.9675 145.769 91.1081 146.621 91.7646 146.919C92.411 147.212 92.6017 146.825 92.6165 145.191C92.6174 145.092 92.6181 144.999 92.6187 144.91C92.6258 143.937 92.629 143.503 92.8486 143.288C93.0259 143.115 93.3443 143.084 93.9196 143.029L93.9262 143.028L93.9825 143.023L94.0201 143.019C94.0545 143.016 94.0898 143.013 94.126 143.009C96.287 142.795 96.5607 141.816 94.5127 141.627C92.8133 141.47 92.7338 141.373 92.7325 139.467C92.7315 138.137 92.2575 137.505 91.7359 138.137ZM66.3931 139.259C65.4646 139.46 65.2125 140.141 65.9184 140.54C66.2445 140.725 66.8657 140.771 70.0407 140.849L73.7791 140.939L74.1816 140.539C74.6955 140.027 74.5213 139.68 73.5855 139.35C72.9247 139.117 67.371 139.047 66.3931 139.259ZM108.941 139.794C110.387 141.363 110.533 141.914 109.124 140.482C108.213 139.557 108.018 139.253 108.337 139.253C108.395 139.253 108.666 139.496 108.941 139.794ZM43.5206 140.765C42.341 141.495 42.1076 142.613 42.9704 143.4C43.8261 144.181 44.7382 144.139 45.428 143.287C46.6501 141.777 45.1314 139.769 43.5206 140.765ZM111.238 145.859C114.557 149.078 114.904 149.645 114.138 150.588L113.914 150.863L113.21 150.266C112.823 149.937 111.924 149.132 111.213 148.476C110.502 147.82 109.595 147.039 109.199 146.741C108.118 145.928 107.703 144.755 108.045 143.484C108.184 142.967 108.501 143.203 111.238 145.859ZM66.3663 143.802C65.1608 143.931 64.5428 144.942 65.5202 145.187C66.3258 145.388 74.1186 145.181 74.4743 144.948C74.9965 144.607 75.0396 144.358 74.6358 144.012L74.2872 143.713L70.5507 143.734C68.4956 143.745 66.6127 143.776 66.3663 143.802ZM114.464 144.376C114.675 144.586 114.657 145.179 114.434 145.363C114.137 145.608 113.338 144.976 113.338 144.495C113.338 144.384 113.483 144.341 114.176 144.242C114.25 144.232 114.38 144.292 114.464 144.376ZM109.118 149.681C109.277 149.809 109.381 149.99 109.349 150.084C109.309 150.203 109.161 150.135 108.851 149.855C108.364 149.414 108.598 149.262 109.118 149.681ZM108.572 152.093C109.376 152.635 110.048 153.206 111.638 154.7C112.581 155.586 112.747 155.691 113.328 155.768C114.138 155.875 114.31 156.057 114.118 156.604C114.04 156.827 113.943 157.588 113.903 158.295C113.748 161.049 113.452 161.759 111.947 162.994L111.517 163.347L110.924 163.004C110.105 162.531 107.193 160.618 106.85 160.327C106.695 160.197 106.248 159.871 105.856 159.603L105.144 159.117L105.577 158.584C106.655 157.258 107.242 155.635 107.442 153.424C107.614 151.513 107.65 151.471 108.572 152.093ZM60.3509 159.644C60.3509 159.737 60.3893 159.775 60.4363 159.729C60.4831 159.682 60.4831 159.606 60.4363 159.559C60.3893 159.512 60.3509 159.55 60.3509 159.644ZM104.292 162.469C105.29 163.181 106.337 163.925 106.618 164.123C107.676 164.863 107.788 164.973 107.562 165.06C107.353 165.14 107.257 165.085 105.019 163.598L104.725 163.402L104.724 163.402L104.724 163.402C102.535 161.948 102.19 161.719 102.203 161.512C102.203 161.505 102.204 161.498 102.206 161.491C102.208 161.477 102.212 161.463 102.217 161.449C102.223 161.431 102.23 161.412 102.239 161.391L102.239 161.391L102.243 161.38C102.246 161.373 102.249 161.366 102.251 161.358L102.255 161.35C102.277 161.293 102.294 161.248 102.327 161.226C102.444 161.149 102.763 161.377 104.232 162.425L104.292 162.469ZM65.4704 163.441C67.0252 164.587 67.1867 164.74 67.0186 164.908C66.8936 165.032 65.315 164.102 63.8318 163.031C62.8968 162.355 62.795 162.244 62.9848 162.106C63.2758 161.894 63.6264 162.082 65.4704 163.441ZM60.6928 162.671C61.0515 163.004 61.5677 163.389 61.8398 163.527C63.1058 164.17 64.1104 165.125 63.5186 165.123C63.1075 165.122 59.583 162.505 59.583 162.201C59.583 161.892 60.0815 162.103 60.6928 162.671ZM57.0081 162.474C58.0822 163.126 60.3642 164.893 60.3147 165.034C60.113 165.611 58.5162 164.823 55.9034 162.858C55.041 162.209 56.0143 161.871 57.0081 162.474ZM107.322 162.607C107.322 162.661 107.207 162.633 107.066 162.546C106.926 162.458 106.81 162.342 106.81 162.288C106.81 162.235 106.926 162.262 107.066 162.35C107.207 162.437 107.322 162.553 107.322 162.607ZM53.3089 162.862C55.9187 164.719 56.3833 165.075 56.3833 165.219C56.3833 165.433 56.1967 165.42 55.705 165.172C55.2927 164.964 53.5588 163.859 53.4396 163.728C53.388 163.672 52.2185 162.742 52.0509 162.624C51.9502 162.553 52.188 162.32 52.3613 162.32C52.4638 162.32 52.8903 162.564 53.3089 162.862ZM66.9636 162.405C66.9167 162.452 66.8399 162.452 66.7929 162.405C66.7461 162.358 66.7845 162.32 66.8783 162.32C66.9721 162.32 67.0105 162.358 66.9636 162.405ZM48.4239 163.96C49.1763 164.546 49.9037 165.104 50.0402 165.199C50.4915 165.515 50.1172 165.56 49.5041 165.263C48.1778 164.621 46.0199 162.879 46.1974 162.593C46.3229 162.391 46.7348 162.644 48.4239 163.96ZM49.828 162.683C49.8648 162.792 49.8032 162.838 49.6573 162.81C49.5319 162.786 49.4034 162.689 49.3719 162.595C49.3352 162.485 49.3967 162.439 49.5426 162.467C49.6681 162.492 49.7966 162.588 49.828 162.683ZM79.0028 162.798C81.3754 164.409 82.2188 165.124 81.7467 165.124C81.4672 165.124 78.1103 162.648 78.2294 162.53C78.3635 162.396 78.4602 162.43 79.0028 162.798ZM82.7556 162.817C84.362 163.858 85.759 164.965 85.7974 165.227C85.8583 165.644 85.1953 165.611 84.7868 165.176C84.6162 164.995 83.8928 164.423 83.1793 163.904C81.897 162.973 81.5945 162.65 81.892 162.53C82.1449 162.427 82.1659 162.434 82.7556 162.817ZM89.1468 162.892C89.2748 163.046 89.2657 163.097 89.0985 163.161C88.8143 163.269 88.5081 163.133 88.5081 162.898C88.5081 162.648 88.9401 162.644 89.1468 162.892ZM92.8949 163.071C93.1444 163.491 93.6514 163.935 94.7675 164.71C95.5403 165.246 95.7309 165.506 95.3504 165.506C94.6815 165.506 91.3013 163.176 91.5018 162.853C91.7051 162.525 92.6598 162.674 92.8949 163.071ZM108.422 163.225C108.597 163.418 108.605 163.467 108.458 163.467C108.235 163.467 107.706 163.112 107.706 162.962C107.706 162.787 108.183 162.962 108.422 163.225ZM38.7395 163.673C39.2573 164.015 39.7385 164.34 39.8089 164.393C39.8793 164.447 40.3257 164.779 40.8008 165.13C41.7531 165.835 41.8206 165.963 41.3365 166.147C40.6284 166.415 40.1528 166.303 39.5155 165.719C39.1841 165.415 38.5099 164.873 38.0171 164.515L38.0037 164.505C36.738 163.586 36.4657 163.388 36.4918 163.244C36.499 163.204 36.5286 163.169 36.5663 163.123L36.5678 163.122C36.8578 162.774 37.7041 162.988 38.7395 163.673ZM44.2245 163.276C44.4377 163.502 44.4711 163.595 44.3393 163.595C44.1055 163.595 43.5846 163.238 43.5846 163.078C43.5846 162.852 43.9235 162.957 44.2245 163.276ZM96.0909 163.233C97.267 163.638 99.643 165.155 99.643 165.5C99.643 165.953 98.4382 165.636 97.7232 164.996C97.4065 164.712 96.7615 164.219 96.2902 163.899C94.8918 162.952 94.8479 162.805 96.0909 163.233ZM35.4511 164.749C37.0767 165.846 37.5369 166.215 37.3863 166.299C37.1591 166.426 36.9604 166.336 35.7773 165.575C35.3198 165.28 34.5135 164.762 33.9855 164.423C32.6899 163.591 32.5296 163.45 32.7346 163.316C33.0099 163.136 33.2473 163.261 35.4511 164.749ZM41.3448 163.467C41.3883 163.537 41.3951 163.595 41.3599 163.595C41.3247 163.595 41.2603 163.537 41.2168 163.467C41.1733 163.397 41.1665 163.34 41.2017 163.34C41.2369 163.34 41.3013 163.397 41.3448 163.467ZM68.6879 163.59C68.9775 163.831 68.9792 163.841 68.7277 163.845C68.4646 163.85 68.1581 163.633 68.1581 163.442C68.1581 163.268 68.3721 163.328 68.6879 163.59ZM24.8348 164.105C24.878 164.175 24.8352 164.232 24.7396 164.232C24.5466 164.232 24.2585 163.985 24.2585 163.82C24.2585 163.693 24.7216 163.923 24.8348 164.105ZM109.507 163.854C109.794 164.007 109.835 164.232 109.576 164.232C109.281 164.232 108.737 163.732 109.027 163.726C109.154 163.724 109.37 163.781 109.507 163.854ZM69.6974 164.32C70.0326 164.548 70.2217 164.768 70.1469 164.843C70.0566 164.933 69.3391 164.491 69.2656 164.3C69.1676 164.046 69.3045 164.052 69.6974 164.32ZM78.2251 164.557C78.8574 165.037 78.6979 165.33 77.892 165.17C77.4589 165.084 77.364 164.92 77.5139 164.519C77.6489 164.157 77.702 164.16 78.2251 164.557ZM46.1443 164.884C46.1443 164.954 46.0867 164.976 46.0163 164.933C45.9459 164.889 45.8883 164.797 45.8883 164.727C45.8883 164.657 45.9459 164.635 46.0163 164.678C46.0867 164.721 46.1443 164.814 46.1443 164.884ZM73.1497 164.884C73.1497 164.954 73.0921 164.976 73.0217 164.933C72.9513 164.889 72.8937 164.797 72.8937 164.727C72.8937 164.657 72.9513 164.635 73.0217 164.678C73.0921 164.721 73.1497 164.814 73.1497 164.884ZM88.819 165.069C89.0851 165.334 89.0736 165.506 88.7897 165.506C88.5202 165.506 88.2522 165.271 88.2522 165.035C88.2522 164.807 88.5752 164.827 88.819 165.069ZM91.8358 165.379C91.8358 165.449 91.7817 165.506 91.7154 165.506C91.6491 165.506 91.5594 165.449 91.5158 165.379C91.4723 165.309 91.5266 165.251 91.6363 165.251C91.746 165.251 91.8358 165.309 91.8358 165.379ZM79.3037 108.127C79.2815 108.34 79.2573 108.572 79.2709 109.016C79.2941 109.77 79.2251 111.304 79.1177 112.425C79.0104 113.547 78.8914 115.611 78.8532 117.013C78.815 118.415 78.7472 120.91 78.7027 122.557C78.658 124.204 78.5712 125.648 78.5098 125.766C78.3776 126.019 78.0636 126.056 74.4295 126.25C72.9865 126.326 71.0859 126.445 70.2059 126.512C63.9814 126.991 61.5883 127.016 61.3263 126.604C61.0657 126.194 60.9637 107.057 61.2212 106.898C61.6661 106.623 64.8661 106.495 71.1278 106.501L77.7453 106.508C78.2691 106.508 79.3102 107.136 79.3336 107.646C79.3336 107.84 79.3192 107.979 79.3037 108.127ZM96.7482 85.4388C95.6923 86.7756 94.7891 87.7647 94.6244 87.7647C94.5584 87.7647 93.8607 87.2496 93.0741 86.62C91.571 85.4169 91.083 85.2213 90.8176 85.7152C90.6199 86.0828 92.0018 87.6514 93.4762 88.7333C93.8009 88.9715 93.5699 89.5576 92.5463 91.0938C91.5876 92.5322 91.4375 92.9247 91.7334 93.2193C92.1965 93.6804 92.6759 93.2915 93.9662 91.4077C94.7988 90.1919 95.0032 90.0969 95.6235 90.6379C97.7578 92.4993 98.2807 92.7232 98.5424 91.8878C98.6133 91.6615 98.4151 91.4076 97.3987 90.4222C97.2485 90.2766 97.111 90.1458 96.9862 90.027C96.3945 89.4641 96.0865 89.1712 96.0524 88.8495C96.0153 88.5004 96.3005 88.1174 96.8951 87.3188L96.8952 87.3186C97.0109 87.1632 97.1383 86.9921 97.2773 86.8025C98.365 85.3186 98.5619 84.8275 98.2096 84.4766C97.8945 84.1628 97.6064 84.3525 96.7482 85.4388ZM103.365 84.5254C103.371 84.6739 103.401 84.7041 103.442 84.6025C103.479 84.5105 103.474 84.4005 103.432 84.3582C103.389 84.3159 103.359 84.3911 103.365 84.5254Z" fill="#3E5BF1"/>
<path fill-rule="evenodd" clip-rule="evenodd" d="M22.6625 79.8334L21.7006 79.9212C21.1717 79.9696 19.7597 80.0899 18.563 80.1887C17.3663 80.2875 15.5809 80.4523 14.5954 80.5551C13.6099 80.6578 12.1413 80.8104 11.3317 80.8941L11.2667 80.9008L11.2138 80.9062L11.1354 80.9143C10.226 81.0071 9.66534 81.0644 9.31275 81.3642C8.74594 81.8462 8.71683 82.9552 8.64094 85.8468C8.63763 85.9729 8.63423 86.1024 8.63069 86.2353C8.57386 88.3732 8.46942 91.2121 8.39865 92.5439C8.32787 93.8757 8.26644 96.1697 8.26221 97.6417C8.25773 99.1867 8.18196 100.799 8.0829 101.455C7.83717 103.082 7.89642 103.24 8.93735 103.728C10.6992 104.553 12.6866 104.913 14.481 104.73C15.1775 104.66 16.496 104.568 17.4111 104.527C21.0871 104.363 24.637 104.038 29.0717 103.46C31.1525 103.189 31.3726 102.698 31.4818 98.0878C31.5208 96.4405 31.6382 94.3186 31.7427 93.3723C31.8472 92.426 31.9369 90.7915 31.9423 89.7401C31.9477 88.6887 32.0075 87.2262 32.0753 86.4902C32.4795 82.0975 32.4513 81.9082 31.2216 80.7628C30.0996 79.7177 29.4293 79.433 28.3541 79.5447C27.1168 79.6734 24.363 79.8082 24.0446 79.7556L23.7289 79.7734L23.2694 79.7993L23.0913 79.8093L22.6625 79.8334ZM26.489 81.2366L23.6156 81.2719L23.1199 81.3174L22.7719 81.3494L21.944 81.4254L21.5048 81.4658L21.0908 81.5038C20.2825 81.4662 16.338 81.8117 12.0997 82.291L11.9986 82.3025C11.2027 82.3921 10.7686 82.441 10.5294 82.6818C10.2423 82.9708 10.2358 83.536 10.2213 84.7795L10.2198 84.9109C10.1924 87.2242 10.0145 92.3349 9.78322 97.4519C9.62234 101.012 9.64819 101.573 9.97891 101.699C10.3808 101.852 15.9023 101.791 18.563 101.603C20.1117 101.494 22.1851 101.349 23.1706 101.281C27.4807 100.985 28.6497 100.852 28.8711 100.632C29.2818 100.223 29.3684 98.8946 29.4439 91.8429C29.487 87.8052 29.5753 84.5949 29.6545 84.1751C29.8259 83.268 29.75 81.5841 29.528 81.3646C29.4011 81.2392 28.6937 81.2095 26.489 81.2366Z" fill="#3E5BF1"/>
</svg>
