<svg width="117" height="112" viewBox="0 0 117 112" fill="none" xmlns="http://www.w3.org/2000/svg">
<path fill-rule="evenodd" clip-rule="evenodd" d="M31.5496 0.145228C31.1446 0.218848 30.4059 0.327425 29.9081 0.386825C28.9854 0.496589 28.1386 1.14273 27.3523 2.33695C27.2308 2.52152 27.0154 2.82534 26.8737 3.01198C26.732 3.19877 26.616 3.42437 26.616 3.5134C26.616 3.60228 26.5541 3.67516 26.4786 3.67516C26.403 3.67516 26.2948 3.82506 26.2379 4.00845C26.1809 4.19183 26.0937 4.37507 26.0438 4.41581C25.8574 4.56823 25.2905 5.4462 25.2905 5.58248C25.2905 5.66054 25.235 5.74645 25.1673 5.77371C24.8973 5.88184 22.5682 10.1059 22.0364 11.452C21.972 11.6149 21.7832 12.0612 21.6168 12.4437C21.4504 12.8262 21.3142 13.2104 21.3142 13.2975C21.3142 13.3845 21.248 13.5716 21.167 13.713C20.9314 14.1253 19.5469 18.4141 19.5469 18.7321C19.5469 18.8912 19.4875 19.0848 19.4151 19.1621C19.3426 19.2394 19.2136 19.6028 19.1283 19.9694C18.8797 21.0382 18.6332 21.9464 18.5049 22.2654C18.4394 22.4284 18.3113 22.895 18.22 23.3023C18.1287 23.7097 17.9617 24.4429 17.8487 24.9318C17.7357 25.4206 17.5718 26.1872 17.4843 26.6353C17.3969 27.0834 17.2528 27.7936 17.1642 28.2137L17.0029 28.9773L15.7344 29.0511C14.2169 29.1394 12.3431 29.3838 11.6951 29.5782C11.437 29.6555 10.8284 29.8377 10.3424 29.9833C9.85636 30.1288 9.2278 30.3681 8.94548 30.5154C8.66316 30.6625 8.34829 30.7829 8.24594 30.7829C8.14343 30.7829 8.05963 30.8496 8.05963 30.931C8.05963 31.0125 7.97687 31.0793 7.87554 31.0796C7.55788 31.0802 5.63789 32.4532 4.87251 33.227C3.3559 34.7605 1.43237 37.8517 1.43237 38.7555C1.43237 38.9004 1.36669 39.085 1.28642 39.1657C1.11411 39.339 0.890553 40.3493 0.682899 41.8926C0.600721 42.5037 0.468763 43.2947 0.389825 43.6505C0.0954269 44.9755 -0.0627389 51.3836 0.0234155 58.4832C0.196461 72.7257 0.28644 77.6685 0.375245 77.8141C0.425023 77.8956 0.510148 82.3617 0.564639 87.7388C0.626935 93.8962 0.721925 97.7347 0.821186 98.1079C0.90793 98.4337 1.04372 99.067 1.1228 99.5151C1.41116 101.147 1.60512 101.962 1.73825 102.1C1.81307 102.177 1.87419 102.364 1.87419 102.515C1.87419 102.771 2.28935 103.848 2.6157 104.438C2.6939 104.58 2.75782 104.792 2.75782 104.909C2.75782 105.027 2.84957 105.215 2.96164 105.328C3.07372 105.441 3.31466 105.829 3.49684 106.19C4.09314 107.373 6.04141 109.736 6.42034 109.736C6.47306 109.736 6.68131 109.886 6.88293 110.069C7.08469 110.253 7.581 110.557 7.986 110.745C8.391 110.934 8.84504 111.155 8.99511 111.237C9.58641 111.561 11.5064 111.791 12.6987 111.679C12.8607 111.664 13.6891 111.734 14.5396 111.835C16.4771 112.064 39.3998 112.051 47.3814 111.816C50.3379 111.729 56.1699 111.597 60.3414 111.522C64.5129 111.448 69.7484 111.332 71.9759 111.265C76.5707 111.127 90.7716 111.112 92.8886 111.243C98.8695 111.614 103.097 111.46 104.947 110.805C105.159 110.729 105.814 110.51 106.401 110.318C106.988 110.126 107.469 109.922 107.469 109.864C107.469 109.807 107.667 109.716 107.91 109.662C108.153 109.608 108.352 109.503 108.352 109.428C108.352 109.353 108.435 109.292 108.535 109.292C108.718 109.292 110.018 108.445 110.696 107.884C111.681 107.07 113.212 105.327 113.212 105.02C113.212 104.939 113.262 104.85 113.323 104.823C113.383 104.796 113.544 104.574 113.68 104.329C115.005 101.942 115.746 99.7166 116.171 96.8488C116.25 96.3192 116.382 95.5526 116.465 95.1453C116.553 94.7109 116.668 89.6248 116.741 82.8505C116.811 76.4957 116.915 69.13 116.973 66.4822C117.085 61.3858 116.832 47.1647 116.586 44.7071C116.3 41.8523 116.138 40.9056 115.62 39.0782C115.03 36.9981 114.134 35.1348 113.139 33.9224C112.554 33.2104 111.288 31.9679 111.147 31.9679C111.068 31.9679 111.003 31.9042 111.003 31.8265C111.003 31.6417 109.198 30.5654 108.186 30.1471C107.439 29.8383 107.187 29.8205 103.664 29.8292L99.9319 29.8383L100.004 29.3848C100.044 29.1354 100.181 28.4313 100.309 27.8203C100.437 27.2093 100.626 26.3094 100.729 25.8206C100.831 25.3317 100.956 24.8651 101.007 24.7836C101.057 24.7022 101.144 24.3185 101.2 23.9312C101.256 23.5436 101.396 23.0437 101.512 22.8202C101.628 22.5965 101.724 22.2136 101.725 21.9692C101.726 21.7248 101.826 21.3338 101.947 21.1005C102.068 20.8671 102.167 20.5544 102.167 20.4057C102.167 20.2568 102.229 20.0962 102.306 20.0488C102.382 20.0013 102.488 19.6474 102.542 19.2624C102.596 18.8773 102.733 18.4145 102.845 18.2341C102.958 18.0537 103.05 17.7758 103.05 17.6165C103.05 17.4573 103.146 17.1384 103.262 16.9077C103.599 16.2423 103.934 15.4198 103.934 15.2608C103.934 15.1807 104.033 14.9241 104.154 14.6907C104.275 14.4574 104.374 14.1497 104.375 14.0072C104.375 13.8647 104.442 13.748 104.523 13.748C104.604 13.748 104.67 13.6681 104.67 13.5707C104.67 13.3937 106.138 10.3333 106.29 10.1929C106.334 10.1521 106.451 9.95215 106.55 9.74848C106.778 9.27964 107.049 8.85496 107.285 8.59618C107.386 8.48508 107.469 8.32939 107.469 8.25029C107.469 8.17119 107.536 8.02602 107.619 7.92767C108.214 7.21709 108.352 7.01444 108.352 6.84958C108.352 6.74663 108.402 6.64027 108.463 6.61302C108.624 6.54102 109.236 5.63713 109.236 5.47108C109.236 5.39302 109.286 5.3071 109.346 5.27985C109.472 5.22371 110.12 4.32056 110.12 4.20161C110.12 4.08088 111.574 2.63884 111.701 2.63366C112.314 2.60818 112.503 0.867064 111.953 0.3138C111.63 -0.0117896 106.108 -0.0514905 95.245 0.194109C86.6108 0.389195 81.8276 0.378827 68.2205 0.134858C59.0227 -0.0301589 55.086 -0.0350488 47.3814 0.109081C40.593 0.236029 37.294 0.242105 35.8205 0.130563C33.4692 -0.0473407 32.5938 -0.0443782 31.5496 0.145228ZM35.1578 2.95036C37.6672 3.09641 40.7384 3.0979 49.9587 2.95777C56.3577 2.86045 62.3222 2.82815 63.2132 2.88592C65.6177 3.0419 102.568 3.0108 105.499 2.85037C108.153 2.70506 108.27 2.73217 107.661 3.35238C107.555 3.46007 107.469 3.63635 107.469 3.74389C107.469 3.85158 107.369 3.97808 107.248 4.02504C107.126 4.07185 107.027 4.2068 107.027 4.32471C107.027 4.44277 106.974 4.56142 106.91 4.58867C106.805 4.63296 104.705 7.73984 104.276 8.48478C103.807 9.30068 102.164 12.7263 101.93 13.3777C101.783 13.785 101.578 14.2849 101.474 14.4886C101.37 14.6923 101.285 15.0089 101.284 15.1922C101.284 15.3756 101.22 15.5255 101.143 15.5255C101.065 15.5255 100.956 15.7694 100.901 16.0672C100.845 16.3651 100.71 16.7818 100.601 16.9931C100.491 17.2043 100.401 17.5232 100.4 17.7017C100.4 17.8802 100.341 18.0627 100.269 18.1073C100.198 18.1517 100.093 18.4982 100.036 18.8771C99.9798 19.2559 99.8486 19.7733 99.7446 20.0269C99.3238 21.0539 98.6322 23.3357 98.6322 23.6973C98.6322 23.9095 98.5333 24.2741 98.4122 24.5075C98.2913 24.7408 98.1919 25.1762 98.1913 25.475C98.1909 25.7736 98.1253 26.0402 98.0458 26.0675C97.9063 26.115 97.7797 26.7327 97.4589 28.9313C97.3757 29.5016 97.2332 30.4681 97.1423 31.0792C96.8419 33.0967 96.5074 44.6352 96.7151 45.8181C96.7865 46.2254 96.9143 47.0253 96.999 47.5956C97.0835 48.1659 97.209 48.9009 97.2776 49.2289C97.4208 49.913 97.3658 50.1879 97.0859 50.1879C96.9779 50.1879 96.8675 50.2391 96.8404 50.3018C96.8134 50.3645 96.4268 50.7145 95.9813 51.0795C95.5358 51.4446 95.0254 51.8933 94.847 52.0765C94.6687 52.2598 94.4836 52.4098 94.4359 52.4098C94.3881 52.4098 94.2027 52.55 94.0238 52.7212C93.845 52.8924 93.4667 53.2059 93.1832 53.4176C92.8997 53.6294 92.4892 53.9892 92.271 54.2172C92.0528 54.4453 91.8374 54.6318 91.7923 54.6318C91.7473 54.6318 91.5872 54.7485 91.4365 54.891C91.286 55.0335 90.9107 55.3502 90.6026 55.5946C90.2947 55.839 89.8523 56.2223 89.6198 56.4464C89.3871 56.6705 89.1327 56.8537 89.0545 56.8537C88.9762 56.8537 88.9123 56.9068 88.9123 56.9715C88.9123 57.0361 88.5672 57.3528 88.1456 57.6751C87.7238 57.9973 87.1912 58.4442 86.9622 58.6683C86.7332 58.8924 86.515 59.0757 86.4773 59.0757C86.4394 59.0757 86.2904 59.1924 86.1459 59.3349C86.0014 59.4775 85.5583 59.8608 85.1611 60.1866C84.7639 60.5125 84.3347 60.8792 84.2072 61.0014C84.0798 61.1236 83.7832 61.3749 83.5482 61.5601C82.9477 62.0328 81.7296 63.0793 81.2641 63.5221C81.0486 63.7272 80.6765 64.0496 80.4373 64.2384C79.8631 64.6917 78.402 65.9702 77.6542 66.6738C76.3343 67.9158 76.0995 68.1584 76.0995 68.2805C76.0995 68.5348 75.709 68.3982 75.2103 67.9695C74.9299 67.7284 74.6231 67.5284 74.5286 67.5251C74.4342 67.5217 74.3348 67.46 74.3077 67.3878C74.2413 67.2102 72.8909 66.1859 72.7233 66.1859C72.6497 66.1859 72.5675 66.1358 72.5404 66.0748C72.4659 65.9061 71.5671 65.2971 71.3927 65.2971C71.3085 65.2971 71.2395 65.2451 71.2395 65.1814C71.2395 65.1179 71.0574 64.9869 70.8346 64.8906C70.4116 64.7076 69.893 64.3956 69.7668 64.2482C69.7263 64.201 69.3618 64.0011 68.9568 63.804C68.5518 63.607 68.1866 63.4011 68.1454 63.3463C68.104 63.2916 67.8887 63.2009 67.6667 63.1449C67.4448 63.089 67.2632 62.9836 67.2632 62.9111C67.2632 62.8383 67.1804 62.7785 67.0791 62.778C66.9779 62.7774 66.6962 62.6723 66.4532 62.544C66.2102 62.4159 65.6137 62.1793 65.1277 62.0186C64.6417 61.8577 64.1363 61.6676 64.0045 61.5961C63.8727 61.5246 63.5082 61.4194 63.1945 61.3625C62.8808 61.3056 62.5387 61.1908 62.4344 61.1074C62.3302 61.024 61.5829 60.9237 60.7741 60.8845C59.9651 60.8454 59.2679 60.7556 59.2246 60.6851C59.1226 60.5192 56.5541 60.5173 56.4522 60.6829C56.4096 60.7522 55.8659 60.8522 55.2437 60.9051C54.6216 60.958 54.0394 61.0596 53.9502 61.1308C53.8608 61.2019 53.4745 61.3058 53.0916 61.3616C52.7088 61.4173 52.357 61.5257 52.3097 61.6025C52.2626 61.6792 52.1119 61.7425 51.975 61.7429C51.838 61.7435 51.5482 61.8371 51.3308 61.9512C51.1136 62.0652 50.7324 62.2034 50.484 62.2582C50.2355 62.3132 50.0323 62.4141 50.0323 62.4827C50.0323 62.5512 49.8335 62.6512 49.5905 62.7048C49.3475 62.7585 49.1487 62.8585 49.1487 62.927C49.1487 62.9956 48.9498 63.0956 48.7068 63.1492C48.4638 63.2029 48.265 63.3082 48.265 63.3831C48.265 63.4582 48.1908 63.5196 48.1002 63.5196C47.896 63.5196 46.1478 64.5705 46.0805 64.7338C46.0534 64.7993 45.968 64.8527 45.8904 64.8527C45.7253 64.8527 44.8267 65.4682 44.7551 65.6304C44.728 65.6914 44.6486 65.7415 44.5787 65.7415C44.5087 65.7415 43.8726 66.1755 43.1654 66.7058C41.7681 67.7537 41.6334 67.7771 40.902 67.0993C40.6675 66.8821 40.3893 66.6367 40.2836 66.554C39.6986 66.0964 38.5985 65.193 38.3922 65.0009C38.2611 64.8787 37.9923 64.6453 37.7951 64.4824C36.7847 63.6477 36.3592 63.2984 35.836 62.8739C35.5204 62.6179 34.9828 62.1587 34.6413 61.8531C34.2998 61.5477 33.9802 61.2976 33.9313 61.2976C33.8822 61.2976 33.6167 61.0811 33.3412 60.8162C32.6602 60.1619 31.4732 59.1617 31.3004 59.0967C31.2228 59.0675 30.9449 58.8342 30.6828 58.5783C30.191 58.0979 29.9987 57.9333 28.7557 56.9275C27.5858 55.9811 27.3164 55.7565 27.0677 55.5206C26.9388 55.3984 26.5055 55.0317 26.1048 54.7058C25.7041 54.38 25.2689 54.0133 25.1376 53.8911C24.8614 53.6337 24.473 53.3088 23.4557 52.4836C23.0539 52.1579 22.618 51.7914 22.4867 51.6692C22.3555 51.547 21.7994 51.0804 21.251 50.6323C20.7024 50.1842 20.1056 49.6842 19.9249 49.5213C19.7442 49.3584 19.287 48.9682 18.9089 48.6543L18.2214 48.0834V46.2002C18.2214 45.1645 18.2854 43.9549 18.3636 43.5123C18.4416 43.0695 18.5765 41.5075 18.663 40.041C19.2169 30.6605 19.6494 27.5775 21.2296 21.747C22.1041 18.52 22.2561 17.9966 22.3695 17.8204C22.4224 17.7383 22.5141 17.4112 22.5733 17.0935C22.6325 16.7759 22.7707 16.3431 22.8804 16.1318C22.99 15.9206 23.08 15.6634 23.0805 15.5605C23.081 15.4575 23.1473 15.2576 23.2277 15.1161C23.395 14.8216 23.8039 13.6867 23.9207 13.1925C23.964 13.0091 24.058 12.8592 24.1296 12.8592C24.201 12.8592 24.2596 12.7816 24.2596 12.6868C24.2596 12.5176 25.7315 9.44925 25.8823 9.30409C25.9247 9.26335 26.0403 9.06338 26.1393 8.8597C26.3672 8.39087 26.6379 7.96618 26.8737 7.7074C26.975 7.5963 27.0578 7.41573 27.0578 7.30611C27.0578 7.1965 27.1074 7.08466 27.1682 7.0574C27.2977 6.99949 27.9414 6.09649 27.9414 5.97265C27.9414 5.80349 29.4773 3.52703 29.5915 3.52703C29.656 3.52703 29.7087 3.46037 29.7087 3.3789C29.7087 2.89851 30.2296 2.64832 31.1078 2.70698C31.5938 2.73957 33.4163 2.84904 35.1578 2.95036ZM57.3959 9.17477C55.6511 9.37578 54.4474 9.56954 53.4932 9.80299C53.0072 9.92194 52.3113 10.0929 51.9468 10.1828C51.5824 10.2727 51.1516 10.4038 50.9896 10.474C50.8276 10.5442 50.3968 10.7171 50.0323 10.8578C49.6678 10.9987 49.0973 11.24 48.7643 11.394C48.4315 11.5481 48.0836 11.6742 47.9911 11.6742C47.8988 11.6742 47.8232 11.7355 47.8232 11.8106C47.8232 11.8855 47.6244 11.9909 47.3814 12.0445C47.1384 12.0981 46.9396 12.2034 46.9396 12.2784C46.9396 12.3535 46.8654 12.4148 46.7748 12.4148C46.5705 12.4148 44.8224 13.4658 44.7551 13.629C44.728 13.6945 44.6458 13.748 44.5722 13.748C44.4046 13.748 43.0542 14.7723 42.9878 14.9499C42.9607 15.022 42.8843 15.0811 42.8179 15.0811C42.598 15.0811 41.0173 16.5546 39.9441 17.7598C38.7097 19.1461 37.2206 21.2176 37.2199 21.5495C37.2197 21.6445 37.17 21.7445 37.1091 21.7717C36.939 21.8477 36.336 23.0357 36.336 23.2946C36.336 23.4211 36.2697 23.5245 36.1887 23.5245C36.1077 23.5245 36.0392 23.6079 36.0364 23.7097C36.0336 23.8116 35.9034 24.1615 35.7469 24.4874C35.5903 24.8133 35.4601 25.2166 35.4573 25.3836C35.4545 25.5507 35.3866 25.7533 35.3064 25.834C35.2261 25.9148 35.0967 26.2781 35.0189 26.6413C34.9411 27.0047 34.8037 27.6351 34.7138 28.0425C34.6236 28.4499 34.4725 29.1498 34.3777 29.5979C34.1995 30.441 34.1573 35.0455 34.3195 35.9674C34.3697 36.2526 34.479 36.906 34.5623 37.4195C34.6457 37.9331 34.7808 38.4787 34.8622 38.632C34.9438 38.7852 35.0109 39.0983 35.0114 39.3276C35.012 39.5571 35.1114 39.9357 35.2323 40.169C35.3534 40.4024 35.4523 40.6923 35.4523 40.8132C35.4523 40.9342 35.5433 41.2432 35.6547 41.4999C35.766 41.7566 36.076 42.5 36.3436 43.1517C36.6114 43.8035 36.8848 44.4104 36.9516 44.5004C37.0183 44.5905 37.2452 44.9905 37.4558 45.3892C37.6666 45.788 37.8817 46.1476 37.9342 46.1884C37.9867 46.2291 38.1601 46.5202 38.3197 46.8351C38.4792 47.15 38.6947 47.4405 38.7983 47.4805C38.902 47.5205 38.9869 47.6122 38.9869 47.6842C38.9869 47.9661 40.4913 49.7648 41.6834 50.9087C42.9199 52.0949 43.3084 52.4304 43.9684 52.8821C44.347 53.1411 44.69 53.3915 44.7305 53.4383C45.1143 53.8824 49.266 55.965 49.7674 55.965C49.8808 55.965 50.0363 56.0224 50.1133 56.0926C50.2441 56.212 51.7398 56.5955 53.7878 57.0346C54.9001 57.2731 60.6026 57.2916 60.7545 57.0573C60.8107 56.9705 61.1847 56.8552 61.5852 56.8013C61.9858 56.7474 62.3503 56.6453 62.3952 56.5745C62.4402 56.5035 62.7586 56.3982 63.1027 56.3405C63.4469 56.2825 63.7287 56.1744 63.7287 56.1C63.7287 56.0257 63.8394 55.965 63.9747 55.965C65.006 55.965 68.7091 53.4247 70.3948 51.5609C70.7379 51.1815 71.118 50.7662 71.2395 50.6381C73.2897 48.4762 69.9266 45.8872 66.895 47.2934C65.9464 47.7334 62.497 49.4404 62.2559 49.5891C61.0801 50.3144 59.0529 51.0293 57.5593 51.2451C56.1749 51.4451 53.5822 51.2217 52.854 50.8397C52.6386 50.7266 52.3502 50.6338 52.2133 50.6332C52.0763 50.6327 51.9264 50.5708 51.8803 50.4956C51.834 50.4203 51.5981 50.315 51.3561 50.2615C51.114 50.208 50.9159 50.1103 50.9159 50.0441C50.9159 49.9778 50.7344 49.8779 50.5124 49.8219C50.2905 49.7659 50.0752 49.6754 50.0338 49.6207C49.9369 49.4926 49.0335 48.8547 48.9488 48.8547C48.6378 48.8547 44.2887 44.4828 44.2887 44.1701C44.2887 44.094 43.6718 43.1919 43.5416 43.0777C43.4952 43.0369 43.4115 42.9036 43.3559 42.7814C43.3002 42.6592 43.127 42.3592 42.9713 42.1148C42.8155 41.8704 42.5479 41.3705 42.3766 41.0038C42.2054 40.6372 41.969 40.1485 41.8515 39.9179C41.7339 39.6873 41.6378 39.4307 41.6378 39.3478C41.6378 39.2648 41.5487 38.9869 41.4397 38.7302C40.0771 35.5192 39.9709 30.6657 41.1895 27.3018C41.3666 26.813 41.5476 26.263 41.5918 26.0798C41.636 25.8965 41.7235 25.7465 41.7862 25.7465C41.849 25.7465 41.946 25.5638 42.0017 25.3406C42.0574 25.1174 42.1509 24.9008 42.2095 24.8592C42.2681 24.8177 42.4762 24.517 42.6718 24.1911C43.0863 23.5005 43.069 23.5244 43.8583 22.5617C45.0239 21.1401 45.3243 20.8495 46.7187 19.7957C48.6749 18.317 51.2869 16.9978 53.273 16.4851C53.7991 16.3493 54.344 16.1782 54.4838 16.105C54.6235 16.0318 55.4045 15.928 56.2194 15.8742C57.0342 15.8205 57.7355 15.72 57.778 15.651C57.879 15.4866 60.4887 15.4873 60.4887 15.6517C60.4887 15.7212 61.0633 15.8225 61.7655 15.8767C62.4678 15.9311 63.1141 16.035 63.2014 16.1075C63.2889 16.1803 63.6194 16.2884 63.9359 16.3478C64.2523 16.4073 64.6831 16.5461 64.8931 16.6565C65.1031 16.7667 65.3744 16.8594 65.4959 16.8626C65.6174 16.8657 65.8455 16.9659 66.0027 17.0856C66.16 17.2052 66.4084 17.3031 66.555 17.3031C66.7015 17.3031 66.8214 17.3698 66.8214 17.4512C66.8214 17.5327 66.9058 17.5993 67.0089 17.5993C67.1119 17.5993 67.5485 17.8327 67.9789 18.1178C68.4094 18.403 68.8166 18.6363 68.8838 18.6363C68.9509 18.6363 69.028 18.6862 69.0551 18.7474C69.082 18.8085 69.4011 19.0584 69.7642 19.3028C70.424 19.7469 73.4486 22.6537 73.4486 22.8436C73.4486 22.9351 74.0098 23.7927 74.185 23.9689C74.4052 24.1904 75.6577 26.6353 75.6577 26.8434C75.6577 26.908 75.7535 27.1709 75.8705 27.4276C76.8044 29.4755 76.6523 33.0674 75.562 34.7083C74.3259 36.569 71.3021 36.6512 70.0935 34.8571C69.8737 34.5309 69.6606 34.2306 69.62 34.1899C69.3343 33.9041 69.1187 32.8016 69.0215 31.1298C68.959 30.0578 68.8449 29.0579 68.7677 28.9079C68.6906 28.7578 68.5826 28.3851 68.5277 28.0795C68.4729 27.7741 68.3701 27.524 68.2991 27.524C68.2283 27.524 68.1265 27.3241 68.0732 27.0797C68.0199 26.8352 67.9152 26.6353 67.8407 26.6353C67.766 26.6353 67.705 26.5489 67.705 26.4431C67.705 25.4385 63.1617 21.747 61.9253 21.747C61.8156 21.747 61.6601 21.6809 61.5798 21.6002C61.1985 21.2167 58.1442 20.8458 56.7332 21.0115C55.3692 21.1718 54.1159 21.4406 53.9424 21.6103C53.8655 21.6855 53.7126 21.747 53.6029 21.747C53.0959 21.747 50.7916 23.029 50.2235 23.6275C50.0451 23.8153 49.8601 23.9689 49.8127 23.9689C49.7242 23.9689 48.9522 24.7441 48.2282 25.5598C48.0054 25.8108 47.8232 26.0888 47.8232 26.1775C47.8232 26.2664 47.7583 26.339 47.6787 26.339C47.5994 26.339 47.4927 26.5056 47.4419 26.7093C47.3911 26.913 47.2957 27.0797 47.2299 27.0797C47.164 27.0797 47.0665 27.2796 47.0132 27.524C46.9599 27.7685 46.8699 27.9684 46.8132 27.9684C46.7085 27.9684 46.2171 29.5444 45.9235 30.822C45.7166 31.7225 45.7162 33.2536 45.9225 34.4032C46.0945 35.3623 47.0548 38.5102 47.2129 38.6338C47.2651 38.6745 47.439 38.9745 47.5994 39.3004C48.2488 40.6202 50.7134 43.5221 51.185 43.5221C51.2664 43.5221 51.3553 43.572 51.3824 43.6331C51.9508 44.9198 57.3488 46.1891 59.6787 45.5839C60.0027 45.4997 60.5185 45.3672 60.825 45.2894C61.1315 45.2115 61.496 45.0918 61.635 45.0233C61.774 44.9548 62.1528 44.7724 62.4768 44.6178C64.227 43.7829 66.1539 41.9608 66.953 40.3853L67.1541 39.9889L67.7541 40.7523C68.4853 41.6829 69.4802 42.629 69.73 42.6315C69.8313 42.6324 69.9141 42.687 69.9141 42.753C69.9141 42.8928 70.906 43.351 71.6671 43.5626C72.5289 43.8023 74.0523 43.8589 74.6931 43.6751C76.5816 43.1335 76.9902 42.9786 77.7932 42.5005C79.0423 41.7566 80.1666 40.7627 80.9616 39.6994C81.1629 39.4301 81.4438 39.07 81.5854 38.8991C81.7271 38.7283 81.8432 38.4987 81.8432 38.3889C81.8432 38.2791 81.9094 38.1894 81.9904 38.1894C82.0714 38.1894 82.1399 38.1061 82.1427 38.0042C82.1455 37.9025 82.2757 37.5524 82.4323 37.2265C82.5888 36.9007 82.719 36.5308 82.7218 36.4044C82.7246 36.2781 82.7953 36.1059 82.8791 36.0217C83.1383 35.7609 83.3454 34.3487 83.4194 32.3383C83.4863 30.5182 83.4291 29.9517 83.0004 28.1906C82.6181 26.6194 82.5532 26.4034 82.4239 26.2723C82.3474 26.1949 82.285 26.0384 82.285 25.9244C82.285 25.3683 80.1058 21.0305 79.7523 20.8829C79.6873 20.8557 79.6341 20.7698 79.6341 20.6917C79.6341 20.5572 79.0711 19.6826 78.883 19.525C78.8344 19.4843 78.7681 19.3771 78.7357 19.2866C78.6135 18.9454 77.738 17.9504 76.0941 16.2845C74.3249 14.4916 74.0098 14.2044 73.1541 13.6049C72.8706 13.4062 72.6055 13.2032 72.565 13.1535C72.4204 12.9762 70.6824 11.9704 70.5207 11.9704C70.4301 11.9704 70.3559 11.9091 70.3559 11.834C70.3559 11.759 70.1571 11.6537 69.9141 11.6001C69.6711 11.5465 69.4723 11.4412 69.4723 11.3662C69.4723 11.2911 69.3895 11.2276 69.2882 11.2247C69.187 11.2219 68.839 11.091 68.515 10.9335C68.191 10.7761 67.8507 10.6451 67.7586 10.6423C67.6667 10.6395 67.4016 10.5377 67.1695 10.4159C66.9376 10.2943 66.6118 10.1943 66.4458 10.1938C66.2797 10.1933 66.0809 10.1296 66.004 10.0524C65.794 9.8418 63.3515 9.40244 61.0777 9.16662C59.3658 8.98901 59.0021 8.98976 57.3959 9.17477ZM59.4577 11.3579C59.4577 11.5157 58.9081 12.2345 58.4743 12.6446C58.2974 12.8115 58.1102 13.1186 58.0582 13.3268C57.9687 13.6858 57.8993 13.7101 56.7269 13.7933C56.0465 13.8416 55.3555 13.9534 55.1911 14.0419C54.7767 14.2651 54.796 13.9768 55.2237 13.5557C55.6549 13.1312 56.2178 12.3209 56.2178 12.1245C56.2178 12.0397 56.2796 11.9704 56.3552 11.9704C56.4307 11.9704 56.5334 11.8408 56.5834 11.6823C56.65 11.4711 56.8394 11.3792 57.2928 11.3379C58.5383 11.2244 59.4577 11.2329 59.4577 11.3579ZM63.3397 11.5717C63.4092 11.5931 62.9927 12.0917 62.4141 12.6794L61.3623 13.748L60.0786 13.7472L58.795 13.7466L59.2737 13.2954C59.537 13.0472 59.7523 12.7475 59.7523 12.6295C59.7523 12.5114 59.8186 12.4148 59.8996 12.4148C59.9806 12.4148 60.0468 12.3239 60.0468 12.2126C60.0468 11.4152 61.759 11.0819 63.3397 11.5717ZM55.5348 11.7112C55.4737 11.8131 55.1677 12.224 54.8546 12.6246C54.5416 13.025 54.1889 13.5404 54.071 13.77C53.8182 14.2615 53.2907 14.5617 52.4255 14.7064C52.0813 14.7639 51.7996 14.8717 51.7996 14.9461C51.7996 15.0204 51.6504 15.082 51.4682 15.0832C51.286 15.0843 50.2852 15.5118 49.2444 16.0333L47.3519 16.9815L48.7289 15.5534C51.6299 12.545 51.6779 12.5031 52.5359 12.2397C54.7708 11.5537 55.7309 11.3846 55.5348 11.7112ZM66.1218 12.269C66.7617 12.4587 67.0778 12.8679 66.7109 13.0321C66.5461 13.1057 66.0173 13.9072 65.7933 14.4227C65.5893 14.8924 65.1849 14.8924 64.1323 14.4233C63.9899 14.3598 63.5356 14.2652 63.1226 14.2131L62.3718 14.1183L63.0503 13.4169C63.4233 13.0312 63.7287 12.678 63.7287 12.6321C63.7287 12.5863 63.893 12.3956 64.0939 12.2083C64.4877 11.8412 64.6987 11.8476 66.1218 12.269ZM68.6269 13.2338C68.8489 13.2898 69.0305 13.3805 69.0305 13.4353C69.0305 13.4901 69.2126 13.6188 69.4355 13.7213C70.6166 14.2651 70.71 14.4026 70.2086 14.859C70.0466 15.0063 69.9141 15.2167 69.9141 15.3263C69.9141 15.4359 69.8606 15.5255 69.7951 15.5255C69.7297 15.5255 69.562 15.7859 69.4224 16.1044C69.138 16.7526 69.2134 16.7623 67.7786 15.8947C67.4547 15.6987 67.0901 15.5334 66.9686 15.5273C66.2983 15.4934 66.1642 15.1091 66.6464 14.603C67.1689 14.0543 67.5333 13.6198 67.8457 13.1726C67.9635 13.0038 68.0966 12.9257 68.1417 12.9989C68.1866 13.0721 68.405 13.1778 68.6269 13.2338ZM49.6435 13.4852C49.5821 13.5852 49.2023 13.9684 48.7993 14.3369C48.3964 14.7055 47.9291 15.1632 47.7609 15.354C47.5927 15.5448 46.9901 16.178 46.4218 16.7612C45.8534 17.3444 45.025 18.2856 44.5809 18.8528C44.1367 19.42 43.5744 20.0896 43.3314 20.3408C42.7363 20.9557 41.7254 22.1942 41.6525 22.3974C41.6201 22.4878 41.5506 22.595 41.4979 22.6358C40.8547 23.1332 38.9869 27.536 38.9869 28.5546C38.9869 28.7825 38.8875 29.052 38.766 29.1535C38.6445 29.2549 38.545 29.3992 38.545 29.4742C38.545 29.5491 38.4774 29.6909 38.3948 29.7892C38.3121 29.8876 37.9642 30.3966 37.6216 30.9201C37.2789 31.4436 36.9324 31.9733 36.8514 32.097C36.2966 32.9448 36.2601 32.8974 36.3136 31.4009C36.3417 30.6128 36.4208 29.8993 36.4891 29.8152C36.5576 29.7309 36.9411 29.031 37.3414 28.2598C38.4281 26.1655 38.6107 25.8278 38.7013 25.7466C38.8736 25.592 39.8705 23.8492 39.8705 23.7027C39.8705 23.6183 39.9213 23.5271 39.9833 23.4998C40.0455 23.4727 40.377 22.9796 40.72 22.4041C41.0631 21.8286 41.4597 21.2287 41.6012 21.0709C41.7429 20.9132 42.0423 20.5119 42.2668 20.1792C42.4912 19.8465 42.7894 19.4459 42.9295 19.2889C43.5809 18.5588 44.2887 17.6082 44.2887 17.4634C44.2887 17.3752 44.342 17.3031 44.4071 17.3031C44.4723 17.3031 44.8865 16.8051 45.3275 16.1963C45.7686 15.5875 46.1842 15.0875 46.2511 15.0853C46.3179 15.0831 46.8397 14.8021 47.4106 14.4609C49.3148 13.3231 49.9003 13.0672 49.6435 13.4852ZM71.8286 15.2293C72.0154 15.3922 72.2111 15.5255 72.2634 15.5255C72.3157 15.5255 72.6417 15.7993 72.988 16.1341L73.6176 16.7424L73.3121 17.0693C73.1442 17.2492 73.0068 17.4752 73.0068 17.5718C73.0068 17.6685 72.9556 17.7475 72.893 17.7475C72.8304 17.7475 72.6544 17.9808 72.5017 18.2659C72.1677 18.8897 72.1491 18.8919 71.574 18.377C71.3238 18.1531 70.8497 17.803 70.5206 17.5993C69.8005 17.1539 69.7995 17.1464 70.3559 16.3173C70.5989 15.9551 70.7977 15.6174 70.7977 15.5669C70.7977 15.0632 71.4089 14.8631 71.8286 15.2293ZM75.9277 19.1568C76.1938 19.4972 76.2168 20.1176 75.9632 20.1176C75.9072 20.1176 75.6996 20.4834 75.5018 20.9308C75.1937 21.6277 74.7741 22.0253 74.7741 21.6203C74.7741 21.5506 74.3765 21.0571 73.8905 20.5236C73.1055 19.6621 72.7942 19.0806 73.1176 19.0806C73.1784 19.0806 73.3899 18.7641 73.5875 18.377C74.1935 17.1899 74.1629 17.1978 74.9383 18.0328C75.3225 18.4467 75.7677 18.9524 75.9277 19.1568ZM42.9805 17.8586C42.9033 18.0011 42.712 18.2544 42.5554 18.4212C42.3989 18.5881 42.0185 19.0881 41.7102 19.5321C41.4018 19.9764 41.1104 20.3731 41.0624 20.4138C40.8733 20.5742 40.3123 21.4469 40.3123 21.5805C40.3123 21.6586 40.2627 21.7445 40.2019 21.7717C40.0782 21.827 39.4287 22.7301 39.4287 22.8467C39.4287 22.8879 39.0565 23.5389 38.6016 24.2935C38.1467 25.048 37.7156 25.8003 37.6436 25.9651C37.5518 26.1755 37.5406 26.1106 37.6065 25.7478C37.7025 25.2193 38.4842 23.5079 38.9942 22.7098C39.1503 22.4654 39.3238 22.1654 39.3795 22.0432C39.4352 21.921 39.519 21.7877 39.5656 21.747C39.6123 21.7062 39.8312 21.4063 40.0522 21.0804C40.5546 20.3396 40.9521 19.8619 42.1157 18.5998C43.0916 17.5413 43.2049 17.4441 42.9805 17.8586ZM77.425 21.1284C77.425 21.1955 77.6518 21.5713 77.9291 21.9635C78.4737 22.7341 78.4717 22.8362 77.8907 23.8208C77.7223 24.1059 77.4696 24.5671 77.329 24.8456L77.0733 25.352L76.9325 24.9196C76.8551 24.6819 76.752 24.4541 76.7034 24.4132C76.6548 24.3724 76.5107 24.1391 76.3835 23.8947C76.2561 23.6505 76.0648 23.3117 75.9583 23.1419C75.7904 22.8741 75.8162 22.7304 76.1532 22.0558C76.3667 21.6282 76.5414 21.1838 76.5414 21.0683C76.5414 20.9527 76.6076 20.8582 76.6886 20.8582C76.7696 20.8582 76.8359 20.7582 76.8359 20.636C76.8359 20.4631 76.9013 20.4796 77.1305 20.7101C77.2924 20.873 77.425 21.0613 77.425 21.1284ZM57.985 22.8651C57.985 22.9097 57.8336 23.093 57.6486 23.2724C57.4635 23.4518 56.9516 24.0652 56.5108 24.6355C56.07 25.2058 55.674 25.7057 55.6309 25.7465C55.5877 25.7872 55.3873 26.0724 55.1855 26.3802C54.9838 26.6879 54.55 27.0996 54.2218 27.295C53.8752 27.5014 53.5046 27.888 53.3381 28.2168C53.1804 28.5284 53.0147 28.8165 52.9698 28.8572C52.7829 29.0268 52.277 30.1767 52.0249 31.0051C51.876 31.4939 51.7142 31.9272 51.6651 31.9679C51.6161 32.0087 51.315 32.4753 50.9962 33.0048C50.6772 33.5344 50.2305 34.2277 50.0034 34.5454C49.7763 34.8631 49.5905 35.2132 49.5905 35.3231C49.5905 35.4331 49.5255 35.523 49.446 35.523C49.3666 35.523 49.2606 35.687 49.2107 35.8873C49.1606 36.0876 49.0269 36.3292 48.9133 36.4238C48.7998 36.5186 48.7048 36.738 48.7024 36.9113C48.6962 37.3412 48.474 36.9612 48.2044 36.06C48.0216 35.4494 48.7837 33.2602 49.3198 32.8552C49.3749 32.8136 49.4655 32.597 49.5211 32.3738C49.5768 32.1506 49.6762 31.9679 49.742 31.9679C49.8079 31.9679 49.9054 31.768 49.9587 31.5235C50.012 31.2791 50.1167 31.0792 50.1912 31.0792C50.2659 31.0792 50.3269 31.0036 50.3269 30.9113C50.3269 30.706 52.6661 27.1734 52.8479 27.1044C52.9193 27.0771 52.9778 26.9958 52.9778 26.9235C52.9778 26.8 54.4187 24.5732 54.602 24.4133C54.6487 24.3726 54.844 24.0726 55.036 23.7467C55.2281 23.4208 55.4058 23.1276 55.431 23.0948C55.4561 23.0622 55.892 22.988 56.3995 22.9299C57.6783 22.7837 57.985 22.7712 57.985 22.8651ZM60.0829 23.0517L60.6345 23.1542L60.194 23.8208C59.9517 24.1874 59.7533 24.5651 59.7529 24.6602C59.7526 24.7552 59.7027 24.8552 59.6418 24.8824C59.48 24.9547 58.8687 25.8585 58.8687 26.0254C58.8687 26.1041 58.3383 26.19 57.6902 26.2167C56.4937 26.2657 56.3675 26.2209 56.6964 25.8641C57.0423 25.4889 57.5432 24.7219 57.5432 24.5674C57.5432 24.4826 57.604 24.4133 57.6784 24.4133C57.7529 24.4133 57.9582 24.1782 58.1346 23.8909C58.746 22.896 58.8968 22.8311 60.0829 23.0517ZM54.025 23.9971C53.7738 24.2668 53.5679 24.5708 53.5676 24.6725C53.5671 24.7745 53.5063 24.8577 53.4322 24.8577C53.3582 24.8577 53.1022 25.1771 52.8635 25.5672C52.6247 25.9576 52.3374 26.376 52.2249 26.4971C51.8648 26.885 51.3578 27.6551 51.3578 27.8144C51.3578 27.8991 51.3011 27.9684 51.2318 27.9684C51.0444 27.9684 49.4445 30.4979 48.5615 32.1901C48.1365 33.0048 47.7542 33.7048 47.7119 33.7455C47.5382 33.913 47.8374 30.3613 48.0487 29.746C48.6297 28.0541 50.9161 24.8577 51.5454 24.8577C51.596 24.8577 51.9226 24.6668 52.2709 24.4333C53.0951 23.8808 54.2902 23.3429 54.4294 23.4619C54.4583 23.4866 54.2763 23.7275 54.025 23.9971ZM62.1726 23.8347C63.4864 24.5151 63.4375 24.4665 63.2097 24.8667C63.0964 25.0654 62.9563 25.328 62.8983 25.4502C62.8403 25.5724 62.7549 25.7057 62.7085 25.7465C62.5191 25.9127 61.9614 26.781 61.9614 26.9098C61.9614 27.2229 61.5406 27.1512 60.6408 26.6847C60.1171 26.4131 59.7638 26.1909 59.856 26.1909C59.948 26.1909 60.0672 25.9909 60.1205 25.7465C60.1738 25.5021 60.2732 25.3021 60.3414 25.3021C60.4096 25.3021 60.509 25.1021 60.5623 24.8577C60.6156 24.6133 60.715 24.4133 60.7832 24.4133C60.8514 24.4133 60.9508 24.2133 61.0041 23.9689C61.12 23.4379 61.3545 23.4109 62.1726 23.8347ZM79.4039 24.6293C79.6116 25.0707 79.7814 25.5027 79.7814 25.5892C79.7814 25.6757 79.8401 25.7465 79.912 25.7465C80.1674 25.7465 80.1702 26.6484 79.9164 27.1942C79.3893 28.3278 79.1923 28.8342 79.1923 29.056C79.1923 29.1815 79.1322 29.3214 79.0585 29.3672C78.9851 29.4128 78.8029 29.8334 78.6535 30.3018L78.3823 31.1532L78.2876 29.8004C78.1985 28.5281 78.1103 28.112 77.64 26.7464C77.5347 26.4409 77.4945 26.1909 77.5503 26.1909C77.6574 26.1909 78.1094 25.3507 78.5577 24.3185C78.8767 23.5841 78.9197 23.5999 79.4039 24.6293ZM64.9681 25.8315C65.7006 26.5683 65.7012 26.6053 64.9915 27.45C64.4993 28.0357 64.454 28.0963 64.0232 28.7451C63.594 29.3914 63.5041 29.4182 63.274 28.9683C63.1802 28.7851 62.9434 28.462 62.7477 28.2506C62.4324 27.9099 62.4176 27.8446 62.6184 27.6769C62.7431 27.5729 62.845 27.4381 62.845 27.3774C62.845 27.1782 64.0584 25.154 64.1778 25.154C64.242 25.154 64.5977 25.4588 64.9681 25.8315ZM66.4922 27.7525C66.8426 28.2977 67.2222 29.2274 67.1247 29.3016C66.9433 29.4398 66.1071 30.8983 65.7956 31.62C65.6251 32.015 65.4123 32.4691 65.3227 32.6289C65.2332 32.7887 65.0036 33.2152 64.8124 33.5768L64.465 34.234L64.4585 32.9899C64.455 32.3057 64.3628 31.4124 64.254 31.0051C64.0721 30.3249 64.0786 30.2394 64.3341 29.9587C64.4871 29.7904 64.6123 29.5793 64.6123 29.4896C64.6123 29.3998 64.6654 29.3041 64.7305 29.2769C64.8977 29.2071 65.9377 27.4478 65.9377 27.2349C65.9377 27.0377 66.1759 27.2601 66.4922 27.7525ZM81.0641 29.3016C81.5673 31.5305 81.4232 34.3377 80.7243 35.9157C80.6108 36.1724 80.5177 36.4215 80.5177 36.469C80.5177 37.1183 77.6961 40.4113 77.1399 40.4113C77.0652 40.4113 76.9137 40.4947 76.8029 40.5965C76.4823 40.8913 75.6577 41.2985 75.6577 41.162C75.6577 41.0936 75.7567 40.8468 75.8778 40.6134C75.9987 40.3801 76.0981 40.0431 76.0987 39.8646C76.0991 39.6861 76.1607 39.502 76.2355 39.4556C76.3103 39.4091 76.4181 39.1573 76.4751 38.8961C76.5321 38.635 76.6343 38.3191 76.7022 38.1943C76.9796 37.6838 77.425 36.5631 77.425 36.3755C77.425 36.2652 77.481 36.1114 77.5494 36.0341C77.6178 35.9568 77.8241 35.4601 78.0079 34.9305C78.1919 34.401 78.434 33.7576 78.5463 33.5009C78.6586 33.2442 78.7505 32.9315 78.7505 32.8061C78.7505 32.6806 78.8094 32.5413 78.8814 32.4965C78.9534 32.4517 79.0562 32.2312 79.1099 32.0063C79.223 31.5324 80.0164 29.297 80.3145 28.6126C80.4263 28.3559 80.522 28.0226 80.527 27.872C80.5413 27.4531 80.8056 28.1569 81.0641 29.3016ZM58.6416 28.2761C59.8629 28.5032 61.6636 29.7972 61.6661 30.4496C61.6665 30.5515 61.7194 30.6348 61.7838 30.6348C62.1534 30.6348 62.61 33.5994 62.2726 33.8092C62.2008 33.8538 62.097 34.132 62.0419 34.4272C61.9325 35.0141 61.8542 35.1336 61.0515 35.9411C60.3025 36.6943 60.2203 36.7479 59.3644 37.0414C58.1623 37.4535 56.4568 37.2819 55.7023 36.673C54.7213 35.8812 54.0928 35.0601 53.9431 34.3752C53.8857 34.1123 53.7776 33.859 53.7028 33.8125C53.4782 33.6729 53.5455 31.6132 53.7953 30.9861C54.3013 29.7153 54.8427 28.8572 55.1384 28.8572C55.1927 28.8572 55.3458 28.7586 55.4781 28.638C55.6107 28.5173 56.0799 28.3585 56.5207 28.2848C57.6417 28.0979 57.6824 28.0978 58.6416 28.2761ZM67.504 33.5529C67.2909 33.944 66.848 34.8305 66.5198 35.523C65.936 36.7547 65.7768 37.1031 65.2869 38.2203C65.1544 38.5225 65.0223 39.0728 64.9933 39.4433C64.9584 39.8883 64.8045 40.2961 64.5397 40.6454C64.1232 41.1945 63.1753 42.1889 63.0684 42.1889C63.0347 42.1889 62.722 42.3804 62.3737 42.6146C62.0254 42.8488 61.5748 43.0903 61.3723 43.1513C61.1698 43.2122 60.9197 43.3301 60.8165 43.4132C60.4714 43.6911 60.4321 43.3756 60.7568 42.9337C60.9333 42.6936 61.0777 42.4333 61.0777 42.3554C61.0777 42.2773 61.1274 42.1914 61.1882 42.1642C61.3447 42.0942 61.8425 41.3302 62.1852 40.6335C62.3456 40.3076 62.515 40.0077 62.5615 39.9669C62.6081 39.9262 62.8484 39.4929 63.0957 39.0041C63.3429 38.5153 64.3817 36.4609 65.4042 34.4387C66.4267 32.4166 67.2632 30.6724 67.2632 30.5626C67.2632 30.453 67.3461 30.3348 67.4473 30.3001C67.889 30.1488 67.9345 32.7627 67.504 33.5529ZM38.4047 36.1156C38.0698 36.8107 37.6212 37.6149 37.4405 37.8442C36.8438 38.6012 36.8708 38.6152 36.667 37.4412C36.3209 35.4481 36.2799 34.648 36.5093 34.3697C36.6245 34.23 36.848 33.8502 37.0061 33.5255C37.1639 33.201 37.3595 32.8628 37.4405 32.7741C37.5215 32.6853 37.7188 32.3677 37.8789 32.0681C38.0392 31.7686 38.2213 31.5235 38.2839 31.5235C38.3465 31.5235 38.4091 31.4068 38.423 31.2643C38.4367 31.1218 38.4945 32.0383 38.5512 33.3011C38.6409 35.2974 38.6218 35.6648 38.4047 36.1156ZM103.012 31.3193C104.171 31.4076 104.207 31.4717 103.504 32.2209C103.336 32.4009 103.198 32.6071 103.198 32.6794C103.198 32.7517 103.065 32.9315 102.903 33.0789C102.741 33.2263 102.609 33.4366 102.609 33.5463C102.609 33.6559 102.557 33.7455 102.494 33.7455C102.43 33.7455 102.301 33.9287 102.205 34.1528C102.11 34.377 101.729 35.0935 101.359 35.7452C100.988 36.397 100.606 37.0969 100.508 37.3006C100.411 37.5043 100.297 37.7043 100.255 37.745C100.213 37.7857 99.9871 38.1857 99.7531 38.6338C99.0776 39.9271 99.0384 39.8948 99.125 38.1153C99.2408 35.7377 99.6091 31.6389 99.7338 31.3388C99.8484 31.0635 99.6673 31.0646 103.012 31.3193ZM106.695 31.7838C107.564 32.0595 107.608 32.1414 107.137 32.6046C106.718 33.0177 106.143 33.8376 106.143 34.0234C106.143 34.1014 106.093 34.1874 106.033 34.2146C105.871 34.2866 105.26 35.1905 105.26 35.3565C105.26 35.4346 105.21 35.5205 105.149 35.5478C104.996 35.6159 103.934 37.3841 103.934 37.5698C103.934 37.6526 103.881 37.7425 103.815 37.7697C103.654 37.8367 101.725 41.7261 101.725 41.9839C101.725 42.0966 101.664 42.1889 101.589 42.1889C101.515 42.1889 101.41 42.3889 101.357 42.6333C101.303 42.8777 101.199 43.0777 101.124 43.0777C101.05 43.0777 100.989 43.1495 100.989 43.2373C100.989 43.3252 100.757 43.8822 100.473 44.475C100.19 45.0678 99.9577 45.6587 99.9577 45.7878C99.9577 45.917 99.8914 46.064 99.8104 46.1143C99.7294 46.1647 99.6632 46.3734 99.6632 46.5783C99.6632 47.8106 101.319 45.5233 102.68 42.4111C103.326 40.935 103.441 40.6858 104.123 39.3004C104.888 37.7481 105.302 36.9605 105.41 36.8564C105.452 36.8155 105.569 36.6155 105.669 36.4118C105.77 36.2081 105.98 35.8415 106.137 35.5971C106.293 35.3527 106.574 34.8528 106.761 34.4861C106.948 34.1195 107.15 33.7973 107.211 33.7702C107.272 33.743 107.321 33.6471 107.321 33.5572C107.321 32.8677 108.285 32.1966 108.647 32.6345C108.748 32.7567 108.888 32.8567 108.958 32.8567C109.081 32.8567 109.462 33.1542 110.222 33.8422C110.415 34.0176 110.518 34.1842 110.449 34.2125C110.311 34.2699 109.447 35.7192 109.006 36.634C108.849 36.9599 108.684 37.2599 108.639 37.3006C108.594 37.3413 108.399 37.6413 108.205 37.9672C108.011 38.2931 107.816 38.593 107.771 38.6338C107.575 38.812 107.027 39.6716 107.027 39.8004C107.027 39.8785 106.977 39.9644 106.916 39.9917C106.749 40.0666 106.143 40.9707 106.143 41.1461C106.143 41.2308 106.083 41.3001 106.01 41.3001C105.937 41.3001 105.806 41.4833 105.718 41.7075C105.63 41.9316 105.497 42.2148 105.421 42.337C105.346 42.4592 105.18 42.8002 105.053 43.0948C104.926 43.3893 104.508 43.8893 104.122 44.2058C103.737 44.5222 103.321 44.8811 103.198 45.0033C103.075 45.1256 102.781 45.3769 102.546 45.5621C101.923 46.053 100.719 47.089 100.227 47.5586C99.9925 47.7827 99.7363 47.9659 99.6581 47.9659C99.5798 47.9659 99.5159 48.0302 99.5159 48.1089C99.5159 48.264 98.9387 48.6198 98.8431 48.5237C98.2507 47.9277 98.9424 41.5213 99.6711 40.8562C99.716 40.8151 99.8916 40.515 100.061 40.1891C100.231 39.8632 100.608 39.1633 100.9 38.6338C101.192 38.1042 101.612 37.3043 101.833 36.8562C102.055 36.4081 102.278 36.0082 102.329 35.9674C102.38 35.9267 102.473 35.7267 102.535 35.523C102.597 35.3194 102.692 35.1194 102.746 35.0787C102.852 34.9991 103.395 33.9841 104.195 32.3753L104.691 31.3753L105.307 31.4569C105.645 31.5018 106.27 31.6489 106.695 31.7838ZM16.7805 31.9309C16.7396 32.155 16.202 33.0248 15.586 33.864C14.97 34.7031 14.3997 35.5002 14.3187 35.6353C14.2377 35.7704 14.1052 35.9588 14.0242 36.0541C13.9432 36.1495 13.7775 36.3766 13.656 36.5589C13.4651 36.8454 13.1635 37.2593 12.7379 37.8191C12.676 37.9005 12.3949 38.2338 12.1132 38.5597C11.8314 38.8856 11.5995 39.23 11.5976 39.3251C11.5956 39.42 11.5445 39.52 11.4837 39.5473C11.316 39.6222 10.7105 40.5263 10.7105 40.7017C10.7105 40.7864 10.6571 40.8557 10.5917 40.8557C10.5263 40.8557 10.4104 41.0275 10.334 41.2374L10.1951 41.6192L9.31145 40.9296C8.82545 40.5503 8.37391 40.1877 8.30808 40.1238C8.08172 39.904 9.85415 36.675 10.8528 35.4879C10.9393 35.385 11.3538 34.8342 11.7738 34.2639C12.194 33.6936 12.6236 33.1389 12.7286 33.0314C12.8336 32.9237 12.9196 32.7847 12.9196 32.7226C12.9196 32.6606 13.1626 32.3654 13.4597 32.0667L13.9996 31.5235H15.4274H16.8552L16.7805 31.9309ZM12.16 32.4123C11.9803 32.6567 11.7796 32.8567 11.7138 32.8567C11.6479 32.8567 11.5942 32.921 11.5942 32.9998C11.5942 33.0785 11.4118 33.3414 11.1892 33.5842C10.7113 34.105 10.5683 34.2871 10.2477 34.7824C10.116 34.9861 9.88448 35.2966 9.73338 35.4722C9.58228 35.6479 9.37463 35.9146 9.27183 36.0648C9.16904 36.215 8.85417 36.6662 8.57229 37.0675C8.29026 37.4687 8.05963 37.8854 8.05963 37.9933C8.05963 38.1011 7.99778 38.1894 7.92223 38.1894C7.84668 38.1894 7.74315 38.3394 7.69219 38.5227C7.5352 39.086 7.27497 39.5351 7.18646 39.3952C7.04817 39.1765 5.7124 38.1894 5.55467 38.1894C5.47441 38.1894 5.40873 38.1241 5.40873 38.0441C5.40873 37.9642 5.24305 37.857 5.04055 37.8059C4.56559 37.6859 4.57458 37.6083 5.17118 36.6703C5.62198 35.9614 7.21812 34.1899 7.40604 34.1899C7.47967 34.1899 8.35094 33.6008 8.50145 33.4491C8.54195 33.4083 8.90645 33.2208 9.31145 33.0324C9.71645 32.8441 10.1556 32.6321 10.2874 32.5613C10.4192 32.4905 10.7678 32.3871 11.0622 32.3316C11.3566 32.276 11.6338 32.1715 11.6781 32.0993C11.7224 32.027 11.9226 31.9679 12.1227 31.9679H12.4866L12.16 32.4123ZM16.55 36.1234C16.4599 38.324 16.428 38.5255 16.1221 38.8268C15.7029 39.2393 15.1287 40.0592 15.1287 40.2448C15.1287 40.3229 15.0791 40.4088 15.0183 40.4361C14.8505 40.511 14.2451 41.4151 14.2451 41.5904C14.2451 41.6752 14.1894 41.7445 14.1215 41.7445C14.0535 41.7445 13.9202 41.8946 13.8254 42.0778C13.7305 42.261 13.5258 42.6111 13.3706 42.8555C13.2155 43.0999 13.0835 43.4244 13.0776 43.5767C13.0681 43.8232 13.0064 43.8073 12.5146 43.433C11.7177 42.8263 11.6027 42.7341 11.3074 42.4666C11.1613 42.3342 10.9661 42.2004 10.8734 42.1695C10.7755 42.1366 10.8909 41.908 11.1496 41.6233C11.394 41.354 11.5942 41.0711 11.5942 40.9947C11.5942 40.9182 11.6547 40.8557 11.7288 40.8557C11.8029 40.8557 12.0588 40.5364 12.2975 40.1462C12.5363 39.7559 12.8236 39.3374 12.9361 39.2164C13.222 38.9084 13.8033 38.0709 13.8033 37.9669C13.8033 37.9195 13.8862 37.7811 13.9874 37.6595C14.0887 37.5379 14.2392 37.3575 14.3218 37.2584C14.7468 36.7496 16.4542 34.0813 16.4542 33.9258C16.4542 33.8265 16.4976 33.7455 16.5508 33.7455C16.6039 33.7455 16.6036 34.8156 16.55 36.1234ZM52.0772 35.1527C52.8065 36.8276 52.8546 37.1123 52.4483 37.345C52.3345 37.4102 52.2414 37.5546 52.2414 37.6659C52.2414 37.7773 52.1918 37.8906 52.1309 37.9179C51.9832 37.9838 50.9159 39.5665 50.9159 39.7196C50.9159 40.5095 49.8002 39.9463 49.4984 39.0041C49.4462 38.8412 49.3516 38.6739 49.2883 38.6326C49.1391 38.5353 50.7417 35.2908 51.1737 34.8156C51.275 34.7042 51.3578 34.5178 51.3578 34.4016C51.3578 34.2851 51.424 34.1899 51.505 34.1899C51.586 34.1899 51.6589 34.0732 51.667 33.9307C51.6753 33.7882 51.7418 33.9381 51.815 34.2639C51.8882 34.5898 52.0062 34.9898 52.0772 35.1527ZM68.4775 35.5687C68.6013 35.7975 68.8757 36.1802 69.0873 36.4191C69.2991 36.6582 69.4723 36.9155 69.4723 36.991C69.4723 37.179 68.982 38.1039 68.8511 38.1632C68.7929 38.1894 68.7035 38.4348 68.6524 38.7084C68.5679 39.1616 68.1468 39.326 68.1468 38.9059C68.1468 38.428 67.228 37.923 66.7355 38.13C66.1921 38.3584 66.1844 38.3092 66.6284 37.4487C66.7336 37.2451 66.8199 36.9941 66.8205 36.8912C66.8209 36.7882 66.8823 36.5883 66.9569 36.4468C67.3779 35.647 67.705 34.8979 67.705 34.7334C67.705 34.2361 68.0742 34.1794 68.1629 34.6632C68.2122 34.9325 68.3537 35.34 68.4775 35.5687ZM111.206 34.9676C111.306 35.0695 111.436 35.2527 111.496 35.3749C111.668 35.7297 111.959 36.2154 112.129 36.433C112.548 36.9688 112.465 37.2898 111.763 37.8573C111.385 38.1621 111.044 38.4465 111.003 38.4892C110.963 38.5319 110.466 38.9296 109.899 39.3729C109.332 39.8163 108.722 40.3312 108.543 40.5174C108.365 40.7034 108.16 40.8557 108.088 40.8557C108.015 40.8557 107.836 40.989 107.69 41.152C107.042 41.8719 107.265 41.325 108.218 39.8558C108.787 38.9799 109.629 37.4804 110.09 36.5234C110.552 35.5663 110.951 34.783 110.977 34.7828C111.003 34.7825 111.106 34.8658 111.206 34.9676ZM39.4879 38.8094C39.6895 39.5569 39.62 39.8301 38.9852 40.7817C38.8222 41.0261 38.6487 41.3428 38.5998 41.4853C38.5508 41.6278 38.4521 41.7445 38.3805 41.7445C38.3091 41.7445 38.2505 41.8586 38.2505 41.9979C38.2505 42.3375 37.7047 41.2462 37.5794 40.656C37.5247 40.3993 37.4159 40.1088 37.3373 40.0106C37.2395 39.8884 37.3082 39.6782 37.5552 39.344C37.7536 39.0756 38.1387 38.3939 38.411 37.8293L38.9062 36.8027L39.1035 37.4589C39.2119 37.8199 39.3849 38.4276 39.4879 38.8094ZM75.9452 37.6339C75.7817 38.0617 75.5573 38.6116 75.4465 38.856C75.3358 39.1004 75.128 39.567 74.9847 39.8929C74.1211 41.8566 74.2371 41.7392 73.159 41.7423C71.8961 41.7458 70.9998 41.349 71.3575 40.9447C71.6668 40.5952 72.1207 39.6566 72.1279 39.3521C72.1304 39.2421 72.2298 39.0228 72.3488 38.8647C72.4677 38.7065 72.565 38.4627 72.565 38.3228C72.565 38.1238 72.7326 38.0535 73.3382 37.9992C74.465 37.8979 75.1661 37.6749 75.7007 37.2477C75.9605 37.04 76.1888 36.867 76.2078 36.8632C76.2269 36.8593 76.1087 37.2061 75.9452 37.6339ZM70.7154 37.5275C70.8727 37.6471 71.1543 37.745 71.3413 37.745C71.7747 37.745 71.7686 37.9014 71.2954 38.9075C71.083 39.3589 70.8755 39.9819 70.8341 40.2919C70.7404 40.9945 70.5347 41.0067 69.6919 40.3593C69.1165 39.9175 69.0661 39.8321 69.2327 39.5817C69.3356 39.427 69.5079 39.067 69.6154 38.7819C70.1935 37.2495 70.2561 37.1781 70.7154 37.5275ZM53.7878 37.8931C53.9343 38.0561 54.1434 38.1894 54.2524 38.1894C54.3614 38.1894 54.4505 38.2431 54.4505 38.3091C54.4505 38.3748 54.715 38.5459 55.0381 38.6895C55.6184 38.9469 55.6231 38.9552 55.4045 39.3475C55.0321 40.0157 54.7444 40.4495 54.3763 40.8979C54.2951 40.9969 53.9969 41.4262 53.7135 41.8517C53.1174 42.7479 53.0604 42.7645 52.4387 42.2235C52.1828 42.0008 51.804 41.6943 51.5971 41.5426L51.2209 41.2665L51.547 40.6541C51.7264 40.3174 51.914 40.0083 51.9638 39.9674C52.0137 39.9263 52.1055 39.7262 52.1678 39.5225C52.2301 39.3189 52.3275 39.1189 52.3844 39.0782C52.4412 39.0374 52.6705 38.6874 52.8941 38.3005C53.3521 37.5071 53.4147 37.4785 53.7878 37.8931ZM62.3687 38.1432C61.6817 39.4908 60.999 40.6532 60.2071 41.8237C59.714 42.5527 59.3105 43.199 59.3105 43.2599C59.3105 43.7256 58.7681 43.9664 57.719 43.9664H56.6348L57.1148 43.3569C57.3788 43.0215 58.0034 41.9399 58.5028 40.953C59.2984 39.3808 59.4641 39.1479 59.8424 39.07C60.4331 38.9485 61.5196 38.4556 61.5196 38.3091C61.5196 38.2431 61.6087 38.1894 61.7176 38.1894C61.8266 38.1894 62.036 38.0556 62.1832 37.8922C62.5382 37.4975 62.6328 37.6253 62.3687 38.1432ZM5.11109 40.1151C5.26116 40.2599 6.54346 41.3848 7.33211 42.0634C7.77275 42.4426 8.46861 43.0426 8.87847 43.3966C9.28848 43.7508 9.94296 44.3071 10.3331 44.633C10.7232 44.9589 11.1167 45.2935 11.2077 45.3768C11.2987 45.4599 11.7008 45.7932 12.1012 46.1174C12.5015 46.4415 13.0015 46.8735 13.2121 47.0772C13.4229 47.2808 13.9402 47.7112 14.362 48.0333C14.7837 48.3557 15.1287 48.6724 15.1287 48.737C15.1287 48.8017 15.1981 48.8547 15.2831 48.8547C15.3679 48.8547 15.5833 49.007 15.7617 49.1932C15.94 49.3794 16.4215 49.7959 16.8315 50.119C17.5415 50.6783 19.0248 51.9346 19.5364 52.4098C19.7813 52.6374 20.3595 53.1213 21.3698 53.9443C21.684 54.2003 22.0502 54.5096 22.1838 54.6318C22.4362 54.8629 23.0443 55.3708 24.0207 56.1663C24.3349 56.4222 24.7001 56.7315 24.8325 56.8537C24.9649 56.9759 25.401 57.3426 25.8017 57.6684C26.2024 57.9943 26.6376 58.3609 26.7688 58.4832C27.0451 58.7406 27.4335 59.0655 28.4508 59.8907C28.8526 60.2164 29.2885 60.5829 29.4198 60.7051C29.696 60.9625 30.0844 61.2874 31.1017 62.1126C31.5035 62.4384 31.9394 62.8048 32.0707 62.927C32.3469 63.1845 32.7353 63.5093 33.7526 64.3346C34.1544 64.6603 34.5903 65.0268 34.7216 65.149C35.0121 65.4198 35.4429 65.7788 36.4096 66.5565C36.8146 66.8823 37.2122 67.2193 37.2932 67.3053C37.3742 67.3914 37.6725 67.6346 37.956 67.8457C38.2395 68.0568 38.6178 68.3696 38.7966 68.5409C38.9755 68.7121 39.1577 68.8522 39.2016 68.8522C39.2455 68.8522 39.414 68.9855 39.576 69.1485C39.738 69.3114 39.8097 69.4447 39.7353 69.4447C39.6608 69.4447 39.3241 69.7114 38.9869 70.0373C38.6496 70.3632 38.3461 70.6298 38.3121 70.6298C38.2782 70.6298 38.1315 70.7465 37.986 70.889C37.8405 71.0315 37.3676 71.4482 36.9349 71.8148C36.5022 72.1814 35.8327 72.7814 35.4473 73.148C35.0618 73.5146 34.4911 74.0382 34.1789 74.3115C31.6106 76.5605 25.6644 82.4455 22.6396 85.7322C21.7081 86.7444 20.7307 87.7955 20.4673 88.0679C20.204 88.3405 19.9887 88.5913 19.9887 88.6255C19.9887 88.6596 19.6738 89.0117 19.2892 89.4078C18.4989 90.2216 16.7069 92.2301 16.2505 92.8137C16.0842 93.0261 15.7474 93.4074 15.5018 93.6607C15.2561 93.9142 14.79 94.4473 14.466 94.8453C13.648 95.8505 13.069 96.5288 12.5514 97.0886C12.3084 97.3514 12.0102 97.7144 11.8887 97.8953C11.7672 98.0762 11.5353 98.3752 11.3733 98.5597C11.2113 98.7442 10.7142 99.3114 10.2687 99.8199C9.82322 100.328 9.144 101.091 8.75918 101.514C8.37435 101.938 8.05963 102.324 8.05963 102.372C8.05963 102.421 7.7779 102.765 7.43373 103.137C7.0894 103.509 6.51239 104.147 6.15127 104.553C5.79016 104.96 5.4588 105.291 5.41491 105.29C5.23524 105.286 4.65734 104.212 4.73098 104.019C4.77457 103.905 4.74615 103.811 4.6678 103.811C4.5893 103.811 4.52509 103.704 4.52509 103.574C4.52509 103.444 4.43246 103.127 4.31906 102.87C3.13086 100.178 2.65694 94.573 2.89567 86.0353C2.96268 83.6374 2.59125 64.6305 2.47727 64.6305C2.46902 64.6305 2.42012 62.0375 2.36873 58.8683C2.23309 50.5028 2.69405 43.1233 3.53718 40.1653C3.89638 38.9056 3.85986 38.9068 5.11109 40.1151ZM58.3062 39.4223C58.3613 39.4366 58.1129 39.8818 57.7541 40.4113C57.3953 40.9409 57.1017 41.4576 57.1015 41.5593C57.1015 41.6612 57.0351 41.7445 56.9541 41.7445C56.8731 41.7445 56.8064 41.8279 56.806 41.9297C56.8054 42.0316 56.7123 42.2936 56.5989 42.5122C56.4855 42.7307 56.3497 43.1071 56.297 43.3486L56.2011 43.7877L55.4362 43.6004C54.2315 43.3055 53.8554 43.1177 53.9536 42.8602C54.0012 42.7353 54.0905 42.6333 54.1521 42.6333C54.2715 42.6333 55.3307 41.0767 55.973 39.9573L56.361 39.2811L57.2834 39.3386C57.7908 39.3701 58.251 39.4077 58.3062 39.4223ZM16.4978 46.6137C16.4664 46.6708 15.3754 45.8333 14.9792 45.4477C14.7624 45.2369 14.0794 44.684 13.4351 44.198C13.2361 44.0479 13.2074 43.9743 13.3466 43.9712C13.8221 43.9602 14.4738 43.0609 15.8122 40.5682C16.3654 39.5383 16.378 39.5891 16.4542 43.1322C16.4947 45.0167 16.5143 46.5834 16.4978 46.6137ZM113.758 41.332C114.222 44.1411 114.388 65.9582 114.089 84.9984C113.921 95.7711 113.901 96.1454 113.423 97.8015C113.307 98.2032 113.212 98.7476 113.212 99.0112C113.212 99.2748 113.144 99.5132 113.061 99.541C112.978 99.5687 112.869 99.8576 112.819 100.183C112.719 100.825 112.048 102.344 111.62 102.897L111.352 103.242L110.294 102.188C109.712 101.609 109.236 101.103 109.236 101.065C109.236 100.973 108.666 100.404 108.573 100.404C108.481 100.404 107.91 99.8353 107.91 99.7429C107.91 99.6226 96.2768 87.9739 93.7768 85.5909C90.387 82.3599 87.4867 79.5248 83.6233 75.6662C80.3915 72.4385 79.8335 71.9064 77.8922 70.2014L76.9826 69.4027L77.4534 69.0534C77.7122 68.8613 78.0051 68.7041 78.1041 68.7041C78.203 68.7041 78.3061 68.6502 78.3332 68.5844C78.3602 68.5185 78.6805 68.2594 79.045 68.0086C79.4095 67.7579 79.9397 67.3461 80.2232 67.0938C80.5067 66.8415 80.7782 66.634 80.8266 66.6327C80.8749 66.6313 81.0737 66.4982 81.2684 66.3368C81.4631 66.1754 81.6885 65.9916 81.7695 65.9283C82.9424 65.0132 83.9938 64.1765 84.0523 64.1121C84.0928 64.0675 84.5898 63.6681 85.1568 63.2248C85.7238 62.7814 86.3248 62.276 86.4924 62.1017C86.66 61.9273 86.8661 61.7583 86.9503 61.7263C87.1014 61.6687 88.3053 60.6928 88.7585 60.2607C88.8868 60.1385 89.4542 59.6741 90.0196 59.2288C90.5851 58.7836 91.1937 58.267 91.372 58.0808C91.5504 57.8948 91.7374 57.7425 91.7876 57.7425C91.8377 57.7425 91.9642 57.6593 92.0686 57.5573C92.173 57.4556 92.5089 57.1722 92.8151 56.9278C93.1213 56.6834 93.4812 56.3834 93.6148 56.2612C93.7485 56.139 94.1865 55.7725 94.5883 55.4468C95.6057 54.6216 95.994 54.2967 96.2703 54.0393C96.4015 53.9171 96.8374 53.5506 97.2392 53.2248C98.2565 52.3996 98.6449 52.0748 98.9212 51.8173C99.0524 51.6951 99.4883 51.3286 99.8901 51.0029C100.907 50.1777 101.296 49.8528 101.572 49.5954C101.703 49.4732 102.139 49.1067 102.541 48.781C103.558 47.9557 103.947 47.6309 104.223 47.3734C104.354 47.2512 104.79 46.8847 105.192 46.559C106.209 45.7338 106.598 45.4089 106.874 45.1515C107.005 45.0293 107.441 44.6628 107.843 44.3371C108.882 43.4944 109.253 43.1828 109.522 42.9295C109.651 42.8073 110.22 42.3429 110.785 41.8977C111.351 41.4524 111.959 40.9359 112.137 40.7497C112.316 40.5636 112.501 40.4113 112.549 40.4113C112.596 40.4113 112.778 40.2777 112.952 40.1142C113.394 39.7009 113.52 39.8926 113.758 41.332ZM40.3123 40.8704C40.3123 41.085 40.7555 42.0551 40.9823 42.337C41.4761 42.9507 41.4079 43.1726 40.3525 44.3839C40.0911 44.6838 39.8758 45.0275 39.8739 45.1475C39.8698 45.4088 39.6596 45.1224 39.0746 44.0589L38.6774 43.3367L39.3109 42.0291C39.8651 40.8848 40.3123 40.3673 40.3123 40.8704ZM42.0796 44.1205C42.0796 44.2941 42.5749 45.0257 43.0737 45.5891C43.4835 46.0517 43.4832 46.0691 43.0598 46.7468C42.87 47.0507 42.594 47.5565 42.4464 47.8707L42.1783 48.4422L41.4923 47.6716C40.6628 46.7402 40.1628 45.8681 40.4105 45.7852C40.5047 45.7536 40.8328 45.3315 41.1395 44.8471C41.6428 44.0525 42.0796 43.7149 42.0796 44.1205ZM45.61 48.8089C45.6122 48.9874 45.553 49.1716 45.4782 49.2179C45.4034 49.2645 45.2987 49.5018 45.2455 49.7451C45.1923 49.9887 45.0879 50.1879 45.0134 50.1879C44.9387 50.1879 44.8778 50.2839 44.8778 50.4013C44.8778 50.7954 44.6261 50.7766 44.1243 50.3449C43.8502 50.1092 43.432 49.7485 43.1949 49.5435L42.7637 49.1705L43.3053 48.0828C43.6031 47.4845 43.8469 46.913 43.8469 46.8129C43.8469 46.7126 44.2426 47.0477 44.7264 47.5575C45.2426 48.1016 45.6075 48.6185 45.61 48.8089ZM69.8169 49.0045C69.9826 49.1571 68.1573 50.9577 66.7477 52.0324C66.3427 52.3413 65.9782 52.6378 65.9377 52.6914C65.8187 52.849 63.5876 53.9471 63.5244 53.8791C63.4927 53.8449 63.6228 53.4838 63.8133 53.0764C64.0041 52.6691 64.1624 52.2601 64.1652 52.1675C64.1681 52.0751 64.2694 51.8084 64.3905 51.575C64.5114 51.3417 64.613 51.0507 64.6161 50.9285C64.628 50.4529 65.2534 50.0525 67.6314 48.9977C68.2567 48.7204 69.5123 48.7242 69.8169 49.0045ZM47.1393 49.7767C48.0503 50.4896 48.1562 50.9014 47.5908 51.5328C47.4756 51.6613 47.3814 51.8801 47.3814 52.0188C47.3814 52.3806 46.9737 52.4869 46.6648 52.2056C46.5197 52.0736 46.3232 51.9654 46.2284 51.9654C46.1336 51.9654 46.0559 51.909 46.0559 51.84C46.0559 51.771 45.9227 51.6542 45.7598 51.5808L45.4638 51.447L45.7598 50.8921C45.9227 50.5868 46.0559 50.236 46.0559 50.1123C46.0559 49.3215 46.4153 49.2102 47.1393 49.7767ZM49.1487 51.1922C49.1487 51.2558 49.645 51.5391 50.2514 51.8218C51.4729 52.3912 51.4451 52.3556 51.1377 52.9484C51.0168 53.1817 50.9174 53.5155 50.9168 53.6901C50.9164 53.8648 50.8165 54.0459 50.695 54.0929C50.5735 54.1397 50.4741 54.1188 50.4741 54.0464C50.4741 53.9739 50.2588 53.8676 49.9955 53.81C49.7322 53.7523 49.3861 53.6137 49.2263 53.5018C49.0666 53.3902 48.8261 53.2986 48.6921 53.2986C48.1801 53.2986 48.0802 52.9207 48.4035 52.207C48.5703 51.8386 48.7068 51.4337 48.7068 51.307C48.7068 51.1804 48.8063 51.0767 48.9278 51.0767C49.0493 51.0767 49.1487 51.1287 49.1487 51.1922ZM63.3406 51.4741C63.2859 51.6927 63.1525 52.0428 63.0441 52.2518C62.9356 52.4609 62.8465 52.7448 62.8459 52.8825C62.8455 53.0203 62.7863 53.1696 62.7144 53.2142C62.6427 53.2588 62.5422 53.5186 62.4913 53.7916C62.3827 54.3739 62.0969 54.5463 60.8568 54.7781C60.3708 54.8689 59.7953 54.98 59.5779 55.0251C59.1726 55.1091 59.1217 54.7094 59.4788 54.2465C59.548 54.1569 59.646 53.7805 59.6963 53.4102C59.7954 52.683 59.8465 52.6381 61.1514 52.1328C61.5564 51.9761 62.186 51.6812 62.5505 51.4775C63.4061 50.9995 63.459 50.9992 63.3406 51.4741ZM53.4932 53.0061C53.5742 53.0674 54.0481 53.164 54.5464 53.2208L55.4521 53.3242L55.1354 54.2101C54.8269 55.0726 54.8072 55.0931 54.3768 54.9957C54.1338 54.9406 53.5012 54.8153 52.9708 54.717C51.6545 54.473 51.6077 54.4334 51.8745 53.791C51.9953 53.5004 52.0941 53.1364 52.0941 52.9825C52.0941 52.696 53.1059 52.7131 53.4932 53.0061ZM58.8687 53.0468C58.8687 53.1527 58.8006 53.3078 58.7174 53.3915C58.6343 53.475 58.5257 53.8883 58.476 54.3099L58.3857 55.0762H57.0628C55.9684 55.0762 55.7684 55.0417 55.9049 54.876C55.9958 54.766 56.1117 54.3709 56.1625 53.9982L56.2549 53.3204L57.3429 53.2179C57.9414 53.1614 58.4672 53.0566 58.5112 52.9847C58.6326 52.7874 58.8687 52.8284 58.8687 53.0468ZM56.8727 63.7788C56.7565 64.0029 56.661 64.3362 56.6604 64.5194C56.66 64.7027 56.607 64.8527 56.5426 64.8527C56.4783 64.8527 56.3116 65.2251 56.1722 65.6803C56.0329 66.1354 55.7904 66.7917 55.6331 67.139C54.9808 68.5792 55.3861 70.2575 56.0649 68.9263C56.1895 68.6819 56.3297 68.4486 56.3767 68.4078C56.4235 68.3671 56.6151 67.8338 56.8024 67.2228C56.9897 66.6118 57.233 65.9018 57.3431 65.6451C57.4531 65.3884 57.5432 65.0423 57.5432 64.8761C57.5432 64.7099 57.602 64.5374 57.6738 64.4928C57.7456 64.4482 57.8497 64.1685 57.905 63.8715L58.0058 63.3314L58.9006 63.4255C59.3928 63.4772 60.0177 63.5196 60.2894 63.5196C60.8621 63.5196 60.8889 63.649 60.4887 64.4824C60.3321 64.8083 60.2019 65.1592 60.1991 65.2622C60.1963 65.3651 60.1302 65.5651 60.052 65.7065C59.7159 66.3149 59.3105 67.3776 59.3105 67.6503C59.3105 67.813 59.2519 67.9824 59.1801 68.027C58.9429 68.1745 58.8239 69.4735 59.0357 69.6052C59.3709 69.8134 60.1941 68.6062 60.1941 67.9063C60.1941 67.7844 60.2546 67.647 60.3286 67.6011C60.4025 67.5551 60.5087 67.2458 60.5645 66.9137C60.6202 66.5816 60.7582 66.132 60.871 65.9145C60.9836 65.6972 61.0763 65.4066 61.0769 65.2688C61.0773 65.1311 61.1389 64.9803 61.2137 64.9339C61.2885 64.8874 61.3932 64.6501 61.4464 64.4067C61.5704 63.8386 61.8774 63.8327 63.4557 64.3686C64.8467 64.8409 64.8922 64.908 64.4575 65.8464C64.2765 66.2369 64.0456 66.7562 63.9441 67.0006C63.5248 68.0109 63.4291 68.231 62.978 69.2226C62.0288 71.3091 61.8732 72.6026 62.6051 72.3201C62.8543 72.224 63.7287 70.5314 63.7287 70.1454C63.7287 70.014 63.7898 69.8685 63.8646 69.8222C63.9394 69.7757 64.0472 69.5239 64.1042 69.2627C64.1612 69.0015 64.2634 68.6857 64.3313 68.5609C64.566 68.1288 65.0541 66.9423 65.0541 66.8035C65.0541 66.7269 65.1531 66.4733 65.2741 66.2398C65.395 66.0065 65.4945 65.6988 65.495 65.5563C65.4964 65.1919 66.6586 65.6311 68.1557 66.5617C68.2234 66.6038 68.0392 67.1197 67.7461 67.7082C67.453 68.2967 67.1628 68.9115 67.1009 69.0744C66.99 69.367 66.8208 69.7706 66.2628 71.0742C65.519 72.8117 65.4336 73.1487 65.6757 73.3923C65.9934 73.7118 67.2632 71.8624 67.2632 71.0803C67.2632 70.9933 67.3274 70.8062 67.4059 70.6647C67.4842 70.5233 67.7991 69.8028 68.1054 69.0636C68.4116 68.3244 68.7652 67.5647 68.8912 67.3752L69.1202 67.0308L69.7601 67.4971C70.112 67.7536 70.453 67.9635 70.5178 67.9635C71.1477 67.9635 71.4505 68.756 71.1057 69.5025C70.9512 69.8374 70.7144 70.378 70.5795 70.7039C70.4446 71.0297 70.2458 71.4964 70.1377 71.7408C70.0297 71.9852 69.8268 72.4851 69.6867 72.8517C69.5468 73.2184 69.3518 73.7183 69.2536 73.9627C68.3869 76.1187 68.8885 77.3878 69.8075 75.3637C70.0297 74.8743 70.3481 74.0588 70.5151 73.5517C70.6821 73.0444 70.8761 72.4962 70.946 72.3333C71.5029 71.0367 71.6814 70.5646 71.6814 70.3888C71.6814 70.2769 71.7423 70.1854 71.817 70.1854C71.8915 70.1854 71.9962 69.9854 72.0496 69.741C72.1777 69.1541 72.28 69.174 73.3494 69.9933C74.5264 70.8951 74.6554 71.1844 74.1949 71.8889C74.1416 71.9704 73.945 72.437 73.7581 72.9258C73.2796 74.1765 73.0164 74.8079 72.8411 75.1269C72.3151 76.0838 72.0282 77.5236 72.3398 77.6439C72.5889 77.7399 73.0068 77.3759 73.0068 77.0629C73.0068 76.9465 73.0731 76.8512 73.1541 76.8512C73.2351 76.8512 73.3036 76.768 73.3064 76.6661C73.3092 76.5643 73.4394 76.2143 73.5959 75.8884C73.7525 75.5625 73.8827 75.1925 73.8855 75.0663C73.8883 74.9399 73.9473 74.7733 74.0167 74.696C74.086 74.6185 74.3619 73.872 74.6296 73.0369C75.18 71.3202 75.1312 71.3657 75.7813 71.963C76.0473 72.2074 76.2901 72.4073 76.3209 72.4073C76.3517 72.4073 76.6764 72.7045 77.0427 73.0677C77.7522 73.7712 77.7628 73.8593 77.2736 74.9996C75.57 78.9711 74.8579 81.4433 75.4178 81.4433C75.5887 81.4433 76.2925 80.1855 76.7028 79.1472C76.7671 78.9843 76.9559 78.538 77.1224 78.1555C77.2888 77.7731 77.425 77.323 77.425 77.1556C77.425 76.9883 77.4839 76.8512 77.5559 76.8512C77.6278 76.8512 77.7297 76.6208 77.7823 76.339C77.8349 76.0573 77.9743 75.6407 78.0923 75.4132C78.2103 75.1858 78.3072 74.8829 78.3078 74.7404C78.3094 74.2763 78.6244 74.4622 79.8029 75.6225C80.7179 76.5234 80.9154 76.7902 80.74 76.889C80.6177 76.9577 80.5177 77.1053 80.5177 77.2165C80.5177 77.3279 80.4681 77.4412 80.4073 77.4685C80.1872 77.5669 78.3086 81.5493 78.3086 81.9174C78.3086 82.0315 78.243 82.1907 78.1627 82.2715C77.8963 82.5394 77.4777 84.8331 77.6248 85.2186C77.7651 85.5863 78.1472 85.2985 78.25 84.748C78.303 84.4632 78.4986 83.9424 78.6846 83.5907C78.8705 83.239 78.9798 82.9084 78.9276 82.8558C78.8753 82.8032 78.8988 82.7139 78.9798 82.6573C79.0606 82.6006 79.2499 82.2543 79.4004 81.8876C79.5509 81.521 79.7646 81.011 79.875 80.7543C79.9855 80.4976 80.0759 80.2142 80.0759 80.1248C80.0759 80.0351 80.1422 79.962 80.2232 79.962C80.3042 79.962 80.3721 79.8787 80.3741 79.7768C80.3762 79.675 80.6311 79.0798 80.9405 78.4544L81.5033 77.3173L82.6499 78.4774C83.7479 79.5882 84.0966 80.4064 83.472 80.4064C83.3991 80.4064 83.2956 80.6063 83.2423 80.8507C83.1889 81.0952 83.0895 81.2951 83.0214 81.2951C82.9532 81.2951 82.851 81.508 82.7943 81.7681C82.7374 82.0284 82.5996 82.3331 82.4879 82.4454C82.3763 82.5576 82.285 82.8032 82.285 82.9911C82.285 83.1789 82.1856 83.4156 82.0641 83.5171C81.9426 83.6185 81.8432 83.7942 81.8432 83.9075C81.8432 84.0209 81.7793 84.2294 81.7011 84.3709C81.4077 84.9019 80.9595 86.0268 80.9595 86.2324C80.9595 86.3498 80.8606 86.6367 80.7395 86.8701C80.6186 87.1034 80.5192 87.44 80.5186 87.618C80.5182 87.7961 80.45 88.1208 80.3674 88.3397C80.1796 88.8364 80.4332 89.2528 80.7582 88.9816C80.869 88.8892 80.9595 88.7216 80.9595 88.6095C80.9595 88.4972 81.0258 88.4054 81.1068 88.4054C81.1878 88.4054 81.2541 88.3294 81.2541 88.2365C81.2541 88.1435 81.3794 87.7936 81.5326 87.4588C81.6857 87.1239 81.9267 86.55 82.0681 86.1834C82.2093 85.8168 82.4155 85.3068 82.5259 85.0501C82.6364 84.7934 82.7268 84.5091 82.7268 84.4184C82.7268 84.3278 82.7904 84.1379 82.8683 83.9964C83.2049 83.3849 83.8203 81.9522 83.7903 81.8503C83.7723 81.7891 83.9405 81.4433 84.1642 81.0817L84.5709 80.4244L85.6371 81.4593C86.2234 82.0284 86.7032 82.5196 86.7032 82.5508C86.7032 82.6077 86.1633 83.8175 85.3628 85.5543C85.1279 86.0637 84.9359 86.5478 84.9359 86.6302C84.9359 86.7125 84.872 86.8958 84.7938 87.0372C84.5081 87.5545 84.0523 88.6908 84.0523 88.886C84.0523 88.9964 83.9954 89.1502 83.9261 89.2275C83.8149 89.3515 83.4916 90.3527 82.982 92.1517C82.62 93.4296 83.5882 93.2439 83.9792 91.9605C84.0412 91.7568 84.1367 91.5568 84.1914 91.5161C84.2461 91.4753 84.44 90.9754 84.6223 90.4051C84.8048 89.8348 85.0073 89.2349 85.0726 89.0719C85.5827 87.7968 85.8195 87.1032 85.8195 86.8842C85.8195 86.7432 85.8786 86.6278 85.9509 86.6278C86.0231 86.6278 86.1248 86.4446 86.1768 86.2204C86.229 85.9963 86.3637 85.6131 86.4764 85.3687C86.8516 84.5549 87.145 83.8437 87.145 83.7477C87.145 83.2546 87.5482 83.3063 88.1168 83.872C88.4529 84.2063 88.9682 84.6909 89.2619 84.9488C89.7716 85.3961 89.9522 85.9206 89.6592 86.1027C89.5326 86.1815 88.6703 87.8995 88.2432 88.9238C88.1413 89.1682 87.9581 89.6015 87.836 89.8867C87.7139 90.1718 87.5001 90.7051 87.3609 91.0717C87.2217 91.4383 87.02 91.9383 86.9124 92.1827C86.7226 92.614 86.1051 94.3785 85.6164 95.8859C85.0628 97.5933 85.5907 98.0347 86.325 96.4784C86.7833 95.507 87.145 94.636 87.145 94.5037C87.145 94.4271 87.244 94.1735 87.365 93.9401C87.4859 93.7068 87.5853 93.3658 87.5859 93.1825C87.5864 92.9993 87.6501 92.8493 87.7275 92.8493C87.8048 92.8493 87.9127 92.5994 87.9675 92.2938C88.0223 91.9883 88.1111 91.6716 88.165 91.5901C88.2188 91.5087 88.4159 91.0421 88.6028 90.5532C89.0983 89.2583 89.314 88.7653 89.9729 87.4219L90.5642 86.2161L91.1004 86.7553C91.3954 87.0518 91.9484 87.5761 92.3293 87.9204C92.9347 88.4677 92.9949 88.5736 92.8079 88.7616C92.6902 88.88 92.5941 89.0241 92.5941 89.0822C92.5941 89.2238 91.9555 90.5337 91.8409 90.6273C91.791 90.668 91.6991 90.868 91.6368 91.0717C91.5745 91.2754 91.4791 91.4753 91.4249 91.5161C91.3147 91.5989 90.8057 92.5434 90.2675 93.664C90.0717 94.0713 89.6211 95.0045 89.2662 95.7378C88.042 98.2661 87.6933 99.9595 88.3968 99.9595C88.5993 99.9595 88.765 99.8897 88.765 99.8045C88.765 99.7192 88.9969 99.1511 89.2804 98.5422C89.5639 97.9331 89.7959 97.3687 89.7959 97.2878C89.7959 97.2071 89.8589 97.0252 89.9361 96.8837C90.0131 96.7422 90.1851 96.3599 90.3181 96.034C90.4513 95.7082 91.2639 94.0242 92.1241 92.292L93.688 89.1423L94.7242 90.1586C95.2942 90.7175 95.8678 91.2677 95.9989 91.381C96.2227 91.5744 96.1375 92.1142 95.837 92.405C95.5073 92.7242 92.4439 98.9795 92.4458 99.3299C92.4464 99.4318 92.3835 99.5151 92.3061 99.5151C92.2288 99.5151 92.1209 99.7651 92.0661 100.071C92.0113 100.376 91.9016 100.709 91.8221 100.809C91.529 101.181 91.6047 102.552 91.9184 102.552C92.2723 102.552 93.2976 100.59 94.0092 98.5522C94.1513 98.1449 94.355 97.6801 94.4618 97.5193C94.5686 97.3588 94.6559 97.1087 94.6559 96.9639C94.6559 96.8191 94.7222 96.7006 94.8032 96.7006C94.8842 96.7006 94.9516 96.6174 94.9529 96.5155C94.9543 96.4137 95.1478 95.9637 95.383 95.5156C95.6182 95.0675 95.965 94.4009 96.1535 94.0343C96.3422 93.6677 96.5373 93.3344 96.5872 93.2936C96.6371 93.2529 96.7245 93.0695 96.7815 92.8863C96.9408 92.3724 97.1005 92.461 98.4274 93.7986C99.8427 95.2254 99.8349 95.1995 99.1477 96.1717C98.8642 96.5728 98.6322 96.9836 98.6322 97.0847C98.6322 97.1858 98.5791 97.2906 98.514 97.3179C98.3574 97.3832 97.3068 99.1403 97.3068 99.3369C97.3068 99.4213 97.2524 99.5126 97.186 99.5398C97.1198 99.5669 96.8651 99.9891 96.6204 100.478C96.3756 100.967 95.9727 101.767 95.7251 102.255C94.411 104.85 93.8194 106.929 94.3982 106.918C94.7462 106.912 96.865 103.043 96.865 102.414C96.865 102.286 96.9313 102.181 97.0123 102.181C97.0933 102.181 97.1595 102.104 97.1595 102.01C97.1595 101.784 98.232 99.6035 98.3745 99.5398C98.4353 99.5126 98.485 99.4111 98.485 99.3142C98.485 99.2173 98.7169 98.7838 99.0004 98.3508C99.2839 97.9178 99.5159 97.5027 99.5159 97.4284C99.5159 97.354 99.5749 97.2931 99.6472 97.2931C99.7194 97.2931 99.8194 97.1431 99.8693 96.9599C99.9193 96.7766 100.09 96.4724 100.248 96.2838L100.536 95.9409L101.788 97.2466C102.923 98.4287 103.251 98.9562 102.94 99.0954C102.772 99.1704 102.167 100.074 102.167 100.25C102.167 100.335 102.115 100.404 102.052 100.404C101.989 100.404 101.857 100.587 101.76 100.811C101.663 101.035 101.453 101.419 101.294 101.663C101.135 101.907 100.852 102.407 100.665 102.774C100.479 103.141 100.293 103.474 100.252 103.515C100.076 103.692 98.6322 106.655 98.6322 106.84C98.6322 106.953 98.5627 107.068 98.4779 107.097C98.1925 107.192 98.1102 108.847 98.3907 108.847C98.5236 108.847 98.6322 108.797 98.6322 108.735C98.6322 108.673 98.7819 108.456 98.9648 108.253C99.1477 108.05 99.3792 107.718 99.4792 107.514C99.5792 107.31 99.7163 107.044 99.7838 106.922C100.202 106.165 100.597 105.412 100.949 104.7C101.171 104.252 101.398 103.851 101.454 103.809C101.509 103.768 101.6 103.551 101.656 103.328C101.711 103.105 101.8 102.922 101.853 102.922C101.907 102.922 102.112 102.572 102.311 102.144C102.51 101.717 102.711 101.333 102.758 101.293C102.805 101.252 103.064 100.852 103.333 100.404C103.602 99.9558 103.844 99.5643 103.872 99.5338C103.899 99.5034 104.421 99.9813 105.032 100.596C106.283 101.854 106.359 102.105 105.798 103.116C105.608 103.458 105.408 103.981 105.352 104.278C105.297 104.576 105.154 104.857 105.035 104.903C104.915 104.949 104.818 105.089 104.818 105.213C104.818 105.338 104.767 105.44 104.705 105.44C104.643 105.44 104.437 105.769 104.248 106.171C104.058 106.573 103.81 106.938 103.698 106.981C103.585 107.025 103.492 107.162 103.492 107.287C103.492 107.412 103.441 107.514 103.379 107.514C103.316 107.514 103.107 107.806 102.913 108.162C102.406 109.097 100.377 109.228 93.0359 108.803C88.3014 108.529 68.647 108.713 57.3223 109.138C53.1512 109.294 44.5834 109.482 30.0769 109.735C25.7029 109.812 20.9812 109.943 19.5843 110.027C13.2964 110.406 9.60202 110.09 8.40602 109.069C8.31044 108.988 8.0156 108.755 7.75051 108.551C6.65613 107.71 5.89929 106.625 6.40679 106.625C6.46983 106.625 6.72196 106.442 6.96731 106.218C7.21267 105.994 7.65375 105.627 7.94756 105.403C8.396 105.061 9.31012 104.179 10.0827 103.342C10.1829 103.233 10.7004 102.704 11.2326 102.165C11.7649 101.627 12.3112 101.027 12.4469 100.832C12.5824 100.637 13.026 100.137 13.4324 99.7201C13.8389 99.3033 14.5691 98.5195 15.0551 97.9782C15.5411 97.4371 16.2038 96.7082 16.5278 96.3584C16.8518 96.0086 17.44 95.3593 17.835 94.9154C21.374 90.9378 24.1823 87.9672 29.3139 82.773C31.3243 80.7382 32.9945 79.0732 33.0256 79.0732C33.0565 79.0732 33.4045 78.7565 33.7987 78.3696C35.028 77.1631 36.0084 76.2587 36.0874 76.2587C36.1824 76.2587 35.855 77.1949 35.7248 77.2956C35.479 77.4858 35.5374 78.1844 35.7991 78.1844C36.0648 78.1844 36.7778 77.3067 36.7778 76.9795C36.7778 76.8372 36.8389 76.6825 36.9137 76.6362C36.9885 76.5896 37.0959 76.3357 37.1524 76.0719C37.3196 75.2906 38.0062 74.1849 38.3241 74.1849C38.3646 74.1849 38.5185 74.0682 38.6662 73.9257C39.4801 73.1397 39.8705 72.8603 39.8705 73.064C39.8705 73.1821 39.8094 73.3167 39.7346 73.3631C39.6598 73.4096 39.5542 73.6513 39.4998 73.9003C39.4455 74.1493 39.3082 74.5318 39.1948 74.7503C38.9165 75.287 38.924 76.2027 39.2078 76.3123C39.3424 76.3642 39.4287 76.3125 39.4287 76.1801C39.4287 76.0604 39.4902 75.9625 39.5656 75.9625C39.7606 75.9625 40.7541 73.8061 40.7541 73.3828C40.7541 73.2514 40.8172 73.0282 40.8943 72.8867C40.9714 72.7452 41.1471 72.3745 41.2846 72.0625C41.4223 71.7507 41.7647 71.3174 42.0456 71.0997C42.3264 70.882 42.7238 70.5538 42.9285 70.3706C43.3884 69.9588 43.548 69.9473 43.4477 70.3335C43.4053 70.4965 43.3121 70.6298 43.2405 70.6298C43.1691 70.6298 43.1083 70.7132 43.1055 70.815C43.1027 70.9169 42.9725 71.2667 42.8159 71.5926C42.6594 71.9185 42.5292 72.2979 42.5264 72.4356C42.5236 72.5734 42.459 72.7249 42.3827 72.7723C42.3064 72.8199 42.1984 73.1738 42.1429 73.5588C42.0874 73.9439 41.9887 74.3625 41.9238 74.4892C41.7728 74.7834 41.9874 75.1409 42.2532 75.0383C42.3652 74.9952 42.5872 74.7022 42.7467 74.3873C42.9064 74.0723 43.0813 73.7805 43.1357 73.739C43.19 73.6974 43.28 73.4808 43.3357 73.2576C43.3913 73.0344 43.4887 72.8517 43.5519 72.8517C43.6151 72.8517 43.7133 72.6018 43.77 72.2962C43.8268 71.9908 43.9201 71.6741 43.9772 71.5926C44.0343 71.5112 44.2352 71.0446 44.4234 70.5557C45.187 68.5729 45.0726 68.7093 47.1259 67.3324C49.0572 66.0373 49.3002 65.9215 49.0167 66.4308C48.9331 66.5813 48.7236 67.0376 48.5516 67.445C48.3795 67.8524 48.0459 68.5909 47.8101 69.0861C47.5743 69.5813 47.3814 70.0545 47.3814 70.1373C47.3814 70.2202 47.278 70.4963 47.1518 70.751C47.0218 71.0133 46.9419 71.4781 46.9677 71.824L47.0132 72.4342L47.3966 72.0874C47.7955 71.7267 48.7068 69.9663 48.7068 69.5564C48.7068 69.4271 48.7565 69.2991 48.8173 69.2719C48.8781 69.2448 49.0837 68.8226 49.2744 68.3338C49.4652 67.8449 49.7136 67.2349 49.8267 66.9782C49.9398 66.7215 50.0323 66.4484 50.0323 66.3715C50.0323 65.9443 50.5354 65.3204 51.0971 65.0509C52.3764 64.4372 52.7517 64.2798 52.8054 64.3338C52.8638 64.3923 52.2278 65.763 52.0837 65.8896C51.5009 66.4016 50.0846 70.1533 50.3669 70.4374C50.7339 70.8064 51.3377 69.9005 52.4602 67.2969C52.6007 66.971 52.9735 66.1635 53.2887 65.5026C53.6037 64.8416 53.8614 64.2375 53.8614 64.1604C53.8614 63.9891 55.3343 63.5462 56.1441 63.4738C56.4681 63.4449 56.8121 63.4101 56.9086 63.3963C57.0335 63.3785 57.0232 63.4886 56.8727 63.7788ZM107.961 103.404C108.541 103.996 109.2 104.63 109.425 104.815C109.719 105.056 109.8 105.216 109.71 105.377C109.538 105.686 107.47 107.218 107.225 107.218C107.116 107.218 107.027 107.284 107.027 107.366C107.027 107.447 106.944 107.515 106.843 107.515C106.742 107.516 106.481 107.609 106.263 107.723C106.046 107.837 105.649 107.978 105.38 108.037C105.111 108.096 104.858 108.194 104.818 108.255C104.777 108.317 104.46 108.414 104.112 108.473L103.48 108.579L103.85 108.178C104.053 107.958 104.263 107.635 104.317 107.461C104.371 107.286 104.605 106.901 104.837 106.604C105.07 106.307 105.26 105.99 105.26 105.9C105.26 105.81 105.326 105.737 105.407 105.737C105.488 105.737 105.554 105.626 105.554 105.492C105.554 105.357 105.759 104.81 106.01 104.276C106.261 103.742 106.501 103.086 106.545 102.817C106.654 102.139 106.767 102.186 107.961 103.404Z" fill="#82879E"/>
</svg>
