<svg width="34" height="34" viewBox="0 0 34 34" fill="none" xmlns="http://www.w3.org/2000/svg">
<path fill-rule="evenodd" clip-rule="evenodd" d="M8.5 2.8335H25.5C27.8472 2.8335 29.75 4.73628 29.75 7.0835V26.9168C29.75 29.264 27.8472 31.1668 25.5 31.1668H8.5C6.15279 31.1668 4.25 29.264 4.25 26.9168V7.0835C4.25 4.73629 6.15279 2.8335 8.5 2.8335ZM8.5 5.66683C7.7176 5.66683 7.08333 6.30109 7.08333 7.0835V26.9168C7.08333 27.6992 7.7176 28.3335 8.5 28.3335H25.5C26.2824 28.3335 26.9167 27.6992 26.9167 26.9168V7.0835C26.9167 6.30109 26.2824 5.66683 25.5 5.66683H8.5ZM8.5 9.91683C8.5 8.35202 9.76853 7.0835 11.3333 7.0835H22.6667C24.2315 7.0835 25.5 8.35202 25.5 9.91683V12.7502C25.5 14.315 24.2315 15.5835 22.6667 15.5835H11.3333C9.76853 15.5835 8.5 14.315 8.5 12.7502V9.91683ZM14.1667 9.91683H11.3333V12.7502H14.1667H19.8333H22.6667V9.91683H19.8333H14.1667ZM10.625 17.0002C9.4514 17.0002 8.5 17.9516 8.5 19.1252C8.5 20.2988 9.4514 21.2502 10.625 21.2502C11.7986 21.2502 12.75 20.2988 12.75 19.1252C12.75 17.9516 11.7986 17.0002 10.625 17.0002ZM14.875 19.1252C14.875 17.9516 15.8264 17.0002 17 17.0002C18.1736 17.0002 19.125 17.9516 19.125 19.1252C19.125 20.2988 18.1736 21.2502 17 21.2502C15.8264 21.2502 14.875 20.2988 14.875 19.1252ZM23.375 17.0002C22.2014 17.0002 21.25 17.9516 21.25 19.1252V24.7918C21.25 25.9654 22.2014 26.9168 23.375 26.9168C24.5486 26.9168 25.5 25.9654 25.5 24.7918V19.1252C25.5 17.9516 24.5486 17.0002 23.375 17.0002ZM8.5 24.7918C8.5 23.6182 9.4514 22.6668 10.625 22.6668C11.7986 22.6668 12.75 23.6182 12.75 24.7918C12.75 25.9654 11.7986 26.9168 10.625 26.9168C9.4514 26.9168 8.5 25.9654 8.5 24.7918ZM17 22.6668C15.8264 22.6668 14.875 23.6182 14.875 24.7918C14.875 25.9654 15.8264 26.9168 17 26.9168C18.1736 26.9168 19.125 25.9654 19.125 24.7918C19.125 23.6182 18.1736 22.6668 17 22.6668Z" fill="#3E5BF1"/>
</svg>
