<svg width="20" height="20" viewBox="0 0 20 20" fill="none" xmlns="http://www.w3.org/2000/svg">
<rect width="20" height="20" rx="10" fill="#1E1F23"/>
<path fill-rule="evenodd" clip-rule="evenodd" d="M11.6301 4.18777C11.8441 4.3779 11.8868 4.66265 11.7355 4.89141C11.7253 4.90692 11.715 4.92233 11.7049 4.93766C11.4971 5.25102 11.3131 5.52835 11.3194 5.87535C11.3252 6.19928 11.6029 6.78851 12.5241 7.44144C13.771 8.32518 14.3874 9.41465 14.6921 10.2683C14.8448 10.6961 14.9215 11.0704 14.9602 11.3405C14.9795 11.4758 14.9895 11.5858 14.9946 11.6643C14.9972 11.7035 14.9985 11.735 14.9992 11.7578C14.9996 11.7692 14.9998 11.7785 14.9999 11.7856L15 11.7945L15 11.7977L15 11.799C15 11.799 15 11.8 14.2857 11.8H15C15 14.1196 12.7614 16 10 16C7.23858 16 5 14.1196 5 11.8C5 10.6425 5.19344 9.63231 5.46808 8.88238C5.60459 8.50963 5.76812 8.182 5.95307 7.92786C6.04542 7.80096 6.15407 7.67715 6.2821 7.57355C6.40505 7.47406 6.58676 7.36012 6.82733 7.31465C7.02365 7.27755 7.22949 7.31172 7.39425 7.40877C7.559 7.50582 7.66737 7.65675 7.69272 7.82443C7.71563 7.97594 7.79056 8.19781 7.90983 8.43206C7.90387 8.03411 7.93888 7.61163 8.03572 7.1871C8.30551 6.0044 9.07079 4.76385 10.7996 4.06008C11.08 3.94596 11.416 3.99763 11.6301 4.18777ZM13.5714 11.8016C13.5704 13.4577 11.9718 14.8 10 14.8C8.02755 14.8 6.42857 13.4569 6.42857 11.8C6.42857 10.7749 6.59645 9.90403 6.81589 9.28415C6.87215 9.37075 6.93197 9.45568 6.99501 9.53776C7.35397 10.0052 7.98984 10.6 8.88889 10.6C9.11395 10.6 9.32584 10.5109 9.46071 10.3596C9.59558 10.2082 9.63765 10.0123 9.57424 9.83096C9.38884 9.30062 9.22523 8.34908 9.43877 7.41293C9.52987 7.01353 9.68664 6.62511 9.93523 6.27286C10.0799 6.94107 10.5866 7.63829 11.6029 8.35859C12.5782 9.04985 13.0729 9.91037 13.3238 10.613C13.4488 10.9633 13.511 11.2687 13.5418 11.4837C13.5572 11.591 13.5646 11.675 13.5682 11.7298C13.5699 11.7572 13.5708 11.7772 13.5711 11.7892L13.5714 11.8016Z" fill="url(#paint0_linear_3407_24633)"/>
<path d="M13.5714 11.8016C13.5704 13.4577 11.9718 14.8 10 14.8C8.02755 14.8 6.42857 13.4569 6.42857 11.8C6.42857 10.7749 6.59645 9.90403 6.81589 9.28415C6.87215 9.37075 6.93197 9.45568 6.99501 9.53776C7.35397 10.0052 7.98984 10.6 8.88889 10.6C9.11395 10.6 9.32584 10.5109 9.46071 10.3596C9.59558 10.2082 9.63765 10.0123 9.57424 9.83096C9.38884 9.30062 9.22523 8.34908 9.43877 7.41293C9.52987 7.01353 9.68664 6.62511 9.93523 6.27286C10.0799 6.94107 10.5866 7.63829 11.6029 8.35859C12.5782 9.04985 13.0729 9.91037 13.3238 10.613C13.4488 10.9633 13.511 11.2687 13.5418 11.4837C13.5572 11.591 13.5646 11.675 13.5682 11.7298C13.5699 11.7572 13.5708 11.7772 13.5711 11.7892L13.5714 11.8016Z" fill="url(#paint1_linear_3407_24633)"/>
<defs>
<linearGradient id="paint0_linear_3407_24633" x1="10" y1="4" x2="10" y2="16" gradientUnits="userSpaceOnUse">
<stop stop-color="#F8D003"/>
<stop offset="1" stop-color="#F83E03"/>
</linearGradient>
<linearGradient id="paint1_linear_3407_24633" x1="10" y1="4" x2="10" y2="16" gradientUnits="userSpaceOnUse">
<stop stop-color="#F8D003"/>
<stop offset="1" stop-color="#F83E03"/>
</linearGradient>
</defs>
</svg>
