<svg width="34" height="34" viewBox="0 0 34 34" fill="none" xmlns="http://www.w3.org/2000/svg">
<path fill-rule="evenodd" clip-rule="evenodd" d="M16.9987 2.83337C9.17466 2.83337 2.83203 9.17601 2.83203 17C2.83203 24.8241 9.17466 31.1667 16.9987 31.1667C24.8227 31.1667 31.1654 24.8241 31.1654 17C31.1654 9.17601 24.8227 2.83337 16.9987 2.83337ZM5.66536 17C5.66536 10.7408 10.7395 5.66671 16.9987 5.66671C23.2579 5.66671 28.332 10.7408 28.332 17C28.332 23.2593 23.2579 28.3334 16.9987 28.3334C10.7395 28.3334 5.66536 23.2593 5.66536 17ZM11.332 13.2223C11.332 12.1791 12.1777 11.3334 13.221 11.3334C14.2642 11.3334 15.1099 12.1791 15.1099 13.2223C15.1099 14.2655 14.2642 15.1112 13.221 15.1112C12.1777 15.1112 11.332 14.2655 11.332 13.2223ZM14.3658 21.9227C13.7336 22.5549 12.7084 22.5549 12.0761 21.9227C11.4438 21.2904 11.4438 20.2653 12.0761 19.633L19.6318 12.0774C20.2641 11.4452 21.2892 11.4452 21.9215 12.0774C22.5538 12.7097 22.5538 13.7348 21.9215 14.3671L14.3658 21.9227ZM18.8875 20.7778C18.8875 19.7346 19.7332 18.8889 20.7764 18.8889C21.8197 18.8889 22.6654 19.7346 22.6654 20.7778C22.6654 21.821 21.8197 22.6667 20.7764 22.6667C19.7332 22.6667 18.8875 21.821 18.8875 20.7778Z" fill="white"/>
</svg>
