<svg width="34" height="34" viewBox="0 0 34 34" fill="none" xmlns="http://www.w3.org/2000/svg">
<path fill-rule="evenodd" clip-rule="evenodd" d="M25.5 31.1666L8.5 31.1666C6.15279 31.1666 4.25 29.2638 4.25 26.9166L4.25 7.08325C4.25 4.73604 6.15279 2.83325 8.5 2.83325L21.309 2.83325C22.5458 2.83325 23.7212 3.37198 24.5285 4.30886L26.3456 6.41743L28.6805 9.05167C29.3695 9.82906 29.75 10.8319 29.75 11.8707L29.75 26.9166C29.75 29.2638 27.8472 31.1666 25.5 31.1666ZM24.2121 8.28197L22.3822 6.15846C22.1131 5.84616 21.7213 5.66659 21.309 5.66659L8.5 5.66659C7.7176 5.66659 7.08333 6.30085 7.08333 7.08325L7.08333 26.9166C7.08334 27.699 7.7176 28.3333 8.5 28.3333L25.5 28.3333C26.2824 28.3333 26.9167 27.699 26.9167 26.9166L26.9167 11.8707C26.9167 11.5245 26.7898 11.1902 26.5602 10.931L24.2121 8.28197ZM17 9.91659C17.7824 9.91659 18.4167 10.5509 18.4167 11.3333V16.9999C18.4167 17.7823 17.7824 18.4166 17 18.4166C16.2176 18.4166 15.5833 17.7823 15.5833 16.9999V11.3333C15.5833 10.5509 16.2176 9.91659 17 9.91659ZM17 21.2499C16.2176 21.2499 15.5833 21.8842 15.5833 22.6666C15.5833 23.449 16.2176 24.0833 17 24.0833C17.7824 24.0833 18.4167 23.449 18.4167 22.6666C18.4167 21.8842 17.7824 21.2499 17 21.2499Z" fill="#3E5BF1"/>
</svg>
