<svg width="34" height="34" viewBox="0 0 34 34" fill="none" xmlns="http://www.w3.org/2000/svg">
<path fill-rule="evenodd" clip-rule="evenodd" d="M2.83203 4.24998C2.83203 3.46758 3.46629 2.83331 4.2487 2.83331H9.91537C10.6978 2.83331 11.332 3.46758 11.332 4.24998C11.332 5.03238 10.6978 5.66665 9.91537 5.66665H5.66536V9.91665C5.66536 10.699 5.0311 11.3333 4.2487 11.3333C3.46629 11.3333 2.83203 10.699 2.83203 9.91665V4.24998ZM16.9987 18.4166H16.7963C14.5609 18.4166 12.7487 20.2288 12.7487 22.4643V24.0833C12.7487 24.8657 12.1144 25.5 11.332 25.5C10.5496 25.5 9.91537 24.8657 9.91537 24.0833V22.4643C9.91537 20.0777 11.1304 17.9749 12.9756 16.7407C11.9596 15.7165 11.332 14.3065 11.332 12.75C11.332 9.62037 13.8691 7.08331 16.9987 7.08331C20.1283 7.08331 22.6654 9.62037 22.6654 12.75C22.6654 14.3065 22.0378 15.7165 21.0218 16.7407C22.867 17.9749 24.082 20.0777 24.082 22.4643V24.0833C24.082 24.8657 23.4478 25.5 22.6654 25.5C21.883 25.5 21.2487 24.8657 21.2487 24.0833V22.4643C21.2487 20.2288 19.4365 18.4166 17.2011 18.4166H16.9987ZM16.9987 15.5833C15.4339 15.5833 14.1654 14.3148 14.1654 12.75C14.1654 11.1852 15.4339 9.91665 16.9987 9.91665C18.5635 9.91665 19.832 11.1852 19.832 12.75C19.832 14.3148 18.5635 15.5833 16.9987 15.5833ZM29.7487 2.83331C30.5311 2.83331 31.1654 3.46758 31.1654 4.24998V9.91665C31.1654 10.699 30.5311 11.3333 29.7487 11.3333C28.9663 11.3333 28.332 10.699 28.332 9.91665V5.66665H24.082C23.2996 5.66665 22.6654 5.03238 22.6654 4.24998C22.6654 3.46758 23.2996 2.83331 24.082 2.83331H29.7487ZM2.83203 29.75C2.83203 30.5324 3.46629 31.1666 4.2487 31.1666H9.91537C10.6978 31.1666 11.332 30.5324 11.332 29.75C11.332 28.9676 10.6978 28.3333 9.91537 28.3333H5.66536V24.0833C5.66536 23.3009 5.0311 22.6666 4.2487 22.6666C3.46629 22.6666 2.83203 23.3009 2.83203 24.0833V29.75ZM29.7487 31.1666C30.5311 31.1666 31.1654 30.5324 31.1654 29.75V24.0833C31.1654 23.3009 30.5311 22.6666 29.7487 22.6666C28.9663 22.6666 28.332 23.3009 28.332 24.0833V28.3333H24.082C23.2996 28.3333 22.6654 28.9676 22.6654 29.75C22.6654 30.5324 23.2996 31.1666 24.082 31.1666H29.7487Z" fill="white"/>
</svg>
