<svg width="24" height="24" viewBox="0 0 24 24" fill="none" xmlns="http://www.w3.org/2000/svg">
<path fill-rule="evenodd" clip-rule="evenodd" d="M2 3C2 2.44772 2.44772 2 3 2H7C7.55228 2 8 2.44772 8 3C8 3.55228 7.55228 4 7 4H4V7C4 7.55228 3.55228 8 3 8C2.44772 8 2 7.55228 2 7V3ZM12 13H11.8571C10.2792 13 9 14.2792 9 15.8571V17C9 17.5523 8.55228 18 8 18C7.44772 18 7 17.5523 7 17V15.8571C7 14.1725 7.85766 12.6882 9.16016 11.817C8.44301 11.094 8 10.0988 8 9C8 6.79086 9.79086 5 12 5C14.2091 5 16 6.79086 16 9C16 10.0988 15.557 11.094 14.8398 11.817C16.1423 12.6882 17 14.1725 17 15.8571V17C17 17.5523 16.5523 18 16 18C15.4477 18 15 17.5523 15 17V15.8571C15 14.2792 13.7208 13 12.1429 13H12ZM12 11C10.8954 11 10 10.1046 10 9C10 7.89543 10.8954 7 12 7C13.1046 7 14 7.89543 14 9C14 10.1046 13.1046 11 12 11ZM21 2C21.5523 2 22 2.44772 22 3V7C22 7.55228 21.5523 8 21 8C20.4477 8 20 7.55228 20 7V4H17C16.4477 4 16 3.55228 16 3C16 2.44772 16.4477 2 17 2H21ZM2 21C2 21.5523 2.44772 22 3 22H7C7.55228 22 8 21.5523 8 21C8 20.4477 7.55228 20 7 20H4V17C4 16.4477 3.55228 16 3 16C2.44772 16 2 16.4477 2 17V21ZM21 22C21.5523 22 22 21.5523 22 21V17C22 16.4477 21.5523 16 21 16C20.4477 16 20 16.4477 20 17V20H17C16.4477 20 16 20.4477 16 21C16 21.5523 16.4477 22 17 22H21Z" fill="#3E5BF1"/>
</svg>
