<svg width="24" height="24" viewBox="0 0 24 24" fill="none" xmlns="http://www.w3.org/2000/svg">
<path fill-rule="evenodd" clip-rule="evenodd" d="M7 3C7 2.44772 7.44772 2 8 2C8.55228 2 9 2.44772 9 3V4H15V3C15 2.44772 15.4477 2 16 2C16.5523 2 17 2.44772 17 3V4H18C19.6569 4 21 5.34314 21 7V9V19C21 20.6569 19.6569 22 18 22H6C4.34315 22 3 20.6569 3 19V9V7C3 5.34315 4.34315 4 6 4H7V3ZM8 6H16H18C18.5523 6 19 6.44772 19 7V8H5V7C5 6.44772 5.44772 6 6 6H8ZM5 10V19C5 19.5523 5.44772 20 6 20H18C18.5523 20 19 19.5523 19 19V10L5 10ZM14.808 13.5892C15.1334 13.1429 15.0354 12.5174 14.5892 12.192C14.1429 11.8666 13.5174 11.9646 13.192 12.4108L11.0506 15.3476L10.284 14.3793C9.94124 13.9463 9.31231 13.8731 8.8793 14.216C8.44628 14.5588 8.37315 15.1877 8.71595 15.6207L10.2993 17.6207C10.4933 17.8657 10.7907 18.006 11.1031 17.9998C11.4156 17.9936 11.7072 17.8417 11.8913 17.5892L14.808 13.5892Z" fill="#3E5BF1"/>
</svg>
