<svg width="1097" height="500" viewBox="0 0 1097 500" fill="none" xmlns="http://www.w3.org/2000/svg">
<g clip-path="url(#clip0_3520_21710)">
<circle cx="802" cy="281" r="49.5" stroke="#E3E7ED"/>
<circle cx="802" cy="281" r="204.5" stroke="#E3E7ED"/>
<circle cx="802" cy="281" r="420.5" stroke="#E3E7ED"/>
<path opacity="0.2" fill-rule="evenodd" clip-rule="evenodd" d="M769.689 182.721C767.42 183.571 758.969 186.082 750.909 188.302C737.745 191.928 718.226 197.642 679.589 209.18C668.493 212.493 666.558 213.214 665.958 214.256C665.184 215.598 704.416 362.676 706.047 364.545C706.897 365.52 736.34 357.972 744.073 354.796C753.12 351.081 756.613 349.497 757.026 348.922C757.268 348.585 758.628 347.804 760.048 347.187C761.469 346.571 762.709 345.804 762.805 345.485C762.902 345.164 763.41 344.785 763.934 344.643C764.459 344.5 765.475 343.845 766.192 343.187C766.908 342.529 768.228 341.61 769.125 341.146C770.022 340.681 770.698 340.088 770.628 339.827C770.558 339.565 771.218 338.98 772.095 338.526C772.972 338.071 773.627 337.466 773.55 337.18C773.474 336.894 773.696 336.584 774.043 336.49C774.826 336.281 780.456 330.478 780.547 329.786C780.584 329.509 780.845 329.221 781.127 329.145C781.619 329.013 783.998 326.079 786.779 322.174C789.818 317.907 796.947 304.777 796.708 303.887C796.637 303.621 796.963 302.806 797.434 302.078C797.905 301.35 798.204 300.433 798.099 300.041C797.994 299.649 798.076 299.193 798.281 299.026C798.81 298.599 799.938 295.175 800.54 292.167C800.823 290.76 801.242 289.378 801.471 289.095C801.917 288.548 801.673 285.172 800.642 277.613C800.291 275.044 800.008 271.988 800.013 270.821C800.023 268.576 799.061 262.131 797.016 250.743C796.332 246.931 795.64 242.35 795.48 240.563C795.061 235.904 788.223 205.537 784.719 192.772C780.64 177.91 781.323 178.367 769.689 182.721ZM781.481 202.078C787.253 223.894 790.738 241.031 793.652 261.934C794.189 265.785 794.999 271.607 795.451 274.873C795.905 278.138 796.135 281.05 795.964 281.343C795.792 281.636 795.837 282.566 796.064 283.41C796.347 284.469 796.15 285.129 795.424 285.542C794.847 285.871 794.312 285.91 794.237 285.628C794.161 285.347 793.719 285.219 793.253 285.343C792.787 285.468 792.534 286.049 792.691 286.634C793.089 288.122 791.098 289.164 790.284 287.892C789.339 286.415 787.389 287.177 787.837 288.848C788.036 289.591 787.85 290.453 787.423 290.763C786.684 291.3 786.026 290.736 784.395 288.171C783.163 286.235 781.92 287.625 782.791 289.962C783.531 291.947 783.486 292.197 782.326 292.508C781.561 292.713 780.949 292.51 780.814 292.005C780.689 291.539 780.333 291.226 780.022 291.309C779.712 291.393 779.356 291.08 779.231 290.614C779.106 290.148 778.595 289.876 778.095 290.01C777.389 290.199 777.355 290.681 777.946 292.168C778.365 293.221 778.522 294.133 778.296 294.193C777.482 294.411 775.628 292.981 775.343 291.915C775.132 291.13 774.657 290.931 773.639 291.204C772.079 291.622 772.056 292.008 773.473 293.973C775.023 296.121 771.807 296.305 769.946 294.175C768.079 292.037 766.136 292.436 767.316 294.714C768.114 296.254 768.073 296.327 766.121 296.85C764.7 297.231 764.032 297.14 763.873 296.545C763.748 296.079 763.391 295.766 763.081 295.849C762.77 295.932 762.38 295.492 762.214 294.871C762.045 294.243 761.534 293.842 761.064 293.968C760.51 294.117 760.365 294.749 760.645 295.792C761.163 297.728 758.094 298.583 756.964 296.817C756.567 296.196 755.815 295.98 754.905 296.224C753.815 296.516 753.614 296.805 754.067 297.429C754.53 298.067 754.382 298.252 753.405 298.258C751.563 298.269 749.343 299.985 748.94 301.708C748.747 302.533 748.171 303.287 747.661 303.383C745.685 303.755 746.768 305.577 748.766 305.242C749.82 305.066 746.2 306.486 740.72 308.398C733.132 311.047 729.324 312.103 724.745 312.83C712.686 314.745 710.292 316.023 712.66 319.282C713.901 320.991 746.113 313.411 751.905 310.047C753.252 309.265 753.376 309.326 753.817 310.971C754.273 312.674 754.209 312.753 751.808 313.396C748.256 314.347 748.144 316.058 751.679 315.365C753.771 314.956 754.167 315.042 753.92 315.856C753.662 316.704 750.844 317.588 734.115 322.067L714.611 327.289L714.999 328.702C715.808 331.652 716.193 331.67 726.458 329.256C731.718 328.019 740.245 325.739 745.406 324.19C751.568 322.34 754.746 321.592 754.659 322.013C754.587 322.366 754.49 323.141 754.443 323.736C754.398 324.33 753.902 324.94 753.342 325.09C750.275 325.912 749.933 328.397 752.99 327.648L754.836 327.196L752.829 328.742C751.095 330.078 748.615 330.864 734.588 334.527C716.823 339.165 716.937 339.109 718.904 342.185C719.742 343.495 720.473 343.438 730.171 341.314C742.381 338.639 743.514 338.323 748.431 336.221C753.413 334.092 753.558 334.074 753.4 335.58C753.324 336.31 752.595 336.79 750.858 337.255C747.696 338.103 746.755 338.827 747.107 340.141C747.43 341.347 750.154 340.941 751.744 339.449C752.469 338.77 752.633 338.812 752.639 339.679C752.646 340.902 749.51 343.064 746.596 343.845C745.207 344.217 744.679 344.632 744.837 345.224C745.009 345.864 745.754 345.886 747.888 345.314C750.618 344.583 751.624 344.954 750.409 346.244C748.676 348.083 735.749 352.653 720.33 356.875L710.096 359.678L707.155 350.025C703.758 338.877 670.338 217.217 670.636 217.086C672.371 216.327 740.177 196.54 765.292 189.464L777.251 186.094L781.481 202.078ZM682.077 224.565L681.099 226.26L686.962 248.526C690.186 260.773 692.952 271.885 693.109 273.22C693.691 278.187 693.507 278.175 708.459 274.169C715.689 272.232 723.168 270.523 725.077 270.372C729.426 270.027 733.398 267.72 734.51 264.892C736.008 261.082 722.49 214.514 719.603 213.541C719.199 213.405 710.81 215.449 700.962 218.082L683.055 222.871L682.077 224.565ZM748.521 207.145C728.866 212.739 729.084 212.638 730.244 215.674L730.769 217.047L750.694 211.532C766.773 207.081 770.731 205.824 771.193 205.023C771.908 203.786 771.243 201.081 770.266 201.25C768.007 201.64 765.031 202.446 748.521 207.145ZM718.77 223.458C719.833 225.883 722.313 234.032 724.676 242.857L728.749 258.075L726.403 256.769C725.113 256.051 723.861 255.516 723.62 255.58C723.38 255.645 722.7 255.418 722.109 255.077C721.519 254.736 720.545 254.589 719.946 254.749C718.482 255.142 718.327 254.198 719.54 252.257C720.09 251.376 720.566 249.968 720.599 249.127C720.631 248.286 720.834 247.403 721.049 247.164C721.611 246.542 720.519 238.277 719.654 236.607C719.143 235.621 719.16 235.032 719.712 234.631C722.424 232.661 717.339 227.431 711.401 226.083C703.924 224.387 692.328 230.576 693.661 235.552C693.774 235.972 693.612 236.384 693.301 236.468C692.662 236.639 693.924 241.918 694.714 242.375C694.996 242.538 695.94 245.17 696.81 248.225C698.342 253.605 700.3 256.715 702.705 257.585C702.997 257.691 702.378 258.376 701.329 259.107C699.441 260.423 696.955 263.07 696.358 264.398C696.188 264.777 695.922 264.031 695.767 262.741C695.612 261.451 693.633 252.857 691.371 243.643L687.257 226.89L702.098 223.083L716.939 219.277L718.77 223.458ZM734.591 221.221C734.2 221.581 733.47 222.133 732.972 222.446C731.852 223.151 732.397 225.554 733.826 226.211C734.861 226.687 748.316 222.768 750.104 221.469C751.089 220.754 750.442 218.312 749.055 217.512C747.901 216.845 736.044 219.886 734.591 221.221ZM709.824 237.892C709.672 238.154 709.333 238.245 709.07 238.093C708.808 237.942 708.932 237.727 709.346 237.616C709.76 237.505 709.975 237.629 709.824 237.892ZM707.18 240.012C708.187 239.742 710.058 241.216 710.136 242.341C710.289 244.564 713.262 242.906 714.614 239.844C715.022 238.92 715.102 238.903 715.329 239.687C715.652 240.802 713.837 243.531 712.146 244.471C710.666 245.295 710.375 246.452 711.41 247.407C712.006 247.958 712.448 247.751 714.05 246.173C715.107 245.13 716.014 244.43 716.064 244.617C716.188 245.078 715.066 246.978 714.596 247.104C713.446 247.412 710.898 250.183 711.093 250.913C711.276 251.594 711.762 251.571 713.492 250.798L715.661 249.828L714.829 251.27C713.937 252.813 709.965 254.3 709.045 253.433C708.77 253.174 707.963 253.118 707.254 253.308C704.984 253.916 703.455 252.345 701.933 247.841L700.545 243.734L702.477 242.194C703.54 241.347 704.737 240.35 705.137 239.978C705.537 239.607 706.008 239.504 706.185 239.748C706.362 239.993 706.809 240.111 707.18 240.012ZM712.906 238.478C712.797 238.84 712.404 239.213 712.033 239.308C711.627 239.41 711.638 239.17 712.059 238.705C712.956 237.713 713.151 237.66 712.906 238.478ZM735.079 233.446C735.025 233.96 735.309 234.973 735.712 235.697L736.444 237.013L749.071 233.629C762.812 229.948 763.434 229.62 761.904 226.87L761.168 225.546L748.172 229.028C737.133 231.986 735.162 232.651 735.079 233.446ZM711.71 240.412C711.558 240.675 711.219 240.765 710.956 240.614C710.694 240.462 710.818 240.248 711.232 240.137C711.646 240.026 711.861 240.15 711.71 240.412ZM758.82 235.899C744.945 240.257 738.285 242.687 738.014 243.489C737.629 244.634 738.164 246.071 739.202 246.672C740.644 247.507 771.035 237.901 771.519 236.457C772.202 234.419 769.902 231.939 768.184 232.861C767.946 232.988 763.732 234.355 758.82 235.899ZM706.527 262.582C706.534 263.782 705.103 264.7 704.828 263.672C704.718 263.264 705.823 261.713 706.435 261.414C706.482 261.392 706.522 261.917 706.527 262.582ZM710.233 261.301C709.967 261.879 709.602 262.267 709.421 262.164C708.925 261.877 709.434 260.592 710.116 260.409C710.491 260.309 710.535 260.645 710.233 261.301ZM714.998 259.747C715.292 260.023 715.447 260.397 715.343 260.577C715.055 261.076 713.126 260.757 712.972 260.185C712.783 259.478 714.352 259.139 714.998 259.747ZM718.438 261.004C718.286 261.267 718.071 261.143 717.96 260.729C717.849 260.315 717.973 260.1 718.236 260.251C718.498 260.403 718.589 260.742 718.438 261.004ZM701.635 267.373C701.363 268.694 701.109 270.192 701.071 270.701C701.032 271.224 700.81 270.989 700.562 270.163C700.32 269.357 700.469 267.887 700.894 266.896C701.967 264.391 702.216 264.551 701.635 267.373ZM723.844 262.54C723.442 263.414 723.189 263.431 721.972 262.67C719.897 261.372 720.765 259.484 722.876 260.703C724.028 261.368 724.217 261.727 723.844 262.54ZM708.769 267.394C708.604 268.455 708.3 269.37 708.094 269.425C707.602 269.557 707.558 267.059 708.032 265.947C708.653 264.489 709.089 265.345 708.769 267.394ZM714.44 263.942C713.819 267.326 713.51 267.974 712.372 268.279C711.386 268.543 711.106 268.351 711.101 267.409C711.097 266.744 711.318 266.14 711.593 266.066C711.867 265.993 711.989 265.552 711.864 265.086C711.722 264.553 712.174 264.095 713.083 263.851C713.877 263.638 714.488 263.679 714.44 263.942ZM717.374 266.231C716.566 267.63 716.156 266.608 716.743 264.658C717.087 263.514 717.206 263.452 717.589 264.208C717.833 264.693 717.737 265.603 717.374 266.231ZM705.405 267.52C705.059 267.781 704.906 268.481 705.065 269.076C705.266 269.825 704.963 270.261 704.082 270.491C703.364 270.678 703.025 270.571 703.304 270.245C703.576 269.928 703.844 269.179 703.899 268.582C703.954 267.984 704.457 267.395 705.017 267.271C705.615 267.138 705.775 267.241 705.405 267.52ZM721.863 265.13C722.138 265.389 721.84 265.742 721.201 265.913C720.561 266.084 719.97 265.97 719.887 265.66C719.803 265.349 720.101 264.997 720.549 264.877C720.997 264.757 721.588 264.871 721.863 265.13ZM726.946 263.768C727.225 264.031 726.868 264.39 726.14 264.58C725.088 264.854 724.97 264.77 725.534 264.147C726.403 263.186 726.344 263.202 726.946 263.768ZM775.115 259.441C771.605 260.63 757.376 264.96 743.496 269.063C729.615 273.167 714.744 277.64 710.448 279.002L702.639 281.479L703.015 283.569C703.507 286.297 702.985 286.361 718.722 281.644C725.964 279.473 743.372 274.303 757.406 270.153L782.924 262.609L783.955 260.86L784.986 259.111L783.241 258.196C781.556 257.312 781.276 257.355 775.115 259.441ZM778.268 271.209C774.964 272.971 732.711 285.356 719.138 288.542C704.988 291.862 705.128 291.795 705.952 294.939C706.295 296.251 706.669 296.451 708.59 296.35C712.114 296.164 751.059 285.521 767.666 280.207C783.882 275.017 785.709 274.131 785.076 271.771C784.358 269.091 782.523 268.94 778.268 271.209ZM766.757 285.851C759.681 288.015 752.453 290.48 750.696 291.329C748.872 292.21 739.279 295.175 728.338 298.241C717.798 301.195 708.985 303.668 708.754 303.736C707.433 304.127 709.462 307.791 710.986 307.767C713.371 307.729 755.171 295.717 757.091 294.517C758.001 293.949 765.374 291.507 773.474 289.092C788.807 284.521 789.603 284.147 788.971 281.789C788.572 280.297 786.017 280.001 782.539 281.043C780.936 281.525 773.834 283.688 766.757 285.851ZM795.076 293.381C794.903 294.121 794.586 294.626 794.372 294.503C793.782 294.162 794.103 292.379 794.788 292.195C795.206 292.083 795.294 292.446 795.076 293.381ZM763.032 302.445C764.822 302.291 770.439 301.072 775.514 299.736C785.762 297.04 787.642 297.074 786.126 299.929C785.39 301.314 785.371 301.319 783.416 300.669C781.035 299.878 778.239 300.464 778.566 301.686C778.691 302.152 779.112 302.454 779.502 302.357C779.893 302.259 780.979 302.502 781.916 302.894L783.62 303.608L782.791 305.058L781.961 306.509L779.951 305.543C775.984 303.637 774.525 305.668 778.352 307.77L780.448 308.92L779.373 310.357C778.315 311.771 778.274 311.781 776.884 310.978C774.183 309.419 772.032 308.953 771.532 309.819C771.19 310.41 771.774 311 773.758 312.07L776.446 313.518L775.561 314.933C774.398 316.792 774.312 316.795 771.522 315.074C768.937 313.479 767.942 313.414 767.793 314.831C767.738 315.35 768.634 316.26 769.898 316.971C772.477 318.421 772.648 318.771 771.421 320.087C770.524 321.048 768.503 320.603 768.173 319.371C767.855 318.183 765.006 317.085 764.413 317.922C763.9 318.646 764.192 319.11 766.199 320.753C768.559 322.686 768.959 323.932 767.356 324.361C766.908 324.481 766.621 324.899 766.716 325.289C766.812 325.68 766.27 325.416 765.512 324.704C764.753 323.992 763.782 323.503 763.352 323.618C762.308 323.898 764.416 328.876 765.723 329.217C766.227 329.349 766.737 329.824 766.858 330.275C766.979 330.725 767.324 331.028 767.625 330.947C767.925 330.867 768.127 331.221 768.073 331.735C767.855 333.812 764.212 331.694 763.512 329.083C763.421 328.741 763.121 328.522 762.847 328.596C762.573 328.669 762.08 328.324 761.752 327.83C761.423 327.336 760.727 326.587 760.204 326.166C759.471 325.576 759.323 325.06 759.561 323.917C760.391 319.916 758.149 307.531 756.039 304.473C755.112 303.128 755.121 303.126 763.032 302.445ZM791.369 295.255C791.644 296.283 789.905 298.325 789.207 297.794C787.247 296.305 787.256 296.029 789.277 295.487C790.382 295.191 791.324 295.087 791.369 295.255ZM793.1 299.435C792.331 300.881 792.255 300.919 792.369 299.804C792.535 298.178 793.25 296.823 793.647 297.381C793.819 297.624 793.573 298.548 793.1 299.435ZM788.952 302.927C788.452 304.298 788.368 304.337 787.746 303.481C787.299 302.865 787.363 302.204 787.94 301.487C789.052 300.105 789.663 300.974 788.952 302.927ZM786.775 306.098C787.626 307.27 785.963 309.668 784.801 308.943C784.036 308.466 783.993 308.115 784.564 307.002C785.391 305.388 786.06 305.114 786.775 306.098ZM790.797 305.168C790.645 305.43 790.431 305.306 790.32 304.892C790.209 304.478 790.333 304.264 790.596 304.415C790.858 304.567 790.949 304.905 790.797 305.168ZM783.558 313.203C782.568 314.777 782.45 314.826 781.318 314.133C780.205 313.451 780.194 313.29 781.17 311.74C782.16 310.166 782.278 310.117 783.409 310.81C784.523 311.492 784.533 311.653 783.558 313.203ZM779.771 315.919C780.381 316.271 780.804 316.654 780.713 316.77C778.425 319.679 777.74 320.193 776.873 319.649C775.672 318.897 775.457 317.954 776.426 317.694C776.854 317.579 777.418 317.02 777.68 316.45C778.272 315.162 778.403 315.129 779.771 315.919ZM775.607 322.302C775.757 322.844 775.644 323.351 775.356 323.428C775.068 323.505 774.573 324.018 774.256 324.566C773.764 325.418 773.531 325.355 772.654 324.135C771.728 322.845 771.75 322.639 772.885 322.008C773.575 321.624 774.06 320.996 773.962 320.612C773.682 319.509 775.291 321.162 775.607 322.302ZM781.301 320.927C780.779 321.899 780.141 322.751 779.881 322.821C779.121 323.024 780.127 320.395 781.004 319.885C781.444 319.629 781.905 319.361 782.026 319.29C782.149 319.218 781.822 319.955 781.301 320.927ZM771.427 327.032C771.575 327.563 771.274 328.392 770.76 328.875C769.412 330.139 768.19 328.131 769.158 326.242C769.915 324.766 770.893 325.108 771.427 327.032ZM762.266 331.772C764.732 334.759 764.839 335.113 763.619 336.257C762.886 336.945 762.6 336.99 762.438 336.444C762.32 336.047 761.503 334.873 760.621 333.834C758.95 331.865 758.292 329.093 759.532 329.244C759.927 329.291 761.157 330.429 762.266 331.772ZM777.895 325.471C777.841 325.985 777.461 326.496 777.05 326.606C776.64 326.716 776.012 327.312 775.654 327.931C775.064 328.954 774.983 328.975 774.767 328.168C774.636 327.68 774.88 327.187 775.308 327.073C775.735 326.958 776.299 326.398 776.561 325.829C776.823 325.259 777.253 324.736 777.515 324.665C777.778 324.595 777.949 324.958 777.895 325.471ZM773.435 329.974C773.515 330.273 773.089 330.968 772.487 331.517L771.392 332.515L772.209 331.044C773.164 329.321 773.242 329.253 773.435 329.974ZM760.149 339.071C759.22 339.77 758.57 338.73 758.548 336.509L758.533 334.896L759.725 336.695C760.727 338.209 760.794 338.586 760.149 339.071Z" fill="#3E5BF1"/>
<path opacity="0.2" fill-rule="evenodd" clip-rule="evenodd" d="M973.528 70.6911C971.886 70.4193 965.995 69.0187 960.437 67.5787C951.359 65.227 937.783 61.9405 910.832 55.5707C903.092 53.7413 901.694 53.5073 900.979 53.9219C900.059 54.4561 873.02 155.443 873.35 157.114C873.522 157.986 893.634 163.58 899.325 164.34C905.983 165.228 908.604 165.482 909.047 165.281C909.307 165.163 910.384 165.164 911.441 165.284C912.498 165.404 913.499 165.372 913.665 165.215C913.832 165.057 914.265 165.006 914.626 165.101C914.987 165.195 915.816 165.154 916.468 165.007C917.12 164.861 918.221 164.767 918.913 164.798C919.606 164.828 920.212 164.707 920.26 164.527C920.308 164.347 920.901 164.225 921.579 164.255C922.257 164.286 922.854 164.149 922.906 163.953C922.959 163.756 923.197 163.648 923.436 163.711C923.974 163.855 929.313 162.33 929.604 161.949C929.721 161.797 929.975 161.714 930.169 161.766C930.507 161.856 932.928 160.925 935.922 159.553C939.192 158.055 947.934 152.682 948.097 152.07C948.146 151.887 948.619 151.514 949.149 151.242C949.679 150.97 950.171 150.526 950.243 150.257C950.314 149.988 950.519 149.745 950.699 149.716C951.16 149.643 953.005 147.991 954.394 146.407C955.044 145.666 955.767 144.987 956 144.897C956.453 144.725 957.465 142.631 959.44 137.779C960.112 136.13 960.991 134.213 961.393 133.521C962.168 132.187 963.804 128.022 966.489 120.543C967.387 118.04 968.545 115.076 969.062 113.956C970.409 111.04 976.743 90.6219 979.031 81.8229C981.694 71.5791 981.944 72.0851 973.528 70.6911ZM973.914 86.2532C969.876 101.216 966.079 112.61 960.652 126.051C959.652 128.527 958.139 132.27 957.29 134.369C956.441 136.468 955.58 138.28 955.378 138.396C955.175 138.512 954.884 139.081 954.729 139.661C954.535 140.388 954.191 140.714 953.618 140.711C953.162 140.708 952.83 140.549 952.882 140.355C952.933 140.162 952.714 139.934 952.394 139.848C952.074 139.763 951.724 140.022 951.617 140.424C951.344 141.447 949.802 141.384 949.753 140.349C949.697 139.146 948.275 138.931 947.969 140.079C947.833 140.59 947.427 141.039 947.067 141.077C946.443 141.143 946.244 140.583 946.152 138.497C946.083 136.923 944.866 137.324 944.584 139.014C944.345 140.449 944.232 140.582 943.435 140.37C942.909 140.229 942.615 139.899 942.707 139.552C942.793 139.232 942.688 138.924 942.475 138.867C942.261 138.81 942.156 138.502 942.242 138.181C942.327 137.861 942.116 137.525 941.773 137.433C941.287 137.304 941.102 137.579 940.945 138.667C940.833 139.437 940.614 140.033 940.459 139.992C939.899 139.843 939.286 138.356 939.481 137.624C939.625 137.084 939.41 136.803 938.711 136.617C937.639 136.331 937.493 136.553 937.664 138.208C937.851 140.018 935.873 139.025 935.495 137.12C935.116 135.208 933.823 134.779 933.745 136.54C933.692 137.73 933.643 137.759 932.301 137.402C931.326 137.142 930.959 136.859 931.068 136.45C931.153 136.13 931.048 135.821 930.835 135.764C930.622 135.708 930.54 135.312 930.654 134.885C930.769 134.454 930.602 134.04 930.279 133.954C929.899 133.853 929.595 134.18 929.404 134.896C929.05 136.226 926.93 135.683 926.863 134.245C926.839 133.739 926.466 133.353 925.84 133.186C925.091 132.987 924.872 133.09 924.928 133.617C924.986 134.155 924.834 134.214 924.25 133.883C923.15 133.259 921.241 133.519 920.411 134.407C920.013 134.832 919.412 135.084 919.075 134.966C917.772 134.511 917.792 135.966 919.096 136.451C919.784 136.707 917.142 136.312 913.225 135.573C907.801 134.55 905.173 133.874 902.198 132.738C894.364 129.746 892.501 129.686 892.794 132.438C892.947 133.88 914.719 140.405 919.318 140.387C920.388 140.383 920.441 140.461 920.14 141.592C919.828 142.762 919.763 142.786 918.113 142.347C915.673 141.696 915.021 142.676 917.362 143.475C918.747 143.948 918.953 144.135 918.527 144.535C918.083 144.951 916.103 144.511 904.611 141.446L891.212 137.872L890.959 138.846C890.43 140.88 890.653 141.022 897.59 143.102C901.145 144.168 907.001 145.732 910.605 146.579C914.906 147.589 917.054 148.232 916.858 148.453C916.694 148.638 916.371 149.066 916.139 149.404C915.908 149.742 915.404 149.936 915.02 149.833C912.913 149.271 911.858 150.633 913.934 151.235L915.187 151.598L913.463 151.831C911.973 152.032 910.228 151.651 900.623 149.025C888.46 145.699 888.547 145.705 888.664 148.21C888.714 149.277 889.169 149.493 895.669 151.551C903.853 154.143 904.636 154.342 908.283 154.776C911.978 155.216 912.071 155.255 911.461 156.097C911.165 156.505 910.567 156.541 909.373 156.223C907.201 155.644 906.392 155.753 906.152 156.656C905.931 157.484 907.691 158.176 909.149 157.833C909.814 157.677 909.897 157.758 909.603 158.276C909.188 159.006 906.581 159.219 904.579 158.685C903.625 158.431 903.168 158.497 903.059 158.904C902.942 159.343 903.378 159.612 904.844 160.003C906.72 160.503 907.191 161.068 906.026 161.42C904.365 161.921 895.105 160.212 884.48 157.442L877.428 155.604L878.984 148.851C880.782 141.052 902.572 57.185 902.794 57.2093C904.087 57.3519 951.226 68.8051 968.6 73.1982L976.873 75.2898L973.914 86.2532ZM907.042 65.5811L905.879 66.2547L901.74 81.5168C899.463 89.911 897.302 97.4732 896.938 98.3215C895.583 101.478 895.478 101.408 905.75 104.146C910.718 105.47 915.754 107.015 916.942 107.579C919.649 108.864 922.804 108.852 924.435 107.549C926.632 105.795 934.541 73.4445 933.156 71.8761C932.961 71.6564 927.268 69.9989 920.503 68.1921L908.204 64.9078L907.042 65.5811ZM952.559 77.9766C938.943 74.5723 939.108 74.5866 938.758 76.7914L938.6 77.7882L952.35 81.3321C963.446 84.1917 966.232 84.7998 966.782 84.4814C967.631 83.9897 968.162 82.152 967.523 81.9175C966.044 81.3756 963.997 80.8361 952.559 77.9766ZM929.262 77.4936C929.063 79.3011 927.748 85.0012 926.131 91.0638L923.341 101.518L922.392 99.9366C921.871 99.067 921.309 98.3197 921.143 98.2756C920.978 98.2316 920.651 97.8639 920.416 97.4585C920.181 97.0531 919.653 96.6316 919.241 96.522C918.235 96.2538 918.467 95.639 919.853 94.8992C920.483 94.5636 921.248 93.8885 921.556 93.3991C921.863 92.9095 922.286 92.4535 922.496 92.3852C923.044 92.2075 925.226 86.9132 925.283 85.6232C925.317 84.861 925.529 84.5165 925.994 84.4669C928.284 84.2236 927.048 79.3682 923.976 76.5314C920.107 72.96 911.084 72.671 910.173 76.0895C910.096 76.3785 909.858 76.5683 909.645 76.5114C909.205 76.3942 908.148 79.969 908.462 80.5114C908.574 80.7051 908.234 82.5952 907.705 84.7115C906.774 88.4393 906.874 90.9613 908.007 92.303C908.144 92.466 907.541 92.6614 906.666 92.7373C905.092 92.8736 902.705 93.5976 901.895 94.184C901.664 94.3511 901.761 93.816 902.111 92.9949C902.46 92.174 904.227 86.3806 906.037 80.1208L909.329 68.7395L919.467 71.5584L929.604 74.3777L929.262 77.4936ZM939.446 81.5826C939.089 81.6628 938.466 81.7411 938.062 81.7569C937.154 81.7929 936.655 83.4101 937.28 84.2907C937.733 84.9288 947.085 87.2056 948.594 87.0448C949.425 86.9568 949.877 85.2816 949.326 84.3303C948.867 83.5381 940.768 81.2858 939.446 81.5826ZM918.991 83.0196C918.811 83.1237 918.578 83.0617 918.474 82.8817C918.37 82.7015 918.517 82.6161 918.802 82.6919C919.086 82.7677 919.171 82.9151 918.991 83.0196ZM916.692 83.3761C917.383 83.5605 917.992 85.0791 917.653 85.7753C916.982 87.1507 919.32 87.1825 921.174 85.8233C921.734 85.4131 921.787 85.4298 921.653 85.9743C921.463 86.749 919.448 87.7515 918.12 87.7319C916.956 87.7151 916.387 88.3039 916.675 89.2272C916.842 89.7589 917.176 89.7873 918.67 89.3968C919.656 89.1387 920.436 89.0328 920.402 89.1612C920.317 89.4778 918.999 90.2242 918.676 90.1381C917.886 89.9276 915.42 90.7038 915.286 91.2051C915.161 91.6734 915.459 91.8262 916.753 91.9585L918.377 92.1245L917.387 92.6976C916.328 93.3112 913.454 92.8348 913.203 92.0038C913.128 91.7553 912.668 91.4455 912.18 91.3155C910.621 90.8999 910.249 89.4407 910.886 86.2384L911.467 83.3183L913.145 83.0636C914.068 82.9235 915.122 82.7403 915.487 82.6561C915.852 82.5722 916.168 82.6723 916.189 82.8782C916.211 83.0843 916.437 83.3082 916.692 83.3761ZM920.625 84.4246C920.437 84.6028 920.075 84.6905 919.822 84.6197C919.545 84.5418 919.634 84.4021 920.043 84.2695C920.917 83.9863 921.051 84.022 920.625 84.4246ZM935.547 89.026C935.339 89.3137 935.161 90.0143 935.153 90.5831L935.138 91.6171L943.813 93.9293C953.254 96.4456 953.736 96.4637 953.768 94.3026L953.783 93.2623L944.855 90.8826C937.27 88.861 935.869 88.5815 935.547 89.026ZM919.25 85.1664C919.07 85.2704 918.837 85.2084 918.733 85.0284C918.629 84.8482 918.776 84.7628 919.061 84.8386C919.345 84.9144 919.43 85.0618 919.25 85.1664ZM948.839 98.6202C939.086 96.4608 934.289 95.6253 933.854 96.0099C933.232 96.5593 933.058 97.5981 933.47 98.3112C934.042 99.3023 955.424 103.997 956.207 103.303C957.311 102.324 956.792 100.061 955.453 100.02C955.268 100.014 952.292 99.3843 948.839 98.6202ZM908.57 96.5865C908.163 97.3033 906.997 97.3598 907.185 96.6537C907.26 96.3728 908.448 95.8282 908.916 95.8601C908.951 95.8627 908.795 96.1894 908.57 96.5865ZM911.215 97.0937C910.858 97.3468 910.508 97.4529 910.436 97.3295C910.239 96.9885 910.982 96.3983 911.45 96.5232C911.708 96.5918 911.619 96.8067 911.215 97.0937ZM914.584 97.8017C914.664 98.0666 914.628 98.3421 914.504 98.4134C914.162 98.6122 913.123 97.7614 913.228 97.368C913.357 96.8822 914.407 97.2183 914.584 97.8017ZM916.2 99.7285C916.02 99.8325 915.934 99.6851 916.01 99.4007C916.086 99.1163 916.234 99.031 916.338 99.2109C916.442 99.3911 916.38 99.6239 916.2 99.7285ZM904.017 97.7623C903.402 98.4557 902.738 99.2602 902.541 99.5505C902.339 99.8481 902.287 99.632 902.422 99.0555C902.554 98.4932 903.147 97.6691 903.739 97.2249C905.236 96.1009 905.329 96.2817 904.017 97.7623ZM918.892 102.495C918.354 102.877 918.197 102.801 917.733 101.931C916.943 100.447 918.106 99.6207 918.945 101.07C919.403 101.86 919.393 102.139 918.892 102.495ZM908.256 100.219C907.794 100.794 907.3 101.234 907.158 101.197C906.82 101.107 907.65 99.6049 908.313 99.1052C909.182 98.45 909.148 99.1093 908.256 100.219ZM912.814 100.107C911.285 101.909 910.879 102.189 910.097 101.98C909.42 101.8 909.319 101.59 909.639 101.027C909.864 100.63 910.203 100.346 910.391 100.396C910.58 100.447 910.804 100.226 910.889 99.9057C910.987 99.5398 911.413 99.4221 912.037 99.5884C912.583 99.7339 912.933 99.9676 912.814 100.107ZM913.776 102.475C912.816 103.031 912.922 102.282 913.94 101.323C914.536 100.76 914.629 100.763 914.597 101.345C914.577 101.717 914.208 102.226 913.776 102.475ZM906.21 99.1415C905.915 99.1783 905.584 99.5426 905.475 99.9515C905.338 100.466 905.008 100.622 904.405 100.457C903.914 100.322 903.749 100.142 904.026 100.044C904.297 99.9483 904.712 99.5945 904.95 99.2577C905.187 98.9208 905.689 98.7423 906.065 98.8603C906.466 98.9865 906.526 99.1026 906.21 99.1415ZM916.826 103.358C916.901 103.606 916.602 103.714 916.163 103.597C915.724 103.48 915.411 103.209 915.468 102.996C915.524 102.783 915.822 102.675 916.13 102.757C916.438 102.839 916.75 103.109 916.826 103.358ZM920.317 104.289C920.393 104.541 920.058 104.632 919.559 104.496C918.84 104.299 918.798 104.208 919.347 104.03C920.194 103.756 920.153 103.745 920.317 104.289ZM950.472 118.216C947.976 117.721 938.023 115.424 928.355 113.111C918.686 110.798 908.302 108.365 905.279 107.704L899.781 106.503L899.289 107.876C898.647 109.668 898.315 109.527 909.298 112.111C914.352 113.3 926.485 116.187 936.261 118.525L954.035 122.777L955.248 122.09L956.461 121.402L955.735 120.259C955.036 119.156 954.854 119.085 950.472 118.216ZM948.317 126.301C945.747 126.218 916.353 119.114 907.183 116.36C897.622 113.488 897.729 113.496 897.142 115.649C896.897 116.549 897.051 116.796 898.229 117.394C900.39 118.49 927.217 125.498 938.923 128.025C950.354 130.491 951.745 130.59 952.177 128.968C952.668 127.127 951.627 126.408 948.317 126.301ZM936.449 131.073C931.495 129.937 926.349 128.928 925.012 128.831C923.624 128.73 916.899 127.209 909.335 125.285C902.05 123.432 895.957 121.885 895.795 121.846C894.875 121.626 894.828 124.502 895.743 125.01C897.176 125.805 926.172 132.976 927.726 132.92C928.462 132.893 933.687 133.966 939.336 135.304C950.029 137.836 950.631 137.886 951.063 136.266C951.336 135.241 949.917 134.189 947.49 133.618C946.371 133.355 941.402 132.21 936.449 131.073ZM950.725 145.257C950.368 145.639 950.007 145.831 949.922 145.684C949.687 145.279 950.49 144.327 950.96 144.453C951.247 144.529 951.175 144.776 950.725 145.257ZM928.546 139.674C929.664 140.195 933.426 141.394 936.904 142.338C943.928 144.244 945.035 144.909 943.154 146.089C942.242 146.661 942.228 146.657 941.288 145.601C940.142 144.314 938.276 143.705 938.052 144.545C937.967 144.865 938.115 145.189 938.38 145.264C938.646 145.34 939.209 145.856 939.633 146.411L940.403 147.42L939.412 147.999L938.421 148.578L937.555 147.315C935.847 144.821 934.283 145.53 935.841 148.092L936.694 149.495L935.562 149.982C934.448 150.461 934.42 150.453 933.867 149.499C932.794 147.645 931.673 146.631 931.079 146.975C930.673 147.21 930.818 147.761 931.633 149.078L932.737 150.861L931.725 151.4C930.396 152.108 930.344 152.08 929.273 150.1C928.281 148.265 927.71 147.885 927.136 148.678C926.926 148.968 927.148 149.816 927.656 150.673C928.694 152.419 928.676 152.686 927.495 153.049C926.632 153.314 925.582 152.357 925.807 151.51C926.025 150.694 924.705 149.064 924.066 149.359C923.512 149.615 923.527 149.991 924.158 151.656C924.901 153.616 924.712 154.494 923.611 154.201C923.303 154.119 922.989 154.269 922.912 154.534C922.836 154.799 922.603 154.456 922.396 153.773C922.188 153.089 921.777 152.465 921.483 152.387C920.765 152.195 920.314 155.881 920.975 156.532C921.23 156.782 921.371 157.24 921.289 157.55C921.206 157.859 921.308 158.158 921.515 158.213C921.721 158.268 921.72 158.548 921.512 158.835C920.67 159.997 919.227 157.488 919.706 155.694C919.768 155.459 919.665 155.227 919.477 155.176C919.288 155.126 919.113 154.752 919.087 154.345C919.061 153.939 918.903 153.254 918.736 152.824C918.501 152.222 918.59 151.865 919.123 151.265C920.989 149.168 923.897 141.028 923.689 138.485C923.598 137.367 923.604 137.369 928.546 139.674ZM947.877 145.103C947.688 145.809 945.953 146.429 945.719 145.873C945.063 144.316 945.163 144.154 946.552 144.525C947.311 144.727 947.907 144.987 947.877 145.103ZM947.475 148.184C946.521 148.781 946.463 148.778 946.913 148.153C947.569 147.242 948.459 146.681 948.504 147.149C948.523 147.352 948.06 147.818 947.475 148.184ZM943.809 148.841C943.042 149.486 942.979 149.481 942.902 148.758C942.847 148.238 943.111 147.867 943.7 147.638C944.836 147.196 944.902 147.922 943.809 148.841ZM941.427 149.983C941.532 150.972 939.721 151.829 939.277 151C938.985 150.454 939.08 150.231 939.802 149.763C940.847 149.086 941.339 149.153 941.427 149.983ZM944.14 150.808C943.96 150.912 943.874 150.764 943.95 150.48C944.026 150.195 944.173 150.11 944.278 150.29C944.382 150.47 944.32 150.703 944.14 150.808ZM937.078 153.11C935.949 153.708 935.862 153.696 935.426 152.896C934.997 152.108 935.046 152.009 936.158 151.421C937.287 150.823 937.373 150.834 937.809 151.635C938.239 152.422 938.19 152.521 937.078 153.11ZM933.893 153.429C934.136 153.847 934.257 154.221 934.162 154.258C931.804 155.206 931.22 155.277 930.89 154.656C930.433 153.797 930.628 153.162 931.294 153.34C931.588 153.418 932.116 153.278 932.467 153.029C933.261 152.465 933.35 152.49 933.893 153.429ZM929.228 155.802C929.132 156.176 928.891 156.439 928.693 156.386C928.495 156.333 928.024 156.469 927.648 156.687C927.063 157.025 926.946 156.908 926.842 155.881C926.733 154.796 926.817 154.681 927.708 154.694C928.251 154.702 928.755 154.494 928.828 154.233C929.039 153.48 929.43 155.015 929.228 155.802ZM933.088 156.934C932.444 157.334 931.773 157.623 931.594 157.575C931.072 157.436 932.571 156.215 933.268 156.212C933.618 156.211 933.984 156.209 934.081 156.208C934.178 156.208 933.731 156.534 933.088 156.934ZM925.119 157.185C925.025 157.552 924.562 157.943 924.091 158.053C922.855 158.344 922.816 156.73 924.04 155.938C924.995 155.318 925.461 155.857 925.119 157.185ZM918.042 156.868C918.487 159.491 918.429 159.738 917.311 160.001C916.639 160.159 916.453 160.088 916.544 159.707C916.61 159.431 916.526 158.453 916.357 157.532C916.036 155.787 916.595 153.912 917.281 154.426C917.5 154.59 917.842 155.689 918.042 156.868ZM929.504 158.472C929.296 158.76 928.895 158.933 928.613 158.858C928.331 158.783 927.753 158.923 927.328 159.168C926.626 159.575 926.57 159.56 926.718 159.006C926.807 158.671 927.121 158.461 927.415 158.539C927.709 158.617 928.237 158.477 928.588 158.228C928.939 157.979 929.374 157.814 929.554 157.862C929.734 157.91 929.712 158.185 929.504 158.472ZM925.307 159.625C925.252 159.83 924.76 160.097 924.213 160.218L923.22 160.437L924.21 159.841C925.369 159.143 925.439 159.129 925.307 159.625ZM914.282 160.487C913.489 160.585 913.458 159.743 914.206 158.414L914.75 157.449L914.843 158.928C914.921 160.172 914.832 160.42 914.282 160.487Z" fill="#3E5BF1"/>
<path opacity="0.2" fill-rule="evenodd" clip-rule="evenodd" d="M938.117 441.546C938.979 440.5 942.371 436.92 945.654 433.59C951.017 428.152 958.875 419.925 974.365 403.529C978.813 398.821 979.549 397.93 979.548 397.258C979.548 396.391 919.407 336.114 918.094 335.665C917.41 335.43 905.258 347.322 902.399 351.023C899.056 355.353 897.807 357.097 897.768 357.491C897.745 357.722 897.304 358.481 896.789 359.177C896.273 359.873 895.886 360.591 895.929 360.773C895.972 360.955 895.832 361.281 895.618 361.497C895.404 361.713 895.095 362.314 894.932 362.833C894.769 363.352 894.386 364.167 894.081 364.642C893.777 365.118 893.615 365.595 893.722 365.702C893.829 365.809 893.673 366.277 893.375 366.742C893.078 367.208 892.93 367.684 893.047 367.801C893.164 367.919 893.143 368.131 893.001 368.273C892.68 368.594 891.576 372.979 891.725 373.34C891.785 373.485 891.739 373.697 891.624 373.813C891.422 374.014 891.09 376.101 890.835 378.771C890.557 381.687 890.775 390.042 891.14 390.406C891.249 390.515 891.319 391.001 891.294 391.486C891.27 391.97 891.382 392.498 891.542 392.659C891.703 392.819 891.791 393.063 891.738 393.201C891.601 393.556 892.012 395.53 892.561 397.156C892.818 397.916 893.002 398.703 892.97 398.904C892.907 399.294 893.969 400.861 896.583 404.234C897.471 405.381 898.463 406.782 898.787 407.349C899.41 408.44 901.679 411.292 905.854 416.237C907.252 417.892 908.868 419.918 909.446 420.739C910.952 422.879 922.758 435.677 928.025 440.881C934.158 446.94 933.699 446.91 938.117 441.546ZM926.991 435.467C918.093 426.513 911.612 419.186 904.354 409.875C903.017 408.16 900.996 405.566 899.864 404.11C898.731 402.655 897.805 401.309 897.806 401.119C897.807 400.929 897.525 400.491 897.179 400.146C896.746 399.712 896.657 399.337 896.893 398.934C897.081 398.613 897.329 398.445 897.444 398.56C897.559 398.676 897.81 398.614 898 398.423C898.191 398.232 898.151 397.88 897.912 397.641C897.302 397.031 897.976 395.97 898.726 396.358C899.596 396.809 900.328 395.895 899.644 395.21C899.34 394.906 899.189 394.437 899.309 394.167C899.517 393.7 899.993 393.789 901.501 394.576C902.639 395.169 902.852 394.148 901.776 393.26C900.863 392.505 900.815 392.371 901.29 391.896C901.603 391.583 901.956 391.51 902.163 391.717C902.354 391.908 902.614 391.96 902.741 391.833C902.868 391.705 903.128 391.757 903.319 391.948C903.51 392.139 903.833 392.128 904.038 391.923C904.327 391.634 904.209 391.391 903.506 390.836C903.009 390.443 902.678 390.045 902.771 389.953C903.104 389.619 904.402 389.794 904.839 390.23C905.16 390.552 905.446 390.515 905.863 390.098C906.502 389.459 906.405 389.266 905.169 388.711C903.817 388.104 905.324 387.115 906.821 387.626C908.323 388.14 909.153 387.403 907.944 386.63C907.127 386.107 907.126 386.06 907.926 385.26C908.507 384.679 908.856 384.536 909.1 384.78C909.291 384.97 909.551 385.022 909.678 384.895C909.806 384.768 910.118 384.872 910.372 385.126C910.629 385.383 910.989 385.435 911.181 385.242C911.408 385.015 911.301 384.668 910.875 384.241C910.082 383.449 911.33 382.176 912.371 382.716C912.737 382.905 913.161 382.8 913.534 382.427C913.981 381.98 913.997 381.784 913.603 381.609C913.2 381.429 913.22 381.298 913.692 381.022C914.581 380.502 915.177 379.049 914.89 378.102C914.753 377.648 914.821 377.122 915.041 376.932C915.894 376.2 914.86 375.62 913.986 376.341C913.525 376.721 914.881 375.021 917.001 372.562C919.936 369.156 921.485 367.58 923.5 365.947C928.807 361.647 929.609 360.358 927.55 359.441C926.471 358.961 912.986 371.642 911.121 374.891C910.688 375.647 910.61 375.652 909.937 374.979C909.239 374.281 909.249 374.225 910.232 373.242C911.686 371.788 911.262 370.928 909.743 372.252C908.844 373.035 908.628 373.104 908.52 372.641C908.408 372.158 909.526 370.942 916.378 364.093L924.365 356.108L923.782 355.532C922.565 354.329 922.374 354.428 918.076 358.469C915.874 360.539 912.381 364.028 910.314 366.223C907.846 368.842 906.516 370.093 906.44 369.865C906.377 369.674 906.207 369.271 906.063 368.97C905.919 368.669 905.989 368.235 906.218 368.006C907.474 366.75 906.945 365.451 905.673 366.668L904.905 367.404L905.445 366.093C905.911 364.961 906.893 363.887 912.664 358.189C919.972 350.974 919.933 351.033 918.12 350.093C917.347 349.693 917.009 349.924 912.905 353.666C907.738 358.377 907.278 358.847 905.484 361.24C903.665 363.665 903.6 363.714 903.256 362.941C903.089 362.566 903.307 362.129 904.019 361.418C905.313 360.123 905.567 359.509 905.029 358.971C904.535 358.477 903.329 359.436 902.976 360.603C902.814 361.135 902.723 361.161 902.478 360.742C902.133 360.152 903.047 358.227 904.24 357.034C904.809 356.465 904.949 356.116 904.707 355.874C904.445 355.612 904.077 355.81 903.203 356.683C902.086 357.801 901.495 357.903 901.722 356.938C902.047 355.562 907.031 349.733 913.32 343.375L917.494 339.155L921.618 343.009C926.382 347.459 976.598 397.048 976.491 397.195C975.863 398.048 948.549 426.598 938.362 437.05L933.511 442.027L926.991 435.467ZM968.856 396.772V395.677L959.789 386.53C954.802 381.499 950.354 376.89 949.904 376.287C948.233 374.044 948.325 373.998 942.203 380.12C939.242 383.081 936.097 386.001 935.214 386.608C933.204 387.991 931.925 390.22 932.177 391.901C932.517 394.165 952.09 412.944 953.761 412.608C953.995 412.561 957.487 409.224 961.521 405.194L968.856 397.866L968.856 396.772ZM941.541 423.794C949.498 415.587 949.421 415.697 948.009 414.55L947.371 414.032L939.261 422.277C932.717 428.93 931.151 430.646 931.151 431.163C931.151 431.962 932.23 433.087 932.656 432.732C933.641 431.911 934.857 430.688 941.541 423.794ZM951.391 407.571C950.198 406.693 946.717 403.439 943.104 399.825L936.875 393.592L938.376 393.568C939.202 393.556 939.958 393.465 940.057 393.366C940.155 393.267 940.548 393.187 940.93 393.187C941.311 393.187 941.824 392.986 942.069 392.741C942.669 392.141 943.008 392.555 942.963 393.835C942.943 394.415 943.106 395.231 943.326 395.647C943.545 396.063 943.694 396.548 943.656 396.724C943.558 397.182 946.399 400.881 947.285 401.448C947.808 401.783 947.965 402.073 947.809 402.421C947.047 404.134 950.973 405.245 954.227 404.238C958.323 402.968 962.209 396.727 960.172 394.689C960 394.517 959.963 394.272 960.09 394.145C960.352 393.883 958.264 391.679 957.754 391.678C957.571 391.679 956.378 390.667 955.102 389.431C952.855 387.253 951.036 386.294 949.628 386.545C949.457 386.575 949.566 386.071 949.869 385.423C950.416 384.257 950.88 382.28 950.797 381.469C950.774 381.239 951.111 381.526 951.547 382.107C951.983 382.688 955.345 386.298 959.018 390.129L965.697 397.094L959.572 403.089L953.447 409.084L951.391 407.571ZM944.352 413.079C944.441 412.795 944.64 412.324 944.794 412.033C945.139 411.378 944.203 410.366 943.327 410.448C942.692 410.507 937.271 416.168 936.768 417.298C936.491 417.919 937.487 418.921 938.383 418.921C939.128 418.921 944.022 414.132 944.352 413.079ZM951.688 398.076C951.688 397.907 951.827 397.768 951.996 397.768C952.166 397.768 952.166 397.907 951.996 398.076C951.827 398.246 951.688 398.246 951.688 398.076ZM952.375 396.31C951.963 396.722 950.644 396.531 950.292 396.008C949.596 394.974 948.62 396.609 948.821 398.47C948.882 399.032 948.848 399.063 948.519 398.746C948.05 398.296 948.166 396.467 948.722 395.539C949.209 394.725 949.026 394.084 948.258 393.91C947.815 393.81 947.659 394.034 947.325 395.246C947.104 396.047 946.86 396.64 946.784 396.563C946.595 396.375 946.607 395.141 946.8 394.948C947.27 394.477 947.73 392.422 947.431 392.124C947.152 391.844 946.923 391.992 946.301 392.85L945.521 393.927L945.521 392.995C945.521 391.998 947.03 390.167 947.718 390.33C947.924 390.378 948.33 390.18 948.621 389.889C949.55 388.96 950.731 389.293 952.728 391.049L954.549 392.651L954.043 393.937C953.765 394.645 953.464 395.463 953.375 395.755C953.285 396.046 953.085 396.228 952.931 396.159C952.777 396.09 952.527 396.158 952.375 396.31ZM950.031 398.654C949.982 398.449 950.068 398.158 950.221 398.008C950.389 397.845 950.451 397.965 950.378 398.307C950.221 399.039 950.141 399.119 950.031 398.654ZM940.697 407.293C940.579 407.029 940.158 406.618 939.76 406.38L939.038 405.947L933.867 411.118C928.24 416.745 928.031 417.078 929.541 417.982L930.268 418.417L935.589 413.096C940.11 408.575 940.879 407.702 940.697 407.293ZM950.069 397.383C950.069 397.213 950.208 397.074 950.378 397.074C950.547 397.074 950.547 397.213 950.378 397.383C950.208 397.552 950.069 397.552 950.069 397.383ZM928.51 412.745C934.012 406.753 936.559 403.713 936.466 403.249C936.332 402.587 935.671 402.04 935 402.04C934.068 402.038 922.032 415.192 922.202 416.027C922.441 417.205 924.248 417.763 924.823 416.836C924.903 416.708 926.562 414.867 928.51 412.745ZM946.379 385.194C946.04 384.614 946.477 383.769 946.897 384.19C947.065 384.357 946.964 385.417 946.75 385.734C946.734 385.757 946.567 385.514 946.379 385.194ZM944.942 386.851C944.91 386.496 944.978 386.206 945.094 386.205C945.415 386.206 945.528 386.97 945.248 387.25C945.095 387.403 944.98 387.253 944.942 386.851ZM943.068 388.936C942.849 388.884 942.669 388.747 942.67 388.631C942.669 388.308 943.693 387.923 943.928 388.157C944.217 388.447 943.551 389.05 943.068 388.936ZM941.051 389.289C941.051 389.119 941.19 389.119 941.359 389.289C941.529 389.458 941.529 389.597 941.359 389.597C941.19 389.597 941.051 389.458 941.051 389.289ZM947.409 381.504C947.171 380.788 946.875 379.992 946.751 379.734C946.624 379.47 946.798 379.522 947.149 379.853C947.491 380.175 947.83 380.929 947.901 381.528C948.083 383.042 947.917 383.034 947.409 381.504ZM938.002 390.057C937.952 389.522 938.07 389.442 938.873 389.471C940.241 389.519 940.349 390.676 938.985 390.676C938.24 390.676 938.049 390.555 938.002 390.057ZM943.947 383.49C943.73 382.929 943.622 382.401 943.706 382.317C943.908 382.115 944.628 383.313 944.709 383.984C944.816 384.864 944.365 384.571 943.947 383.49ZM942.166 386.748C941.52 384.935 941.489 384.534 941.955 384.069C942.358 383.665 942.547 383.679 942.814 384.134C943.001 384.455 943.063 384.81 942.951 384.922C942.839 385.034 942.903 385.283 943.093 385.473C943.311 385.691 943.22 386.04 942.849 386.412C942.523 386.737 942.216 386.889 942.166 386.748ZM940.104 386.459C940.104 385.556 940.589 385.936 940.85 387.045C941.003 387.695 940.963 387.759 940.566 387.499C940.312 387.333 940.104 386.865 940.104 386.459ZM945.542 382.487C945.636 382.264 945.515 381.882 945.271 381.639C944.964 381.332 944.989 381.036 945.352 380.678C945.647 380.387 945.841 380.344 945.797 380.58C945.754 380.81 945.834 381.247 945.974 381.552C946.115 381.857 946.036 382.283 945.799 382.5C945.547 382.731 945.44 382.726 945.542 382.487ZM938.237 388.248C938.031 388.2 938.077 387.946 938.339 387.684C938.601 387.422 938.919 387.312 939.047 387.439C939.174 387.566 939.128 387.82 938.945 388.003C938.761 388.187 938.443 388.297 938.237 388.248ZM936.156 390.33C935.947 390.28 936.02 390.007 936.319 389.711C936.752 389.284 936.833 389.292 936.734 389.751C936.582 390.46 936.606 390.436 936.156 390.33ZM914.032 405.898C915.399 404.341 921.081 398.264 926.658 392.393C932.234 386.523 938.187 380.197 939.887 378.336L942.978 374.952L942.211 374.044C941.209 372.86 941.445 372.684 935.14 379.37C932.239 382.447 925.252 389.82 919.614 395.756L909.362 406.548L909.352 407.683L909.342 408.819L910.443 408.774C911.507 408.731 911.63 408.632 914.032 405.898ZM909.213 401.079C910.321 399.302 927.325 381.484 933.009 376.145C938.935 370.579 938.886 370.651 937.608 369.358C937.075 368.818 936.838 368.826 935.935 369.412C934.28 370.488 918.391 386.536 911.832 393.755C905.428 400.805 904.791 401.745 905.757 402.711C906.855 403.809 907.786 403.369 909.213 401.079ZM910.694 390.767C913.517 387.739 916.328 384.524 916.942 383.621C917.58 382.684 921.397 378.565 925.84 374.019C930.12 369.64 933.697 365.978 933.79 365.88C934.321 365.321 932.313 364.114 931.582 364.552C930.437 365.237 913.547 382.747 912.953 383.865C912.671 384.395 909.782 387.64 906.533 391.075C900.384 397.578 900.103 397.982 901.069 398.948C901.68 399.559 903 398.988 904.393 397.51C905.035 396.828 907.87 393.794 910.694 390.767ZM894.869 395.04C894.746 394.632 894.758 394.299 894.896 394.299C895.277 394.299 895.621 395.253 895.34 395.533C895.169 395.704 895.025 395.553 894.869 395.04ZM907.857 381.686C907.033 382.262 904.653 384.423 902.568 386.489C898.358 390.662 897.438 391.171 897.374 389.364C897.343 388.487 897.35 388.479 898.479 388.248C899.854 387.965 901.045 386.899 900.544 386.398C900.353 386.208 900.065 386.179 899.903 386.335C899.741 386.492 899.147 386.678 898.584 386.75L897.558 386.881L897.555 385.946L897.551 385.012L898.795 384.917C901.249 384.731 901.388 383.339 898.946 383.392L897.609 383.42L897.728 382.423C897.845 381.443 897.862 381.427 898.76 381.427C900.505 381.427 901.677 381.051 901.677 380.491C901.677 380.109 901.23 379.987 899.969 380.024L898.262 380.074L898.295 379.141C898.338 377.915 898.379 377.889 900.212 377.943C901.91 377.993 902.411 377.746 902.087 377.017C901.968 376.751 901.279 376.561 900.468 376.57C898.814 376.589 898.633 376.467 898.859 375.486C899.025 374.769 900.128 374.42 900.633 374.925C901.119 375.411 902.806 375.146 902.859 374.575C902.905 374.081 902.634 373.938 901.203 373.703C899.519 373.427 898.977 372.935 899.633 372.279C899.816 372.095 899.839 371.812 899.683 371.65C899.527 371.488 899.864 371.464 900.43 371.597C900.997 371.729 901.604 371.695 901.78 371.519C902.208 371.091 899.794 369.269 899.066 369.469C898.785 369.547 898.405 369.459 898.22 369.275C898.036 369.09 897.784 369.04 897.661 369.163C897.538 369.286 897.341 369.171 897.223 368.907C896.748 367.84 899.105 367.847 900.174 368.916C900.314 369.056 900.521 369.078 900.633 368.966C900.745 368.854 901.08 368.883 901.378 369.031C901.675 369.178 902.222 369.346 902.593 369.404C903.113 369.485 903.329 369.693 903.533 370.314C904.25 372.484 908.8 377.856 910.678 378.748C911.503 379.14 911.499 379.144 907.857 381.686ZM896.141 393.095C895.72 392.674 895.991 391.198 896.478 391.26C897.844 391.433 897.917 391.569 897.089 392.397C896.637 392.85 896.21 393.164 896.141 393.095ZM894.133 391.554C894.101 390.638 894.128 390.599 894.384 391.171C894.759 392.005 894.791 392.861 894.443 392.702C894.291 392.632 894.152 392.116 894.133 391.554ZM895.166 388.702C895.025 387.898 895.054 387.856 895.595 388.097C895.984 388.27 896.138 388.608 896.059 389.117C895.906 390.097 895.368 389.847 895.166 388.702ZM895.334 386.557C894.594 386.227 894.729 384.601 895.494 384.627C895.998 384.644 896.117 384.802 896.152 385.501C896.202 386.514 895.955 386.834 895.334 386.557ZM893.645 388.133C893.645 387.963 893.784 387.963 893.954 388.133C894.123 388.302 894.123 388.441 893.954 388.441C893.784 388.441 893.645 388.302 893.645 388.133ZM894.905 382.216C894.944 381.176 894.988 381.119 895.73 381.139C896.46 381.158 896.51 381.233 896.471 382.256C896.432 383.296 896.388 383.352 895.646 383.333C894.916 383.314 894.866 383.239 894.905 382.216ZM895.98 379.841C895.586 379.841 895.274 379.774 895.286 379.692C895.58 377.643 895.768 377.202 896.341 377.223C897.133 377.251 897.501 377.648 897.104 378.045C896.929 378.22 896.812 378.649 896.844 378.998C896.917 379.788 896.863 379.841 895.98 379.841ZM896.212 375.584C895.987 375.363 895.9 375.086 896.018 374.968C896.136 374.85 896.233 374.463 896.233 374.109C896.233 373.559 896.363 373.524 897.129 373.87C897.939 374.236 897.986 374.342 897.613 374.965C897.386 375.344 897.326 375.784 897.481 375.942C897.925 376.398 896.683 376.048 896.212 375.584ZM893.838 377.842C893.819 377.225 893.89 376.634 893.996 376.528C894.307 376.217 894.556 377.772 894.273 378.264C894.131 378.511 893.983 378.77 893.944 378.838C893.905 378.907 893.857 378.459 893.838 377.842ZM896.914 372.123C896.694 371.907 896.607 371.422 896.721 371.044C897.021 370.055 898.175 370.686 898.234 371.872C898.28 372.798 897.711 372.906 896.914 372.123ZM900.026 367.265C897.996 366.508 897.845 366.366 898.116 365.471C898.279 364.932 898.405 364.83 898.636 365.05C898.804 365.209 899.528 365.549 900.246 365.806C901.606 366.292 902.7 367.451 902.057 367.725C901.853 367.813 900.939 367.605 900.026 367.265ZM894.217 374.688C894.099 374.424 894.141 374.071 894.309 373.903C894.477 373.735 894.614 373.27 894.615 372.87C894.614 372.21 894.647 372.177 894.978 372.507C895.178 372.707 895.198 373.014 895.022 373.189C894.847 373.364 894.731 373.793 894.763 374.142C894.795 374.491 894.734 374.865 894.626 374.973C894.519 375.08 894.334 374.952 894.217 374.688ZM895.118 371.26C894.995 371.137 895.008 370.681 895.146 370.247L895.397 369.457L895.413 370.399C895.432 371.5 895.413 371.555 895.118 371.26ZM899.01 363.137C899.264 362.538 899.871 362.86 900.502 363.93L900.96 364.707L899.88 364.169C898.971 363.716 898.833 363.552 899.01 363.137Z" fill="#3E5BF1"/>
</g>
<rect x="0.5" y="0.5" width="1096" height="499" rx="19.5" stroke="#E3E7ED"/>
<defs>
<clipPath id="clip0_3520_21710">
<rect width="1097" height="500" rx="20" fill="white"/>
</clipPath>
</defs>
</svg>
