<svg width="34" height="34" viewBox="0 0 34 34" fill="none" xmlns="http://www.w3.org/2000/svg">
<path fill-rule="evenodd" clip-rule="evenodd" d="M14.5885 3.02312C16.2205 2.38822 17.9485 3.41547 18.3364 5.07248L20.354 4.37478C22.1887 3.74035 24.0833 5.157 24.0833 7.16324V7.85183L26.1025 7.22342C27.9204 6.65766 29.75 8.06983 29.75 10.0388V23.724C29.75 25.6929 27.9204 27.1051 26.1025 26.5393L24.0833 25.9109V26.5995C24.0833 28.6058 22.1887 30.0224 20.354 29.388L18.3796 28.7052C18.1195 30.3648 16.5312 31.5015 14.8962 31.0774L6.39616 28.873C5.13486 28.5459 4.25001 27.3702 4.25001 26.0214V9.08197C4.25001 7.85674 4.98263 6.76003 6.08849 6.32982L14.5885 3.02312ZM21.25 23.9698C21.2495 23.9475 21.2495 23.9251 21.25 23.9027V9.86009C21.2495 9.83764 21.2495 9.81525 21.25 9.79292V7.16324L18.8647 7.98808C18.7161 8.03946 18.5651 8.06388 18.4167 8.0639V21.4373V25.6989C18.5651 25.6989 18.7161 25.7233 18.8647 25.7747L21.25 26.5995V23.9698ZM24.0833 10.9205V22.8422L26.9167 23.724V10.0388L24.0833 10.9205ZM15.5833 5.77526L7.08334 9.08197V26.0214L15.5833 28.2259V21.4373V5.77526Z" fill="white"/>
</svg>
