<svg width="142" height="145" viewBox="0 0 142 145" fill="none" xmlns="http://www.w3.org/2000/svg">
<path opacity="0.5" fill-rule="evenodd" clip-rule="evenodd" d="M49.353 16.8625C49.3404 16.9842 49.4477 17.2784 49.5914 17.516C49.7353 17.7538 50.0775 18.5338 50.352 19.2494C50.6265 19.965 51.1034 21.1594 51.4116 21.9035C51.7199 22.6477 52.138 23.6577 52.3406 24.148C52.7788 25.2081 52.8414 25.2784 53.25 25.1689C53.6515 25.0613 53.6846 24.7313 53.343 24.2406C53.1949 24.0277 52.9179 23.4795 52.7274 23.022C52.5371 22.5645 52.2415 21.8895 52.0709 21.5219C51.9001 21.1543 51.6325 20.3927 51.4762 19.8296C51.3198 19.2664 51.115 18.7613 51.0211 18.7069C50.9274 18.6526 50.7299 18.2781 50.5827 17.8747C50.1375 16.656 49.4349 16.0775 49.353 16.8625ZM73.9373 11.2444C73.9031 11.3036 73.9111 11.4859 73.9549 11.6497C73.9988 11.8132 73.9799 11.9618 73.9131 11.9797C73.8463 11.9976 73.808 12.2238 73.8279 12.4823C73.8478 12.7408 73.8216 12.9975 73.77 13.0525C73.7182 13.1075 73.6999 13.2501 73.7293 13.3693C73.7587 13.4886 73.7337 13.8452 73.6736 14.162C73.6135 14.4787 73.5971 14.8674 73.637 15.0258C73.6769 15.1843 73.6641 15.326 73.6085 15.3409C73.5529 15.3558 73.4948 15.715 73.4794 16.139C73.464 16.5629 73.4049 17.1905 73.3477 17.5333C73.2907 17.8762 73.2756 18.2746 73.3143 18.4186C73.3529 18.5627 73.338 18.6931 73.2813 18.7083C73.2245 18.7235 73.1679 19.0977 73.1551 19.5397C73.1424 19.9819 73.091 20.531 73.0407 20.7601C72.8836 21.4766 73.0425 22.2732 73.3421 22.2709C73.7155 22.2682 73.8938 22.1081 73.8219 21.8398C73.787 21.7095 73.7999 21.5587 73.8506 21.5048C73.9012 21.451 73.917 21.1585 73.8854 20.8552C73.8539 20.5518 73.8799 20.1608 73.9432 19.9864C74.0065 19.8119 74.0157 19.5098 73.9635 19.3149C73.9113 19.1202 73.9223 18.9465 73.9881 18.9289C74.0537 18.9113 74.0769 18.6283 74.0395 18.3001C74.0022 17.9719 74.0179 17.691 74.0744 17.6759C74.1308 17.6607 74.1681 17.4544 74.1571 17.2174C74.1462 16.9802 74.195 16.686 74.2656 16.5635C74.3361 16.4411 74.3718 16.2589 74.345 16.1588C74.3182 16.0586 74.3478 15.9628 74.4109 15.9459C74.474 15.9289 74.4733 15.5602 74.4093 15.1264C74.3452 14.6926 74.3399 14.3251 74.3975 14.3096C74.455 14.2942 74.492 14.0845 74.4795 13.8435C74.467 13.6025 74.4855 13.3363 74.5206 13.2518C74.5556 13.1672 74.5741 12.9003 74.5615 12.6586C74.5491 12.4169 74.5803 12.0148 74.631 11.7649C74.7384 11.2353 74.1827 10.8183 73.9373 11.2444ZM86.2797 8.41911C86.1703 8.69702 86.0206 9.24792 85.9473 9.64337C85.8739 10.0388 85.7732 10.4393 85.7234 10.5334C85.6736 10.6274 85.5761 10.9455 85.5069 11.2405C85.4376 11.5354 85.3367 11.7884 85.2826 11.8029C85.2286 11.8174 85.2036 11.9012 85.2271 11.989C85.2506 12.0769 85.1452 12.485 84.9928 12.8958C84.8404 13.3067 84.7348 13.7139 84.7581 13.801C84.7814 13.8879 84.7627 13.9897 84.7165 14.0272C84.6702 14.0646 84.5379 14.3665 84.4223 14.6982C84.3067 15.0298 84.0727 15.5844 83.9022 15.9307C83.7316 16.2771 83.5852 16.6824 83.5767 16.8315C83.5683 16.9806 83.5042 17.2019 83.4341 17.3236C83.3641 17.4451 83.3365 17.6553 83.3727 17.7905C83.4089 17.9258 83.3939 18.0484 83.3392 18.0631C83.2846 18.0777 83.2145 18.2657 83.1834 18.4806C83.12 18.9192 82.9885 19.3522 82.8209 19.6749C82.7591 19.794 82.7291 19.9686 82.7544 20.0629C82.7797 20.1573 82.7626 20.265 82.7163 20.3026C82.5887 20.4059 82.2742 21.3242 82.3146 21.4751C82.3342 21.5481 82.2929 21.6231 82.2229 21.6418C82.153 21.6606 82.1103 21.7304 82.1282 21.797C82.146 21.8636 82.0613 22.2092 81.9398 22.5649C81.8185 22.9206 81.612 23.667 81.481 24.2234C81.35 24.7799 81.1257 25.4549 80.9823 25.7236C80.8389 25.9923 80.7406 26.2839 80.7638 26.3715C80.7869 26.4593 80.7537 26.545 80.6898 26.5622C80.4886 26.6161 80.6521 27.6845 80.8718 27.7506C81.1196 27.8253 81.4738 27.497 81.4084 27.2531C81.3809 27.1503 81.4021 27.0546 81.4556 27.0402C81.509 27.0259 81.613 26.6751 81.6867 26.2609C81.7604 25.8466 81.8733 25.4121 81.9376 25.2957C82.0018 25.1792 82.0324 25.0018 82.0056 24.9017C81.9787 24.8015 82.0102 24.7052 82.0754 24.6877C82.1407 24.6702 82.2002 24.5187 82.2078 24.3512C82.2153 24.1836 82.2787 23.947 82.3487 23.8253C82.4187 23.7038 82.4541 23.5223 82.4273 23.4222C82.4004 23.322 82.4357 23.2247 82.5057 23.2059C82.5756 23.1872 82.6169 23.1121 82.5974 23.0392C82.5778 22.9662 82.6279 22.7222 82.7087 22.4969C83.149 21.2691 83.544 19.9566 83.5107 19.8321C83.4897 19.7539 83.5103 19.6594 83.5566 19.6218C83.6842 19.5185 83.9987 18.6002 83.9583 18.4493C83.9387 18.3763 83.9669 18.3048 84.0208 18.2904C84.0748 18.2759 84.1904 17.9682 84.2779 17.6066C84.3653 17.2449 84.481 16.9372 84.535 16.9228C84.5889 16.9083 84.6131 16.8221 84.5887 16.7311C84.5441 16.5643 84.6554 16.2527 85.0564 15.4231C85.177 15.1735 85.3447 14.6542 85.4289 14.269C85.5132 13.8837 85.7152 13.2159 85.8779 12.7848C86.0405 12.3536 86.2639 11.6171 86.3743 11.148C86.4848 10.6789 86.727 9.83948 86.9129 9.2827C87.3762 7.89409 86.7977 7.10497 86.2797 8.41911ZM59.8057 15.9989C59.7595 16.1731 60.4699 18.2189 60.5202 18.0565C60.545 17.9764 60.6739 17.8587 60.8069 17.7949C61.0446 17.6808 60.9324 16.2611 60.6525 15.8403C60.5491 15.685 59.8544 15.8152 59.8057 15.9989ZM23.7239 27.0114C23.8179 27.1806 24.0773 27.434 24.3 27.5744C24.523 27.7147 24.764 27.9216 24.8357 28.0338C24.9075 28.146 25.0197 28.2236 25.085 28.2061C25.1502 28.1887 25.2272 28.2622 25.256 28.3695C25.2848 28.477 25.403 28.5749 25.5188 28.587C25.6346 28.5993 25.7484 28.6805 25.7717 28.7674C25.795 28.8544 25.9459 29.0169 26.107 29.1285C26.2681 29.2402 26.5195 29.4337 26.6655 29.5587C26.8115 29.6839 27.282 30.0087 27.7112 30.2807C28.1403 30.5527 28.5108 30.8477 28.5344 30.936C28.5581 31.0243 28.6233 31.0843 28.6791 31.0694C28.735 31.0544 28.9822 31.2325 29.2283 31.4651C29.4745 31.6978 29.7191 31.8782 29.7722 31.866C29.8253 31.8538 29.8921 31.9317 29.9208 32.0391C29.9496 32.1466 30.0679 32.2444 30.1837 32.2566C30.2994 32.2689 30.4132 32.3499 30.4365 32.4367C30.4597 32.5236 30.6211 32.6678 30.795 32.7572C30.969 32.8465 31.132 32.9969 31.1573 33.0912C31.1825 33.1856 31.249 33.2505 31.3049 33.2355C31.3607 33.2205 31.6079 33.3986 31.8541 33.6313C32.1002 33.8639 32.3449 34.0443 32.398 34.0321C32.451 34.02 32.5178 34.0979 32.5466 34.2052C32.5754 34.3127 32.6937 34.4106 32.8094 34.4227C32.9252 34.435 33.0351 34.5015 33.0536 34.5706C33.0721 34.6397 33.2227 34.8009 33.3882 34.9289C33.5536 35.0567 33.8094 35.2668 33.9564 35.3957C34.1035 35.5245 34.3005 35.6786 34.3942 35.7383C34.488 35.7979 34.7537 36.0267 34.9847 36.2466C35.2158 36.4666 35.4572 36.6324 35.5216 36.6152C35.5858 36.5979 35.6586 36.6592 35.6832 36.7513C35.7566 37.025 36.6485 37.4511 36.8466 37.307C37.1858 37.0604 36.8832 36.5519 36.1353 36.1118C35.741 35.8798 35.3439 35.5733 35.2526 35.4305C35.1614 35.2876 34.8959 35.0577 34.6628 34.9196C34.4296 34.7814 34.1189 34.5645 33.9724 34.4374C33.7264 34.2242 33.3581 33.9428 32.9539 33.6595C32.8635 33.5961 32.7101 33.4012 32.6129 33.2264C32.5158 33.0515 32.1321 32.7166 31.7603 32.482C30.7343 31.8348 30.6717 31.7881 30.6322 31.6407C30.6121 31.5654 30.5008 31.4938 30.3851 31.4816C30.2693 31.4693 30.161 31.4086 30.1444 31.3466C30.106 31.2036 28.9113 30.271 28.7453 30.2545C28.6771 30.2477 28.6018 30.1698 28.5781 30.0814C28.5544 29.9929 28.3927 29.8472 28.2187 29.7579C28.0448 29.6685 27.8888 29.5444 27.8722 29.4822C27.8355 29.3454 27.7415 29.2748 26.6921 28.5954C26.2405 28.3031 25.6301 27.7902 25.3358 27.4557C24.6102 26.6311 24.3689 26.4849 23.9286 26.6029C23.5879 26.6941 23.5688 26.7323 23.7239 27.0114ZM41.5087 23.3788C41.5298 23.4575 41.4658 23.5436 41.3667 23.5701C41.0463 23.656 41.3353 24.5545 41.7311 24.7024C41.7897 24.7243 42.0769 25.1085 42.3694 25.5563C42.6617 26.004 42.9567 26.417 43.0247 26.4739C43.0927 26.5308 43.2446 26.7823 43.3624 27.0325C43.4802 27.2828 43.6246 27.4747 43.6835 27.4589C43.7423 27.4432 43.8984 27.6781 44.0301 27.981C44.1619 28.2839 44.3183 28.5187 44.3779 28.5027C44.4374 28.4868 44.5863 28.6928 44.7088 28.9607C44.8313 29.2285 44.9773 29.4353 45.0334 29.4203C45.0893 29.4053 45.2266 29.5838 45.3383 29.8169C45.45 30.05 45.5926 30.227 45.6551 30.2103C45.7175 30.1936 45.8769 30.4284 46.0089 30.732C46.1411 31.0358 46.3083 31.3022 46.3804 31.3238C46.4526 31.3456 46.5468 31.4947 46.5898 31.6551C46.6589 31.9128 46.8032 32.0526 47.5084 32.5446C47.603 32.6105 47.7629 32.6047 47.8635 32.5314C48.067 32.3834 47.7678 31.4555 47.4895 31.3717C47.4082 31.3472 47.2599 31.18 47.16 31.0001C47.06 30.8202 46.9189 30.6552 46.8463 30.6334C46.7738 30.6114 46.6914 30.5078 46.6633 30.4028C46.6154 30.2238 45.9809 29.3698 45.6039 28.9768C45.5106 28.8795 45.3397 28.6025 45.2241 28.3611C45.1084 28.1198 44.9629 27.936 44.9008 27.9526C44.8386 27.9693 44.7555 27.8626 44.716 27.7153C44.6766 27.5682 44.5165 27.2882 44.3603 27.0932C44.204 26.8983 43.8507 26.3995 43.5752 25.9848C43.2995 25.5701 43.005 25.155 42.9207 25.0624C42.8364 24.9698 42.6779 24.7209 42.5684 24.5093C42.4589 24.2977 42.3077 24.106 42.2324 24.0832C42.157 24.0606 42.0598 23.909 42.0162 23.7464C41.9727 23.5838 41.8321 23.4024 41.7037 23.3432C41.5425 23.2689 41.4822 23.2799 41.5087 23.3788ZM60.5715 18.6976C60.5965 18.791 60.6449 18.819 60.6791 18.7599C60.7131 18.7006 60.6926 18.6241 60.6336 18.5898C60.5744 18.5556 60.5464 18.6041 60.5715 18.6976ZM60.6202 19.049C60.5088 19.2424 60.6449 19.4978 60.8326 19.4475C60.9334 19.4205 61.0686 19.4482 61.1332 19.5091C61.2084 19.5801 61.1321 19.6216 60.9208 19.6249L60.5913 19.63L61.0468 21.6749C61.2973 22.7998 61.542 24.1061 61.5906 24.5781C61.719 25.8281 62.0811 26.6289 62.4708 26.5244C62.8595 26.4203 62.8526 26.3628 61.9787 22.3832C61.2422 19.0288 60.9893 18.408 60.6202 19.049ZM54.1244 28.5731C54.1113 28.6988 54.2159 28.9673 54.3568 29.1696C54.4976 29.372 54.6588 29.7054 54.7149 29.9105C54.8533 30.4166 55.0477 30.5675 55.3441 30.3985C55.6132 30.2451 55.2108 28.5956 54.8996 28.576C54.8238 28.5711 54.7402 28.486 54.7136 28.3867C54.6465 28.1365 54.1537 28.2925 54.1244 28.5731ZM72.47 25.6558C72.4689 25.7501 72.4599 26.0954 72.4501 26.4231C72.4348 26.9294 72.4643 27.0293 72.6457 27.0861C72.8283 27.1433 72.8315 27.1608 72.6672 27.2066C72.3288 27.3009 72.2355 29.0961 72.5734 29.0122C72.6262 28.999 72.8074 28.9884 72.9761 28.9884C73.2463 28.9886 73.2703 28.9412 73.1765 28.5913C73.1179 28.3727 73.1208 28.1803 73.1828 28.1637C73.2448 28.1471 73.2631 27.8502 73.2233 27.5038C73.1835 27.1573 73.1809 26.8045 73.2174 26.7196C73.3728 26.3585 73.2404 25.7225 72.9782 25.5707C72.6648 25.3893 72.4726 25.4216 72.47 25.6558ZM55.3325 30.7429C55.0621 31.1158 55.5642 32.1551 55.8976 31.9125C55.9861 31.8482 56.1396 31.7739 56.2388 31.7473C56.3464 31.7184 56.3847 31.5703 56.3338 31.3802C56.2683 31.1358 56.1814 31.0784 55.9611 31.1343C55.7046 31.1992 55.6939 31.1868 55.8616 31.0175C56.0846 30.7922 55.9925 30.3101 55.7395 30.3779C55.6423 30.4039 55.4591 30.5682 55.3325 30.7429ZM95.7591 23.3575C95.4413 23.8864 95.1591 24.3249 95.1322 24.3322C95.1052 24.3394 95.0064 24.4735 94.9127 24.6301C94.8191 24.7867 94.4605 25.3286 94.1159 25.8344C93.7712 26.3401 93.2052 27.235 92.8582 27.8232L92.2271 28.8924L92.5641 29.0875L92.9011 29.2825L93.4313 28.4107C93.7229 27.9311 94.32 26.9609 94.7581 26.2547C95.1963 25.5484 95.6107 24.8788 95.6791 24.7664C95.7475 24.6542 95.8629 24.5463 95.9354 24.5269C96.1367 24.473 96.7605 23.4813 96.7105 23.2947C96.6863 23.2043 96.7435 23.0743 96.8377 23.0058C97.0872 22.8243 96.9247 22.3928 96.6075 22.3946C96.41 22.3956 96.1808 22.6557 95.7591 23.3575ZM26.3044 41.8063C26.2292 42.0536 26.2864 42.1196 26.7361 42.3049C27.0212 42.4224 27.6825 42.7578 28.2055 43.0502C29.6778 43.8731 31.7546 44.9293 31.9294 44.9441C32.0161 44.9515 32.5608 45.2375 33.14 45.5798C34.7663 46.5409 35.7736 46.7574 35.5996 46.108C35.5291 45.845 34.3331 45.1328 34.077 45.2014C34.0385 45.2117 33.7638 45.0855 33.4662 44.9209C32.8773 44.5951 31.1502 43.744 30.5794 43.498C30.3833 43.4135 29.6929 43.0451 29.0454 42.6792C26.7997 41.4104 26.458 41.3017 26.3044 41.8063ZM49.363 35.5667C49.3354 35.8309 49.5069 35.8811 49.8225 35.7012C49.9745 35.6145 50.0262 35.4968 49.9552 35.3989C49.8019 35.1876 49.3902 35.3041 49.363 35.5667ZM39.1899 39.6647C39.1003 39.8604 39.1736 39.9522 39.6268 40.2121C40.3294 40.615 40.9229 41.0392 40.9558 41.1622C40.9701 41.2155 41.1241 41.3323 41.2981 41.4217C41.472 41.5111 41.635 41.6614 41.6603 41.7558C41.6856 41.8501 41.7521 41.915 41.8079 41.9C41.8638 41.8851 42.1108 42.0625 42.3567 42.2944C42.8998 42.8063 43.1485 42.8535 43.3495 42.4825C43.5028 42.1997 43.103 41.5564 42.8197 41.6297C42.767 41.6434 42.7088 41.5977 42.6902 41.5282C42.6715 41.4586 42.4037 41.2076 42.0949 40.9703C41.5617 40.5604 41.3447 40.4055 40.2261 39.6366C39.7111 39.2825 39.3609 39.292 39.1899 39.6647ZM60.9105 34.4663C59.1316 35.0966 57.96 35.6211 57.9498 35.7915C57.9429 35.9077 57.8835 35.9226 57.7223 35.8482C57.5766 35.7811 57.4623 35.8035 57.3787 35.9157C57.3098 36.0082 56.9826 36.1957 56.6518 36.3324C56.321 36.4691 56.0012 36.6498 55.9413 36.7339C55.8812 36.8181 55.571 37.0002 55.252 37.1389C54.933 37.2775 54.6855 37.4418 54.7021 37.504C54.7188 37.5661 54.604 37.6534 54.4473 37.698C54.2906 37.7426 53.9629 37.9512 53.7193 38.1618C53.4758 38.3723 53.2135 38.5634 53.1365 38.5866C53.0596 38.6098 52.7053 38.8904 52.3492 39.2104C51.9931 39.5303 51.6352 39.8107 51.5537 39.8335C51.4724 39.8562 51.3983 39.923 51.389 39.9819C51.3798 40.0408 51.0017 40.4236 50.5489 40.8329C49.4023 41.8689 49.079 42.1905 49.0596 42.3142C49.0503 42.3731 48.988 42.4359 48.921 42.4538C48.7784 42.492 48.144 43.2298 48.1196 43.386C48.1103 43.4449 48.0456 43.5083 47.9757 43.527C47.8021 43.5736 47.0164 44.6617 46.4474 45.6437C46.1892 46.0893 45.6633 46.8745 45.2787 47.3887C44.2621 48.7477 42.4412 52.0341 42.396 52.5913C42.3892 52.6766 42.3184 52.813 42.2386 52.8945C42.159 52.9759 42.1161 53.1257 42.1434 53.2275C42.1706 53.3291 42.1368 53.4274 42.0681 53.4458C41.9995 53.4641 41.9459 53.6323 41.9489 53.8193C41.952 54.0064 41.9128 54.1706 41.862 54.1843C41.7149 54.2237 40.8013 58.9056 40.8819 59.2063C40.9039 59.2884 40.8647 59.371 40.7947 59.3897C40.7247 59.4085 40.6848 59.4961 40.7059 59.5844C40.7269 59.6727 40.6952 60.004 40.6351 60.3207C40.575 60.6375 40.5462 60.9834 40.571 61.0895C40.5958 61.1956 40.5942 61.565 40.5673 61.9104C40.5309 62.3797 40.606 62.7891 40.8648 63.5306C41.1474 64.3404 41.1845 64.5747 41.0668 64.8049C40.9249 65.0825 40.9179 65.5908 41.0381 66.9087C41.1166 67.768 42.0721 71.3266 42.4587 72.1992C42.6224 72.5687 43.0045 73.4502 43.3077 74.1581C44.1342 76.0873 44.5773 77.0138 44.727 77.1258C44.8009 77.1812 44.9669 77.4596 45.0958 77.7444C45.2246 78.0292 45.3823 78.2484 45.4462 78.2313C45.5101 78.2142 45.5972 78.3293 45.6399 78.4869C45.6826 78.6444 45.8354 78.902 45.9793 79.0591C46.1233 79.2162 46.3518 79.5994 46.4871 79.9106C46.6226 80.2218 46.7963 80.4953 46.8731 80.5186C46.95 80.5417 47.0373 80.6517 47.067 80.7629C47.126 80.9831 48.4992 82.6316 48.6766 82.6951C48.7366 82.7166 48.8605 82.8526 48.952 82.9972C49.0433 83.1417 49.1648 83.2476 49.222 83.2323C49.2791 83.217 49.3863 83.2959 49.4602 83.4076C49.5343 83.5192 49.6741 83.6817 49.7709 83.7685C49.8678 83.8552 50.1052 84.1298 50.2986 84.3787C50.4919 84.6275 50.9527 85.191 51.3225 85.631C51.6922 86.0709 52.0113 86.4928 52.0315 86.5684C52.0518 86.644 52.121 86.6917 52.1855 86.6744C52.2499 86.6572 52.3865 86.8051 52.4889 87.0031C52.5913 87.2011 52.7233 87.3502 52.7822 87.3345C52.8411 87.3187 52.9731 87.4678 53.0756 87.6658C53.178 87.8638 53.3145 88.0117 53.3789 87.9945C53.4434 87.9772 53.5258 88.0738 53.562 88.209C53.5982 88.3442 53.7332 88.5158 53.862 88.5904C53.9907 88.665 54.174 88.8662 54.2693 89.0376C54.3646 89.2091 54.489 89.3369 54.5459 89.3216C54.6027 89.3064 54.7331 89.456 54.8355 89.654C54.9379 89.852 55.0745 89.9999 55.1389 89.9827C55.2034 89.9654 55.2733 90.0155 55.2943 90.0939C55.3416 90.2708 56.6498 91.5423 56.8056 91.563C56.8681 91.5714 56.9383 91.6494 56.9615 91.7363C57.0248 91.9722 58.4021 93.0989 59.5366 93.8428C60.1544 94.2481 60.0751 94.0452 61.1251 97.9031C61.6635 99.881 61.9139 100.634 62.0617 100.72C62.1728 100.784 62.297 100.954 62.3379 101.097C62.3789 101.24 62.5843 101.557 62.7947 101.802C63.0051 102.046 63.1983 102.317 63.2242 102.404C63.2501 102.491 63.3285 102.547 63.3984 102.528C63.4684 102.509 63.5443 102.564 63.5672 102.649C63.6149 102.827 65.8215 104.784 66.3778 105.142C66.6199 105.297 66.7166 105.435 66.6569 105.538C66.3546 106.063 67.2231 106.833 67.9105 106.648C68.3391 106.534 68.5997 106.713 68.3969 106.983C68.0334 107.467 68.0205 108.787 68.3809 108.617C68.4487 108.585 68.5804 108.946 68.699 109.488C68.8983 110.401 68.9077 110.416 69.3639 110.564L69.8267 110.713L69.6053 111.046C69.2168 111.631 69.0966 112.205 69.2762 112.618C69.4421 112.999 69.9585 113.758 70.1131 113.848C70.6111 114.136 71.0669 114.958 70.7728 115.037C70.6678 115.065 70.5956 115.139 70.6124 115.202C70.6292 115.265 70.5204 115.384 70.3708 115.467C70.02 115.663 69.8406 116.669 70.1061 116.953C70.5121 117.387 70.7863 118.256 70.6123 118.558C70.3919 118.941 70.7823 120.894 71.1207 121.102C71.6962 121.455 72.2426 122.274 72.4169 123.044C72.6013 123.86 74.0262 125.098 74.6025 124.943C74.7099 124.914 75.8345 125.531 75.8621 125.634C75.8892 125.735 77.0631 126.612 77.5245 126.876C77.768 127.015 78.3831 127.25 78.8913 127.397C79.3996 127.545 79.8262 127.706 79.8393 127.755C79.8525 127.804 80.1078 127.9 80.4066 127.969C81.014 128.108 82.1206 128.635 82.1666 128.807C82.2032 128.944 82.8171 129.38 83.326 129.631C83.532 129.733 83.7903 129.866 83.9 129.927C84.0098 129.988 84.2598 130.035 84.4555 130.032C84.6513 130.029 84.8236 130.072 84.8385 130.128C84.8729 130.256 86.0715 130.075 87.3942 129.743C88.3774 129.495 89.2104 129 89.6155 128.422C89.6759 128.336 89.8585 128.075 90.0213 127.842C90.184 127.61 90.7395 127.05 91.2558 126.598C91.7721 126.145 92.2148 125.736 92.2396 125.689C92.352 125.475 92.96 124.807 93.0694 124.778C93.1364 124.76 93.1987 124.697 93.208 124.638C93.2291 124.504 93.8575 123.747 93.9737 123.716C94.021 123.703 94.1484 123.524 94.2569 123.318C94.3656 123.112 94.508 122.904 94.5736 122.857C94.7311 122.744 95.8786 120.996 96.4805 119.953C97.2754 118.575 97.296 118.486 97.0034 117.677C96.7932 117.095 96.7804 116.951 96.9359 116.909C97.6984 116.705 97.7393 115.317 96.9952 114.894C96.4993 114.612 96.4288 114.508 96.2746 113.837C96.2114 113.562 96.2475 113.365 96.3779 113.272C97.0448 112.798 96.9201 111.575 96.1682 111.217C95.2398 110.775 94.7144 109.715 95.3407 109.547C95.5775 109.484 95.8633 108.68 95.7713 108.336C95.6824 108.004 95.3534 107.695 94.5483 107.188C94.0582 106.878 93.9873 105.826 94.447 105.684C95.1476 105.468 94.7836 104.272 93.8707 103.791C93.2798 103.48 92.9026 102.93 93.1452 102.734C93.2728 102.63 93.5873 101.712 93.5469 101.561C93.5273 101.488 93.5615 101.415 93.6228 101.399C93.6841 101.382 93.6778 101.057 93.6087 100.676C93.521 100.191 93.5443 99.8768 93.6863 99.6302C93.9336 99.2008 93.8802 98.9489 93.4952 98.7261C93.2136 98.5631 93.2191 98.5435 93.6533 98.1712C94.7293 97.2485 95.7784 95.1417 95.5651 94.332C95.5355 94.22 95.579 93.9257 95.6617 93.6781C95.7444 93.4305 95.7556 93.016 95.6866 92.7571C95.6178 92.4981 95.6092 92.2354 95.6675 92.1734C95.7307 92.1061 95.5534 91.2236 95.2295 89.9937C94.9303 88.857 94.6209 87.4831 94.5419 86.9405C94.3037 85.3044 94.1986 84.0262 94.2997 83.9991C94.3523 83.985 94.3926 83.8057 94.3892 83.6007C94.3858 83.3956 94.4151 83.188 94.4541 83.1392C94.5618 83.0048 94.9648 80.8996 94.917 80.7211C94.894 80.6353 94.9279 80.5511 94.9924 80.5338C95.0568 80.5166 95.1011 80.3202 95.0908 80.0975C95.0805 79.8748 95.1202 79.6796 95.1791 79.6639C95.238 79.6481 95.2778 79.4529 95.2675 79.2302C95.2571 79.0075 95.2953 78.8128 95.3521 78.7976C95.409 78.7824 95.4527 78.6021 95.4493 78.3971C95.446 78.1921 95.4773 77.9839 95.5188 77.9344C95.6362 77.7948 96.1186 76.0456 96.0797 75.9005C96.0607 75.8295 96.1222 75.7154 96.2163 75.6469C96.3105 75.5785 96.3639 75.4346 96.3351 75.3271C96.3064 75.2197 96.3363 75.1176 96.4015 75.1001C96.4668 75.0826 96.5257 74.9284 96.5326 74.7575C96.5395 74.5865 96.5761 74.4076 96.614 74.3599C96.7348 74.208 97.2043 72.4641 97.1645 72.3155C97.1435 72.2371 97.1835 72.1575 97.2535 72.1388C97.3234 72.12 97.3632 72.0394 97.3418 71.9596C97.3204 71.8798 97.4539 71.519 97.6384 71.1579C98.2417 69.9771 98.4245 69.4875 98.5983 68.588C98.8761 67.1498 98.9271 66.6805 98.8404 66.3566C98.7953 66.1883 98.7961 65.9822 98.842 65.8986C98.888 65.8149 98.8921 65.3864 98.8512 64.9463C98.8102 64.5064 98.788 63.8052 98.8018 63.3881C98.8155 62.971 98.7805 62.2425 98.7239 61.7691C98.6673 61.2958 98.6461 60.8032 98.6766 60.6745C98.7073 60.5458 98.6977 60.1486 98.6553 59.792C98.6129 59.4353 98.6132 59.0626 98.656 58.964C98.9215 58.3504 96.6787 49.9696 96.1429 49.5734C96.054 49.5076 95.853 49.1346 95.6962 48.7443C95.5395 48.3541 95.3648 48.0474 95.3078 48.0627C95.2508 48.0779 95.0962 47.8426 94.9645 47.5397C94.8327 47.2368 94.6776 47.0017 94.6197 47.0172C94.5618 47.0327 94.4241 46.8569 94.3137 46.6266C94.2034 46.3963 93.9868 46.07 93.8324 45.9015C93.6781 45.7331 93.5322 45.5236 93.5082 45.436C93.4844 45.3485 93.4075 45.2922 93.3375 45.3109C93.2676 45.3297 93.1836 45.2445 93.1512 45.1217C93.0741 44.8302 90.5353 41.9622 90.3892 42.0014C90.3275 42.0179 90.2575 41.9583 90.2336 41.8691C90.2097 41.7798 89.908 41.4556 89.5633 41.1486C89.2185 40.8415 88.9295 40.5642 88.9209 40.5323C88.9123 40.5003 88.8285 40.4206 88.7345 40.355C88.1106 39.9194 87.8928 39.7486 87.8746 39.6807C87.8632 39.6381 87.6865 39.4944 87.4822 39.3614C87.2779 39.2284 86.8169 38.9045 86.4581 38.6416C85.6165 38.0251 83.4747 36.786 82.5256 36.3665C82.1185 36.1865 81.7205 35.9799 81.641 35.9071C81.5616 35.8345 81.4183 35.796 81.3227 35.8216C81.2271 35.8472 81.1181 35.8298 81.0805 35.7831C80.9821 35.6603 78.6981 34.885 78.551 34.9244C78.4832 34.9426 78.4133 34.904 78.3957 34.8386C78.3782 34.7731 78.2242 34.714 78.0537 34.7069C77.8831 34.6997 77.7044 34.6629 77.6567 34.6248C77.5049 34.5037 75.7638 34.0314 75.6156 34.0712C75.5373 34.0921 75.4604 34.0614 75.4446 34.0027C75.396 33.821 71.6034 33.0964 71.2278 33.1971C71.12 33.2259 70.9855 33.2058 70.9289 33.1524C70.8722 33.099 70.5721 33.0802 70.262 33.1107C69.9518 33.1412 69.6289 33.137 69.5443 33.1013C69.4598 33.0657 69.0218 33.0917 68.571 33.1592C68.1202 33.2266 67.7095 33.2424 67.6586 33.1942C67.6075 33.1459 67.17 33.1731 66.6862 33.2543C66.2027 33.3355 65.6792 33.3836 65.5232 33.3609C65.124 33.303 62.2493 33.9919 60.9105 34.4663ZM58.5738 36.1777C58.5926 36.2479 58.5473 36.3215 58.4732 36.3413C58.3992 36.3612 58.3585 36.3106 58.383 36.2289C58.4074 36.1472 58.4526 36.0736 58.4835 36.0653C58.5145 36.057 58.555 36.1076 58.5738 36.1777ZM66.2337 34.7402C66.2618 34.8454 66.2031 34.9534 66.1031 34.9802C65.846 35.0491 65.6172 35.493 65.693 35.7759C65.7494 35.9864 65.7988 35.9869 66.1031 35.7796C66.2934 35.6501 66.4352 35.4922 66.4182 35.429C66.4013 35.3657 66.9026 35.1759 67.5324 35.0072C68.1622 34.8384 68.6911 34.7515 68.7079 34.8141C68.7246 34.8766 68.878 34.9255 69.0488 34.923C69.2196 34.9204 69.544 35.0655 69.7698 35.2456L70.1802 35.5731L69.9548 35.8841C69.8308 36.055 69.5926 36.2316 69.4254 36.2764C69.2583 36.3212 69.1369 36.4152 69.1557 36.4853C69.1745 36.5555 69.2929 36.5852 69.4188 36.5515C69.5448 36.5177 69.7161 36.527 69.7994 36.5724C70.2823 36.8342 71.5609 36.4189 71.7492 35.939C71.9341 35.4673 72.7282 35.06 72.987 35.3041C73.0408 35.355 73.4401 35.3432 73.8744 35.2781C74.3086 35.213 74.677 35.2091 74.6933 35.2697C74.7095 35.3301 74.9618 35.357 75.254 35.3294C75.5462 35.3019 75.8316 35.3231 75.8883 35.3765C76.0506 35.5297 76.2359 35.4289 76.1794 35.2183C76.15 35.1085 76.2429 34.9963 76.3975 34.9549C76.6053 34.8992 76.6671 34.9459 76.6686 35.1589C76.67 35.3791 76.8418 35.4894 77.5141 35.7022C78.5301 36.0237 78.6914 36.149 78.3765 36.3723C78.0389 36.6117 78.4015 36.8429 79.0351 36.7923C79.3032 36.7709 79.5603 36.7804 79.6067 36.8135C79.6531 36.8466 80.0157 36.9405 80.4125 37.022C80.8094 37.1036 81.1724 37.1988 81.2192 37.2335C81.3499 37.3305 82.7548 37.8976 82.8206 37.88C82.8525 37.8714 83.0856 37.9781 83.3384 38.117C83.5914 38.2559 84.0927 38.5042 84.4526 38.6687C84.9872 38.9131 85.1081 39.028 85.1126 39.2956C85.1164 39.5266 85.2252 39.6898 85.4821 39.8493C85.8739 40.0928 85.7259 40.2436 85.3235 40.0107C85.1904 39.9336 85.0463 39.88 85.0036 39.8915C84.9607 39.9029 84.7235 39.8324 84.4764 39.735C83.3294 39.2824 84.1257 39.8822 86.341 41.1399C87.6779 41.8988 88.7875 42.5791 88.807 42.6516C88.8264 42.724 88.9847 42.8567 89.1586 42.946C89.3325 43.0354 89.4943 43.181 89.518 43.2695C89.5417 43.358 89.609 43.4379 89.6679 43.4473C89.7267 43.4566 90.108 43.8361 90.5155 44.2906C91.0383 44.8737 91.211 45.0085 91.1024 44.7483C91.0178 44.5455 90.9917 44.4449 91.0444 44.5247C91.0972 44.6046 91.1935 44.6556 91.2582 44.6382C91.3231 44.6208 91.3981 44.6886 91.425 44.7888C91.4518 44.8889 91.5657 45.0275 91.678 45.0968C91.9737 45.2791 92.7599 46.2087 92.8256 46.4538C92.8564 46.5689 92.9389 46.6476 93.0089 46.6289C93.0789 46.6101 93.1669 46.7095 93.2044 46.8498C93.242 46.99 93.1908 47.1267 93.0908 47.1535C92.9907 47.1803 92.9228 47.337 92.94 47.5014C92.9778 47.8638 93.3405 48.4531 93.4996 48.4105C93.5627 48.3936 93.6367 48.463 93.6639 48.5646C93.6912 48.6664 93.7974 48.7762 93.8998 48.8089C94.2849 48.9316 94.7508 49.5538 94.4588 49.5554C94.3178 49.5561 94.1889 49.5061 94.1723 49.4441C94.1247 49.2665 93.7546 49.4154 93.7332 49.621C93.7226 49.7226 93.8451 49.9497 94.0054 50.1255C94.1658 50.3013 94.2667 50.4976 94.2296 50.5616C94.1925 50.6258 94.4396 51.5756 94.7789 52.6725C95.3868 54.6372 95.4705 54.8059 96.2482 55.6321C96.3463 55.7363 96.5429 56.2557 96.685 56.7862L96.9435 57.7509L96.5831 57.9962L96.2228 58.2417L96.5541 59.1437C96.8816 60.0358 96.8821 60.0512 96.5908 60.557C96.3033 61.0564 96.3036 61.0871 96.6049 61.879C96.9259 62.7222 97.229 64.7661 97.0405 64.8166C96.9827 64.8321 96.9529 64.9102 96.9743 64.9901C97.0469 65.2611 96.7603 66.4614 96.5314 66.8452C96.2552 67.3084 95.964 67.1293 95.9212 66.4695C95.9055 66.2271 95.8426 66.0941 95.7549 66.1176C95.5534 66.1716 95.2757 66.7933 95.3423 67.0417C95.3732 67.1572 95.3609 67.3203 95.3147 67.404C95.2686 67.4878 95.4236 68.3524 95.6592 69.3255C95.9124 70.3718 96.0427 71.1467 95.9778 71.2216C95.9175 71.2913 95.7915 71.6149 95.6977 71.9407C95.4327 72.8618 95.1665 73.2837 94.7747 73.404C94.4452 73.5051 94.4221 73.5681 94.4783 74.2147C94.5117 74.6004 94.4921 74.9285 94.435 74.9438C94.3777 74.9591 94.3484 75.0371 94.3699 75.117C94.4218 75.3107 94.174 76.5729 94.0672 76.6593C94.021 76.6968 94.0008 76.7945 94.0223 76.8763C94.0437 76.9583 94.0244 77.1917 93.9794 77.395C93.9343 77.5982 93.9101 77.9601 93.9256 78.1992C93.9411 78.4383 93.8526 78.7975 93.7288 78.9975C93.5965 79.2113 93.5281 79.5894 93.563 79.9146C93.6224 80.4677 93.5009 81.2337 93.2891 81.6429C93.2273 81.7622 93.1987 81.9418 93.2255 82.0418C93.2524 82.1421 93.2217 82.2382 93.1572 82.2554C93.0928 82.2727 93.0485 82.469 93.0588 82.6917C93.0691 82.9145 93.033 83.1086 92.9787 83.1232C92.9244 83.1377 92.8716 83.3516 92.8615 83.5987C92.8455 83.989 92.8227 83.9459 92.6869 83.2697L92.5308 82.4916L92.4678 82.9868C92.4333 83.2591 92.4352 83.6122 92.4721 83.7714C92.509 83.9305 92.4846 84.0755 92.4178 84.0934C92.351 84.1113 92.3126 84.3375 92.3325 84.596C92.3525 84.8545 92.3263 85.1112 92.2746 85.1662C92.1459 85.303 92.3423 85.9905 92.5258 86.0459C92.6149 86.0727 92.8695 86.8399 93.1635 87.967L93.653 89.8435L93.1416 88.8189L92.6301 87.7944L92.6822 88.3906C92.7109 88.7185 92.9187 89.7229 93.1438 90.6227C93.5723 92.3347 93.5658 93.3145 93.1263 93.2681C93.0247 93.2573 92.9877 93.2919 93.044 93.3452C93.1004 93.3983 93.0853 93.548 93.0107 93.6777C92.9359 93.8073 92.8795 94.0888 92.8853 94.303C92.8912 94.5172 92.8686 94.7613 92.8352 94.8454C92.8017 94.9295 92.7845 95.1954 92.797 95.4364C92.8095 95.6774 92.7669 95.8886 92.7025 95.9058C92.638 95.9231 92.6061 96.0145 92.6314 96.109C92.6792 96.2872 92.4922 96.7652 92.1298 97.3917C91.9174 97.7588 91.3705 98.0189 91.3073 97.7829C91.2885 97.7128 91.1014 97.7014 90.8914 97.7577C90.637 97.8258 90.5269 97.9237 90.561 98.0512C90.646 98.3683 89.9939 98.4428 89.2413 98.202C88.6601 98.0161 88.4923 98.0152 88.2052 98.1963C86.1379 99.5016 85.5646 99.7597 85.475 99.4253C85.4484 99.326 85.3552 99.2404 85.2682 99.2352C85.1551 99.2283 85.1282 99.1439 85.1744 98.9413C85.2655 98.5419 84.1841 93.8155 84.0121 93.8616C83.9395 93.881 83.8655 93.9778 83.8477 94.0764C83.83 94.1752 83.8022 94.1057 83.786 93.9221C83.7599 93.6258 83.2026 91.2877 83.0567 90.8629C83.0188 90.7523 82.9177 90.7508 82.7498 90.8584C82.5391 90.9932 82.5044 90.977 82.531 90.7553C82.6135 90.0692 82.4439 89.4909 82.0969 89.2753C81.8677 89.1328 81.7526 88.9605 81.7512 88.7578C81.7501 88.5905 81.6711 88.3981 81.5758 88.3302C81.0985 87.9902 79.6874 84.16 79.8772 83.7196C80.0505 83.3168 79.883 82.5525 79.5831 82.379C79.2834 82.2055 79.1223 81.6734 79.2085 81.1418C79.2339 80.9847 79.2266 80.4947 79.1921 80.053C79.1575 79.6113 79.1037 78.8263 79.0724 78.3086C79.0411 77.7908 78.988 76.9749 78.9543 76.4954C78.9205 76.0159 78.915 75.5562 78.9417 75.4739C78.9686 75.3915 78.9551 75.0262 78.9118 74.662C78.8685 74.2978 78.8612 73.9308 78.8957 73.8464C78.9302 73.762 78.9154 73.3662 78.8627 72.967C78.81 72.5677 78.7955 72.1719 78.8304 72.0874C78.8653 72.0029 78.8714 71.6015 78.844 71.1955C78.7645 70.0152 78.7259 68.8525 78.7587 68.622C78.7753 68.5048 78.7697 68.1066 78.7465 67.737C78.7232 67.3674 78.697 66.6673 78.6882 66.1811C78.6793 65.695 78.6542 64.9638 78.6322 64.5563C78.6103 64.1488 78.6125 63.7485 78.6374 63.6667C78.6621 63.5849 78.6522 63.2186 78.6152 62.8527C78.5711 62.4167 78.5922 62.2844 78.6764 62.4684C78.8701 62.8919 79.1958 62.6444 79.1793 62.0863C79.1716 61.8255 79.1908 61.5109 79.2219 61.3874C79.2531 61.2639 79.2678 60.9524 79.2546 60.6954C79.2414 60.4383 79.2628 60.1546 79.302 60.0649C79.3414 59.9751 79.3233 59.488 79.2622 58.9823C79.081 57.4863 79.0288 56.5925 79.093 56.0823C79.1262 55.8185 79.1125 55.306 79.0627 54.9436L78.9721 54.2846L78.9073 54.8486C78.8717 55.1587 78.8416 55.5973 78.8405 55.823L78.8386 56.2335L78.716 55.8287C78.6176 55.503 78.2849 54.9621 78.0566 54.7566C78.0347 54.7368 77.908 54.7903 77.7751 54.8754C77.5061 55.0478 77.5757 55.6145 77.8704 55.6509C77.9804 55.6643 77.9679 55.6977 77.8373 55.7394C77.7222 55.7761 77.6236 55.8799 77.6182 55.9698C77.6119 56.0775 77.5353 56.1096 77.3936 56.0641C77.2753 56.0261 76.188 56.1912 74.9773 56.431C72.186 56.9838 70.0963 57.301 69.7709 57.2215C69.6316 57.1875 69.4451 57.1786 69.3566 57.2019C68.6269 57.394 68.1698 57.2325 68.0366 56.7355C67.8772 56.1407 67.1471 55.6401 66.9159 55.9672C66.8373 56.0784 66.8449 56.196 66.9352 56.264C67.0172 56.3259 67.1735 56.5796 67.2824 56.8276C67.6238 57.605 67.6322 57.6009 63.3424 58.7092C59.1513 59.7922 59.3217 59.7169 58.6943 60.7634C58.5425 61.0167 58.3096 61.2927 58.1768 61.3768C58.0441 61.4609 57.9182 61.5826 57.8974 61.6472C57.7739 62.0292 57.2244 62.1107 57.0889 61.7672C56.9371 61.3824 56.4935 61.3125 56.3837 61.6561C56.3125 61.8788 56.5949 62.53 56.8241 62.6721C56.9045 62.7218 57.0407 63.0236 57.1266 63.3426C57.2126 63.6614 57.4092 64.0604 57.5636 64.2288C57.7179 64.3973 57.9345 64.7236 58.0449 64.9539C58.1553 65.1842 58.2965 65.359 58.3586 65.3424C58.4208 65.3257 58.5143 65.4697 58.5664 65.6625C58.6186 65.8553 58.7784 66.141 58.9218 66.2974C59.0653 66.4538 59.2813 66.7879 59.402 67.0396C59.5226 67.2914 59.6966 67.5773 59.7887 67.6749C59.8808 67.7725 60.1929 68.2501 60.4825 68.7362C60.772 69.2223 61.0894 69.7215 61.1879 69.8454C61.2864 69.9693 61.4597 70.2591 61.5728 70.4894C61.6859 70.7197 61.8457 70.9843 61.9278 71.0775C62.01 71.1707 62.3175 71.6438 62.6109 72.1288C62.9044 72.6139 63.2143 73.0866 63.2996 73.1794C63.3849 73.2723 63.5601 73.5786 63.6887 73.8602C63.8175 74.1419 63.98 74.3894 64.0497 74.4105C64.1196 74.4315 64.2839 74.6952 64.415 74.9966C64.546 75.2979 64.6967 75.5329 64.7499 75.5186C64.8029 75.5044 64.9455 75.7149 65.0668 75.9863C65.188 76.2578 65.3633 76.5643 65.4563 76.6677C65.5493 76.771 65.8667 77.2521 66.1614 77.7368C66.456 78.2216 66.7769 78.7198 66.8741 78.844C66.9713 78.9683 67.1434 79.2604 67.2563 79.4932C67.3692 79.726 67.5211 79.962 67.5938 80.0177C67.6667 80.0733 67.8316 80.3521 67.9606 80.6369C68.0894 80.9217 68.2406 81.1426 68.2965 81.1276C68.3525 81.1126 68.5054 81.347 68.6365 81.6483C68.7675 81.9497 68.9289 82.2125 68.9951 82.2325C69.0612 82.2524 69.2151 82.4919 69.337 82.765C69.4589 83.0379 69.6369 83.3451 69.7326 83.4477C70.3371 84.0961 70.8532 85.212 70.6843 85.5053C70.5555 85.7289 71.2641 88.3307 71.7005 89.2369C72.2381 90.353 72.3649 91.0391 72.0814 91.296C71.0763 92.207 70.8668 92.831 71.452 93.1697C71.6443 93.281 71.7032 93.4604 71.7797 94.1684C71.8801 95.0974 73.2047 99.806 73.5537 100.475C73.7186 100.791 73.7264 100.919 73.5889 101.053C73.4913 101.148 73.455 101.384 73.5079 101.581C73.6873 102.251 73.3069 102.577 71.4563 103.339C69.8482 104.002 69.1468 104.214 68.4421 104.252C68.014 104.276 67.899 104.33 67.8147 104.548C67.7578 104.696 67.6401 104.795 67.5531 104.768C67.353 104.708 67.2541 104.365 67.4236 104.319C67.4936 104.3 67.5357 104.228 67.5171 104.159C67.4651 103.965 66.9276 103.632 66.7451 103.681C66.6557 103.705 66.5595 103.639 66.5313 103.533C66.5031 103.428 66.4228 103.357 66.3528 103.376C66.2829 103.395 66.2076 103.343 66.1856 103.261C66.1636 103.179 66.0351 103.04 65.9001 102.953C65.765 102.865 65.5719 102.605 65.4709 102.374C65.3698 102.143 65.3403 102.016 65.4054 102.093C65.5241 102.233 66.1573 102.138 66.1167 101.986C66.1048 101.942 65.9163 101.811 65.6978 101.695C65.4793 101.579 65.2856 101.429 65.2672 101.36C65.2489 101.292 65.1179 101.169 64.9762 101.087C64.8246 100.999 64.6056 100.63 64.4449 100.193C64.284 99.7548 64.1149 99.4704 64.0345 99.5025C63.5902 99.6793 63.5542 99.6316 63.3619 98.609C62.868 95.981 62.7717 95.554 62.6335 95.3778C62.5098 95.22 62.4854 95.2436 62.4866 95.5196C62.4902 96.339 62.2042 96.0353 61.8988 94.8957C61.5119 93.4518 61.3181 93.0634 60.8314 92.7564C60.3472 92.4512 59.8819 91.9485 59.7999 91.6424C59.7658 91.5152 59.566 91.2276 59.356 91.0035C59.1459 90.7792 58.9509 90.5096 58.9227 90.4042C58.8731 90.2193 58.7149 90.1973 58.3916 90.3307C58.209 90.4062 58.0201 89.8119 58.1745 89.6475C58.4453 89.3595 58.1681 89.171 57.6701 89.3044C57.2021 89.4298 57.1425 89.4103 56.978 89.077C56.879 88.8766 56.7398 88.695 56.6687 88.6736C56.5977 88.6521 56.5131 88.5361 56.4808 88.4155C56.4485 88.295 56.0291 87.8747 55.5487 87.4814C55.0684 87.0881 54.6557 86.6931 54.6317 86.6034C54.6077 86.5139 54.5372 86.4543 54.475 86.4709C54.4129 86.4876 54.2708 86.3108 54.1592 86.0783C54.0478 85.8457 53.727 85.4036 53.4463 85.0961C53.0459 84.6569 52.9532 84.4806 53.0155 84.2758C53.0813 84.0598 53.0214 83.9945 52.6663 83.8952C52.4306 83.8293 52.2154 83.6924 52.1883 83.5912C52.1612 83.4901 52.0863 83.4213 52.0218 83.4386C51.9575 83.4559 51.8209 83.308 51.7185 83.11C51.616 82.9119 51.4795 82.764 51.4151 82.7813C51.3506 82.7986 51.2731 82.72 51.2427 82.6065C51.2054 82.4673 51.1151 82.4417 50.964 82.5279C50.5202 82.7808 50.3799 82.5943 49.949 81.1793C49.7209 80.4299 49.5014 79.7979 49.4612 79.7747C49.3408 79.705 49.0833 80.1456 49.134 80.3345C49.1962 80.5668 49.0939 80.5828 48.7648 80.3923C48.5639 80.276 48.4333 80.0097 48.2596 79.3612C48.1265 78.8645 47.9542 78.4638 47.8607 78.4335C47.6669 78.3705 46.7519 77.0422 46.6561 76.6847C46.6197 76.549 46.5309 76.42 46.4586 76.3982C46.3866 76.3765 46.2162 76.103 46.0804 75.7905C45.9444 75.478 45.7515 75.1139 45.6519 74.9812C45.5521 74.8486 45.3781 74.5344 45.265 74.2828C44.8757 73.4167 44.7635 73.8411 45.1095 74.871C45.3836 75.6869 45.3961 75.7836 45.187 75.475C45.05 75.2729 44.8838 75.0765 44.8174 75.0388C44.751 75.0011 44.672 74.8795 44.6419 74.7685C44.6116 74.6576 44.4459 74.4202 44.2734 74.241C43.7432 73.6899 41.604 66.7638 41.6224 65.6578C41.6275 65.3552 41.7039 64.7934 41.7921 64.4094C41.8916 63.9766 41.8973 63.5079 41.8075 63.1765C41.6722 62.6788 41.6776 60.8095 41.8149 60.6196C41.8486 60.5729 41.9092 60.1063 41.9495 59.5826C41.99 59.0589 42.1342 58.4054 42.2702 58.1302L42.5174 57.6299L42.583 58.0906C42.7115 58.9913 42.758 60.1681 42.683 60.6126C42.641 60.8606 42.6237 61.1267 42.6443 61.2037C42.665 61.2808 42.6246 61.3592 42.5546 61.3779C42.4847 61.3967 42.4463 61.4839 42.4694 61.5716C42.4924 61.6594 42.4688 61.9231 42.4168 62.1575C42.2678 62.83 42.3101 63.5838 42.5833 65.1219C42.7228 65.9078 42.7929 66.6472 42.7389 66.765C42.6168 67.0312 43.3213 69.7646 43.5697 69.9883C43.6937 70.1001 43.6743 69.785 43.5032 68.9129C43.1847 67.2876 43.0806 66.0678 43.2261 65.6668C43.3036 65.4534 43.2623 65.0341 43.1059 64.4452C42.8717 63.5644 42.8556 62.8608 43.0494 61.9969C43.1033 61.757 43.1148 61.4381 43.0752 61.2882C43.0355 61.1384 43.0445 60.8285 43.0952 60.5995C43.1459 60.3707 43.2064 60.2532 43.2299 60.3387C43.4309 61.0741 43.6486 59.7637 43.5203 58.5911C43.4662 58.0955 43.519 57.3845 43.6515 56.8304C43.6827 56.6997 43.6863 56.3606 43.6594 56.0767C43.5859 55.2997 43.7363 54.3709 44.1421 53.095C44.355 52.4254 44.5437 51.5422 44.5078 51.3822C44.4948 51.3242 44.6224 51.044 44.7913 50.7596C44.9604 50.475 45.1876 50.0064 45.2963 49.718C45.761 48.4864 47.5822 45.5794 47.7751 45.7613C47.8461 45.8283 48.0681 45.5917 48.3233 45.1772C49.0891 43.9331 49.4795 43.4209 50.0242 42.9458C50.1762 42.8132 50.3191 42.6572 50.3418 42.5992C50.3646 42.5412 50.5453 42.4142 50.7434 42.3171C50.9417 42.22 51.0281 42.2013 50.9355 42.2756C50.7298 42.4406 50.3482 43.1372 50.3861 43.2786C50.4012 43.3349 50.6846 43.2476 51.0159 43.0847C51.3472 42.9215 51.6049 42.7384 51.5886 42.6774C51.5723 42.6166 51.6485 42.5429 51.7579 42.5136C52.0525 42.4347 53.4396 41.2149 53.5717 40.9186C53.5951 40.8661 53.7324 40.7484 53.8766 40.6569C54.0208 40.5655 54.1257 40.4417 54.1097 40.3819C54.0937 40.3221 54.2422 40.1893 54.4397 40.0869C54.6373 39.9844 54.7847 39.8478 54.7674 39.7833C54.7501 39.7186 54.8333 39.6398 54.9522 39.6079C55.1228 39.5622 55.1269 39.5258 54.9708 39.4355C54.8148 39.3452 54.7293 39.3681 54.5655 39.5441C54.2921 39.8377 53.9756 39.916 53.9998 39.6842C54.0502 39.2015 57.3169 37.9434 57.7977 38.2216C57.9715 38.3221 58.2914 38.3032 58.8228 38.1608C59.5539 37.9649 59.7864 37.7528 59.3236 37.7039C59.0948 37.6798 58.9197 37.2411 59.0736 37.0775C59.2749 36.8632 60.8029 36.7166 61.0518 36.8877C61.2619 37.032 61.5487 36.9945 62.8899 36.647C63.7639 36.4207 64.5347 36.2523 64.6028 36.2728C64.6707 36.2934 64.7491 36.2347 64.7766 36.1425C64.8042 36.0503 64.7345 35.946 64.6216 35.9106C64.4698 35.863 64.4918 35.8256 64.7062 35.7665C64.8655 35.7227 65.0059 35.5919 65.0179 35.476C65.0305 35.3551 65.1986 35.2226 65.4119 35.1654C65.6253 35.1082 65.7933 34.9757 65.8059 34.8548C65.8181 34.7388 65.9077 34.6226 66.0052 34.5965C66.1026 34.5704 66.2055 34.635 66.2337 34.7402ZM65.2228 36.2409C65.2108 36.3569 65.2564 36.4369 65.3241 36.4188C65.3919 36.4006 65.4243 36.2997 65.3961 36.1945C65.3679 36.0893 65.3224 36.0093 65.2949 36.0167C65.2674 36.024 65.235 36.125 65.2228 36.2409ZM108.953 24.5139C108.941 24.6352 108.844 24.7577 108.738 24.7861C108.609 24.8207 108.59 24.9148 108.681 25.0747C108.84 25.3542 108.672 25.4483 108.482 25.1862C108.363 25.0223 108.338 25.029 108.205 25.2605C108.124 25.4004 108.001 25.5302 107.931 25.549C107.861 25.5677 107.743 25.6762 107.669 25.7899C107.34 26.2954 107.23 26.4143 106.942 26.5749C106.773 26.6689 106.647 26.7903 106.661 26.8446C106.676 26.8989 106.597 27.0039 106.485 27.0779C106.374 27.1521 106.21 27.2849 106.121 27.3733C105.682 27.8111 105.208 28.1917 105.05 28.2341C104.937 28.2642 104.923 28.3506 105.011 28.4718C105.105 28.6007 105.093 28.6451 104.974 28.6093C104.813 28.561 103.694 29.4107 103.438 29.7754C103.378 29.8605 103.225 30.0767 103.097 30.2557C102.863 30.584 102.956 30.845 103.275 30.7593C103.37 30.7339 103.496 30.7771 103.555 30.8552C103.64 30.969 103.655 30.965 103.629 30.8353C103.611 30.7463 103.673 30.6527 103.768 30.6274C103.994 30.5668 104.264 30.0277 104.163 29.8383C104.119 29.7562 104.147 29.6435 104.226 29.5879C104.305 29.5323 104.394 29.5782 104.424 29.6898C104.479 29.8962 104.579 29.8384 105.132 29.2801C105.221 29.1906 105.378 29.0605 105.482 28.9908C105.602 28.9103 105.623 28.7798 105.54 28.6333C105.421 28.4252 105.459 28.3973 105.929 28.3489C106.319 28.3087 106.478 28.2326 106.563 28.0466C106.626 27.9098 106.752 27.7779 106.844 27.7534C106.935 27.729 107.069 27.6163 107.141 27.503C107.328 27.208 107.628 26.895 108.07 26.5349C109.012 25.7663 109.617 24.9319 109.316 24.8152C109.057 24.7142 109.062 24.6993 109.389 24.6117C109.615 24.5512 109.708 24.4646 109.647 24.3717C109.502 24.1509 108.98 24.258 108.953 24.5139ZM60.554 37.8336C60.4006 38.155 59.7955 38.4106 59.6077 38.2334C59.4302 38.0659 57.7599 38.5675 57.6425 38.8235C57.4511 39.241 57.7315 39.3928 58.2748 39.1661C58.9409 38.888 59.0042 39.151 58.3441 39.4535C57.9992 39.6114 57.844 39.7631 57.8451 39.9409C57.846 40.0827 57.7673 40.2201 57.6701 40.2462C57.5731 40.2722 57.2353 40.5164 56.9197 40.7889C56.6041 41.0613 56.1999 41.3268 56.0217 41.3788C55.8433 41.4308 55.4691 41.6512 55.1899 41.8687L54.6822 42.2642L55.442 42.0464C55.8599 41.9268 56.6125 41.8108 57.1144 41.7887C58.0366 41.7482 59.2294 41.3526 59.3245 41.0557C59.3482 40.9818 59.4857 40.8466 59.6299 40.7551C59.7741 40.6637 59.8789 40.5395 59.8627 40.4791C59.8465 40.4187 59.8991 40.2551 59.9795 40.1154C60.1125 39.8846 60.0299 39.8872 59.0706 40.1442C58.1047 40.403 58.0338 40.4049 58.2327 40.1673C58.3957 39.9726 58.7751 39.8283 59.7495 39.59C60.7883 39.3362 61.0628 39.2276 61.1171 39.0492C61.1715 38.8707 61.1009 38.8398 60.764 38.895C60.5324 38.9329 60.2743 38.9251 60.1904 38.8779C60.1066 38.8305 59.8327 38.8387 59.5817 38.896L59.1256 39.0003L59.5477 38.7947C59.7799 38.6816 60.0836 38.6108 60.2224 38.6373C60.5102 38.6922 60.9767 38.0211 60.886 37.6825C60.8156 37.4198 60.7336 37.4572 60.554 37.8336ZM65.6139 36.6828C65.6019 36.7987 65.5044 36.9171 65.3971 36.9458C65.2872 36.9753 65.2321 37.1091 65.2707 37.253C65.3518 37.5557 65.679 37.5048 65.8785 37.1585C65.9552 37.0252 66.1244 36.8876 66.2543 36.8528C66.3842 36.818 66.5995 36.8526 66.7326 36.9296C66.8658 37.0067 67.036 37.0533 67.1111 37.0332C67.186 37.0131 67.3952 37.0822 67.5759 37.1869C67.9176 37.3846 68.1438 37.289 68.0614 36.9816C67.9845 36.6944 67.2183 36.3212 66.8875 36.4098C66.7198 36.4548 66.5319 36.4436 66.4699 36.3851C66.2934 36.2187 65.6387 36.4463 65.6139 36.6828ZM62.5449 37.7671C62.5715 37.8664 62.5324 37.988 62.4579 38.0372C62.358 38.1033 62.3981 38.2209 62.6114 38.4857C62.9215 38.8712 63.2501 38.8769 63.423 38.4997C63.5763 38.1654 63.8687 38.1273 63.9501 38.431C63.9882 38.5736 64.1157 38.7003 64.2336 38.7127C64.4005 38.7304 64.4255 38.7836 64.3471 38.9546C64.2124 39.2484 64.2967 39.2708 64.7652 39.0653C65.4892 38.7478 65.4143 37.7703 64.6801 37.9538C64.4635 38.0079 64.4612 38.0007 64.6389 37.8213C64.8881 37.5698 64.8225 37.3731 64.5166 37.4551C64.3819 37.4912 64.2723 37.6282 64.2731 37.7595C64.2747 37.9868 64.2712 37.9878 64.2002 37.779C64.1316 37.5772 63.6951 37.589 63.1508 37.8073C63.0738 37.8381 62.9541 37.7852 62.8849 37.6898C62.7259 37.4705 62.4804 37.5263 62.5449 37.7671ZM54.9951 39.8697C54.9707 39.9514 54.8437 40.0469 54.7128 40.082C54.582 40.1171 54.4122 40.2548 54.3354 40.3881C54.2586 40.5214 54.1345 40.6469 54.0594 40.667C53.9845 40.6871 53.9449 40.7848 53.9716 40.8842C53.9982 40.9835 53.9553 41.1095 53.8762 41.1643C53.7972 41.219 53.7762 41.2917 53.8296 41.3259C53.9849 41.4251 55.3262 40.1044 55.3112 39.8671C55.2963 39.6309 55.066 39.6329 54.9951 39.8697ZM11.6285 52.2594C11.2905 52.6631 11.3859 52.7311 12.6624 52.9958C13.3176 53.1316 14.3133 53.3558 14.8753 53.494C15.4373 53.6321 16.0268 53.7142 16.1855 53.6764C16.3442 53.6387 16.4893 53.6651 16.508 53.7352C16.5268 53.8054 16.6362 53.8376 16.7512 53.8067C16.8662 53.7759 19.3692 54.2434 22.3134 54.8457C27.5995 55.9267 28.1606 56.0032 28.06 55.6277C28.0318 55.5225 28.0798 55.4152 28.1666 55.3893C28.4323 55.3097 27.4256 54.9231 27.0026 54.9422C26.7842 54.9521 26.2932 54.8666 25.9113 54.7525C25.5295 54.6382 25.1511 54.5624 25.0704 54.584C24.9897 54.6056 24.8095 54.5949 24.6699 54.56C24.5303 54.5251 24.0614 54.4377 23.6277 54.3656C23.194 54.2935 22.686 54.1529 22.4989 54.0533C22.3117 53.9536 22.0006 53.8745 21.8075 53.8775C21.6144 53.8804 21.4427 53.8317 21.426 53.7693C21.4092 53.7067 21.3065 53.6794 21.1977 53.7085C20.9946 53.7629 20.3198 53.6724 18.7897 53.385C18.3097 53.2949 17.8498 53.2391 17.7679 53.261C17.6859 53.283 17.6047 53.2482 17.5874 53.1835C17.5701 53.119 17.3741 53.0744 17.1518 53.0845C16.9295 53.0946 16.7347 53.0545 16.7189 52.9955C16.7031 52.9365 16.5083 52.8964 16.286 52.9065C16.0637 52.9166 15.8683 52.8745 15.8519 52.8132C15.8354 52.7517 15.6021 52.7183 15.3333 52.7388C15.0646 52.7592 14.6754 52.7382 14.4685 52.6918C14.2617 52.6455 14.0255 52.6253 13.9437 52.6467C13.8621 52.6682 13.7646 52.6478 13.7271 52.6014C13.6382 52.4913 12.3695 52.0432 12.0752 52.0181C11.9496 52.0073 11.7486 52.1158 11.6285 52.2594ZM63.1173 38.3766C63.1361 38.4467 63.1263 38.5109 63.0954 38.5192C63.0645 38.5274 62.9886 38.4863 62.9265 38.4278C62.8645 38.3692 62.8744 38.3051 62.9484 38.2852C63.0225 38.2654 63.0985 38.3065 63.1173 38.3766ZM66.1484 37.4752C66.1807 37.5957 66.8008 37.9362 66.9265 37.9026C67.1308 37.8478 67.0508 37.6524 66.7537 37.4803C66.5332 37.3528 66.1146 37.3493 66.1484 37.4752ZM89.2349 33.1542C88.3293 34.7433 88.2824 35.1866 89.0415 34.9832C89.5829 34.8382 90.8452 31.8955 90.4614 31.6735C90.1425 31.4888 90.2755 31.3282 89.2349 33.1542ZM38.318 48.1112C38.3931 48.3913 39.0561 48.7816 39.3349 48.7097C39.7197 48.6106 39.6454 48.2233 39.1959 47.9853C38.7214 47.734 38.2356 47.8036 38.318 48.1112ZM102.207 31.2438C102.133 31.3726 101.932 31.556 101.761 31.6513C101.59 31.7466 101.463 31.8711 101.478 31.9281C101.494 31.9851 101.344 32.1155 101.147 32.2179C100.949 32.3203 100.8 32.4491 100.814 32.504C100.829 32.559 100.47 32.9374 100.017 33.345C99.5639 33.7526 99.2058 34.1336 99.2214 34.1919C99.2369 34.25 99.1726 34.3184 99.0784 34.3436C98.9273 34.3841 98.7866 34.5469 98.312 35.2296C98.2467 35.3238 98.1591 35.4099 98.1172 35.4211C97.9518 35.4654 97.0014 36.3069 96.8814 36.5152C96.8111 36.6372 96.6586 36.8505 96.5423 36.9895C96.3928 37.1681 96.3765 37.3132 96.4867 37.4857C96.7159 37.8446 96.9192 37.7281 97.7716 36.7493C98.1949 36.2631 98.6738 35.756 98.8358 35.6222C98.9979 35.4885 99.1175 35.3309 99.1017 35.272C99.086 35.2132 99.1548 35.1431 99.2548 35.1163C99.3547 35.0895 99.4945 34.9669 99.5653 34.844C99.6363 34.721 99.9053 34.4182 100.163 34.1713C100.421 33.9244 100.71 33.6399 100.805 33.5393C101.582 32.7159 102.762 31.58 102.871 31.551C102.944 31.5314 102.989 31.4579 102.97 31.3878C102.951 31.3177 102.844 31.285 102.731 31.3151C102.602 31.3498 102.535 31.2926 102.549 31.159C102.577 30.8905 102.383 30.9385 102.207 31.2438ZM86.1883 40.2573C86.2503 40.3158 86.2724 40.3714 86.2374 40.3808C86.2024 40.3901 86.1231 40.3499 86.061 40.2914C85.999 40.2328 85.9769 40.1773 86.0119 40.1679C86.0468 40.1585 86.1262 40.1988 86.1883 40.2573ZM31.2779 56.388C31.1217 56.7287 31.4064 56.9858 31.8179 56.8756C32.0203 56.8213 32.2013 56.8343 32.2201 56.9045C32.2389 56.9746 32.316 57.0154 32.3914 56.9952C32.5339 56.957 34.114 57.2213 35.5587 57.5248C36.49 57.7205 36.7939 57.6897 36.7182 57.4073C36.6901 57.3021 36.7313 57.1989 36.8098 57.1778C36.9085 57.1514 36.8878 57.0935 36.743 56.9907C36.6277 56.9089 36.4545 56.8631 36.3582 56.8889C36.2617 56.9147 36.1687 56.8831 36.1514 56.8184C36.1341 56.7539 35.9381 56.7093 35.7158 56.7194C35.4935 56.7295 35.3004 56.6958 35.2867 56.6448C35.2731 56.5938 34.9905 56.5128 34.659 56.4648C34.3274 56.4167 33.8645 56.3496 33.6303 56.3153C32.0829 56.0892 31.798 56.061 31.5986 56.1144C31.4763 56.1472 31.3319 56.2703 31.2779 56.388ZM17.9828 64.3707C17.9412 64.7828 18.2517 65.0202 18.6816 64.905C18.7942 64.8748 18.9583 64.8918 19.0462 64.9427C19.2263 65.0469 20.1377 65.0192 21.3676 64.8721C21.8221 64.8178 22.477 64.7921 22.8229 64.815C23.1689 64.8379 23.5897 64.8197 23.758 64.7746C23.9263 64.7295 24.109 64.735 24.1639 64.7868C24.2187 64.8385 24.5472 64.8489 24.8939 64.8095C25.2406 64.7704 25.6303 64.7633 25.7599 64.7936C25.8897 64.824 26.3188 64.8226 26.7135 64.7904C28.0736 64.6796 28.7775 64.6613 29.3068 64.7234C30.1241 64.8189 31.2502 64.4803 31.1655 64.1644C31.0839 63.8595 30.8924 63.797 30.1996 63.8485C29.9027 63.8707 29.2058 63.9114 28.6507 63.9389C28.0956 63.9663 27.2786 64.0088 26.8352 64.0332C26.3918 64.0577 25.9327 64.0621 25.8151 64.043C25.6975 64.024 25.3291 64.0228 24.9963 64.0405C24.6636 64.0582 24.0224 64.0698 23.5715 64.0664C23.1206 64.063 22.4477 64.0707 22.0762 64.0837C21.7047 64.0966 21.3296 64.0839 21.2428 64.0555C21.1558 64.0273 20.7768 64.0443 20.4006 64.0933C20.0244 64.1423 19.7045 64.138 19.6899 64.0834C19.6753 64.0288 19.3665 64.0215 19.0037 64.0671C18.641 64.1126 18.3302 64.0979 18.3132 64.0343C18.2453 63.7811 18.0192 64.0114 17.9828 64.3707ZM110.544 41.2091C110.325 41.2984 110.157 41.4177 110.172 41.4743C110.187 41.5309 109.868 41.7077 109.463 41.8669C109.058 42.0263 108.711 42.211 108.691 42.2775C108.671 42.344 108.394 42.5081 108.075 42.6423C107.071 43.0648 106.158 43.7 106.127 43.9975C106.092 44.3308 106.613 44.5676 106.842 44.3222C106.945 44.2113 107.227 44.026 107.467 43.9104C107.708 43.7947 107.891 43.6492 107.875 43.5869C107.858 43.5246 108.088 43.408 108.385 43.328C108.682 43.2478 109.06 43.058 109.226 42.9062C109.391 42.7543 109.774 42.5219 110.078 42.3897C110.381 42.2574 110.647 42.0901 110.668 42.0179C110.69 41.9456 111.015 41.8043 111.389 41.7038C112.089 41.5165 112.204 41.3709 111.975 40.9661C111.856 40.755 111.525 40.8111 110.544 41.2091ZM102.294 45.6518C102.087 45.8535 101.797 46.0505 101.65 46.0899C101.503 46.1292 101.352 46.2158 101.315 46.2823C101.277 46.3489 100.936 46.5477 100.558 46.7242C99.9244 47.0198 99.8745 47.075 99.9265 47.4225C100.007 47.9618 100.235 48.0464 100.64 47.6875C100.824 47.5235 101.196 47.2886 101.465 47.1654C101.734 47.042 101.971 46.886 101.991 46.8185C102.011 46.751 102.239 46.5989 102.498 46.4804C103.093 46.2077 103.413 45.6287 103.105 45.3804C102.842 45.1689 102.764 45.1951 102.294 45.6518ZM34.4952 64.3774C34.5595 64.6176 34.688 64.6837 35.1254 64.7019C35.7451 64.7274 36.5835 64.5379 36.5417 64.3817C36.4817 64.1579 36.0681 63.9628 35.6832 63.9768C34.5238 64.0187 34.4094 64.0573 34.4952 64.3774ZM68.0928 59.2293C68.9595 61.8092 69.9308 66.399 69.6364 66.5227C69.5016 66.5793 69.1112 66.7706 68.7687 66.9476L68.1461 67.2697L67.3233 66.773C66.8708 66.4997 66.3485 66.1622 66.1627 66.0229C65.9768 65.8834 65.5074 65.5614 65.1195 65.3073C64.7318 65.053 64.2659 64.7239 64.0845 64.5757C63.7426 64.2967 63.5086 64.2635 63.5728 64.5031C63.6155 64.6626 64.5448 65.3574 65.6441 66.052C67.5216 67.2379 67.7465 67.413 67.6777 67.6341C67.5686 67.9855 67.674 68.1758 67.9387 68.1049C68.0746 68.0684 68.2364 68.0866 68.2985 68.1451C68.3605 68.2037 68.5526 68.2137 68.7254 68.1674C69.0381 68.0836 69.04 68.087 69.1711 68.9704C69.3203 69.9759 69.6589 71.2065 70.391 73.4043C70.7138 74.3737 70.9086 75.1677 70.9309 75.6052C70.9505 75.9894 71.3517 77.7496 71.846 79.6204C72.8107 83.2716 72.8168 83.3886 72.0675 83.8653C71.9234 83.9571 71.8197 84.0856 71.8373 84.151C71.8548 84.2164 71.726 84.3083 71.5511 84.3551C71.2987 84.4228 71.2158 84.3761 71.1496 84.1291C71.1038 83.9579 71.0053 83.7996 70.9308 83.7771C70.8563 83.7546 70.6955 83.5177 70.5733 83.2506C70.4512 82.9835 70.2981 82.7489 70.2329 82.7293C70.1679 82.7096 70.0065 82.4451 69.8744 82.1413C69.7423 81.8377 69.5804 81.6035 69.5148 81.6211C69.449 81.6387 69.3527 81.4955 69.3006 81.3027C69.2484 81.1099 69.0851 80.8205 68.9377 80.6596C68.7901 80.4985 68.5672 80.1435 68.4425 79.8705C68.3177 79.5976 68.1623 79.3583 68.0972 79.3387C68.0322 79.3189 67.8714 79.0558 67.74 78.7536C67.6085 78.4514 67.4456 78.1875 67.378 78.167C67.3104 78.1468 67.1569 77.9251 67.0371 77.6745C66.9172 77.4239 66.7592 77.1735 66.6858 77.118C66.6125 77.0625 66.4528 76.8056 66.3312 76.5471C66.2096 76.2886 66.0379 75.9964 65.9498 75.8977C65.8617 75.799 65.5495 75.3214 65.2561 74.8364C64.9626 74.3513 64.6303 73.8577 64.5177 73.7393C64.405 73.621 64.1776 73.1285 64.0122 72.6449C63.8468 72.1613 63.6536 71.7196 63.5828 71.6634C63.5121 71.6072 63.358 71.3565 63.2401 71.1062C63.1224 70.8559 62.976 70.6645 62.9147 70.6809C62.8535 70.6973 62.7195 70.5487 62.6171 70.3507C62.5146 70.1527 62.3781 70.0048 62.3137 70.022C62.2492 70.0393 62.1692 69.9531 62.136 69.8305C62.1026 69.708 61.954 69.4752 61.8056 69.3132C61.6573 69.1514 61.4443 68.8395 61.3324 68.6202C61.2203 68.4009 61.0692 68.1759 60.9965 68.1202C60.9236 68.0646 60.7587 67.7863 60.63 67.5017C60.5013 67.2172 60.3427 66.9684 60.2776 66.9488C60.2126 66.929 60.0512 66.6645 59.919 66.3608C59.787 66.0571 59.6316 65.8212 59.5738 65.8367C59.5161 65.8522 59.3616 65.6182 59.2305 65.3169C59.0995 65.0156 58.9381 64.7527 58.8719 64.7327C58.8058 64.7129 58.6475 64.4635 58.5203 64.1788C58.3932 63.894 58.217 63.6392 58.1289 63.6127C57.9911 63.5712 57.8323 63.1587 57.7144 62.5357C57.6968 62.4426 57.838 62.2603 58.0283 62.1307C58.2186 62.0012 58.362 61.8496 58.3471 61.794C58.3322 61.7383 58.4417 61.6249 58.5904 61.5422C58.7392 61.4592 59.0073 61.1674 59.1865 60.8935C59.5872 60.2807 59.6279 60.292 60.1669 61.1669C60.4058 61.5546 60.6432 61.8605 60.6943 61.8468C60.7455 61.8331 60.8712 61.9839 60.9737 62.1819C61.0761 62.38 61.2064 62.5295 61.2633 62.5143C61.3202 62.4991 61.4482 62.6332 61.5477 62.8125C61.6473 62.9918 61.775 63.1573 61.8315 63.1806C61.9858 63.2439 62.723 63.8762 62.747 63.9658C62.7817 64.0951 63.2194 64.3133 63.3654 64.2741C63.5877 64.2146 62.8924 63.4696 62.5661 63.4179C62.5073 63.4085 62.4386 63.3237 62.4134 63.2294C62.3881 63.135 62.2756 63.0012 62.1632 62.932C61.907 62.7741 61.0849 61.8336 61.0326 61.6387C61.0112 61.5587 60.9384 61.5081 60.8708 61.5263C60.8032 61.5444 60.6327 61.2812 60.4917 60.9416C60.3506 60.6018 60.1774 60.3064 60.1065 60.2851C59.6409 60.1448 60.2674 59.912 63.6261 58.9772C65.6675 58.4092 67.4001 57.9132 67.4762 57.8752C67.5704 57.8282 67.7679 58.262 68.0928 59.2293ZM69.57 57.5725C69.7317 57.6426 70.7064 57.5232 73.1872 57.1289C73.7986 57.0317 74.883 56.8001 75.5971 56.6141C77.2351 56.1875 77.6251 56.2072 77.5739 56.7138C77.5536 56.9143 77.5812 57.2433 77.6353 57.445C77.6893 57.6467 77.6891 57.859 77.6349 57.9167C77.5805 57.9744 77.5846 58.3613 77.6439 58.7764C77.7031 59.1916 77.7221 59.6005 77.6861 59.6853C77.6501 59.7701 77.6596 60.1366 77.7072 60.4996C77.7549 60.8626 77.7732 61.2882 77.748 61.4452C77.7046 61.7158 77.7215 62.1382 77.8511 64.014C77.8815 64.4568 77.8848 64.8864 77.858 64.9687C77.8314 65.051 77.8571 65.4599 77.9153 65.8775C77.9735 66.2951 77.9826 66.6777 77.9357 66.7277C77.8886 66.7776 77.9138 67.2159 77.9914 67.7017C78.0691 68.1873 78.1032 68.6541 78.0673 68.7389C78.0314 68.8237 78.053 69.2483 78.1154 69.6826C78.1777 70.1168 78.1993 70.5415 78.1633 70.6263C78.1274 70.7111 78.1368 71.0775 78.1844 71.4406C78.2321 71.8036 78.2504 72.2291 78.2252 72.3862C78.1818 72.6568 78.1987 73.0792 78.3283 74.955C78.3587 75.3978 78.362 75.8274 78.3353 75.9097C78.3086 75.992 78.3343 76.4009 78.3925 76.8185C78.4507 77.2361 78.4594 77.6192 78.4119 77.6696C78.3645 77.72 78.3708 78.0873 78.4261 78.4857C78.4813 78.8841 78.4877 79.2514 78.4402 79.3018C78.3928 79.3523 78.3991 79.7187 78.4542 80.1162C78.5092 80.5136 78.5036 80.8524 78.4418 80.869C78.3798 80.8856 78.363 81.0285 78.4043 81.1865C78.6007 81.9374 78.4257 82.3197 78.0279 82.0086C77.9226 81.9262 77.5458 81.7932 77.1908 81.7132C76.8357 81.6331 76.4069 81.4235 76.2378 81.2473C76.0517 81.0536 75.8043 80.9449 75.6116 80.9723L75.2929 81.0177L73.702 75.1297C72.6037 71.0649 71.9952 69.002 71.7368 68.4678C71.5212 68.0217 71.402 67.6483 71.4557 67.5865C71.507 67.5274 71.5588 67.3688 71.5712 67.234C71.5876 67.0539 71.7378 66.9492 72.1372 66.8389C72.6602 66.6946 73.0694 66.354 73.0039 66.1177C72.9453 65.9063 72.1886 65.8584 71.3215 66.0109L70.4574 66.1631L70.1782 65.4523C69.8552 64.6297 68.5734 59.9149 68.6255 59.7408C68.6448 59.6765 68.5561 59.1778 68.4285 58.6327L68.1964 57.6415L68.7983 57.5701C69.1293 57.5309 69.4767 57.532 69.57 57.5725ZM78.7062 56.7131C78.6938 56.8479 78.6571 56.9961 78.6244 57.0425C78.5918 57.0888 78.5352 57.2885 78.4984 57.4862C78.4323 57.8428 78.4315 57.8426 78.4114 57.4531C78.4002 57.2372 78.4528 56.9309 78.5285 56.7726C78.6997 56.4139 78.7345 56.4023 78.7062 56.7131ZM115.687 49.8434C115.43 50.028 110.958 51.4772 107.532 52.4865C106.005 52.9366 105.659 53.1275 105.751 53.4702C105.79 53.6175 105.937 53.7116 106.121 53.7078C106.546 53.6988 110.138 52.4744 110.199 52.3179C110.226 52.2477 113.024 51.4425 116.416 50.5287C124.304 48.4041 124.373 48.3793 123.867 47.8392L123.598 47.5515L122.354 48.0029C120.966 48.5067 117.959 49.3173 116.757 49.5115C116.326 49.5813 115.845 49.7306 115.687 49.8434ZM102.215 54.2171C102.184 54.5163 102.184 54.5157 102.424 54.5411C102.576 54.5571 102.611 54.476 102.55 54.2486C102.456 53.8957 102.251 53.8765 102.215 54.2171ZM35.0416 74.0499L35.1441 74.4324L36.7238 74.0091C38.3583 73.5712 38.4712 73.4968 38.2074 73.0307C38.0652 72.7794 35.816 73.3324 35.7185 73.6425C35.6791 73.7683 35.6524 73.7719 35.6198 73.6558C35.5953 73.5685 35.4321 73.5353 35.2571 73.5822C34.9886 73.6542 34.955 73.727 35.0416 74.0499ZM27.6307 75.8938C27.5451 75.9867 26.4157 76.3518 25.1208 76.7049C22.7061 77.3635 19.3251 78.431 16.5684 79.4051C15.7121 79.7078 14.6731 80.0092 14.2594 80.075L13.5075 80.1947L13.6143 80.5936L13.7212 80.9926L15.533 80.5026C16.5295 80.2331 17.7301 79.8476 18.201 79.6458C18.672 79.4442 21.2384 78.6445 23.9042 77.869C29.1197 76.3516 29.2497 76.2955 28.8796 75.7163C28.7087 75.4488 27.9398 75.558 27.6307 75.8938ZM32.382 74.674C31.8396 75.1525 32.1957 75.6789 32.8489 75.364C33.3258 75.1342 33.5243 74.8778 33.3796 74.6783C33.3185 74.594 33.3239 74.5102 33.3916 74.492C33.4594 74.4739 33.5457 74.5737 33.5832 74.714C33.6212 74.8556 33.7364 74.9462 33.8424 74.9178C33.9474 74.8897 34.0205 74.8193 34.005 74.7613C33.9894 74.7033 34.1553 74.6352 34.3735 74.6098C34.6744 74.5748 34.7568 74.5139 34.715 74.3578C34.6827 74.2372 34.5548 74.1803 34.4055 74.2204C34.2655 74.2579 34.1356 74.2312 34.1169 74.161C34.0712 73.9907 32.6954 74.3975 32.382 74.674ZM69.9579 67.7072C70.039 67.7837 70.1188 67.7583 70.2122 67.626C70.4229 67.328 70.7027 67.3999 70.526 67.7066C70.3534 68.0064 70.5962 68.2127 70.9957 68.1057C71.2371 68.041 71.2619 68.1132 71.802 70.4518C72.1085 71.779 72.8581 74.7296 73.4677 77.009L74.5763 81.1531L74.2044 81.8335C73.6558 82.8373 73.6758 82.8703 72.7602 79.4533C72.225 77.4558 71.8773 76.3419 71.796 76.3637C71.7137 76.3857 71.2588 74.8678 70.5072 72.0628C69.3802 67.8568 69.3531 67.7259 69.5926 67.6617C69.7285 67.6253 69.8929 67.6458 69.9579 67.7072ZM38.9742 80.0666C38.2954 80.5682 38.5139 80.9638 39.3006 80.6575C40.6018 80.151 41.0181 79.4089 39.8081 79.7528C39.4423 79.8567 39.067 79.998 38.9742 80.0666ZM103.125 63.6874C102.987 63.9262 103.223 64.3898 103.451 64.3287C103.577 64.295 103.749 64.3072 103.833 64.3558C104.056 64.4841 106.607 64.2693 107.527 64.045C107.961 63.9392 108.164 63.2323 107.739 63.3076C106.594 63.5108 106.185 63.5583 106.055 63.5027C105.969 63.4657 105.658 63.4566 105.365 63.4825C105.072 63.5084 104.565 63.5133 104.238 63.4933C103.593 63.4538 103.222 63.5186 103.125 63.6874ZM34.7633 82.1714C34.78 82.2336 34.5476 82.3917 34.247 82.5227C33.9463 82.6536 33.6839 82.8162 33.6637 82.8837C33.6435 82.9512 33.3652 83.1205 33.0453 83.2598C32.7255 83.399 32.4166 83.5656 32.3588 83.6299C32.2461 83.7552 31.353 84.2474 30.2796 84.7758C29.9152 84.9553 29.5716 85.1615 29.5161 85.234C29.4605 85.3066 29.1113 85.492 28.7401 85.646C28.3689 85.8001 28.0178 85.978 27.9597 86.0412C27.8613 86.1486 27.4193 86.3876 25.9349 87.1358C25.3004 87.4557 24.455 87.9735 24.4708 88.0325C24.5994 88.5127 24.9552 88.6696 25.4318 88.4565C26.0147 88.1956 27.0669 87.5382 27.2201 87.3392C27.2771 87.265 27.6122 87.0845 27.9647 86.9378C28.3174 86.7912 28.5942 86.628 28.58 86.5749C28.5658 86.522 28.8673 86.3512 29.2502 86.1954C29.6331 86.0397 30.0249 85.8419 30.121 85.7559C30.2171 85.6699 30.5664 85.4644 30.8971 85.2992C31.8664 84.8151 32.5519 84.4239 32.7894 84.2192C32.9113 84.1141 33.3563 83.876 33.7784 83.69C34.97 83.1648 35.9895 82.2107 35.588 81.9963C35.3488 81.8684 34.718 82.0025 34.7633 82.1714ZM111.331 63.556C111.14 63.6822 111.328 64.2264 111.571 64.2522C111.705 64.2664 111.761 64.1989 111.726 64.0659C111.695 63.9513 111.725 63.8889 111.791 63.9275C111.858 63.966 111.93 64.0638 111.951 64.1446C111.973 64.2254 112.096 64.284 112.225 64.2749C112.354 64.2657 112.443 64.1966 112.422 64.1213C112.402 64.0461 112.5 63.9538 112.64 63.9163C112.78 63.8788 112.91 63.9055 112.929 63.9756C112.948 64.0458 113.049 64.0801 113.154 64.052C113.259 64.0239 113.357 64.0437 113.371 64.0962C113.407 64.2253 114.113 64.3416 114.397 64.2654C114.545 64.2257 114.601 64.1092 114.554 63.9354C114.504 63.749 114.547 63.6736 114.693 63.6891C114.816 63.7021 114.884 63.6397 114.857 63.5385C114.775 63.2313 113.968 63.4119 113.813 63.7721C113.65 64.1518 113.372 64.103 113.257 63.6746C113.192 63.4297 113.108 63.3811 112.863 63.4466C112.692 63.4924 112.508 63.4872 112.452 63.4351C112.343 63.332 111.539 63.4188 111.331 63.556ZM115.172 63.4791C114.75 63.9728 115.102 64.3062 115.914 64.1818C116.273 64.1268 116.603 64.1364 116.647 64.2032C116.691 64.2699 116.822 64.2993 116.939 64.2685C117.056 64.2377 117.324 64.251 117.535 64.2982C118.127 64.4307 120.093 64.0188 120.223 63.7349C120.378 63.3975 120.172 63.291 119.512 63.3656C119.186 63.4025 118.908 63.3912 118.895 63.3407C118.881 63.2901 118.495 63.2807 118.037 63.3198C116.782 63.4269 115.682 63.4507 115.549 63.3738C115.402 63.2884 115.314 63.3128 115.172 63.4791ZM102.409 70.9214C102.242 71.2113 102.316 71.3217 102.703 71.3615C103.142 71.4065 103.415 71.2155 103.335 70.9191C103.239 70.5598 102.616 70.5612 102.409 70.9214ZM45.1925 86.9981C44.8046 87.3698 44.4819 87.7301 44.4753 87.7988C44.4686 87.8675 44.3576 87.952 44.2285 87.9866C44.0994 88.0212 43.9365 88.149 43.8665 88.2705C43.7964 88.3922 43.6237 88.5656 43.4827 88.6558C43.3417 88.7462 43.2406 88.8736 43.2581 88.939C43.2757 89.0044 43.2024 89.0815 43.0952 89.1102C42.988 89.1389 42.8911 89.2515 42.8797 89.3606C42.8684 89.4695 42.7295 89.631 42.5711 89.7192C42.4125 89.8075 42.2981 89.936 42.3165 90.0047C42.3349 90.0735 42.2623 90.1533 42.1552 90.182C42.048 90.2107 41.9504 90.3291 41.9384 90.445C41.9263 90.561 41.8366 90.6773 41.7392 90.7034C41.6271 90.7334 41.5996 90.8914 41.6644 91.1334C41.8028 91.6499 42.2395 91.5292 42.6099 90.8721C42.7597 90.6062 43.0051 90.3203 43.1554 90.2366C43.3058 90.1529 43.415 90.0333 43.3983 89.9708C43.3815 89.9082 43.4496 89.8351 43.5496 89.8083C43.6494 89.7816 43.7888 89.6674 43.8589 89.5546C43.9292 89.4419 44.2194 89.1347 44.504 88.8722C44.7884 88.6096 45.0107 88.3552 44.9977 88.3066C44.9847 88.2582 45.1357 88.1346 45.3332 88.0322C45.5308 87.9298 45.6799 87.7994 45.6646 87.7424C45.6494 87.6854 45.7704 87.5644 45.9335 87.4736C46.0966 87.3827 46.215 87.2521 46.1966 87.1833C46.1782 87.1145 46.2455 87.0362 46.3464 87.0091C46.6174 86.9365 46.6445 86.6986 46.4102 86.4483C46.1348 86.154 46.0186 86.2064 45.1925 86.9981ZM106.495 72.0259C106.589 72.3741 107.069 72.5455 107.851 72.5102C108.074 72.5001 108.271 72.5447 108.288 72.6092C108.305 72.6738 108.38 72.7104 108.454 72.6906C108.598 72.652 109.398 72.7683 110.798 73.0312C111.278 73.1213 111.733 73.1784 111.809 73.158C111.885 73.1376 111.978 73.1588 112.016 73.2052C112.069 73.271 115.409 74.0175 115.932 74.0803C116.394 74.1361 115.784 73.2949 115.301 73.2109C115.006 73.1596 114.728 73.0931 114.682 73.0631C114.598 73.0079 111.158 72.3249 110.196 72.1723C109.91 72.1269 109.584 72.1144 109.472 72.1444C109.36 72.1744 109.254 72.1427 109.235 72.0738C109.217 72.0051 109.049 71.9511 108.862 71.954C108.676 71.9569 108.512 71.9191 108.499 71.87C108.464 71.7383 107.418 71.5979 106.877 71.6525C106.443 71.6964 106.415 71.7239 106.495 72.0259ZM107.383 72.0151C107.359 72.0932 107.247 72.1474 107.134 72.1354C106.844 72.1047 106.856 72.0255 107.163 71.9432C107.307 71.9046 107.406 71.9369 107.383 72.0151ZM75.5786 82.5927C76.0172 82.851 76.4191 83.0508 76.4719 83.0366C76.6105 82.9995 77.5692 83.5726 77.9706 83.9326C78.3562 84.2783 78.735 85.4781 78.6177 85.9822C78.5798 86.1446 78.5974 86.6093 78.6565 87.0148C78.7729 87.8109 78.5054 88.1725 78.3179 87.4727C78.168 86.9133 77.9867 86.7303 77.6675 86.8158C77.4275 86.8801 77.3412 86.8076 77.1508 86.3814C77.0252 86.1 76.7584 85.618 76.558 85.3104L76.1937 84.751L75.6119 84.9069C74.6414 85.1669 74.1917 85.8974 74.1013 87.3613C74.0297 88.52 73.6936 88.7808 73.4439 87.8714C73.3564 87.5528 73.2185 87.2671 73.1375 87.2365C72.9321 87.159 72.8142 86.8864 72.9682 86.8451C73.0382 86.8264 73.0745 86.7328 73.0488 86.637C73.0232 86.5413 73.0776 86.2864 73.1698 86.0706C73.3924 85.549 73.3514 85.465 72.976 85.6741L72.6626 85.8487L72.9616 85.4196C73.1261 85.1835 73.405 84.9516 73.5815 84.9043C73.7579 84.8571 73.9076 84.7619 73.9143 84.693C73.9207 84.624 74.0967 84.4029 74.3053 84.2016C74.7122 83.809 74.7382 83.1262 74.3564 82.8553C74.212 82.7527 74.2227 82.657 74.403 82.4417C74.7176 82.066 74.6748 82.0603 75.5786 82.5927ZM38.6052 93.4563C38.624 93.5264 38.5788 93.6 38.5046 93.6199C38.4306 93.6397 38.2039 93.8811 38.0007 94.1563C37.7976 94.4315 37.4843 94.7373 37.3045 94.836C37.1248 94.9346 36.9913 95.0664 37.008 95.1289C37.0248 95.1915 36.979 95.2585 36.9062 95.278C36.7926 95.3085 36.2039 95.9441 36.0644 96.187C35.975 96.3425 34.9974 97.156 34.8535 97.1946C34.7737 97.216 34.7238 97.2908 34.7426 97.3609C34.7614 97.4311 34.6643 97.5186 34.5267 97.5555C34.3892 97.5923 34.1574 97.8244 34.0113 98.0713C33.8654 98.3181 33.486 98.7417 33.1681 99.0127C32.8502 99.2837 32.6019 99.5493 32.6162 99.6028C32.6306 99.6564 32.5652 99.7209 32.4709 99.7461C32.3767 99.7714 32.1983 99.9422 32.0745 100.126C31.9508 100.309 31.7724 100.48 31.6781 100.505C31.5838 100.53 31.5221 100.608 31.5409 100.679C31.5597 100.749 31.4933 100.828 31.3933 100.855C31.2934 100.882 31.1542 100.996 31.0842 101.108C31.0142 101.221 30.7587 101.486 30.5166 101.698C30.2744 101.91 29.8884 102.336 29.6588 102.645C29.429 102.955 29.1792 103.225 29.1035 103.245C29.0278 103.265 28.98 103.335 28.9973 103.399C29.0146 103.464 28.8671 103.6 28.6696 103.703C28.472 103.805 28.3246 103.942 28.3419 104.006C28.3592 104.071 28.2347 104.161 28.0651 104.206C27.6667 104.313 27.1305 105.083 27.2205 105.419C27.2963 105.702 28.191 105.438 28.2094 105.128C28.214 105.049 28.2949 104.965 28.389 104.939C28.4831 104.914 28.6166 104.802 28.6856 104.689C28.7545 104.577 29.049 104.267 29.3399 104.001C30.3479 103.08 30.4527 102.977 30.4918 102.87C30.5135 102.811 30.6433 102.691 30.7805 102.605C30.9176 102.518 31.1372 102.281 31.2686 102.08C31.5664 101.622 31.757 101.412 32.4793 100.746C32.7949 100.454 33.0424 100.175 33.029 100.126C33.0156 100.076 33.1663 99.9509 33.3638 99.8485C33.5614 99.7461 33.7088 99.6094 33.6915 99.5449C33.6742 99.4803 33.7419 99.4056 33.8419 99.3788C33.9418 99.352 34.0811 99.2379 34.1512 99.1251C34.2215 99.0124 34.5117 98.7052 34.7963 98.4427C35.0807 98.18 35.303 97.9256 35.29 97.877C35.277 97.8286 35.428 97.7051 35.6255 97.6027C35.8231 97.5003 35.9739 97.3762 35.9607 97.327C35.9476 97.2778 36.0765 97.1289 36.2471 96.9961C36.4177 96.8633 36.7963 96.5015 37.0884 96.192C37.3804 95.8825 37.7584 95.518 37.9281 95.3821C38.0979 95.2461 38.2248 95.0901 38.2102 95.0354C38.1955 94.9805 38.2607 94.9151 38.3553 94.8898C38.9452 94.7317 39.4768 93.6222 39.0742 93.3892C38.8075 93.2348 38.5555 93.2709 38.6052 93.4563ZM116.193 73.4358C115.809 73.7283 116.445 74.1778 117.576 74.4143C118.206 74.546 118.817 74.7053 118.933 74.7682C119.049 74.8311 119.225 74.8606 119.325 74.8338C119.425 74.807 119.522 74.8413 119.54 74.9102C119.559 74.9789 119.742 75.0317 119.947 75.0273C120.152 75.0229 120.364 75.0584 120.417 75.106C120.471 75.1537 120.729 75.1639 120.99 75.1286C121.285 75.0888 121.656 75.172 121.968 75.3477C122.244 75.5035 122.604 75.595 122.768 75.5511C122.932 75.5071 123.161 75.5382 123.276 75.62C123.391 75.7018 123.56 75.7489 123.651 75.7245C123.742 75.7002 124.378 75.8064 125.064 75.9607C126.385 76.2574 126.934 76.2217 126.975 75.8369C126.998 75.6145 126.26 75.1644 125.989 75.2354C125.857 75.2699 125.298 75.1824 123.334 74.8206C120.196 74.2422 119.421 74.0694 119.016 73.8576C118.897 73.7956 118.718 73.7667 118.618 73.7934C118.518 73.8202 118.423 73.795 118.408 73.7372C118.372 73.6012 117.185 73.3575 116.913 73.4303C116.798 73.4611 116.689 73.4288 116.67 73.3587C116.635 73.2273 116.422 73.2618 116.193 73.4358ZM50.2286 92.1803C49.8441 92.7869 49.8489 93.3132 50.2379 93.209C50.6519 93.0981 51.1759 91.9747 50.9116 91.7645C50.6223 91.5342 50.6481 91.5186 50.2286 92.1803ZM99.4887 80.104C99.4384 80.4057 99.4612 80.4881 99.5968 80.4963C99.6912 80.5021 99.7889 80.5833 99.8139 80.6767C99.839 80.7702 99.9139 80.8526 99.9807 80.8599C100.14 80.877 100.945 81.2196 101.668 81.5775C101.986 81.7349 102.317 81.8458 102.405 81.824C102.493 81.8022 102.58 81.8402 102.598 81.9085C102.687 82.2409 103.481 82.2324 103.602 81.8978C103.734 81.5354 103.659 81.4652 102.875 81.2194C102.406 81.0723 100.496 80.1486 100.016 79.8368C99.6617 79.6065 99.5632 79.6564 99.4887 80.104ZM76.5532 86.6703C76.652 86.8506 76.7917 87.0176 76.8634 87.0415C77.1704 87.144 77.4825 88.2897 77.3031 88.6558C77.1058 89.0586 76.7395 89.2154 76.663 88.9298C76.6348 88.8246 76.5325 88.7598 76.4357 88.7857C75.974 88.9094 75.5419 87.001 75.95 86.6409C76.3206 86.3139 76.359 86.3158 76.5532 86.6703ZM46.5611 97.5116C45.631 99.1452 45.4377 99.4532 44.4246 100.916C44.1371 101.331 43.7202 101.973 43.4983 102.342C43.2765 102.711 42.9873 103.158 42.8557 103.334C42.6465 103.615 41.8417 104.801 41.1672 105.823C40.9421 106.164 41.3756 106.77 41.6855 106.547C41.8642 106.419 42.6383 105.303 42.8243 104.906C43.1748 104.158 44.3415 102.294 45.2626 101.011C45.4525 100.747 45.9017 100.021 46.2606 99.3992C46.6196 98.7769 47.178 97.9355 47.5013 97.5297C47.8248 97.1238 48.0729 96.73 48.0527 96.6548C48.0325 96.5795 48.0807 96.4056 48.1598 96.2683C48.3507 95.9369 48.2049 95.7423 47.8156 95.8089C47.5699 95.8508 47.2908 96.2297 46.5611 97.5116ZM73.9299 91.1473L74.2503 91.5901L73.8718 91.5959C73.3698 91.6036 73.3497 91.5841 73.4203 91.1593C73.4537 90.9586 73.4538 90.6663 73.4205 90.5096C73.3653 90.2496 73.3709 90.2456 73.4848 90.4646C73.5535 90.5966 73.7538 90.9038 73.9299 91.1473ZM72.7695 92.4749C72.845 92.579 72.8483 92.7027 72.7769 92.75C72.7054 92.7972 72.6316 92.9874 72.6128 93.1724C72.5941 93.3574 72.4868 93.5335 72.3742 93.5636C72.0341 93.6547 72.3334 93.9113 72.7386 93.8759C73.1417 93.8409 73.4439 94.0969 73.1061 94.1874C72.9953 94.2171 72.9259 94.3204 72.9518 94.4171C72.9776 94.5136 72.9336 94.685 72.8538 94.7979C72.747 94.949 72.7941 95.3649 73.0319 96.3725C73.3362 97.6615 73.3241 97.6339 72.8252 95.9025C72.5337 94.8908 72.1795 93.8071 72.0379 93.4943C71.8019 92.9722 71.802 92.9077 72.0406 92.7106C72.1836 92.5925 72.2854 92.4391 72.2668 92.3697C72.2152 92.177 72.614 92.2605 72.7695 92.4749ZM74.7279 92.6255C75.0394 92.8239 75.3195 93.0794 75.3504 93.1936C75.4632 93.6095 75.8551 93.6431 75.8085 93.2326C75.7733 92.9226 75.791 92.9394 75.9133 93.3327C76.0082 93.6373 76.1218 93.7893 76.2329 93.7595C76.4267 93.7076 76.9839 94.9786 77.1981 95.9607C77.2679 96.2802 77.5646 97.4935 77.8577 98.6569C78.3981 100.803 78.4261 101.098 78.0981 101.186C77.9972 101.213 77.9301 101.292 77.9489 101.362C78.0021 101.561 76.8512 101.82 76.5894 101.668C76.4626 101.595 76.2906 101.287 76.2073 100.985C76.0874 100.549 76.0413 100.488 75.9859 100.693C75.8434 101.218 75.7058 100.972 75.4282 99.6927C75.1796 98.5476 75.1093 98.3675 74.8774 98.2773C74.5927 98.1667 74.5069 97.8138 74.3984 96.3083C74.3442 95.5574 74.228 95.3135 74.1082 95.6994C74.0529 95.8773 74.0266 95.8708 73.9684 95.6645C73.929 95.5248 73.804 95.2057 73.6907 94.9556C73.5212 94.5814 73.5228 94.4733 73.6993 94.346C74.1176 94.0444 74.1929 93.7735 73.9434 93.47C73.1877 92.5517 73.7172 91.9817 74.7279 92.6255ZM106.417 83.9446C106.461 84.1101 106.651 84.3053 106.84 84.3784C107.028 84.4515 107.403 84.596 107.673 84.6995C107.944 84.803 108.325 85.0081 108.521 85.155C108.717 85.3021 108.933 85.4075 109.001 85.3892C109.069 85.371 109.889 85.797 110.823 86.336C111.757 86.875 112.56 87.3055 112.607 87.2929C112.714 87.2645 113.783 87.792 116.776 89.3504C117.374 89.6614 117.932 89.922 118.016 89.9295C118.33 89.9574 119.672 90.6868 120.351 91.1982C120.864 91.5847 121.381 91.6029 121.585 91.2415C121.721 91.0029 121.681 90.9552 121.104 90.668C120.758 90.4958 119.893 90.032 119.182 89.6376C118.47 89.243 117.542 88.793 117.119 88.6375C116.695 88.482 116.104 88.2173 115.804 88.0492C115.505 87.881 114.946 87.5897 114.562 87.4016C114.178 87.2136 113.466 86.851 112.98 86.5958C111.532 85.8366 109.012 84.5088 107.991 83.9673C106.914 83.3965 106.267 83.3872 106.417 83.9446ZM77.1013 92.092C77.1724 92.3573 77.6717 92.1992 77.8062 91.869C77.9042 91.6282 77.9273 91.643 78.0305 92.0139C78.0938 92.2412 78.209 92.4101 78.2866 92.3893C78.3815 92.3639 78.4392 92.5164 78.4625 92.8547C78.5266 93.7872 79.7677 98.5767 80.0846 99.1151C80.324 99.5217 80.3571 99.6646 80.2608 99.8746C80.1956 100.017 80.1885 100.234 80.2451 100.358C80.4001 100.697 79.9101 100.767 79.5627 100.456C79.2399 100.168 79.0651 99.6966 79.2612 99.6441C79.4265 99.5998 79.0417 98.1597 78.8322 98.0385C78.4035 97.7904 77.468 95.4784 77.7642 95.399C77.9321 95.3541 77.9281 95.2068 77.7415 94.58C77.5681 93.9976 77.4776 93.8424 77.3605 93.9276C77.2385 94.0164 77.1567 93.8286 76.9625 93.0144C76.7854 92.272 76.7639 91.9774 76.8841 91.9452C76.9753 91.9208 77.0731 91.9868 77.1013 92.092ZM80.0881 91.615C80.2418 91.8644 80.4387 92.319 80.5257 92.6252C80.6127 92.9313 80.8726 93.4695 81.1032 93.8211L81.5225 94.4603L81.4959 93.9208C81.4813 93.6241 81.3093 92.8246 81.1139 92.1442L80.7584 90.9071L81.2365 90.779C81.7211 90.6492 82.2117 91.0683 82.181 91.5858C82.1637 91.878 81.942 91.838 81.8589 91.5278C81.7634 91.1714 81.4747 90.9839 81.2609 91.1394C81.0113 91.3211 81.8933 94.5064 82.216 94.5885C82.3452 94.6214 82.5139 94.8266 82.5909 95.0444C82.668 95.2622 82.7781 95.4675 82.8353 95.5006C82.9954 95.5933 83.1307 96.2131 83.0294 96.3891C82.9797 96.4754 83.1303 97.3235 83.364 98.274L83.7888 100.002L83.2443 100.191C82.5136 100.444 82.2812 100.413 82.3607 100.071C82.4144 99.8408 82.3423 99.8054 81.818 99.8054L81.2134 99.8054L81.0453 99.1779C80.9432 98.797 80.9328 98.5139 81.0187 98.457C81.1138 98.3942 81.0744 98.043 80.8988 97.3875C80.7383 96.7887 80.5611 96.3676 80.4401 96.2975C80.1959 96.1562 79.5443 93.8288 79.7347 93.7778C79.8046 93.7591 79.8013 93.5177 79.7273 93.2413C79.6532 92.9648 79.5259 92.7187 79.4443 92.6941C79.1473 92.6046 79.0015 91.6512 79.2736 91.5783C79.4095 91.5419 79.5406 91.4453 79.565 91.3635C79.6486 91.0845 79.8085 91.1614 80.0881 91.615ZM84.9282 90.4266C84.8944 90.4853 84.9912 90.5788 85.1433 90.6344C85.3409 90.7066 85.4332 90.8508 85.4671 91.1406C85.5191 91.5856 85.7249 91.6231 85.9519 91.229C86.065 91.0327 86.0473 90.9515 85.8473 90.7473C85.4525 90.3448 85.0552 90.2061 84.9282 90.4266ZM99.4234 89.3969L99.5787 89.9765L99.8314 89.6634C100.127 89.2971 100.108 89.1034 99.7579 88.9006C99.3427 88.6604 99.2592 88.7843 99.4234 89.3969ZM76.7748 97.0648C77.2633 98.6372 77.6219 98.953 77.3063 97.533C77.1172 96.6815 76.6464 95.6986 76.4528 95.7504C76.409 95.7622 76.554 96.3536 76.7748 97.0648ZM99.9965 89.6697C99.8863 89.8609 100.046 90.217 100.253 90.2388C100.509 90.2659 100.695 89.8679 100.531 89.642C100.402 89.4637 100.106 89.4791 99.9965 89.6697ZM100.537 90.2596C100.472 90.4768 100.85 90.7164 101.137 90.6396C101.411 90.566 101.412 90.5114 101.139 90.22C100.925 89.9908 100.611 90.0113 100.537 90.2596ZM93.1018 92.7355C93.1477 92.8824 93.186 92.9046 93.1993 92.7921C93.2114 92.6902 93.1774 92.5814 93.1238 92.5503C93.0702 92.5193 93.0603 92.6026 93.1018 92.7355ZM101.347 90.7543C101.042 91.0418 101.026 91.0832 101.198 91.1429C101.347 91.1946 102.256 91.8898 102.813 92.378C102.96 92.5067 103.157 92.6608 103.251 92.7205C103.344 92.7801 103.61 93.0088 103.841 93.2287C104.072 93.4487 104.314 93.6146 104.378 93.5973C104.442 93.5801 104.511 93.6272 104.531 93.7021C104.608 93.9877 105.453 94.5229 105.627 94.3961C105.845 94.2374 106.123 94.4819 106.11 94.8207C106.101 95.0423 106.985 95.9401 107.63 96.3646C107.722 96.4249 107.913 96.5733 108.056 96.6945C108.354 96.9478 108.692 96.9004 108.837 96.5849C108.914 96.4179 108.881 96.3357 108.697 96.229C108.565 96.1527 108.379 95.95 108.284 95.7786C108.189 95.6071 108.064 95.4795 108.006 95.4949C107.948 95.5104 107.841 95.4283 107.767 95.3126C107.693 95.1968 107.355 94.9335 107.017 94.7276C106.441 94.3764 105.545 93.7081 104.935 93.1737C104.788 93.045 104.576 92.8838 104.464 92.8157C104.352 92.7475 104.246 92.6391 104.229 92.5749C104.212 92.5106 104.056 92.3848 103.882 92.2955C103.708 92.2061 103.545 92.0557 103.519 91.9614C103.494 91.867 103.43 91.801 103.378 91.8146C103.325 91.8282 103.082 91.6629 102.836 91.4472C102.591 91.2315 102.299 90.9985 102.186 90.9294C102.074 90.8602 101.969 90.7563 101.954 90.6988C101.905 90.5165 101.566 90.5475 101.347 90.7543ZM74.1437 99.5463C74.132 99.6435 74.0839 99.5794 74.0369 99.4041C73.9899 99.2288 73.9996 99.1494 74.0583 99.2276C74.1172 99.3058 74.1556 99.4492 74.1437 99.5463ZM55.8473 104.829C55.776 105.151 55.7333 105.472 55.7523 105.543C55.7714 105.615 55.6836 105.867 55.5574 106.104C55.4311 106.341 55.3294 106.673 55.3312 106.842C55.3331 107.01 55.2892 107.161 55.2336 107.175C55.1782 107.19 55.1129 107.377 55.0888 107.59C55.0402 108.019 54.9154 108.45 54.7445 108.78C54.6827 108.899 54.6418 109.035 54.6535 109.083C54.6652 109.131 54.5146 109.485 54.3188 109.869C54.123 110.254 53.9795 110.632 54.0001 110.708C54.0413 110.862 53.8073 111.959 53.704 112.095C53.6683 112.142 53.6075 112.343 53.5689 112.541C53.4801 112.997 53.3442 113.426 53.2002 113.703C53.1385 113.822 53.1098 114.001 53.1366 114.101C53.1634 114.202 53.1282 114.299 53.0582 114.318C52.9882 114.336 52.9529 114.434 52.9798 114.534C53.0066 114.634 52.9754 114.812 52.9103 114.928C52.7096 115.288 52.337 116.671 52.3429 117.034C52.3461 117.223 52.2975 117.391 52.2352 117.408C52.1727 117.425 52.1416 117.513 52.166 117.604C52.2158 117.789 52.043 118.248 51.6682 118.926C51.3732 119.46 51.376 119.5 51.7191 119.698C52.0105 119.867 52.2617 119.682 52.3827 119.21C52.4219 119.057 52.5045 118.835 52.5663 118.716C52.6282 118.597 52.6584 118.424 52.6336 118.331C52.6088 118.238 52.6655 118.106 52.7596 118.038C52.8538 117.969 52.9073 117.826 52.8785 117.718C52.8497 117.611 52.8823 117.508 52.951 117.489C53.0195 117.471 53.0732 117.303 53.0701 117.116C53.067 116.929 53.1048 116.765 53.1541 116.752C53.2032 116.739 53.3499 116.223 53.48 115.607C53.6103 114.99 53.7679 114.39 53.8303 114.273C53.8928 114.156 53.9219 113.979 53.8951 113.879C53.8682 113.779 53.8904 113.685 53.9443 113.67C53.9983 113.656 54.114 113.348 54.2014 112.986C54.2889 112.625 54.4045 112.317 54.4585 112.303C54.5124 112.288 54.5373 112.204 54.5138 112.117C54.4902 112.029 54.5956 111.621 54.748 111.21C54.9004 110.799 55.0064 110.393 54.9836 110.308C54.9607 110.222 55.019 110.097 55.1131 110.028C55.2073 109.96 55.2608 109.816 55.232 109.708C55.2032 109.601 55.2331 109.499 55.2984 109.481C55.3637 109.464 55.4226 109.31 55.4294 109.139C55.4364 108.968 55.4694 108.79 55.5031 108.743C55.6347 108.561 55.9156 107.679 55.8819 107.554C55.8624 107.481 55.9037 107.406 55.9736 107.387C56.0436 107.368 56.0789 107.271 56.052 107.171C56.0252 107.071 56.057 106.893 56.1227 106.776C56.3913 106.299 56.7603 104.725 56.6768 104.414C56.525 103.847 56.0072 104.106 55.8473 104.829ZM115.922 88.5456C115.887 88.6047 115.839 88.5767 115.814 88.4833C115.789 88.3898 115.817 88.3413 115.876 88.3755C115.935 88.4098 115.956 88.4863 115.922 88.5456ZM80.232 102.249C80.2502 102.317 80.1813 102.364 80.0787 102.353C79.9763 102.342 79.745 102.452 79.5647 102.598C79.3341 102.784 78.0954 103.194 75.3791 103.985C73.2572 104.602 71.26 105.22 70.941 105.358C69.6022 105.938 70.7911 105.734 74.337 104.778C79.4165 103.409 79.1981 103.459 79.2109 103.655C79.2182 103.768 79.4103 103.776 79.7977 103.682C80.6307 103.478 80.6594 103.48 80.8025 103.731C80.9255 103.948 81.0643 103.925 83.3072 103.315C84.9135 102.879 85.7407 102.705 85.8641 102.776C86.0899 102.907 86.7282 102.748 86.7886 102.547C86.8131 102.465 86.7001 102.43 86.537 102.468C86.3452 102.514 86.4255 102.421 86.765 102.204C87.4181 101.788 88.808 101.399 89.1216 101.546C89.2496 101.605 89.4497 101.703 89.5665 101.762C89.6832 101.82 90.1766 101.781 90.6628 101.673L91.547 101.477L91.6983 101.881C91.8104 102.181 91.7959 102.324 91.6416 102.433C91.5272 102.514 91.4109 102.648 91.3828 102.73C91.3544 102.815 90.5372 103.113 89.5197 103.41C88.523 103.702 87.5716 104.043 87.4057 104.169C87.2397 104.296 86.6984 104.487 86.2026 104.594C85.7069 104.702 85.3395 104.826 85.3863 104.87C85.4331 104.914 85.1552 105.034 84.7689 105.138C84.3825 105.241 83.7933 105.517 83.4594 105.751C82.3953 106.497 80.696 107.065 79.9267 106.932C79.3689 106.836 77.4415 107.214 77.5606 107.397C77.6066 107.467 78.1583 107.449 78.7866 107.355C79.8108 107.204 79.954 107.215 80.1721 107.463L80.4154 107.739L83.3234 106.997L86.2315 106.254L86.6232 106.522L87.0151 106.79L89.1895 106.251C91.0181 105.797 91.3845 105.74 91.4935 105.89C91.6293 106.077 91.3905 106.494 91.0988 106.58C90.6344 106.717 90.4787 107.033 90.7798 107.228C91.0594 107.408 91.0483 107.418 90.3365 107.609C89.606 107.804 89.4195 108.139 90.0837 108.062C90.4802 108.016 90.4987 108.224 90.117 108.437C89.8084 108.609 88.0426 108.707 87.7154 108.571C87.6264 108.534 87.3439 108.717 87.0766 108.986C86.6455 109.419 86.4095 109.529 84.7167 110.081C81.8009 111.033 80.7765 111.654 82.6051 111.36C83.6161 111.198 84.7143 111.169 84.9745 111.297C85.1041 111.362 85.3322 111.411 85.4813 111.408C85.6304 111.404 85.2971 111.535 84.7407 111.697C83.4235 112.082 82.0798 112.722 82.3852 112.82C82.7059 112.923 88.2522 111.382 88.3839 111.154C88.5152 110.926 89.4065 110.68 89.5134 110.842C89.5575 110.909 89.9132 110.908 90.3041 110.841C91.2422 110.679 91.678 111.087 91.172 111.654C90.8786 111.983 86.599 113.213 86.1309 113.103C85.4008 112.932 83.7073 113.421 83.5687 113.843C83.4954 114.066 83.3177 114.272 83.1572 114.319C80.1673 115.194 75.591 116.147 75.1505 115.986C74.8767 115.886 74.8577 115.856 75.0394 115.807C75.16 115.775 75.2355 115.662 75.2073 115.557C75.1644 115.397 75.424 115.294 76.8036 114.924C78.1958 114.551 78.4606 114.446 78.5117 114.243C78.5522 114.083 78.7945 113.924 79.2423 113.764C80.1624 113.435 80.3346 113.316 80.0108 113.233C79.8511 113.192 79.279 113.348 78.4228 113.667C76.1463 114.515 75.3575 114.668 75.5092 114.233C75.593 113.992 76.3449 113.407 76.6896 113.315C77.1319 113.197 77.7611 112.874 77.7344 112.779C77.6735 112.563 76.8321 112.594 75.8858 112.847C74.7595 113.149 74.2693 112.919 74.9659 112.416C75.3419 112.144 75.3797 111.934 75.0684 111.847C74.745 111.757 74.8914 111.547 75.5474 111.16C76.1512 110.805 76.2917 110.459 75.8539 110.406C75.6162 110.377 75.9739 110.242 77.1026 109.933C78.3679 109.588 78.644 109.478 78.4829 109.384C78.3079 109.283 77.4105 109.462 75.0049 110.079C74.7033 110.156 74.8941 109.739 75.3467 109.332C75.6381 109.07 75.7313 108.916 75.6028 108.909C75.4915 108.904 75.3072 108.895 75.1931 108.889C75.0703 108.882 75.1444 108.795 75.3746 108.675C76.1281 108.283 75.689 108.254 74.3679 108.608L73.0321 108.966L72.9456 108.643C72.898 108.465 72.7644 108.31 72.6487 108.298C72.5329 108.286 72.4081 108.164 72.3715 108.027C72.3348 107.89 72.257 107.829 72.1987 107.891C72.1403 107.953 72.12 108.106 72.1536 108.232C72.3354 108.91 70.5013 109.994 69.8293 109.605C69.6361 109.493 69.726 109.442 70.4553 109.246C71.3706 109.001 71.3975 108.65 70.4893 108.801C70.0279 108.878 69.6955 108.007 69.9906 107.495C70.164 107.194 69.9569 106.447 69.6508 106.27C69.2407 106.033 69.3186 105.902 70.034 105.629C70.4128 105.484 70.7762 105.294 70.8413 105.207C71.0112 104.979 72.9975 104.312 75.4304 103.667C76.5865 103.361 77.602 103.032 77.6887 102.936C77.8954 102.706 80.1885 102.087 80.232 102.249ZM90.5173 99.4148C90.5247 99.4423 90.4537 99.5209 90.3596 99.5895C90.2654 99.6579 90.1735 99.6583 90.1553 99.5905C90.1371 99.5225 90.2081 99.4439 90.3131 99.4158C90.418 99.3877 90.51 99.3872 90.5173 99.4148ZM75.0389 105C74.8941 105.107 75.2539 105.076 76.0334 104.914C77.3238 104.646 77.7255 104.482 77.3688 104.37C77.1226 104.293 75.3476 104.773 75.0389 105ZM64.3449 111.047C64.2835 111.154 64.2579 111.333 64.2879 111.445C64.318 111.558 64.2951 111.732 64.2371 111.832C64.0872 112.093 64.3444 112.387 64.6503 112.305C64.8787 112.244 64.8869 112.154 64.7208 111.534C64.5164 110.772 64.5092 110.762 64.3449 111.047ZM71.39 112.207C71.6976 112.401 71.8912 112.414 72.4048 112.277C73.2394 112.053 73.3588 112.2 72.6683 112.6C72.0811 112.94 72.2918 113.264 72.9802 113.079C73.4032 112.966 73.8336 113.322 74.0102 113.932L74.166 114.47L73.5964 114.608C73.283 114.685 72.9871 114.687 72.9387 114.614C72.8415 114.466 72.4748 114.519 72.5164 114.675C72.5308 114.728 72.7125 114.953 72.9203 115.175C73.1603 115.431 73.2582 115.62 73.189 115.694C73.0087 115.886 73.4383 116.099 73.8092 116.002C74.0289 115.945 74.0979 115.965 74.0097 116.061C73.8488 116.236 73.1259 116.338 72.9851 116.205C72.9301 116.153 72.5296 116.201 72.0949 116.312C71.3775 116.494 71.3359 116.491 71.6438 116.276C72.4012 115.745 72.3784 114.171 71.6104 113.975C71.4305 113.929 71.38 113.824 71.3854 113.505C71.3891 113.28 71.3518 113.1 71.3024 113.105C71.2529 113.111 71.067 113.146 70.8892 113.182C70.4547 113.271 70.096 112.485 70.5193 112.372C70.6595 112.335 70.7942 112.237 70.8187 112.155C70.8846 111.935 70.9708 111.943 71.39 112.207ZM82.5443 108.945C82.5091 109.01 81.8324 109.232 81.0406 109.44C80.2487 109.648 79.3839 109.924 79.1187 110.053L78.6364 110.289L79.1035 110.251C79.3603 110.23 80.1511 110.09 80.8607 109.939C81.5704 109.789 82.4799 109.634 82.8819 109.594C83.6183 109.523 84.7195 109.077 84.9056 108.776C84.9553 108.696 85.1123 108.595 85.2546 108.552C85.4881 108.481 85.4806 108.47 85.176 108.433C84.7402 108.381 82.6281 108.792 82.5443 108.945ZM100.15 108.739C100.092 108.966 100.142 109.123 100.368 109.414C100.529 109.622 100.713 109.985 100.776 110.22C100.839 110.455 101.036 110.872 101.213 111.146C101.391 111.421 101.626 111.853 101.735 112.106C101.962 112.634 102.342 112.905 102.649 112.756C102.893 112.638 102.866 112.079 102.609 111.93C102.513 111.874 102.41 111.74 102.38 111.631C102.351 111.522 102.197 111.292 102.039 111.119C101.88 110.946 101.725 110.711 101.694 110.597C101.663 110.482 101.52 110.26 101.377 110.104C101.233 109.947 101.02 109.62 100.904 109.377C100.787 109.133 100.641 108.947 100.579 108.964C100.517 108.98 100.412 108.87 100.346 108.719C100.228 108.449 100.224 108.449 100.15 108.739ZM93.0254 111.489C92.9912 111.548 92.9428 111.52 92.9177 111.427C92.8927 111.333 92.9206 111.285 92.9798 111.319C93.0389 111.353 93.0594 111.43 93.0254 111.489ZM74.9829 117.312C75.2744 117.481 75.2696 117.494 74.8004 117.789C74.2 118.167 73.355 118.871 73.1996 119.123C73.0166 119.42 72.5727 119.35 72.3245 118.984C72.1284 118.695 72.1309 118.608 72.3435 118.324C72.4781 118.144 72.5732 117.917 72.5547 117.82C72.5362 117.723 72.5989 117.776 72.6941 117.939C73.02 118.494 73.9022 118.13 73.9742 117.41C74.0058 117.095 74.5204 117.045 74.9829 117.312ZM71.1816 118.344C71.2004 118.414 71.1551 118.488 71.081 118.508C71.007 118.527 70.9663 118.477 70.9908 118.395C71.0152 118.313 71.0604 118.24 71.0913 118.232C71.1222 118.223 71.1628 118.274 71.1816 118.344ZM79.5354 116.189C80.7235 116.098 84.4904 115.218 84.5507 115.017C84.6183 114.79 87.0219 114.221 87.3477 114.354C87.7144 114.504 87.59 114.863 87.1001 115.069L86.772 115.207L87.1709 115.263C87.3902 115.294 87.8864 115.234 88.2734 115.131C89.0482 114.923 89.6622 115.023 89.9696 115.407C90.0903 115.558 90.3218 115.632 90.5848 115.605C90.9487 115.566 90.9932 115.594 90.9087 115.81C90.8238 116.027 90.4144 116.173 87.8751 116.896C85.7478 117.502 84.9076 117.788 84.8233 117.934C84.7303 118.096 85.1893 118.007 87.1184 117.492C89.356 116.895 90.0767 116.796 89.8949 117.111C89.8549 117.181 89.2765 117.42 88.6095 117.643C87.2964 118.082 86.7833 118.396 86.748 118.783C86.711 119.189 86.5601 119.275 85.2339 119.645C83.7838 120.049 84.042 120.137 85.7817 119.831C86.3795 119.725 86.9245 119.691 86.9926 119.754C87.0611 119.817 87.6817 119.746 88.3814 119.594C91.4093 118.935 86.0108 120.861 82.4819 121.698C80.7415 122.111 80.4234 122.273 81.1701 122.365C81.3803 122.39 81.1437 122.496 80.3966 122.71C77.1863 123.631 76.9687 124.25 80.0267 123.762C81.0015 123.607 81.3304 123.663 81.5919 124.027C81.6968 124.173 81.5542 124.235 80.638 124.439C80.0455 124.572 79.5747 124.732 79.5917 124.795C79.6473 125.003 81.9499 124.862 82.34 124.627C82.5338 124.511 82.892 124.357 83.1358 124.286L83.5792 124.156L83.1505 124.083L82.7219 124.01L83.1264 123.895C83.3488 123.832 83.5748 123.822 83.6284 123.873C83.6821 123.923 83.9317 123.944 84.1832 123.919C84.9128 123.845 85.9586 124.36 85.389 124.513C85.3241 124.53 85.2042 124.66 85.1228 124.802C85.0095 124.998 84.6788 125.143 83.7214 125.416C82.735 125.698 82.5054 125.8 82.6427 125.898C82.7731 125.99 82.7479 126.04 82.5432 126.095C82.3924 126.136 82.2592 126.264 82.2472 126.379C82.233 126.516 82.0543 126.636 81.7435 126.719C81.1297 126.884 81.0914 127.172 81.6578 127.366C81.8966 127.447 82.1145 127.601 82.1418 127.706C82.1711 127.82 82.1393 127.855 82.0635 127.794C81.9931 127.737 81.683 127.605 81.3742 127.5C81.0655 127.396 80.801 127.267 80.7864 127.215C80.7718 127.163 80.6877 127.139 80.5992 127.163C80.5109 127.186 79.988 126.952 79.4372 126.643C78.8865 126.333 78.456 126.156 78.4805 126.25C78.5052 126.343 78.363 126.279 78.1646 126.107C77.933 125.906 77.7937 125.665 77.7755 125.433C77.7519 125.133 77.6615 125.047 77.2334 124.918C76.6375 124.739 76.5501 124.595 76.9371 124.43C77.3591 124.25 77.149 124.066 76.5868 124.123L76.0847 124.175L76.6599 124.001C76.9762 123.906 77.3235 123.714 77.4318 123.575C77.54 123.435 77.7283 123.292 77.8502 123.257C78.7051 123.012 77.7482 123.028 76.6552 123.278C75.6535 123.507 75.2566 123.547 75.1363 123.434C74.9 123.211 74.9753 123.172 75.4453 123.276C76.3306 123.472 79.4253 122.139 79.2867 121.621C79.2546 121.502 79.149 121.394 79.052 121.382C78.9551 121.37 79.4171 121.205 80.0787 121.015C81.8572 120.505 80.899 120.526 78.8245 121.042C77.3438 121.41 77.189 121.426 77.1324 121.215C77.0466 120.895 77.2432 120.597 77.6957 120.362C77.906 120.253 78.0584 120.091 78.0344 120.001C78.0104 119.912 78.1608 119.729 78.3687 119.595L78.7465 119.351L78.3401 119.446C78.1167 119.498 77.8916 119.477 77.84 119.399C77.7198 119.216 75.8222 119.739 75.6747 119.995C75.6181 120.094 75.2855 120.251 74.9356 120.344C73.5091 120.727 74.4141 120.143 76.2611 119.49C76.7749 119.308 77.287 119.05 77.3991 118.916C77.5111 118.783 77.6986 118.648 77.8155 118.616C78.0667 118.549 78.1264 118.238 77.9243 118.048C77.8363 117.964 77.6849 117.975 77.5294 118.074C77.1451 118.321 76.0737 118.401 76.4155 118.158C76.5831 118.039 76.645 117.869 76.5925 117.673C76.5005 117.33 76.8064 116.985 77.5057 116.644C78.1717 116.32 78.3561 116.278 79.5354 116.189ZM77.512 117.453C77.1017 117.889 78.2019 117.761 80.5865 117.093C83.334 116.324 84.1368 115.977 82.6723 116.191C80.7883 116.467 79.2105 116.847 78.7018 117.149C78.3509 117.357 78.1157 117.427 77.9203 117.381C77.7667 117.345 77.5829 117.377 77.512 117.453ZM73.1269 121.194C73.0927 121.253 73.0443 121.225 73.0193 121.131C72.9942 121.038 73.0222 120.989 73.0813 121.023C73.1404 121.058 73.1609 121.134 73.1269 121.194ZM73.5921 121.233C73.6085 121.294 74.0475 121.273 74.5677 121.185C75.754 120.985 76.2702 121.051 76.3676 121.414C76.4512 121.726 76.0501 122.015 75.5231 122.023C75.3445 122.026 75.1768 122.101 75.1503 122.189C75.0452 122.54 74.6309 122.481 74.4292 122.086C74.1898 121.617 73.9546 121.427 73.698 121.496C73.5705 121.53 73.5523 121.625 73.6428 121.784C73.7171 121.915 73.7173 122.003 73.6434 121.981C73.4599 121.926 73.2763 121.199 73.4351 121.156C73.5051 121.138 73.5757 121.172 73.5921 121.233ZM94.4183 121.491C94.4468 121.88 93.4264 123.726 93.14 123.802C92.9846 123.844 92.9784 123.811 93.1014 123.598C93.3594 123.15 93.1212 123.191 92.4587 123.708C92.3347 123.805 92.1469 123.939 92.0415 124.006C91.936 124.074 91.8096 124.389 91.7606 124.708C91.6881 125.178 91.5945 125.323 91.26 125.484C91.0337 125.593 90.6403 125.876 90.3859 126.114C90.1315 126.351 89.739 126.64 89.5138 126.755C89.2887 126.871 89.0484 127.042 88.9798 127.136C88.7242 127.487 88.8327 127.158 89.1768 126.539C89.4193 126.103 89.742 125.766 90.1887 125.481C90.8925 125.033 91.0041 124.786 90.4354 124.935C89.8569 125.087 89.4883 125.045 89.5107 124.83C89.5221 124.721 89.6167 124.61 89.7211 124.582C90.1899 124.456 92.018 122.809 92.1884 122.359C92.2178 122.282 92.5924 122.115 93.0209 121.989C93.4495 121.864 93.822 121.69 93.8489 121.603C93.8756 121.516 94.0044 121.385 94.135 121.313C94.2655 121.24 94.3769 121.172 94.3825 121.162C94.3882 121.152 94.4042 121.3 94.4183 121.491Z" fill="#3E5BF1"/>
</svg>
