<svg width="68" height="57" viewBox="0 0 68 57" fill="none" xmlns="http://www.w3.org/2000/svg">
<path fill-rule="evenodd" clip-rule="evenodd" d="M40.0484 0.0481883C38.6417 0.234614 38.2052 0.304987 38.0536 0.369598C37.8971 0.436267 37.5669 0.512236 36.5367 0.718662C36.2966 0.76673 36.1003 0.839408 36.1003 0.88015C36.1003 0.920974 35.9975 0.954556 35.8717 0.954803C35.746 0.955133 35.5387 1.00929 35.4111 1.07522C35.2834 1.14115 35.0497 1.21909 34.8916 1.24847C34.7335 1.27786 34.6042 1.33481 34.6042 1.37498C34.6042 1.41523 34.5444 1.44815 34.4713 1.44815C34.3245 1.44815 34.1061 1.53943 32.9418 2.08768C32.0805 2.49329 31.171 3.0059 31.1271 3.11051C31.1118 3.14689 31.053 3.1766 30.9963 3.1766C30.9395 3.1766 30.7089 3.30549 30.4837 3.46311C30.2585 3.62065 30.0042 3.79662 29.9186 3.85407C29.833 3.91152 29.7208 3.99556 29.6691 4.04083C29.6175 4.0861 29.3884 4.27013 29.1599 4.44973C28.4067 5.04168 27.4626 6.01744 26.7687 6.92076C26.7337 6.96644 26.6308 7.09286 26.5402 7.20167C26.4497 7.31048 26.3755 7.44934 26.3755 7.51032C26.3755 7.57131 26.3402 7.62119 26.297 7.62119C26.21 7.62119 26.1422 7.7342 25.6973 8.62032C25.369 9.27417 24.8794 10.6087 24.8794 10.8499C24.8794 10.9316 24.8345 11.1409 24.7796 11.3151L24.6797 11.6318L23.8609 11.6365C23.4105 11.6391 22.9973 11.6771 22.9425 11.7208C22.8878 11.7646 22.6467 11.8266 22.4067 11.8585C22.1668 11.8905 21.9495 11.9501 21.9239 11.9912C21.8983 12.0322 21.8141 12.066 21.7368 12.0663C21.6595 12.0666 21.4959 12.1186 21.3732 12.182C21.2506 12.2454 21.0355 12.3222 20.8953 12.3526C20.7551 12.3832 20.6404 12.4422 20.6404 12.4838C20.6404 12.5255 20.5807 12.5596 20.5077 12.5596C20.4348 12.5596 20.2758 12.6095 20.1545 12.6705C20.0331 12.7315 19.7562 12.8696 19.5391 12.9774C19.322 13.0852 19.1443 13.198 19.1443 13.228C19.1443 13.258 19.0508 13.3058 18.9365 13.3342C18.8222 13.3626 18.7287 13.4222 18.7287 13.4666C18.7287 13.511 18.6879 13.5473 18.6381 13.5473C18.3197 13.5473 16.4014 15.6686 16.4014 16.0206C16.4014 16.0637 16.3711 16.0988 16.3341 16.0988C16.2971 16.0988 16.1756 16.3044 16.064 16.5555C15.8978 16.9294 15.831 17.0048 15.6949 16.9715C15.4256 16.9054 14.729 16.7533 14.2819 16.6626C13.1424 16.4318 10.0438 16.7461 9.23362 17.1748C9.15424 17.2167 9.04203 17.2514 8.98426 17.2516C8.9265 17.252 8.77888 17.304 8.6562 17.3673C8.5336 17.4307 8.31849 17.5075 8.17827 17.538C8.03805 17.5685 7.92335 17.6235 7.92335 17.6603C7.92335 17.6971 7.82086 17.7526 7.69561 17.7837C7.57035 17.8149 7.44883 17.8652 7.42547 17.8956C7.4022 17.9261 7.20247 18.0434 6.9817 18.1566C6.25093 18.5311 6.17787 18.5764 6.17787 18.6549C6.17787 18.6977 6.1275 18.7327 6.06591 18.7327C6.00432 18.7327 5.8641 18.8061 5.75422 18.8957C5.64434 18.9854 5.51667 19.0873 5.47054 19.1221C4.73985 19.6724 4.04 20.2792 3.64137 20.708C2.80869 21.6039 2.68892 21.746 2.68792 21.8398C2.68742 21.8964 2.65451 21.9426 2.61486 21.9426C2.53557 21.9426 1.8087 22.9851 1.71727 23.2298C1.68585 23.314 1.6364 23.4015 1.60756 23.4242C1.51288 23.4983 0.941448 24.669 0.941448 24.7888C0.941448 24.8531 0.912356 24.9057 0.876781 24.9057C0.841207 24.9057 0.724842 25.1927 0.618202 25.5436C0.511562 25.8945 0.390959 26.2555 0.350065 26.3461C0.118166 26.8601 -0.0673533 28.9475 0.0235776 30.0204C0.120742 31.1667 0.277338 32.2538 0.35979 32.3545C0.396861 32.3998 0.453713 32.6132 0.486129 32.8288C0.518545 33.0444 0.578139 33.241 0.618534 33.2657C0.659013 33.2905 0.692345 33.3734 0.692594 33.4499C0.692927 33.5265 0.745455 33.6885 0.809456 33.8099C0.873457 33.9313 0.951005 34.1444 0.981759 34.2832C1.0126 34.4221 1.0692 34.5356 1.10768 34.5356C1.14617 34.5356 1.20227 34.6468 1.23236 34.7826C1.26245 34.9184 1.32155 35.0295 1.3636 35.0295C1.40575 35.0295 1.44016 35.0771 1.44016 35.1354C1.44016 35.2759 2.26967 36.511 2.36401 36.511C2.40449 36.511 2.43807 36.5574 2.43865 36.6139C2.43998 36.7443 3.43008 37.7645 3.97633 38.1983C4.20432 38.3794 4.42076 38.5739 4.45733 38.6304C4.4939 38.6871 4.57495 38.7333 4.63737 38.7333C4.69987 38.7333 4.76346 38.7611 4.77875 38.795C4.8228 38.8932 5.71208 39.4741 5.81839 39.4741C5.87133 39.4741 5.92711 39.5054 5.9424 39.5436C5.95761 39.5818 6.07032 39.6652 6.19292 39.7288C6.62746 39.9544 7.71805 40.4851 7.88179 40.5507C7.97322 40.5874 8.22365 40.6935 8.43826 40.7865C8.65287 40.8795 8.90539 40.9556 8.99931 40.9556C9.09323 40.9556 9.17012 40.9894 9.17012 41.0307C9.17012 41.072 9.32912 41.1317 9.52337 41.1634C9.7177 41.1952 9.91402 41.2495 9.95973 41.2842C10.0055 41.3189 10.2486 41.3869 10.5 41.4353C11.5329 41.6343 11.8896 41.7053 12.2455 41.783C13.6128 42.0816 17.795 42.1392 22.7183 41.9271C24.2498 41.8611 25.802 41.81 26.1677 41.8135L26.8327 41.8198L26.8561 42.7869L26.8795 43.7541H25.7799C25.175 43.7541 24.379 43.791 24.011 43.8361C23.6428 43.8812 23.0051 43.9536 22.5936 43.9969C21.3206 44.1309 20.5191 44.2571 20.4367 44.3365C20.3934 44.3783 20.2571 44.4125 20.134 44.4125C19.3364 44.4125 19.8957 45.5692 21.1925 46.6015C21.4145 46.7783 21.6149 46.9462 21.6378 46.9747C21.7316 47.0914 22.476 47.6225 22.5459 47.6225C22.5874 47.6225 22.6338 47.6502 22.6491 47.6842C22.6895 47.7743 23.1967 48.1163 23.2898 48.1163C23.3336 48.1163 23.3819 48.1441 23.3972 48.1781C23.4375 48.2682 23.9447 48.6102 24.0379 48.6102C24.0817 48.6102 24.1299 48.6379 24.1452 48.6719C24.1849 48.7605 25.1776 49.3509 25.2868 49.3509C25.337 49.3509 25.3781 49.3844 25.3781 49.4252C25.3781 49.466 25.4809 49.5396 25.6067 49.5886C25.8599 49.6874 26.1017 49.8324 26.274 49.9888C26.3364 50.0454 26.4408 50.0917 26.5061 50.0917C26.5714 50.0917 26.6249 50.1287 26.6249 50.174C26.6249 50.2193 26.6664 50.2563 26.7172 50.2563C26.768 50.2563 27.1192 50.4415 27.4976 50.6679C27.876 50.8942 28.2272 51.0794 28.278 51.0794C28.3288 51.0794 28.3703 51.108 28.3703 51.1429C28.3703 51.1777 28.5387 51.2973 28.7444 51.4086C28.9501 51.5199 29.1184 51.6395 29.1184 51.6744C29.1184 51.7093 29.1611 51.7379 29.2134 51.7379C29.308 51.7379 31.9272 53.4493 32.1106 53.6309C32.2015 53.7209 32.6887 54.0424 32.7342 54.0424C32.7608 54.0424 32.8278 54.0802 32.883 54.1263C33.2496 54.4324 33.389 54.5363 33.4333 54.5363C33.4611 54.5363 33.5875 54.6315 33.7142 54.7479C33.8411 54.8643 34.196 55.1501 34.503 55.3831C34.8101 55.6161 35.194 55.9375 35.3562 56.0974C35.6587 56.3957 36.137 56.7586 36.2276 56.7586C36.2555 56.7586 36.3345 56.8141 36.4031 56.882C36.6441 57.1207 37.3471 56.969 37.3471 56.6783C37.3471 56.6405 37.5154 56.5119 37.7211 56.3926C37.9268 56.2731 38.0951 56.1401 38.0951 56.0967C38.0951 56.0533 38.1419 56.017 38.199 56.0159C38.2562 56.0149 38.4394 55.8945 38.6062 55.7484C39.2196 55.2112 39.4434 55.0301 39.4959 55.0282C39.5255 55.0272 39.6993 54.8975 39.8822 54.7401C40.065 54.5826 40.252 54.4252 40.2978 54.3902C41.1786 53.7156 42.1842 52.9725 42.2164 52.9725C42.2392 52.9725 42.3375 52.8991 42.4345 52.8096C42.5316 52.7199 42.7639 52.544 42.9505 52.4186C43.1372 52.2932 43.342 52.1417 43.4055 52.082C43.4691 52.0223 43.6187 51.9114 43.738 51.8357C43.9847 51.6791 44.0402 51.6378 44.329 51.3965C44.4433 51.301 44.7145 51.1134 44.9316 50.9795C45.1488 50.8456 45.3264 50.7022 45.3264 50.6608C45.3264 50.6194 45.362 50.5855 45.4057 50.5855C45.4493 50.5855 45.7254 50.4096 46.0193 50.1946C46.3132 49.9795 46.6362 49.7481 46.7374 49.6802C46.8385 49.6123 47.0018 49.4872 47.1004 49.4021C47.1989 49.3171 47.4574 49.138 47.6745 49.0041C47.8916 48.8702 48.0693 48.7268 48.0693 48.6854C48.0693 48.644 48.1196 48.6102 48.1812 48.6102C48.2799 48.6102 48.3923 48.5349 48.7931 48.2002C48.8483 48.154 48.9152 48.1163 48.9418 48.1163C49.0121 48.1163 49.5188 47.7571 49.5515 47.6842C49.5668 47.6502 49.615 47.6225 49.6588 47.6225C49.7411 47.6225 50.1783 47.3343 50.3852 47.1435C50.45 47.0839 50.6006 46.9728 50.7199 46.8966C51.6739 46.288 52.5897 45.2804 52.5887 44.8406C52.5864 43.7753 52.5152 43.7512 49.3966 43.7635C48.0951 43.7687 46.7532 43.7687 46.4145 43.7635L45.7987 43.7541L45.8654 42.005C45.9021 41.0431 45.9249 39.7803 45.9162 39.199C45.9008 38.1732 45.9504 37.8453 46.2063 37.2805C46.2709 37.1379 46.3238 36.9847 46.3238 36.9401C46.3238 36.8956 46.3797 36.753 46.448 36.6233C46.5162 36.4937 46.5723 36.3064 46.5727 36.2072C46.5729 36.108 46.6057 36.007 46.6455 35.9826C46.6854 35.9582 46.7409 35.8244 46.769 35.6853L46.8201 35.4322L47.3616 35.4496C47.9921 35.4698 47.9814 35.4492 47.6329 35.9787C47.4843 36.2043 47.2916 36.5369 47.2047 36.7175C47.1177 36.8982 46.9962 37.1443 46.9346 37.2645C46.873 37.3846 46.8225 37.5421 46.8225 37.6143C46.8225 37.6865 46.7881 37.7456 46.746 37.7456C46.7039 37.7456 46.6431 37.8648 46.6107 38.0104C46.5785 38.1561 46.522 38.332 46.4855 38.4014C46.1025 39.1273 45.9833 40.3042 46.2409 40.815L46.4287 41.1873L47.1035 41.2395C47.4746 41.2681 47.9187 41.3118 48.0901 41.3366C48.3384 41.3725 48.4017 41.355 48.4017 41.2509C48.4017 41.0862 48.5164 41.0829 48.6511 41.2437C48.7698 41.3853 49.316 41.4127 49.316 41.2769C49.316 41.2274 49.2387 41.0792 49.1442 40.9477C49.0496 40.8163 49.0092 40.7087 49.0542 40.7087C49.0993 40.7087 49.2149 40.8346 49.311 40.9886C49.4071 41.1425 49.5317 41.2847 49.5878 41.3045C49.9529 41.433 54.9719 41.4199 55.9655 41.2879C56.3083 41.2424 56.9255 41.1701 57.3369 41.1273C58.4338 41.0133 60.2617 40.6667 60.4123 40.5442C60.458 40.507 60.636 40.4505 60.808 40.4186C60.98 40.3869 61.1411 40.3279 61.1661 40.2878C61.1912 40.2477 61.2693 40.2148 61.3397 40.2148C61.5649 40.2148 63.6039 39.2481 63.7785 39.0586C63.8014 39.0337 63.951 38.9237 64.111 38.8139C64.271 38.7041 64.452 38.5763 64.5133 38.5298C64.7322 38.3636 65.7338 37.3616 65.8373 37.2053C65.8953 37.1177 66.073 36.8635 66.2321 36.6406C66.3913 36.4176 66.5214 36.1892 66.5214 36.133C66.5214 36.0768 66.5512 36.0186 66.5875 36.0034C66.6809 35.9647 67.0201 35.2958 67.0201 35.1504C67.0201 35.0839 67.0559 35.0295 67.0995 35.0295C67.1432 35.0295 67.2041 34.8906 67.235 34.7208C67.2659 34.5511 67.3194 34.3751 67.3539 34.3299C67.4198 34.2434 67.558 33.7052 67.6922 33.013C67.7361 32.7866 67.8133 32.4348 67.8639 32.231C67.9967 31.6952 68.0506 28.854 67.9419 28.1157C67.7638 26.9055 67.6813 26.429 67.6071 26.1834C67.5658 26.0466 67.4515 25.6568 67.3533 25.3172C67.255 24.9777 67.1446 24.6431 67.1079 24.5738C67.0713 24.5044 67.0149 24.3289 66.9827 24.1838C66.9506 24.0387 66.8897 23.8988 66.8475 23.8729C66.8053 23.8472 66.7708 23.7734 66.7708 23.7092C66.7708 23.6449 66.6399 23.3155 66.4799 22.9771C66.3199 22.6387 66.189 22.3231 66.189 22.2757C66.189 22.2283 66.1516 22.1896 66.1059 22.1896C66.0601 22.1896 66.0227 22.1405 66.0227 22.0806C66.0227 22.0207 65.8926 21.7891 65.7334 21.5662C65.5743 21.3432 65.3966 21.0918 65.3386 21.0077C65.0745 20.6247 63.7532 19.2265 63.6553 19.2265C63.6273 19.2265 63.522 19.1387 63.4213 19.0314C63.1764 18.7703 62.468 18.2388 62.3648 18.2388C62.3195 18.2388 62.2824 18.2071 62.2824 18.1684C62.2824 18.0783 61.1173 17.4981 60.9364 17.4981C60.8615 17.4981 60.7857 17.4553 60.7682 17.403C60.7477 17.3423 60.413 17.2937 59.8452 17.2687L58.9543 17.2294L59.0156 16.9316C59.1101 16.4725 59.0692 13.5573 58.9618 13.0946C58.9093 12.8683 58.8279 12.4979 58.7809 12.2715C58.734 12.0452 58.6611 11.8248 58.6188 11.7818C58.5766 11.7388 58.5419 11.6277 58.5416 11.5349C58.5413 11.4421 58.491 11.2711 58.4297 11.1549C58.3686 11.0387 58.2914 10.8373 58.2585 10.7072C58.2255 10.5773 58.1288 10.3737 58.0434 10.255C57.9581 10.1363 57.8629 9.93929 57.832 9.81715C57.801 9.69492 57.7418 9.57426 57.7004 9.54891C57.659 9.52364 57.6466 9.46841 57.673 9.42627C57.6992 9.38413 57.6811 9.34964 57.6327 9.34964C57.5844 9.34964 57.5447 9.30816 57.5447 9.25754C57.5447 9.14338 56.955 8.16639 56.8634 8.12878C56.8267 8.11364 56.7966 8.06771 56.7966 8.02655C56.7966 7.95091 56.2457 7.20315 56.1341 7.12735C56.1008 7.10471 56.0586 7.04447 56.0403 6.99335C55.926 6.67425 54.3328 5.04522 53.4719 4.36718C53.1291 4.09713 52.8111 3.83555 52.7654 3.78584C52.7197 3.73613 52.4953 3.56946 52.2667 3.41546C52.0382 3.26146 51.8324 3.11438 51.8096 3.0887C51.7148 2.98203 49.8958 1.95039 49.3576 1.69804C49.0376 1.54799 48.6765 1.37482 48.5552 1.31325C48.4338 1.2516 48.2748 1.20123 48.2019 1.20123C48.129 1.20123 48.0693 1.16584 48.0693 1.12263C48.0693 1.07942 47.9325 1.01867 47.7653 0.987643C47.5982 0.956531 47.3644 0.881054 47.2458 0.819735C47.1273 0.758499 46.9536 0.708211 46.8599 0.707882C46.7662 0.707635 46.6539 0.674218 46.6106 0.633723C46.5308 0.559482 46.049 0.434045 45.2848 0.288773C45.0563 0.245314 44.7009 0.168274 44.4952 0.117655C44.0447 0.00670499 40.7497 -0.0447365 40.0484 0.0481883ZM44.703 2.13468C45.7159 2.30283 46.8456 2.59214 47.4305 2.83322C47.5592 2.88631 47.7187 2.92968 47.7849 2.92968C47.8511 2.92968 47.9703 2.96442 48.0497 3.0068C48.129 3.04927 48.381 3.16566 48.6095 3.26541C49.4735 3.64263 50.5086 4.17729 50.5489 4.26717C50.5642 4.30117 50.6169 4.3289 50.6662 4.3289C50.7768 4.3289 52.0068 5.14613 52.0451 5.24498C52.0603 5.28441 52.1101 5.31659 52.1558 5.31659C52.3582 5.31659 55.0512 7.82235 55.0512 8.01067C55.0512 8.04795 55.1167 8.13644 55.1966 8.20738C55.2766 8.27833 55.3982 8.42072 55.4668 8.52386C55.5353 8.62699 55.6382 8.75975 55.6953 8.81884C55.7525 8.87794 55.7992 8.9642 55.7992 9.01046C55.7992 9.05671 55.8489 9.12412 55.9096 9.16034C55.9704 9.19655 56.0919 9.35516 56.1797 9.51278C56.2676 9.67039 56.3863 9.84892 56.4434 9.90958C56.5006 9.97024 56.5473 10.0679 56.5473 10.1265C56.5473 10.1852 56.6782 10.4864 56.8382 10.7958C56.9982 11.1052 57.1291 11.4064 57.1291 11.4651C57.1291 11.5239 57.1665 11.5719 57.2122 11.5719C57.258 11.5719 57.2954 11.6496 57.2954 11.7447C57.2954 11.8397 57.3476 12.0342 57.4116 12.1768C57.8619 13.1813 58.065 14.9972 57.9655 17.1277C57.9349 17.7828 58.0507 18.7185 58.175 18.8206C58.2914 18.9163 58.5519 18.9932 59.4149 19.1865C60.5241 19.435 60.9479 19.5711 61.4512 19.8405C61.5655 19.9018 61.7865 20.0201 61.9422 20.1036C62.0979 20.187 62.2887 20.3109 62.366 20.3788C62.4435 20.4467 62.5779 20.5645 62.6648 20.6405C62.7516 20.7165 62.8601 20.8276 62.9058 20.8875C63.0378 21.0601 63.6123 22.2366 63.6123 22.3343C63.6123 22.3829 63.6408 22.4351 63.6756 22.4502C63.7105 22.4653 63.8262 22.7554 63.9328 23.0949C64.0394 23.4345 64.1487 23.7678 64.1758 23.8357C64.4151 24.4362 64.6578 27.8688 64.4609 27.8688C64.4187 27.8688 64.3592 28.1357 64.3285 28.4619C64.2979 28.7882 64.2419 29.0753 64.2039 29.0998C64.166 29.1244 64.1095 29.2818 64.0784 29.4497C64.0472 29.6175 63.9672 29.8583 63.9006 29.9847C63.8341 30.1111 63.7794 30.2794 63.779 30.3586C63.7788 30.4377 63.7411 30.5026 63.6954 30.5026C63.6497 30.5026 63.6123 30.5448 63.6123 30.5964C63.6123 30.9799 62.5798 32.4498 61.9221 33.0027C61.5113 33.3481 60.4343 34.0412 60.3069 34.0423C60.2735 34.0426 60.1457 34.0946 60.023 34.158C59.9004 34.2214 59.6773 34.2999 59.5271 34.3326C59.377 34.3653 59.1968 34.4215 59.1267 34.4576C58.4509 34.8061 56.3965 34.992 53.5966 34.9582C49.2105 34.9051 46.8776 34.9129 46.357 34.9825C45.7896 35.0582 45.749 35.0179 45.7405 34.371C45.7327 33.782 45.8771 33.8079 42.3698 33.7681C40.6359 33.7483 39.0489 33.7108 38.8432 33.6845C38.1935 33.6015 29.0409 33.4741 27.9555 33.5329L26.9174 33.5891L26.8525 34.0006C26.817 34.227 26.8112 34.7363 26.8398 35.1324C26.8852 35.7602 26.8747 35.8526 26.7584 35.8526C26.6606 35.8526 26.6249 35.7735 26.6249 35.5572V35.2619L26.2716 35.3153C26.0774 35.3447 25.8249 35.4011 25.7106 35.4406C25.5963 35.48 23.3708 35.531 20.7651 35.5536C18.1593 35.5763 15.9151 35.6121 15.778 35.633C14.2429 35.8674 9.8693 35.5786 9.15956 35.1959C9.08517 35.1558 8.88843 35.0978 8.72228 35.0669C8.55612 35.0361 8.40177 34.9812 8.37917 34.945C8.35656 34.9088 8.18866 34.8542 8.00605 34.8236C7.82344 34.7931 7.67399 34.7343 7.67399 34.693C7.67399 34.6517 7.62728 34.6176 7.5701 34.6172C7.43511 34.6163 5.84366 33.8178 5.6726 33.6651C5.60045 33.6006 5.49755 33.548 5.44402 33.548C5.3905 33.548 5.34669 33.5134 5.34669 33.4712C5.34669 33.4289 5.26998 33.3703 5.17622 33.3409C5.08246 33.3114 4.90035 33.1885 4.7716 33.0678C4.64277 32.9471 4.42965 32.7527 4.29791 32.6358C3.9228 32.3031 3.44828 31.7436 3.39193 31.5678C3.36375 31.4799 3.31014 31.408 3.27282 31.408C3.2355 31.408 3.18305 31.3431 3.15621 31.2639C3.12928 31.1848 3.0701 31.0643 3.02463 30.9964C2.88233 30.7839 2.60381 30.106 2.60381 29.9721C2.60381 29.9018 2.57264 29.8441 2.53457 29.8441C2.46392 29.8441 2.31971 29.257 2.19096 28.4449C2.00818 27.2926 2.16311 25.4865 2.51927 24.6176C3.04159 23.3434 4.81067 21.2019 5.34088 21.2019C5.37562 21.2019 5.47179 21.1278 5.55449 21.0373C5.63719 20.9467 5.75522 20.8727 5.81673 20.8727C5.87823 20.8727 5.92852 20.8399 5.92852 20.8C5.92852 20.76 5.99402 20.7045 6.07398 20.6766C6.15402 20.6488 6.44385 20.4978 6.71814 20.3411C6.99243 20.1844 7.27295 20.0338 7.34152 20.0065C7.4101 19.9791 7.57841 19.9049 7.71555 19.8414C7.8527 19.778 8.06781 19.7022 8.19348 19.6731C8.31915 19.6441 8.42206 19.5872 8.42206 19.5468C8.42206 19.5064 8.50617 19.4732 8.60907 19.4729C8.71197 19.4726 8.89591 19.4208 9.01784 19.3579C9.13986 19.2948 9.39212 19.2177 9.57847 19.1866C9.76482 19.1554 9.93621 19.0995 9.9594 19.0625C9.98251 19.0253 10.1884 18.9695 10.4169 18.9384C10.6454 18.9073 10.854 18.8471 10.8806 18.8045C10.9095 18.758 12.0028 18.736 13.6162 18.7493C16.6388 18.7742 16.6507 18.772 16.6507 18.1849C16.6507 18.0335 16.6874 17.9096 16.7323 17.9096C16.7771 17.9096 16.8372 17.817 16.8659 17.7038C16.8946 17.5907 16.9526 17.4981 16.9948 17.4981C17.037 17.4981 17.0963 17.4341 17.1266 17.356C17.1785 17.222 17.425 16.9153 17.752 16.5781C17.832 16.4956 17.8975 16.391 17.8975 16.3458C17.8975 16.3005 17.9255 16.263 17.9598 16.2624C17.9942 16.2617 18.2279 16.077 18.4793 15.8519C18.7307 15.6268 18.9801 15.4421 19.0335 15.4414C19.0867 15.4409 19.1428 15.4126 19.1581 15.3786C19.1985 15.2885 19.7057 14.9465 19.7989 14.9465C19.8427 14.9465 19.8909 14.9188 19.9062 14.8848C19.9355 14.8193 20.351 14.6045 20.7651 14.4408C21.563 14.1251 22.6468 13.8837 23.7157 13.7835C24.1957 13.7385 24.624 13.667 24.6674 13.6245C24.7108 13.582 24.8065 13.5473 24.8799 13.5473C25.0885 13.5473 25.558 13.1664 25.6952 12.8858C25.8229 12.6245 25.6715 12.0658 25.4729 12.0658C25.3032 12.0658 26.2724 9.70142 26.4794 9.61031C26.5137 9.59516 26.5417 9.53467 26.5417 9.47574C26.5417 9.11605 28.4665 7.00553 29.5249 6.20469C29.8271 5.97604 30.093 5.76171 30.1158 5.72846C30.1387 5.6952 30.2416 5.64203 30.3444 5.61018C30.4472 5.57841 30.5314 5.51791 30.5314 5.47569C30.5314 5.43347 30.5857 5.3989 30.6519 5.3989C30.7183 5.3989 30.8024 5.35264 30.8389 5.29601C30.9126 5.1821 31.0603 5.09946 32.4341 4.40438C32.9548 4.14091 33.4878 3.90206 33.6185 3.87366C33.7492 3.84527 33.8561 3.79111 33.8561 3.75341C33.8561 3.71571 34.0057 3.65991 34.1886 3.62929C34.3714 3.59867 34.5211 3.53991 34.5211 3.49859C34.5211 3.45727 34.5866 3.42328 34.6665 3.42303C34.7465 3.4227 34.9165 3.36854 35.044 3.30262C35.1717 3.23669 35.4054 3.15874 35.5635 3.12936C35.7216 3.09997 35.8509 3.04302 35.8509 3.00285C35.8509 2.9626 35.942 2.92968 36.0533 2.92968C36.1646 2.92968 36.361 2.88812 36.4897 2.83733C36.6184 2.78655 36.9668 2.69239 37.264 2.62811C37.5611 2.56383 38.066 2.45477 38.386 2.38571C38.706 2.31666 39.4296 2.20974 39.9939 2.14817C40.5582 2.08661 41.0442 2.01212 41.074 1.98265C41.168 1.88965 43.9214 2.00496 44.703 2.13468ZM64.7152 22.6423C64.7505 22.6875 64.8727 22.8357 64.9869 22.9715C65.1012 23.1073 65.2967 23.3666 65.4215 23.5476C65.5462 23.7287 65.681 23.9004 65.7212 23.9292C65.8219 24.0015 65.8127 24.3882 65.7052 24.6038C65.5136 24.9879 65.2747 25.559 65.2747 25.6326C65.2747 25.6751 65.2188 25.816 65.1505 25.9457C65.0823 26.0754 65.0229 26.2555 65.0187 26.3461C65.0003 26.7421 64.8646 25.9815 64.7811 25.0146C64.7322 24.4475 64.6727 23.9524 64.649 23.9144C64.6253 23.8764 64.5658 23.6301 64.517 23.3672C64.4681 23.1043 64.3984 22.8521 64.3621 22.8069C64.3258 22.7616 64.2684 22.5587 64.2346 22.3561L64.1732 21.9877L64.4122 22.2738C64.5436 22.4311 64.68 22.597 64.7152 22.6423ZM66.2251 24.9674C66.3011 25.1372 66.3963 25.3363 66.4367 25.41C66.4771 25.4837 66.5356 25.6785 66.5667 25.843C66.5979 26.0075 66.6566 26.1625 66.6971 26.1872C66.8557 26.2843 66.6722 27.2732 66.4232 27.6637C66.3941 27.7093 66.3441 27.8851 66.3119 28.0546C66.2798 28.224 66.2245 28.3626 66.189 28.3626C66.1534 28.3626 66.0989 28.4968 66.0679 28.6608C66.0368 28.8248 65.9779 29.0193 65.9369 29.0929C65.7783 29.3779 65.524 30.005 65.524 30.1112C65.524 30.1725 65.4924 30.258 65.4538 30.3009C65.4152 30.3439 65.2954 30.6199 65.1876 30.9141C65.0798 31.2084 64.9433 31.5417 64.8843 31.6549C64.8252 31.7681 64.7768 31.9027 64.7765 31.9542C64.7762 32.0055 64.7201 32.1537 64.6518 32.2834C64.5835 32.413 64.5274 32.5818 64.5271 32.6583C64.5269 32.7348 64.4921 32.8186 64.4499 32.8444C64.4077 32.8702 64.3468 33.0102 64.3147 33.1553C64.2825 33.3004 64.2237 33.4759 64.1842 33.5452C64.0513 33.7782 63.5304 35.3979 63.5298 35.5802C63.5294 35.6794 63.4939 35.7821 63.4509 35.8084C63.4078 35.8349 63.347 36.0315 63.3158 36.2454C63.2844 36.4594 63.2314 36.6715 63.1978 36.7168C63.1641 36.7621 63.1156 36.9352 63.0898 37.1016C63.0262 37.5119 61.8923 38.3218 61.3814 38.3218C61.3283 38.3218 61.285 38.3588 61.285 38.4041C61.285 38.4494 61.2289 38.4864 61.1603 38.4864C61.0225 38.4864 60.9921 38.3582 61.1124 38.2846C61.1546 38.2587 61.2137 38.1269 61.2437 37.9916C61.2737 37.8563 61.3296 37.7456 61.3681 37.7456C61.4066 37.7456 61.4632 37.632 61.4941 37.4932C61.5248 37.3543 61.6024 37.1413 61.6664 37.0199C61.7304 36.8984 61.7829 36.7342 61.7832 36.6551C61.7835 36.5759 61.817 36.511 61.8576 36.511C61.8982 36.511 61.9557 36.3829 61.9854 36.2264C62.015 36.0699 62.0938 35.8384 62.1603 35.712C62.2269 35.5856 62.2816 35.3804 62.2819 35.2558C62.2822 35.1313 62.3136 35.0295 62.3517 35.0295C62.4175 35.0295 62.5181 34.6347 62.7081 33.6303C62.8236 33.0192 63.0054 32.4174 63.1122 32.2924C63.4496 31.8975 63.5292 31.7813 63.5292 31.6835C63.5292 31.6225 63.5612 31.5726 63.6003 31.5726C63.6933 31.5726 64.2773 30.4169 64.2773 30.2329C64.2773 30.1548 64.312 30.0911 64.3544 30.0911C64.3968 30.0911 64.4572 29.8873 64.4886 29.6384C64.52 29.3894 64.574 29.1857 64.6086 29.1857C64.6431 29.1857 64.6972 28.9542 64.7289 28.6713C64.7851 28.1698 64.9405 27.5994 65.1642 27.0744C65.225 26.9318 65.2747 26.7601 65.2747 26.6928C65.2747 26.6257 65.3305 26.4646 65.3988 26.3349C65.4671 26.2053 65.5232 26.0386 65.5235 25.9645C65.5238 25.8905 65.5799 25.7238 65.6482 25.5941C65.7164 25.4645 65.7725 25.3009 65.7729 25.2307C65.7735 25.0729 65.9621 24.6603 66.034 24.6594C66.0631 24.6591 66.1491 24.7977 66.2251 24.9674ZM1.99264 25.2967C1.9692 25.4212 1.90678 25.7823 1.854 26.0992C1.76764 26.617 1.49244 27.3459 1.34041 27.4595C1.30841 27.4835 1.24275 27.5946 1.19462 27.7065C1.12223 27.8746 1.11558 27.8456 1.15647 27.5395C1.22596 27.0187 1.41414 26.4314 1.76806 25.6304C1.86198 25.4179 1.93886 25.2049 1.93886 25.1572C1.93886 25.1094 1.96056 25.0703 1.98699 25.0703C2.0135 25.0703 2.016 25.1721 1.99264 25.2967ZM67.0794 29.2268C67.0574 29.7878 67.0032 30.1285 66.9094 30.2968C66.8337 30.4326 66.7716 30.6086 66.7713 30.6878C66.771 30.767 66.7375 30.8318 66.6967 30.8318C66.6559 30.8318 66.5985 30.9336 66.5691 31.0582C66.5397 31.1827 66.4648 31.3956 66.4027 31.5314C66.3405 31.6672 66.2503 31.871 66.2023 31.9841C65.9704 32.5305 65.7502 33.0373 65.6427 33.2723C65.5774 33.415 65.524 33.5909 65.524 33.6633C65.524 33.7357 65.4907 33.7949 65.4499 33.7949C65.4092 33.7949 65.3517 33.8967 65.3224 34.0212C65.293 34.1458 65.2169 34.3587 65.1533 34.4945C64.8405 35.1623 64.7719 35.3754 64.7889 35.6262C64.8052 35.8653 64.7327 35.9717 64.1921 36.5017C63.6883 36.9957 63.2867 37.2066 63.5919 36.8169C63.635 36.7618 63.756 36.439 63.8608 36.0995C63.9656 35.76 64.1022 35.3655 64.1643 35.2228C64.2264 35.0802 64.2773 34.9222 64.2773 34.8719C64.2773 34.8215 64.3117 34.716 64.3537 34.6374C64.3957 34.5588 64.5122 34.2537 64.6126 33.9595C64.7128 33.6652 64.8467 33.3078 64.9101 33.1651C64.9734 33.0225 65.0253 32.8488 65.0253 32.779C65.0253 32.7093 65.0598 32.6311 65.102 32.6054C65.1443 32.5795 65.2051 32.4396 65.2373 32.2945C65.2694 32.1494 65.3255 31.9739 65.3617 31.9045C65.3979 31.8351 65.5097 31.5376 65.61 31.2434C65.7102 30.9491 65.8441 30.5917 65.9075 30.449C65.9709 30.3064 66.0227 30.1347 66.0227 30.0674C66.0227 30.0003 66.0786 29.8392 66.1469 29.7095C66.2151 29.5798 66.2713 29.4132 66.2716 29.3391C66.2718 29.2651 66.3279 29.0984 66.3963 28.9687C66.4645 28.8391 66.5206 28.6518 66.5209 28.5527C66.5212 28.4535 66.5546 28.352 66.5952 28.3272C66.6356 28.3024 66.6941 28.1428 66.725 27.9726C66.9342 26.8185 67.1448 27.5637 67.0794 29.2268ZM1.96804 28.7583C2.02614 29.1344 2.04334 29.4607 2.00627 29.4834C1.9692 29.5061 1.93886 29.5965 1.93886 29.6844C1.93886 29.7723 1.90445 29.8441 1.86231 29.8441C1.82025 29.8441 1.76116 29.9552 1.73107 30.0911C1.70098 30.2269 1.65011 30.338 1.61803 30.338C1.58595 30.338 1.51596 30.4398 1.46243 30.5643C1.09821 31.4113 0.85833 31.5985 0.85833 31.0357C0.85833 30.9289 0.820927 30.8187 0.775212 30.7907C0.530596 30.641 0.691346 29.909 1.1908 28.8976C1.46509 28.3422 1.69275 27.8187 1.69666 27.7343C1.70871 27.4743 1.855 28.0261 1.96804 28.7583ZM2.43491 30.3402C2.4364 30.4094 2.49317 30.5445 2.56108 30.6405C2.6703 30.795 2.6703 30.8205 2.56108 30.862C2.49317 30.8879 2.43757 30.9657 2.43757 31.035C2.43757 31.1043 2.40092 31.1611 2.35603 31.1611C2.31123 31.1611 2.25172 31.2509 2.22387 31.3609C2.19603 31.4708 2.12048 31.5807 2.05606 31.6052C1.99156 31.6297 1.93886 31.7064 1.93886 31.7758C1.93886 31.8451 1.90221 31.9018 1.85732 31.9018C1.81252 31.9018 1.75235 31.9944 1.72367 32.1076C1.695 32.2208 1.64221 32.3134 1.60639 32.3134C1.57057 32.3134 1.51671 32.4105 1.48662 32.5292C1.43442 32.7349 1.42627 32.7379 1.31398 32.591C1.17825 32.4135 1.1524 32.0174 1.27176 31.9443C1.39394 31.8696 2.18822 30.2277 2.18822 30.0499C2.18822 29.8486 2.43059 30.1338 2.43491 30.3402ZM2.93628 31.3216C2.93628 31.3645 3.04849 31.5644 3.18563 31.7656C3.44446 32.1454 3.48668 32.2803 3.36134 32.3271C3.25753 32.3658 2.68692 33.1208 2.68692 33.2195C2.68692 33.2643 2.65251 33.301 2.61037 33.301C2.56831 33.301 2.50922 33.4122 2.47913 33.548C2.44904 33.6838 2.39294 33.7949 2.35445 33.7949C2.31597 33.7949 2.25729 33.9152 2.22387 34.0624C2.18738 34.2236 2.14674 34.2808 2.12172 34.2064C2.09887 34.1385 2.05772 34.0644 2.03029 34.0417C1.79765 33.8495 1.58486 33.0541 1.76606 33.0541C1.80812 33.0541 1.86721 32.943 1.8973 32.8072C1.92739 32.6714 1.97826 32.5603 2.01034 32.5603C2.04243 32.5603 2.11358 32.4585 2.16852 32.3339C2.22337 32.2094 2.34323 31.9965 2.43483 31.8607C2.52642 31.7249 2.63838 31.5304 2.6836 31.4285C2.76547 31.2445 2.93628 31.1721 2.93628 31.3216ZM66.814 31.7989C66.7817 32.0139 66.7257 32.2269 66.6895 32.2722C66.6533 32.3175 66.596 32.4829 66.562 32.6399C66.5281 32.7968 66.469 32.982 66.4307 33.0514C66.3923 33.1208 66.2834 33.3628 66.1885 33.5891C66.0936 33.8155 65.9648 34.0932 65.9025 34.2064C65.84 34.3196 65.72 34.5418 65.6357 34.7002C65.5515 34.8586 65.4606 35.0068 65.4338 35.0294C65.4071 35.0521 65.3392 35.1447 65.2831 35.2353C65.192 35.3823 65.1867 35.3735 65.234 35.153C65.2631 35.0171 65.3216 34.8937 65.3639 34.8786C65.4062 34.8635 65.4409 34.8074 65.4409 34.7539C65.4409 34.7004 65.5157 34.5184 65.6071 34.3496C65.6986 34.1806 65.7734 33.9867 65.7734 33.9187C65.7734 33.8506 65.8108 33.7949 65.8565 33.7949C65.9022 33.7949 65.9396 33.7542 65.9396 33.7044C65.9396 33.6547 65.993 33.4973 66.0583 33.3546C66.4195 32.565 66.5214 32.3098 66.5214 32.1944C66.5214 32.124 66.5555 32.0664 66.5972 32.0664C66.639 32.0664 66.6983 31.9183 66.7292 31.7372C66.8088 31.2709 66.8851 31.3265 66.814 31.7989ZM4.15387 33.0089C4.49316 33.3549 4.39275 33.7756 3.8485 34.2887C3.82447 34.3114 3.6594 34.6208 3.48161 34.9762L3.15845 35.6227L2.88641 35.3055C2.45178 34.7988 2.39119 34.6521 2.55102 34.4938C2.62575 34.4198 2.68692 34.2909 2.68692 34.2074C2.68692 34.1239 2.71493 34.0432 2.74926 34.0281C2.8244 33.9951 3.18563 33.4932 3.18563 33.4219C3.18563 33.3943 3.23243 33.3228 3.28953 33.2631C3.34671 33.2035 3.46416 33.058 3.55052 32.9398C3.75449 32.6608 3.81974 32.6683 4.15387 33.0089ZM62.4565 33.3262C62.4064 33.3758 62.3655 33.4828 62.3655 33.5641C62.3655 33.727 62.0855 34.5932 61.9011 35.0008C61.8365 35.1434 61.7837 35.2978 61.7837 35.3439C61.7837 35.39 61.7299 35.5326 61.6641 35.6607C61.4453 36.0871 61.285 36.4932 61.285 36.6215C61.285 36.6912 61.2505 36.7694 61.2083 36.7951C61.1661 36.821 61.1065 36.9553 61.0758 37.0937C61.0451 37.232 60.9677 37.4445 60.9037 37.566C60.8397 37.6874 60.7871 37.8679 60.7868 37.9671C60.7866 38.0663 60.7537 38.1674 60.7139 38.1917C60.6741 38.2161 60.6205 38.3402 60.5948 38.4675C60.5453 38.7127 60.0805 38.9042 59.226 39.0313C59.0307 39.0604 58.8508 39.1164 58.8263 39.1556C58.8018 39.195 58.7184 39.2242 58.6411 39.2207C58.5543 39.2166 58.5404 39.1983 58.6046 39.1726C58.6618 39.1497 58.732 38.986 58.7606 38.8087C58.7893 38.6314 58.837 38.4864 58.8668 38.4864C58.8965 38.4864 59.0105 38.1994 59.1201 37.8485C59.2298 37.4976 59.347 37.1736 59.3805 37.1283C59.414 37.0831 59.4678 36.9068 59.5 36.7365C59.5321 36.5662 59.5916 36.4066 59.632 36.3818C59.6726 36.357 59.707 36.2741 59.7086 36.1975C59.7102 36.121 59.7837 35.9102 59.872 35.7291C59.9604 35.548 60.0338 35.3593 60.0354 35.3097C60.038 35.2278 60.1969 34.8521 60.3629 34.5356C60.3985 34.4677 60.5364 34.361 60.6693 34.2984C61.0561 34.1163 61.8833 33.5461 62.1993 33.2438C62.4307 33.0224 62.496 32.9932 62.5188 33.1009C62.5345 33.1753 62.5064 33.2768 62.4565 33.3262ZM5.42882 34.179C5.42931 34.2318 5.39665 34.2873 5.35617 34.3025C5.25236 34.3412 4.68175 35.0962 4.68175 35.1948C4.68175 35.2397 4.64801 35.2764 4.60678 35.2764C4.56555 35.2764 4.49125 35.3782 4.44171 35.5028C4.39217 35.6273 4.31612 35.7847 4.27273 35.8526C4.22934 35.9205 4.14805 36.0893 4.09211 36.2277L3.99038 36.4793L3.71268 36.2043C3.43424 35.9286 3.3773 35.8077 3.50173 35.7565C3.57628 35.7259 4.18304 34.7521 4.18304 34.6631C4.18304 34.6318 4.22984 34.5546 4.28694 34.4914C4.44869 34.3128 4.54635 34.1839 4.70486 33.9393L4.85139 33.7132L5.13956 33.8981C5.29807 33.9997 5.42823 34.1262 5.42882 34.179ZM6.18585 34.5946C6.31859 34.6722 6.42723 34.7654 6.42723 34.8016C6.42723 34.8613 5.80775 35.7527 5.59921 35.9931C5.55175 36.0478 5.51293 36.1113 5.51293 36.1343C5.51293 36.3245 4.90334 37.2343 4.82097 37.1669C4.76728 37.1231 4.63412 37.0198 4.52507 36.9375L4.32692 36.7879L4.52507 36.4234C4.63412 36.2229 4.74633 36.0401 4.77443 36.0174C4.8026 35.9946 4.8489 35.9019 4.87741 35.8114C4.90592 35.7209 5.0232 35.5465 5.13799 35.4241C5.25277 35.3015 5.34669 35.1683 5.34669 35.1282C5.34669 35.0879 5.4215 34.9879 5.51293 34.906C5.60436 34.8241 5.67917 34.7103 5.67917 34.6532C5.67917 34.5668 5.76968 34.4928 5.91572 34.4598C5.93151 34.4563 6.05303 34.5169 6.18585 34.5946ZM59.7889 34.8189C59.7889 34.8841 59.7544 34.9586 59.7122 34.9844C59.67 35.0102 59.6108 35.1421 59.5808 35.2773C59.5508 35.4126 59.4949 35.5233 59.4564 35.5233C59.4179 35.5233 59.3613 35.6369 59.3305 35.7758C59.2997 35.9146 59.2222 36.1276 59.1582 36.249C59.0942 36.3705 59.0417 36.5347 59.0413 36.6139C59.0411 36.6931 59.0051 36.7579 58.9615 36.7579C58.9178 36.7579 58.8565 36.8934 58.8251 37.0589C58.7937 37.2245 58.7175 37.456 58.6556 37.5734C58.5937 37.6907 58.543 37.8886 58.5426 38.0131C58.5424 38.1377 58.5066 38.2395 58.4632 38.2395C58.4197 38.2395 58.3591 38.4586 58.3285 38.7263C58.2683 39.2542 58.2081 39.306 57.654 39.3083C57.5084 39.309 57.2917 39.3462 57.1724 39.3911C56.9287 39.4829 56.9333 39.1304 57.1819 38.6587C57.2437 38.5413 57.2945 38.3641 57.2949 38.2649C57.2951 38.1657 57.3298 38.0634 57.3721 38.0377C57.4143 38.0118 57.4746 37.8739 57.5063 37.7314C57.5601 37.4889 57.899 36.591 58.1843 35.9349C58.5668 35.0553 58.5748 35.0445 58.8746 34.9876C59.0346 34.9573 59.2029 34.9027 59.2486 34.8664C59.3213 34.8086 59.5318 34.7396 59.7266 34.7098C59.7608 34.7045 59.7889 34.7536 59.7889 34.8189ZM7.35515 35.1688C7.68555 35.3131 7.76534 35.471 7.54932 35.5531C7.48075 35.5791 7.42464 35.6541 7.42464 35.7196C7.42464 35.7852 7.39513 35.8512 7.35906 35.8663C7.18584 35.9387 6.42723 37.3645 6.42723 37.6176C6.42723 37.688 6.38982 37.7456 6.34411 37.7456C6.29839 37.7456 6.26099 37.8162 6.26099 37.9025C6.26099 38.0189 6.21802 38.0484 6.09475 38.0164C6.00333 37.9927 5.92852 37.9406 5.92852 37.9006C5.92852 37.8607 5.88472 37.8279 5.83119 37.8279C5.67493 37.8279 5.42981 37.5688 5.42981 37.4036C5.42981 37.3201 5.46314 37.2518 5.50395 37.2518C5.54468 37.2518 5.60378 37.1503 5.6352 37.0263C5.66662 36.9022 5.7174 36.7819 5.74807 36.7588C5.85247 36.6802 6.17787 36.1888 6.17787 36.1097C6.17787 36.0663 6.20588 36.0186 6.24021 36.0034C6.31119 35.9722 6.67658 35.4704 6.67658 35.4042C6.67658 35.1174 6.98927 35.0089 7.35515 35.1688ZM38.1568 35.181C41.9622 35.2177 45.0895 35.2634 45.1064 35.2826C45.1344 35.3146 45.0525 39.237 44.9415 43.1842L44.8961 44.7956L45.1176 44.9393C45.2949 45.0543 45.6404 45.0976 46.8496 45.156C49.9604 45.3063 50.0642 45.3178 49.8872 45.493C49.8016 45.5778 49.7133 45.6471 49.6908 45.6471C49.6209 45.6471 48.8605 46.238 48.8312 46.315C48.8159 46.355 48.7563 46.3879 48.6986 46.3879C48.641 46.3879 48.526 46.462 48.4433 46.5525C48.3606 46.643 48.2426 46.7171 48.1811 46.7171C48.1196 46.7171 48.069 46.7449 48.0687 46.7788C48.0684 46.8128 47.9281 46.9332 47.757 47.0463C47.3766 47.298 47.3515 47.3168 46.9887 47.6226C46.8287 47.7575 46.6323 47.8892 46.5524 47.9153C46.4724 47.9414 46.4069 47.9973 46.4069 48.0395C46.4069 48.0818 46.3496 48.1163 46.2797 48.1163C46.2096 48.1163 46.1308 48.1719 46.1045 48.2398C46.0782 48.3077 46.0236 48.3633 45.9832 48.3633C45.8899 48.3633 45.128 48.9336 45.0909 49.0311C45.0756 49.0712 45.0308 49.104 44.9913 49.104C44.9355 49.104 43.8924 49.8326 43.3731 50.2343C43.3274 50.2697 43.0282 50.5009 42.7082 50.7479C42.3882 50.995 42.049 51.2765 41.9544 51.3734C41.8598 51.4703 41.7428 51.5642 41.6944 51.582C41.6007 51.6164 40.8917 52.2055 40.492 52.581C40.3598 52.7052 40.0001 52.9971 39.6928 53.2296C39.3855 53.4621 39.1154 53.6787 39.0925 53.7108C39.0697 53.743 38.7144 54.0159 38.3029 54.3172C37.8915 54.6185 37.5175 54.8946 37.4717 54.9307C37.2345 55.1181 37.1411 55.106 36.5352 54.8096C36.1817 54.6367 35.8738 54.4719 35.8509 54.4434C35.7872 54.3639 35.0234 53.7955 34.9804 53.7955C34.9595 53.7955 34.8309 53.6937 34.6947 53.5692C34.3974 53.2974 34.2971 53.2194 34.0132 53.0392C33.8939 52.9635 33.7433 52.8526 33.6785 52.7929C33.4737 52.6042 33.0347 52.314 32.954 52.314C32.9114 52.314 32.855 52.2584 32.8286 52.1905C32.8024 52.1226 32.7266 52.0671 32.6605 52.0671C32.5942 52.0671 32.5276 52.0393 32.5124 52.0053C32.4703 51.9116 31.963 51.5732 31.8646 51.5732C31.8171 51.5732 31.7782 51.5387 31.7782 51.4964C31.7782 51.4542 31.694 51.3937 31.5912 51.3619C31.4883 51.3301 31.3854 51.2814 31.3626 51.2535C31.2732 51.1446 30.7828 50.8325 30.701 50.8325C30.6534 50.8325 30.6145 50.7997 30.6145 50.7598C30.6145 50.7198 30.549 50.6648 30.4691 50.6376C30.3891 50.6105 30.0992 50.4397 29.8249 50.2582C29.5506 50.0767 29.2701 49.9022 29.2015 49.8705C29.1329 49.8388 29.0274 49.7645 28.967 49.7054C28.9066 49.6463 28.8037 49.5979 28.7385 49.5979C28.6731 49.5979 28.6197 49.5692 28.6197 49.5342C28.6197 49.4993 28.4822 49.3974 28.3142 49.3079C28.146 49.2184 27.9684 49.1077 27.9193 49.0619C27.8702 49.0161 27.7366 48.9324 27.6223 48.8759C27.508 48.8193 27.3023 48.6997 27.1651 48.6102C27.028 48.5206 26.8597 48.4219 26.7911 48.3907C26.7225 48.3596 26.6477 48.3121 26.6249 48.2853C26.602 48.2584 26.4898 48.1905 26.3755 48.1344C26.2612 48.0782 26.0555 47.9606 25.9184 47.873C25.7812 47.7855 25.5007 47.6284 25.295 47.5241C25.0893 47.4198 24.9022 47.3138 24.8794 47.2883C24.789 47.1877 23.8129 46.6348 23.7256 46.6348C23.6745 46.6348 23.6326 46.6059 23.6326 46.5705C23.6326 46.5352 23.5298 46.4618 23.404 46.4074C23.2783 46.3531 23.0633 46.2353 22.9261 46.1457C22.789 46.0562 22.4974 45.8935 22.2782 45.7842L21.8797 45.5853L22.6107 45.5394C23.0127 45.5141 23.9776 45.4558 24.7547 45.4097C27.0049 45.2765 27.5883 45.225 27.7131 45.1486C27.8116 45.0883 27.8301 44.2816 27.8301 40.0426V35.0082L29.534 35.0613C30.4711 35.0906 34.3514 35.1444 38.1568 35.181ZM58.026 35.2558C57.975 35.3562 57.6642 36.0296 57.4845 36.4287C57.3928 36.6324 57.2526 36.9843 57.1731 37.2106C57.0935 37.437 56.9956 37.6962 56.9556 37.7868C56.8837 37.9493 56.7844 38.325 56.6144 39.0782L56.5273 39.4642L55.6228 39.4897C54.6599 39.5169 54.655 39.5146 54.8374 39.1161C55.1968 38.3306 55.3005 38.0718 55.3005 37.9608C55.3005 37.893 55.335 37.8165 55.3772 37.7907C55.4195 37.7649 55.4791 37.6306 55.5097 37.4922C55.5404 37.3538 55.6179 37.1413 55.6819 37.0199C55.7459 36.8984 55.7984 36.7342 55.7987 36.6551C55.799 36.5759 55.8326 36.511 55.8734 36.511C55.9141 36.511 55.9725 36.4092 56.0031 36.2847C56.161 35.6425 56.316 35.4623 56.7551 35.4108C56.9837 35.384 57.339 35.3289 57.5447 35.2884C58.0616 35.1865 58.061 35.1866 58.026 35.2558ZM46.5732 35.5245C46.5732 35.5703 46.5387 35.6722 46.4967 35.7508C46.2668 36.1807 46.0741 36.6105 46.0718 36.6988C46.0704 36.7539 46.0143 36.871 45.9471 36.9589C45.8372 37.1027 45.8251 37.0351 45.8251 36.2798V35.441H46.1991C46.4048 35.441 46.5732 35.4786 46.5732 35.5245ZM8.70623 35.5949C8.73075 35.6341 8.90372 35.6905 9.09066 35.7201L9.43052 35.774L9.19023 36.0807C8.78994 36.592 8.1727 37.5421 8.1727 37.647C8.1727 37.7013 8.13829 37.7456 8.09615 37.7456C8.05409 37.7456 7.995 37.8567 7.96491 37.9925C7.93482 38.1284 7.87871 38.2395 7.84023 38.2395C7.80175 38.2395 7.74564 38.3506 7.71555 38.4864C7.68546 38.6222 7.61756 38.7333 7.56469 38.7333C7.42456 38.7333 6.59479 38.3064 6.62131 38.2479C6.63369 38.2206 6.71365 38.0502 6.79893 37.8691C6.88429 37.688 7.01321 37.4108 7.08552 37.253C7.15775 37.0953 7.26364 36.9167 7.32074 36.8562C7.37793 36.7957 7.42464 36.6964 7.42464 36.6355C7.42464 36.5746 7.45265 36.5124 7.48698 36.4973C7.55854 36.4658 7.92335 35.964 7.92335 35.897C7.92335 35.6592 8.58663 35.4032 8.70623 35.5949ZM49.8587 35.7489C49.8273 35.8729 49.7701 35.9936 49.7316 36.0172C49.6931 36.0407 49.636 36.1615 49.6045 36.2855C49.5731 36.4095 49.5223 36.511 49.4915 36.511C49.4608 36.511 49.3907 36.6128 49.3357 36.7374C49.2809 36.8619 49.1624 37.0748 49.0728 37.2106C48.983 37.3464 48.8233 37.6242 48.718 37.8279C48.6127 38.0316 48.5015 38.2172 48.4707 38.2403C48.4401 38.2634 48.3892 38.3838 48.3578 38.5078C48.3264 38.6318 48.2703 38.7333 48.2331 38.7333C48.1959 38.7333 48.1409 38.8444 48.1108 38.9802L48.0561 39.2272H47.3146C46.9068 39.2272 46.5744 39.1994 46.5759 39.1654C46.5879 38.8915 47.532 36.8343 47.6745 36.7717C47.7088 36.7565 47.7368 36.7068 47.7368 36.6611C47.7368 36.6154 47.8943 36.3406 48.0869 36.0507L48.437 35.5233H49.1764H49.9159L49.8587 35.7489ZM51.3836 35.5764C51.8821 35.628 52.0141 35.7931 51.736 36.0173C51.5887 36.1359 50.5628 38.1648 50.5628 38.3374C50.5628 38.4194 50.5277 38.4864 50.4848 38.4864C50.4419 38.4864 50.3806 38.6624 50.3485 38.8773C50.3165 39.0923 50.262 39.2868 50.2273 39.3095C50.0905 39.3988 48.4849 39.2989 48.4853 39.2011C48.4858 39.0866 48.9595 38.1578 49.2526 37.6967C49.4943 37.3166 50.0641 36.1572 50.0641 36.0455C50.0641 35.5615 50.3292 35.4673 51.3836 35.5764ZM55.7666 35.7497C55.5717 36.1025 55.3005 36.7668 55.3005 36.8919C55.3005 36.954 55.2648 37.0049 55.2211 37.0049C55.1775 37.0049 55.1166 37.1438 55.0857 37.3135C55.0547 37.4833 55.0026 37.6592 54.9698 37.7045C54.937 37.7497 54.8243 38.0646 54.7195 38.4041C54.6147 38.7436 54.481 39.1325 54.4222 39.2683L54.3154 39.5152L53.3947 39.4896L52.4739 39.4638L52.5286 39.2426C52.5586 39.1209 52.6098 39.0029 52.6423 38.9802C52.6748 38.9576 52.7278 38.8465 52.7599 38.7333C52.8574 38.3903 53.198 37.6827 53.6314 36.9226C53.7733 36.6736 53.9877 36.2773 54.1076 36.0421C54.3498 35.5672 54.3758 35.5563 55.326 35.5357L55.8917 35.5233L55.7666 35.7497ZM53.8044 35.7084C53.8044 35.7424 53.77 35.7703 53.7279 35.7703C53.6858 35.7703 53.6267 35.8814 53.5966 36.0172C53.5665 36.153 53.516 36.2641 53.4844 36.2641C53.4527 36.2641 53.3342 36.4399 53.2208 36.6548C53.1075 36.8697 52.9361 37.1753 52.8399 37.3338C52.4837 37.9209 52.0023 39.512 52.1529 39.6042C52.1927 39.6285 52.2252 39.6897 52.2252 39.7402C52.2252 39.7907 52.1386 39.7515 52.0328 39.653C51.9072 39.5361 51.7342 39.4741 51.5341 39.4741C51.1824 39.4741 51.173 39.4937 51.3804 39.7906C51.5983 40.1026 51.6592 40.2148 51.6107 40.2148C51.5873 40.2148 51.4524 40.0482 51.3109 39.8445C51.104 39.5467 51.0054 39.4741 50.8082 39.4741C50.6455 39.4741 50.5628 39.4325 50.5628 39.3506C50.5628 39.2827 50.6002 39.2272 50.6459 39.2272C50.6916 39.2272 50.7303 39.1809 50.7319 39.1243C50.7334 39.0677 50.8069 38.8732 50.8953 38.6922C50.9836 38.5111 51.0571 38.3242 51.0587 38.2768C51.0603 38.2295 51.2265 37.8776 51.4281 37.4949C51.6297 37.1122 51.9195 36.5583 52.0722 36.2641C52.2249 35.9698 52.3872 35.7013 52.433 35.6673C52.5393 35.5883 53.8044 35.6262 53.8044 35.7084ZM10.8533 36.0163C11.1407 36.0171 11.3054 36.1973 11.0923 36.2778C10.8373 36.3741 9.55063 38.319 9.29953 38.9877L9.15765 39.3656L8.81063 39.2772C8.61979 39.2286 8.44491 39.167 8.42206 39.1402C8.3992 39.1136 8.31109 39.0662 8.22623 39.0352C8.06515 38.9762 8.09299 38.5604 8.26197 38.5001C8.30428 38.485 8.33894 38.4286 8.33894 38.3748C8.33894 38.321 8.46985 38.08 8.62985 37.8395C8.78985 37.5989 8.92076 37.3713 8.92076 37.3338C8.92076 37.2962 8.94877 37.2532 8.9831 37.238C9.07777 37.1964 9.41947 36.6941 9.41947 36.5966C9.41947 36.5495 9.4538 36.511 9.49577 36.511C9.53783 36.511 9.65552 36.3774 9.75743 36.2141C9.92823 35.9405 9.96614 35.9211 10.2422 35.9663C10.4068 35.9933 10.6819 36.0158 10.8533 36.0163ZM26.6222 35.9966C26.6208 36.0306 26.5647 36.1303 26.4975 36.2181C26.4305 36.306 26.3755 36.425 26.3755 36.4827C26.3755 36.5403 26.2072 36.8621 26.0015 37.1975C25.7958 37.5331 25.6275 37.8493 25.6275 37.9001C25.6275 37.9509 25.5985 37.9925 25.5632 37.9925C25.5279 37.9925 25.4251 38.1287 25.3346 38.2951C25.2443 38.4616 25.1329 38.639 25.0872 38.6894C24.9754 38.8128 24.5592 39.5424 24.4399 39.824C24.336 40.0697 24.2883 40.092 23.692 40.1723L23.2942 40.2258L23.3515 39.994C23.3831 39.8664 23.4375 39.7432 23.4726 39.7202C23.5076 39.697 23.5631 39.5724 23.596 39.443C23.6287 39.3136 23.7585 39.0177 23.8843 38.7853C24.0101 38.553 24.1825 38.2333 24.2676 38.0749C24.3527 37.9165 24.4409 37.7683 24.4638 37.7457C24.5892 37.6213 24.8794 37.1639 24.8794 37.0905C24.8794 37.0434 24.9137 37.0049 24.9557 37.0049C25.0789 37.0049 25.3985 36.4355 25.3483 36.3058C25.2853 36.1434 25.406 36.0853 25.9509 36.0159C26.6303 35.9293 26.6251 35.9294 26.6222 35.9966ZM20.5216 36.1465C20.4498 36.2177 20.391 36.3248 20.391 36.3846C20.391 36.4444 20.3349 36.5147 20.2663 36.5408C20.1978 36.5668 20.1417 36.6448 20.1417 36.7142C20.1417 36.7835 20.1068 36.8402 20.0641 36.8402C20.0215 36.8402 19.9604 36.9236 19.9283 37.0254C19.8961 37.1273 19.8469 37.2291 19.8188 37.2518C19.7462 37.3102 19.3936 37.8137 19.3936 37.859C19.3936 37.8797 19.2339 38.1682 19.0387 38.5001C18.5671 39.3021 18.1468 40.1838 18.1468 40.3713C18.1468 40.4316 17.8391 40.4618 17.2236 40.4618H16.3002L16.3574 40.2362C16.3888 40.1122 16.446 39.9915 16.4845 39.9679C16.523 39.9444 16.5802 39.8236 16.6116 39.6996C16.643 39.5756 16.6991 39.4741 16.7362 39.4741C16.7734 39.4741 16.8284 39.363 16.8585 39.2272C16.8886 39.0914 16.9447 38.9802 16.9832 38.9802C17.0217 38.9802 17.0778 38.8691 17.1079 38.7333C17.138 38.5975 17.1971 38.4864 17.2391 38.4864C17.2813 38.4864 17.3157 38.4452 17.3157 38.3949C17.3157 38.3447 17.5027 37.9969 17.7313 37.6222C17.9598 37.2474 18.1468 36.9028 18.1468 36.8562C18.1468 36.8097 18.1749 36.7593 18.2092 36.7442C18.3039 36.7025 18.6456 36.2002 18.6456 36.1028C18.6456 36.0482 19.0094 36.0172 19.6489 36.0172C20.561 36.0172 20.6404 36.0289 20.5216 36.1465ZM22.7429 36.2435C22.663 36.368 22.5779 36.4884 22.554 36.511C22.4338 36.6249 22.1365 37.0913 22.1365 37.1662C22.1365 37.2133 22.0991 37.2518 22.0534 37.2518C22.0077 37.2518 21.9703 37.2856 21.9703 37.3269C21.9703 37.3683 21.8394 37.5989 21.6794 37.8395C21.5194 38.08 21.3884 38.321 21.3884 38.3748C21.3884 38.4286 21.3604 38.485 21.3261 38.5001C21.2301 38.5424 20.8897 39.2025 20.8897 39.3463C20.8897 39.4166 20.8611 39.4741 20.8261 39.4741C20.7912 39.4741 20.6982 39.6533 20.6197 39.8723L20.4769 40.2704L19.6908 40.3661C18.6897 40.4879 18.6456 40.4867 18.6456 40.3383C18.6456 40.2704 18.6793 40.2148 18.7205 40.2148C18.7617 40.2148 18.8368 40.113 18.8872 39.9885C18.9376 39.864 19.0912 39.577 19.2286 39.3506C19.366 39.1243 19.5804 38.7354 19.705 38.4864C19.8296 38.2374 19.9516 38.0152 19.976 37.9925C20.0004 37.9699 20.0668 37.8588 20.1235 37.7456C20.1802 37.6325 20.3014 37.4287 20.3929 37.2929C20.4844 37.1571 20.5819 36.9812 20.6095 36.902C20.6371 36.8228 20.6834 36.7576 20.7124 36.7572C20.7414 36.7567 20.8389 36.59 20.9291 36.3868L21.0932 36.0172H21.9908H22.8884L22.7429 36.2435ZM17.9589 36.3502C17.9031 36.4387 17.8291 36.511 17.7943 36.511C17.7597 36.511 17.7313 36.5448 17.7313 36.5862C17.7313 36.6275 17.6003 36.8581 17.4403 37.0987C17.2803 37.3393 17.1494 37.5802 17.1494 37.634C17.1494 37.6878 17.1178 37.7442 17.0792 37.7594C17.0002 37.7902 16.9508 37.8783 16.339 39.0796C16.099 39.5509 15.9027 39.999 15.9027 40.0757C15.9027 40.1522 15.8653 40.2148 15.8195 40.2148C15.7738 40.2148 15.7364 40.2704 15.7364 40.3383C15.7364 40.4353 15.621 40.4618 15.1962 40.4618C14.5411 40.4618 14.542 40.4664 15.0196 39.5526C15.5976 38.4469 15.691 38.2824 15.7572 38.2532C15.7915 38.2381 15.8195 38.1824 15.8195 38.1294C15.8195 38.0765 15.9505 37.8508 16.1105 37.628C16.2705 37.4051 16.4014 37.1738 16.4014 37.1138C16.4014 37.0539 16.4399 37.0049 16.4871 37.0049C16.5343 37.0049 16.5976 36.94 16.6279 36.8608C16.6582 36.7816 16.7318 36.6678 16.7915 36.6081C16.8512 36.5482 16.9001 36.4296 16.9001 36.3444C16.9001 36.2121 16.9752 36.1861 17.4196 36.1652C18.0523 36.1353 18.0869 36.1472 17.9589 36.3502ZM24.8052 36.3782C24.7088 36.4797 24.63 36.6067 24.63 36.6603C24.63 36.7141 24.598 36.7579 24.5588 36.7579C24.4801 36.7579 23.882 37.639 23.882 37.7549C23.882 37.7951 23.8453 37.8279 23.8004 37.8279C23.7556 37.8279 23.6955 37.9205 23.6668 38.0337C23.6381 38.1469 23.5842 38.2395 23.5471 38.2395C23.5099 38.2395 23.4549 38.3506 23.4248 38.4864C23.3947 38.6222 23.3356 38.7333 23.2936 38.7333C23.2514 38.7333 23.2158 38.7797 23.2142 38.8362C23.2126 38.8928 23.1392 39.0872 23.0508 39.2683C22.9624 39.4494 22.8877 39.6716 22.8847 39.7622C22.873 40.1148 22.7168 40.1855 21.8216 40.2432C21.0233 40.2948 20.9712 40.2888 21.0398 40.1538C21.0802 40.0742 21.2529 39.7313 21.4236 39.3918C21.7986 38.6458 22.0797 38.1515 22.3971 37.6798C22.5281 37.4851 22.6352 37.2906 22.6352 37.2477C22.6352 37.2046 22.6701 37.1695 22.7128 37.1695C22.7554 37.1695 22.8161 37.089 22.8476 36.9906C22.8791 36.8923 22.9384 36.7719 22.9794 36.7231C23.3079 36.3322 23.3833 36.2327 23.3831 36.1898C23.383 36.1628 23.7423 36.1526 24.1816 36.1671L24.9804 36.1935L24.8052 36.3782ZM12.6021 36.2532L12.834 36.3053L12.5005 36.6756C12.3171 36.8793 12.166 37.0924 12.1647 37.1489C12.1634 37.2055 12.1304 37.2518 12.0911 37.2518C11.9902 37.2518 11.5056 38.0132 11.1743 38.6922C11.0197 39.009 10.8609 39.3326 10.8213 39.4112C10.7818 39.4898 10.7494 39.6125 10.7494 39.6838C10.7494 39.8257 9.98891 39.7732 9.93206 39.6274C9.91676 39.5883 9.83614 39.5564 9.75277 39.5564C9.64223 39.5564 9.61297 39.5119 9.64472 39.3918C9.66866 39.3012 9.72127 39.2272 9.76167 39.2272C9.80198 39.2272 9.83506 39.1849 9.83506 39.1333C9.83506 39.035 10.1753 38.3107 10.255 38.2395C10.2802 38.2168 10.3911 38.0502 10.5012 37.8691C10.6115 37.688 10.7404 37.4981 10.7878 37.4471C10.8352 37.396 10.9301 37.2696 10.9987 37.166C11.0673 37.0624 11.1889 36.9097 11.2688 36.8267C11.3488 36.7436 11.4143 36.6602 11.4143 36.6415C11.4143 36.312 12.0041 36.1192 12.6021 36.2532ZM16.2901 36.4141C16.2141 36.4972 16.152 36.6054 16.152 36.6546C16.152 36.7039 16.124 36.7565 16.0897 36.7717C15.995 36.8133 15.6533 37.3157 15.6533 37.4131C15.6533 37.4602 15.6245 37.4987 15.5892 37.4987C15.554 37.4987 15.4325 37.6747 15.3191 37.8897C15.2058 38.1046 15.0913 38.2991 15.0648 38.3218C15.0382 38.3444 14.9261 38.5481 14.8155 38.7745C14.7049 39.0008 14.5894 39.2049 14.5586 39.228C14.528 39.2511 14.4771 39.3714 14.4457 39.4955C14.4143 39.6195 14.3606 39.721 14.3264 39.721C14.2923 39.721 14.2297 39.8413 14.1874 39.9885C14.103 40.2815 13.7781 40.3686 13.1824 40.2579C12.9356 40.212 12.92 40.1936 13.0333 40.0814C13.1028 40.0125 13.1598 39.9032 13.1598 39.8386C13.1598 39.7739 13.1942 39.721 13.2363 39.721C13.2784 39.721 13.3375 39.6099 13.3676 39.4741C13.3977 39.3383 13.4568 39.2272 13.4988 39.2272C13.541 39.2272 13.5754 39.186 13.5754 39.1357C13.5754 39.0854 13.7624 38.7377 13.991 38.3629C14.2195 37.9882 14.4065 37.6436 14.4065 37.597C14.4065 37.5505 14.4346 37.5001 14.4689 37.485C14.5635 37.4433 14.9052 36.941 14.9052 36.8435C14.9052 36.7965 14.9333 36.7577 14.9676 36.7574C15.0019 36.7571 15.0926 36.6479 15.1691 36.5146C15.2971 36.2918 15.3506 36.2703 15.8341 36.2476C16.4595 36.2183 16.4666 36.2209 16.2901 36.4141ZM14.6559 36.3001C14.6559 36.3198 14.4876 36.5794 14.2819 36.877C14.0761 37.1746 13.9078 37.4547 13.9078 37.4995C13.9078 37.5443 13.8729 37.581 13.8303 37.581C13.7876 37.581 13.7266 37.6644 13.6945 37.7662C13.6623 37.868 13.6095 37.9699 13.577 37.9925C13.5099 38.0392 13.4176 38.2086 12.9628 39.1186C12.4547 40.1353 12.4283 40.1747 12.2698 40.1576C12.025 40.1312 11.209 39.9558 11.1747 39.9222C11.1377 39.8861 11.914 38.326 12.0377 38.1879C12.0834 38.1367 12.1769 38.0121 12.2455 37.9108C12.314 37.8095 12.4444 37.629 12.5351 37.5097C12.6258 37.3905 12.7281 37.2559 12.7623 37.2106C12.7965 37.1654 12.998 36.9339 13.21 36.6962L13.5954 36.2641H14.1257C14.4173 36.2641 14.6559 36.2803 14.6559 36.3001ZM26.681 38.3442C26.492 38.5966 26.3295 38.9136 25.987 39.6983C25.8111 40.1013 25.0024 40.273 25.1046 39.8856C25.1286 39.7951 25.1771 39.721 25.2125 39.721C25.2479 39.721 25.3027 39.6195 25.3341 39.4955C25.3655 39.3714 25.4167 39.2511 25.4478 39.228C25.479 39.2049 25.6105 38.9823 25.7402 38.7333C25.8698 38.4843 26.0453 38.151 26.13 37.9925C26.2148 37.8341 26.3621 37.5193 26.4574 37.2929C26.5527 37.0666 26.6668 36.8171 26.7109 36.7385C26.755 36.6599 26.7991 36.5303 26.8087 36.4504C26.8184 36.3706 26.8385 36.7042 26.8531 37.1919C26.8781 38.0198 26.8667 38.0961 26.681 38.3442ZM26.8914 39.33L26.8572 40.0502H26.5826C26.2831 40.0502 26.27 39.9398 26.5142 39.4763C26.5745 39.3619 26.624 39.2035 26.6244 39.1243C26.6246 39.0451 26.6582 38.9802 26.699 38.9802C26.7397 38.9802 26.7977 38.8833 26.8277 38.7648C26.9137 38.4255 26.9283 38.5554 26.8914 39.33ZM50.9121 40.0708C51.2144 40.4696 51.2664 40.5706 51.15 40.5321C51.0944 40.5138 51.0519 40.472 51.0553 40.4391C51.0587 40.4063 50.996 40.308 50.9161 40.2208C50.6266 39.9049 50.5577 39.8033 50.6328 39.8033C50.6749 39.8033 50.8005 39.9236 50.9121 40.0708ZM50.1015 40.8884C50.1776 41.0159 50.2096 41.12 50.1727 41.1196C50.1109 41.119 49.725 40.5273 49.6631 40.3383C49.6247 40.2209 49.9372 40.613 50.1015 40.8884ZM50.8277 40.7458C50.9165 40.6959 50.9171 40.7056 50.8306 40.7977C50.7111 40.925 50.4764 40.8261 50.4101 40.6205C50.3839 40.5389 50.4253 40.5495 50.5454 40.655C50.6457 40.7431 50.7645 40.7814 50.8277 40.7458Z" fill="#82879E"/>
</svg>
