<svg width="392" height="178" viewBox="0 0 392 178" fill="none" xmlns="http://www.w3.org/2000/svg">
<path fill-rule="evenodd" clip-rule="evenodd" d="M106.7 49.3998C103.146 50.6607 101.805 51.3078 101.805 51.763C101.805 52.0429 101.43 52.2719 100.971 52.2719C99.975 52.2719 96.6288 55.6388 96.6253 56.6441C96.6236 57.0322 96.4169 57.3493 96.1658 57.3493C93.487 57.3493 91.6696 144.262 94.2356 149.644C94.6651 150.544 95.3953 152.064 95.8583 153.02C97.2161 155.825 101.215 159.592 103.613 160.326C104.361 160.555 105.157 161.025 105.383 161.371C105.682 161.829 126.797 162 182.833 162H259.873L262.653 160.707C266.058 159.123 270.177 155.073 271.689 151.82C272.774 149.488 272.819 147.77 272.908 105.771L273 62.1446L271.697 59.3543C270.286 56.3333 264.634 50.5794 263.078 50.5794C262.55 50.5794 261.795 50.2624 261.399 49.8742C260.595 49.0872 108.892 48.6218 106.7 49.3998ZM269.833 67.6389C269.471 60.2739 266.922 56.1211 261.06 53.3455C258.574 52.1681 108.05 51.6085 107.315 52.7734C107.141 53.0493 106.341 53.4369 105.539 53.6343C104.289 53.9412 101.926 56.0089 99.0536 59.3103C98.1144 60.3895 97.139 64.5648 96.7986 68.9636L96.5326 72.3976L133.287 72.7761C161.5 73.0666 227.832 73.2523 267.58 73.1518L270.104 73.1456L269.833 67.6389ZM99.5016 79.8066C101.085 78.214 102.38 76.7619 102.38 76.5796C102.379 76.156 98.2935 75.9602 97.3422 76.3382C96.8913 76.5176 96.6224 77.761 96.6224 79.6633V82.7024L99.5016 79.8066ZM104.738 79.0693C105.846 78.1384 106.918 77.1122 107.119 76.7889C108.468 74.6141 104.764 76.7709 101.067 80.3115C96.0328 85.1322 94.827 87.9107 99.6721 83.5233C101.349 82.0046 103.629 80.0001 104.738 79.0693ZM116.571 77.6718C116.933 77.6645 117.361 77.3221 117.523 76.9102C117.748 76.3359 116.95 76.1622 114.092 76.1639C110.158 76.1661 109.484 76.5808 102.267 83.4415C101.696 83.9847 101.087 84.4287 100.914 84.4287C100.74 84.4287 99.998 85.0634 99.2644 85.8391C98.5302 86.6148 97.6359 87.2495 97.276 87.2495C96.832 87.2495 96.6224 89.0576 96.6224 92.8911V98.5326H139.864C182.622 98.5326 183.109 98.5202 183.407 97.4043C183.573 96.7837 183.937 96.276 184.217 96.276C184.496 96.276 184.726 95.9499 184.726 95.5516C184.726 95.1527 186.017 92.9965 187.595 90.7597C190.376 86.8162 191.774 85.205 197.538 79.2977C199.042 77.7559 200.273 76.3709 200.273 76.2197C200.273 75.7548 197.221 76.4572 196.865 77.0039C196.476 77.6019 192.358 82.4028 190.985 83.8617C190.468 84.4101 188.686 86.6024 187.025 88.7338C185.364 90.8652 183.778 92.6936 183.501 92.7968C183.225 92.9006 182.998 93.2036 182.998 93.471C182.998 94.6907 179.137 98.088 178.782 97.1809C178.587 96.6833 178.679 96.276 178.985 96.276C179.292 96.276 179.543 96.012 179.543 95.6893C179.543 95.1409 181.711 91.8265 182.48 91.1986C182.67 91.0434 182.929 90.635 183.056 90.2903C183.459 89.193 186.608 85.5723 191.204 80.9191C191.533 80.5856 191.841 80.2748 192.128 79.985C194.668 77.4186 195.567 76.5105 195.39 76.204C195.294 76.0362 194.875 76.0488 194.226 76.0683C194.092 76.0724 193.948 76.0767 193.795 76.0798C191.661 76.1232 191.141 76.6107 185.022 84.3187C184.701 84.7238 183.725 85.8115 182.854 86.7356C181.983 87.6602 181.271 88.5555 181.271 88.7253C181.271 89.7476 174.436 97.1019 173.939 96.615C173.522 96.2066 176.597 91.1986 177.264 91.1986C177.567 91.1986 177.821 90.8815 177.829 90.4934C177.836 90.1058 178.741 88.7727 179.839 87.5316C183.522 83.3704 185.766 80.7758 187.402 78.7872C188.295 77.7012 189.279 76.6377 189.588 76.4239C189.898 76.2101 189.324 76.0584 188.313 76.0866C186.483 76.1373 184.122 78.3003 178.591 84.9929C177.694 86.0789 176.699 87.2529 176.379 87.6015C175.574 88.4822 171.828 92.8809 170.433 94.5835C168.57 96.8565 168.321 95.4371 170.066 92.4933C170.948 91.0056 171.823 89.6613 172.01 89.5061C172.197 89.351 173.808 87.447 175.589 85.275C177.371 83.103 179.896 80.2049 181.202 78.8346C181.469 78.5538 181.71 78.3026 181.925 78.0778L181.928 78.0748L181.931 78.0722C183.04 76.9146 183.476 76.4603 183.382 76.2914C183.322 76.1823 183.04 76.1924 182.577 76.2089C182.437 76.2139 182.281 76.2194 182.109 76.2225C180.473 76.2513 177.297 79.5843 173.209 85.561C172.734 86.2555 172.083 87.1096 171.762 87.4599C171.441 87.8097 169.76 89.8728 168.026 92.0448C166.293 94.2168 164.563 96.3132 164.184 96.7036C162.935 97.9871 162.79 96.4057 163.981 94.4803C164.617 93.4513 165.459 91.9743 165.851 91.1986C166.242 90.4229 166.699 89.6613 166.866 89.5061C167.031 89.351 168.625 87.447 170.407 85.275C172.189 83.103 174.714 80.2049 176.019 78.8346C176.182 78.6632 176.336 78.5021 176.481 78.3508C177.755 77.0163 178.304 76.4411 178.183 76.2138C178.091 76.0417 177.614 76.0693 176.777 76.1176L176.775 76.1177L176.704 76.1218C176.6 76.1278 176.491 76.134 176.376 76.1402C175.268 76.2 174.361 76.3822 174.361 76.5458C174.361 76.7094 173.625 77.6329 172.725 78.5982C171.825 79.5629 170.076 81.5865 168.838 83.0951C167.6 84.6036 166.245 86.1912 165.827 86.6227C165.41 87.0543 164.634 88.0703 164.104 88.8799C161.863 92.3049 158.415 95.8861 157.998 95.2238C157.622 94.6292 159.418 91.2076 160.109 91.202C160.346 91.2003 160.54 90.9346 160.54 90.6119C160.54 89.6319 162.925 86.656 167.019 82.527C169.157 80.3708 170.906 78.3934 170.906 78.1328C170.906 77.8721 171.294 77.6589 171.769 77.6589C172.244 77.6589 172.633 77.273 172.633 76.8013C172.633 75.7216 169.941 76.0905 168.974 77.304L168.805 77.5156L168.79 77.534C168.35 78.0842 167.556 79.0787 166.875 79.9307C166.083 80.9208 164.751 82.4452 163.914 83.3185C163.078 84.1918 162.3 85.1435 162.187 85.4341C161.502 87.1841 152.083 97.204 151.583 96.7149C151.221 96.36 152.193 94.2789 153.29 93.0631C153.636 92.6801 154.177 92.0375 154.494 91.6352C157.118 88.3067 159.817 85.2479 163.094 81.89C168.126 76.7337 168.47 76.1221 166.265 76.2502C165.33 76.3049 164.472 76.4538 164.36 76.5813C164.248 76.7083 163.182 78.082 161.991 79.6334C160.8 81.1848 159.662 82.5811 159.463 82.7363C159.264 82.8914 158.064 84.2849 156.798 85.8324C155.531 87.3804 154.105 89.0582 153.63 89.5614C153.155 90.0646 152.009 91.4 151.083 92.53C150.157 93.6594 149.186 94.5835 148.924 94.5835C147.92 94.5835 148.553 93.0846 150.471 90.9165C151.57 89.6754 153.349 87.6444 154.426 86.4033C155.503 85.1621 157.567 82.8181 159.013 81.1939C162.443 77.3413 163.135 76.1012 161.807 76.1853C160.955 76.2395 155.358 81.2193 155.358 81.9233C155.358 82.0598 154.905 82.6336 154.35 83.1983C153.796 83.7625 151.788 85.957 149.887 88.0754C143.876 94.7759 142.114 96.307 142.114 94.8278C142.114 94.4397 144.969 90.5758 145.837 89.7882C146.18 89.4779 147.056 88.4624 147.785 87.5316C148.514 86.6007 151.345 83.6 154.078 80.8633C158.687 76.2479 158.924 75.901 157.346 76.0679C156.288 76.1802 154.993 76.9717 153.918 78.1632C152.968 79.2165 151.464 80.8667 150.574 81.8302C149.685 82.7944 148.39 84.3086 147.695 85.1954C147.001 86.0823 145.72 87.5508 144.849 88.4585C143.978 89.3662 143.265 90.3044 143.265 90.543C143.265 91.079 139.621 94.5835 139.063 94.5835C138.841 94.5835 138.659 94.2027 138.659 93.7373C138.659 93.2719 138.918 92.8911 139.234 92.8911C139.551 92.8911 139.81 92.627 139.81 92.3043C139.81 91.0107 143.932 85.992 150.563 79.2103C152.308 77.4264 153.468 75.9664 153.142 75.9664C152.603 75.9664 143.265 84.77 143.265 85.2783C143.265 85.3979 141.732 87.0966 139.858 89.0525C134.998 94.1237 132.92 96.4949 132.909 96.9812C132.896 97.6034 131.173 97.4979 131.173 96.8751C131.173 95.1054 146.355 78.223 147.947 78.223C148.2 78.223 148.677 77.7305 149.005 77.1286C149.521 76.1847 149.422 76.0488 148.282 76.1413C147.167 76.2316 143.265 79.401 143.265 80.2162C143.265 80.7437 128.506 95.7118 127.986 95.7118C127.431 95.7118 127.746 94.0713 128.437 93.3542C128.834 92.9446 130.707 90.705 132.601 88.3778C134.495 86.0507 137.799 82.4068 139.943 80.2799C144.01 76.2451 144.224 75.9664 143.242 75.9664C142.594 75.9664 139.544 78.9734 135.291 83.8042C128.469 91.5523 121.709 97.6395 122.631 95.2046C122.981 94.2806 129.08 87.6359 134.484 82.2906C140.509 76.3309 140.682 75.9924 137.559 76.2378C135.751 76.3799 134.871 76.8905 133.096 78.825C129.293 82.9698 116.02 95.7671 114.933 96.3369C113.065 97.3163 113.793 95.8224 116.489 93.1432C117.914 91.7266 119.08 90.4646 119.08 90.3383C119.08 90.0804 125.572 83.798 129.859 79.9076L129.877 79.891C131.966 77.9951 132.976 77.0784 132.794 76.6326C132.625 76.2152 131.41 76.2104 129.06 76.2012L129.038 76.2011L124.69 76.1842L119.405 81.2937C116.499 84.1038 112.072 88.1804 109.568 90.3524C107.065 92.5243 104.553 94.7454 103.986 95.2887C102.98 96.254 101.805 96.606 101.805 95.9431C101.805 94.9999 110.175 86.9398 115.975 82.2973C121.071 78.2196 123.188 75.8756 121.557 76.1199C120.052 76.3449 116.149 79.2362 110.723 84.1466C109.694 85.0775 107.495 86.9815 105.836 88.3778C104.177 89.7741 101.89 91.774 100.753 92.8222C99.4561 94.0188 98.5993 94.4696 98.4507 94.0335C98.2429 93.4219 106.978 84.4287 107.78 84.4287C107.952 84.4287 108.815 83.785 109.699 82.998C113.68 79.4529 115.963 77.6842 116.571 77.6718ZM201.676 82.3859C204.195 79.8839 206.154 77.7051 206.784 76.7083C207.446 75.6578 202.421 76.0572 201.35 77.1398C200.833 77.6617 199.051 79.8326 197.39 81.9639C195.729 84.0953 194.144 85.9237 193.867 86.027C193.59 86.1308 193.363 86.4456 193.363 86.7277C193.363 87.3697 189.381 92.5424 188.691 92.7968C188.41 92.9006 188.181 93.3051 188.181 93.6967C188.181 94.0882 187.662 94.8684 187.029 95.4297C186.396 95.9911 185.877 96.7713 185.877 97.1628C185.877 97.5544 185.554 98.0023 185.158 98.1591C184.762 98.3154 185.651 98.4638 187.134 98.488C189.347 98.5247 189.896 98.3306 190.196 97.4043C190.397 96.7837 190.803 96.276 191.099 96.276C191.394 96.276 191.636 95.9025 191.636 95.4455C191.636 94.443 198.413 85.6281 201.676 82.3859ZM210.189 79.2109C211.386 78.0476 212.366 76.8843 212.366 76.6253C212.366 75.7436 209.202 76.1819 208.191 77.2042C207.637 77.7649 207.183 78.3477 207.183 78.5C207.183 78.8904 203.616 83.424 201.795 85.3483C200.958 86.2323 200.273 87.1102 200.273 87.2986C200.273 87.487 199.762 88.2509 199.138 88.9967C196.644 91.9726 193.571 95.4523 192.112 96.9513L190.573 98.5326H195.921H201.268L202.93 96.1349C204.554 93.7931 205.147 92.9988 206.32 91.6014C207.02 90.7659 211.258 85.5616 212.069 84.5387C212.391 84.1337 213.302 83.1097 214.093 82.2629C214.885 81.4161 216.38 79.674 217.416 78.3911L219.298 76.0589L216.976 76.2417C214.569 76.4313 213.564 77.2374 211.168 80.9028C210.508 81.9109 209.731 82.7363 209.44 82.7363C209.149 82.7363 208.911 83.0138 208.911 83.3523C208.911 83.6914 208.458 84.5506 207.903 85.262C207.349 85.9728 206.507 87.1158 206.032 87.8012C205.557 88.4861 204.779 89.5078 204.304 90.0703C203.829 90.6327 203.052 91.6561 202.577 92.3438C201.337 94.1378 197.687 97.9684 197.217 97.9684C195.321 97.9684 204.412 84.8242 210.189 79.2109ZM223.001 79.3242C224.099 78.2529 225.006 77.1229 225.015 76.8126C225.047 75.8124 221.346 76.1114 220.284 77.1951C219.729 77.7604 219.276 78.3601 219.276 78.5277C219.276 78.8402 216.936 82.2291 216.37 82.7363C216.197 82.8914 214.783 84.6685 213.229 86.6853C210.322 90.4562 209.594 91.3154 205.526 95.775C204.221 97.2057 203.153 98.4751 203.153 98.5958C203.153 98.716 205.653 98.7712 208.709 98.7176L214.265 98.6212L215.461 96.7431C216.118 95.7107 216.857 94.781 217.102 94.6777C217.348 94.5739 217.549 94.2467 217.549 93.9494C217.549 93.4671 219.665 90.2237 220.447 89.5061C220.617 89.351 221.337 88.4624 222.048 87.5316C224.711 84.044 226.544 81.9019 228.921 79.5003C231.867 76.5244 231.924 76.1695 229.464 76.0792C227.927 76.0222 227.367 76.3303 226.553 77.6803C225.998 78.5993 225.3 79.3513 225.002 79.3513C224.703 79.3513 224.459 79.6029 224.459 79.9104C224.459 80.5868 220.505 85.7618 219.786 86.027C219.506 86.1308 219.276 86.4687 219.276 86.7784C219.276 88.2836 210.345 97.745 209.776 96.843C209.577 96.5265 209.818 95.8704 210.314 95.3852C210.809 94.9 211.214 94.1615 211.214 93.744C211.214 93.3266 211.409 92.9006 211.646 92.7968C212.004 92.6411 214.278 89.9772 217.252 86.2312C217.573 85.8261 218.549 84.7384 219.42 83.8144C220.291 82.8897 221.004 81.9391 221.004 81.7022C221.004 81.4652 221.902 80.395 223.001 79.3242ZM235.256 78.9626C236.285 77.8913 237.127 76.842 237.127 76.6315C237.127 74.3789 232.508 77.2042 230.144 80.9028C229.499 81.9109 228.734 82.7363 228.442 82.7363C228.151 82.7363 227.914 82.9879 227.914 83.2953C227.914 83.8482 224.135 88.9606 223.324 89.5061C223.093 89.6613 222.8 90.0697 222.673 90.4138C222.433 91.0654 218.605 95.7084 216.792 97.5459C215.776 98.576 215.806 98.6003 217.925 98.4277C219.677 98.2855 220.276 97.9188 220.986 96.5581C221.471 95.6272 222.062 94.781 222.299 94.6777C222.536 94.5739 222.731 94.2467 222.731 93.9494C222.731 93.242 224.977 90.1194 226.618 88.5459C227.33 87.8627 227.914 87.1762 227.914 87.021C227.914 86.7604 230.637 83.7715 235.256 78.9626ZM240.438 78.3748C241.467 77.2735 242.31 76.284 242.31 76.1757C242.31 75.3013 239.229 76.5441 238.171 77.8456C237.439 78.7471 236.118 80.2799 235.237 81.2514C234.356 82.2234 232.932 84.0338 232.072 85.275C231.212 86.5161 230.372 87.6585 230.205 87.8137C230.038 87.9688 228.491 89.8728 226.768 92.0448C225.044 94.2168 223.029 96.5648 222.289 97.2633L220.944 98.5326H223.291C225.168 98.5326 225.757 98.2782 226.225 97.2633C226.548 96.5648 227.133 95.4862 227.525 94.8656C231.01 89.3594 232.116 87.8137 232.57 87.8137C232.86 87.8137 233.096 87.5728 233.096 87.2788C233.096 86.9843 233.751 86.0512 234.551 85.2056C235.351 84.3599 236.582 82.9275 237.286 82.022C237.99 81.1171 239.409 79.4754 240.438 78.3748ZM246.083 77.1427C245.904 76.8589 246.083 76.4984 246.481 76.341C246.879 76.1842 246.631 76.0352 245.931 76.011C244.673 75.967 243.419 76.9982 240.972 80.0881C240.283 80.9586 239.232 82.228 238.637 82.9089C238.042 83.5898 236.789 85.3522 235.852 86.8264C234.915 88.3005 233.912 89.5061 233.622 89.5061C233.333 89.5061 233.096 89.7577 233.096 90.0652C233.096 90.6062 229.342 95.7039 228.522 96.276C227.179 97.2136 227.447 98.5326 228.981 98.5326C230.493 98.5326 233.672 95.058 233.672 93.4044C233.672 93.1224 233.931 92.8911 234.248 92.8911C234.565 92.8911 234.824 92.627 234.824 92.3043C234.824 91.7069 236.795 88.7795 238.174 87.3268C238.592 86.8867 239.368 85.8645 239.897 85.0549C241.158 83.1283 241.704 82.4474 243.605 80.4294C244.476 79.5048 245.189 78.5034 245.189 78.2038C245.189 77.9037 245.463 77.6589 245.799 77.6589C246.134 77.6589 246.262 77.4264 246.083 77.1427ZM251.935 78.0538C252.342 77.8055 252.675 77.2978 252.675 76.9255C252.675 75.8485 249.055 76.0612 247.924 77.2047C247.369 77.7649 246.916 78.3477 246.916 78.5C246.916 78.9745 242.782 84.1359 242.244 84.3345C241.963 84.4383 241.734 84.7655 241.734 85.0628C241.734 85.53 239.684 88.6937 238.855 89.5061C238.696 89.6613 237.93 90.6767 237.153 91.7627C235.656 93.8535 235.605 93.9178 233.366 96.5581L231.931 98.2505L234.673 98.9016C236.181 99.2598 237.881 99.5769 238.451 99.6068C239.531 99.6632 243.461 96.2985 243.461 95.318C243.461 95.0089 243.975 94.1463 244.602 93.4005C246.673 90.9402 248.559 88.4952 249.795 86.6679C250.271 85.9655 251.372 84.6583 252.243 83.7625C253.114 82.866 253.826 81.947 253.826 81.7197C253.826 81.4923 254.977 80.1299 256.382 78.693L258.939 76.0792H257.049C255.573 76.0792 254.942 76.4386 254.172 77.7153C253.629 78.6151 252.941 79.3513 252.642 79.3513C252.344 79.3513 252.099 79.6029 252.099 79.9104C252.099 80.5868 248.146 85.7618 247.426 86.027C247.146 86.1308 246.916 86.4687 246.916 86.7784C246.916 87.4035 243.34 91.9151 241.309 93.8512C240.592 94.5344 240.006 95.3203 240.006 95.5973C240.006 95.8743 239.488 96.5609 238.855 97.1222C237.018 98.7504 237.447 97.0528 239.718 93.7001C240.827 92.064 241.734 90.5803 241.734 90.4026C241.734 90.0646 245.639 84.9173 246.266 84.4287C246.465 84.2736 247.656 82.8773 248.912 81.3259C250.167 79.7745 251.528 78.302 251.935 78.0538ZM260.511 79.6334C260.876 79.3231 261.589 78.4244 262.094 77.6369C262.946 76.3094 262.94 76.1994 262.019 76.1317C261.105 76.0646 257.281 79.5149 257.281 80.4069C257.281 80.619 256.828 81.1956 256.274 81.6875C255.719 82.1794 254.618 83.4149 253.826 84.4327C253.035 85.451 251.998 86.6938 251.523 87.1959C251.048 87.6974 250.068 88.8664 249.346 89.7944C246.035 94.0476 245.413 94.812 244.469 95.7931C243.914 96.3691 243.461 97.094 243.461 97.4043C243.461 97.7146 243.202 97.9684 242.885 97.9684C242.569 97.9684 242.31 98.3492 242.31 98.8147C242.31 100.476 246.613 99.9249 246.711 98.2516C246.757 97.4771 247.599 95.9454 248.583 94.8475C249.566 93.7497 250.371 92.4798 250.371 92.0251C250.371 91.5704 250.624 91.1986 250.932 91.1986C251.241 91.1986 251.867 90.5002 252.323 89.6472C252.779 88.7942 253.628 87.5852 254.209 86.9618C254.79 86.3378 256.297 84.5607 257.556 83.0127C258.816 81.4641 260.146 79.9437 260.511 79.6334ZM264.932 80.6489C265.887 80.0672 268.222 77.0896 268.222 76.4544C268.222 74.978 264.801 76.2186 264.124 77.9409C263.542 79.4207 260 84.4287 259.535 84.4287C259.245 84.4287 259.009 84.7599 259.009 85.1644C259.009 85.5689 258.102 86.7609 256.993 87.8137C255.885 88.8664 254.978 89.9332 254.978 90.1848C254.978 90.4364 253.157 92.4228 250.931 94.5993C248.579 96.8994 247.192 98.6466 247.62 98.7724C248.025 98.8914 248.79 99.1244 249.32 99.2908C249.936 99.4838 250.626 99.0821 251.23 98.1789C251.75 97.4009 252.677 96.2737 253.289 95.674C253.901 95.0743 254.402 94.2298 254.402 93.7976C254.402 93.3655 254.78 92.8696 255.241 92.6964C255.703 92.5227 256.717 91.3932 257.495 90.1859C258.272 88.9786 260.09 86.7451 261.534 85.2225C262.978 83.6998 264.166 82.1495 264.175 81.7772C264.184 81.4049 264.525 80.8971 264.932 80.6489ZM267.934 82.98C269.541 81.3592 269.95 80.4988 269.95 78.7387C269.95 75.6042 269.491 75.9258 266.665 81.0438C265.675 82.8361 263.006 87.0425 261.169 89.7047C259.907 91.5331 257.636 94.1034 255.41 96.2207C252.148 99.3247 252.466 99.7811 257.661 99.442C261.934 99.1633 263.01 98.6702 263.031 96.9812C263.036 96.5936 263.299 96.276 263.616 96.276C263.932 96.276 264.191 96.012 264.191 95.6893C264.191 95.1708 266.271 91.9495 267.09 91.1986C268.975 89.4706 269.95 87.3776 269.947 85.0578L269.946 82.4542L268.778 84.33C268.136 85.3618 267.101 86.7423 266.477 87.3984C265.853 88.054 265.343 88.8071 265.343 89.0723C265.343 89.7008 264.443 90.7535 261.456 93.6182C260.11 94.9096 259.009 96.2895 259.009 96.685C259.009 97.0805 258.62 97.4043 258.145 97.4043C257.086 97.4043 257.031 96.6083 258.022 95.6108C258.431 95.2013 259.394 93.8501 260.164 92.609C261.905 89.8023 262.359 89.2359 264.335 87.403C265.207 86.5956 265.919 85.7274 265.919 85.4741C265.919 85.2208 266.826 84.0987 267.934 82.98ZM269.95 98.4389V94.2546V94.0548C269.95 93.9002 269.95 93.7505 269.95 93.606C269.949 91.439 269.933 90.4072 269.679 90.3465C269.436 90.2885 268.974 91.1195 268.099 92.6958L268.02 92.838C267.174 94.3601 265.842 96.2004 265.059 96.9281C264.276 97.6553 263.631 98.5681 263.625 98.9557C263.625 98.9907 263.624 99.0241 263.623 99.0562L263.623 99.058C263.619 99.266 263.615 99.4135 263.687 99.5026C263.862 99.7196 264.481 99.5892 266.61 99.1408L267.042 99.0499L269.95 98.4389ZM270.019 102.482L264.946 102.434C243.687 102.235 224.96 102.217 165.003 102.343L96.6224 102.486L96.623 124.345C96.6236 144.408 96.7128 146.434 97.7113 149.01C99.0484 152.46 103.164 157.036 105.354 157.507C106.245 157.699 107.122 158.09 107.303 158.376C108.068 159.589 258.016 159.014 260.846 157.788C263.948 156.444 265.846 154.781 268.019 151.503L269.662 149.024L269.84 125.753L270.019 102.482Z" fill="#82879E"/>
<path fill-rule="evenodd" clip-rule="evenodd" d="M236.378 65.7733C229.259 67.1853 233.868 68.4693 247.566 68.8896C259.506 69.2563 261.676 68.8163 258.271 66.7199C256.776 65.8003 239.919 65.0714 236.378 65.7733ZM111.162 121.867C109.661 121.672 108.715 121.257 108.715 120.792C108.715 119.842 159.22 120.241 161.836 121.212C163.62 121.874 163.856 122.506 162.509 123.013C161.021 123.572 122.619 123.333 117.928 122.735C115.553 122.432 112.509 122.042 111.162 121.867ZM110.237 132.448C107.496 130.222 111.142 129.558 128.869 129.057C159.23 128.199 162.304 128.313 161.538 130.27C161.038 131.546 158.392 131.818 146.466 131.818C140.388 131.818 133.877 132.104 131.998 132.454C126.784 133.423 111.433 133.419 110.237 132.448ZM112.458 139.042C110.696 138.092 110.807 137.919 113.61 137.251C117.097 136.419 159.779 137.196 160.71 138.109C162.703 140.062 160.897 140.215 137.202 140.092C117.043 139.987 113.971 139.857 112.458 139.042ZM214.409 145.293C217.193 145.016 219.611 144.653 219.782 144.485C219.954 144.318 224.509 144.331 229.906 144.515C235.303 144.699 244.586 144.919 250.537 145.003C262.272 145.171 265.051 145.867 262.21 147.931C260.299 149.318 210.501 149.414 209.092 148.033C207.656 146.625 209.247 145.805 214.409 145.293ZM152.21 150.405C138.736 151.654 104.133 149.14 112.026 147.485C114.85 146.894 158.814 147.371 159.059 147.996C159.558 149.264 157.782 149.889 152.21 150.405ZM123.345 80.1158C121.415 82.0226 117.528 85.7404 114.707 88.3778C108.101 94.5547 106.235 96.6021 106.499 97.38C106.94 98.6753 127.718 79.054 127.718 77.3424C127.718 76.0313 127.051 76.4533 123.345 80.1158ZM110.915 78.3641C110.497 78.7522 108.211 80.5913 105.836 82.4508C101.229 86.0586 97.1983 89.7149 97.1983 90.2863C97.1983 91.0147 98.1553 90.5791 99.846 89.083C100.81 88.23 102.845 86.5161 104.369 85.275C105.892 84.0338 108.021 82.193 109.098 81.1848C110.175 80.1767 111.196 79.3513 111.367 79.3513C111.537 79.3513 112.065 78.9705 112.54 78.5051C113.67 77.3982 112.104 77.2623 110.915 78.3641ZM237.703 98.5326C237.281 98.5326 237.108 98.7018 237.319 98.9089C237.53 99.1154 237.876 99.1154 238.087 98.9089C238.298 98.7018 238.125 98.5326 237.703 98.5326Z" fill="#82879E"/>
<path fill-rule="evenodd" clip-rule="evenodd" d="M356.313 110.333C366.758 110.333 375.225 101.834 375.225 91.3494C375.225 80.8653 366.758 72.3662 356.313 72.3662C351.632 72.3662 347.348 74.0734 344.046 76.9014C340.743 74.0737 336.46 72.3667 331.779 72.3667C321.334 72.3667 312.867 80.8657 312.867 91.3499C312.867 101.834 321.334 110.333 331.779 110.333C336.46 110.333 340.744 108.626 344.046 105.798C347.348 108.626 351.632 110.333 356.313 110.333Z" fill="#ED0006"/>
<path fill-rule="evenodd" clip-rule="evenodd" d="M344.047 105.798C348.113 102.316 350.691 97.1349 350.691 91.3494C350.691 85.564 348.113 80.383 344.047 76.9011C347.349 74.0733 351.633 72.3662 356.314 72.3662C366.759 72.3662 375.226 80.8653 375.226 91.3494C375.226 101.834 366.759 110.333 356.314 110.333C351.633 110.333 347.349 108.626 344.047 105.798Z" fill="#F9A000"/>
<path fill-rule="evenodd" clip-rule="evenodd" d="M344.047 105.797C348.113 102.316 350.691 97.1346 350.691 91.3492C350.691 85.5637 348.113 80.3827 344.047 76.9009C339.981 80.3827 337.402 85.5637 337.402 91.3492C337.402 97.1346 339.981 102.316 344.047 105.797Z" fill="#FF5E00"/>
<path fill-rule="evenodd" clip-rule="evenodd" d="M25.5014 39.2907H20.4126L16.5967 24.6315C16.4155 23.9572 16.031 23.361 15.4653 23.08C14.0535 22.374 12.4979 21.812 10.8008 21.5286V20.9642H18.9984C20.1298 20.9642 20.9783 21.812 21.1197 22.7966L23.0997 33.3708L28.186 20.9642H33.1333L25.5014 39.2907ZM35.9621 39.2907H31.1561L35.1135 20.9642H39.9195L35.9621 39.2907ZM46.1371 26.0411C46.2786 25.0541 47.1271 24.4897 48.1171 24.4897C49.6727 24.348 51.3673 24.6314 52.7816 25.3351L53.6301 21.3893C52.2159 20.8249 50.6602 20.5415 49.2485 20.5415C44.584 20.5415 41.1898 23.08 41.1898 26.6031C41.1898 29.2833 43.594 30.6906 45.2911 31.5383C47.1271 32.3837 47.8342 32.9481 47.6928 33.7934C47.6928 35.0614 46.2786 35.6258 44.8668 35.6258C43.1697 35.6258 41.4726 35.2031 39.9195 34.4971L39.0709 38.4453C40.768 39.1489 42.604 39.4323 44.3011 39.4323C49.5313 39.5716 52.7816 37.0355 52.7816 33.229C52.7816 28.4355 46.1371 28.1545 46.1371 26.0411ZM69.6002 39.2907L65.7842 20.9642H61.6854C60.8369 20.9642 59.9883 21.5286 59.7055 22.374L52.6393 39.2907H57.5866L58.5741 36.6129H64.6528L65.2185 39.2907H69.6002ZM62.3938 25.8993L63.8055 32.8063H59.8481L62.3938 25.8993Z" fill="#172B85"/>
<g clip-path="url(#clip0_3407_24074)">
<path d="M46.678 150.006V150.019C46.6658 150.019 42.8097 150.006 41.7815 153.686C40.8389 157.06 38.1825 166.372 38.1091 166.629H37.3746C37.3746 166.629 34.657 157.109 33.7022 153.674C32.6739 149.994 28.8056 150.006 28.8056 150.006H20V177.994H28.8097V161.372H29.5442L34.6856 177.994H40.8022L45.9435 161.384H46.678V177.994H55.4877V150.006H46.678ZM78.8606 150.006C78.8606 150.006 76.2776 150.239 75.0657 152.941L68.8267 166.629H68.0922V150.006H59.2825V177.994H67.6026C67.6026 177.994 70.3079 177.75 71.52 175.06L77.6366 161.372H78.371V177.994H87.1807V150.006H78.8606ZM91.0979 162.717V177.994H99.9076V169.074H109.452C113.614 169.074 117.135 166.421 118.445 162.721H91.0979V162.717Z" fill="#4DB45E"/>
<path d="M109.458 150.006H89.8633C90.8426 155.337 94.8454 159.611 100.019 161.005C101.221 161.33 102.46 161.494 103.704 161.494H118.806C118.94 160.858 119.002 160.211 119.002 159.538C119.002 154.273 114.73 150.006 109.458 150.006Z" fill="url(#paint0_linear_3407_24074)"/>
</g>
<defs>
<linearGradient id="paint0_linear_3407_24074" x1="89.8632" y1="155.75" x2="119.002" y2="155.75" gradientUnits="userSpaceOnUse">
<stop offset="0.3" stop-color="#00B4E6"/>
<stop offset="1" stop-color="#088CCB"/>
</linearGradient>
<clipPath id="clip0_3407_24074">
<rect width="99" height="28" fill="white" transform="translate(20 150)"/>
</clipPath>
</defs>
</svg>
