<svg width="166" height="85" viewBox="0 0 166 85" fill="none" xmlns="http://www.w3.org/2000/svg">
<path fill-rule="evenodd" clip-rule="evenodd" d="M100.115 0.487889C99.9907 0.616316 97.9617 0.759881 95.6064 0.807014C93.2507 0.85458 90.8111 1.05436 90.1851 1.25111C89.5588 1.44785 85.919 1.80717 82.0963 2.04932C78.2737 2.29147 72.1161 2.79525 68.4129 3.16843C58.1794 4.1993 52.5818 4.59151 47.5259 4.63129C44.9973 4.65118 42.7819 4.81377 42.603 4.99192C42.4236 5.17008 41.8536 5.33267 41.3358 5.35256C40.8181 5.37245 35.5076 5.54495 29.5347 5.73565C23.5617 5.92678 18.1861 6.14345 17.5888 6.21739C13.909 6.67359 12.6141 6.79549 8.90092 7.03505C1.1509 7.53536 -2.38807 9.10033 1.74389 10.2004C2.82466 10.4884 4.53531 11.2542 5.54484 11.9028C8.28804 13.6649 8.6755 13.8776 14.4395 16.7904C17.366 18.2692 19.7608 19.7394 19.7608 20.0577C19.7608 20.3759 20.1965 20.8689 20.729 21.1526C21.262 21.4362 21.9393 21.8807 22.2346 22.1406C23.5352 23.2848 24.0848 23.6938 24.3211 23.6938C24.5587 23.6938 27.1051 25.3833 27.5799 25.8559C27.9561 26.2304 29.4973 27.1389 30.4699 27.5601C31.5285 28.018 32.2118 28.8828 31.5151 28.8828C31.2622 28.8828 31.055 28.6883 31.055 28.4504C31.055 28.2126 30.7414 28.018 30.3578 28.018C29.9743 28.018 27.649 27.0451 25.1907 25.8559C22.7325 24.6668 20.5049 23.6938 20.2408 23.6938C19.9767 23.6938 19.7608 23.5148 19.7608 23.2956C19.7608 23.0768 19.1743 22.7694 18.4576 22.6128C17.7408 22.4563 17.1544 22.1644 17.1544 21.9642C17.1544 21.764 16.568 21.4721 15.8512 21.3156C15.1345 21.159 14.5481 20.8516 14.5481 20.6328C14.5481 20.4136 14.3309 20.2345 14.0655 20.2345C13.8 20.2345 11.9647 19.2616 9.98693 18.0725C8.00913 16.8833 6.19033 15.9104 5.94446 15.9104C5.69903 15.9104 5.42146 15.6812 5.32763 15.4014C5.05614 14.5906 4.12131 15.4334 4.13565 16.4764C4.14521 17.1748 4.83066 17.8125 6.74199 18.9022C8.16811 19.7152 9.33534 20.5424 9.33534 20.74C9.33534 20.9376 9.53475 21.0994 9.77844 21.0994C10.0221 21.0994 11.0481 21.6252 12.059 22.2677C14.2136 23.6381 16.912 25.1117 21.7221 27.5454C24.8197 29.1124 30.5377 32.5324 31.7066 33.517C31.9455 33.7186 32.9229 34.3529 33.8786 34.9276C34.8343 35.5018 35.7139 36.1007 35.8334 36.2581C36.0527 36.547 41.795 39.2608 42.1868 39.2608C43.1568 39.2608 48.4112 42.4658 52.6322 45.632C60.983 51.8959 64.6659 53.1097 70.9142 51.6564C72.5249 51.2819 75.8954 50.664 78.404 50.2839C80.9126 49.9038 84.5641 49.311 86.5185 48.9672C88.4724 48.623 90.9158 48.364 91.9484 48.3912L93.8249 48.4409L92.3046 48.7986C91.4684 48.9949 89.8172 49.3628 88.6348 49.6162C87.4528 49.8696 85.889 50.2575 85.1597 50.4785C84.4308 50.6995 82.5633 51.2119 81.0103 51.6175C71.8107 54.02 70.7052 54.4917 71.4563 55.6925C71.779 56.2093 72.0279 56.2387 72.68 55.8365C73.1296 55.5593 74.4553 55.194 75.6252 55.0253C76.795 54.8567 77.9479 54.5661 78.1868 54.3793C78.4257 54.1929 79.4031 53.9053 80.3587 53.7406C81.3144 53.5754 82.9338 53.1689 83.9577 52.8368C84.9816 52.5048 86.485 52.2332 87.2986 52.2332C88.1122 52.2332 88.885 52.0611 89.0158 51.8505C89.1461 51.6404 90.1839 51.3381 91.322 51.179C92.4597 51.0199 93.977 50.7077 94.6937 50.4858C95.4105 50.264 97.1698 49.8883 98.6033 49.6513C100.037 49.4143 102.871 48.9304 104.902 48.5758C106.933 48.2208 110.158 47.7244 112.069 47.4719C113.981 47.2194 116.426 46.8194 117.503 46.5829C119.228 46.2041 127.038 45.6644 139.436 45.0668C144.186 44.8376 145.301 44.6076 145.301 43.8565C145.301 43.1231 149.719 42.7253 158.072 42.7063C165.223 42.6903 167.499 41.7039 165.051 39.6815C164.021 38.8301 147.127 40.2545 144.649 41.4017C142.965 42.1809 139.42 42.6384 137.699 42.2981L135.961 41.9547L137.511 41.905C138.364 41.8777 140.025 41.591 141.203 41.2685C145.083 40.206 159.623 37.9635 162.632 37.9635C164.185 37.9635 165.006 36.793 164.595 35.1619C164.29 33.9538 158.676 33.642 153.12 34.5241C151.806 34.733 149.264 35.1239 147.473 35.3933C145.681 35.6627 144.029 36.0592 143.802 36.2745C143.064 36.975 141.933 36.6888 141.683 35.7383C141.459 34.8852 141.237 34.8307 138.918 35.0629C136.455 35.3094 136.417 35.2972 137.333 34.5479C137.85 34.1258 138.338 33.3112 138.419 32.7369C138.605 31.4258 143.563 30.8244 143.563 32.113C143.563 33.2009 161.715 32.8987 162.411 31.7995C162.805 31.1785 162.67 30.8508 161.669 29.995C160.997 29.4199 160.489 28.8859 160.54 28.808C161.116 27.9259 156.12 23.6938 154.503 23.6938C154.22 23.6938 153.989 23.5122 153.989 23.2904C153.989 23.0686 153.548 22.7507 153.011 22.5838C152.474 22.4165 151.936 22.1601 151.817 22.0139C151.464 21.5815 145.05 18.5049 144.501 18.5049C144.224 18.5049 143.997 18.3103 143.997 18.0725C143.997 17.8346 143.753 17.6335 143.454 17.6253C143.156 17.6171 142.13 17.2349 141.174 16.7752C140.218 16.3156 139.208 15.9333 138.929 15.9251C138.651 15.9169 138.358 15.7643 138.278 15.5861C138.198 15.4079 136.765 14.5543 135.092 13.6895C130.399 11.2628 129.03 10.5238 128.794 10.289C128.54 10.0365 122.781 7.21971 120.475 6.21996C119.602 5.8416 118.576 5.53245 118.194 5.53245C117.812 5.53245 117.499 5.36205 117.499 5.15406C117.499 4.94606 116.911 4.65849 116.191 4.51536C115.401 4.35796 114.699 3.85248 114.418 3.23802C113.52 1.27486 101.577 -1.02124 100.115 0.487889ZM112.069 6.18497C115.293 7.16482 118.803 8.6696 118.803 9.07131C118.803 9.26547 119.18 9.42415 119.641 9.42415C120.101 9.42415 120.74 9.66761 121.059 9.96468C121.378 10.2622 122.418 10.8935 123.37 11.3679C124.322 11.8427 126.47 13.0228 128.142 13.9905C129.814 14.9583 131.476 15.8823 131.834 16.0436C132.193 16.2053 132.779 16.5317 133.138 16.7691C134.904 17.9401 140.595 21.0994 140.938 21.0994C141.153 21.0994 141.587 21.3433 141.903 21.6408C142.219 21.9387 143.203 22.5627 144.089 23.0275C146.066 24.0636 146.046 24.0835 143.32 23.8158C141.611 23.6476 141.031 23.3938 140.713 22.6738C140.304 21.7463 139.558 21.4764 133.355 20.014C131.921 19.6758 129.225 18.9793 127.363 18.466C123.894 17.5099 123.063 17.5899 123.834 18.8071C124.245 19.4557 125.282 19.8285 130.748 21.2913C135.423 22.5423 135.278 22.7494 129.88 22.5319C127.013 22.4161 124.081 22.1545 123.364 21.95C122.647 21.7454 121.083 21.4557 119.889 21.3056C118.694 21.156 117.001 20.7647 116.125 20.4365C114.847 19.9565 114.445 19.9466 114.079 20.3855C112.951 21.7381 123.411 23.9464 135.961 25.0053C139.067 25.2674 142.39 25.7016 143.346 25.9705L145.083 26.4587L142.694 26.8583C140.368 27.247 131.196 27.2799 127.708 26.9115C121.097 26.2135 105.771 26.1855 105.771 26.8708C105.771 27.4334 106.21 27.5882 107.834 27.5977C111.132 27.6167 116.239 28.0379 118.498 28.4777C119.645 28.7004 122.186 28.9118 124.145 28.9477C126.105 28.9832 127.122 29.0981 126.406 29.2028C125.69 29.3074 125.006 29.5358 124.885 29.7096C124.765 29.8834 122.81 30.2553 120.54 30.5364C118.27 30.817 114.361 31.3424 111.852 31.7039C109.344 32.0654 105.434 32.5618 103.164 32.8065C100.895 33.0509 98.7445 33.3734 98.3861 33.5226C98.0277 33.6722 95.8775 34.0459 93.6078 34.3533C91.3381 34.6608 87.7217 35.2168 85.5715 35.5891C83.4212 35.9615 80.0981 36.502 78.1868 36.7904C76.2754 37.0788 74.5161 37.4364 74.2772 37.5852C74.0383 37.7339 72.67 37.996 71.2365 38.1677C69.803 38.3389 68.4346 38.6334 68.1957 38.8215C65.8556 40.6657 62.2945 39.4813 58.0265 35.4387C57.3584 34.8056 56.441 34.0411 55.9879 33.7393C55.5349 33.4374 54.2008 32.5129 53.0241 31.6853C51.8473 30.8572 50.6418 30.1801 50.3451 30.1801C50.0489 30.1801 49.7413 30.0339 49.6614 29.8557C49.462 29.4091 43.1299 26.2637 42.4579 26.2771C42.1594 26.2832 41.9149 26.1093 41.9149 25.8901C41.9149 25.6713 41.3285 25.3638 40.6117 25.2073C39.895 25.0508 39.3085 24.752 39.3085 24.544C39.3085 24.3356 38.6244 24.0376 37.7882 23.8815C36.9519 23.7254 36.2678 23.4456 36.2678 23.2601C36.2678 23.0746 35.7912 22.8039 35.2087 22.6582C34.6266 22.5129 32.8847 21.8107 31.3378 21.0981C29.7909 20.385 28.3127 19.8021 28.0525 19.8021C27.7927 19.8021 27.5799 19.6231 27.5799 19.4039C27.5799 19.1851 26.9934 18.8776 26.2767 18.7211C25.5599 18.5646 24.9735 18.2657 24.9735 18.0577C24.9735 17.8493 24.2893 17.5514 23.4531 17.3953C22.6169 17.2392 21.9327 16.9382 21.9327 16.7272C21.9327 16.5158 21.7264 16.3428 21.4745 16.3428C21.2225 16.3428 20.0983 15.9393 18.9767 15.4468C17.8551 14.9539 16.253 14.2564 15.4168 13.897C12.9008 12.8156 8.26414 10.5229 8.03217 10.2458C7.91271 10.1031 7.52175 9.8752 7.16337 9.73942C6.805 9.60364 8.92526 9.4769 11.8752 9.45831C24.4683 9.37831 63.8613 7.9903 67.3269 7.5047C68.0437 7.40395 70.5849 7.20197 72.974 7.05539C75.3632 6.9088 78.9009 6.58752 80.8362 6.34147C90.6196 5.09742 108.201 5.00923 112.069 6.18497ZM148.993 25.8559C149.141 26.0937 148.847 26.2884 148.341 26.2884C147.835 26.2884 147.542 26.0937 147.69 25.8559C147.837 25.6181 148.131 25.4235 148.341 25.4235C148.552 25.4235 148.845 25.6181 148.993 25.8559ZM33.4442 26.2884C33.992 26.5227 34.0719 26.6598 33.6614 26.6598C33.303 26.6598 32.6188 26.4929 32.141 26.2884C31.5932 26.054 31.5133 25.9169 31.9238 25.9169C32.2822 25.9169 32.9664 26.0838 33.4442 26.2884ZM6.13861 26.9378C5.43142 27.6418 5.43143 27.7465 6.13385 28.8236C6.54261 29.4506 7.28369 30.5939 7.78064 31.3641C8.62814 32.6777 10.2041 33.3081 10.2041 32.3335C10.2041 32.0909 9.71542 31.1219 9.11813 30.1801C8.52084 29.2383 8.03217 28.3704 8.03217 28.2519C8.03217 27.8986 10.2901 28.9654 12.2892 30.264C13.3166 30.9312 14.3291 31.4773 14.539 31.4773C14.7488 31.4773 15.1788 31.722 15.4946 32.0208C15.81 32.3201 17.3391 33.2182 18.892 34.0169C20.445 34.816 22.7824 36.0592 24.0861 36.7791C25.3897 37.4995 27.4422 38.588 28.6472 39.1981C30.1307 39.9492 30.5924 40.3578 30.0776 40.4642C29.072 40.6722 29.1181 41.2512 30.2332 42.4139C30.7371 42.9389 31.3426 43.9036 31.5789 44.5578C31.8152 45.2121 32.1697 45.747 32.366 45.747C32.5628 45.747 32.8525 46.3308 33.0098 47.0443C33.167 47.7577 33.4759 48.3415 33.6957 48.3415C33.9159 48.3415 34.0958 48.5694 34.0958 48.8479C34.0958 49.1263 34.7039 50.5965 35.4472 52.1152C37.0518 55.3942 36.9589 55.5952 34.379 54.4251C33.2939 53.933 32.1997 53.5305 31.9477 53.5305C31.6958 53.5305 31.4894 53.3514 31.4894 53.1322C31.4894 52.9134 30.903 52.6059 30.1862 52.4494C29.4695 52.2929 28.8831 51.9854 28.8831 51.7666C28.8831 51.5474 28.6342 51.3684 28.3301 51.3684C28.026 51.3684 26.7385 50.6873 25.4687 49.8549C24.199 49.0225 22.9818 48.3415 22.7637 48.3415C22.5457 48.3415 22.3672 48.1469 22.3672 47.9091C22.3672 47.6712 22.1547 47.4767 21.8949 47.4767C21.4467 47.4767 15.7266 43.9183 13.9169 42.5138C13.4499 42.1515 12.8148 41.8553 12.5051 41.8553C12.1949 41.8553 11.9417 41.6888 11.9417 41.4856C11.9417 41.0462 3.95099 35.8015 3.28158 35.8015C1.80942 35.8015 3.47102 38.0651 6.93401 40.7768C7.8432 41.489 8.83927 42.3149 9.14769 42.612C9.45567 42.9095 9.89616 43.1525 10.1268 43.1525C10.3571 43.1525 10.6581 43.4444 10.7958 43.8011C10.933 44.1579 11.2679 44.4497 11.5398 44.4497C11.8113 44.4497 12.747 44.9846 13.6184 45.6389C15.4286 46.9971 16.6509 47.7871 17.5888 48.2044C17.9472 48.364 18.3381 48.6061 18.4576 48.7424C18.8364 49.1748 21.4523 50.936 21.7156 50.936C21.9645 50.936 24.5513 52.6643 24.9735 53.1123C25.4752 53.6455 33.3413 57.4252 34.0133 57.4563C34.5167 57.4797 34.5662 57.5623 34.1709 57.7197C33.8538 57.8455 32.29 57.532 30.6958 57.0222C29.1016 56.5128 26.722 55.7846 25.4079 55.4041C21.6487 54.3166 15.6267 52.0477 12.3374 50.4797C10.6854 49.6923 10.6107 50.84 12.2345 52.0628C14.5441 53.802 17.1192 54.9683 22.7894 56.8424C24.5878 57.4369 26.4505 58.0773 26.9283 58.2649C27.4061 58.453 30.1428 59.343 33.0098 60.2424C35.8768 61.1418 38.408 62.043 38.6352 62.2445C38.8619 62.446 39.3915 62.6112 39.8111 62.6112C40.2307 62.6112 41.6091 63.6403 42.8736 64.8982C47.1076 69.1095 48.4703 69.6604 52.7326 68.8825C55.6109 68.3571 54.6074 69.2773 51.6005 69.9207C50.2153 70.2169 48.105 70.7254 46.9104 71.0506C45.7158 71.3758 43.4678 71.9695 41.9149 72.3699C40.3619 72.7703 38.3094 73.3407 37.3537 73.6373C36.3981 73.934 33.5637 74.8057 31.055 75.5745C28.5464 76.3434 25.8097 77.2324 24.9735 77.5502C24.1373 77.8681 22.9644 78.2629 22.3672 78.4276C20.5119 78.9392 19.6483 79.7088 20.3129 80.258C20.8642 80.7133 23.7846 80.0452 25.9726 78.9629C26.4022 78.7502 27.5751 78.3991 28.579 78.1824C29.5825 77.9653 31.3808 77.4914 32.5754 77.129C33.77 76.7663 35.627 76.2443 36.7021 75.9693C37.7773 75.6939 39.0479 75.3112 39.5257 75.1188C40.0035 74.9264 41.3719 74.5475 42.5665 74.276C47.8292 73.0816 49.1089 72.7526 49.5168 72.4892C49.7557 72.3349 50.9286 72.0711 52.1231 71.9033C53.3177 71.7356 55.1934 71.3153 56.2911 70.9685C58.1369 70.3864 58.4153 70.4028 59.9835 71.1846C60.9166 71.6499 62.5104 72.3812 63.526 72.8092C65.84 73.7852 65.8287 73.8946 63.307 74.8576C62.1733 75.2909 60.6034 75.9235 59.8188 76.263C59.0343 76.6028 58.1217 76.8808 57.7907 76.8808C57.4597 76.8808 56.6357 77.1606 55.9593 77.5022C55.283 77.8438 53.6544 78.5495 52.3404 79.0702C47.5955 80.9507 43.6525 82.9156 43.6525 83.3995C43.6525 83.9681 45.3279 83.6667 47.3448 82.7358C50.2865 81.3775 51.853 80.7726 52.4277 80.7726C52.7622 80.7726 53.2209 80.5962 53.4481 80.3804C53.6748 80.1646 54.5449 79.791 55.3811 79.5506C56.9232 79.1065 59.2303 78.3251 60.811 77.7115C66.5898 75.4682 69.3707 75.2658 73.6256 76.7775C76.2203 77.6994 77.1008 77.6259 77.1008 76.4861C77.1008 75.8634 77.5578 75.7548 80.0955 75.7756C84.0719 75.8076 86.9211 73.0825 84.1597 71.8882C83.2722 71.5042 84.8347 71.125 90.3498 70.3856C92.2611 70.1296 94.5091 69.7503 95.3453 69.5436C96.9739 69.1406 104.258 68.1218 110.984 67.3565C116.746 66.7005 117.865 66.5937 116.732 66.8082C116.19 66.9102 115.86 67.1753 115.997 67.3971C116.135 67.619 115.735 67.8001 115.109 67.8001C114.483 67.8001 113.054 68.0721 111.934 68.4051C106.868 69.9095 104.432 70.4526 100.992 70.8448C92.9566 71.7606 90.3828 72.1529 90.1539 72.4971C90.0227 72.6943 89.3303 72.9991 88.6148 73.1733C86.0384 73.8025 85.3882 75.1339 87.6348 75.1802C89.114 75.2109 88.7126 75.3774 84.0511 76.6664C83.4538 76.8316 82.3492 77.2393 81.5964 77.5723C80.8435 77.9057 79.9022 78.1781 79.5043 78.1781C79.1068 78.1781 78.3588 78.403 77.8428 78.678C77.3263 78.953 76.3128 79.3253 75.5908 79.5052C74.2525 79.8381 71.9332 80.6165 70.3677 81.2577C68.8773 81.8687 65.648 82.9779 64.2862 83.3468C62.238 83.9016 61.4626 84.2894 61.4626 84.7598C61.4626 85.2943 64.4586 84.8879 66.8925 84.0226C67.8482 83.6832 69.0584 83.3964 69.5819 83.3861C70.1053 83.3757 70.641 83.1945 70.7717 82.9835C70.9025 82.7729 71.7447 82.4672 72.6435 82.3042C74.3732 81.9911 78.1698 80.8651 79.2871 80.3341C79.6533 80.1602 80.6306 79.8809 81.459 79.7136C82.2874 79.5462 83.747 79.1566 84.7027 78.8475C88.0036 77.7807 92.358 76.5116 97.9517 74.9865C99.2658 74.628 101.39 74.0321 102.671 73.662C103.974 73.2862 106.657 72.9878 108.753 72.9856C110.816 72.9839 114.117 72.7893 116.088 72.5532C118.059 72.3175 121.284 71.934 123.255 71.7014C125.226 71.4688 127.719 71.0908 128.794 70.8616C129.869 70.6329 132.996 70.1464 135.744 69.7811C138.492 69.4157 142.89 68.8193 145.518 68.4561C148.146 68.0924 151.166 67.7963 152.23 67.7976C155.443 67.8019 159.109 66.4852 161.023 64.6397C163.984 61.7836 162.233 60.1897 158.714 62.5368C156.306 64.1432 153.74 64.7585 147.473 65.2329C144.725 65.4405 142.086 65.7328 141.608 65.882C140.767 66.144 136.401 66.8411 129.662 67.7889C127.871 68.041 125.916 68.4237 125.319 68.6395C124.721 68.8548 122.992 69.1553 121.476 69.3067C118.334 69.6206 118.13 69.0057 121.101 68.1824C122.107 67.9035 124.298 67.2073 125.97 66.6348C129.035 65.5862 134.582 64.6154 141.391 63.9361C149.157 63.1616 154.394 62.2691 160.504 60.6791C163.476 59.9064 163.429 57.4222 160.443 57.4222C159.788 57.4222 159.142 57.2445 159.007 57.0274C158.872 56.8104 157.932 56.4964 156.919 56.3299C154.751 55.974 153.989 55.4569 153.989 54.3425C153.989 53.8959 153.695 53.5305 153.337 53.5305C152.294 53.5305 152.567 52.8646 154.423 50.8832C155.379 49.8632 156.161 48.8738 156.161 48.6848C156.161 48.4958 156.531 48.3415 156.983 48.3415C157.435 48.3415 157.956 48.0012 158.14 47.5847C159.536 44.4294 157.475 44.0221 144.994 44.9859C144.706 45.008 144.555 45.1636 144.659 45.3314C144.764 45.4996 143.242 45.7764 141.278 45.9468C139.314 46.1176 137.509 46.3857 137.268 46.5426C137.027 46.6996 135.266 47.0615 133.355 47.3469C131.443 47.6323 128.12 48.175 125.97 48.5529C123.82 48.9313 119.91 49.5276 117.282 49.8787C114.654 50.2294 110.354 50.8067 107.726 51.1613C105.097 51.5158 101.383 51.9923 99.4721 52.2207C97.5608 52.4485 95.5082 52.7482 94.9109 52.8866C94.3137 53.025 92.3589 53.4081 90.567 53.738C88.7751 54.0679 85.7452 54.6444 83.8339 55.0189C76.083 56.5375 66.2418 56.9543 65.4025 55.7993C65.2661 55.6121 64.6662 55.2208 64.0689 54.9302C62.6941 54.2608 61.4487 53.466 60.6898 52.7737C60.364 52.4767 59.8345 52.2332 59.513 52.2332C59.1916 52.2332 58.8636 52.087 58.7837 51.9089C58.653 51.6153 57.0987 50.7146 53.4268 48.8033C52.71 48.4306 52.0258 48.028 51.9064 47.9091C51.7865 47.7901 50.7113 47.2064 49.5168 46.6118C48.3222 46.0173 47.2449 45.4002 47.1233 45.2407C47.0012 45.0811 46.3661 44.8168 45.7115 44.6534C45.0568 44.4899 44.5212 44.2037 44.5212 44.0174C44.5212 43.831 43.9857 43.5447 43.331 43.3813C42.6764 43.2178 42.0413 42.9428 41.9192 42.7707C41.7976 42.5981 40.9158 42.0537 39.9601 41.5603C36.3937 39.72 35.1765 39.0368 34.9606 38.7544C34.8386 38.5948 34.2031 38.3306 33.5485 38.1672C32.8938 38.0037 32.3582 37.7175 32.3582 37.5311C32.3582 37.3447 31.8226 37.0585 31.168 36.8951C30.5133 36.7316 29.8782 36.451 29.7562 36.2715C29.4664 35.8447 23.0092 32.7746 22.401 32.7746C22.1434 32.7746 21.9327 32.58 21.9327 32.3421C21.9327 32.1043 21.6886 31.9067 21.3898 31.9028C21.0913 31.8994 18.501 30.7219 15.634 29.2862C9.81881 26.3748 7.32407 25.7578 6.13861 26.9378ZM36.8377 28.2519C39.1721 29.3905 39.7942 29.7101 41.2633 30.5265C41.7411 30.792 43.2072 31.5297 44.5212 32.1662C45.8353 32.8027 47.0082 33.4431 47.1276 33.5893C47.2471 33.7358 48.1267 34.2431 49.0824 34.7161C50.038 35.1896 50.9177 35.6765 51.0371 35.7985C51.1566 35.9204 52.0527 36.5586 53.0284 37.2172C55.2755 38.7332 56.8072 40.1472 56.5166 40.4369C56.3928 40.5602 55.9749 40.3461 55.5878 39.9609C55.2012 39.576 54.6218 39.2608 54.3003 39.2608C53.9789 39.2608 53.6509 39.1034 53.571 38.911C53.4467 38.6105 49.5897 36.2603 47.572 35.2558C47.2079 35.0746 46.324 34.5423 45.6072 34.0731C44.8905 33.604 43.9131 33.0189 43.4353 32.7737C42.9574 32.5281 41.5891 31.7402 40.3945 31.0228C39.1999 30.3055 37.7338 29.4856 37.1365 29.2015C36.5392 28.917 35.9528 28.5663 35.8334 28.4223C35.7139 28.2783 35.2252 27.9397 34.7474 27.6699C33.1023 26.7411 34.588 27.1549 36.8377 28.2519ZM5.10001 33.8538C4.30507 34.7524 4.38109 34.8311 6.37104 35.1658C8.23981 35.4802 11.1581 37.058 14.5077 39.5656C15.5602 40.3539 18.5901 42.0667 21.2408 43.3722C23.891 44.6772 26.6768 46.281 27.4313 46.9353C30.6962 49.7676 30.6715 49.7547 31.7631 49.2595C32.3435 48.9962 32.7926 48.4176 32.7926 47.9333C32.7926 47.0058 29.0351 43.1525 28.1302 43.1525C27.8274 43.1525 27.5799 42.9579 27.5799 42.7201C27.5799 42.4822 27.3735 42.2877 27.1216 42.2877C26.7072 42.2877 25.1447 41.6503 21.2156 39.8782C20.4628 39.5384 19.534 39.2608 19.1522 39.2608C18.7699 39.2608 18.4576 39.109 18.4576 38.923C18.4576 38.7375 17.9203 38.3553 17.263 38.0742C15.9737 37.522 14.4633 36.614 14.1137 36.1812C13.7496 35.7306 9.86053 34.0718 9.16767 34.0718C8.81017 34.0718 8.39703 33.8772 8.24934 33.6394C7.85273 33.0007 5.72684 33.1451 5.10001 33.8538ZM111.201 38.2299C109.528 38.5689 107.085 39.0303 105.771 39.256C104.457 39.4813 101.525 40.0802 99.2549 40.5866C96.9852 41.0934 94.444 41.6585 93.6078 41.8427C91.2573 42.3607 85.4207 43.9871 82.7583 44.8658C81.4386 45.3016 79.4791 45.7972 78.404 45.9675C77.3289 46.1379 76.2537 46.4233 76.0148 46.6019C74.9041 47.4317 70.5849 47.5104 70.5849 46.7005C70.5849 46.2693 69.9003 45.2562 69.0636 44.4489C66.9955 42.4537 67.2483 42.3469 75.1678 41.87C82.0216 41.4566 91.7103 40.424 93.3906 39.9272C93.8684 39.7862 95.9209 39.4714 97.9517 39.2283C99.9825 38.9849 103.697 38.5278 106.205 38.2121C112.603 37.4074 115.215 37.417 111.201 38.2299ZM127.056 39.4618C125.025 39.7079 123.168 40.0322 122.929 40.1818C122.69 40.3319 120.545 40.5965 118.162 40.7699C115.779 40.9437 113.41 41.2443 112.899 41.4376C112.387 41.6313 109.842 41.889 107.241 42.0109C102.169 42.2479 103.257 41.9335 110.766 40.9908C112.917 40.721 115.262 40.3293 115.979 40.12C116.696 39.9107 119.237 39.6045 121.626 39.4393C124.015 39.2742 126.323 39.0121 126.755 38.8569C127.186 38.7021 128.261 38.674 129.144 38.7946C130.449 38.9732 130.059 39.0978 127.056 39.4618ZM32.1115 40.9433C32.2431 41.1552 33.2808 41.8129 34.4177 42.4049C35.5549 42.9964 37.1691 43.8876 38.0053 44.3849C38.8415 44.8822 40.1121 45.5779 40.8289 45.9312C41.5456 46.2841 43.5004 47.3686 45.1728 48.3415C46.8452 49.3144 48.8 50.3998 49.5168 50.7539C50.2335 51.1081 51.7974 51.9816 52.9919 52.695C54.1865 53.4085 55.6526 54.2249 56.2499 54.509C56.8472 54.7935 57.4336 55.1334 57.553 55.2644C58.0296 55.7872 63.2958 58.7199 63.7745 58.7294C64.056 58.7346 63.6997 59.0135 62.983 59.3482C57.2103 62.0473 55.2586 63.0483 54.9467 63.4721C54.4806 64.1043 51.8269 64.7344 51.1188 64.3806C49.4894 63.566 47.0707 62.6112 46.6368 62.6112C45.5899 62.6112 43.4426 60.5844 41.8706 58.1119C40.9492 56.6624 40.0036 55.2497 39.7694 54.973C39.5353 54.6958 39.2169 53.9664 39.0618 53.3515C38.9067 52.7366 38.6213 52.2332 38.4271 52.2332C38.2329 52.2332 37.9454 51.6494 37.7882 50.936C37.6309 50.2225 37.3221 49.6387 37.1022 49.6387C36.882 49.6387 36.7021 49.3884 36.7021 49.0822C36.7021 48.386 32.3812 41.8553 31.9203 41.8553C31.7344 41.8553 31.4699 41.5634 31.3322 41.2066C31.0654 40.5148 31.7105 40.2969 32.1115 40.9433ZM102.413 43.0038C102.118 43.1222 101.532 43.1296 101.109 43.0198C100.687 42.9099 100.927 42.813 101.644 42.8044C102.361 42.7957 102.707 42.8853 102.413 43.0038ZM63.5412 44.336C64.1897 44.749 64.939 45.2843 65.2057 45.5252C65.4725 45.766 66.2474 46.4358 66.9273 47.0135C67.6462 47.6241 67.9494 48.1348 67.6518 48.2338C67.3704 48.3272 66.7392 48.0315 66.2487 47.577C65.7588 47.1221 64.8231 46.4757 64.1702 46.1405C63.5173 45.805 62.7245 45.2878 62.4091 44.9903C62.0933 44.6932 61.642 44.4497 61.4061 44.4497C61.1698 44.4497 61.0977 44.2552 61.2454 44.0174C61.6285 43.4003 62.1954 43.479 63.5412 44.336ZM96.5308 48.1702C96.3866 48.3138 96.0117 48.3294 95.6985 48.2044C95.3519 48.0665 95.4548 47.964 95.9609 47.9432C96.4187 47.9246 96.675 48.0267 96.5308 48.1702ZM150.079 50.7198L148.606 52.2332L143.804 52.2695C139.041 52.3058 137.653 52.4559 130.531 53.706C128.5 54.0623 125.568 54.557 124.015 54.8052C122.462 55.0534 120.801 55.4292 120.323 55.6407C119.845 55.8521 117.89 56.2546 115.979 56.5357C114.068 56.8164 110.647 57.3314 108.377 57.6795C106.107 58.0275 102.393 58.495 100.124 58.7177C97.854 58.9404 95.5082 59.2319 94.9109 59.3655C94.3137 59.4987 91.6747 59.8913 89.0466 60.2381C78.5056 61.6296 72.0388 62.8131 71.2022 63.5041C70.601 64.0009 69.1687 63.9015 66.2409 63.1594L64.7206 62.7738L66.5428 62.475C67.6045 62.3011 68.6158 61.8202 68.965 61.3238C69.4781 60.5948 70.3729 60.4106 75.179 60.0461C78.2667 59.8117 81.8683 59.4083 83.1823 59.1497C84.4963 58.8911 86.9398 58.4081 88.6122 58.0764C95.4661 56.7173 108.376 54.8243 110.766 54.8273C111.722 54.8286 114.165 54.5544 116.196 54.2184C118.227 53.8824 122.234 53.2805 125.101 52.8801C127.968 52.4801 131.78 51.8873 133.572 51.563C137.47 50.8577 145.698 49.6868 148.124 49.4913C149.08 49.4148 150.242 49.3192 150.707 49.2789C151.403 49.2193 151.292 49.4744 150.079 50.7198ZM155.292 58.287C155.292 58.4803 154.266 58.7761 153.011 58.9443C151.757 59.1129 150.535 59.3745 150.296 59.5255C150.057 59.6768 148.005 60.0253 145.735 60.2999C143.465 60.5745 139.36 61.1228 136.613 61.518C130.988 62.328 123.21 63.2818 117.065 63.9153C114.795 64.1497 112.156 64.5272 111.201 64.7543C110.245 64.9817 107.907 65.2939 106.005 65.4482C104.103 65.6026 102.142 65.8819 101.648 66.0692C101.153 66.2564 98.9951 66.512 96.8523 66.6374C94.7094 66.7628 93.5426 66.7771 94.2594 66.669C94.9761 66.5609 95.9535 66.2876 96.4313 66.0614C96.9092 65.8353 98.3752 65.4573 99.6893 65.2216C101.003 64.986 103.447 64.5082 105.119 64.1601C106.792 63.812 109.528 63.2974 111.201 63.0168C112.873 62.7361 114.632 62.3314 115.11 62.1178C115.588 61.9037 117.25 61.5431 118.803 61.3157C123.448 60.6364 129.208 59.6487 130.016 59.3935C131.258 59.0013 140.389 58.1742 145.595 57.9822C148.977 57.8577 150.599 57.625 150.94 57.2151C151.467 56.5833 155.292 57.526 155.292 58.287ZM105.336 61.7783C104.5 61.9855 102.741 62.3509 101.427 62.5909C100.113 62.8304 97.6694 63.4258 95.9969 63.9132C89.7178 65.744 88.5171 66.0709 84.7705 66.9699C81.9643 67.6427 80.7988 67.7625 80.4482 67.4135C80.1837 67.1502 79.6946 66.9353 79.3601 66.9353C79.0261 66.9353 78.1364 66.6534 77.3836 66.3092C76.6308 65.965 75.3306 65.5105 74.4944 65.2999C72.8098 64.8753 76.7728 63.9063 80.1772 63.9101C80.9938 63.911 83.9099 63.6195 86.6574 63.2619C89.405 62.9043 93.7055 62.3487 96.2141 62.027C101.601 61.336 107.809 61.1669 105.336 61.7783ZM62.4317 66.0113C64.9247 67.2765 70.9893 71.8471 71.0049 72.4732C71.0167 72.9273 70.7852 72.9191 69.8247 72.4305C68.6827 71.8502 67.0385 71.1094 63.9604 69.7893C60.311 68.2239 59.4179 67.8485 58.206 67.3703L56.9045 66.8566L57.9284 66.0312C59.2168 64.9929 60.4144 64.9873 62.4317 66.0113ZM69.9924 67.1489C70.6766 67.5039 71.6274 67.8023 72.1052 67.8114C72.5831 67.8205 73.3537 68.1132 73.8172 68.4626C74.2812 68.8116 74.8923 69.0974 75.176 69.0974C75.4596 69.0974 76.4418 69.4096 77.3592 69.791L79.0274 70.4846L77.3315 71.0653C75.5843 71.6629 74.1365 71.2435 72.408 69.6379C72.0879 69.3409 71.6913 69.0974 71.5266 69.0974C71.3624 69.0974 70.7326 68.6407 70.1279 68.0825C69.5232 67.5242 68.7435 66.9557 68.3947 66.8194C68.0463 66.6828 67.9833 66.5556 68.2548 66.537C68.5258 66.5184 69.3078 66.7935 69.9924 67.1489ZM91.9788 67.654C91.6804 67.7742 91.1917 67.7742 90.8928 67.654C90.5944 67.5342 90.8385 67.436 91.4358 67.436C92.0331 67.436 92.2776 67.5342 91.9788 67.654ZM84.8022 69.3586C84.6579 69.5021 84.2831 69.5177 83.9699 69.3927C83.6232 69.2548 83.7262 69.1523 84.2322 69.1316C84.6901 69.113 84.9464 69.215 84.8022 69.3586ZM82.1688 71.9803C82.0094 72.1386 81.7488 72.1386 81.5894 71.9803C81.4304 71.8216 81.5607 71.6919 81.8791 71.6919C82.1975 71.6919 82.3278 71.8216 82.1688 71.9803ZM80.8926 72.8179C80.7484 72.9614 80.3735 72.977 80.0603 72.852C79.7137 72.7141 79.8166 72.6116 80.3227 72.5909C80.7805 72.5723 81.0368 72.6743 80.8926 72.8179ZM90.8928 74.5843C90.4745 74.6933 89.7908 74.6933 89.3724 74.5843C88.9541 74.4757 89.2964 74.3867 90.1326 74.3867C90.9688 74.3867 91.3111 74.4757 90.8928 74.5843Z" fill="#3E5BF1"/>
</svg>
