<svg width="34" height="34" viewBox="0 0 34 34" fill="none" xmlns="http://www.w3.org/2000/svg">
<path fill-rule="evenodd" clip-rule="evenodd" d="M5.66549 8.49741C5.66555 8.4971 5.66545 8.49741 5.6654 8.49853L5.66508 8.4987L5.66549 8.49741ZM5.66536 23.9743V8.49996H5.66812H5.67355H5.67898H5.68443H5.6899H5.69538H5.70087H5.70637H5.71189H5.71743H5.72297H5.72854H5.73411H5.7397H5.7453H5.75092H5.75655H5.7622H5.76786H5.77353H5.77922H5.78492H5.79064H5.79637H5.80211H5.80787H5.81364H5.81943H5.82523H5.83104H5.83687H5.84272H5.84858H5.85445H5.86034H5.86624H5.87215H5.87808H5.88403H5.88999H5.89596H5.90195H5.90795H5.91397H5.92H5.92605H5.93211H5.93818H5.94427H5.95038H5.95649H5.96263H5.96878H5.97494H5.98112H5.98731H5.99352H5.99974H6.00598H6.01223H6.01849H6.02478H6.03107H6.03738H6.04371H6.05005H6.0564H6.06277H6.06916H6.07556H6.08198H6.08841H6.09485H6.10131H6.10779H6.11428H6.12078H6.1273H6.13384H6.14039H6.14696H6.15354H6.16014H6.16675H6.17337H6.18002H6.18667H6.19335H6.20004H6.20674H6.21346H6.22019H6.22694H6.23371H6.24049H6.24728H6.25409H6.26092H6.26776H6.27462H6.28149H6.28838H6.29529H6.30221H6.30914H6.31609H6.32306H6.33004H6.33704H6.34405H6.35108H6.35813H6.36519H6.37226H6.37935H6.38646H6.39359H6.40073H6.40788H6.41505H6.42224H6.42944H6.43666H6.44389H6.45115H6.45841H6.46569H6.47299H6.48031H6.48764H6.49498H6.50235H6.50973H6.51712H6.52453H6.53196H6.5394H6.54686H6.55434H6.56183H6.56934H6.57686H6.5844H6.59196H6.59953H6.60712H6.61472H6.62235H6.62998H6.63764H6.64531H6.653H6.6607H6.66842H6.67616H6.68391H6.69168H6.69947H6.70727H6.71509H6.72292H6.73078H6.73865H6.74653H6.75443H6.76235H6.77029H6.77824H6.78621H6.79419H6.8022H6.81022H6.81825H6.8263H6.83437H6.84246H6.85056H6.85868H6.86682H6.87497H6.88314H6.89133H6.89954H6.90776H6.916H6.92425H6.93252H6.94081H6.94912H6.95744H6.96578H6.97414H6.98252H6.99091H6.99932H7.00774H7.01619H7.02465H7.03313H7.04162H7.05013H7.05866H7.06721H7.07578H7.08436H7.09296H7.10157H7.11021H7.11886H7.12753H7.13621H7.14492H7.15364H7.16238H7.17113H7.17991H7.1887H7.19751H7.20633H7.21518H7.22404H7.23292H7.24181H7.25073H7.25966H7.26861H7.27758H7.28656H7.29557H7.30459H7.31363H7.32268H7.33176H7.34085H7.34996H7.35909H7.36823H7.37739H7.38658H7.39578H7.40499H7.41423H7.42348H7.43275H7.44204H7.45135H7.46068H7.47002H7.47938H7.48876H7.49816H7.50758H7.51701H7.52646H7.53593H7.54542H7.55493H7.56445H7.574H7.58356H7.59314H7.60274H7.61236H7.62199H7.63164H7.64132H7.65101H7.66072H7.67044H7.68019H7.68995H7.69974H7.70954H7.71936H7.7292H7.73905H7.74893H7.75882H7.76874H7.77867H7.78862H7.79859H7.80858H7.81858H7.82861H7.83865H7.84871H7.8588H7.8689H7.87901H7.88915H7.89931H7.90948H7.91968H7.92989H7.94012H7.95038H7.96065H7.97094H7.98124H7.99157H8.00192H8.01228H8.02267H8.03307H8.04349H8.05393H8.0644H8.07488H8.08537H8.09589H8.10643H8.11699H8.12756H8.13816H8.14877H8.15941H8.17006H8.18073H8.19142H8.20214H8.21287H8.22362H8.23439H8.24517H8.25598H8.26681H8.27766H8.28852H8.29941H8.31032H8.32124H8.33219H8.34315H8.35413H8.36514H8.37616H8.3872H8.39827H8.40935H8.42045H8.43157H8.44272H8.45388H8.46506H8.47626H8.48748H8.49872H8.50998H8.52126H8.53256H8.54388H8.55522H8.56658H8.57796H8.58936H8.60078H8.61222H8.62368H8.63516H8.64666H8.65818H8.66972H8.68128H8.69286H8.70446H8.71608H8.72773H8.73939H8.75107H8.76277H8.77449H8.78623H8.798H8.80978H8.82158H8.83341H8.84525H8.85712H8.869H8.8809H8.89283H8.90478H8.91674H8.92873H8.94074H8.95276H8.96481H8.97688H8.98897H9.00108H9.01321H9.02536H9.03754H9.04973H9.06194H9.07418H9.08643H9.09871H9.111H9.12332H9.13566H9.14802H9.1604H9.1728H9.18522H9.19766H9.21012H9.22261H9.23511H9.24764H9.26018H9.27275H9.28534H9.29795H9.31058H9.32323H9.33591H9.3486H9.36131H9.37405H9.38681H9.39959H9.41239H9.42521H9.43805H9.45091H9.4638H9.4767H9.48963H9.50258H9.51555H9.52854H9.54155H9.55458H9.56764H9.58071H9.59381H9.60693H9.62007H9.63323H9.64642H9.65962H9.67285H9.6861H9.69937H9.71266H9.72597H9.7393H9.75266H9.76604H9.77944H9.79286H9.8063H9.81977H9.83325H9.84676H9.86029H9.87384H9.88741H9.90101H9.91463H9.92826H9.94193H9.95561H9.96931H9.98304H9.99679H10.0106H10.0243H10.0382H10.052H10.0659H10.0797H10.0936H10.1076H10.1215H10.1355H10.1495H10.1635H10.1775H10.1916H10.2057H10.2198H10.2339H10.248H10.2622H10.2764H10.2906H10.3048H10.3191H10.3334H10.3477H10.362H10.3763H10.3907H10.4051H10.4195H10.434H10.4484H10.4629H10.4774H10.4919H10.5065H10.5211H10.5357H10.5503H10.5649H10.5796H10.5943H10.609H10.6237H10.6284H10.6331H10.6379H10.6426H10.6473H10.652H10.6567H10.6614H10.6661H10.6708H10.6755H10.6802H10.6849H10.6896H10.6943H10.699H10.7037H10.7084H10.713H10.7177H10.7224H10.7271H10.7317H10.7364H10.7411H10.7457H10.7504H10.7551H10.7597H10.7644H10.769H10.7737H10.7783H10.783H10.7876H10.7923H10.7969H10.8015H10.8062H10.8108H10.8154H10.8201H10.8247H10.8293H10.8339H10.8385H10.8432H10.8478H10.8524H10.857H10.8616H10.8662H10.8708H10.8754H10.88H10.8846H10.8892H10.8938H10.8984H10.903H10.9075H10.9121H10.9167H10.9213H10.9259H10.9304H10.935H10.9396H10.9441H10.9487H10.9533H10.9578H10.9624H10.9669H10.9715H10.976H10.9806H10.9851H10.9897H10.9942H10.9987H11.0033H11.0078H11.0123H11.0169H11.0214H11.0259H11.0304H11.035H11.0395H11.044H11.0485H11.053H11.0575H11.062H11.0665H11.071H11.0755H11.08H11.0845H11.089H11.0935H11.098H11.1025H11.107H11.1115H11.1159H11.1204H11.1249H11.1294H11.1338H11.1383H11.1428H11.1472H11.1517H11.1561H11.1606H11.165H11.1695H11.1739H11.1784H11.1828H11.1873H11.1917H11.1962H11.2006H11.205H11.2095H11.2139H11.2183H11.2227H11.2272H11.2316H11.236H11.2404H11.2448H11.2492H11.2536H11.2581H11.2625H11.2669H11.2713H11.2757H11.2801H11.2844H11.2888H11.2932H11.2976H11.302H11.3064H11.3108H11.3151H11.3195H11.3239H11.3283H11.3326H11.337H11.3413H11.3457H11.3501H11.3544H11.3588H11.3631H11.3675H11.3718H11.3762H11.3805H11.3849H11.3892H11.3935H11.3979H11.4022H11.4065H11.4109H11.4152H11.4195H11.4238H11.4282H11.4325H11.4368H11.4411H11.4454H11.4497H11.454H11.4583H11.4626H11.4669H11.4712H11.4755H11.4798H11.4841H11.4884H11.4927H11.497H11.5012H11.5055H11.5098H11.5141H11.5183H11.5226H11.5269H11.5311H11.5354H11.5397H11.5439H11.5482H11.5524H11.5567H11.5609H11.5652H11.5694H11.5737H11.5779H11.5822H11.5864H11.5906H11.5949H11.5991H11.6033H11.6075H11.6118H11.616H11.6202H11.6244H11.6286H11.6328H11.6371H11.6413H11.6455H11.6497H11.6539H11.6581H11.6623H11.6665H11.6707H11.6748H11.679H11.6832H11.6874H11.6916H11.6958H11.6999H11.7041H11.7083H11.7125H11.7166H11.7208H11.725H11.7291H11.7333H11.7374H11.7416H11.7458H11.7499H11.7541H11.7582H11.7623H11.7665H11.7706H11.7748H11.7789H11.783H11.7872H11.7913H11.7954H11.7995H11.8037H11.8078H11.8119H11.816H11.8201H11.8242H11.8284H11.8325H11.8366H11.8407H11.8448H11.8489H11.853H11.8571H11.8612H11.8652H11.8693H11.8734H11.8775H11.8816H11.8857H11.8897H11.8938H11.8979H11.902H11.906H11.9101H11.9142H11.9182H11.9223H11.9263H11.9304H11.9344H11.9385H11.9425H11.9466H11.9506H11.9547H11.9587H11.9628H11.9668H11.9708H11.9749H11.9789H11.9829H11.9869H11.991H11.995H11.999H12.003H12.007H12.011H12.015H12.0191H12.0231H12.0271H12.0311H12.0351H12.0391H12.0431H12.0471H12.051H12.055H12.059H12.063H12.067H12.071H12.0749H12.0789H12.0829H12.0869H12.0908H12.0948H12.0988H12.1027H12.1067H12.1106H12.1146H12.1186H12.1225H12.1265H12.1304H12.1344H12.1383H12.1422H12.1462H12.1501H12.154H12.158H12.1619H12.1658H12.1698H12.1737H12.1776H12.1815H12.1855H12.1894H12.1933H12.1972H12.2011H12.205H12.2089H12.2128H12.2167H12.2206H12.2245H12.2284H12.2323H12.2362H12.2401H12.244H12.2479H12.2517H12.2556H12.2595H12.2634H12.2672H12.2711H12.275H12.2789H12.2827H12.2866H12.2904H12.2943H12.2982H12.302H12.3059H12.3097H12.3136H12.3174H12.3213H12.3251H12.3289H12.3328H12.3366H12.3404H12.3443H12.3481H12.3519H12.3558H12.3596H12.3634H12.3672H12.371H12.3748H12.3787H12.3825H12.3863H12.3901H12.3939H12.3977H12.4015H12.4053H12.4091H12.4129H12.4167H12.4205H12.4242H12.428H12.4318H12.4356H12.4394H12.4432H12.4469H12.4507H12.4545H12.4582H12.462H12.4658H12.4695H12.4733H12.4771H12.4808H12.4846H12.4883H12.4921H12.4958H12.4996H12.5033H12.507H12.5108H12.5145H12.5183H12.522H12.5257H12.5294H12.5332H12.5369H12.5406H12.5443H12.5481H12.5518H12.5555H12.5592H12.5629H12.5666H12.5703H12.574H12.5777H12.5814H12.5851H12.5888H12.5925H12.5962H12.5999H12.6036H12.6073H12.611H12.6146H12.6183H12.622H12.6257H12.6294H12.633H12.6367H12.6404H12.644H12.6477H12.6513H12.655H12.6587H12.6623H12.666H12.6696H12.6733H12.6769H12.6806H12.6842H12.6878H12.6915H12.6951H12.6988H12.7024H12.706H12.7096H12.7133H12.7169H12.7205H12.7241H12.7278H12.7314H12.735H12.7386H12.7422H12.7458H12.7494C14.3139 8.49996 15.582 9.76817 15.582 11.3333V24.8081C14.3367 24.3957 12.5888 23.9743 10.6237 23.9743H10.603H10.5822H10.5615H10.5408H10.5201H10.4995H10.4788H10.4582H10.4376H10.417H10.3964H10.3759H10.3553H10.3348H10.3143H10.2938H10.2733H10.2529H10.2324H10.212H10.1916H10.1712H10.1509H10.1305H10.1102H10.0899H10.0696H10.0493H10.0291H10.0089H9.98865H9.96846H9.94828H9.92812H9.90799H9.88787H9.86778H9.8477H9.82764H9.8076H9.78759H9.76759H9.74761H9.72765H9.70772H9.6878H9.66791H9.64803H9.62818H9.60835H9.58853H9.56874H9.54897H9.52922H9.5095H9.48979H9.47011H9.45044H9.4308H9.41118H9.39159H9.37201H9.35246H9.33293H9.31342H9.29393H9.27447H9.25503H9.23561H9.21621H9.19684H9.17749H9.15816H9.13886H9.11958H9.10032H9.08109H9.06188H9.04269H9.02353H9.00439H8.98527H8.96618H8.94712H8.92807H8.90905H8.89006H8.87109H8.85214H8.83322H8.81433H8.79546H8.77661H8.75779H8.739H8.72023H8.70148H8.68276H8.66407H8.6454H8.62676H8.60814H8.58955H8.57098H8.55244H8.53393H8.51544H8.49698H8.47855H8.46014H8.44176H8.42341H8.40508H8.38678H8.36851H8.35026H8.33204H8.31385H8.29569H8.27755H8.25944H8.24136H8.22331H8.20528H8.18729H8.16932H8.15138H8.13346H8.11558H8.09772H8.0799H8.0621H8.04433H8.02659H8.00887H7.99119H7.97354H7.95591H7.93832H7.92075H7.90321H7.88571H7.86823H7.85078H7.83337H7.81598H7.79862H7.78129H7.764H7.74673H7.72949H7.71229H7.69511H7.67797H7.66086H7.64377H7.62672H7.6097H7.59271H7.57576H7.55883H7.54193H7.52507H7.50824H7.49144H7.47467H7.45794H7.44123H7.42456H7.40792H7.39131H7.37474H7.3582H7.34169H7.32521H7.30877H7.29236H7.27598H7.25963H7.24332H7.22705H7.2108H7.19459H7.17841H7.16227H7.14616H7.13008H7.11404H7.09803H7.08206H7.06612H7.05021H7.03434H7.0185H7.0027H6.98694H6.9712H6.95551H6.93984H6.92422H6.90862H6.89307H6.87755H6.86206H6.84661H6.8312H6.81582H6.80048H6.78517H6.7699H6.75466H6.73946H6.7243H6.70918H6.69409H6.67904H6.66402H6.64904H6.6341H6.61919H6.60433H6.5895H6.5747H6.55995H6.54523H6.53055H6.5159H6.5013H6.48673H6.4722H6.45771H6.44326H6.42884H6.41447H6.40013H6.38583H6.37157H6.35734H6.34316H6.32902H6.31491H6.30084H6.28682H6.27283H6.25888H6.24497H6.2311H6.21727H6.20348H6.18973H6.17602H6.16235H6.14872H6.13513H6.12158H6.10807H6.0946H6.08118H6.06779H6.05444H6.04114H6.02787H6.01465H6.00147H5.98833H5.97523H5.96217H5.94915H5.93618H5.92325H5.91035H5.89751H5.8847H5.87193H5.85921H5.84653H5.83389H5.8213H5.80874H5.79623H5.78377H5.77134H5.75896H5.74662H5.73433H5.72208H5.70987H5.6977H5.68558H5.6735H5.66536ZM16.3279 28.1644L16.3277 28.1643C16.3274 28.1641 16.3271 28.164 16.9987 26.9166L16.3271 28.164L16.3155 28.158C16.3012 28.1506 16.2766 28.138 16.2423 28.121C16.1736 28.0871 16.0661 28.0356 15.924 27.9722C15.6393 27.8454 15.2184 27.6724 14.6937 27.4986C13.6372 27.1485 12.1987 26.8077 10.6237 26.8077H10.603H10.5822H10.5615H10.5408H10.5201H10.4995H10.4788H10.4582H10.4376H10.417H10.3964H10.3759H10.3553H10.3348H10.3143H10.2938H10.2733H10.2529H10.2324H10.212H10.1916H10.1712H10.1509H10.1305H10.1102H10.0899H10.0696H10.0493H10.0291H10.0089H9.98865H9.96846H9.94828H9.92812H9.90799H9.88787H9.86778H9.8477H9.82764H9.8076H9.78759H9.76759H9.74761H9.72765H9.70772H9.6878H9.66791H9.64803H9.62818H9.60835H9.58853H9.56874H9.54897H9.52922H9.5095H9.48979H9.47011H9.45044H9.4308H9.41118H9.39159H9.37201H9.35246H9.33293H9.31342H9.29393H9.27447H9.25503H9.23561H9.21621H9.19684H9.17749H9.15816H9.13886H9.11958H9.10032H9.08109H9.06188H9.04269H9.02353H9.00439H8.98527H8.96618H8.94712H8.92807H8.90905H8.89006H8.87109H8.85214H8.83322H8.81433H8.79546H8.77661H8.75779H8.739H8.72023H8.70148H8.68276H8.66407H8.6454H8.62676H8.60814H8.58955H8.57098H8.55244H8.53393H8.51544H8.49698H8.47855H8.46014H8.44176H8.42341H8.40508H8.38678H8.36851H8.35026H8.33204H8.31385H8.29569H8.27755H8.25944H8.24136H8.22331H8.20528H8.18729H8.16932H8.15138H8.13346H8.11558H8.09772H8.0799H8.0621H8.04433H8.02659H8.00887H7.99119H7.97354H7.95591H7.93832H7.92075H7.90321H7.88571H7.86823H7.85078H7.83337H7.81598H7.79862H7.78129H7.764H7.74673H7.72949H7.71229H7.69511H7.67797H7.66086H7.64377H7.62672H7.6097H7.59271H7.57576H7.55883H7.54193H7.52507H7.50824H7.49144H7.47467H7.45794H7.44123H7.42456H7.40792H7.39131H7.37474H7.3582H7.34169H7.32521H7.30877H7.29236H7.27598H7.25963H7.24332H7.22705H7.2108H7.19459H7.17841H7.16227H7.14616H7.13008H7.11404H7.09803H7.08206H7.06612H7.05021H7.03434H7.0185H7.0027H6.98694H6.9712H6.95551H6.93984H6.92422H6.90862H6.89307H6.87755H6.86206H6.84661H6.8312H6.81582H6.80048H6.78517H6.7699H6.75466H6.73946H6.7243H6.70918H6.69409H6.67904H6.66402H6.64904H6.6341H6.61919H6.60433H6.5895H6.5747H6.55995H6.54523H6.53055H6.5159H6.5013H6.48673H6.4722H6.45771H6.44326H6.42884H6.41447H6.40013H6.38583H6.37157H6.35734H6.34316H6.32902H6.31491H6.30084H6.28682H6.27283H6.25888H6.24497H6.2311H6.21727H6.20348H6.18973H6.17602H6.16235H6.14872H6.13513H6.12158H6.10807H6.0946H6.08118H6.06779H6.05444H6.04114H6.02787H6.01465H6.00147H5.98833H5.97523H5.96217H5.94915H5.93618H5.92325H5.91035H5.89751H5.8847H5.87193H5.85921H5.84653H5.83389H5.8213H5.80874H5.79623H5.78377H5.77134H5.75896H5.74662H5.73433H5.72208H5.70987H5.6977H5.68558H5.6735H5.66147H5.64948H5.63753H5.62563H5.61377H5.60196H5.59019H5.57847H5.56679H5.55515H5.54356H5.53201H5.52051H5.50905H5.49764H5.48628H5.47496H5.46368H5.45245H5.44127H5.43013H5.41904H5.40799H5.39699H5.38603H5.37512H5.36426H5.35344H5.34267H5.33195H5.32127H5.31064H5.30006H5.28952H5.27903H5.26859H5.2582H5.24785H5.23755H5.22729H5.21709H5.20693H5.19682H5.18676H5.17674H5.16678H5.15686H5.14699H5.13717H5.12739H5.11767H5.10799H5.09837H5.08879H5.07926H5.06978H5.06035H5.05096H5.04163H5.03235H5.02311H5.01393H5.00479H4.99571H4.98667H4.97768H4.96875H4.95986H4.95103H4.94224H4.93351H4.92482H4.91619H4.90761H4.89908H4.89059H4.88216H4.87379H4.86546H4.85718H4.84896H4.84078H4.83266H4.82459H4.81657H4.8086H4.80069H4.79283H4.78501H4.77726H4.76955H4.7619H4.75429H4.74674H4.73925H4.73181H4.72441H4.71708H4.70979H4.70256H4.69538H4.68826H4.68119H4.67417H4.66721H4.6603H4.65344H4.64664H4.63989H4.63319H4.62655H4.61997H4.61344H4.60696H4.60054H4.59417H4.58785H4.5816H4.57539H4.56925H4.56315H4.55711H4.55113H4.54521H4.53933H4.53352H4.52776H4.52205H4.51641H4.51081H4.50528H4.4998H4.49437H4.48901H4.4837H4.47844H4.47325H4.4681H4.46302H4.45799H4.45302H4.44811H4.44326H4.43846H4.43372H4.42903H4.42441H4.41984H4.41533H4.41088H4.40649H4.40215H4.39787H4.39365H4.38949H4.38539H4.38135H4.37736H4.37343H4.36957H4.36576H4.36201H4.35832H4.35469H4.35111H4.3476H4.34415H4.34076H4.33742H4.33415H4.33094H4.32778H4.32469H4.32165H4.31868H4.31577H4.31292H4.31012H4.30739H4.30472H4.30211H4.29956H4.29708H4.29465H4.29229H4.28998H4.28774H4.28556H4.28344H4.28138H4.27939H4.27745H4.27558H4.27377H4.27202H4.27034H4.26872H4.26716H4.26566H4.26422H4.26285H4.26154H4.26029H4.25911H4.25799H4.25693H4.25594H4.25501H4.25414H4.25334H4.2526H4.25192H4.25131H4.25077H4.25028H4.24986H4.24951H4.24922H4.24899H4.24883H4.24873L4.2487 25.391V26.8077C3.46629 26.8077 2.83203 26.1734 2.83203 25.391V8.49996C2.83203 6.93861 4.09446 5.66663 5.66272 5.66663H5.66812H5.67355H5.67898H5.68443H5.6899H5.69538H5.70087H5.70637H5.71189H5.71743H5.72297H5.72854H5.73411H5.7397H5.7453H5.75092H5.75655H5.7622H5.76786H5.77353H5.77922H5.78492H5.79064H5.79637H5.80211H5.80787H5.81364H5.81943H5.82523H5.83104H5.83687H5.84272H5.84858H5.85445H5.86034H5.86624H5.87215H5.87808H5.88403H5.88999H5.89596H5.90195H5.90795H5.91397H5.92H5.92605H5.93211H5.93818H5.94427H5.95038H5.95649H5.96263H5.96878H5.97494H5.98112H5.98731H5.99352H5.99974H6.00598H6.01223H6.01849H6.02478H6.03107H6.03738H6.04371H6.05005H6.0564H6.06277H6.06916H6.07556H6.08198H6.08841H6.09485H6.10131H6.10779H6.11428H6.12078H6.1273H6.13384H6.14039H6.14696H6.15354H6.16014H6.16675H6.17337H6.18002H6.18667H6.19335H6.20004H6.20674H6.21346H6.22019H6.22694H6.23371H6.24049H6.24728H6.25409H6.26092H6.26776H6.27462H6.28149H6.28838H6.29529H6.30221H6.30914H6.31609H6.32306H6.33004H6.33704H6.34405H6.35108H6.35813H6.36519H6.37226H6.37935H6.38646H6.39359H6.40073H6.40788H6.41505H6.42224H6.42944H6.43666H6.44389H6.45115H6.45841H6.46569H6.47299H6.48031H6.48764H6.49498H6.50235H6.50973H6.51712H6.52453H6.53196H6.5394H6.54686H6.55434H6.56183H6.56934H6.57686H6.5844H6.59196H6.59953H6.60712H6.61472H6.62235H6.62998H6.63764H6.64531H6.653H6.6607H6.66842H6.67616H6.68391H6.69168H6.69947H6.70727H6.71509H6.72292H6.73078H6.73865H6.74653H6.75443H6.76235H6.77029H6.77824H6.78621H6.79419H6.8022H6.81022H6.81825H6.8263H6.83437H6.84246H6.85056H6.85868H6.86682H6.87497H6.88314H6.89133H6.89954H6.90776H6.916H6.92425H6.93252H6.94081H6.94912H6.95744H6.96578H6.97414H6.98252H6.99091H6.99932H7.00774H7.01619H7.02465H7.03313H7.04162H7.05013H7.05866H7.06721H7.07578H7.08436H7.09296H7.10157H7.11021H7.11886H7.12753H7.13621H7.14492H7.15364H7.16238H7.17113H7.17991H7.1887H7.19751H7.20633H7.21518H7.22404H7.23292H7.24181H7.25073H7.25966H7.26861H7.27758H7.28656H7.29557H7.30459H7.31363H7.32268H7.33176H7.34085H7.34996H7.35909H7.36823H7.37739H7.38658H7.39578H7.40499H7.41423H7.42348H7.43275H7.44204H7.45135H7.46068H7.47002H7.47938H7.48876H7.49816H7.50758H7.51701H7.52646H7.53593H7.54542H7.55493H7.56445H7.574H7.58356H7.59314H7.60274H7.61236H7.62199H7.63164H7.64132H7.65101H7.66072H7.67044H7.68019H7.68995H7.69974H7.70954H7.71936H7.7292H7.73905H7.74893H7.75882H7.76874H7.77867H7.78862H7.79859H7.80858H7.81858H7.82861H7.83865H7.84871H7.8588H7.8689H7.87901H7.88915H7.89931H7.90948H7.91968H7.92989H7.94012H7.95038H7.96065H7.97094H7.98124H7.99157H8.00192H8.01228H8.02267H8.03307H8.04349H8.05393H8.0644H8.07488H8.08537H8.09589H8.10643H8.11699H8.12756H8.13816H8.14877H8.15941H8.17006H8.18073H8.19142H8.20214H8.21287H8.22362H8.23439H8.24517H8.25598H8.26681H8.27766H8.28852H8.29941H8.31032H8.32124H8.33219H8.34315H8.35413H8.36514H8.37616H8.3872H8.39827H8.40935H8.42045H8.43157H8.44272H8.45388H8.46506H8.47626H8.48748H8.49872H8.50998H8.52126H8.53256H8.54388H8.55522H8.56658H8.57796H8.58936H8.60078H8.61222H8.62368H8.63516H8.64666H8.65818H8.66972H8.68128H8.69286H8.70446H8.71608H8.72773H8.73939H8.75107H8.76277H8.77449H8.78623H8.798H8.80978H8.82158H8.83341H8.84525H8.85712H8.869H8.8809H8.89283H8.90478H8.91674H8.92873H8.94074H8.95276H8.96481H8.97688H8.98897H9.00108H9.01321H9.02536H9.03754H9.04973H9.06194H9.07418H9.08643H9.09871H9.111H9.12332H9.13566H9.14802H9.1604H9.1728H9.18522H9.19766H9.21012H9.22261H9.23511H9.24764H9.26018H9.27275H9.28534H9.29795H9.31058H9.32323H9.33591H9.3486H9.36131H9.37405H9.38681H9.39959H9.41239H9.42521H9.43805H9.45091H9.4638H9.4767H9.48963H9.50258H9.51555H9.52854H9.54155H9.55458H9.56764H9.58071H9.59381H9.60693H9.62007H9.63323H9.64642H9.65962H9.67285H9.6861H9.69937H9.71266H9.72597H9.7393H9.75266H9.76604H9.77944H9.79286H9.8063H9.81977H9.83325H9.84676H9.86029H9.87384H9.88741H9.90101H9.91463H9.92826H9.94193H9.95561H9.96931H9.98304H9.99679H10.0106H10.0243H10.0382H10.052H10.0659H10.0797H10.0936H10.1076H10.1215H10.1355H10.1495H10.1635H10.1775H10.1916H10.2057H10.2198H10.2339H10.248H10.2622H10.2764H10.2906H10.3048H10.3191H10.3334H10.3477H10.362H10.3763H10.3907H10.4051H10.4195H10.434H10.4484H10.4629H10.4774H10.4919H10.5065H10.5211H10.5357H10.5503H10.5649H10.5796H10.5943H10.609H10.6237H10.6284H10.6331H10.6379H10.6426H10.6473H10.652H10.6567H10.6614H10.6661H10.6708H10.6755H10.6802H10.6849H10.6896H10.6943H10.699H10.7037H10.7084H10.713H10.7177H10.7224H10.7271H10.7317H10.7364H10.7411H10.7457H10.7504H10.7551H10.7597H10.7644H10.769H10.7737H10.7783H10.783H10.7876H10.7923H10.7969H10.8015H10.8062H10.8108H10.8154H10.8201H10.8247H10.8293H10.8339H10.8385H10.8432H10.8478H10.8524H10.857H10.8616H10.8662H10.8708H10.8754H10.88H10.8846H10.8892H10.8938H10.8984H10.903H10.9075H10.9121H10.9167H10.9213H10.9259H10.9304H10.935H10.9396H10.9441H10.9487H10.9533H10.9578H10.9624H10.9669H10.9715H10.976H10.9806H10.9851H10.9897H10.9942H10.9987H11.0033H11.0078H11.0123H11.0169H11.0214H11.0259H11.0304H11.035H11.0395H11.044H11.0485H11.053H11.0575H11.062H11.0665H11.071H11.0755H11.08H11.0845H11.089H11.0935H11.098H11.1025H11.107H11.1115H11.1159H11.1204H11.1249H11.1294H11.1338H11.1383H11.1428H11.1472H11.1517H11.1561H11.1606H11.165H11.1695H11.1739H11.1784H11.1828H11.1873H11.1917H11.1962H11.2006H11.205H11.2095H11.2139H11.2183H11.2227H11.2272H11.2316H11.236H11.2404H11.2448H11.2492H11.2536H11.2581H11.2625H11.2669H11.2713H11.2757H11.2801H11.2844H11.2888H11.2932H11.2976H11.302H11.3064H11.3108H11.3151H11.3195H11.3239H11.3283H11.3326H11.337H11.3413H11.3457H11.3501H11.3544H11.3588H11.3631H11.3675H11.3718H11.3762H11.3805H11.3849H11.3892H11.3935H11.3979H11.4022H11.4065H11.4109H11.4152H11.4195H11.4238H11.4282H11.4325H11.4368H11.4411H11.4454H11.4497H11.454H11.4583H11.4626H11.4669H11.4712H11.4755H11.4798H11.4841H11.4884H11.4927H11.497H11.5012H11.5055H11.5098H11.5141H11.5183H11.5226H11.5269H11.5311H11.5354H11.5397H11.5439H11.5482H11.5524H11.5567H11.5609H11.5652H11.5694H11.5737H11.5779H11.5822H11.5864H11.5906H11.5949H11.5991H11.6033H11.6075H11.6118H11.616H11.6202H11.6244H11.6286H11.6328H11.6371H11.6413H11.6455H11.6497H11.6539H11.6581H11.6623H11.6665H11.6707H11.6748H11.679H11.6832H11.6874H11.6916H11.6958H11.6999H11.7041H11.7083H11.7125H11.7166H11.7208H11.725H11.7291H11.7333H11.7374H11.7416H11.7458H11.7499H11.7541H11.7582H11.7623H11.7665H11.7706H11.7748H11.7789H11.783H11.7872H11.7913H11.7954H11.7995H11.8037H11.8078H11.8119H11.816H11.8201H11.8242H11.8284H11.8325H11.8366H11.8407H11.8448H11.8489H11.853H11.8571H11.8612H11.8652H11.8693H11.8734H11.8775H11.8816H11.8857H11.8897H11.8938H11.8979H11.902H11.906H11.9101H11.9142H11.9182H11.9223H11.9263H11.9304H11.9344H11.9385H11.9425H11.9466H11.9506H11.9547H11.9587H11.9628H11.9668H11.9708H11.9749H11.9789H11.9829H11.9869H11.991H11.995H11.999H12.003H12.007H12.011H12.015H12.0191H12.0231H12.0271H12.0311H12.0351H12.0391H12.0431H12.0471H12.051H12.055H12.059H12.063H12.067H12.071H12.0749H12.0789H12.0829H12.0869H12.0908H12.0948H12.0988H12.1027H12.1067H12.1106H12.1146H12.1186H12.1225H12.1265H12.1304H12.1344H12.1383H12.1422H12.1462H12.1501H12.154H12.158H12.1619H12.1658H12.1698H12.1737H12.1776H12.1815H12.1855H12.1894H12.1933H12.1972H12.2011H12.205H12.2089H12.2128H12.2167H12.2206H12.2245H12.2284H12.2323H12.2362H12.2401H12.244H12.2479H12.2517H12.2556H12.2595H12.2634H12.2672H12.2711H12.275H12.2789H12.2827H12.2866H12.2904H12.2943H12.2982H12.302H12.3059H12.3097H12.3136H12.3174H12.3213H12.3251H12.3289H12.3328H12.3366H12.3404H12.3443H12.3481H12.3519H12.3558H12.3596H12.3634H12.3672H12.371H12.3748H12.3787H12.3825H12.3863H12.3901H12.3939H12.3977H12.4015H12.4053H12.4091H12.4129H12.4167H12.4205H12.4242H12.428H12.4318H12.4356H12.4394H12.4432H12.4469H12.4507H12.4545H12.4582H12.462H12.4658H12.4695H12.4733H12.4771H12.4808H12.4846H12.4883H12.4921H12.4958H12.4996H12.5033H12.507H12.5108H12.5145H12.5183H12.522H12.5257H12.5294H12.5332H12.5369H12.5406H12.5443H12.5481H12.5518H12.5555H12.5592H12.5629H12.5666H12.5703H12.574H12.5777H12.5814H12.5851H12.5888H12.5925H12.5962H12.5999H12.6036H12.6073H12.611H12.6146H12.6183H12.622H12.6257H12.6294H12.633H12.6367H12.6404H12.644H12.6477H12.6513H12.655H12.6587H12.6623H12.666H12.6696H12.6733H12.6769H12.6806H12.6842H12.6878H12.6915H12.6951H12.6988H12.7024H12.706H12.7096H12.7133H12.7169H12.7205H12.7241H12.7278H12.7314H12.735H12.7386H12.7422H12.7458H12.7494C14.4418 5.66663 15.9606 6.4085 16.9987 7.58469C18.0368 6.4085 19.5556 5.66663 21.248 5.66663H21.2516H21.2552H21.2588H21.2624H21.266H21.2696H21.2733H21.2769H21.2805H21.2841H21.2878H21.2914H21.295H21.2986H21.3023H21.3059H21.3096H21.3132H21.3168H21.3205H21.3241H21.3278H21.3314H21.3351H21.3387H21.3424H21.3461H21.3497H21.3534H21.357H21.3607H21.3644H21.368H21.3717H21.3754H21.3791H21.3828H21.3864H21.3901H21.3938H21.3975H21.4012H21.4049H21.4086H21.4123H21.416H21.4197H21.4234H21.4271H21.4308H21.4345H21.4382H21.4419H21.4456H21.4493H21.4531H21.4568H21.4605H21.4642H21.4679H21.4717H21.4754H21.4791H21.4829H21.4866H21.4904H21.4941H21.4978H21.5016H21.5053H21.5091H21.5128H21.5166H21.5203H21.5241H21.5279H21.5316H21.5354H21.5392H21.5429H21.5467H21.5505H21.5542H21.558H21.5618H21.5656H21.5694H21.5732H21.5769H21.5807H21.5845H21.5883H21.5921H21.5959H21.5997H21.6035H21.6073H21.6111H21.6149H21.6187H21.6226H21.6264H21.6302H21.634H21.6378H21.6416H21.6455H21.6493H21.6531H21.657H21.6608H21.6646H21.6685H21.6723H21.6761H21.68H21.6838H21.6877H21.6915H21.6954H21.6992H21.7031H21.707H21.7108H21.7147H21.7185H21.7224H21.7263H21.7302H21.734H21.7379H21.7418H21.7457H21.7495H21.7534H21.7573H21.7612H21.7651H21.769H21.7729H21.7768H21.7807H21.7846H21.7885H21.7924H21.7963H21.8002H21.8041H21.808H21.8119H21.8159H21.8198H21.8237H21.8276H21.8316H21.8355H21.8394H21.8433H21.8473H21.8512H21.8552H21.8591H21.863H21.867H21.8709H21.8749H21.8788H21.8828H21.8868H21.8907H21.8947H21.8986H21.9026H21.9066H21.9105H21.9145H21.9185H21.9225H21.9264H21.9304H21.9344H21.9384H21.9424H21.9464H21.9503H21.9543H21.9583H21.9623H21.9663H21.9703H21.9743H21.9783H21.9823H21.9864H21.9904H21.9944H21.9984H22.0024H22.0064H22.0105H22.0145H22.0185H22.0225H22.0266H22.0306H22.0346H22.0387H22.0427H22.0468H22.0508H22.0549H22.0589H22.063H22.067H22.0711H22.0751H22.0792H22.0832H22.0873H22.0914H22.0954H22.0995H22.1036H22.1077H22.1117H22.1158H22.1199H22.124H22.1281H22.1322H22.1362H22.1403H22.1444H22.1485H22.1526H22.1567H22.1608H22.1649H22.169H22.1732H22.1773H22.1814H22.1855H22.1896H22.1937H22.1979H22.202H22.2061H22.2102H22.2144H22.2185H22.2226H22.2268H22.2309H22.2351H22.2392H22.2433H22.2475H22.2516H22.2558H22.26H22.2641H22.2683H22.2724H22.2766H22.2808H22.2849H22.2891H22.2933H22.2975H22.3016H22.3058H22.31H22.3142H22.3184H22.3225H22.3267H22.3309H22.3351H22.3393H22.3435H22.3477H22.3519H22.3561H22.3603H22.3646H22.3688H22.373H22.3772H22.3814H22.3856H22.3899H22.3941H22.3983H22.4025H22.4068H22.411H22.4152H22.4195H22.4237H22.428H22.4322H22.4365H22.4407H22.445H22.4492H22.4535H22.4577H22.462H22.4663H22.4705H22.4748H22.4791H22.4833H22.4876H22.4919H22.4962H22.5004H22.5047H22.509H22.5133H22.5176H22.5219H22.5262H22.5305H22.5348H22.5391H22.5434H22.5477H22.552H22.5563H22.5606H22.5649H22.5692H22.5736H22.5779H22.5822H22.5865H22.5909H22.5952H22.5995H22.6039H22.6082H22.6125H22.6169H22.6212H22.6256H22.6299H22.6343H22.6386H22.643H22.6473H22.6517H22.656H22.6604H22.6648H22.6691H22.6735H22.6779H22.6823H22.6866H22.691H22.6954H22.6998H22.7042H22.7086H22.7129H22.7173H22.7217H22.7261H22.7305H22.7349H22.7393H22.7437H22.7482H22.7526H22.757H22.7614H22.7658H22.7702H22.7747H22.7791H22.7835H22.7879H22.7924H22.7968H22.8012H22.8057H22.8101H22.8146H22.819H22.8234H22.8279H22.8323H22.8368H22.8413H22.8457H22.8502H22.8546H22.8591H22.8636H22.868H22.8725H22.877H22.8815H22.8859H22.8904H22.8949H22.8994H22.9039H22.9084H22.9129H22.9174H22.9219H22.9264H22.9309H22.9354H22.9399H22.9444H22.9489H22.9534H22.9579H22.9624H22.967H22.9715H22.976H22.9805H22.9851H22.9896H22.9941H22.9987H23.0032H23.0077H23.0123H23.0168H23.0214H23.0259H23.0305H23.035H23.0396H23.0441H23.0487H23.0533H23.0578H23.0624H23.067H23.0715H23.0761H23.0807H23.0853H23.0899H23.0944H23.099H23.1036H23.1082H23.1128H23.1174H23.122H23.1266H23.1312H23.1358H23.1404H23.145H23.1496H23.1542H23.1589H23.1635H23.1681H23.1727H23.1773H23.182H23.1866H23.1912H23.1959H23.2005H23.2051H23.2098H23.2144H23.2191H23.2237H23.2284H23.233H23.2377H23.2423H23.247H23.2517H23.2563H23.261H23.2657H23.2703H23.275H23.2797H23.2844H23.289H23.2937H23.2984H23.3031H23.3078H23.3125H23.3172H23.3219H23.3266H23.3313H23.336H23.3407H23.3454H23.3501H23.3548H23.3595H23.3643H23.369H23.3737H23.3884H23.4031H23.4178H23.4325H23.4471H23.4617H23.4763H23.4909H23.5055H23.52H23.5345H23.549H23.5634H23.5779H23.5923H23.6067H23.621H23.6354H23.6497H23.664H23.6783H23.6926H23.7068H23.721H23.7352H23.7494H23.7635H23.7776H23.7917H23.8058H23.8199H23.8339H23.8479H23.8619H23.8759H23.8898H23.9038H23.9177H23.9315H23.9454H23.9592H23.973H23.9868H24.0006H24.0144H24.0281H24.0418H24.0555H24.0691H24.0828H24.0964H24.11H24.1236H24.1371H24.1506H24.1641H24.1776H24.1911H24.2045H24.218H24.2314H24.2447H24.2581H24.2714H24.2847H24.298H24.3113H24.3245H24.3378H24.351H24.3642H24.3773H24.3905H24.4036H24.4167H24.4298H24.4428H24.4558H24.4689H24.4819H24.4948H24.5078H24.5207H24.5336H24.5465H24.5593H24.5722H24.585H24.5978H24.6106H24.6233H24.6361H24.6488H24.6615H24.6742H24.6868H24.6994H24.7121H24.7246H24.7372H24.7498H24.7623H24.7748H24.7873H24.7997H24.8122H24.8246H24.837H24.8494H24.8617H24.8741H24.8864H24.8987H24.911H24.9232H24.9355H24.9477H24.9599H24.972H24.9842H24.9963H25.0084H25.0205H25.0326H25.0446H25.0567H25.0687H25.0807H25.0926H25.1046H25.1165H25.1284H25.1403H25.1521H25.164H25.1758H25.1876H25.1994H25.2112H25.2229H25.2346H25.2463H25.258H25.2697H25.2813H25.2929H25.3045H25.3161H25.3277H25.3392H25.3507H25.3622H25.3737H25.3852H25.3966H25.408H25.4194H25.4308H25.4422H25.4535H25.4648H25.4761H25.4874H25.4987H25.5099H25.5211H25.5323H25.5435H25.5547H25.5658H25.5769H25.588H25.5991H25.6102H25.6212H25.6323H25.6433H25.6542H25.6652H25.6762H25.6871H25.698H25.7089H25.7197H25.7306H25.7414H25.7522H25.763H25.7738H25.7845H25.7953H25.806H25.8167H25.8273H25.838H25.8486H25.8592H25.8698H25.8804H25.891H25.9015H25.912H25.9225H25.933H25.9435H25.9539H25.9643H25.9747H25.9851H25.9955H26.0058H26.0162H26.0265H26.0368H26.047H26.0573H26.0675H26.0777H26.0879H26.0981H26.1082H26.1184H26.1285H26.1386H26.1487H26.1587H26.1688H26.1788H26.1888H26.1988H26.2088H26.2187H26.2287H26.2386H26.2485H26.2583H26.2682H26.278H26.2879H26.2977H26.3074H26.3172H26.327H26.3367H26.3464H26.3561H26.3658H26.3754H26.385H26.3947H26.4043H26.4138H26.4234H26.4329H26.4425H26.452H26.4615H26.4709H26.4804H26.4898H26.4992H26.5086H26.518H26.5274H26.5367H26.546H26.5554H26.5646H26.5739H26.5832H26.5924H26.6016H26.6108H26.62H26.6292H26.6383H26.6474H26.6565H26.6656H26.6747H26.6838H26.6928H26.7018H26.7108H26.7198H26.7288H26.7377H26.7467H26.7556H26.7645H26.7734H26.7822H26.7911H26.7999H26.8087H26.8175H26.8263H26.835H26.8438H26.8525H26.8612H26.8699H26.8785H26.8872H26.8958H26.9044H26.913H26.9216H26.9302H26.9387H26.9473H26.9558H26.9643H26.9727H26.9812H26.9897H26.9981H27.0065H27.0149H27.0233H27.0316H27.04H27.0483H27.0566H27.0649H27.0731H27.0814H27.0896H27.0979H27.1061H27.1143H27.1224H27.1306H27.1387H27.1468H27.1549H27.163H27.1711H27.1791H27.1872H27.1952H27.2032H27.2112H27.2192H27.2271H27.235H27.243H27.2509H27.2588H27.2666H27.2745H27.2823H27.2901H27.2979H27.3057H27.3135H27.3212H27.329H27.3367H27.3444H27.3521H27.3598H27.3674H27.3751H27.3827H27.3903H27.3979H27.4054H27.413H27.4205H27.4281H27.4356H27.4431H27.4505H27.458H27.4654H27.4729H27.4803H27.4877H27.4951H27.5024H27.5098H27.5171H27.5244H27.5317H27.539H27.5463H27.5535H27.5607H27.568H27.5752H27.5823H27.5895H27.5967H27.6038H27.6109H27.618H27.6251H27.6322H27.6393H27.6463H27.6533H27.6604H27.6674H27.6743H27.6813H27.6883H27.6952H27.7021H27.709H27.7159H27.7228H27.7296H27.7365H27.7433H27.7501H27.7569H27.7637H27.7705H27.7772H27.7839H27.7907H27.7974H27.804H27.8107H27.8174H27.824H27.8306H27.8373H27.8439H27.8504H27.857H27.8636H27.8701H27.8766H27.8831H27.8896H27.8961H27.9025H27.909H27.9154H27.9218H27.9282H27.9346H27.941H27.9473H27.9537H27.96H27.9663H27.9726H27.9789H27.9852H27.9914H27.9977H28.0039H28.0101H28.0163H28.0225H28.0286H28.0348H28.0409H28.047H28.0531H28.0592H28.0653H28.0714H28.0774H28.0834H28.0894H28.0954H28.1014H28.1074H28.1134H28.1193H28.1252H28.1312H28.1371H28.143H28.1488H28.1547H28.1605H28.1664H28.1722H28.178H28.1838H28.1895H28.1953H28.201H28.2068H28.2125H28.2182H28.2239H28.2295H28.2352H28.2408H28.2465H28.2521H28.2577H28.2633H28.2689H28.2744H28.28H28.2855H28.291H28.2965H28.302H28.3075H28.313H28.3184H28.3239H28.3293H28.3347C29.9029 5.66663 31.1654 6.93861 31.1654 8.49996V25.391C31.1654 26.1734 30.5311 26.8077 29.7487 26.8077H29.7486H29.7484H29.7482H29.7479H29.7475H29.7471H29.7466H29.7461H29.7455H29.7448H29.7441H29.7433H29.7424H29.7415H29.7405H29.7394H29.7383H29.7371H29.7359H29.7345H29.7332H29.7317H29.7302H29.7287H29.7271H29.7254H29.7236H29.7218H29.7199H29.718H29.716H29.714H29.7118H29.7097H29.7074H29.7051H29.7027H29.7003H29.6978H29.6953H29.6927H29.69H29.6873H29.6845H29.6816H29.6787H29.6757H29.6727H29.6696H29.6665H29.6632H29.66H29.6566H29.6532H29.6498H29.6463H29.6427H29.6391H29.6354H29.6316H29.6278H29.624H29.62H29.6161H29.612H29.6079H29.6037H29.5995H29.5952H29.5909H29.5865H29.5821H29.5776H29.573H29.5684H29.5637H29.5589H29.5541H29.5493H29.5444H29.5394H29.5344H29.5293H29.5242H29.519H29.5137H29.5084H29.503H29.4976H29.4921H29.4866H29.481H29.4753H29.4696H29.4639H29.4581H29.4522H29.4463H29.4403H29.4342H29.4282H29.422H29.4158H29.4095H29.4032H29.3969H29.3904H29.384H29.3774H29.3708H29.3642H29.3575H29.3508H29.344H29.3371H29.3302H29.3232H29.3162H29.3091H29.302H29.2948H29.2876H29.2803H29.273H29.2656H29.2581H29.2507H29.2431H29.2355H29.2278H29.2201H29.2124H29.2046H29.1967H29.1888H29.1808H29.1728H29.1647H29.1566H29.1484H29.1402H29.1319H29.1236H29.1152H29.1068H29.0983H29.0898H29.0812H29.0726H29.0639H29.0552H29.0464H29.0375H29.0287H29.0197H29.0107H29.0017H28.9926H28.9835H28.9743H28.9651H28.9558H28.9464H28.9371H28.9276H28.9181H28.9086H28.899H28.8894H28.8797H28.87H28.8602H28.8504H28.8405H28.8306H28.8207H28.8106H28.8006H28.7905H28.7803H28.7701H28.7598H28.7495H28.7392H28.7288H28.7184H28.7079H28.6973H28.6868H28.6761H28.6654H28.6547H28.644H28.6331H28.6223H28.6114H28.6004H28.5894H28.5784H28.5673H28.5561H28.5449H28.5337H28.5224H28.5111H28.4998H28.4883H28.4769H28.4654H28.4538H28.4422H28.4306H28.4189H28.4072H28.3954H28.3836H28.3718H28.3599H28.3479H28.3359H28.3239H28.3118H28.2997H28.2875H28.2753H28.2631H28.2508H28.2384H28.2261H28.2136H28.2012H28.1887H28.1761H28.1635H28.1509H28.1382H28.1255H28.1127H28.0999H28.087H28.0742H28.0612H28.0482H28.0352H28.0222H28.0091H27.9959H27.9827H27.9695H27.9563H27.943H27.9296H27.9162H27.9028H27.8893H27.8758H27.8623H27.8487H27.835H27.8214H27.8077H27.7939H27.7801H27.7663H27.7524H27.7385H27.7246H27.7106H27.6966H27.6825H27.6684H27.6542H27.6401H27.6258H27.6116H27.5973H27.5829H27.5686H27.5541H27.5397H27.5252H27.5107H27.4961H27.4815H27.4668H27.4522H27.4375H27.4227H27.4079H27.3931H27.3782H27.3633H27.3484H27.3334H27.3184H27.3033H27.2882H27.2731H27.2579H27.2427H27.2275H27.2122H27.1969H27.1816H27.1662H27.1508H27.1353H27.1199H27.1043H27.0888H27.0732H27.0576H27.0419H27.0262H27.0105H26.9947H26.9789H26.9631H26.9472H26.9313H26.9153H26.8994H26.8834H26.8673H26.8512H26.8351H26.819H26.8028H26.7866H26.7704H26.7541H26.7378H26.7214H26.705H26.6886H26.6722H26.6557H26.6392H26.6227H26.6061H26.5895H26.5728H26.5562H26.5395H26.5227H26.506H26.4892H26.4723H26.4555H26.4386H26.4216H26.4047H26.3877H26.3707H26.3536H26.3365H26.3194H26.3023H26.2851H26.2679H26.2507H26.2334H26.2161H26.1988H26.1814H26.164H26.1466H26.1292H26.1117H26.0942H26.0766H26.0591H26.0415H26.0239H26.0062H25.9885H25.9708H25.9531H25.9353H25.9175H25.8997H25.8818H25.8639H25.846H25.8281H25.8101H25.7921H25.7741H25.756H25.738H25.7198H25.7017H25.6835H25.6654H25.6471H25.6289H25.6106H25.5923H25.574H25.5556H25.5373H25.5188H25.5004H25.482H25.4635H25.445H25.4264H25.4079H25.3893H25.3706H25.352H25.3333H25.3146H25.2959H25.2772H25.2584H25.2396H25.2208H25.2019H25.1831H25.1642H25.1453H25.1263H25.1073H25.0883H25.0693H25.0503H25.0312H25.0121H24.993H24.9739H24.9547H24.9355H24.9163H24.8971H24.8778H24.8585H24.8392H24.8199H24.8006H24.7812H24.7618H24.7424H24.7229H24.7035H24.684H24.6645H24.6449H24.6254H24.6058H24.5862H24.5666H24.547H24.5273H24.5076H24.4879H24.4682H24.4484H24.4287H24.4089H24.3891H24.3692H24.3494H24.3295H24.3096H24.2897H24.2697H24.2498H24.2298H24.2098H24.1898H24.1698H24.1497H24.1296H24.1095H24.0894H24.0693H24.0491H24.0289H24.0087H23.9885H23.9683H23.9481H23.9278H23.9075H23.8872H23.8669H23.8465H23.8261H23.8058H23.7854H23.765H23.7445H23.7241H23.7036H23.6831H23.6626H23.6421H23.6215H23.601H23.5804H23.5598H23.5392H23.5186H23.4979H23.4773H23.4566H23.4359H23.4152H23.3944H23.3737C21.7987 26.8077 20.3602 27.1485 19.3037 27.4986C18.779 27.6724 18.3581 27.8454 18.0734 27.9722C17.9313 28.0356 17.8238 28.0871 17.7551 28.121C17.7208 28.138 17.6962 28.1506 17.6819 28.158L17.6703 28.164M18.4154 11.3333V24.8081C19.6607 24.3957 21.4086 23.9743 23.3737 23.9743H23.3944H23.4152H23.4359H23.4566H23.4773H23.4979H23.5186H23.5392H23.5598H23.5804H23.601H23.6215H23.6421H23.6626H23.6831H23.7036H23.7241H23.7445H23.765H23.7854H23.8058H23.8261H23.8465H23.8669H23.8872H23.9075H23.9278H23.9481H23.9683H23.9885H24.0087H24.0289H24.0491H24.0693H24.0894H24.1095H24.1296H24.1497H24.1698H24.1898H24.2098H24.2298H24.2498H24.2697H24.2897H24.3096H24.3295H24.3494H24.3692H24.3891H24.4089H24.4287H24.4484H24.4682H24.4879H24.5076H24.5273H24.547H24.5666H24.5862H24.6058H24.6254H24.6449H24.6645H24.684H24.7035H24.7229H24.7424H24.7618H24.7812H24.8006H24.8199H24.8392H24.8585H24.8778H24.8971H24.9163H24.9355H24.9547H24.9739H24.993H25.0121H25.0312H25.0503H25.0693H25.0883H25.1073H25.1263H25.1453H25.1642H25.1831H25.2019H25.2208H25.2396H25.2584H25.2772H25.2959H25.3146H25.3333H25.352H25.3706H25.3893H25.4079H25.4264H25.445H25.4635H25.482H25.5004H25.5188H25.5373H25.5556H25.574H25.5923H25.6106H25.6289H25.6471H25.6654H25.6835H25.7017H25.7198H25.738H25.756H25.7741H25.7921H25.8101H25.8281H25.846H25.8639H25.8818H25.8997H25.9175H25.9353H25.9531H25.9708H25.9885H26.0062H26.0239H26.0415H26.0591H26.0766H26.0942H26.1117H26.1292H26.1466H26.164H26.1814H26.1988H26.2161H26.2334H26.2507H26.2679H26.2851H26.3023H26.3194H26.3365H26.3536H26.3707H26.3877H26.4047H26.4216H26.4386H26.4555H26.4723H26.4892H26.506H26.5227H26.5395H26.5562H26.5728H26.5895H26.6061H26.6227H26.6392H26.6557H26.6722H26.6886H26.705H26.7214H26.7378H26.7541H26.7704H26.7866H26.8028H26.819H26.8351H26.8512H26.8673H26.8834H26.8994H26.9153H26.9313H26.9472H26.9631H26.9789H26.9947H27.0105H27.0262H27.0419H27.0576H27.0732H27.0888H27.1043H27.1199H27.1353H27.1508H27.1662H27.1816H27.1969H27.2122H27.2275H27.2427H27.2579H27.2731H27.2882H27.3033H27.3184H27.3334H27.3484H27.3633H27.3782H27.3931H27.4079H27.4227H27.4375H27.4522H27.4668H27.4815H27.4961H27.5107H27.5252H27.5397H27.5541H27.5686H27.5829H27.5973H27.6116H27.6258H27.6401H27.6542H27.6684H27.6825H27.6966H27.7106H27.7246H27.7385H27.7524H27.7663H27.7801H27.7939H27.8077H27.8214H27.835H27.8487H27.8623H27.8758H27.8893H27.9028H27.9162H27.9296H27.943H27.9563H27.9695H27.9827H27.9959H28.0091H28.0222H28.0352H28.0482H28.0612H28.0742H28.087H28.0999H28.1127H28.1255H28.1382H28.1509H28.1635H28.1761H28.1887H28.2012H28.2136H28.2261H28.2384H28.2508H28.2631H28.2753H28.2875H28.2997H28.3118H28.3239H28.332V8.49996H28.3293H28.3239H28.3184H28.313H28.3075H28.302H28.2965H28.291H28.2855H28.28H28.2744H28.2689H28.2633H28.2577H28.2521H28.2465H28.2408H28.2352H28.2295H28.2239H28.2182H28.2125H28.2068H28.201H28.1953H28.1895H28.1838H28.178H28.1722H28.1664H28.1605H28.1547H28.1488H28.143H28.1371H28.1312H28.1252H28.1193H28.1134H28.1074H28.1014H28.0954H28.0894H28.0834H28.0774H28.0714H28.0653H28.0592H28.0531H28.047H28.0409H28.0348H28.0286H28.0225H28.0163H28.0101H28.0039H27.9977H27.9914H27.9852H27.9789H27.9726H27.9663H27.96H27.9537H27.9473H27.941H27.9346H27.9282H27.9218H27.9154H27.909H27.9025H27.8961H27.8896H27.8831H27.8766H27.8701H27.8636H27.857H27.8504H27.8439H27.8373H27.8306H27.824H27.8174H27.8107H27.804H27.7974H27.7907H27.7839H27.7772H27.7705H27.7637H27.7569H27.7501H27.7433H27.7365H27.7296H27.7228H27.7159H27.709H27.7021H27.6952H27.6883H27.6813H27.6743H27.6674H27.6604H27.6533H27.6463H27.6393H27.6322H27.6251H27.618H27.6109H27.6038H27.5967H27.5895H27.5823H27.5752H27.568H27.5607H27.5535H27.5463H27.539H27.5317H27.5244H27.5171H27.5098H27.5024H27.4951H27.4877H27.4803H27.4729H27.4654H27.458H27.4505H27.4431H27.4356H27.4281H27.4205H27.413H27.4054H27.3979H27.3903H27.3827H27.3751H27.3674H27.3598H27.3521H27.3444H27.3367H27.329H27.3212H27.3135H27.3057H27.2979H27.2901H27.2823H27.2745H27.2666H27.2588H27.2509H27.243H27.235H27.2271H27.2192H27.2112H27.2032H27.1952H27.1872H27.1791H27.1711H27.163H27.1549H27.1468H27.1387H27.1306H27.1224H27.1143H27.1061H27.0979H27.0896H27.0814H27.0731H27.0649H27.0566H27.0483H27.04H27.0316H27.0233H27.0149H27.0065H26.9981H26.9897H26.9812H26.9727H26.9643H26.9558H26.9473H26.9387H26.9302H26.9216H26.913H26.9044H26.8958H26.8872H26.8785H26.8699H26.8612H26.8525H26.8438H26.835H26.8263H26.8175H26.8087H26.7999H26.7911H26.7822H26.7734H26.7645H26.7556H26.7467H26.7377H26.7288H26.7198H26.7108H26.7018H26.6928H26.6838H26.6747H26.6656H26.6565H26.6474H26.6383H26.6292H26.62H26.6108H26.6016H26.5924H26.5832H26.5739H26.5646H26.5554H26.546H26.5367H26.5274H26.518H26.5086H26.4992H26.4898H26.4804H26.4709H26.4615H26.452H26.4425H26.4329H26.4234H26.4138H26.4043H26.3947H26.385H26.3754H26.3658H26.3561H26.3464H26.3367H26.327H26.3172H26.3074H26.2977H26.2879H26.278H26.2682H26.2583H26.2485H26.2386H26.2287H26.2187H26.2088H26.1988H26.1888H26.1788H26.1688H26.1587H26.1487H26.1386H26.1285H26.1184H26.1082H26.0981H26.0879H26.0777H26.0675H26.0573H26.047H26.0368H26.0265H26.0162H26.0058H25.9955H25.9851H25.9747H25.9643H25.9539H25.9435H25.933H25.9225H25.912H25.9015H25.891H25.8804H25.8698H25.8592H25.8486H25.838H25.8273H25.8167H25.806H25.7953H25.7845H25.7738H25.763H25.7522H25.7414H25.7306H25.7197H25.7089H25.698H25.6871H25.6762H25.6652H25.6542H25.6433H25.6323H25.6212H25.6102H25.5991H25.588H25.5769H25.5658H25.5547H25.5435H25.5323H25.5211H25.5099H25.4987H25.4874H25.4761H25.4648H25.4535H25.4422H25.4308H25.4194H25.408H25.3966H25.3852H25.3737H25.3622H25.3507H25.3392H25.3277H25.3161H25.3045H25.2929H25.2813H25.2697H25.258H25.2463H25.2346H25.2229H25.2112H25.1994H25.1876H25.1758H25.164H25.1521H25.1403H25.1284H25.1165H25.1046H25.0926H25.0807H25.0687H25.0567H25.0446H25.0326H25.0205H25.0084H24.9963H24.9842H24.972H24.9599H24.9477H24.9355H24.9232H24.911H24.8987H24.8864H24.8741H24.8617H24.8494H24.837H24.8246H24.8122H24.7997H24.7873H24.7748H24.7623H24.7498H24.7372H24.7246H24.7121H24.6994H24.6868H24.6742H24.6615H24.6488H24.6361H24.6233H24.6106H24.5978H24.585H24.5722H24.5593H24.5465H24.5336H24.5207H24.5078H24.4948H24.4819H24.4689H24.4558H24.4428H24.4298H24.4167H24.4036H24.3905H24.3773H24.3642H24.351H24.3378H24.3245H24.3113H24.298H24.2847H24.2714H24.2581H24.2447H24.2314H24.218H24.2045H24.1911H24.1776H24.1641H24.1506H24.1371H24.1236H24.11H24.0964H24.0828H24.0691H24.0555H24.0418H24.0281H24.0144H24.0006H23.9868H23.973H23.9592H23.9454H23.9315H23.9177H23.9038H23.8898H23.8759H23.8619H23.8479H23.8339H23.8199H23.8058H23.7917H23.7776H23.7635H23.7494H23.7352H23.721H23.7068H23.6926H23.6783H23.664H23.6497H23.6354H23.621H23.6067H23.5923H23.5779H23.5634H23.549H23.5345H23.52H23.5055H23.4909H23.4763H23.4617H23.4471H23.4325H23.4178H23.4031H23.3884H23.3737H23.369H23.3643H23.3595H23.3548H23.3501H23.3454H23.3407H23.336H23.3313H23.3266H23.3219H23.3172H23.3125H23.3078H23.3031H23.2984H23.2937H23.289H23.2844H23.2797H23.275H23.2703H23.2657H23.261H23.2563H23.2517H23.247H23.2423H23.2377H23.233H23.2284H23.2237H23.2191H23.2144H23.2098H23.2051H23.2005H23.1959H23.1912H23.1866H23.182H23.1773H23.1727H23.1681H23.1635H23.1589H23.1542H23.1496H23.145H23.1404H23.1358H23.1312H23.1266H23.122H23.1174H23.1128H23.1082H23.1036H23.099H23.0944H23.0899H23.0853H23.0807H23.0761H23.0715H23.067H23.0624H23.0578H23.0533H23.0487H23.0441H23.0396H23.035H23.0305H23.0259H23.0214H23.0168H23.0123H23.0077H23.0032H22.9987H22.9941H22.9896H22.9851H22.9805H22.976H22.9715H22.967H22.9624H22.9579H22.9534H22.9489H22.9444H22.9399H22.9354H22.9309H22.9264H22.9219H22.9174H22.9129H22.9084H22.9039H22.8994H22.8949H22.8904H22.8859H22.8815H22.877H22.8725H22.868H22.8636H22.8591H22.8546H22.8502H22.8457H22.8413H22.8368H22.8323H22.8279H22.8234H22.819H22.8146H22.8101H22.8057H22.8012H22.7968H22.7924H22.7879H22.7835H22.7791H22.7747H22.7702H22.7658H22.7614H22.757H22.7526H22.7482H22.7437H22.7393H22.7349H22.7305H22.7261H22.7217H22.7173H22.7129H22.7086H22.7042H22.6998H22.6954H22.691H22.6866H22.6823H22.6779H22.6735H22.6691H22.6648H22.6604H22.656H22.6517H22.6473H22.643H22.6386H22.6343H22.6299H22.6256H22.6212H22.6169H22.6125H22.6082H22.6039H22.5995H22.5952H22.5909H22.5865H22.5822H22.5779H22.5736H22.5692H22.5649H22.5606H22.5563H22.552H22.5477H22.5434H22.5391H22.5348H22.5305H22.5262H22.5219H22.5176H22.5133H22.509H22.5047H22.5004H22.4962H22.4919H22.4876H22.4833H22.4791H22.4748H22.4705H22.4663H22.462H22.4577H22.4535H22.4492H22.445H22.4407H22.4365H22.4322H22.428H22.4237H22.4195H22.4152H22.411H22.4068H22.4025H22.3983H22.3941H22.3899H22.3856H22.3814H22.3772H22.373H22.3688H22.3646H22.3603H22.3561H22.3519H22.3477H22.3435H22.3393H22.3351H22.3309H22.3267H22.3225H22.3184H22.3142H22.31H22.3058H22.3016H22.2975H22.2933H22.2891H22.2849H22.2808H22.2766H22.2724H22.2683H22.2641H22.26H22.2558H22.2516H22.2475H22.2433H22.2392H22.2351H22.2309H22.2268H22.2226H22.2185H22.2144H22.2102H22.2061H22.202H22.1979H22.1937H22.1896H22.1855H22.1814H22.1773H22.1732H22.169H22.1649H22.1608H22.1567H22.1526H22.1485H22.1444H22.1403H22.1362H22.1322H22.1281H22.124H22.1199H22.1158H22.1117H22.1077H22.1036H22.0995H22.0954H22.0914H22.0873H22.0832H22.0792H22.0751H22.0711H22.067H22.063H22.0589H22.0549H22.0508H22.0468H22.0427H22.0387H22.0346H22.0306H22.0266H22.0225H22.0185H22.0145H22.0105H22.0064H22.0024H21.9984H21.9944H21.9904H21.9864H21.9823H21.9783H21.9743H21.9703H21.9663H21.9623H21.9583H21.9543H21.9503H21.9464H21.9424H21.9384H21.9344H21.9304H21.9264H21.9225H21.9185H21.9145H21.9105H21.9066H21.9026H21.8986H21.8947H21.8907H21.8868H21.8828H21.8788H21.8749H21.8709H21.867H21.863H21.8591H21.8552H21.8512H21.8473H21.8433H21.8394H21.8355H21.8316H21.8276H21.8237H21.8198H21.8159H21.8119H21.808H21.8041H21.8002H21.7963H21.7924H21.7885H21.7846H21.7807H21.7768H21.7729H21.769H21.7651H21.7612H21.7573H21.7534H21.7495H21.7457H21.7418H21.7379H21.734H21.7302H21.7263H21.7224H21.7185H21.7147H21.7108H21.707H21.7031H21.6992H21.6954H21.6915H21.6877H21.6838H21.68H21.6761H21.6723H21.6685H21.6646H21.6608H21.657H21.6531H21.6493H21.6455H21.6416H21.6378H21.634H21.6302H21.6264H21.6226H21.6187H21.6149H21.6111H21.6073H21.6035H21.5997H21.5959H21.5921H21.5883H21.5845H21.5807H21.5769H21.5732H21.5694H21.5656H21.5618H21.558H21.5542H21.5505H21.5467H21.5429H21.5392H21.5354H21.5316H21.5279H21.5241H21.5203H21.5166H21.5128H21.5091H21.5053H21.5016H21.4978H21.4941H21.4904H21.4866H21.4829H21.4791H21.4754H21.4717H21.4679H21.4642H21.4605H21.4568H21.4531H21.4493H21.4456H21.4419H21.4382H21.4345H21.4308H21.4271H21.4234H21.4197H21.416H21.4123H21.4086H21.4049H21.4012H21.3975H21.3938H21.3901H21.3864H21.3828H21.3791H21.3754H21.3717H21.368H21.3644H21.3607H21.357H21.3534H21.3497H21.3461H21.3424H21.3387H21.3351H21.3314H21.3278H21.3241H21.3205H21.3168H21.3132H21.3096H21.3059H21.3023H21.2986H21.295H21.2914H21.2878H21.2841H21.2805H21.2769H21.2733H21.2696H21.266H21.2624H21.2588H21.2552H21.2516H21.248C19.6835 8.49996 18.4154 9.76817 18.4154 11.3333ZM17.5605 28.2171C17.5974 28.2012 17.6338 28.1836 17.6695 28.1644L17.6697 28.1643M17.5605 28.2171C17.167 28.3872 16.7136 28.371 16.33 28.1655C16.3293 28.1652 16.3286 28.1648 16.3279 28.1644M28.332 8.49794C28.332 8.4981 28.332 8.4983 28.332 8.49853L28.3323 8.4987L28.332 8.49794ZM28.3319 8.49741L28.332 8.49794L28.3319 8.49741Z" fill="white"/>
</svg>
