<svg width="412" height="241" viewBox="0 0 412 241" fill="none" xmlns="http://www.w3.org/2000/svg">
<path fill-rule="evenodd" clip-rule="evenodd" d="M155.367 18.2274C154.474 18.5404 153.702 18.9 153.652 19.0267C153.603 19.1531 153.42 19.2584 153.246 19.26C152.431 19.2689 147.921 24.4259 147.921 25.3489C147.921 25.5639 147.799 25.7397 147.65 25.7397C147.501 25.7397 147.379 25.9321 147.379 26.1673C147.379 27.1727 148.833 25.5001 149.437 23.8C149.526 23.5504 149.759 23.2846 149.956 23.2092C150.308 23.0742 149.664 24.6012 149.228 24.9318C149.128 25.0077 148.963 25.4029 148.86 25.81C148.758 26.217 148.573 26.5501 148.449 26.5501C148.212 26.5501 147.765 28.8631 147.884 29.4739C147.922 29.6705 147.836 29.9744 147.692 30.1492C146.827 31.1989 146.823 217.422 147.688 217.955C147.816 218.034 147.921 218.371 147.921 218.703C147.921 219.314 149.451 222.523 150.127 223.329C151.397 224.845 153.292 226.711 153.561 226.711C153.735 226.711 153.878 226.83 153.878 226.976C153.878 227.121 154.183 227.317 154.555 227.41C154.927 227.503 155.232 227.688 155.232 227.82C155.232 227.953 155.384 228.062 155.57 228.063C155.757 228.064 156.26 228.247 156.689 228.471C157.119 228.694 157.972 228.953 158.585 229.046C159.198 229.139 159.834 229.32 159.997 229.447C160.502 229.842 165.714 229.964 187.321 230.087C198.789 230.153 212.456 230.288 217.693 230.387C222.929 230.487 227.438 230.481 227.712 230.373C227.986 230.265 229.125 230.129 230.242 230.069C234.539 229.84 236.339 229.651 236.589 229.401C236.732 229.258 237.085 229.142 237.374 229.142C238.072 229.142 240.227 228.079 241.071 227.318C241.441 226.984 241.832 226.711 241.939 226.711C242.228 226.711 244.106 224.805 244.734 223.874C245.803 222.292 247.031 219.426 247.031 218.515C247.031 218.137 247.137 217.763 247.266 217.683C247.734 217.395 247.851 214.718 247.859 204.071C247.864 197.487 247.969 193.17 248.126 193.073C248.285 192.975 248.397 186.656 248.417 176.655C248.434 167.712 248.526 158.755 248.62 156.749C248.714 154.743 248.748 163.933 248.695 177.171C248.605 199.762 248.628 201.251 249.066 201.418C249.451 201.566 249.5 201.489 249.346 200.986C249.025 199.933 248.944 198.348 249.212 198.348C249.372 198.348 249.468 179.778 249.468 148.882C249.468 104.084 249.428 99.4498 249.045 99.767C248.662 100.084 248.63 96.9045 248.707 66.1022C248.785 34.3437 248.76 32.0071 248.321 30.872C248.062 30.2035 247.849 29.4372 247.847 29.1689C247.841 28.4566 245.999 24.337 245.609 24.1641C245.497 24.1144 245.406 23.9072 245.406 23.7033C245.406 23.2435 242.343 20.0672 241.899 20.0672C241.722 20.0672 241.393 19.8848 241.17 19.662C240.947 19.4391 240.529 19.2568 240.242 19.2568C239.954 19.2568 239.719 19.1514 239.719 19.0226C239.719 18.7879 238.066 18.3497 235.522 17.9097C232.116 17.3206 157.108 17.618 155.367 18.2274ZM155.051 19.1668C155.151 19.2657 155.313 19.2657 155.413 19.1668C155.512 19.0677 155.43 18.9867 155.232 18.9867C155.033 18.9867 154.952 19.0677 155.051 19.1668ZM187.082 21.9348C186.985 21.4018 186.547 20.5639 186.107 20.0726L185.307 19.179L174.399 19.1088C161.116 19.0234 158.594 19.2341 155.503 20.6871C153.379 21.6855 150.087 25.5412 150.087 27.0298C150.087 27.187 149.975 27.3559 149.838 27.4056C148.785 27.7859 148.521 44.5046 148.484 113.229C148.472 134.457 148.374 145.319 148.191 145.539C147.365 146.532 148.134 216.329 148.988 217.831C149.125 218.073 149.32 218.711 149.422 219.249C149.523 219.787 149.714 220.228 149.846 220.228C149.979 220.228 150.087 220.38 150.087 220.566C150.087 221.674 154.893 226.704 155.958 226.712C156.08 226.713 156.505 226.883 156.902 227.09C157.3 227.297 158.153 227.553 158.798 227.659C159.443 227.765 160.093 227.946 160.242 228.061C160.391 228.175 162.78 228.417 165.551 228.599C176.776 229.335 234.033 228.865 234.033 228.037C234.033 227.92 234.246 227.839 234.507 227.855C236.121 227.961 239.97 226.43 240.613 225.427C240.732 225.242 240.96 225.09 241.12 225.09C241.377 225.09 243.448 223.042 244.187 222.059C244.604 221.505 245.349 219.9 245.54 219.147C245.634 218.776 245.818 218.229 245.95 217.932C246.613 216.435 246.933 209.76 246.701 202.265C246.482 195.159 246.577 158.778 246.83 153.295C246.894 151.915 246.874 150.741 246.785 150.687C246.697 150.633 246.702 144.955 246.797 138.069C247.258 104.658 247.187 31.3137 246.694 30.4669C246.434 30.0212 246.221 29.5087 246.22 29.328C246.217 28.7772 244.562 25.1106 244.255 24.9745C244.143 24.9248 244.052 24.7311 244.052 24.5436C244.052 24.3562 243.808 23.9826 243.51 23.7138C243.213 23.445 242.964 23.0917 242.957 22.9291C242.945 22.6187 241.218 21.4178 240.784 21.4178C240.645 21.4178 240.532 21.2962 240.532 21.1477C240.532 20.9991 240.398 20.8775 240.234 20.8775C240.071 20.8775 239.553 20.7047 239.083 20.4937C236.138 19.1682 210.668 18.5153 209.458 19.7341C208.782 20.4153 208.037 21.6093 208.035 22.0161C208.034 22.2071 207.871 22.6725 207.674 23.0504C207.476 23.4283 207.235 24.1309 207.139 24.6117C206.926 25.6741 205.352 27.3605 204.573 27.3605C204.261 27.3605 203.931 27.482 203.839 27.6306C203.736 27.7981 201.314 27.9007 197.476 27.9007C193.637 27.9007 191.216 27.7981 191.112 27.6306C191.02 27.482 190.706 27.3605 190.414 27.3605C189.604 27.3605 188.045 25.596 187.837 24.4434C187.738 23.8937 187.567 23.3221 187.456 23.1736C187.346 23.025 187.178 22.4675 187.082 21.9348ZM154.239 19.437C154.338 19.5358 154.501 19.5358 154.6 19.437C154.699 19.3378 154.618 19.2568 154.42 19.2568C154.221 19.2568 154.14 19.3378 154.239 19.437ZM207.758 20.0672C207.88 20.0672 208.049 19.8848 208.135 19.662C208.271 19.306 206.978 19.2568 197.476 19.2568C187.974 19.2568 186.68 19.306 186.817 19.662C186.903 19.8848 187.072 20.0672 187.193 20.0672C187.314 20.0672 187.499 20.4583 187.605 20.9361C187.71 21.4143 187.891 21.9915 188.008 22.2192C188.125 22.4469 188.42 23.199 188.663 23.8902C188.907 24.5817 189.427 25.4934 189.82 25.9161L190.534 26.6852H197.458C204.04 26.6852 204.407 26.6584 204.922 26.1403C205.777 25.2808 206.324 24.3237 206.543 23.3046C206.654 22.7867 206.839 22.2416 206.953 22.0931C207.068 21.9445 207.246 21.428 207.35 20.9451C207.453 20.4621 207.637 20.0672 207.758 20.0672ZM152.93 20.3289C153.079 20.3289 153.384 20.2111 153.607 20.0672C153.831 19.9232 153.892 19.8054 153.743 19.8054C153.594 19.8054 153.289 19.9232 153.066 20.0672C152.842 20.2111 152.781 20.3289 152.93 20.3289ZM150.919 22.3094C150.983 22.3573 151.427 21.9939 151.907 21.5021C152.387 21.0099 152.684 20.6074 152.567 20.6074C152.298 20.6074 150.763 22.1925 150.919 22.3094ZM248.774 107.317C248.774 111.254 248.812 112.864 248.858 110.896C248.904 108.927 248.904 105.706 248.858 103.737C248.812 101.769 248.774 103.38 248.774 107.317ZM248.782 130.007C248.782 138.104 248.816 141.416 248.858 137.368C248.901 133.319 248.901 126.694 248.858 122.646C248.816 118.597 248.782 121.91 248.782 130.007ZM248.737 147.295C248.737 148.112 248.787 148.446 248.849 148.038C248.911 147.629 248.911 146.961 248.849 146.552C248.787 146.143 248.737 146.478 248.737 147.295ZM248.718 149.996C248.718 150.516 248.774 150.728 248.842 150.469C248.91 150.209 248.91 149.783 248.842 149.523C248.774 149.263 248.718 149.476 248.718 149.996ZM248.791 152.714C248.94 152.714 249.1 152.406 249.147 152.03C249.208 151.543 249.106 151.347 248.791 151.347C248.476 151.347 248.373 151.543 248.435 152.03C248.482 152.406 248.642 152.714 248.791 152.714Z" fill="#82879E"/>
<path fill-rule="evenodd" clip-rule="evenodd" d="M240.058 234.76C228.656 234.726 223.944 234.639 226.586 234.513C235.875 234.07 240.398 233.73 240.485 233.468C240.536 233.317 240.855 233.194 241.195 233.194C241.534 233.194 242.122 232.95 242.501 232.653C242.88 232.356 243.278 232.113 243.387 232.113C243.495 232.113 243.866 231.809 244.211 231.438C244.556 231.066 244.896 230.762 244.967 230.762C245.257 230.762 248.656 227.323 248.656 227.029C248.656 226.854 248.765 226.711 248.899 226.711C249.033 226.711 249.384 226.255 249.678 225.698C251.785 221.714 252.276 220.376 252.682 217.511C253.001 215.254 252.762 30.9866 252.437 29.1163C251.991 26.5509 251.562 24.9294 251.327 24.9294C251.198 24.9294 251.093 24.7508 251.093 24.5326C251.093 24.0552 249.988 21.8602 249.683 21.733C249.565 21.6833 249.468 21.4953 249.468 21.3151C249.468 20.864 248.801 20.0229 246.895 18.0693C244.12 15.2241 241.86 14.0245 237.418 13.038C235.906 12.702 206.599 12.7641 190.164 13.138C182.531 13.3117 174.874 13.3552 172.833 13.2363C165.993 12.8379 156.651 13.3052 155.663 14.0953C155.501 14.2255 154.971 14.4167 154.487 14.5199C154.003 14.6231 153.607 14.8098 153.607 14.9348C153.607 15.0599 153.242 15.2422 152.795 15.34C152.348 15.4378 151.982 15.6299 151.982 15.7666C151.982 15.9035 151.818 16.0153 151.618 16.0153C151.417 16.0153 150.997 16.2282 150.685 16.488C150.373 16.7482 149.72 17.2646 149.234 17.6361C148.749 18.0075 148.103 18.6009 147.798 18.9551C147.493 19.3092 147.089 19.7584 146.9 19.9532C146.175 20.7033 144.671 22.7857 144.671 23.0409C144.671 23.1882 144.552 23.3086 144.405 23.3086C144.259 23.3086 144.06 23.6428 143.962 24.0515C143.864 24.4599 143.673 24.9358 143.537 25.1087C143.401 25.2816 143.218 26.3148 143.131 27.4048C143.044 28.4947 142.84 29.5536 142.677 29.7578C142.256 30.288 142.245 218.275 142.666 218.549C142.829 218.655 143.04 219.317 143.134 220.019C143.228 220.722 143.422 221.512 143.565 221.775C143.708 222.038 144.106 222.861 144.451 223.604C144.795 224.347 145.169 224.995 145.28 225.045C145.392 225.094 145.483 225.282 145.483 225.463C145.483 226.401 150.687 231.573 151.631 231.573C151.825 231.573 151.982 231.672 151.982 231.792C151.982 232.089 154.557 233.194 155.251 233.194C155.556 233.194 155.73 233.315 155.638 233.464C155.533 233.634 152.431 233.734 147.228 233.734C140.081 233.734 138.984 233.788 138.984 234.139C138.984 234.488 140.027 234.553 146.499 234.604C150.999 234.64 152.357 234.697 149.884 234.746C146.511 234.813 145.754 234.9 145.754 235.217C145.754 235.54 146.795 235.626 151.915 235.729C155.303 235.797 159.964 235.973 162.273 236.119C164.581 236.266 168.176 236.409 170.261 236.436C172.346 236.463 174.2 236.607 174.381 236.756C174.866 237.154 231.404 237.196 231.901 236.799C232.55 236.28 248.956 236.313 248.756 236.833C248.624 237.178 248.898 237.245 250.42 237.245C252.009 237.245 252.199 237.193 251.905 236.84C251.627 236.506 251.651 236.435 252.04 236.435C252.404 236.435 252.444 236.352 252.213 236.074C252.139 235.594 251.874 234.988 251.75 234.746C248.861 234.77 244.936 234.775 240.058 234.76ZM236.267 14.2522C234.814 14.1464 233.505 13.9832 233.356 13.8895C232.933 13.6237 213.726 13.6899 213.457 13.9578C213.323 14.0918 201.192 14.2258 185.782 14.263C160.075 14.3256 157.471 14.3088 155.23 15.1992C154.915 15.3244 154.607 15.4675 154.243 15.6312C153.774 15.8425 153.256 16.0153 153.092 16.0153C152.929 16.0153 152.795 16.1369 152.795 16.2855C152.795 16.434 152.631 16.5556 152.431 16.5556C152.23 16.5556 151.846 16.7987 151.576 17.0958C151.307 17.393 150.984 17.6361 150.86 17.6361C149.35 17.6361 144.855 24.1541 144.378 27.0352C143.875 30.0736 143.599 216.798 144.096 217.743C144.229 217.995 144.428 218.744 144.538 219.407C144.648 220.07 144.835 220.799 144.952 221.028C145.07 221.256 145.624 222.391 146.183 223.549C147.89 227.087 153.417 231.843 155.821 231.843C156.043 231.843 156.316 231.934 156.427 232.045C156.703 232.322 159.488 232.892 162.273 233.243C165.123 233.601 181.109 233.622 207.901 233.302C221.244 233.142 227.049 232.994 224.826 232.872C219.661 232.586 218.511 232.408 218.891 231.951C219.143 231.648 220.378 231.573 225.114 231.573C228.363 231.573 231.088 231.467 231.168 231.337C231.248 231.207 231.895 231.09 232.606 231.077C234.868 231.035 237.831 230.398 239.896 229.509C240.365 229.307 240.883 229.142 241.047 229.142C241.21 229.142 241.344 229.02 241.344 228.872C241.344 228.723 241.514 228.601 241.723 228.601C242.676 228.601 247.031 223.48 247.031 222.358C247.031 222.197 247.203 221.682 247.414 221.214C248.123 219.64 248.493 216.879 248.587 212.462C248.644 209.786 248.786 208.072 248.951 208.072C249.099 208.072 249.196 208.224 249.166 208.41C249.136 208.596 249.208 208.968 249.325 209.237C249.641 209.962 249.346 219.452 248.988 220.093C248.821 220.39 248.612 221.089 248.523 221.646C248.433 222.203 248.244 222.659 248.102 222.659C247.96 222.659 247.843 222.847 247.843 223.078C247.843 223.5 246.856 225.471 246.354 226.052C246.205 226.224 245.718 226.808 245.272 227.348C244.826 227.889 244.318 228.331 244.144 228.331C243.969 228.331 243.786 228.423 243.736 228.534C243.599 228.842 241.946 229.952 241.626 229.952C241.471 229.952 241.344 230.068 241.344 230.21C241.344 230.352 240.916 230.548 240.393 230.646C239.87 230.743 239.38 230.924 239.304 231.048C239.228 231.171 238.589 231.355 237.885 231.457C237.181 231.558 236.374 231.762 236.092 231.908C235.81 232.054 233.921 232.271 231.895 232.39C228.427 232.593 228.536 232.601 233.762 232.531C239.441 232.455 241.017 232.187 242.108 231.114C242.305 230.921 242.61 230.762 242.785 230.761C242.961 230.761 243.558 230.344 244.112 229.836C244.667 229.328 245.345 228.751 245.619 228.554C245.893 228.357 246.414 227.771 246.777 227.251C247.14 226.731 247.498 226.245 247.572 226.17C247.847 225.896 248.413 224.934 248.725 224.212C248.901 223.803 249.14 223.469 249.256 223.469C249.373 223.469 249.469 223.317 249.47 223.131C249.471 222.946 249.642 222.468 249.85 222.069C250.059 221.671 250.316 220.941 250.421 220.448C250.527 219.956 250.752 219.382 250.921 219.173C251.131 218.913 251.234 216.571 251.248 211.745C251.263 206.476 251.244 206.043 251.175 210.031C251.102 214.211 251.004 215.365 250.725 215.365C250.432 215.365 250.336 199.557 250.18 126.023C249.992 37.1897 249.911 30.1179 249.063 28.0358C247.532 24.2786 243.964 19.6941 242.115 19.1085C241.84 19.0215 241.615 18.8511 241.615 18.7298C241.615 18.6085 241.402 18.4381 241.141 18.3508C240.881 18.2633 240.484 18.0726 240.261 17.927C239.358 17.3373 237.882 16.8238 236.527 16.6277C235.077 16.4178 234.738 16.0915 235.484 15.6226C235.751 15.4546 236.111 15.4713 236.52 15.6707C236.865 15.8389 237.592 16.0494 238.136 16.1382C239.559 16.3711 241.775 17.5969 244.018 19.3919C245.296 20.414 247.572 22.7103 247.572 22.9761C247.572 23.1225 247.761 23.3988 247.992 23.5898C248.474 23.9885 249.468 26.0531 249.468 26.6544C249.468 26.8767 249.579 27.1271 249.715 27.2108C249.851 27.2948 250.048 27.8794 250.153 28.5098C250.258 29.1406 250.467 29.8915 250.618 30.1784C250.797 30.5174 250.961 41.7923 251.085 62.3229L251.277 93.9456L251.252 60.9645C251.234 35.6465 251.152 27.8923 250.901 27.5911C250.722 27.3753 250.493 26.6881 250.393 26.0639C250.293 25.4399 250.118 24.9294 250.004 24.9294C249.891 24.9294 249.713 24.5955 249.611 24.1871C248.802 20.974 243.103 15.6599 239.802 15.0424C239.31 14.9502 238.907 14.7779 238.907 14.6599C238.907 14.5418 237.719 14.3584 236.267 14.2522ZM165.422 235.428C165.576 235.523 165.703 235.424 165.703 235.208C165.703 234.878 165 234.821 161.347 234.858L156.992 234.903L161.066 235.078C163.307 235.175 165.267 235.332 165.422 235.428ZM221.17 235.759C221.021 235.708 209.384 235.595 195.309 235.509C181.235 235.423 169.019 235.277 168.162 235.185C167.226 235.084 166.605 235.121 166.605 235.278C166.605 235.431 168.869 235.612 172.089 235.716C177.608 235.894 221.675 235.933 221.17 235.759ZM244.814 235.539C245.009 235.617 245.243 235.607 245.333 235.518C245.423 235.428 245.263 235.364 244.977 235.376C244.662 235.389 244.598 235.453 244.814 235.539ZM250.912 235.805C251.011 235.904 251.174 235.904 251.273 235.805C251.372 235.706 251.291 235.625 251.093 235.625C250.894 235.625 250.813 235.706 250.912 235.805Z" fill="#82879E"/>
<path fill-rule="evenodd" clip-rule="evenodd" d="M155.232 18.9867C155.033 18.9867 154.952 19.0677 155.051 19.1668C155.151 19.2657 155.313 19.2657 155.413 19.1668C155.512 19.0677 155.43 18.9867 155.232 18.9867ZM154.239 19.437C154.338 19.5358 154.501 19.5358 154.6 19.437C154.699 19.3378 154.618 19.2568 154.42 19.2568C154.221 19.2568 154.14 19.3378 154.239 19.437ZM152.93 20.3289C153.079 20.3289 153.384 20.2111 153.607 20.0672C153.831 19.9232 153.892 19.8054 153.743 19.8054C153.594 19.8054 153.289 19.9232 153.066 20.0672C152.842 20.2111 152.781 20.3289 152.93 20.3289ZM150.919 22.3094C150.983 22.3573 151.427 21.9939 151.907 21.5021C152.387 21.0099 152.684 20.6074 152.567 20.6074C152.298 20.6074 150.763 22.1925 150.919 22.3094ZM197.295 20.7876C197.394 20.8864 197.557 20.8864 197.656 20.7876C197.755 20.6884 197.674 20.6074 197.476 20.6074C197.277 20.6074 197.196 20.6884 197.295 20.7876ZM248.774 107.317C248.774 111.254 248.812 112.864 248.858 110.896C248.904 108.927 248.904 105.706 248.858 103.737C248.812 101.769 248.774 103.38 248.774 107.317ZM248.782 130.007C248.782 138.104 248.816 141.416 248.858 137.368C248.901 133.319 248.901 126.694 248.858 122.646C248.816 118.597 248.782 121.91 248.782 130.007ZM248.737 147.295C248.737 148.112 248.787 148.446 248.849 148.038C248.911 147.629 248.911 146.961 248.849 146.552C248.787 146.143 248.737 146.478 248.737 147.295ZM248.718 149.996C248.718 150.516 248.774 150.728 248.842 150.469C248.91 150.209 248.91 149.783 248.842 149.523C248.774 149.263 248.718 149.476 248.718 149.996ZM248.791 152.714C248.94 152.714 249.1 152.406 249.147 152.03C249.208 151.543 249.106 151.347 248.791 151.347C248.476 151.347 248.373 151.543 248.435 152.03C248.482 152.406 248.642 152.714 248.791 152.714ZM165.422 235.428C165.576 235.523 165.703 235.424 165.703 235.208C165.703 234.878 165 234.821 161.347 234.858L156.992 234.903L161.066 235.078C163.307 235.175 165.267 235.332 165.422 235.428ZM221.17 235.759C221.021 235.708 209.384 235.595 195.309 235.509C181.235 235.423 169.019 235.277 168.162 235.185C167.226 235.084 166.605 235.121 166.605 235.278C166.605 235.431 168.869 235.612 172.089 235.716C177.608 235.894 221.675 235.933 221.17 235.759ZM244.814 235.539C245.009 235.617 245.243 235.607 245.333 235.518C245.423 235.428 245.263 235.364 244.977 235.376C244.662 235.389 244.598 235.453 244.814 235.539ZM251.093 235.625C250.894 235.625 250.813 235.706 250.912 235.805C251.011 235.904 251.174 235.904 251.273 235.805C251.372 235.706 251.291 235.625 251.093 235.625ZM152.118 237.245C151.299 237.245 150.628 237.124 150.628 236.975C150.628 236.827 151.299 236.705 152.118 236.705C152.937 236.705 153.607 236.827 153.607 236.975C153.607 237.124 152.937 237.245 152.118 237.245ZM156.857 237.636C154.991 237.453 153.885 237.183 154.032 236.946C154.225 236.634 156.504 236.639 159.643 236.959C161.015 237.099 174.807 237.287 190.292 237.378C207.223 237.477 218.509 237.643 218.603 237.794C218.696 237.944 223.737 238.052 230.999 238.061C237.731 238.069 243.24 238.18 243.24 238.307C243.24 238.735 242.013 238.849 237.09 238.878C234.393 238.894 232.104 238.989 232.003 239.089C231.771 239.32 226.632 239.33 226.45 239.1C226.376 239.007 216.688 238.854 204.922 238.761C193.157 238.668 181.58 238.531 179.197 238.455C168.609 238.121 157.726 237.722 156.857 237.636ZM247.129 238.461C246.876 239.117 243.781 238.966 243.781 238.297C243.781 238.164 244.57 238.056 245.533 238.056C246.979 238.056 247.257 238.126 247.129 238.461ZM169.313 239.433C169.313 239.319 169.394 239.145 169.494 239.046C169.852 238.689 222.073 239.107 223.336 239.477C223.634 239.564 224.457 239.644 225.164 239.656C225.878 239.667 226.45 239.804 226.45 239.963C226.45 240.163 223.713 240.205 217.447 240.1C212.494 240.018 199.639 239.88 188.878 239.795C178.117 239.709 169.313 239.546 169.313 239.433Z" fill="#82879E"/>
<path fill-rule="evenodd" clip-rule="evenodd" d="M196.648 20.3592C195.567 21.8727 197.358 23.3875 198.675 22.0739C199.242 21.508 199.211 21.0912 198.539 20.2387C197.809 19.313 197.375 19.3405 196.648 20.3592ZM197.295 20.7876C197.394 20.8864 197.557 20.8864 197.656 20.7876C197.755 20.6884 197.674 20.6074 197.476 20.6074C197.277 20.6074 197.196 20.6884 197.295 20.7876Z" fill="#82879E"/>
<path d="M194.294 23.4966C192.02 23.5896 191.789 23.6479 191.789 24.1293C191.789 24.8294 202.84 25.0517 203.555 24.3659C204.446 23.5115 201.256 23.2122 194.294 23.4966Z" fill="#82879E"/>
<path fill-rule="evenodd" clip-rule="evenodd" d="M190.111 114.184C190.018 114.276 187.826 114.348 185.239 114.343C177.037 114.326 175.033 116.18 176.06 122.835C176.33 124.581 176.638 128.167 176.746 130.802C176.863 133.66 177.073 135.681 177.268 135.81C177.447 135.929 177.683 136.267 177.792 136.56C177.9 136.854 178.369 137.261 178.834 137.465C179.299 137.668 179.768 137.96 179.876 138.113C180.042 138.346 186.225 138.54 208.269 139.004C212.395 139.091 215.696 137.137 216.144 134.343C216.357 133.015 215.851 124.011 215.403 121.154C215.246 120.152 215.116 118.646 215.115 117.807C215.113 116.605 214.967 116.154 214.428 115.684C212.834 114.294 212.78 114.289 201.892 114.364C196.199 114.404 191.257 114.341 190.911 114.225C190.564 114.109 190.204 114.091 190.111 114.184ZM214.6 132.536C215.083 128.738 213.613 116.8 212.583 116.155C211.946 115.756 182.536 115.397 180.498 115.763C179.301 115.978 179.134 116.896 179.54 121.029C179.743 123.101 180.063 126.459 180.25 128.491C180.438 130.523 180.694 132.287 180.82 132.411C180.945 132.536 181.048 133.027 181.048 133.505C181.048 134.648 181.607 134.833 185.762 135.061C187.602 135.162 189.655 135.402 190.324 135.595C191.106 135.82 192.353 135.867 193.821 135.726C195.076 135.606 199.319 135.46 203.251 135.403C203.727 135.396 204.183 135.39 204.619 135.384C211.628 135.285 213.549 135.258 214.184 134.342C214.424 133.996 214.481 133.524 214.559 132.873C214.572 132.766 214.585 132.653 214.6 132.536ZM183.762 121.088C183.233 121.832 183.287 129.501 183.822 129.501C183.969 129.501 184.089 129.688 184.089 129.917C184.089 130.516 186.076 130.755 188.211 130.413C191.454 129.894 192.169 128.157 190.039 125.969C189.088 124.991 189.042 124.851 189.346 123.864C190.075 121.492 185.199 119.067 183.762 121.088ZM194.303 121.685C193.083 125.979 193.164 127.327 194.734 128.894C196.961 131.116 199.125 130.45 200.57 127.098C201.279 125.453 201.392 122.747 200.778 122.134C199.982 121.339 199.601 121.88 199.601 123.807C199.601 125.82 198.598 127.68 197.512 127.68C196.704 127.68 195.951 125.802 195.951 123.784C195.951 122.057 195.607 121.306 194.816 121.306C194.593 121.306 194.363 121.477 194.303 121.685ZM203.565 121.893C203.169 122.632 203.159 123.642 203.546 123.88C204.163 124.261 205.075 126.903 205.075 128.307C205.075 129.951 205.374 130.306 206.28 129.742C206.766 129.438 206.9 129.036 206.9 127.875C206.9 126.454 206.973 126.328 208.729 124.72C210.176 123.395 210.485 122.959 210.212 122.631C209.61 121.907 208.613 122.167 207.724 123.279C206.547 124.751 205.075 124.069 205.075 122.05C205.075 121.844 204.859 121.591 204.594 121.49C203.925 121.234 203.918 121.236 203.565 121.893ZM188.193 126.555C189.871 127.503 189.985 128.286 188.445 128.291C187.806 128.293 186.988 128.374 186.628 128.47C185.85 128.679 185.475 127.868 185.783 126.643C186.025 125.678 186.604 125.657 188.193 126.555ZM185.85 123.518C186.018 124.165 187.131 123.388 187.131 122.625C187.131 122.11 186.009 122.085 185.837 122.596C185.767 122.805 185.772 123.22 185.85 123.518Z" fill="#82879E"/>
<path fill-rule="evenodd" clip-rule="evenodd" d="M51.9503 49.9006V40.3343H56.8506C58.8586 40.3343 60.5534 39.6563 61.9351 38.3193L62.2667 37.9804C64.7905 35.2121 64.6247 30.8997 61.9351 28.3387C60.5903 26.9828 58.7481 26.2484 56.8506 26.286H48.9844V49.9006H51.9503ZM51.9495 37.4343V29.1861H56.9243C57.9929 29.1861 59.0063 29.6004 59.7617 30.3537C61.3647 31.9355 61.4015 34.5719 59.8539 36.2102C59.0984 37.02 58.0298 37.4719 56.9243 37.4343H51.9495ZM76.1008 35.0049C74.8297 33.8186 73.098 33.216 70.9058 33.216C68.0872 33.216 65.9687 34.2705 64.5686 36.3608L67.1845 38.0368C68.1425 36.6056 69.4504 35.89 71.1084 35.89C72.1585 35.89 73.1717 36.2855 73.9638 37.0011C74.7376 37.679 75.1797 38.6582 75.1797 39.694V40.3907C74.0375 39.7504 72.6006 39.4115 70.8321 39.4115C68.7688 39.4115 67.1108 39.9011 65.8766 40.8992C64.6423 41.8972 64.0159 43.2154 64.0159 44.8914C63.9791 46.4168 64.6239 47.8668 65.766 48.846C66.9266 49.9006 68.4004 50.4279 70.132 50.4279C72.1769 50.4279 73.798 49.5051 75.0323 47.6596H75.1613V49.9006H77.9983V39.9388C77.9983 37.8485 77.3719 36.1913 76.1008 35.0049ZM68.051 46.9252C67.443 46.4733 67.0745 45.7388 67.0745 44.9479C67.0745 44.0629 67.4799 43.3284 68.2721 42.7447C69.0828 42.1609 70.0962 41.8596 71.2938 41.8596C72.9521 41.8407 74.2418 42.2174 75.1631 42.9706C75.1631 44.2512 74.6656 45.3622 73.6891 46.3038C72.8047 47.2077 71.6071 47.7161 70.3542 47.7161C69.525 47.735 68.7143 47.4525 68.051 46.9252ZM84.374 57.0001L94.2851 33.7433H91.0612L86.4741 45.3434H86.4189L81.7213 33.7433H78.4974L85.0004 48.8649L81.316 57.0001H84.374Z" fill="#3C4043"/>
<path d="M41.714 38.2626C41.714 37.3398 41.6403 36.4171 41.4929 35.5132H28.9844V40.7295H36.1505C35.8558 42.4055 34.8978 43.912 33.4978 44.8536V48.2432H37.7717C40.2771 45.8893 41.714 42.4055 41.714 38.2626Z" fill="#4285F4"/>
<path d="M28.986 51.5199C32.5599 51.5199 35.5811 50.3147 37.7733 48.2433L33.4994 44.8536C32.302 45.6822 30.7729 46.153 28.986 46.153C25.5227 46.153 22.5935 43.7614 21.5435 40.5601H17.1406V44.0627C19.3881 48.6387 23.9752 51.5199 28.986 51.5199Z" fill="#34A853"/>
<path d="M21.5417 40.5597C20.989 38.8837 20.989 37.0571 21.5417 35.3622V31.8784H17.1382C15.2404 35.7012 15.2404 40.2207 17.1382 44.0435L21.5417 40.5597Z" fill="#FBBC04"/>
<path d="M28.986 29.7696C30.8835 29.732 32.7072 30.4664 34.0705 31.8034L37.8654 27.9241C35.4521 25.6267 32.2835 24.365 28.986 24.4027C23.9752 24.4027 19.3881 27.3027 17.1406 31.8787L21.5435 35.3814C22.5935 32.1612 25.5227 29.7696 28.986 29.7696Z" fill="#EA4335"/>
<path fill-rule="evenodd" clip-rule="evenodd" d="M308.183 186.248C307.411 187.187 306.176 187.927 304.94 187.821C304.786 186.552 305.391 185.204 306.098 184.371C306.871 183.407 308.222 182.719 309.316 182.667C309.445 183.988 308.943 185.283 308.183 186.248ZM309.303 188.072C308.215 188.008 307.221 188.408 306.419 188.732C305.903 188.94 305.466 189.116 305.133 189.116C304.76 189.116 304.305 188.931 303.794 188.722L303.794 188.722C303.124 188.449 302.358 188.136 301.555 188.151C299.715 188.178 298.003 189.248 297.064 190.953C295.133 194.363 296.562 199.412 298.428 202.188C299.342 203.562 300.436 205.069 301.877 205.016C302.511 204.991 302.967 204.793 303.44 204.587C303.983 204.35 304.548 204.104 305.429 204.104C306.28 204.104 306.82 204.344 307.339 204.574C307.831 204.792 308.305 205.003 309.007 204.99C310.5 204.963 311.44 203.615 312.353 202.241C313.34 200.765 313.773 199.325 313.839 199.107L313.846 199.082C313.845 199.08 313.833 199.074 313.811 199.064L313.811 199.064L313.811 199.064C313.481 198.909 310.962 197.725 310.938 194.548C310.913 191.882 312.936 190.531 313.255 190.319C313.274 190.306 313.287 190.297 313.293 190.293C312.006 188.336 309.998 188.125 309.303 188.072ZM319.638 204.844V184.239H327.167C331.053 184.239 333.769 186.989 333.769 191.006C333.769 195.024 331.002 197.8 327.064 197.8H322.752V204.844H319.638ZM322.751 186.935H326.342C329.045 186.935 330.589 188.416 330.589 191.019C330.589 193.623 329.045 195.117 326.329 195.117H322.751V186.935ZM344.052 202.373C343.229 203.985 341.414 205.003 339.458 205.003C336.562 205.003 334.541 203.232 334.541 200.562C334.541 197.919 336.498 196.399 340.114 196.174L344.001 195.936V194.799C344.001 193.121 342.933 192.209 341.028 192.209C339.458 192.209 338.312 193.042 338.081 194.31H335.275C335.365 191.641 337.81 189.698 341.118 189.698C344.683 189.698 347 191.614 347 194.588V204.844H344.117V202.373H344.052ZM340.294 202.558C338.634 202.558 337.578 201.738 337.578 200.483C337.578 199.188 338.595 198.434 340.538 198.315L344 198.091V199.254C344 201.183 342.405 202.558 340.294 202.558ZM356.563 205.65C355.314 209.259 353.886 210.448 350.849 210.448C350.617 210.448 349.845 210.422 349.664 210.369V207.897C349.858 207.924 350.334 207.95 350.578 207.95C351.955 207.95 352.728 207.355 353.204 205.809L353.487 204.897L348.21 189.896H351.466L355.134 202.069H355.199L358.867 189.896H362.033L356.563 205.65Z" fill="black"/>
<g clip-path="url(#clip0_3407_24100)">
<path d="M94.8553 127.247C86.0197 127.247 78.9737 134.273 78.9737 143C78.9737 151.727 86.1316 158.753 94.8553 158.753C103.579 158.753 110.737 151.727 110.737 143C110.849 134.273 103.579 127.247 94.8553 127.247ZM94.8553 148.78C91.6118 148.78 88.8158 146.173 88.8158 143C88.8158 139.827 91.5 137.22 94.8553 137.22C98.2105 137.22 100.895 139.827 100.895 143C100.671 146.173 98.2105 148.78 94.8553 148.78ZM78.8618 131.893V154.9H73.2697L66 131.893H78.8618Z" fill="#8B3FFD"/>
</g>
<g clip-path="url(#clip1_3407_24100)">
<path d="M396.017 77.294V78.2251C395.066 77.441 393.87 77 392.626 77C389.551 77 387.038 79.6953 387.038 83.0031C387.038 86.3109 389.527 89.0061 392.626 89.0061C393.87 89.0061 395.066 88.5651 396.017 87.781V88.8101H398.579V77.294H396.017ZM392.918 86.7519C391.064 86.7519 389.551 85.0858 389.551 83.0031C389.551 80.9204 391.064 79.2787 392.918 79.2787C394.773 79.2787 396.286 80.9449 396.286 83.0276C396.286 85.1103 394.773 86.7519 392.918 86.7519ZM380.01 77C378.766 77 377.546 77.441 376.594 78.2741V77.294H374.008V93H376.57V87.7565C377.521 88.5651 378.741 89.0061 379.986 89.0306C383.06 89.0306 385.574 86.3354 385.574 83.0276C385.574 79.7198 383.109 77 380.01 77ZM379.717 86.7519C377.863 86.7519 376.35 85.0858 376.35 83.0031C376.35 80.9204 377.863 79.2542 379.717 79.2542C381.572 79.2542 383.085 80.9204 383.085 83.0031C383.085 85.0858 381.572 86.7519 379.717 86.7519ZM409.487 77.294L406.193 85.1348L402.679 77.294H400.141L404.972 88.075L402.898 93H405.412L412 77.294H409.487ZM357.708 78.8867L357.83 86.4824H357.781L355.56 78.8867H351.973V88.4671H354.34L354.218 80.6018H354.267L356.658 88.4671H360.099V78.8867H357.708ZM312.322 78.8867L310.54 88.5651H313.151L314.469 79.7688H314.518L315.811 88.5651H318.398L316.616 78.8867H312.322ZM326.889 78.8867L325.693 86.2864H325.645L324.473 78.8867H320.52L320.301 88.5651H322.717L322.765 79.8668H322.814L324.449 88.5651H326.889L328.5 79.8668H328.548L328.597 88.5651H331.013L330.793 78.8867H326.889ZM306.49 85.8208C306.563 86.0658 306.563 86.3109 306.514 86.5559C306.441 86.8744 306.221 87.193 305.563 87.193C304.953 87.193 304.587 86.8499 304.587 86.3109V85.3553H302V86.0904C302 88.2466 303.684 88.9081 305.514 88.9081C307.271 88.9081 308.686 88.3201 308.93 86.7029C309.028 86.1639 309.028 85.6493 308.93 85.1103C308.515 83.0766 304.855 82.4885 304.587 81.3369C304.562 81.1654 304.562 80.9939 304.587 80.8224C304.66 80.5038 304.855 80.1608 305.465 80.1608C305.929 80.1118 306.319 80.4548 306.368 80.8959C306.368 80.9449 306.368 80.9939 306.368 81.0429V81.6309H308.783V80.9449C308.783 78.8377 306.905 78.4946 305.538 78.4946C303.83 78.4946 302.415 79.0582 302.171 80.6508C302.073 81.0919 302.073 81.5329 302.171 81.974C302.561 84.0077 305.977 84.5712 306.49 85.8208ZM337.821 85.8208C337.894 86.0413 337.894 86.2864 337.845 86.5314C337.772 86.8499 337.552 87.1685 336.918 87.1685C336.332 87.1685 335.966 86.8254 335.966 86.3109V85.3798H333.404V86.1149C333.404 88.2466 335.088 88.8836 336.869 88.8836C338.602 88.8836 340.017 88.2956 340.236 86.7029C340.334 86.1884 340.334 85.6493 340.236 85.1348C339.822 83.1501 336.186 82.5375 335.942 81.4104C335.917 81.2389 335.917 81.0919 335.942 80.9204C336.015 80.6018 336.21 80.2833 336.82 80.2833C337.26 80.2343 337.674 80.5773 337.699 81.0184C337.699 81.0674 337.699 81.0919 337.699 81.1409V81.7289H340.066V81.0429C340.066 78.9602 338.211 78.6172 336.845 78.6172C335.137 78.6172 333.77 79.1807 333.502 80.7489C333.429 81.1654 333.429 81.6064 333.526 82.0475C333.941 84.0077 337.333 84.5712 337.821 85.8208ZM345.922 87.0949C346.361 87.144 346.752 86.8254 346.849 86.4089C346.874 86.2864 346.874 86.1639 346.874 86.0413V78.8867H349.314V85.8208C349.314 85.9923 349.289 86.3599 349.289 86.4579C349.118 88.2711 347.703 88.8591 345.922 88.8591C344.141 88.8591 342.725 88.2711 342.555 86.4579C342.555 86.3599 342.53 85.9923 342.53 85.8208V78.8867H344.97V86.0413C344.97 86.1639 344.97 86.2864 344.995 86.4089C345.092 86.8499 345.483 87.144 345.922 87.0949ZM366.028 86.9969C366.736 86.9969 366.98 86.5559 367.004 86.3109C367.029 86.1884 367.029 86.0658 367.029 85.9433V84.5467H366.053V83.1256H369.469V85.7228C369.469 85.8943 369.469 86.0413 369.445 86.3599C369.298 88.124 367.761 88.7611 366.053 88.7611C364.345 88.7611 362.832 88.124 362.661 86.3599C362.637 86.0413 362.637 85.8943 362.637 85.7228V81.6309C362.637 81.4104 362.661 81.2144 362.685 80.9939C362.905 79.1807 364.369 78.5926 366.077 78.5926C367.785 78.5926 369.274 79.1562 369.469 80.9939C369.493 81.2144 369.493 81.4104 369.493 81.6309V81.9495H367.053V81.4104C367.053 81.2879 367.053 81.1654 367.029 81.0429C366.98 80.8224 366.809 80.3323 366.053 80.3323C365.589 80.2833 365.199 80.6018 365.101 81.0429C365.077 81.1899 365.052 81.3369 365.052 81.5084V85.9433C365.052 86.0658 365.052 86.1884 365.077 86.3109C365.077 86.5559 365.321 86.9969 366.028 86.9969Z" fill="#034EA2"/>
</g>
<defs>
<clipPath id="clip0_3407_24100">
<rect width="45" height="32" fill="white" transform="translate(66 127)"/>
</clipPath>
<clipPath id="clip1_3407_24100">
<rect width="110" height="16" fill="white" transform="translate(302 77)"/>
</clipPath>
</defs>
</svg>
