<svg width="24" height="24" viewBox="0 0 24 24" fill="none" xmlns="http://www.w3.org/2000/svg">
<path fill-rule="evenodd" clip-rule="evenodd" d="M2.00018 5C2.00018 4.44772 2.44614 4 2.99627 4H20.9258C21.4759 4 21.9219 4.44772 21.9219 5C21.9219 5.55228 21.4759 6 20.9258 6H2.99627C2.44614 6 2.00018 5.55228 2.00018 5ZM2.68866 14.2444C2.26168 14.2444 1.92188 13.9033 1.92188 13.4746V9.3898C1.92188 8.96114 2.26168 8.62 2.68866 8.62H5.5781C5.9756 8.62 6.29329 8.93894 6.29329 9.338C6.29329 9.73706 5.9756 10.056 5.5781 10.056H3.45545V10.7586H5.24641C5.6439 10.7586 5.9616 11.0775 5.9616 11.4766C5.9616 11.8757 5.6439 12.1946 5.24641 12.1946H3.45545V13.4746C3.45545 13.9033 3.11564 14.2444 2.68866 14.2444ZM10.6935 12.1899C10.9322 12.0562 11.1373 11.8798 11.2931 11.6544C11.4992 11.3563 11.6096 10.9858 11.6096 10.5442V10.5294C11.6096 9.99767 11.4402 9.53644 11.109 9.20398C10.7223 8.81568 10.1566 8.62 9.46448 8.62H7.67332C7.24634 8.62 6.90653 8.96114 6.90653 9.3898V13.4746C6.90653 13.9033 7.24634 14.2444 7.67332 14.2444C8.1003 14.2444 8.4401 13.9033 8.4401 13.4746V12.5424H9.05098L10.0963 13.8717C10.2533 14.0729 10.4754 14.2444 10.8134 14.2444C11.1777 14.2444 11.5507 13.9653 11.5507 13.519C11.5507 13.2718 11.4414 13.1084 11.3235 12.9585L10.6935 12.1899ZM8.4401 10.0486V11.136H9.39077C9.63321 11.136 9.79987 11.0712 9.90278 10.982C10.0026 10.8955 10.0613 10.77 10.0613 10.6034V10.5886C10.0613 10.395 9.99668 10.2715 9.89724 10.1914C9.79104 10.1059 9.61854 10.0486 9.36866 10.0486H8.4401ZM16.0443 14.2H13.1475C12.7205 14.2 12.3807 13.8589 12.3807 13.4302V9.3898C12.3807 8.96114 12.7205 8.62 13.1475 8.62H16.0074C16.3975 8.62 16.7152 8.93894 16.7152 9.3306C16.7152 9.72605 16.3937 10.0338 16.0074 10.0338H13.9069V10.6846H15.6757C16.0658 10.6846 16.3835 11.0035 16.3835 11.3952C16.3835 11.7906 16.062 12.0984 15.6757 12.0984H13.9069V12.7862H16.0443C16.4344 12.7862 16.7521 13.1051 16.7521 13.4968C16.7521 13.8922 16.4306 14.2 16.0443 14.2ZM21.1297 14.2H18.2329C17.8059 14.2 17.4661 13.8589 17.4661 13.4302V9.3898C17.4661 8.96114 17.8059 8.62 18.2329 8.62H21.0928C21.483 8.62 21.8007 8.93894 21.8007 9.3306C21.8007 9.72605 21.4792 10.0338 21.0928 10.0338H18.9923V10.6846H20.7612C21.1513 10.6846 21.469 11.0035 21.469 11.3952C21.469 11.7906 21.1475 12.0984 20.7612 12.0984H18.9923V12.7862H21.1297C21.5198 12.7862 21.8375 13.1051 21.8375 13.4968C21.8375 13.8922 21.516 14.2 21.1297 14.2ZM2.99627 17C2.44614 17 2.00018 17.4477 2.00018 18C2.00018 18.5523 2.44614 19 2.99627 19H20.9258C21.4759 19 21.9219 18.5523 21.9219 18C21.9219 17.4477 21.4759 17 20.9258 17H2.99627Z" fill="#3E5BF1"/>
</svg>
