<svg width="18" height="18" viewBox="0 0 18 18" fill="none" xmlns="http://www.w3.org/2000/svg">
<path fill-rule="evenodd" clip-rule="evenodd" d="M9 16.5C4.85786 16.5 1.5 13.1421 1.5 9C1.5 4.85786 4.85786 1.5 9 1.5C13.1421 1.5 16.5 4.85786 16.5 9C16.5 13.1421 13.1421 16.5 9 16.5ZM9 3C5.68629 3 3 5.68629 3 9C3 12.3137 5.68629 15 9 15C12.3137 15 15 12.3137 15 9C15 5.68629 12.3137 3 9 3ZM9.00034 5.06802C9.41455 5.06802 9.75034 5.40381 9.75034 5.81802V8.25H12.182C12.5962 8.25 12.932 8.58579 12.932 9C12.932 9.41421 12.5962 9.75 12.182 9.75H9.75034V12.182C9.75034 12.5962 9.41455 12.932 9.00034 12.932C8.58613 12.932 8.25034 12.5962 8.25034 12.182V9.75H5.81802C5.40381 9.75 5.06802 9.41421 5.06802 9C5.06802 8.58579 5.40381 8.25 5.81802 8.25H8.25034V5.81802C8.25034 5.40381 8.58613 5.06802 9.00034 5.06802Z" fill="#1E1F23"/>
</svg>
