<svg width="26" height="24" viewBox="0 0 26 24" fill="none" xmlns="http://www.w3.org/2000/svg">
<path fill-rule="evenodd" clip-rule="evenodd" d="M13.9674 4.55282C13.5682 3.81573 12.4287 3.81573 12.0294 4.55282L4.44927 18.5483C4.08915 19.2132 4.61295 19.9954 5.41826 19.9954H20.5786C21.3839 19.9954 21.9077 19.2132 21.5475 18.5483L13.9674 4.55282ZM12.9946 6.81836C12.2872 6.81836 11.7219 7.38466 11.7501 8.0649L11.9835 13.6806C12.0052 14.2029 12.4515 14.6155 12.9946 14.6155C13.5377 14.6155 13.9839 14.2029 14.0056 13.6806L14.239 8.0649C14.2673 7.38467 13.7019 6.81836 12.9946 6.81836ZM11.504 17.5784C11.504 16.8033 12.1569 16.1749 12.9623 16.1749C13.7677 16.1749 14.4206 16.8033 14.4206 17.5784C14.4206 18.3535 13.7677 18.9819 12.9623 18.9819C12.1569 18.9819 11.504 18.3535 11.504 17.5784Z" fill="white"/>
<path fill-rule="evenodd" clip-rule="evenodd" d="M23.4855 17.6539L15.9054 3.65846C14.7077 1.44719 11.2891 1.44717 10.0915 3.65846L2.51131 17.6539C1.43095 19.6486 3.00233 21.9954 5.41826 21.9954H20.5786C22.9945 21.9954 24.5659 19.6486 23.4855 17.6539ZM12.0294 4.55282C12.4287 3.81573 13.5682 3.81573 13.9674 4.55282L21.5475 18.5483C21.9077 19.2132 21.3839 19.9954 20.5786 19.9954H5.41826C4.61295 19.9954 4.08915 19.2132 4.44927 18.5483L12.0294 4.55282Z" fill="white"/>
</svg>
