<svg width="18" height="18" viewBox="0 0 18 18" fill="none" xmlns="http://www.w3.org/2000/svg">
<path fill-rule="evenodd" clip-rule="evenodd" d="M9.19922 3C5.88551 3 3.19922 5.68629 3.19922 9C3.19922 12.3137 5.88551 15 9.19922 15C12.5129 15 15.1992 12.3137 15.1992 9C15.1992 5.68629 12.5129 3 9.19922 3ZM1.69922 9C1.69922 4.85786 5.05708 1.5 9.19922 1.5C13.3414 1.5 16.6992 4.85786 16.6992 9C16.6992 13.1421 13.3414 16.5 9.19922 16.5C5.05708 16.5 1.69922 13.1421 1.69922 9Z" fill="#82879E"/>
<path fill-rule="evenodd" clip-rule="evenodd" d="M9.19922 5.25C9.61343 5.25 9.94922 5.58579 9.94922 6V9C9.94922 9.41421 9.61343 9.75 9.19922 9.75C8.78501 9.75 8.44922 9.41421 8.44922 9V6C8.44922 5.58579 8.78501 5.25 9.19922 5.25ZM8.44922 12C8.44922 11.5858 8.78501 11.25 9.19922 11.25H9.20672C9.62093 11.25 9.95672 11.5858 9.95672 12C9.95672 12.4142 9.62093 12.75 9.20672 12.75H9.19922C8.78501 12.75 8.44922 12.4142 8.44922 12Z" fill="#82879E"/>
</svg>
