<svg width="22" height="22" viewBox="0 0 22 22" fill="none" xmlns="http://www.w3.org/2000/svg">
<path fill-rule="evenodd" clip-rule="evenodd" d="M10.084 2.72732C10.084 2.2334 9.67358 1.83301 9.16732 1.83301C8.66106 1.83301 8.25065 2.2334 8.25065 2.72732V6.06291L7.86301 6.2394C7.54027 6.38634 7.33398 6.70235 7.33398 7.04981V11.2233H4.58398C4.07772 11.2233 3.66732 11.6236 3.66732 12.1176V18.3777H2.75065C2.24439 18.3777 1.83398 18.7781 1.83398 19.272C1.83398 19.7659 2.24439 20.1663 2.75065 20.1663H19.2507C19.7569 20.1663 20.1673 19.7659 20.1673 19.272C20.1673 18.7781 19.7569 18.3777 19.2507 18.3777H18.334V9.43463C18.334 8.94072 17.9236 8.54033 17.4173 8.54033H13.7507V4.96309C13.7507 4.65744 13.5906 4.37295 13.3264 4.20877C13.0621 4.04458 12.7302 4.02343 12.4463 4.15268L10.084 5.22823V2.72732ZM7.33398 18.3777H5.50065V13.0119H7.33398V18.3777ZM11.9173 18.3777H9.16732V12.1176V7.61936L11.9173 6.36733V9.43463V18.3777ZM16.5007 18.3777H13.7507V10.3289H16.5007V18.3777Z" fill="#82879E"/>
</svg>
