<svg width="20" height="20" viewBox="0 0 20 20" fill="none" xmlns="http://www.w3.org/2000/svg">
<path fill-rule="evenodd" clip-rule="evenodd" d="M11.4185 1.77571C10.4585 1.40224 9.44206 2.00651 9.21389 2.98122L8.02705 2.57081C6.94783 2.19761 5.83333 3.03094 5.83333 4.21108V4.61613L4.64558 4.24648C3.57623 3.91368 2.5 4.74437 2.5 5.90256V13.9527C2.5 15.1109 3.57623 15.9416 4.64558 15.6088L5.83333 15.2391V15.6442C5.83333 16.8243 6.94783 17.6576 8.02705 17.2845L9.18847 16.8828C9.34147 17.859 10.2757 18.5277 11.2376 18.2783L16.2376 16.9815C16.9795 16.7891 17.5 16.0975 17.5 15.3041V5.33974C17.5 4.61902 17.069 3.9739 16.4185 3.72083L11.4185 1.77571ZM7.5 14.0973C7.50029 14.0842 7.50029 14.071 7.5 14.0578V5.79746C7.50029 5.78426 7.50029 5.77108 7.5 5.75795V4.21108L8.90314 4.69628C8.99053 4.7265 9.07934 4.74087 9.16666 4.74088V12.6076V15.1144C9.07934 15.1144 8.99053 15.1288 8.90314 15.159L7.5 15.6442V14.0973ZM5.83333 6.42125V13.434L4.16667 13.9527V5.90256L5.83333 6.42125ZM10.8333 3.39462L15.8333 5.33974V15.3041L10.8333 16.6009V12.6076V3.39462Z" fill="#82879E"/>
</svg>
