<svg width="20" height="20" viewBox="0 0 20 20" fill="none" xmlns="http://www.w3.org/2000/svg">
<path fill-rule="evenodd" clip-rule="evenodd" d="M14.6983 5.3017C14.9912 5.59459 14.9912 6.06947 14.6983 6.36236L10.5316 10.529C10.2387 10.8219 9.76386 10.8219 9.47097 10.529C9.17808 10.2361 9.17808 9.76126 9.47097 9.46837L13.6376 5.3017C13.9305 5.00881 14.4054 5.00881 14.6983 5.3017ZM18.865 5.3017C19.1579 5.59459 19.1579 6.06947 18.865 6.36236L10.5316 14.6957C10.2387 14.9886 9.76386 14.9886 9.47097 14.6957L5.30431 10.529C5.01141 10.2361 5.01141 9.76126 5.30431 9.46837C5.5972 9.17547 6.07207 9.17547 6.36497 9.46837L10.0013 13.1047L17.8043 5.3017C18.0972 5.00881 18.5721 5.00881 18.865 5.3017ZM1.13764 9.46837C1.43053 9.17547 1.90541 9.17547 2.1983 9.46837L6.36497 13.635C6.65786 13.9279 6.65786 14.4028 6.36497 14.6957C6.07207 14.9886 5.5972 14.9886 5.30431 14.6957L1.13764 10.529C0.844745 10.2361 0.844745 9.76126 1.13764 9.46837Z" fill="#3E5BF1"/>
</svg>
