<?xml version="1.0" encoding="utf-8"?>
<!-- Generator: Adobe Illustrator 26.0.3, SVG Export Plug-In . SVG Version: 6.00 Build 0)  -->
<svg version="1.1" id="Слой_1" xmlns="http://www.w3.org/2000/svg" xmlns:xlink="http://www.w3.org/1999/xlink" x="0px" y="0px"
	 viewBox="0 0 22 22" style="enable-background:new 0 0 22 22;" xml:space="preserve">
<style type="text/css">
	.st0{fill-rule:evenodd;clip-rule:evenodd;fill:#3E5BF1;}
</style>
<path class="st0" d="M18.3,10.1c0.5,0,0.9-0.4,0.9-0.9V6.4c0-0.4-0.2-0.7-0.6-0.9l-7.3-2.8c-0.2-0.1-0.4-0.1-0.6,0L3.3,5.6
	C3,5.7,2.8,6,2.8,6.4v2.8c0,0.5,0.4,0.9,0.9,0.9h0.9v7.3H3.7c-0.5,0-0.9,0.4-0.9,0.9c0,0.5,0.4,0.9,0.9,0.9h14.7
	c0.5,0,0.9-0.4,0.9-0.9c0-0.5-0.4-0.9-0.9-0.9h-0.9v-7.3H18.3z M8.2,17.4H6.4v-7.3h1.8V17.4z M11.9,17.4h-1.8v-7.3h1.8V17.4z
	 M15.6,17.4h-1.8v-7.3h1.8V17.4z M4.6,8.2V7L11,4.7L17.4,7v1.2H4.6z"/>
</svg>
