<svg width="18" height="18" viewBox="0 0 18 18" fill="none" xmlns="http://www.w3.org/2000/svg">
<path fill-rule="evenodd" clip-rule="evenodd" d="M7.05004 10.4248C6.71867 10.1763 6.65152 9.70618 6.90004 9.37481C7.14857 9.04343 7.61867 8.97628 7.95004 9.2248L8.25004 9.44981L8.25 7.0498C8.25 6.63559 8.58579 6.2998 9 6.2998C9.41421 6.2998 9.75 6.63559 9.75 7.0498L9.75004 9.44981L10.05 9.2248C10.3814 8.97628 10.8515 9.04343 11.1 9.37481C11.3486 9.70618 11.2814 10.1763 10.95 10.4248L9.45004 11.5498C9.3167 11.6498 9.15835 11.6998 9 11.6998C8.84168 11.6998 8.68337 11.6498 8.55004 11.5498L7.05004 10.4248Z" fill="#C1C3D1"/>
<path fill-rule="evenodd" clip-rule="evenodd" d="M9.00078 14.6998C12.1488 14.6998 14.7008 12.1478 14.7008 8.9998C14.7008 5.85178 12.1488 3.2998 9.00078 3.2998C5.85276 3.2998 3.30078 5.85178 3.30078 8.9998C3.30078 12.1478 5.85276 14.6998 9.00078 14.6998ZM9.00078 16.1998C12.9772 16.1998 16.2008 12.9763 16.2008 8.9998C16.2008 5.02335 12.9772 1.7998 9.00078 1.7998C5.02433 1.7998 1.80078 5.02335 1.80078 8.9998C1.80078 12.9763 5.02433 16.1998 9.00078 16.1998Z" fill="#C1C3D1"/>
</svg>
