<svg width="20" height="20" viewBox="0 0 20 20" fill="none" xmlns="http://www.w3.org/2000/svg">
<path fill-rule="evenodd" clip-rule="evenodd" d="M4.16667 5.0415C3.72944 5.0415 3.375 5.39595 3.375 5.83317V14.1665C3.375 14.6037 3.72944 14.9582 4.16667 14.9582H15.8333C16.2706 14.9582 16.625 14.6037 16.625 14.1665V5.83317C16.625 5.39595 16.2706 5.0415 15.8333 5.0415H4.16667ZM1.625 5.83317C1.625 4.42945 2.76294 3.2915 4.16667 3.2915H15.8333C17.2371 3.2915 18.375 4.42945 18.375 5.83317V14.1665C18.375 15.5702 17.2371 16.7082 15.8333 16.7082H4.16667C2.76294 16.7082 1.625 15.5702 1.625 14.1665V5.83317Z" fill="white"/>
<path fill-rule="evenodd" clip-rule="evenodd" d="M1.77205 5.34774C2.04011 4.94565 2.58337 4.837 2.98546 5.10506L10.0001 9.78148L17.0147 5.10506C17.4168 4.837 17.9601 4.94565 18.2281 5.34774C18.4962 5.74983 18.3875 6.29309 17.9855 6.56114L10.4855 11.5611C10.1915 11.7571 9.80864 11.7571 9.51473 11.5611L2.01473 6.56114C1.61264 6.29309 1.50399 5.74983 1.77205 5.34774Z" fill="white"/>
</svg>
