<svg width="40" height="40" viewBox="0 0 40 40" fill="none" xmlns="http://www.w3.org/2000/svg">
<path fill-rule="evenodd" clip-rule="evenodd" d="M19.2978 10.134C20.6053 9.62533 22 10.628 22 12.0767V23.1322V27.9242C22 29.274 20.7772 30.2644 19.5149 29.937L13.5149 28.3809C12.6246 28.15 12 27.3201 12 26.3681V14.4108C12 13.5459 12.5171 12.7718 13.2978 12.4681L19.2978 10.134ZM20 12.0767L14 14.4108L14 26.3681L20 27.9242V23.1322V12.0767ZM17 19.9163C17 19.3433 17.4477 18.8789 18 18.8789C18.5523 18.8789 19 19.3433 19 19.9163C19 20.4892 18.5523 20.9537 18 20.9537C17.4477 20.9537 17 20.4892 17 19.9163ZM24 11.6171C23.4477 11.6171 23 12.0816 23 12.6545C23 13.2274 23.4477 13.6919 24 13.6919H26V22.4176V26.1407H24C23.4477 26.1407 23 26.6051 23 27.1781C23 27.751 23.4477 28.2155 24 28.2155H26C27.1046 28.2155 28 27.2865 28 26.1407V22.4176V13.6919C28 12.546 27.1046 11.6171 26 11.6171H24Z" fill="#82879E"/>
</svg>
