<svg width="17" height="16" viewBox="0 0 17 16" fill="none" xmlns="http://www.w3.org/2000/svg">
<path fill-rule="evenodd" clip-rule="evenodd" d="M1.42084 0.292263C1.50061 0.264289 1.58453 0.25 1.66905 0.25H14.6691C14.7536 0.25 14.8375 0.264289 14.9173 0.292263C15.1693 0.380653 15.3977 0.525558 15.5851 0.715875C15.7725 0.906194 15.9138 1.13688 15.9983 1.39025C16.0828 1.64362 16.1081 1.91297 16.0724 2.17765C16.0367 2.44234 15.9409 2.69533 15.7923 2.91726C15.7717 2.94799 15.7489 2.97715 15.724 3.0045L10.9191 8.28996V15C10.9191 15.2841 10.7586 15.5438 10.5045 15.6708C10.2504 15.7979 9.94632 15.7704 9.71905 15.6L5.71905 12.6C5.5302 12.4584 5.41905 12.2361 5.41905 12V8.28996L0.614098 3.0045C0.589226 2.97715 0.566412 2.94799 0.545842 2.91726C0.397251 2.69533 0.301429 2.44234 0.265716 2.17765C0.230003 1.91297 0.255345 1.64363 0.339804 1.39025C0.424263 1.13687 0.565595 0.906193 0.752975 0.715875C0.940355 0.525557 1.16881 0.380653 1.42084 0.292263ZM1.84189 1.75C1.8349 1.7557 1.82821 1.7618 1.82185 1.76825C1.79508 1.79544 1.77489 1.8284 1.76283 1.86459C1.75076 1.90079 1.74714 1.93927 1.75225 1.97708C1.75569 2.00257 1.76303 2.02731 1.77396 2.05044L6.72401 7.4955C6.84951 7.63355 6.91905 7.81343 6.91905 8V11.625L9.41905 13.5V8C9.41905 7.81343 9.48859 7.63355 9.6141 7.4955L14.5641 2.05044C14.5751 2.02731 14.5824 2.00257 14.5859 1.97708C14.591 1.93927 14.5873 1.90079 14.5753 1.86459C14.5632 1.82839 14.543 1.79544 14.5163 1.76825C14.5099 1.7618 14.5032 1.7557 14.4962 1.75H1.84189Z" fill="#82879E"/>
</svg>
