<svg width="16" height="16" viewBox="0 0 16 16" fill="none" xmlns="http://www.w3.org/2000/svg">
<path fill-rule="evenodd" clip-rule="evenodd" d="M8.0013 15.3334C12.0514 15.3334 15.3346 12.0502 15.3346 8.00008C15.3346 3.94999 12.0514 0.666748 8.0013 0.666748C3.95121 0.666748 0.667969 3.94999 0.667969 8.00008C0.667969 12.0502 3.95121 15.3334 8.0013 15.3334ZM8.80738 3.61342C8.65627 3.43964 8.45983 3.35275 8.21805 3.35275C7.98383 3.35275 7.77227 3.45097 7.58338 3.64741C7.40205 3.84386 7.31138 4.0743 7.31138 4.33875C7.31138 4.58808 7.38694 4.79586 7.53805 4.96208C7.69672 5.1283 7.90072 5.21141 8.15005 5.21141C8.39938 5.21141 8.60716 5.12075 8.77338 4.93941C8.94716 4.75053 9.03405 4.52008 9.03405 4.24808C9.03405 3.99119 8.9585 3.77964 8.80738 3.61342ZM8.62605 6.54875C8.46738 6.32208 8.19916 6.20875 7.82138 6.20875C7.50405 6.20875 7.22072 6.30697 6.97138 6.50341C6.72961 6.6923 6.52938 6.92653 6.37072 7.20608C6.21961 7.47808 6.12138 7.73497 6.07605 7.97675L6.68805 8.15808C6.85427 7.56119 7.03561 7.26275 7.23205 7.26275C7.35294 7.26275 7.41338 7.36097 7.41338 7.55741C7.41338 7.80675 7.35672 8.30164 7.24338 9.04208C7.10738 9.90341 7.03938 10.5041 7.03938 10.8441C7.03938 11.2747 7.11872 11.5959 7.27738 11.8074C7.44361 12.019 7.72694 12.1247 8.12738 12.1247C8.44472 12.1247 8.72427 12.0303 8.96605 11.8414C9.20783 11.645 9.40427 11.4107 9.55538 11.1387C9.7065 10.8667 9.80472 10.6061 9.85005 10.3567L9.23805 10.1754C9.07183 10.7723 8.88672 11.0707 8.68272 11.0707C8.56938 11.0707 8.51272 10.9725 8.51272 10.7761C8.51272 10.6476 8.53538 10.4172 8.58072 10.0847C8.62605 9.74475 8.65627 9.52564 8.67138 9.42741C8.6865 9.29897 8.72427 9.00808 8.78472 8.55475C8.84516 8.09386 8.87538 7.75008 8.87538 7.52341C8.87538 7.1003 8.79227 6.77541 8.62605 6.54875Z" fill="#C1C3D1"/>
</svg>
