<svg width="22" height="22" viewBox="0 0 22 22" fill="none" xmlns="http://www.w3.org/2000/svg">
<path fill-rule="evenodd" clip-rule="evenodd" d="M3.66732 4.08395C3.66732 3.83561 3.87218 3.63407 4.12565 3.63407H14.0594C13.8614 4.04347 13.7507 4.50146 13.7507 4.98486V17.4601L12.311 16.3085C11.5099 15.6676 10.3281 15.8033 9.69907 16.6085L8.67171 17.9234L7.51257 16.5873C6.81376 15.7817 5.56194 15.739 4.80786 16.4949L3.66732 17.6381V11.0441V4.08395ZM16.5007 1.83301V1.86493C16.6503 1.84389 16.8034 1.83301 16.959 1.83301C18.7309 1.83301 20.1673 3.24414 20.1673 4.98486V10.7581C20.1673 11.2997 19.7203 11.7388 19.169 11.7388H15.584V19.1817C15.584 20.0097 14.6055 20.4666 13.9519 19.9438L13.9519 19.9438L11.1534 17.7051L9.78109 19.4615C9.24835 20.1434 8.21138 20.1695 7.64384 19.5153L6.11722 17.7555L4.19101 19.6863L3.5473 19.0666L4.19101 19.6863C3.3289 20.5505 1.83398 19.9509 1.83398 18.7409V11.0441V4.08395C1.83398 2.84025 2.86034 1.83301 4.12565 1.83301H16.5007ZM18.334 4.98486V9.93777H15.584V4.98486C15.584 4.23884 16.1996 3.63407 16.959 3.63407C17.7184 3.63407 18.334 4.23884 18.334 4.98486ZM6.41732 9.03724C5.91106 9.03724 5.50065 9.44042 5.50065 9.93777C5.50065 10.4351 5.91106 10.8383 6.41732 10.8383H11.0007C11.5069 10.8383 11.9173 10.4351 11.9173 9.93777C11.9173 9.44042 11.5069 9.03724 11.0007 9.03724H6.41732ZM5.50065 13.5399C5.50065 13.0425 5.91106 12.6394 6.41732 12.6394H11.0007C11.5069 12.6394 11.9173 13.0425 11.9173 13.5399C11.9173 14.0372 11.5069 14.4404 11.0007 14.4404H6.41732C5.91106 14.4404 5.50065 14.0372 5.50065 13.5399ZM6.41732 5.43512C5.91106 5.43512 5.50065 5.83831 5.50065 6.33565C5.50065 6.833 5.91106 7.23618 6.41732 7.23618H11.0007C11.5069 7.23618 11.9173 6.833 11.9173 6.33565C11.9173 5.83831 11.5069 5.43512 11.0007 5.43512H6.41732Z" fill="#82879E"/>
</svg>
