<svg width="22" height="22" viewBox="0 0 22 22" fill="none" xmlns="http://www.w3.org/2000/svg">
<path fill-rule="evenodd" clip-rule="evenodd" d="M15.6825 11.1484L11.0428 17.1599L6.37138 11.1709C5.6057 9.81733 5.5239 8.20313 6.14909 6.78446C7.96044 2.67418 14.04 2.65834 15.8754 6.76862C16.5062 8.18109 16.4352 9.7928 15.6825 11.1484ZM17.3813 12.0153L12.1429 19.1048L12.1422 19.1061L12.0914 19.1976L11.6 19.8515C11.3558 20.2914 10.6993 20.2939 10.4516 19.856L10.0104 19.2057L9.9589 19.1145L9.95815 19.1132L4.67963 12.051C3.63502 10.2043 3.52342 8.00202 4.37636 6.06653C6.85026 0.452813 15.1432 0.440479 17.6446 6.04201C18.5046 7.96795 18.4082 10.1657 17.3813 12.0153ZM12.0055 8.60016C12.0068 9.10972 11.577 9.52386 11.0455 9.52516C10.5141 9.52646 10.0823 9.11444 10.081 8.60488C10.0798 8.09532 10.5096 7.68119 11.041 7.67988C11.5724 7.67858 12.0043 8.09061 12.0055 8.60016ZM13.93 8.59545C13.9338 10.1241 12.6444 11.3665 11.0501 11.3704C9.45574 11.3743 8.16025 10.1383 8.15651 8.60959C8.15276 7.08092 9.44217 5.83852 11.0365 5.83461C12.6308 5.83071 13.9263 7.06678 13.93 8.59545Z" fill="#82879E"/>
</svg>
