<svg width="20" height="20" viewBox="0 0 20 20" fill="none" xmlns="http://www.w3.org/2000/svg">
<path fill-rule="evenodd" clip-rule="evenodd" d="M10 6.83398C9.17157 6.83398 8.5 7.50556 8.5 8.33398C8.5 9.16241 9.17157 9.83398 10 9.83398C10.8284 9.83398 11.5 9.16241 11.5 8.33398C11.5 7.50556 10.8284 6.83398 10 6.83398ZM6.5 8.33398C6.5 6.40099 8.067 4.83398 10 4.83398C11.933 4.83398 13.5 6.40099 13.5 8.33398C13.5 10.267 11.933 11.834 10 11.834C8.067 11.834 6.5 10.267 6.5 8.33398Z" fill="black"/>
<path fill-rule="evenodd" clip-rule="evenodd" d="M4.5795 2.91251C6.01728 1.47473 7.96732 0.666992 10.0007 0.666992C12.034 0.666992 13.984 1.47473 15.4218 2.91251C16.8596 4.35029 17.6673 6.30033 17.6673 8.33366C17.6673 9.1926 17.5762 9.95771 17.3347 10.6864C17.0916 11.4196 16.7129 12.0662 16.1976 12.709C16.1896 12.7191 16.1814 12.7289 16.173 12.7386L10.7563 18.9886C10.5664 19.2078 10.2907 19.3337 10.0007 19.3337C9.71063 19.3337 9.4349 19.2078 9.24496 18.9886L3.8283 12.7386C3.8199 12.7289 3.81169 12.7191 3.80367 12.709C3.28842 12.0662 2.90968 11.4196 2.66665 10.6864C2.4251 9.95771 2.33398 9.1926 2.33398 8.33366C2.33398 6.30033 3.14172 4.35029 4.5795 2.91251ZM10.0007 2.66699C8.49776 2.66699 7.05642 3.26401 5.99371 4.32672C4.93101 5.38943 4.33398 6.83077 4.33398 8.33366C4.33398 9.05138 4.41037 9.59044 4.56507 10.0571C4.7168 10.5149 4.95976 10.9509 5.35267 11.4437L10.0007 16.8068L14.6486 11.4437C15.0415 10.9509 15.2845 10.5149 15.4362 10.0571C15.5909 9.59044 15.6673 9.05138 15.6673 8.33366C15.6673 6.83077 15.0703 5.38943 14.0076 4.32672C12.9449 3.26401 11.5035 2.66699 10.0007 2.66699Z" fill="black"/>
</svg>
