<svg width="18" height="18" viewBox="0 0 18 18" fill="none" xmlns="http://www.w3.org/2000/svg">
<path fill-rule="evenodd" clip-rule="evenodd" d="M9 2.75C5.54822 2.75 2.75 5.54822 2.75 9C2.75 12.4518 5.54822 15.25 9 15.25C12.4518 15.25 15.25 12.4518 15.25 9C15.25 5.54822 12.4518 2.75 9 2.75ZM1.75 9C1.75 4.99594 4.99594 1.75 9 1.75C13.0041 1.75 16.25 4.99594 16.25 9C16.25 13.0041 13.0041 16.25 9 16.25C4.99594 16.25 1.75 13.0041 1.75 9Z" fill="#FCCB4D"/>
<path fill-rule="evenodd" clip-rule="evenodd" d="M6.25 7.5C6.25 7.22386 6.47386 7 6.75 7H6.7575C7.03364 7 7.2575 7.22386 7.2575 7.5C7.2575 7.77614 7.03364 8 6.7575 8H6.75C6.47386 8 6.25 7.77614 6.25 7.5Z" fill="#FCCB4D"/>
<path fill-rule="evenodd" clip-rule="evenodd" d="M10.75 7.5C10.75 7.22386 10.9739 7 11.25 7H11.2575C11.5336 7 11.7575 7.22386 11.7575 7.5C11.7575 7.77614 11.5336 8 11.2575 8H11.25C10.9739 8 10.75 7.77614 10.75 7.5Z" fill="#FCCB4D"/>
<path fill-rule="evenodd" clip-rule="evenodd" d="M6.77507 10.8929C6.97232 10.6996 7.28888 10.7028 7.48214 10.9001C7.68 11.102 7.91616 11.2624 8.17679 11.372C8.43743 11.4815 8.71729 11.5379 9 11.5379C9.28271 11.5379 9.56258 11.4815 9.82321 11.372C10.0838 11.2624 10.32 11.102 10.5179 10.9001C10.7111 10.7028 11.0277 10.6996 11.2249 10.8929C11.4222 11.0861 11.4254 11.4027 11.2321 11.5999C10.9412 11.8969 10.5939 12.1328 10.2106 12.2939C9.82732 12.4549 9.41575 12.5379 9 12.5379C8.58425 12.5379 8.17268 12.4549 7.7894 12.2939C7.40612 12.1328 7.05882 11.8969 6.76786 11.5999C6.5746 11.4027 6.57783 11.0861 6.77507 10.8929Z" fill="#FCCB4D"/>
</svg>
