<svg width="16" height="16" viewBox="0 0 16 16" fill="none" xmlns="http://www.w3.org/2000/svg">
<path fill-rule="evenodd" clip-rule="evenodd" d="M8 2.5C4.96243 2.5 2.5 4.96243 2.5 8C2.5 11.0376 4.96243 13.5 8 13.5C11.0376 13.5 13.5 11.0376 13.5 8C13.5 4.96243 11.0376 2.5 8 2.5ZM1.5 8C1.5 4.41015 4.41015 1.5 8 1.5C11.5899 1.5 14.5 4.41015 14.5 8C14.5 11.5899 11.5899 14.5 8 14.5C4.41015 14.5 1.5 11.5899 1.5 8Z" fill="#4CAF50"/>
<path fill-rule="evenodd" clip-rule="evenodd" d="M5.5 6C5.5 5.72386 5.72386 5.5 6 5.5H6.00667C6.28281 5.5 6.50667 5.72386 6.50667 6C6.50667 6.27614 6.28281 6.5 6.00667 6.5H6C5.72386 6.5 5.5 6.27614 5.5 6Z" fill="#4CAF50"/>
<path fill-rule="evenodd" clip-rule="evenodd" d="M9.5 6C9.5 5.72386 9.72386 5.5 10 5.5H10.0067C10.2828 5.5 10.5067 5.72386 10.5067 6C10.5067 6.27614 10.2828 6.5 10.0067 6.5H10C9.72386 6.5 9.5 6.27614 9.5 6Z" fill="#4CAF50"/>
<path fill-rule="evenodd" clip-rule="evenodd" d="M4.83203 8.66675C4.83203 8.39061 5.05589 8.16675 5.33203 8.16675H10.6654C10.9415 8.16675 11.1654 8.39061 11.1654 8.66675C11.1654 9.5066 10.8317 10.3121 10.2379 10.9059C9.644 11.4998 8.83855 11.8334 7.9987 11.8334C7.15885 11.8334 6.35339 11.4998 5.75953 10.9059C5.16566 10.3121 4.83203 9.5066 4.83203 8.66675ZM5.89051 9.16675C5.98245 9.55437 6.18034 9.91252 6.46663 10.1988C6.87296 10.6051 7.42406 10.8334 7.9987 10.8334C8.57333 10.8334 9.12443 10.6051 9.53076 10.1988C9.81705 9.91252 10.0149 9.55437 10.1069 9.16675H5.89051Z" fill="#4CAF50"/>
</svg>
