<svg width="24" height="24" viewBox="0 0 24 24" fill="none" xmlns="http://www.w3.org/2000/svg">
<g clip-path="url(#clip0_3408_21286)">
<path fill-rule="evenodd" clip-rule="evenodd" d="M20.4498 3.53549C20.7445 3.83024 20.8255 4.27692 20.6531 4.6564L13.582 20.2127C13.3943 20.6257 12.9522 20.8606 12.505 20.785C12.0577 20.7094 11.7174 20.3422 11.6758 19.8906L11.076 13.3711L4.03624 12.3023C3.59861 12.2359 3.25673 11.8896 3.19584 11.4512C3.13496 11.0128 3.36957 10.5865 3.77254 10.4033L19.3289 3.33223C19.7084 3.15974 20.155 3.24074 20.4498 3.53549ZM7.66594 10.8305L12.1502 11.5113C12.6048 11.5803 12.9537 11.9504 12.9958 12.4083L13.3219 15.9518L17.7288 6.25644L7.66594 10.8305Z" fill="#1E1F23"/>
</g>
<defs>
<clipPath id="clip0_3408_21286">
<rect width="24" height="24" fill="white"/>
</clipPath>
</defs>
</svg>
