<svg width="22" height="22" viewBox="0 0 22 22" fill="none" xmlns="http://www.w3.org/2000/svg">
<path fill-rule="evenodd" clip-rule="evenodd" d="M10.9987 1.83203C5.93609 1.83203 1.83203 5.93609 1.83203 10.9987C1.83203 16.0613 5.93609 20.1654 10.9987 20.1654C16.0613 20.1654 20.1654 16.0613 20.1654 10.9987C20.1654 5.93609 16.0613 1.83203 10.9987 1.83203ZM3.66536 10.9987C3.66536 6.94861 6.94861 3.66536 10.9987 3.66536C15.0488 3.66536 18.332 6.94861 18.332 10.9987C18.332 15.0488 15.0488 18.332 10.9987 18.332C6.94861 18.332 3.66536 15.0488 3.66536 10.9987ZM7.33203 8.55425C7.33203 7.87924 7.87925 7.33203 8.55428 7.33203C9.2293 7.33203 9.77652 7.87924 9.77652 8.55425C9.77652 9.22927 9.2293 9.77648 8.55428 9.77648C7.87925 9.77648 7.33203 9.22927 7.33203 8.55425ZM9.29509 14.1839C8.88596 14.593 8.22263 14.593 7.8135 14.1839C7.40438 13.7748 7.40438 13.1115 7.8135 12.7024L12.7025 7.81348C13.1116 7.40436 13.7749 7.40436 14.1841 7.81348C14.5932 8.2226 14.5932 8.88592 14.1841 9.29504L9.29509 14.1839ZM12.2209 13.4431C12.2209 12.7681 12.7681 12.2209 13.4431 12.2209C14.1181 12.2209 14.6654 12.7681 14.6654 13.4431C14.6654 14.1182 14.1181 14.6654 13.4431 14.6654C12.7681 14.6654 12.2209 14.1182 12.2209 13.4431Z" fill="#3E5BF1"/>
</svg>
