<svg width="12" height="12" viewBox="0 0 12 12" fill="none" xmlns="http://www.w3.org/2000/svg">
<g clip-path="url(#clip0_3401_84167)">
<path fill-rule="evenodd" clip-rule="evenodd" d="M2.58226 1.19875C2.58228 1.19874 2.58242 1.1989 2.58267 1.19927ZM2.6081 1.23972L3.81246 3.15602C3.66693 3.294 3.50818 3.43066 3.33734 3.57774C3.1905 3.70416 3.03473 3.83826 2.87072 3.98751C2.46423 4.35743 2.38572 4.95237 2.64879 5.41537C4.03996 7.86371 5.9374 8.97778 6.78643 9.37777C7.29792 9.61874 7.85364 9.42858 8.16301 9.03478L8.99642 7.97393C8.99694 7.97327 8.99688 7.97347 8.99656 7.97366C8.99652 7.97368 8.9971 7.97334 8.99836 7.97312C8.99964 7.97289 9.0009 7.97292 9.00192 7.97312C9.00268 7.97326 9.00374 7.97354 9.00548 7.97462C9.49111 8.27434 10.1686 8.68166 10.791 9.02651C10.6792 9.70131 10.4225 10.0944 10.1394 10.3347C9.8421 10.5871 9.45768 10.7199 9.0289 10.7678C8.1728 10.8636 7.3037 10.6039 7.11095 10.5406C6.89825 10.4319 5.73213 9.81803 4.4863 8.82334C3.20165 7.79765 1.91351 6.43071 1.42085 4.86295C1.0608 3.71718 1.19657 2.9109 1.47956 2.35475C1.75313 1.81711 2.19583 1.4522 2.6081 1.23972ZM2.17243 0.105579C2.73999 -0.163613 3.32686 0.117057 3.60022 0.552013L4.86016 2.55674C5.11487 2.96202 5.13233 3.55449 4.71824 3.96035C4.54077 4.13429 4.29387 4.34807 4.06411 4.54701C3.93799 4.65622 3.81704 4.76095 3.71557 4.85215C4.91288 6.93701 6.5136 7.90158 7.24164 8.25429L8.05208 7.22267C8.43472 6.73561 9.11602 6.62177 9.63484 6.94197C10.1148 7.23819 10.7783 7.63686 11.3796 7.96976C11.7806 8.19179 12.0675 8.65464 11.9862 9.17722C11.8402 10.1158 11.4589 10.7994 10.9156 11.2607C10.3813 11.7142 9.74487 11.9066 9.16185 11.9718C8.01511 12.1001 6.9183 11.7528 6.71801 11.6858C6.6673 11.6688 6.62522 11.6509 6.57998 11.6279C6.36496 11.5186 5.09778 10.8579 3.7381 9.77231C2.39256 8.69801 0.875105 7.14399 0.273083 5.22819C-0.169134 3.82094 -0.0383177 2.67991 0.408068 1.80264C0.846628 0.940745 1.55685 0.397545 2.17243 0.105579Z" fill="#3E5BF1"/>
</g>
<defs>
<clipPath id="clip0_3401_84167">
<rect width="12" height="12" fill="white"/>
</clipPath>
</defs>
</svg>
