<svg width="22" height="22" viewBox="0 0 22 22" fill="none" xmlns="http://www.w3.org/2000/svg">
<path fill-rule="evenodd" clip-rule="evenodd" d="M7.09111 6.11812C7.43321 5.74493 7.40799 5.16507 7.0348 4.82298C6.66161 4.48089 6.08176 4.5061 5.73966 4.87929L3.92743 6.85627L3.45292 6.28687C3.12882 5.89795 2.55081 5.8454 2.16189 6.1695C1.77296 6.4936 1.72042 7.07162 2.04452 7.46054L3.19035 8.83554C3.35967 9.03872 3.6085 9.15887 3.87292 9.16511C4.13733 9.17136 4.39156 9.06309 4.57028 8.86812L7.09111 6.11812ZM10.0821 6.41537C9.57579 6.41537 9.16539 6.82578 9.16539 7.33204C9.16539 7.8383 9.57579 8.2487 10.0821 8.2487H19.2487C19.755 8.2487 20.1654 7.8383 20.1654 7.33204C20.1654 6.82578 19.755 6.41537 19.2487 6.41537H10.0821ZM7.0348 13.073C7.40799 13.4151 7.43321 13.9949 7.09111 14.3681L4.57028 17.1181C4.39156 17.3131 4.13733 17.4214 3.87292 17.4151C3.6085 17.4089 3.35967 17.2887 3.19035 17.0855L2.04452 15.7105C1.72042 15.3216 1.77296 14.7436 2.16189 14.4195C2.55081 14.0954 3.12882 14.1479 3.45292 14.5369L3.92743 15.1063L5.73966 13.1293C6.08176 12.7561 6.66161 12.7309 7.0348 13.073ZM10.0821 14.6654C9.57579 14.6654 9.16539 15.0758 9.16539 15.582C9.16539 16.0883 9.57579 16.4987 10.0821 16.4987H19.2487C19.755 16.4987 20.1654 16.0883 20.1654 15.582C20.1654 15.0758 19.755 14.6654 19.2487 14.6654H10.0821Z" fill="#3E5BF1"/>
</svg>
