<svg width="146" height="26" viewBox="0 0 146 26" fill="none" xmlns="http://www.w3.org/2000/svg">
<path d="M11.5564 2.06721C12.2112 1.04433 13.7888 1.04433 14.4436 2.06721L17.6232 7.0339C17.8584 7.40137 18.2422 7.66344 18.6866 7.76021L24.694 9.06813C25.9312 9.33749 26.4187 10.7479 25.5862 11.6494L21.5439 16.0269C21.2449 16.3508 21.0983 16.7748 21.1377 17.2021L21.6709 22.9771C21.7807 24.1665 20.5045 25.0381 19.3351 24.5724L13.6572 22.3112C13.2372 22.1439 12.7628 22.1439 12.3428 22.3112L6.66489 24.5724C5.49554 25.0381 4.21931 24.1665 4.32911 22.9771L4.86227 17.2021C4.90171 16.7748 4.75514 16.3508 4.45607 16.0269L0.413793 11.6494C-0.418705 10.7479 0.0687753 9.33749 1.30598 9.06813L7.31336 7.76021C7.75783 7.66344 8.14155 7.40137 8.3768 7.0339L11.5564 2.06721Z" fill="#E3E7ED"/>
<path d="M41.5564 2.06721C42.2112 1.04433 43.7888 1.04433 44.4436 2.06721L47.6232 7.0339C47.8584 7.40137 48.2422 7.66344 48.6866 7.76021L54.694 9.06813C55.9312 9.33749 56.4187 10.7479 55.5862 11.6494L51.5439 16.0269C51.2449 16.3508 51.0983 16.7748 51.1377 17.2021L51.6709 22.9771C51.7807 24.1665 50.5045 25.0381 49.3351 24.5724L43.6572 22.3112C43.2372 22.1439 42.7628 22.1439 42.3428 22.3112L36.6649 24.5724C35.4955 25.0381 34.2193 24.1665 34.3291 22.9771L34.8623 17.2021C34.9017 16.7748 34.7551 16.3508 34.4561 16.0269L30.4138 11.6494C29.5813 10.7479 30.0688 9.33749 31.306 9.06813L37.3134 7.76021C37.7578 7.66344 38.1416 7.40137 38.3768 7.0339L41.5564 2.06721Z" fill="#E3E7ED"/>
<path d="M71.5564 2.06721C72.2112 1.04433 73.7888 1.04433 74.4436 2.06721L77.6232 7.0339C77.8584 7.40137 78.2422 7.66344 78.6866 7.76021L84.694 9.06813C85.9312 9.33749 86.4187 10.7479 85.5862 11.6494L81.5439 16.0269C81.2449 16.3508 81.0983 16.7748 81.1377 17.2021L81.6709 22.9771C81.7807 24.1665 80.5045 25.0381 79.3351 24.5724L73.6572 22.3112C73.2372 22.1439 72.7628 22.1439 72.3428 22.3112L66.6649 24.5724C65.4955 25.0381 64.2193 24.1665 64.3291 22.9771L64.8623 17.2021C64.9017 16.7748 64.7551 16.3508 64.4561 16.0269L60.4138 11.6494C59.5813 10.7479 60.0688 9.33749 61.306 9.06813L67.3134 7.76021C67.7578 7.66344 68.1416 7.40137 68.3768 7.0339L71.5564 2.06721Z" fill="#E3E7ED"/>
<path d="M101.556 2.06721C102.211 1.04433 103.789 1.04433 104.444 2.06721L107.623 7.0339C107.858 7.40137 108.242 7.66344 108.687 7.76021L114.694 9.06813C115.931 9.33749 116.419 10.7479 115.586 11.6494L111.544 16.0269C111.245 16.3508 111.098 16.7748 111.138 17.2021L111.671 22.9771C111.781 24.1665 110.504 25.0381 109.335 24.5724L103.657 22.3112C103.237 22.1439 102.763 22.1439 102.343 22.3112L96.6649 24.5724C95.4955 25.0381 94.2193 24.1665 94.3291 22.9771L94.8623 17.2021C94.9017 16.7748 94.7551 16.3508 94.4561 16.0269L90.4138 11.6494C89.5813 10.7479 90.0688 9.33749 91.306 9.06813L97.3134 7.76021C97.7578 7.66344 98.1416 7.40137 98.3768 7.0339L101.556 2.06721Z" fill="#E3E7ED"/>
<path d="M131.556 2.06721C132.211 1.04433 133.789 1.04433 134.444 2.06721L137.623 7.0339C137.858 7.40137 138.242 7.66344 138.687 7.76021L144.694 9.06813C145.931 9.33749 146.419 10.7479 145.586 11.6494L141.544 16.0269C141.245 16.3508 141.098 16.7748 141.138 17.2021L141.671 22.9771C141.781 24.1665 140.504 25.0381 139.335 24.5724L133.657 22.3112C133.237 22.1439 132.763 22.1439 132.343 22.3112L126.665 24.5724C125.496 25.0381 124.219 24.1665 124.329 22.9771L124.862 17.2021C124.902 16.7748 124.755 16.3508 124.456 16.0269L120.414 11.6494C119.581 10.7479 120.069 9.33749 121.306 9.06813L127.313 7.76021C127.758 7.66344 128.142 7.40137 128.377 7.0339L131.556 2.06721Z" fill="#E3E7ED"/>
</svg>
