<?xml version="1.0" encoding="utf-8"?>
<!-- Generator: Adobe Illustrator 26.0.3, SVG Export Plug-In . SVG Version: 6.00 Build 0)  -->
<svg version="1.1" id="Слой_1" xmlns="http://www.w3.org/2000/svg" xmlns:xlink="http://www.w3.org/1999/xlink" x="0px" y="0px"
	 viewBox="0 0 22 22" style="enable-background:new 0 0 22 22;" xml:space="preserve">
<style type="text/css">
	.st0{fill-rule:evenodd;clip-rule:evenodd;fill:#3E5BF1;}
	.st1{fill:#3E5BF1;}
</style>
<path class="st0" d="M16,12.1c-0.5-0.2-1.1,0-1.3,0.4l-0.8,1.6l0,0c-0.3-0.4-0.9-0.5-1.4-0.1c-0.4,0.4-0.5,1-0.1,1.4l1,1.2
	c0.2,0.2,0.5,0.4,0.8,0.3c0.3,0,0.6-0.2,0.8-0.5l1.5-2.9C16.7,12.9,16.5,12.3,16,12.1z M16,12.1c-0.5-0.2-1.1,0-1.3,0.4l-0.8,1.6
	l0,0c-0.3-0.4-0.9-0.5-1.4-0.1c-0.4,0.4-0.5,1-0.1,1.4l1,1.2c0.2,0.2,0.5,0.4,0.8,0.3c0.3,0,0.6-0.2,0.8-0.5l1.5-2.9
	C16.7,12.9,16.5,12.3,16,12.1z M15.3,8.7V4.7c0-1.6-1.3-2.9-2.9-2.9H4.7c-1.6,0-2.9,1.3-2.9,2.9v11.6c0,1.6,1.3,2.9,2.9,2.9h6.5
	c0.9,0.6,2,1,3.2,1c3.2,0,5.8-2.6,5.8-5.8C20.2,11.5,18.1,9.1,15.3,8.7z M9.4,17.3H4.7c-0.5,0-1-0.4-1-1V4.7c0-0.5,0.4-1,1-1h7.7
	c0.5,0,1,0.4,1,1v3.9c-2.7,0.5-4.8,2.8-4.8,5.7C8.6,15.4,8.9,16.4,9.4,17.3z M14.4,18.2c-2.1,0-3.9-1.7-3.9-3.9
	c0-2.1,1.7-3.9,3.9-3.9s3.9,1.7,3.9,3.9C18.2,16.5,16.5,18.2,14.4,18.2z M16,12.1c-0.5-0.2-1.1,0-1.3,0.4l-0.8,1.6l0,0
	c-0.3-0.4-0.9-0.5-1.4-0.1c-0.4,0.4-0.5,1-0.1,1.4l1,1.2c0.2,0.2,0.5,0.4,0.8,0.3c0.3,0,0.6-0.2,0.8-0.5l1.5-2.9
	C16.7,12.9,16.5,12.3,16,12.1z M16,12.1c-0.5-0.2-1.1,0-1.3,0.4l-0.8,1.6l0,0c-0.3-0.4-0.9-0.5-1.4-0.1c-0.4,0.4-0.5,1-0.1,1.4
	l1,1.2c0.2,0.2,0.5,0.4,0.8,0.3c0.3,0,0.6-0.2,0.8-0.5l1.5-2.9C16.7,12.9,16.5,12.3,16,12.1z M16,12.1c-0.5-0.2-1.1,0-1.3,0.4
	l-0.8,1.6l0,0c-0.3-0.4-0.9-0.5-1.4-0.1c-0.4,0.4-0.5,1-0.1,1.4l1,1.2c0.2,0.2,0.5,0.4,0.8,0.3c0.3,0,0.6-0.2,0.8-0.5l1.5-2.9
	C16.7,12.9,16.5,12.3,16,12.1z"/>
<path class="st1" d="M11.9,6.4c0,0.5-0.4,0.9-0.9,0.9H6.4c-0.5,0-0.9-0.4-0.9-0.9c0-0.5,0.4-0.9,0.9-0.9H11
	C11.5,5.5,11.9,5.9,11.9,6.4z"/>
<path class="st1" d="M7.3,10.1c0,0.5-0.4,0.9-0.9,0.9c-0.5,0-0.9-0.4-0.9-0.9c0-0.5,0.4-0.9,0.9-0.9C6.9,9.2,7.3,9.6,7.3,10.1z"/>
<path class="st1" d="M7.3,13.8c0,0.5-0.4,0.9-0.9,0.9c-0.5,0-0.9-0.4-0.9-0.9s0.4-0.9,0.9-0.9C6.9,12.8,7.3,13.2,7.3,13.8z"/>
</svg>
