<svg width="20" height="20" viewBox="0 0 20 20" fill="none" xmlns="http://www.w3.org/2000/svg">
<g clip-path="url(#clip0_3401_84263)">
<path fill-rule="evenodd" clip-rule="evenodd" d="M13.761 13.1224L13.2699 13.236C12.8013 13.3444 12.3452 13.0471 12.2511 12.5719C12.157 12.0967 12.4606 11.6236 12.9292 11.5151L15.3437 10.9565C15.776 10.8565 16.2044 11.1021 16.3385 11.5268L16.9997 13.6223C17.1449 14.0827 16.8936 14.5857 16.4382 14.7459C15.9829 14.9062 15.4961 14.6629 15.3508 14.2026L15.2783 13.9728C14.2663 15.3483 12.9086 16.1917 11.8065 16.5795C10.4363 17.0617 8.41897 17.2075 6.4731 16.2352C4.52126 15.2599 3.41369 13.502 2.97901 12.1245C2.83376 11.6641 3.08513 11.1611 3.54045 11.0009C3.99577 10.8407 4.48263 11.0839 4.62788 11.5442C4.95236 12.5725 5.80145 13.9138 7.26709 14.6462C8.7387 15.3815 10.2709 15.2678 11.2805 14.9126C12.054 14.6403 13.0131 14.0538 13.761 13.1224ZM7.02057 7.6864C7.48915 7.57799 7.79274 7.10488 7.69866 6.62969C7.60458 6.15449 7.14845 5.85715 6.67987 5.96556L6.18874 6.07919C6.93659 5.14772 7.89569 4.5612 8.66925 4.289C9.67883 3.93374 11.211 3.82001 12.6826 4.55535C14.1483 5.2877 14.9974 6.62901 15.3218 7.6573C15.4671 8.11762 15.954 8.36089 16.4093 8.20067C16.8646 8.04045 17.116 7.5374 16.9707 7.07708C16.536 5.69953 15.4285 3.94165 13.4766 2.96636C11.5308 1.99404 9.51341 2.1399 8.14325 2.62204C7.04114 3.00986 5.68346 3.85328 4.67141 5.22871L4.59893 4.99899C4.45368 4.53867 3.96681 4.29539 3.51149 4.45562C3.05617 4.61584 2.8048 5.11889 2.95005 5.57921L3.61128 7.67471C3.74529 8.0994 4.17374 8.34504 4.60606 8.24502L7.02057 7.6864Z" fill="#82879E"/>
</g>
<defs>
<clipPath id="clip0_3401_84263">
<rect width="20" height="20" fill="white"/>
</clipPath>
</defs>
</svg>
