<svg width="20" height="20" viewBox="0 0 20 20" fill="none" xmlns="http://www.w3.org/2000/svg">
<path fill-rule="evenodd" clip-rule="evenodd" d="M13.5498 4.16699L13.3333 4.16699C13.3333 2.78628 12.214 1.66699 10.8333 1.66699H9.16667C7.78595 1.66699 6.66667 2.78628 6.66667 4.16699L6.1194 4.16699L5.83333 4.16699L5.83235 4.16699H3.33333C2.8731 4.16699 2.5 4.54009 2.5 5.00033C2.5 5.46056 2.8731 5.83366 3.33333 5.83366L4.16667 5.83366L4.16667 15.8337C4.16667 17.2144 5.28596 18.3337 6.66667 18.3337H13.3333C14.714 18.3337 15.8333 17.2144 15.8333 15.8337L15.8333 5.83366L16.6667 5.83366C17.1269 5.83366 17.5 5.46056 17.5 5.00033C17.5 4.54009 17.1269 4.16699 16.6667 4.16699L14.1682 4.16699L14.1667 4.16699L13.5498 4.16699ZM14.1667 5.83366H12.5L11.6667 5.83366L8.33333 5.83366L7.5 5.83366L5.83333 5.83366L5.83333 7.50033L5.83333 15.8337C5.83333 16.2939 6.20643 16.667 6.66667 16.667H13.3333C13.7936 16.667 14.1667 16.2939 14.1667 15.8337V7.50032V5.83366ZM8.33333 4.16699H9.16667H10L10.8333 4.16699H11.6667C11.6667 3.70676 11.2936 3.33366 10.8333 3.33366L9.16667 3.33366C8.70643 3.33366 8.33333 3.70676 8.33333 4.16699ZM8.33333 7.50033C8.79357 7.50033 9.16667 7.87342 9.16667 8.33366V14.167C9.16667 14.6272 8.79357 15.0003 8.33333 15.0003C7.8731 15.0003 7.5 14.6272 7.5 14.167V8.33366C7.5 7.87342 7.8731 7.50033 8.33333 7.50033ZM12.5 8.33366C12.5 7.87342 12.1269 7.50033 11.6667 7.50033C11.2064 7.50033 10.8333 7.87342 10.8333 8.33366V14.167C10.8333 14.6272 11.2064 15.0003 11.6667 15.0003C12.1269 15.0003 12.5 14.6272 12.5 14.167V8.33366Z" fill="#82879E"/>
</svg>
