<svg width="22" height="22" viewBox="0 0 22 22" fill="none" xmlns="http://www.w3.org/2000/svg">
<path fill-rule="evenodd" clip-rule="evenodd" d="M21.9987 16.0413C21.9987 19.332 19.3311 21.9997 16.0404 21.9997C12.7497 21.9997 10.082 19.332 10.082 16.0413C10.082 12.7506 12.7497 10.083 16.0404 10.083C19.3311 10.083 21.9987 12.7506 21.9987 16.0413ZM16.0404 20.1663C18.3185 20.1663 20.1654 18.3195 20.1654 16.0413C20.1654 15.3155 19.9779 14.6335 19.6488 14.041C19.2993 13.412 18.7901 12.8839 18.176 12.5115C17.5531 12.1338 16.8221 11.9163 16.0404 11.9163C14.8145 11.9163 13.7136 12.451 12.958 13.2999C12.5036 13.8105 12.1741 14.4348 12.0176 15.1247C11.9507 15.4195 11.9154 15.7263 11.9154 16.0413C11.9154 16.8231 12.1328 17.554 12.5105 18.177C12.8829 18.7911 13.411 19.3003 14.0401 19.6497C14.6325 19.9789 15.3146 20.1663 16.0404 20.1663Z" fill="#3E5BF1"/>
<path fill-rule="evenodd" clip-rule="evenodd" d="M10.9987 20.1663C5.93609 20.1663 1.83203 16.0623 1.83203 10.9997C1.83203 5.93706 5.93609 1.83301 10.9987 1.83301C16.0613 1.83301 20.1654 5.93706 20.1654 10.9997C20.1654 12.0658 19.9834 13.0893 19.6488 14.041C19.2993 13.412 18.7901 12.8839 18.176 12.5115C18.2783 12.0236 18.332 11.5179 18.332 10.9997C18.332 6.94959 15.0488 3.66634 10.9987 3.66634C6.94861 3.66634 3.66536 6.94959 3.66536 10.9997C3.66536 15.0498 6.94861 18.333 10.9987 18.333C11.517 18.333 12.0227 18.2792 12.5105 18.177C12.8829 18.7911 13.411 19.3003 14.0401 19.6497C13.0884 19.9844 12.0648 20.1663 10.9987 20.1663ZM9.16536 6.41634C9.16536 5.91008 9.57577 5.49967 10.082 5.49967H12.1445C14.043 5.49967 15.582 7.0387 15.582 8.93717C15.582 10.8357 14.043 12.3747 12.1445 12.3747H10.9987V13.2913H12.832C12.8748 13.2913 12.9169 13.2943 12.958 13.2999C12.5036 13.8105 12.1741 14.4348 12.0176 15.1247H10.9987V16.0413C10.9987 16.5476 10.5883 16.958 10.082 16.958C9.57577 16.958 9.16536 16.5476 9.16536 16.0413V15.1247H7.33203C6.82577 15.1247 6.41536 14.7143 6.41536 14.208C6.41536 13.7017 6.82577 13.2913 7.33203 13.2913H9.16536V12.3747H7.33203C6.82577 12.3747 6.41536 11.9643 6.41536 11.458C6.41536 10.9517 6.82577 10.5413 7.33203 10.5413H9.16536V6.41634ZM10.9987 10.5413H12.1445C13.0305 10.5413 13.7487 9.82313 13.7487 8.93717C13.7487 8.05122 13.0305 7.33301 12.1445 7.33301H10.9987V10.5413Z" fill="#3E5BF1"/>
<path d="M13.9602 19.2497C13.8986 19.2497 13.8481 19.2286 13.8089 19.1866C13.7696 19.1445 13.75 19.0905 13.75 19.0244V18.4836C13.75 18.4356 13.7612 18.3725 13.7836 18.2944C13.8117 18.2103 13.8705 18.1292 13.9602 18.0511L15.0703 16.8705C15.4796 16.534 15.8104 16.2486 16.0627 16.0143C16.3206 15.78 16.5112 15.5667 16.6346 15.3744C16.7579 15.1822 16.8196 14.9959 16.8196 14.8157C16.8196 14.5814 16.7579 14.3891 16.6346 14.2389C16.5168 14.0827 16.3234 14.0046 16.0543 14.0046C15.8749 14.0046 15.7235 14.0466 15.6002 14.1308C15.4824 14.2089 15.3899 14.314 15.3226 14.4462C15.2554 14.5784 15.2105 14.7226 15.1881 14.8788C15.1713 14.9569 15.1348 15.0109 15.0787 15.041C15.0283 15.071 14.975 15.0861 14.919 15.0861H14.0275C13.9715 15.0861 13.9266 15.068 13.893 15.032C13.8593 14.9899 13.8425 14.9449 13.8425 14.8968C13.8481 14.6204 13.9014 14.3591 14.0023 14.1127C14.1088 13.8664 14.2574 13.6471 14.448 13.4548C14.6386 13.2626 14.8685 13.1124 15.1376 13.0042C15.4067 12.8901 15.7123 12.833 16.0543 12.833C16.5252 12.833 16.9205 12.9171 17.2401 13.0853C17.5596 13.2476 17.8007 13.4729 17.9633 13.7613C18.1259 14.0497 18.2072 14.3831 18.2072 14.7616C18.2072 15.05 18.1511 15.3174 18.039 15.5637C17.9325 15.81 17.7755 16.0473 17.568 16.2757C17.3606 16.498 17.1139 16.7293 16.828 16.9696L15.8356 18.033H18.1231C18.1848 18.033 18.2352 18.0541 18.2745 18.0961C18.3137 18.1382 18.3333 18.1922 18.3333 18.2583V19.0244C18.3333 19.0905 18.3137 19.1445 18.2745 19.1866C18.2352 19.2286 18.1848 19.2497 18.1231 19.2497H13.9602Z" fill="#3E5BF1"/>
</svg>
