<svg xmlns="http://www.w3.org/2000/svg" viewBox="0 0 22 22"><defs><style>.cls-1,.cls-2{fill:#82879e;}.cls-1{opacity:0;}.cls-2{fill-rule:evenodd;}</style></defs><g id="Layer_2" data-name="Layer 2"><g id="Layer_1-2" data-name="Layer 1"><rect class="cls-1" width="22" height="22"/><path class="cls-2" d="M19.44,13.25l0,0a1.87,1.87,0,0,0,.7-1.47v-.93A1.85,1.85,0,0,0,18.33,9H16.94l.3-.46A.94.94,0,0,0,17,7.2l-1.52-1a.93.93,0,0,0-.87-.08h0l0,0-.21.07a5.18,5.18,0,0,1-.71.18,2,2,0,0,1-1.46-.19,2.22,2.22,0,0,1-.73-1.34,4.88,4.88,0,0,1-.12-.72,2,2,0,0,1,0-.22.18.18,0,0,1,0-.06A1,1,0,0,0,10.9,3L9.37,2a.9.9,0,0,0-1.27.26L5.66,6.16,4,9H3.67a1.85,1.85,0,0,0-1.84,1.87v.93a1.87,1.87,0,0,0,.7,1.47l0,0a1.42,1.42,0,0,1,.19.24,2,2,0,0,1,0,2.13.89.89,0,0,1-.19.24s0,0,0,0a1.9,1.9,0,0,0-.7,1.47v.94a1.85,1.85,0,0,0,1.84,1.87H18.33a1.85,1.85,0,0,0,1.84-1.87v-.94a1.9,1.9,0,0,0-.7-1.47s0,0,0,0a1.15,1.15,0,0,1-.19-.24,2,2,0,0,1,0-2.13A2.22,2.22,0,0,1,19.44,13.25ZM9.12,4.06l.38.27a6.88,6.88,0,0,0,.16.92,4.05,4.05,0,0,0,1.47,2.44,3.8,3.8,0,0,0,2.79.49A8.38,8.38,0,0,0,14.83,8l.38.26L14.73,9H6.06ZM12.83,18.3H3.67v-.94a3.32,3.32,0,0,0,.75-.93,3.86,3.86,0,0,0,.47-1.87,3.83,3.83,0,0,0-.47-1.87,3.28,3.28,0,0,0-.75-.94v-.93h9.16Zm5.5-6.55a3.28,3.28,0,0,0-.75.94,4,4,0,0,0,0,3.74,3.32,3.32,0,0,0,.75.93v.94H14.67V10.82h3.66Z"/></g></g></svg>