<svg width="20" height="20" viewBox="0 0 20 20" fill="none" xmlns="http://www.w3.org/2000/svg">
<path fill-rule="evenodd" clip-rule="evenodd" d="M16.9101 1.91107C17.2355 1.58563 17.7632 1.58563 18.0886 1.91107C18.414 2.23651 18.414 2.76415 18.0886 3.08958L15.2469 5.93133C15.6649 6.2492 16.0347 6.58646 16.3581 6.92188C17.013 7.60103 17.4845 8.27826 17.7931 8.78659C17.9479 9.04147 18.0629 9.25593 18.1406 9.40977C18.1795 9.48675 18.2092 9.54874 18.2298 9.59325C18.2401 9.6155 18.2482 9.6334 18.2541 9.64664L18.2614 9.66296L18.2637 9.66842L18.2646 9.67047L18.265 9.67132C18.2651 9.6717 18.2653 9.67206 17.4993 10.0003C18.2653 10.3286 18.2651 10.3289 18.265 10.3293L18.2646 10.3302L18.2637 10.3322L18.2614 10.3377L18.2541 10.354C18.2482 10.3672 18.2401 10.3851 18.2298 10.4074C18.2092 10.4519 18.1795 10.5139 18.1406 10.5909C18.0629 10.7447 17.9479 10.9592 17.7931 11.2141C17.4845 11.7224 17.013 12.3996 16.3581 13.0788C15.0446 14.441 12.9661 15.8337 9.99935 15.8337C8.51949 15.8337 7.26063 15.4871 6.20748 14.9707L3.08861 18.0896C2.76317 18.415 2.23553 18.415 1.91009 18.0896C1.58466 17.7641 1.58466 17.2365 1.91009 16.9111L16.9101 1.91107ZM7.4718 13.7064C8.20594 13.9906 9.0454 14.167 9.99935 14.167C12.3898 14.167 14.0612 13.0597 15.1584 11.9219C15.7089 11.351 16.1079 10.7783 16.3685 10.3491C16.4487 10.217 16.5153 10.0992 16.5688 10.0003C16.5153 9.90142 16.4487 9.78369 16.3685 9.65156C16.1079 9.22239 15.7089 8.64962 15.1584 8.07877C14.8402 7.74879 14.4737 7.42138 14.0554 7.1228L12.8712 8.30702C13.1644 8.80328 13.3327 9.38215 13.3327 10.0003C13.3327 11.8413 11.8403 13.3337 9.99935 13.3337C9.38117 13.3337 8.8023 13.1654 8.30604 12.8721L7.4718 13.7064ZM9.56765 11.6105C9.70534 11.6474 9.85005 11.667 9.99935 11.667C10.9198 11.667 11.666 10.9208 11.666 10.0003C11.666 9.85102 11.6464 9.70631 11.6096 9.56862L9.56765 11.6105ZM17.4993 10.0003L18.2653 10.3286C18.3551 10.119 18.3551 9.88168 18.2653 9.67206L17.4993 10.0003ZM9.99935 4.16699C10.7478 4.16699 11.4397 4.25563 12.0771 4.41007L10.6274 5.85978C10.4238 5.84263 10.2145 5.83366 9.99935 5.83366C7.60892 5.83366 5.93746 6.94096 4.84029 8.07877C4.28983 8.64962 3.89076 9.22239 3.6302 9.65156C3.54998 9.78369 3.48336 9.90142 3.4299 10.0003C3.48336 10.0992 3.54998 10.217 3.6302 10.3491C3.86922 10.7428 4.22479 11.2573 4.70685 11.7803L3.52752 12.9597C2.93106 12.321 2.49613 11.6927 2.20555 11.2141C2.05081 10.9592 1.93576 10.7447 1.85806 10.5909C1.81917 10.5139 1.78954 10.4519 1.76888 10.4074C1.75855 10.3851 1.75045 10.3672 1.74455 10.354L1.73734 10.3377L1.73496 10.3322L1.73408 10.3302L1.73371 10.3293C1.73355 10.3289 1.73339 10.3286 2.49918 10.0004L1.73339 10.3286C1.64356 10.119 1.64356 9.88168 1.73339 9.67206L2.49918 10.0002C1.73339 9.67206 1.73355 9.6717 1.73371 9.67132L1.73408 9.67047L1.73496 9.66842L1.73734 9.66296L1.74455 9.64664C1.75045 9.6334 1.75855 9.6155 1.76888 9.59325C1.78954 9.54874 1.81917 9.48675 1.85806 9.40977C1.93576 9.25593 2.05081 9.04147 2.20555 8.78659C2.51418 8.27826 2.98565 7.60103 3.64055 6.92188C4.95409 5.55969 7.03263 4.16699 9.99935 4.16699ZM6.67102 9.81616C6.76328 8.12183 8.12086 6.76425 9.81519 6.67199L6.67102 9.81616Z" fill="#82879E"/>
</svg>
