<svg width="22" height="22" viewBox="0 0 22 22" fill="none" xmlns="http://www.w3.org/2000/svg">
<path fill-rule="evenodd" clip-rule="evenodd" d="M13.4129 8.58739V3.82292C15.8722 4.18354 17.8168 6.1281 18.1774 8.58739H13.4129ZM12.5859 1.83301C11.9768 1.83301 11.4831 2.32673 11.4831 2.93576V8.58739C11.4831 9.65321 12.3471 10.5172 13.4129 10.5172H19.0646C19.6736 10.5172 20.1673 10.0235 20.1673 9.41446C20.1673 5.22734 16.773 1.83301 12.5859 1.83301ZM10.6433 18.2365H10.0357C6.57185 18.2365 3.76381 15.4285 3.76381 11.9646V11.357C3.76381 8.684 5.61537 6.4434 8.10591 5.84782V11.0533C8.10591 12.6224 9.37793 13.8944 10.947 13.8944H16.1525C15.5569 16.385 13.3163 18.2365 10.6433 18.2365ZM10.0357 20.1663H10.6433C14.8374 20.1663 18.2375 16.7663 18.2375 12.5721C18.2375 12.2366 17.9655 11.9646 17.63 11.9646H10.947C10.4437 11.9646 10.0357 11.5566 10.0357 11.0533V4.37037C10.0357 4.03484 9.76373 3.76283 9.4282 3.76283C5.23403 3.76283 1.83398 7.16288 1.83398 11.357V11.9646C1.83398 16.4943 5.50603 20.1663 10.0357 20.1663Z" fill="#82879E"/>
</svg>
