<?xml version="1.0" encoding="utf-8"?>
<!-- Generator: Adobe Illustrator 26.0.3, SVG Export Plug-In . SVG Version: 6.00 Build 0)  -->
<svg version="1.1" id="Слой_1" xmlns="http://www.w3.org/2000/svg" xmlns:xlink="http://www.w3.org/1999/xlink" x="0px" y="0px"
	 viewBox="0 0 22 22" style="enable-background:new 0 0 22 22;" xml:space="preserve">
<style type="text/css">
	.st0{fill-rule:evenodd;clip-rule:evenodd;fill:#3E5BF1;}
</style>
<path class="st0" d="M15.6,18.3v-3.7c0-1.5-0.7-2.8-1.8-3.7c1.1-0.8,1.8-2.2,1.8-3.7V3.7c0.5,0,0.9-0.4,0.9-0.9
	c0-0.5-0.4-0.9-0.9-0.9H6.4c-0.5,0-0.9,0.4-0.9,0.9c0,0.5,0.4,0.9,0.9,0.9v3.7c0,1.5,0.7,2.8,1.8,3.7c-1.1,0.8-1.8,2.2-1.8,3.7v3.7
	c-0.5,0-0.9,0.4-0.9,0.9c0,0.5,0.4,0.9,0.9,0.9h9.2c0.5,0,0.9-0.4,0.9-0.9C16.5,18.7,16.1,18.3,15.6,18.3z M8.2,3.7h5.5v3.7
	c0,1.5-1.2,2.8-2.8,2.8S8.2,8.8,8.2,7.3V3.7z M13.8,18.3H8.2v-3.7c0-1.5,1.2-2.8,2.8-2.8s2.8,1.2,2.8,2.8V18.3z"/>
</svg>
