<svg width="22" height="22" viewBox="0 0 22 22" fill="none" xmlns="http://www.w3.org/2000/svg">
<path fill-rule="evenodd" clip-rule="evenodd" d="M16.1867 5.81455C15.1128 4.74061 13.3716 4.74061 12.2976 5.81455L11.0013 7.11091C10.6433 7.46889 10.0629 7.46889 9.70492 7.11091C9.34694 6.75293 9.34694 6.17253 9.70492 5.81455L11.0013 4.51819C12.7912 2.72829 15.6932 2.72829 17.4831 4.51819C19.273 6.30809 19.273 9.2101 17.4831 11L16.1867 12.2964C15.8288 12.6543 15.2483 12.6543 14.8904 12.2964C14.5324 11.9384 14.5324 11.358 14.8904 11L16.1867 9.70364C17.2607 8.6297 17.2607 6.88849 16.1867 5.81455ZM5.81583 16.1855C4.74189 15.1115 4.74189 13.3703 5.81583 12.2964L7.11219 11C7.47017 10.642 7.47017 10.0616 7.11219 9.70364C6.75421 9.34566 6.17381 9.34566 5.81583 9.70364L4.51947 11C2.72957 12.7899 2.72957 15.6919 4.51947 17.4818C6.30937 19.2717 9.21138 19.2717 11.0013 17.4818L12.2976 16.1854C12.6556 15.8275 12.6556 15.2471 12.2976 14.8891C11.9397 14.5311 11.3593 14.5311 11.0013 14.8891L9.70492 16.1854C8.63098 17.2594 6.88977 17.2594 5.81583 16.1855ZM14.2422 9.05546C14.6002 8.69748 14.6002 8.11707 14.2422 7.75909C13.8842 7.40111 13.3038 7.40111 12.9458 7.75909L7.76038 12.9445C7.40239 13.3025 7.4024 13.8829 7.76038 14.2409C8.11836 14.5989 8.69876 14.5989 9.05674 14.2409L14.2422 9.05546Z" fill="#1E1F23"/>
</svg>
