<svg width="20" height="20" viewBox="0 0 20 20" fill="none" xmlns="http://www.w3.org/2000/svg">
<path fill-rule="evenodd" clip-rule="evenodd" d="M6.66667 8.33301C5.74619 8.33301 5 7.58682 5 6.66634C5 5.74587 5.74619 4.99967 6.66667 4.99967C7.58714 4.99967 8.33333 5.74587 8.33333 6.66634C8.33333 7.58682 7.58714 8.33301 6.66667 8.33301ZM8.99982 9.047C9.61705 8.44201 10 7.5989 10 6.66634C10 4.82539 8.50762 3.33301 6.66667 3.33301C4.82572 3.33301 3.33333 4.82539 3.33333 6.66634C3.33333 7.5989 3.71629 8.44201 4.33351 9.047C3.22716 9.79608 2.5 11.063 2.5 12.4997V15.833C2.5 16.2932 2.8731 16.6663 3.33333 16.6663C3.79357 16.6663 4.16667 16.2932 4.16667 15.833V12.4997C4.16667 11.119 5.28595 9.99967 6.66667 9.99967C8.04738 9.99967 9.16667 11.119 9.16667 12.4997V15.833C9.16667 16.2932 9.53976 16.6663 10 16.6663C10.4602 16.6663 10.8333 16.2932 10.8333 15.833V12.4997C10.8333 11.063 10.1062 9.79608 8.99982 9.047ZM14.5833 3.33301C15.0436 3.33301 15.4167 3.7061 15.4167 4.16634V5.41634H16.6667C17.1269 5.41634 17.5 5.78944 17.5 6.24967C17.5 6.70991 17.1269 7.08301 16.6667 7.08301H15.4167V8.33301C15.4167 8.79325 15.0436 9.16634 14.5833 9.16634C14.1231 9.16634 13.75 8.79325 13.75 8.33301V7.08301H12.5C12.0398 7.08301 11.6667 6.70991 11.6667 6.24967C11.6667 5.78944 12.0398 5.41634 12.5 5.41634H13.75V4.16634C13.75 3.7061 14.1231 3.33301 14.5833 3.33301Z" fill="#82879E"/>
</svg>
