<svg width="22" height="22" viewBox="0 0 22 22" fill="none" xmlns="http://www.w3.org/2000/svg">
<path fill-rule="evenodd" clip-rule="evenodd" d="M7.33333 9.16699C6.32081 9.16699 5.5 8.34618 5.5 7.33366C5.5 6.32114 6.32081 5.50033 7.33333 5.50033C8.34586 5.50033 9.16667 6.32114 9.16667 7.33366C9.16667 8.34618 8.34586 9.16699 7.33333 9.16699ZM9.8998 9.95238C10.5787 9.28689 11 8.35947 11 7.33366C11 5.30861 9.35838 3.66699 7.33333 3.66699C5.30829 3.66699 3.66667 5.30861 3.66667 7.33366C3.66667 8.35947 4.08792 9.28689 4.76687 9.95238C3.54987 10.7764 2.75 12.1699 2.75 13.7503V17.417C2.75 17.9233 3.16041 18.3337 3.66667 18.3337C4.17293 18.3337 4.58333 17.9233 4.58333 17.417V13.7503C4.58333 12.2315 5.81455 11.0003 7.33333 11.0003C8.85212 11.0003 10.0833 12.2315 10.0833 13.7503V17.417C10.0833 17.9233 10.4937 18.3337 11 18.3337C11.5063 18.3337 11.9167 17.9233 11.9167 17.417V13.7503C11.9167 12.1699 11.1168 10.7764 9.8998 9.95238ZM13.7714 4.60669C14.1294 4.24871 14.7098 4.24871 15.0678 4.60669L16.0401 5.57896L17.0123 4.60669C17.3703 4.24871 17.9507 4.24871 18.3087 4.60669C18.6667 4.96467 18.6667 5.54507 18.3087 5.90306L17.3364 6.87532L18.3087 7.8476C18.6667 8.20558 18.6667 8.78598 18.3087 9.14396C17.9507 9.50194 17.3703 9.50194 17.0123 9.14396L16.0401 8.17169L15.0678 9.14396C14.7098 9.50194 14.1294 9.50194 13.7714 9.14396C13.4134 8.78598 13.4134 8.20558 13.7714 7.8476L14.7437 6.87533L13.7714 5.90305C13.4134 5.54507 13.4134 4.96467 13.7714 4.60669Z" fill="#82879E"/>
</svg>
