<svg width="17" height="17" viewBox="0 0 17 17" fill="none" xmlns="http://www.w3.org/2000/svg">
<path fill-rule="evenodd" clip-rule="evenodd" d="M1.7 8.5C1.7 4.74446 4.74446 1.7 8.5 1.7C12.2555 1.7 15.3 4.74446 15.3 8.5C15.3 12.2555 12.2555 15.3 8.5 15.3C4.74446 15.3 1.7 12.2555 1.7 8.5ZM11.651 5.34896C11.983 5.6809 11.983 6.2191 11.651 6.55104L9.70208 8.5L11.651 10.449C11.983 10.7809 11.983 11.3191 11.651 11.651C11.3191 11.983 10.7809 11.983 10.449 11.651L8.5 9.70208L6.55104 11.651C6.2191 11.983 5.6809 11.983 5.34896 11.651C5.01701 11.3191 5.01701 10.7809 5.34896 10.449L7.29792 8.5L5.34896 6.55104C5.01701 6.2191 5.01701 5.6809 5.34896 5.34896C5.68091 5.01701 6.2191 5.01701 6.55104 5.34896L8.5 7.29792L10.449 5.34896C10.7809 5.01701 11.3191 5.01701 11.651 5.34896Z" fill="#CC4B2F"/>
<path fill-rule="evenodd" clip-rule="evenodd" d="M0 8.5C0 13.1944 3.80558 17 8.5 17C13.1944 17 17 13.1944 17 8.5C17 3.80558 13.1944 0 8.5 0C3.80558 0 0 3.80558 0 8.5ZM1.7 8.5C1.7 4.74446 4.74446 1.7 8.5 1.7C12.2555 1.7 15.3 4.74446 15.3 8.5C15.3 12.2555 12.2555 15.3 8.5 15.3C4.74446 15.3 1.7 12.2555 1.7 8.5Z" fill="#CC4B2F"/>
</svg>
