<svg width="41" height="41" viewBox="0 0 41 41" fill="none" xmlns="http://www.w3.org/2000/svg">
<g opacity="0.2">
<path d="M32.5 19.5L19.5 32.5" stroke="#3E5BF1" stroke-width="2" stroke-linecap="round" stroke-linejoin="round"/>
<path d="M34.668 31.418C34.668 33.2129 33.2129 34.668 31.418 34.668C29.623 34.668 28.168 33.2129 28.168 31.418C28.168 29.623 29.623 28.168 31.418 28.168C33.2129 28.168 34.668 29.623 34.668 31.418Z" fill="#3E5BF1"/>
<path d="M23.834 20.584C23.834 22.3789 22.3789 23.834 20.584 23.834C18.7891 23.834 17.334 22.3789 17.334 20.584C17.334 18.7891 18.7891 17.334 20.584 17.334C22.3789 17.334 23.834 18.7891 23.834 20.584Z" fill="#3E5BF1"/>
<path d="M21.6697 8.20383C24.1363 5.99976 27.8649 5.99976 30.3316 8.20383L30.8552 8.67173C31.953 9.65268 33.3514 10.2319 34.8213 10.3145L35.5224 10.354C38.8251 10.5396 41.4616 13.1761 41.6473 16.4788L41.6867 17.18C41.7694 18.6499 42.3486 20.0482 43.3295 21.146L43.7974 21.6697C46.0015 24.1363 46.0015 27.8649 43.7974 30.3316L43.3295 30.8552C42.3486 31.953 41.7694 33.3514 41.6867 34.8213L41.6473 35.5224C41.4616 38.8251 38.8251 41.4616 35.5224 41.6473L34.8213 41.6867C33.3514 41.7694 31.953 42.3486 30.8552 43.3295L30.3316 43.7974C27.8649 46.0015 24.1363 46.0015 21.6697 43.7974L21.146 43.3295C20.0482 42.3486 18.6499 41.7694 17.18 41.6867L16.4788 41.6473C13.1761 41.4616 10.5396 38.8251 10.354 35.5224L10.3145 34.8213C10.2319 33.3514 9.65268 31.953 8.67173 30.8552L8.20383 30.3316C5.99976 27.8649 5.99976 24.1363 8.20383 21.6697L8.67173 21.146C9.65268 20.0482 10.2319 18.6499 10.3145 17.18L10.354 16.4788C10.5396 13.1761 13.1761 10.5396 16.4788 10.354L17.18 10.3145C18.6499 10.2319 20.0482 9.65268 21.146 8.67173L21.6697 8.20383Z" stroke="#3E5BF1" stroke-width="2"/>
</g>
</svg>
