<svg width="18" height="22" viewBox="0 0 18 22" fill="none" xmlns="http://www.w3.org/2000/svg">
<path fill-rule="evenodd" clip-rule="evenodd" d="M3.33333 21.5H15C15.6188 21.5 16.2123 21.2542 16.6499 20.8166C17.0875 20.379 17.3333 19.7855 17.3333 19.1667V6.33333H12.6667C12.3572 6.33333 12.0605 6.21042 11.8417 5.99162C11.6229 5.77283 11.5 5.47609 11.5 5.16667V0.5H3.33333C2.71449 0.5 2.121 0.745833 1.68342 1.18342C1.24583 1.621 1 2.21449 1 2.83333V19.1667C1 19.7855 1.24583 20.379 1.68342 20.8166C2.121 21.2542 2.71449 21.5 3.33333 21.5Z" fill="white"/>
<path d="M11.5 0.5V5.16667C11.5 5.47609 11.6229 5.77283 11.8417 5.99162C12.0605 6.21042 12.3572 6.33333 12.6667 6.33333H17.3333M11.5 0.5H3.33333C2.71449 0.5 2.121 0.745833 1.68342 1.18342C1.24583 1.621 1 2.21449 1 2.83333V19.1667C1 19.7855 1.24583 20.379 1.68342 20.8166C2.121 21.2542 2.71449 21.5 3.33333 21.5H15C15.6188 21.5 16.2123 21.2542 16.6499 20.8166C17.0875 20.379 17.3333 19.7855 17.3333 19.1667V6.33333M11.5 0.5L17.3333 6.33333" stroke="#595C68" stroke-linecap="round" stroke-linejoin="round"/>
</svg>
