<svg width="24" height="24" viewBox="0 0 24 24" fill="none" xmlns="http://www.w3.org/2000/svg">
<path fill-rule="evenodd" clip-rule="evenodd" d="M12 4C9.03888 4 6.4535 5.60879 5.07026 8L3 8C2.66553 8 2.35321 8.16722 2.16777 8.44558C1.98233 8.72394 1.94834 9.07657 2.07718 9.38523L3.14962 11.9543L2.07253 14.6261C1.94829 14.9343 1.98526 15.2841 2.17118 15.5595C2.35711 15.8349 2.6677 16 3 16H5.07026C6.4535 18.3912 9.03888 20 12 20C14.9611 20 17.5465 18.3912 18.9297 16H21C21.3351 16 21.6479 15.8322 21.8332 15.553C22.0185 15.2738 22.0516 14.9204 21.9215 14.6116L20.8065 11.9662L21.9165 9.42302C22.0512 9.11433 22.0215 8.75854 21.8374 8.47648C21.6534 8.19441 21.3397 8.02396 21.0028 8.02301C20.2089 8.02076 19.8269 8.01877 19.6492 8.01694L19.6347 8.01678C19.6241 8.01546 19.6168 8.01475 19.614 8.01447L19.613 8.01437C19.5929 8.01232 19.5764 8.01123 19.5677 8.0107C19.5217 8.00791 19.4513 8.007 19.3714 8.00617C19.2806 8.00524 19.1417 8.00428 18.9317 8.00329C17.5489 5.61027 14.9625 4 12 4ZM6 12C6 8.68629 8.6863 6 12 6C15.3137 6 18 8.68629 18 12C18 15.3137 15.3137 18 12 18C8.6863 18 6 15.3137 6 12ZM15.308 10.5892C15.6334 10.1429 15.5354 9.51738 15.0892 9.19199C14.6429 8.8666 14.0174 8.96458 13.692 9.41083L11.5506 12.3476L10.7841 11.3793C10.4412 10.9463 9.81232 10.8731 9.3793 11.216C8.94629 11.5588 8.87315 12.1877 9.21596 12.6207L10.7993 14.6207C10.9933 14.8657 11.2907 15.006 11.6031 14.9998C11.9156 14.9936 12.2072 14.8417 12.3913 14.5892L15.308 10.5892ZM19.4192 8.01478L19.4145 8.01518C19.4354 8.01299 19.442 8.01292 19.4192 8.01478Z" fill="#82879E"/>
</svg>
