<svg width="20" height="20" viewBox="0 0 20 20" fill="none" xmlns="http://www.w3.org/2000/svg">
<path fill-rule="evenodd" clip-rule="evenodd" d="M1.66406 9.99984C1.66406 14.6022 5.39502 18.3332 9.99739 18.3332C14.5998 18.3332 18.3307 14.6022 18.3307 9.99984C18.3307 5.39746 14.5998 1.6665 9.99739 1.6665C5.39502 1.6665 1.66406 5.39746 1.66406 9.99984ZM3.33073 9.99984C3.33073 6.31794 6.3155 3.33317 9.99739 3.33317C13.6793 3.33317 16.6641 6.31794 16.6641 9.99984C16.6641 13.6817 13.6793 16.6665 9.99739 16.6665C6.3155 16.6665 3.33073 13.6817 3.33073 9.99984ZM13.945 8.06294C14.256 7.72367 14.2331 7.19654 13.8938 6.88554C13.5546 6.57455 13.0274 6.59747 12.7164 6.93673L8.77728 11.234L7.30425 9.46635C7.00961 9.11278 6.48414 9.06501 6.13057 9.35965C5.77701 9.65429 5.72924 10.1798 6.02388 10.5333L8.10721 13.0333C8.26114 13.218 8.48735 13.3273 8.72773 13.3329C8.9681 13.3386 9.19922 13.2402 9.36169 13.0629L13.945 8.06294Z" fill="#4CAF50"/>
</svg>
