<svg width="26" height="24" viewBox="0 0 26 24" fill="none" xmlns="http://www.w3.org/2000/svg">
<path fill-rule="evenodd" clip-rule="evenodd" d="M13.9654 4.55282C13.5662 3.81573 12.4267 3.81573 12.0275 4.55282L4.44732 18.5483C4.0872 19.2132 4.61099 19.9954 5.41631 19.9954H20.5766C21.3819 19.9954 21.9057 19.2132 21.5456 18.5483L13.9654 4.55282ZM12.9926 6.81836C12.2853 6.81836 11.7199 7.38466 11.7482 8.0649L11.9816 13.6806C12.0033 14.2029 12.4495 14.6155 12.9926 14.6155C13.5357 14.6155 13.9819 14.2029 14.0037 13.6806L14.237 8.0649C14.2653 7.38467 13.7 6.81836 12.9926 6.81836ZM11.5021 17.5784C11.5021 16.8033 12.155 16.1749 12.9603 16.1749C13.7657 16.1749 14.4186 16.8033 14.4186 17.5784C14.4186 18.3535 13.7657 18.9819 12.9603 18.9819C12.155 18.9819 11.5021 18.3535 11.5021 17.5784Z" fill="#CC4B2F"/>
<path fill-rule="evenodd" clip-rule="evenodd" d="M23.4836 17.6539L15.9034 3.65846C14.7057 1.44719 11.2872 1.44717 10.0895 3.65846L2.50936 17.6539C1.429 19.6486 3.00037 21.9954 5.41631 21.9954H20.5766C22.9925 21.9954 24.5639 19.6486 23.4836 17.6539ZM12.0275 4.55282C12.4267 3.81573 13.5662 3.81573 13.9654 4.55282L21.5456 18.5483C21.9057 19.2132 21.3819 19.9954 20.5766 19.9954H5.41631C4.61099 19.9954 4.0872 19.2132 4.44732 18.5483L12.0275 4.55282Z" fill="#CC4B2F"/>
</svg>
