<svg width="24" height="24" viewBox="0 0 24 24" fill="none" xmlns="http://www.w3.org/2000/svg">
<path fill-rule="evenodd" clip-rule="evenodd" d="M12.8944 5.29806C12.5259 4.63453 11.4741 4.63453 11.1056 5.29806L4.10923 17.8968C3.77684 18.4954 4.2603 19.1996 5.00359 19.1996H18.9964C19.7397 19.1996 20.2232 18.4954 19.8908 17.8968L12.8944 5.29806ZM11.9965 7.33751C11.3436 7.33751 10.8218 7.8473 10.8479 8.45966L11.0633 13.5149C11.0833 13.9851 11.4952 14.3565 11.9965 14.3565C12.4977 14.3565 12.9096 13.9851 12.9296 13.5149L13.1451 8.45966C13.1711 7.84731 12.6493 7.33751 11.9965 7.33751ZM10.6207 17.0238C10.6207 16.326 11.2233 15.7603 11.9667 15.7603C12.71 15.7603 13.3126 16.326 13.3126 17.0238C13.3126 17.7215 12.71 18.2872 11.9667 18.2872C11.2233 18.2872 10.6207 17.7215 10.6207 17.0238Z" fill="#82879E"/>
<path fill-rule="evenodd" clip-rule="evenodd" d="M21.6795 17.0917L14.6831 4.49295C13.5777 2.50236 10.4224 2.50234 9.31692 4.49295L2.32051 17.0917C1.32334 18.8874 2.77371 21 5.00359 21H18.9964C21.2263 21 22.6767 18.8874 21.6795 17.0917ZM11.1056 5.29806C11.4741 4.63453 12.5259 4.63453 12.8944 5.29806L19.8908 17.8968C20.2232 18.4954 19.7397 19.1996 18.9964 19.1996H5.00359C4.2603 19.1996 3.77684 18.4954 4.10923 17.8968L11.1056 5.29806Z" fill="#82879E"/>
</svg>
