<svg width="20" height="20" viewBox="0 0 20 20" fill="none" xmlns="http://www.w3.org/2000/svg">
<path d="M7.34991 4.16602H5.38021C4.91997 4.16602 4.54688 4.53911 4.54688 4.99935V14.9993C4.54688 15.4596 4.91997 15.8327 5.38021 15.8327H7.34991C7.81014 15.8327 8.18324 15.4596 8.18324 14.9993V4.99935C8.18324 4.53911 7.81014 4.16602 7.34991 4.16602Z" stroke="#82879E" stroke-width="1.75" stroke-linecap="round" stroke-linejoin="round"/>
<path d="M14.6215 4.16602L12.6529 4.16587C12.1927 4.16587 11.8196 4.53896 11.8196 4.9992V14.9992C11.8196 15.4594 12.1927 15.8325 12.6529 15.8325L14.6215 15.8327C15.0817 15.8327 15.4548 15.4596 15.4548 14.9993V4.99935C15.4548 4.53911 15.0817 4.16602 14.6215 4.16602Z" stroke="#82879E" stroke-width="1.75" stroke-linecap="round" stroke-linejoin="round"/>
</svg>
