<svg width="20" height="20" viewBox="0 0 20 20" fill="none" xmlns="http://www.w3.org/2000/svg">
<path fill-rule="evenodd" clip-rule="evenodd" d="M10.0013 18.3327C5.39893 18.3327 1.66797 14.6017 1.66797 9.99935C1.66797 5.39698 5.39893 1.66602 10.0013 1.66602C14.6037 1.66602 18.3346 5.39698 18.3346 9.99935C18.3346 14.6017 14.6037 18.3327 10.0013 18.3327ZM10.0013 3.33268C6.3194 3.33268 3.33464 6.31745 3.33464 9.99935C3.33464 13.6812 6.3194 16.666 10.0013 16.666C13.6832 16.666 16.668 13.6812 16.668 9.99935C16.668 6.31745 13.6832 3.33268 10.0013 3.33268ZM8.33464 5.83268C8.33464 5.37244 8.70773 4.99935 9.16797 4.99935H11.043C12.7689 4.99935 14.168 6.39846 14.168 8.12435C14.168 9.85024 12.7689 11.2493 11.043 11.2493H10.0013V12.0827H11.668C12.1282 12.0827 12.5013 12.4558 12.5013 12.916C12.5013 13.3763 12.1282 13.7493 11.668 13.7493H10.0013V14.5827C10.0013 15.0429 9.62821 15.416 9.16797 15.416C8.70773 15.416 8.33464 15.0429 8.33464 14.5827V13.7493H6.66797C6.20773 13.7493 5.83464 13.3763 5.83464 12.916C5.83464 12.4558 6.20773 12.0827 6.66797 12.0827H8.33464V11.2493H6.66797C6.20773 11.2493 5.83464 10.8763 5.83464 10.416C5.83464 9.95578 6.20773 9.58268 6.66797 9.58268H8.33464V5.83268ZM10.0013 9.58268H11.043C11.8484 9.58268 12.5013 8.92976 12.5013 8.12435C12.5013 7.31893 11.8484 6.66602 11.043 6.66602H10.0013V9.58268Z" fill="#82879E"/>
</svg>
