<svg width="56" height="38" viewBox="0 0 56 38" fill="none" xmlns="http://www.w3.org/2000/svg">
<rect width="56" height="38" rx="6" fill="#F4F6FA"/>
<path fill-rule="evenodd" clip-rule="evenodd" d="M15.8534 12.9275C15.4067 13.4703 14.692 13.8985 13.9772 13.8373C13.8879 13.1033 14.2378 12.3234 14.6473 11.8418C15.094 11.2836 15.8757 10.8861 16.5086 10.8555C16.583 11.62 16.2927 12.3693 15.8534 12.9275ZM16.4988 13.9824C15.8691 13.9452 15.2945 14.1769 14.8305 14.364C14.5318 14.4845 14.2789 14.5864 14.0865 14.5864C13.8706 14.5864 13.6073 14.479 13.3116 14.3584C12.9242 14.2003 12.4813 14.0196 12.0168 14.0283C10.9521 14.0436 9.9619 14.6629 9.4184 15.6492C8.30163 17.6218 9.12804 20.5424 10.2076 22.148C10.7362 22.9432 11.369 23.8148 12.2029 23.7842C12.5697 23.77 12.8336 23.655 13.1067 23.536C13.4212 23.399 13.7478 23.2567 14.2578 23.2567C14.7501 23.2567 15.0624 23.3953 15.3622 23.5283C15.6473 23.6549 15.9211 23.7764 16.3275 23.7689C17.1912 23.7536 17.7347 22.9738 18.2633 22.1786C18.8337 21.3252 19.0844 20.4923 19.1225 20.3659L19.1269 20.3513C19.126 20.3504 19.119 20.347 19.1065 20.3412C18.9158 20.2515 17.4583 19.5663 17.4443 17.7288C17.4303 16.1865 18.6004 15.4051 18.7846 15.2821L18.7846 15.2821C18.7958 15.2746 18.8034 15.2695 18.8068 15.2669C18.0623 14.1353 16.9008 14.013 16.4988 13.9824ZM22.4756 23.6852V11.7655H26.8311C29.0795 11.7655 30.6505 13.3558 30.6505 15.6801C30.6505 18.0044 29.0497 19.61 26.7715 19.61H24.2774V23.6852H22.4756ZM24.2781 13.3249H26.3553C27.9187 13.3249 28.8122 14.1812 28.8122 15.6874C28.8122 17.1936 27.9187 18.0576 26.3478 18.0576H24.2781V13.3249ZM36.5981 22.2553C36.1216 23.1881 35.0719 23.7768 33.9402 23.7768C32.265 23.7768 31.0961 22.7523 31.0961 21.2079C31.0961 19.6787 32.2278 18.7995 34.3199 18.6695L36.5683 18.5319V17.8744C36.5683 16.9034 35.9504 16.3758 34.8485 16.3758C33.9402 16.3758 33.2776 16.8575 33.1436 17.5915H31.5205C31.5726 16.047 32.9872 14.9231 34.9006 14.9231C36.9629 14.9231 38.3031 16.0317 38.3031 17.752V23.6851H36.6354V22.2553H36.5981ZM34.429 22.3623C33.4685 22.3623 32.858 21.8883 32.858 21.1619C32.858 20.4126 33.4462 19.9768 34.5704 19.908L36.5732 19.7781V20.4509C36.5732 21.5671 35.65 22.3623 34.429 22.3623ZM43.833 24.1515C43.1108 26.2388 42.2844 26.9269 40.5273 26.9269C40.3933 26.9269 39.9466 26.9116 39.8424 26.8811V25.4513C39.9541 25.4666 40.2295 25.4819 40.371 25.4819C41.1676 25.4819 41.6143 25.1378 41.8898 24.2433L42.0536 23.7157L39.0011 15.0379H40.8847L43.0066 22.0796H43.0438L45.1657 15.0379H46.9972L43.833 24.1515Z" fill="#1E1F23"/>
</svg>
