<svg width="84" height="28" viewBox="0 0 84 28" fill="none" xmlns="http://www.w3.org/2000/svg">
<g clip-path="url(#clip0_3407_22750)">
<path d="M1.76761 6.0009C1.74848 5.73085 1.95423 5.4966 2.22719 5.47765L42.4951 2.68481C42.768 2.66588 43.0049 2.86945 43.024 3.13949L43.1043 4.27262C43.2669 5.65585 43.7709 6.5433 44.3355 7.53735C45.0043 8.7149 45.758 10.042 46.1301 12.5203C46.186 12.7725 46.2269 13.0663 46.2509 13.4052C46.2589 13.5182 46.2659 13.6294 46.2721 13.7387C46.2814 13.8478 46.2901 13.9589 46.2981 14.0719C46.3222 14.4108 46.3231 14.7073 46.3033 14.9648C46.2844 17.4702 45.7252 18.8884 45.229 20.1468C44.8102 21.209 44.4362 22.1573 44.4703 23.5495L44.5506 24.6829C44.5697 24.953 44.3639 25.1872 44.091 25.2061L3.82305 27.999C3.5501 28.0179 3.31331 27.8144 3.29418 27.5443L3.22366 26.5491C3.05986 25.1452 2.55474 24.2445 1.98888 23.2354C1.31888 22.0407 0.563731 20.6942 0.18921 18.1808C0.133033 17.9249 0.0918727 17.627 0.0675163 17.2832C0.0593966 17.1687 0.0522379 17.056 0.0460064 16.9451C0.036539 16.8344 0.027733 16.7218 0.0196133 16.6072C-0.00474298 16.2635 -0.00600297 15.9628 0.0135436 15.7017C0.0299415 13.1612 0.587803 11.7236 1.08276 10.448C1.50079 9.3708 1.87394 8.4092 1.83815 6.9964L1.76761 6.0009Z" fill="#27CBF0"/>
<path d="M50.4162 2.71578C52.1698 1.24106 54.6893 1.06632 56.6339 2.28454C57.3509 2.73378 58.1677 3.00461 59.0137 3.07383C61.305 3.26135 63.2117 4.9083 63.7172 7.12745C63.904 7.94735 64.289 8.714 64.8376 9.3557C66.3263 11.0967 66.5029 13.5927 65.2748 15.5222C64.8219 16.2334 64.5486 17.0456 64.4793 17.8833C64.2916 20.1505 62.6364 22.0445 60.3937 22.5465C59.5658 22.7318 58.7951 23.1128 58.1484 23.6566C56.3946 25.1313 53.8751 25.3061 51.9304 24.0878C51.2134 23.6386 50.3968 23.3678 49.5509 23.2985C47.2594 23.111 45.3529 21.4641 44.8472 19.2449C44.6604 18.425 44.2754 17.6584 43.7268 17.0167C42.2384 15.2757 42.0615 12.7796 43.2898 10.8502C43.7426 10.139 44.0157 9.32675 44.0851 8.4891C44.2729 6.22185 45.9284 4.32783 48.1711 3.82583C48.9989 3.64053 49.7694 3.25961 50.4162 2.71578Z" fill="#9752FF"/>
<path fill-rule="evenodd" clip-rule="evenodd" d="M83.6223 15.8288C83.5924 15.411 83.5777 15.202 83.5297 15.0626C83.4517 14.837 83.4912 14.9081 83.3409 14.722C83.2478 14.6071 82.759 14.2492 81.7818 13.5334C81.1944 13.1034 80.7936 12.4305 80.7384 11.6517C80.6833 10.873 80.9854 10.1513 81.5061 9.64445C82.3729 8.8007 82.8065 8.37885 82.8825 8.2522C83.0049 8.0472 82.9761 8.123 83.0211 7.8889C83.0489 7.74425 83.0343 7.53535 83.0049 7.11745L82.6218 1.7123C82.5768 1.08164 82.5545 0.76631 82.4139 0.534015C82.2899 0.32968 82.1042 0.16946 81.8831 0.0763155C81.6316 -0.0295749 81.3133 -0.00752549 80.6777 0.0365735L64.4839 1.15972C63.8478 1.20382 63.5301 1.22588 63.2958 1.36545C63.0898 1.48822 62.9284 1.67254 62.8343 1.89197C62.728 2.14144 62.7503 2.45676 62.7948 3.08742L63.1779 8.4926C63.2077 8.91045 63.2224 9.1194 63.2705 9.25875C63.3484 9.4843 63.3089 9.41325 63.4592 9.59935C63.5518 9.7143 64.0406 10.0722 65.0183 10.788C65.6053 11.218 66.006 11.891 66.0612 12.6697C66.1169 13.4484 65.8148 14.1701 65.2936 14.677C64.4267 15.5207 63.9931 15.9426 63.9177 16.0692C63.7947 16.2742 63.8241 16.1984 63.7785 16.4325C63.7507 16.5772 63.7654 16.7861 63.7952 17.204L64.1353 22.0054C64.1803 22.636 64.2026 22.9513 64.3432 23.1836C64.4672 23.388 64.6529 23.5482 64.8741 23.6413C65.1256 23.7472 65.4438 23.7252 66.0794 23.6811L82.2732 22.5579C82.9093 22.5138 83.2271 22.4918 83.4613 22.3522C83.6673 22.2295 83.8287 22.0451 83.9228 21.8257C84.0291 21.5763 84.0068 21.2609 83.9623 20.6303L83.6223 15.8288Z" fill="#FB2386"/>
<path d="M67.9834 19.9498L80.2873 19.0965L80.0176 15.296L72.1631 15.8408L72.0224 13.8561L79.3876 13.3453L79.1184 9.54479L71.7527 10.0556L71.6151 8.11319L79.3851 7.57429L79.1174 3.79492L66.8984 4.64237L67.9834 19.9498Z" fill="white"/>
<path d="M46.5104 13.7019C46.8635 18.6848 50.0561 21.4762 54.8669 21.1426C58.8478 20.8665 61.7103 18.3976 62.0524 14.4699L57.6885 14.7726C57.4724 16.2516 56.3718 17.3251 54.754 17.4373C52.817 17.5717 51.3546 16.2515 51.1511 13.3801C50.9492 10.5297 52.2112 9.02059 54.1483 8.88624C55.7661 8.77404 56.939 9.62628 57.3641 11.1032L61.7493 10.7991C60.8582 6.97803 57.6966 4.92705 53.7374 5.20168C48.9265 5.53533 46.1588 8.74018 46.5104 13.7019Z" fill="white"/>
<path d="M4.57812 8.92871L5.66283 24.2362L10.1118 23.9277L9.75869 18.9448L11.5894 18.8178C15.6126 18.5388 18.5651 17.3368 18.2703 13.1774C17.9756 9.01796 14.881 8.21416 10.8578 8.49321L4.57812 8.92871ZM11.5151 12.0334C12.7923 11.9448 13.5717 12.3787 13.651 13.4978C13.7289 14.5957 13.0182 15.133 11.741 15.2216L9.50588 15.3766L9.27994 12.1884L11.5151 12.0334Z" fill="white"/>
<path d="M30.0213 22.6267L35.0237 22.2797L30.9255 16.3685C32.4909 15.5173 33.5279 14.1511 33.3723 11.9553C33.0925 8.00695 30.0009 7.24535 25.9564 7.5259L19.5703 7.9688L20.655 23.2763L25.104 22.9677L24.7224 17.5837L26.5531 17.4568L30.0213 22.6267ZM26.7201 11.0587C28.0186 10.9686 28.6823 11.5804 28.7437 12.446C28.805 13.3117 28.2326 13.9879 26.9341 14.078L24.4861 14.2478L24.2721 11.2285L26.7201 11.0587Z" fill="white"/>
<path d="M40.2341 6.50977L35.7852 6.81832L36.8698 22.1258L41.3188 21.8173L40.2341 6.50977Z" fill="white"/>
</g>
<defs>
<clipPath id="clip0_3407_22750">
<rect width="84" height="28" fill="white"/>
</clipPath>
</defs>
</svg>
