<svg width="20" height="20" viewBox="0 0 20 20" fill="none" xmlns="http://www.w3.org/2000/svg">
<path d="M12.5 8.94703C12.9234 9.31812 13.6001 8.75287 13.8093 8.35698L12.4409 7.20904C12.3935 7.42302 12.3187 7.62669 12.2203 7.81617C12.1988 7.85757 12.1762 7.8983 12.1525 7.9383C12.0608 8.16383 12.052 8.55439 12.5 8.94703Z" fill="#82879E"/>
<path d="M5.83333 1.66602L7.51246 3.33268H7.82007L5.83333 1.66602Z" fill="#82879E"/>
<path fill-rule="evenodd" clip-rule="evenodd" d="M5.83333 1.66602C5.3731 1.66602 5 2.03911 5 2.49935C5 2.95959 5.3731 3.33268 5.83333 3.33268V6.24935V6.66602C5.83333 8.02902 6.48779 9.23916 7.4996 9.99935C6.48779 10.7595 5.83333 11.9697 5.83333 13.3327V13.7493V16.666C5.3731 16.666 5 17.0391 5 17.4993C5 17.9596 5.3731 18.3327 5.83333 18.3327H7.5C8.18182 18.3327 8.18182 17.7265 8.18182 17.4993C8.18182 17.4725 8.18393 17.4404 8.18629 17.4046C8.20387 17.1375 8.2349 16.666 7.5 16.666V14.9993V13.7493V13.3327C7.5 12.3686 8.04573 11.5319 8.84513 11.1148C8.89405 11.0893 8.94392 11.0654 8.99467 11.043C9.23572 10.8974 9.54545 10.569 9.54545 9.9992C9.54545 9.44685 9.23137 9.10909 8.9752 8.947C8.91196 8.91854 8.85012 8.88753 8.78981 8.8541C8.02066 8.42779 7.5 7.60771 7.5 6.66602V6.24935V4.99935V3.33268H7.51246L5.83333 1.66602ZM5.83333 1.66602H7.5H12.5H14.1667C14.6269 1.66602 15 2.03911 15 2.49935C15 2.95959 14.6269 3.33268 14.1667 3.33268V6.24935V6.66602C14.1667 7.26802 14.039 7.84021 13.8093 8.35698L12.4409 7.20904C12.4796 7.03421 12.5 6.8525 12.5 6.66602V6.24935V4.99935V3.33268H10.8333H9.16667H7.82007L5.83333 1.66602ZM10 9.16601C10.0356 9.16601 10.071 9.16527 10.1063 9.1638C10.0681 9.1624 10.0323 9.16331 10 9.16601Z" fill="#82879E"/>
<path d="M9.41992 14.0153C9.55403 12.9922 10.0564 12.053 10.833 11.3736C11.6096 10.6942 12.6072 10.3212 13.639 10.3242C14.6709 10.3273 15.6662 10.7064 16.4388 11.3904C17.2113 12.0744 17.708 13.0166 17.836 14.0404C17.964 15.0643 17.7145 16.0997 17.1341 16.9529C16.5537 17.806 15.6823 18.4184 14.6829 18.6754C13.6836 18.9324 12.6249 18.8163 11.7049 18.349C10.785 17.8817 10.0669 17.0951 9.68507 16.1365M9.41992 18.788V16.1365H12.0714" stroke="#94969F" stroke-width="1.75" stroke-linecap="round" stroke-linejoin="round"/>
</svg>
