<svg width="30" height="30" viewBox="0 0 30 30" fill="none" xmlns="http://www.w3.org/2000/svg">
<path fill-rule="evenodd" clip-rule="evenodd" d="M5 15C5 9.47715 9.47715 5 15 5C20.5228 5 25 9.47715 25 15C25 20.5228 20.5228 25 15 25C9.47715 25 5 20.5228 5 15ZM15.0006 8.4467C15.6909 8.4467 16.2506 9.00634 16.2506 9.6967V13.75H20.3033C20.9937 13.75 21.5533 14.3096 21.5533 15C21.5533 15.6904 20.9937 16.25 20.3033 16.25H16.2506V20.3033C16.2506 20.9937 15.6909 21.5533 15.0006 21.5533C14.3102 21.5533 13.7506 20.9937 13.7506 20.3033V16.25H9.6967C9.00634 16.25 8.4467 15.6904 8.4467 15C8.4467 14.3096 9.00634 13.75 9.6967 13.75H13.7506V9.6967C13.7506 9.00634 14.3102 8.4467 15.0006 8.4467Z" fill="#3E5BF1"/>
<path fill-rule="evenodd" clip-rule="evenodd" d="M2.5 15C2.5 21.9036 8.09644 27.5 15 27.5C21.9036 27.5 27.5 21.9036 27.5 15C27.5 8.09644 21.9036 2.5 15 2.5C8.09644 2.5 2.5 8.09644 2.5 15ZM5 15C5 9.47715 9.47715 5 15 5C20.5228 5 25 9.47715 25 15C25 20.5228 20.5228 25 15 25C9.47715 25 5 20.5228 5 15Z" fill="#3E5BF1"/>
</svg>
