<svg width="16" height="16" viewBox="0 0 16 16" fill="none" xmlns="http://www.w3.org/2000/svg">
<path fill-rule="evenodd" clip-rule="evenodd" d="M8.0013 10.6666C7.47989 10.6666 7.06182 10.7018 6.70513 10.754C5.2348 10.9693 4.0013 12.4652 4.0013 13.9999C4.0013 14.3681 3.70283 14.6666 3.33464 14.6666C2.96645 14.6666 2.66797 14.3681 2.66797 13.9999C2.66797 12.2712 3.75126 10.5732 5.30737 9.81096C4.11377 8.9657 3.33464 7.57379 3.33464 5.99992C3.33464 3.42259 5.42397 1.33325 8.0013 1.33325C10.5786 1.33325 12.668 3.42259 12.668 5.99992C12.668 7.57379 11.8888 8.9657 10.6952 9.81096C12.2513 10.5732 13.3346 12.2712 13.3346 13.9999C13.3346 14.3681 13.0362 14.6666 12.668 14.6666C12.2998 14.6666 12.0013 14.3681 12.0013 13.9999C12.0013 12.4652 10.7678 10.9693 9.29748 10.754C8.94078 10.7018 8.52272 10.6666 8.0013 10.6666ZM8.0013 9.33325C6.16035 9.33325 4.66797 7.84087 4.66797 5.99992C4.66797 4.15897 6.16035 2.66659 8.0013 2.66659C9.84225 2.66659 11.3346 4.15897 11.3346 5.99992C11.3346 7.84087 9.84225 9.33325 8.0013 9.33325Z" fill="#3E5BF1"/>
</svg>
