<svg width="32" height="32" viewBox="0 0 32 32" fill="none" xmlns="http://www.w3.org/2000/svg">
<g clip-path="url(#clip0_3407_26292)">
<path d="M16 32C24.8366 32 32 24.8366 32 16C32 7.16344 24.8366 0 16 0C7.16344 0 0 7.16344 0 16C0 24.8366 7.16344 32 16 32Z" fill="#4065D6"/>
<path d="M23.3783 20.5727C23.0036 20.6253 21.1825 20.5727 21.0878 20.5727C20.617 20.5775 20.1632 20.3967 19.8246 20.0695C19.4393 19.699 19.092 19.2906 18.7236 18.9053C18.6117 18.7879 18.4914 18.6788 18.3636 18.579C18.0625 18.3495 17.7657 18.4022 17.6246 18.7558C17.5141 19.1392 17.438 19.5316 17.3972 19.9285C17.3907 20.0956 17.318 20.2534 17.1953 20.3671C17.0725 20.4807 16.9097 20.5411 16.7425 20.5348C16.4941 20.5474 16.2457 20.5537 15.9993 20.5474C15.1033 20.5428 14.2211 20.3264 13.4246 19.9158C12.5648 19.4354 11.8153 18.7798 11.2246 17.9916C10.2795 16.7437 9.46275 15.4036 8.78671 13.9916C8.75092 13.9201 8.04145 12.4106 8.02461 12.3411C7.98062 12.2422 7.97642 12.1301 8.01288 12.0282C8.04934 11.9263 8.12365 11.8423 8.2204 11.7937C8.34671 11.7453 10.6857 11.7937 10.7236 11.7937C10.8977 11.7921 11.0679 11.8461 11.2091 11.948C11.3504 12.0499 11.4554 12.1943 11.5088 12.3601C11.9414 13.4629 12.5321 14.4969 13.2625 15.4295C13.3644 15.5552 13.4843 15.6652 13.6183 15.7558C13.6528 15.7892 13.6957 15.8127 13.7423 15.8239C13.789 15.8352 13.8378 15.8338 13.8838 15.8198C13.9297 15.8059 13.9711 15.7799 14.0036 15.7446C14.0361 15.7093 14.0587 15.6659 14.0688 15.619C14.1613 15.3146 14.2158 14.9999 14.2309 14.6822C14.2436 14.0506 14.2309 13.6295 14.1951 12.9979C14.2079 12.7827 14.1352 12.5712 13.9929 12.4092C13.8506 12.2472 13.6502 12.1478 13.4351 12.1327C13.2499 12.1011 13.2246 11.9495 13.353 11.7979C13.5993 11.4843 13.9404 11.4337 14.3109 11.4148C14.8709 11.3832 15.433 11.4148 15.9951 11.4148H16.1172C16.364 11.4142 16.6102 11.4389 16.852 11.4885C16.9933 11.5174 17.1216 11.5913 17.2175 11.699C17.3135 11.8068 17.3721 11.9426 17.3846 12.0864C17.413 12.2454 17.4257 12.4069 17.4225 12.5685C17.4078 13.2569 17.3741 13.9453 17.3657 14.6358C17.3606 14.9086 17.3853 15.1811 17.4393 15.4485C17.5214 15.8148 17.772 15.9074 18.0288 15.6401C18.3489 15.2965 18.6424 14.9291 18.9067 14.5411C19.3821 13.8346 19.7735 13.0751 20.073 12.2779C20.2351 11.8695 20.3593 11.779 20.7993 11.779H23.2814C23.4295 11.7765 23.5772 11.7964 23.7193 11.8379C23.7695 11.8513 23.8164 11.8749 23.8571 11.9071C23.8978 11.9394 23.9314 11.9797 23.9559 12.0255C23.9804 12.0713 23.9952 12.1216 23.9994 12.1734C24.0036 12.2251 23.9972 12.2772 23.9804 12.3264C23.8353 12.8545 23.5862 13.3484 23.2478 13.779C22.7425 14.4927 22.212 15.1895 21.6941 15.8843C21.6285 15.9752 21.5688 16.0701 21.5151 16.1685C21.3214 16.518 21.3362 16.7158 21.6162 17.0106C22.0667 17.4737 22.5488 17.9095 22.9825 18.3853C23.3023 18.732 23.5912 19.1061 23.8457 19.5032C24.1657 20.0169 23.9699 20.4885 23.3783 20.5727Z" fill="white"/>
</g>
<defs>
<clipPath id="clip0_3407_26292">
<rect width="32" height="32" fill="white"/>
</clipPath>
</defs>
</svg>
