<svg width="34" height="34" viewBox="0 0 34 34" fill="none" xmlns="http://www.w3.org/2000/svg">
<path fill-rule="evenodd" clip-rule="evenodd" d="M17 4C12.2622 4 8.1256 6.61429 5.91242 10.5L2.60001 10.5C2.06485 10.5 1.56513 10.7717 1.26843 11.2241C0.971729 11.6764 0.917336 12.2494 1.12349 12.751L2.83939 16.9257L1.11605 21.2674C0.91726 21.7683 0.976412 22.3367 1.27389 22.7842C1.57138 23.2318 2.06833 23.5 2.60001 23.5H5.91242C8.1256 27.3857 12.2622 30 17 30C21.7378 30 25.8744 27.3857 28.0876 23.5H31.4C31.9361 23.5 32.4366 23.2273 32.7331 22.7736C33.0296 22.3199 33.0826 21.7456 32.8744 21.2439L31.0904 16.9451L32.8664 12.8124C33.082 12.3108 33.0344 11.7326 32.7399 11.2743C32.4454 10.8159 31.9434 10.5389 31.4045 10.5374C30.1342 10.5337 29.523 10.5305 29.2387 10.5275L29.2155 10.5273C29.1985 10.5251 29.1869 10.524 29.1823 10.5235L29.1807 10.5234C29.1486 10.52 29.1222 10.5183 29.1083 10.5174C29.0347 10.5128 28.9221 10.5114 28.7943 10.51C28.649 10.5085 28.4268 10.507 28.0906 10.5053C25.8782 6.61669 21.74 4 17 4ZM7.40001 17C7.40001 11.6152 11.6981 7.25 17 7.25C22.3019 7.25 26.6 11.6152 26.6 17C26.6 22.3848 22.3019 26.75 17 26.75C11.6981 26.75 7.40001 22.3848 7.40001 17ZM22.2928 14.7074C22.8134 13.9822 22.6567 12.9657 21.9427 12.437C21.2287 11.9082 20.2278 12.0674 19.7072 12.7926L16.281 17.5648L15.0545 15.9914C14.506 15.2877 13.4997 15.1689 12.8069 15.7259C12.1141 16.283 11.997 17.305 12.5455 18.0086L15.0789 21.2586C15.3892 21.6568 15.8651 21.8847 16.365 21.8747C16.865 21.8646 17.3315 21.6178 17.6261 21.2074L22.2928 14.7074ZM28.8707 10.524L28.8631 10.5247C28.8967 10.5211 28.9072 10.521 28.8707 10.524Z" fill="white"/>
</svg>
