<svg width="34" height="34" viewBox="0 0 34 34" fill="none" xmlns="http://www.w3.org/2000/svg">
<path fill-rule="evenodd" clip-rule="evenodd" d="M2.83203 4.24992C2.83203 3.46752 3.46629 2.83325 4.2487 2.83325H9.91537C10.6978 2.83325 11.332 3.46752 11.332 4.24992C11.332 5.03232 10.6978 5.66659 9.91537 5.66659H5.66536V9.91659C5.66536 10.699 5.0311 11.3333 4.2487 11.3333C3.46629 11.3333 2.83203 10.699 2.83203 9.91659V4.24992ZM16.9987 18.4166H16.7963C14.5609 18.4166 12.7487 20.2288 12.7487 22.4642V24.0833C12.7487 24.8657 12.1144 25.4999 11.332 25.4999C10.5496 25.4999 9.91537 24.8657 9.91537 24.0833V22.4642C9.91537 20.0776 11.1304 17.9748 12.9756 16.7406C11.9596 15.7165 11.332 14.3065 11.332 12.7499C11.332 9.62031 13.8691 7.08325 16.9987 7.08325C20.1283 7.08325 22.6654 9.62031 22.6654 12.7499C22.6654 14.3065 22.0378 15.7165 21.0218 16.7406C22.867 17.9748 24.082 20.0776 24.082 22.4642V24.0833C24.082 24.8657 23.4478 25.4999 22.6654 25.4999C21.883 25.4999 21.2487 24.8657 21.2487 24.0833V22.4642C21.2487 20.2288 19.4365 18.4166 17.2011 18.4166H16.9987ZM16.9987 15.5833C15.4339 15.5833 14.1654 14.3147 14.1654 12.7499C14.1654 11.1851 15.4339 9.91659 16.9987 9.91659C18.5635 9.91659 19.832 11.1851 19.832 12.7499C19.832 14.3147 18.5635 15.5833 16.9987 15.5833ZM29.7487 2.83325C30.5311 2.83325 31.1654 3.46752 31.1654 4.24992V9.91659C31.1654 10.699 30.5311 11.3333 29.7487 11.3333C28.9663 11.3333 28.332 10.699 28.332 9.91659V5.66659H24.082C23.2996 5.66659 22.6654 5.03232 22.6654 4.24992C22.6654 3.46752 23.2996 2.83325 24.082 2.83325H29.7487ZM2.83203 29.7499C2.83203 30.5323 3.46629 31.1666 4.2487 31.1666H9.91537C10.6978 31.1666 11.332 30.5323 11.332 29.7499C11.332 28.9675 10.6978 28.3333 9.91537 28.3333H5.66536V24.0833C5.66536 23.3008 5.0311 22.6666 4.2487 22.6666C3.46629 22.6666 2.83203 23.3008 2.83203 24.0833V29.7499ZM29.7487 31.1666C30.5311 31.1666 31.1654 30.5323 31.1654 29.7499V24.0833C31.1654 23.3008 30.5311 22.6666 29.7487 22.6666C28.9663 22.6666 28.332 23.3008 28.332 24.0833V28.3333H24.082C23.2996 28.3333 22.6654 28.9675 22.6654 29.7499C22.6654 30.5323 23.2996 31.1666 24.082 31.1666H29.7487Z" fill="white"/>
</svg>
