<svg width="34" height="34" viewBox="0 0 34 34" fill="none" xmlns="http://www.w3.org/2000/svg">
<path fill-rule="evenodd" clip-rule="evenodd" d="M8.5 26.9166L9.91667 26.9166C9.91667 29.2638 11.8195 31.1666 14.1667 31.1666H25.5C27.8472 31.1666 29.75 29.2638 29.75 26.9166V11.3333C29.75 8.98604 27.8472 7.08325 25.5 7.08325C25.5 4.73604 23.5972 2.83325 21.25 2.83325H8.5C6.15279 2.83325 4.25 4.73604 4.25 7.08325L4.25 22.6666C4.25 25.0138 6.15279 26.9166 8.5 26.9166ZM11.3333 24.0833H11.3355L21.25 24.0833C22.0324 24.0833 22.6667 23.449 22.6667 22.6666L22.6667 8.49992V7.08325C22.6667 6.30085 22.0324 5.66659 21.25 5.66659L8.5 5.66659C7.7176 5.66659 7.08334 6.30085 7.08334 7.08325L7.08333 22.6666C7.08333 23.449 7.7176 24.0833 8.5 24.0833H11.3311H11.3333ZM26.9167 11.3333C26.9167 10.5508 26.2824 9.91659 25.5 9.91659L25.5 22.6666C25.5 25.0138 23.5972 26.9166 21.25 26.9166L12.75 26.9166C12.75 27.699 13.3843 28.3333 14.1667 28.3333H25.5C26.2824 28.3333 26.9167 27.699 26.9167 26.9166V11.3333ZM18.4167 8.49992C19.1991 8.49992 19.8333 9.13418 19.8333 9.91659C19.8333 10.699 19.1991 11.3333 18.4167 11.3333H11.3333C10.5509 11.3333 9.91667 10.699 9.91667 9.91659C9.91667 9.13418 10.5509 8.49992 11.3333 8.49992H18.4167ZM19.8333 14.8749C19.8333 14.0925 19.1991 13.4583 18.4167 13.4583H11.3333C10.5509 13.4583 9.91667 14.0925 9.91667 14.8749C9.91667 15.6573 10.5509 16.2916 11.3333 16.2916H18.4167C19.1991 16.2916 19.8333 15.6573 19.8333 14.8749ZM18.4167 18.4166C19.1991 18.4166 19.8333 19.0508 19.8333 19.8333C19.8333 20.6157 19.1991 21.2499 18.4167 21.2499H11.3333C10.5509 21.2499 9.91667 20.6157 9.91667 19.8333C9.91667 19.0508 10.5509 18.4166 11.3333 18.4166H18.4167Z" fill="white"/>
</svg>
