<svg width="34" height="34" viewBox="0 0 34 34" fill="none" xmlns="http://www.w3.org/2000/svg">
<path fill-rule="evenodd" clip-rule="evenodd" d="M18.4956 4.25C16.4528 4.25 14.8568 5.88652 14.7538 7.83882C14.709 8.68554 14.6359 9.58958 14.5205 10.2964C14.4783 10.5555 14.3384 10.9421 14.0842 11.4329C13.8388 11.9065 13.527 12.4012 13.2098 12.8606C12.8947 13.3171 12.5866 13.7208 12.3569 14.0108C12.3193 14.0583 12.2839 14.1026 12.2511 14.1434L10.2223 14.7333C9.74727 14.3775 9.15671 14.1667 8.51675 14.1667H5.67439C4.1046 14.1667 2.83203 15.4352 2.83203 17V26.9167C2.83203 28.4815 4.1046 29.75 5.67439 29.75H8.51675C9.3844 29.75 10.1613 29.3625 10.6826 28.7516L10.6832 28.7519C12.0386 29.4087 13.5259 29.75 15.0329 29.75H25.831C27.9471 29.75 29.7431 28.2028 30.0496 26.1156L31.1196 18.8299C31.4963 16.265 29.5015 13.9643 26.901 13.9643H23.6851V9.42303C23.6851 6.56604 21.3617 4.25 18.4956 4.25ZM11.3591 25.929L11.926 26.2037C12.8941 26.6729 13.9565 26.9167 15.0329 26.9167H25.831C26.5364 26.9167 27.135 26.4009 27.2372 25.7052L28.3072 18.4195C28.4327 17.5645 27.7678 16.7976 26.901 16.7976H22.2639C21.479 16.7976 20.8428 16.1634 20.8428 15.381V9.42303C20.8428 8.13085 19.7919 7.08333 18.4956 7.08333C18.0454 7.08333 17.6201 7.45845 17.5922 7.98776C17.5458 8.8663 17.4663 9.89149 17.326 10.7513C17.2136 11.4405 16.9193 12.1352 16.6096 12.7331C16.291 13.348 15.9088 13.949 15.5513 14.4668C15.1918 14.9875 14.8446 15.4424 14.5877 15.7667C14.4588 15.9294 14.3516 16.0606 14.2755 16.1524C14.2375 16.1983 14.2071 16.2344 14.1857 16.2597L14.1604 16.2896L14.1531 16.2982L14.1507 16.3009L14.1499 16.3019L14.1496 16.3022C14.1495 16.3024 14.1493 16.3025 13.07 15.381L14.1493 16.3025C13.9698 16.5115 13.733 16.6639 13.468 16.7409L11.3591 17.3541V25.929ZM8.51675 17H5.67439V19.8333V24.0833V26.9167H8.51675V26.8155V24.0833V19.8333V17Z" fill="white"/>
</svg>
