<svg width="34" height="34" viewBox="0 0 34 34" fill="none" xmlns="http://www.w3.org/2000/svg">
<path fill-rule="evenodd" clip-rule="evenodd" d="M16.9987 2.83325C9.17466 2.83325 2.83203 9.17589 2.83203 16.9999C2.83203 24.824 9.17466 31.1666 16.9987 31.1666C24.8227 31.1666 31.1654 24.824 31.1654 16.9999C31.1654 9.17589 24.8227 2.83325 16.9987 2.83325ZM5.66536 16.9999C5.66536 10.7407 10.7395 5.66659 16.9987 5.66659C23.2579 5.66659 28.332 10.7407 28.332 16.9999C28.332 23.2591 23.2579 28.3333 16.9987 28.3333C10.7395 28.3333 5.66536 23.2591 5.66536 16.9999ZM11.332 13.2221C11.332 12.1789 12.1777 11.3333 13.221 11.3333C14.2642 11.3333 15.1099 12.1789 15.1099 13.2221C15.1099 14.2653 14.2642 15.111 13.221 15.111C12.1777 15.111 11.332 14.2653 11.332 13.2221ZM14.3658 21.9225C13.7336 22.5548 12.7084 22.5548 12.0761 21.9225C11.4438 21.2903 11.4438 20.2651 12.0761 19.6329L19.6318 12.0773C20.2641 11.445 21.2892 11.445 21.9215 12.0773C22.5538 12.7096 22.5538 13.7347 21.9215 14.367L14.3658 21.9225ZM18.8875 20.7777C18.8875 19.7345 19.7332 18.8888 20.7764 18.8888C21.8197 18.8888 22.6654 19.7345 22.6654 20.7777C22.6654 21.8209 21.8197 22.6666 20.7764 22.6666C19.7332 22.6666 18.8875 21.8209 18.8875 20.7777Z" fill="white"/>
</svg>
