<svg width="34" height="34" viewBox="0 0 34 34" fill="none" xmlns="http://www.w3.org/2000/svg">
<path fill-rule="evenodd" clip-rule="evenodd" d="M9.50043 5.25165C10.0537 4.69841 10.0537 3.80143 9.50043 3.24818C8.94719 2.69494 8.05021 2.69494 7.49696 3.24818L3.24696 7.49818C2.69372 8.05143 2.69372 8.94841 3.24696 9.50165C3.80021 10.0549 4.69719 10.0549 5.25043 9.50165L9.50043 5.25165ZM24.497 3.24818C23.9437 3.80143 23.9437 4.69841 24.497 5.25165L28.747 9.50165C29.3002 10.0549 30.1972 10.0549 30.7504 9.50165C31.3037 8.94841 31.3037 8.05143 30.7504 7.49818L26.5004 3.24818C25.9472 2.69494 25.0502 2.69494 24.497 3.24818ZM16.9987 28.3333C22.4755 28.3333 26.9154 23.8934 26.9154 18.4166C26.9154 12.9398 22.4755 8.49992 16.9987 8.49992C11.5219 8.49992 7.08203 12.9398 7.08203 18.4166C7.08203 23.8934 11.5219 28.3333 16.9987 28.3333ZM16.9987 31.1666C24.0403 31.1666 29.7487 25.4582 29.7487 18.4166C29.7487 11.375 24.0403 5.66659 16.9987 5.66659C9.95707 5.66659 4.2487 11.375 4.2487 18.4166C4.2487 25.4582 9.95707 31.1666 16.9987 31.1666ZM16.9987 20.1874C16.0207 20.1874 15.2279 19.3946 15.2279 18.4166V12.7499C15.2279 11.7719 16.0207 10.9791 16.9987 10.9791C17.9767 10.9791 18.7695 11.7719 18.7695 12.7499V18.4166C18.7695 19.3946 17.9767 20.1874 16.9987 20.1874ZM16.9987 25.4999C17.9767 25.4999 18.7695 24.7071 18.7695 23.7291C18.7695 22.7511 17.9767 21.9583 16.9987 21.9583C16.0207 21.9583 15.2279 22.7511 15.2279 23.7291C15.2279 24.7071 16.0207 25.4999 16.9987 25.4999Z" fill="white"/>
</svg>
