<svg width="314" height="581" viewBox="0 0 314 581" fill="none" xmlns="http://www.w3.org/2000/svg">
<path d="M144.323 1.20845C143.549 1.20845 142.915 0.955613 142.915 0.646584C142.915 0.337555 143.549 0.0847133 144.323 0.0847133C145.098 0.0847133 145.732 0.337555 145.732 0.646584C145.732 0.955613 145.098 1.20845 144.323 1.20845Z" fill="#3E5BF1"/>
<path d="M153.83 1.77033C153.009 1.77033 152.801 1.08653 153.43 0.459481C154.284 -0.393439 156.042 0.0448204 155.307 0.92752C154.921 1.39106 154.257 1.77033 153.83 1.77033Z" fill="#3E5BF1"/>
<path d="M137.453 3.32839C141.364 3.21827 142.915 2.97554 142.915 2.47266C142.915 1.70908 145.084 1.55681 147.914 2.1215C149.551 2.44794 150.425 3.45594 149.071 3.45594C148.739 3.45594 148.042 3.88015 147.522 4.39932C146.637 5.28202 146.565 5.28202 146.395 4.39932C146.155 3.16096 142.915 3.06769 142.915 4.29874C142.915 4.76229 142.662 5.14155 142.352 5.14155C142.042 5.14155 141.345 5.58431 140.803 6.12483C139.864 7.06146 140.224 7.1081 148.365 7.1081C153.066 7.1081 156.551 6.90583 156.11 6.6586C154.63 5.82984 155.287 5.14155 157.56 5.14155C159.187 5.14155 159.813 4.90725 159.813 4.29874C159.813 3.79418 160.322 3.46324 161.081 3.47392C162.316 3.49134 162.32 3.51213 161.255 4.31673C160.204 5.10952 160.219 5.14155 161.644 5.14155C162.46 5.14155 163.283 4.88871 163.475 4.57968C163.916 3.86723 168.262 3.83689 168.262 4.54597C168.262 4.83589 167.312 5.17302 166.15 5.29438C164.161 5.50171 164.189 5.52025 166.643 5.60903C171.873 5.79838 174.33 6.81874 171.622 7.67615C169.662 8.29646 172.629 10.0742 177.37 11.1199C179.641 11.621 181.899 12.3773 182.388 12.8004C182.877 13.2235 183.701 13.5696 184.219 13.5696C185.341 13.5696 185.543 16.1312 184.456 16.5689C184.069 16.7245 184.814 16.8723 186.113 16.8965C187.411 16.9206 188.63 16.688 188.822 16.379C189.644 15.0507 192.064 15.7508 191.779 17.2353C191.467 18.863 192.187 19.6434 192.721 18.2562C193.043 17.4184 193.143 17.4145 193.766 18.2118C194.144 18.6967 194.961 19.1816 195.581 19.2889C197.952 19.7007 196.931 21.701 194.251 21.8926L191.796 22.0685L193.649 23.7187C194.668 24.6261 195.71 25.3689 195.964 25.3689C196.218 25.3689 196.426 25.7482 196.426 26.2117C196.426 26.6753 196.787 27.0545 197.228 27.0545C197.669 27.0545 198.62 27.8327 199.34 28.7834C202.019 32.3192 203.229 33.3548 204.343 33.0637C205.593 32.7378 205.846 34.2335 204.855 36.0815C204.367 36.9906 204.46 37.1682 205.418 37.1682C206.316 37.1682 206.565 37.5328 206.565 38.8538C206.565 40.7125 205.961 40.981 204.674 39.6966C203.321 38.3476 202.21 38.6897 201.938 40.5394C201.692 42.2166 204.964 43.2774 205.532 41.7047C205.903 40.6759 208.818 40.336 208.818 41.3215C208.818 41.8182 208.533 42.225 208.186 42.225C207.749 42.225 207.77 42.4857 208.254 43.0678C208.64 43.5314 209.278 43.9106 209.671 43.9106C210.065 43.9106 210.533 43.5314 210.711 43.0678C210.923 42.5178 211.799 42.225 213.237 42.225C214.507 42.225 215.736 42.5818 216.14 43.0678C216.624 43.6499 216.646 43.9106 216.209 43.9106C215.315 43.9106 215.425 44.963 216.422 45.9575C216.919 46.4537 217.267 47.8269 217.267 49.2962C217.267 50.6688 217.581 52.2943 217.966 52.9084C218.522 53.7973 218.521 54.253 217.961 55.1481C217.365 56.0987 217.398 56.2718 218.172 56.2718C218.845 56.2718 219.016 56.6443 218.818 57.6765C218.644 58.5895 218.804 59.0812 219.278 59.0812C219.679 59.0812 220.168 59.5868 220.365 60.2049C220.826 61.6556 220.212 63.5761 219.286 63.5761C218.89 63.5761 217.987 64.0767 217.28 64.6881C215.691 66.0635 214.918 65.6719 215.296 63.6823C215.455 62.8513 215.434 62.4878 215.252 62.8738C214.847 63.7295 212.197 63.8166 212.197 62.9744C212.197 62.6429 211.817 62.7513 211.352 63.2148C210.888 63.6784 210.507 64.3285 210.507 64.66C210.507 64.9909 210.127 65.2617 209.662 65.2617C209.198 65.2617 208.818 65.0089 208.818 64.6999C208.818 63.807 207.283 64.0487 206.917 64.9988C206.491 66.1073 208.926 67.0828 210.89 66.5906C212.188 66.2658 212.283 66.3551 211.904 67.5469C211.154 69.9028 210.033 70.5849 209.618 68.9375C209.392 68.0374 208.865 67.5092 208.193 67.5092C207.056 67.5092 206.759 68.3391 207.691 68.9139C208.001 69.1049 208.254 69.7601 208.254 70.3691C208.254 70.9788 208.63 71.6215 209.089 71.7969C210.009 72.1491 209.552 73.4392 207.936 75.0506C207.447 75.5384 207.319 75.9373 207.651 75.9373C208.388 75.9373 208.457 77.9932 207.734 78.4387C207.448 78.6152 207.048 79.5153 206.844 80.4384C206.451 82.2269 205.215 82.6882 204.662 81.2526C204.479 80.7772 204.633 79.9035 205.003 79.3119C205.875 77.919 205.133 77.1919 203.73 78.0656C203.129 78.4404 202.063 78.7758 201.362 78.8118C200.408 78.8607 200.335 78.9416 201.073 79.1338C202.343 79.4653 202.317 79.9614 200.97 81.1127C200.016 81.9268 199.795 81.9397 199.193 81.2161C198.609 80.5143 198.379 80.6519 197.662 82.128C197.103 83.2787 196.276 83.9737 195.214 84.1855C193.545 84.5187 192.757 88.2687 194.173 89.1412C194.482 89.3323 194.736 90.156 194.736 90.9724C194.736 92.1265 194.886 92.3063 195.412 91.782C195.784 91.4112 196.689 91.1078 197.423 91.1078C198.158 91.1078 199.139 90.7285 199.604 90.265C200.355 89.516 200.351 89.4222 199.564 89.4222C199.077 89.4222 198.675 89.7385 198.67 90.1245C198.664 90.5993 198.491 90.5588 198.136 89.9987C197.503 88.9996 198.361 88.3204 199.785 88.6923C200.329 88.8339 201.494 88.3102 202.398 87.5174C203.599 86.4645 203.785 86.0819 203.104 86.0689C202.595 86.0588 202.033 86.4302 201.854 86.8938C201.676 87.3573 200.862 87.7366 200.044 87.7366C198.955 87.7366 198.645 87.5118 198.883 86.8938C199.109 86.3044 198.839 86.051 197.985 86.051C197.021 86.051 196.909 85.906 197.454 85.3627C197.955 84.8626 198.409 84.8379 199.115 85.2728C199.853 85.7268 200.494 85.6172 201.777 84.8182L203.467 83.7658L200.509 84.1378C197.999 84.4536 197.552 84.3715 197.552 83.595C197.552 82.905 198.095 82.6797 199.759 82.6797C201.01 82.6797 202.076 82.3758 202.223 81.9774C202.419 81.4464 202.922 81.515 204.287 82.2583C206.566 83.4995 211.183 83.6248 210.724 82.4331C210.553 81.9881 210.653 81.1964 210.947 80.6733C211.29 80.0603 211.264 79.1523 210.873 78.1185C210.204 76.3491 211.23 74.377 212.095 75.7721C212.374 76.2227 212.778 76.2632 213.338 75.8968C214.055 75.4282 214.034 75.2512 213.183 74.6006C212.64 74.1859 212.197 73.5589 212.197 73.2066C212.197 72.8543 211.944 72.5661 211.634 72.5661C211.324 72.5661 211.071 72.1868 211.071 71.7233C211.071 71.2597 211.324 70.8804 211.634 70.8804C211.944 70.8804 212.197 71.1164 212.197 71.4047C212.197 72.3452 214.553 72.7015 215.926 71.9682C216.926 71.4344 217.267 70.7771 217.267 69.3808C217.267 68.0919 217.53 67.5092 218.112 67.5092C218.692 67.5092 218.956 68.0896 218.956 69.3634C218.956 70.3832 219.25 71.5103 219.609 71.8682C220.102 72.3604 220.078 72.7374 219.508 73.4223C219.094 73.9207 218.683 76.0081 218.594 78.0752C218.498 80.2783 218.133 82.0583 217.708 82.3926C217.311 82.705 216.944 83.817 216.894 84.8637C216.843 85.9105 216.499 86.9533 216.129 87.1814C215.647 87.4787 215.633 87.7045 216.08 87.9804C217.394 88.7906 216.737 90.5049 214.933 90.9713C213.291 91.396 213.23 91.496 214.088 92.3518C215.355 93.6154 215.33 93.6643 212.62 95.2847C211.222 96.1202 210.636 96.7181 211.211 96.7214C212.812 96.7299 212.336 98.4222 210.559 99.0403C209.553 99.3903 208.788 100.137 208.577 100.978C208.388 101.73 207.984 102.345 207.68 102.345C207.376 102.345 207.128 102.851 207.128 103.469C207.128 104.087 206.915 104.593 206.655 104.593C206.395 104.593 205.902 105.205 205.56 105.954C204.449 108.387 202.995 109.65 201.304 109.65C199.922 109.65 199.721 109.83 199.985 110.836C200.229 111.767 199.94 112.156 198.642 112.644C197.733 112.987 196.989 113.465 196.989 113.706C196.989 113.947 196.482 114.144 195.862 114.144C195.243 114.144 194.766 114.334 194.802 114.566C194.986 115.725 194.653 116.392 193.891 116.392C193.426 116.392 193.046 116.642 193.046 116.947C193.046 117.253 192.06 117.66 190.855 117.852C189.345 118.093 188.487 118.59 188.094 119.451C187.78 120.137 187.181 120.726 186.764 120.759C184.937 120.901 181.584 121.981 181.238 122.539C181.03 122.874 179.804 123.065 178.512 122.963C176.093 122.773 174.056 123.505 175.444 124.067C175.832 124.223 176.148 124.71 176.148 125.148C176.148 125.586 175.832 125.964 175.444 125.988C174.881 126.024 174.881 126.089 175.444 126.316C176.738 126.837 176.241 128.284 174.832 128.1C174.108 128.005 173.076 128.366 172.539 128.902C172.001 129.438 171.199 129.877 170.757 129.877C170.314 129.877 169.952 130.109 169.952 130.394C169.952 130.679 169.215 131.073 168.315 131.27C167.207 131.513 166.566 132.072 166.333 133C165.987 134.374 164.681 134.848 164.051 133.83C163.863 133.528 163.227 133.776 162.609 134.392C161.282 135.716 161.229 136.057 162.348 136.057C163.624 136.057 163.315 137.323 161.73 138.586C160.954 139.204 159.787 140.152 159.135 140.693C156.229 143.106 155.917 141.423 158.8 138.882C160.811 137.109 160.787 136.619 158.687 136.619C156.849 136.619 152.149 140.67 152.788 141.701C152.975 142.002 152.967 142.752 152.771 143.367C152.351 144.687 150.238 144.889 150.238 143.61C150.238 143.128 149.984 142.89 149.674 143.081C149.365 143.272 149.111 144.187 149.111 145.114C149.111 146.041 149.347 146.654 149.636 146.476C149.924 146.298 150.312 146.399 150.499 146.699C150.685 147 151.272 147.088 151.805 146.894C152.729 146.558 151.475 148.544 150.12 149.561C149.901 149.726 149.547 151.946 149.334 154.495C149.121 157.044 148.73 159.263 148.466 159.426C147.676 159.913 147.864 172.017 148.661 172.017C149.186 172.017 149.186 172.167 148.661 172.691C148.289 173.062 147.985 174.229 147.985 175.286C147.985 176.913 147.817 177.161 146.886 176.918C145.805 176.636 145.805 176.657 146.91 178.148C147.572 179.041 147.883 180.055 147.668 180.617C147.271 181.646 146.295 181.924 146.295 181.007C146.295 180.698 145.915 180.445 145.45 180.445C144.985 180.445 144.605 180.845 144.605 181.332C144.605 182.025 144.202 182.15 142.774 181.901C141.768 181.726 141.32 181.747 141.779 181.947C143.136 182.539 144.042 183.665 144.042 184.76C144.043 185.603 144.278 185.511 145.376 184.238C146.903 182.466 147.199 182.391 148.306 183.496C149.585 184.771 149.295 186.899 147.73 187.735C146.968 188.142 146.191 189.192 145.996 190.077C145.801 190.96 145.436 191.683 145.185 191.683C144.933 191.683 144.553 192.375 144.34 193.222C143.853 195.159 143.102 195.625 141.111 195.227C139.699 194.946 139.498 195.098 139.179 196.691C138.77 198.732 137.48 198.729 137.73 196.687C137.863 195.605 137.779 195.503 137.308 196.178C136.814 196.885 136.639 196.896 136.219 196.246C135.286 194.802 134.466 196.231 134.466 199.301C134.466 201.644 134.269 202.358 133.621 202.358C133.058 202.358 132.776 201.796 132.776 200.673C132.776 199.499 132.502 198.987 131.871 198.987C131.298 198.987 131.085 199.296 131.291 199.83C131.469 200.293 131.374 200.673 131.08 200.673C130.773 200.673 130.68 201.81 130.861 203.341L131.177 206.01L130.108 204.698C129.519 203.976 128.675 203.438 128.231 203.5C126.597 203.733 126.092 203.453 125.916 202.218C125.817 201.522 125.155 200.701 124.445 200.392C123.735 200.083 123.01 199.261 122.835 198.566C122.659 197.87 122.289 197.301 122.013 197.301C121.128 197.301 121.41 188.795 122.318 188.092C123.017 187.552 123.008 187.132 122.256 184.961C121.655 183.224 121.578 182.389 122.008 182.247C122.456 182.098 122.459 181.724 122.017 180.901C121.578 180.082 121.579 179.591 122.022 179.149C122.793 178.38 122.836 174.827 122.074 174.827C121.765 174.827 121.511 174.447 121.511 173.984C121.511 173.52 121.736 173.141 122.011 173.141C122.673 173.141 123.117 169.982 122.577 169.111C122.344 168.734 122.398 167.969 122.697 167.412C123.138 166.589 123.025 166.398 122.094 166.398C121.323 166.398 120.948 166.767 120.948 167.522C120.948 168.336 120.572 168.646 119.585 168.646H118.222L119.141 166.258C120.237 163.412 121.004 162.748 121.867 163.897C122.431 164.649 122.544 164.643 122.853 163.841C123.484 162.199 123.217 161.342 122.074 161.342C120.685 161.342 120.61 160.472 121.934 159.694C122.783 159.195 122.804 159.04 122.088 158.572C120.649 157.631 126.539 141.344 128.972 139.537C129.515 139.134 129.96 138.42 129.96 137.952C129.96 136.988 131.137 135.673 133.284 134.235C134.499 133.422 134.569 133.255 133.693 133.252C132.82 133.249 132.759 133.103 133.34 132.405C133.726 131.942 134.481 131.562 135.019 131.562C135.558 131.562 136.477 130.902 137.063 130.095C137.648 129.289 138.395 128.341 138.722 127.988C139.049 127.637 139.482 126.914 139.684 126.382C139.885 125.851 140.695 125.254 141.483 125.057C142.462 124.812 142.915 124.315 142.915 123.489C142.915 122.22 148.583 117.496 152.524 115.48C153.626 114.915 155.345 113.373 156.344 112.052C157.621 110.361 158.571 109.65 159.55 109.65C160.314 109.65 161.447 109.144 162.066 108.526C162.686 107.908 163.545 107.402 163.977 107.402C164.408 107.402 164.92 106.77 165.114 105.997C165.308 105.225 165.696 104.593 165.975 104.593C166.254 104.593 166.649 103.837 166.852 102.913C167.056 101.99 167.456 101.09 167.742 100.914C168.551 100.416 168.355 99.5359 167.435 99.5359C166.084 99.5359 167.066 98.0149 168.91 97.2535C171.155 96.3259 172.268 94.5122 172.306 91.7157C172.323 90.4543 172.513 89.4222 172.726 89.4222C172.94 89.4222 173.585 88.3591 174.16 87.059C175.113 84.9047 175.323 83.3253 175.519 76.8677C175.571 75.1518 175.837 74.6427 176.81 74.3888L178.037 74.0691L176.81 73.6162C175.444 73.1122 174.952 67.4036 176.208 66.6293C176.657 66.3529 176.644 66.1298 176.165 65.8343C175.185 65.2303 174.377 57.7321 174.996 54.9857C175.563 52.4657 175.38 51.7768 174.143 51.7768C173.222 51.7768 173.04 53.2163 173.895 53.7434C174.623 54.1918 174.628 55.7099 173.902 55.7099C173.382 55.7099 171.173 52.6168 169.548 49.6125C169.155 48.886 168.977 47.719 169.153 47.02C169.395 46.0564 169.191 45.6755 168.306 45.4445C167.664 45.2771 166.901 44.5478 166.61 43.823C166.318 43.0987 166.064 42.8223 166.045 43.2083C165.992 44.241 164.144 44.0629 163.122 42.9274C162.636 42.3863 161.758 41.6648 161.17 41.3232C160.252 40.7894 160.21 40.5742 160.872 39.7781C161.295 39.2696 161.395 38.8538 161.095 38.8538C160.794 38.8538 160.256 38.2846 159.898 37.5896C159.312 36.4507 159.28 36.508 159.579 38.1711L159.911 40.0169L156.623 38.2464C154.815 37.2727 153.206 36.2726 153.048 36.0237C152.89 35.7753 152.067 35.3977 151.218 35.1853C150.369 34.973 149.674 34.6224 149.674 34.406C149.674 32.9401 140.41 30.9438 132.892 30.7904C128.897 30.7089 128.793 30.7409 129.101 31.9709C129.326 32.8659 129.168 33.2351 128.563 33.2351C128.092 33.2351 127.707 32.9823 127.707 32.6732C127.707 32.3642 127.327 32.1114 126.862 32.1114C126.397 32.1114 126.017 32.4906 126.017 32.9542C126.017 33.4177 126.271 33.797 126.58 33.797C126.89 33.797 127.144 34.147 127.144 34.574C127.144 35.6882 124.43 36.0669 123.451 35.0898C122.742 34.383 122.638 34.4263 122.638 35.4264C122.638 36.2349 122.096 36.7355 120.807 37.1204C119.27 37.5789 119.473 37.6194 122.074 37.3721C123.778 37.2103 125.481 36.9828 125.858 36.8665C126.236 36.7502 126.703 36.912 126.898 37.2255C127.094 37.5418 127.979 37.6362 128.887 37.4373C130.154 37.1598 130.523 37.2789 130.523 37.9666C130.523 38.5386 130.023 38.8538 129.115 38.8538C128.341 38.8538 127.707 39.1066 127.707 39.4157C127.707 39.7247 127.43 39.9775 127.092 39.9775C126.753 39.9775 125.832 40.4832 125.044 41.1013C124.256 41.7193 123.393 42.225 123.125 42.225C122.161 42.225 122.663 40.5849 123.89 39.7286C124.87 39.0432 124.94 38.8538 124.21 38.8538C123.697 38.8538 122.736 39.6123 122.074 40.5394C121.412 41.4665 120.445 42.229 119.924 42.2335C119.104 42.2413 119.091 42.3177 119.821 42.8026C120.527 43.2707 120.364 43.6162 118.83 44.9012C115.56 47.6409 118.389 54.0243 122.874 54.0243C125.685 54.0243 127.278 56.3735 124.891 56.9966C124.13 57.195 123.764 57.763 123.764 58.7474C123.764 59.5492 123.511 60.2049 123.201 60.2049C122.891 60.2049 122.638 60.6797 122.638 61.2601C122.638 61.8399 122.257 62.6294 121.793 63.0142C121.328 63.3991 120.94 64.2515 120.93 64.9089C120.913 66.0422 120.872 66.0512 120.139 65.0876C119.651 64.4448 119.23 64.2897 118.997 64.6661C118.794 64.9937 118.145 65.2617 117.555 65.2617C115.353 65.2617 111.042 67.1316 109.632 68.6981C106.622 72.0429 98.545 67.0732 97.5626 61.2713C97.3587 60.0667 96.9807 59.0812 96.7227 59.0812C96.1223 59.0812 95.5084 56.2903 95.3095 52.6562C95.2245 51.0908 94.9716 49.2411 94.7486 48.5461C94.4416 47.5898 94.5644 47.2819 95.2532 47.2819C95.9353 47.2819 96.164 46.7352 96.164 45.1029C96.164 42.7875 97.5428 38.8538 98.354 38.8538C98.6209 38.8538 98.9915 38.0953 99.1774 37.1682C99.4523 35.7967 99.8066 35.4741 101.078 35.4382C101.938 35.414 102.325 35.2663 101.938 35.1106C101.103 34.7746 100.982 32.6732 101.797 32.6732C102.106 32.6732 102.36 32.9261 102.36 33.2351C102.36 33.5441 102.74 33.797 103.205 33.797C104.215 33.797 104.325 32.049 103.374 31.1C102.848 30.5758 102.848 30.4257 103.374 30.4257C103.769 30.4257 104.05 29.6189 104.05 28.4811C104.05 26.6854 105.715 24.2452 106.942 24.2452C107.176 24.2452 107.699 23.5732 108.102 22.7517C108.507 21.9303 109.334 20.9824 109.94 20.6447C111.732 19.6479 112.133 19.1052 114.195 14.8951C115.899 11.4154 116.475 10.749 118.533 9.8725C119.839 9.31625 120.979 8.5094 121.068 8.08014C121.25 7.20025 126.644 5.14155 128.768 5.14155C129.53 5.14155 130.567 4.76791 131.073 4.31167C131.721 3.7262 133.603 3.43627 137.453 3.32839Z" fill="#3E5BF1"/>
<path d="M156.281 3.23344C156.094 3.41998 155.608 3.44021 155.202 3.27782C154.752 3.09859 154.886 2.96542 155.542 2.93845C156.136 2.91429 156.468 3.0469 156.281 3.23344Z" fill="#3E5BF1"/>
<path d="M186.023 11.884C184.017 11.884 183.572 11.7126 183.83 11.0412C184.174 10.1461 185.206 10 187.273 10.5524C189.402 11.1215 188.686 11.884 186.023 11.884Z" fill="#3E5BF1"/>
<path d="M197.552 23.6833C197.242 23.6833 196.989 23.304 196.989 22.8405C196.989 22.3769 197.242 21.9977 197.552 21.9977C197.862 21.9977 198.116 22.3769 198.116 22.8405C198.116 23.304 197.862 23.6833 197.552 23.6833Z" fill="#3E5BF1"/>
<path d="M200.147 27.0545C200.026 27.0545 199.78 26.6753 199.601 26.2117C199.423 25.7482 199.523 25.3689 199.823 25.3689C200.123 25.3689 200.369 25.7482 200.369 26.2117C200.369 26.6753 200.269 27.0545 200.147 27.0545Z" fill="#3E5BF1"/>
<path d="M132.213 34.1245C132.213 35.1168 131 34.9443 130.652 33.9026C130.53 33.5351 130.831 33.2351 131.322 33.2351C131.812 33.2351 132.213 33.6357 132.213 34.1245Z" fill="#3E5BF1"/>
<path d="M133.082 37.8211C131.386 38.5925 130.631 38.1116 131.639 36.9007C132.438 35.9405 136.452 35.7197 137.001 36.6063C137.197 36.9238 136.734 37.1682 135.934 37.1682C135.156 37.1682 133.872 37.462 133.082 37.8211Z" fill="#3E5BF1"/>
<path d="M212.436 38.156C212.228 37.9481 212.215 37.3699 212.407 36.8698C212.763 35.9461 214.418 35.913 214.621 36.826C214.77 37.5003 212.913 38.6313 212.436 38.156Z" fill="#3E5BF1"/>
<path d="M213.196 40.6372C212.887 40.3282 212.817 39.7786 213.042 39.4157C213.315 38.9757 213.639 38.9431 214.014 39.3179C214.324 39.6269 214.393 40.1764 214.169 40.5394C213.896 40.9794 213.572 41.012 213.196 40.6372Z" fill="#3E5BF1"/>
<path d="M220.365 57.3955C219.801 57.3955 219.52 56.8337 219.52 55.7099C219.52 53.7333 220.365 53.4664 220.855 55.2885C221.354 57.1478 221.296 57.3955 220.365 57.3955Z" fill="#3E5BF1"/>
<path d="M126.862 59.0812C126.397 59.0812 126.017 58.8362 126.017 58.5367C126.017 58.2378 126.397 58.1383 126.862 58.3159C127.327 58.494 127.707 58.739 127.707 58.8603C127.707 58.9817 127.327 59.0812 126.862 59.0812Z" fill="#3E5BF1"/>
<path d="M213.973 68.2638C213.864 67.7682 214.118 67.1496 214.536 66.8889C215.042 66.5731 215.361 66.7159 215.491 67.3165C215.599 67.8121 215.346 68.4307 214.928 68.6914C214.422 69.0072 214.103 68.8644 213.973 68.2638Z" fill="#3E5BF1"/>
<path d="M196.111 88.8603C195.664 88.8603 195.299 88.481 195.299 88.0175C195.299 87.0724 195.403 87.0342 196.658 87.5146C197.689 87.9091 197.303 88.8603 196.111 88.8603Z" fill="#3E5BF1"/>
<path d="M160.658 107.605C160.194 107.427 159.813 107.056 159.813 106.78C159.813 106.504 160.194 106.278 160.658 106.278C161.123 106.278 161.503 106.65 161.503 107.104C161.503 107.606 161.173 107.802 160.658 107.605Z" fill="#3E5BF1"/>
<path d="M178.964 124.82C177.862 125.53 176.711 125.53 176.711 124.82C176.711 124.511 177.408 124.262 178.26 124.267C179.467 124.273 179.623 124.396 178.964 124.82Z" fill="#3E5BF1"/>
<path d="M126.561 260.957C127.058 260.344 127.836 259.698 128.29 259.52C129.589 259.01 129.712 259.041 131.087 260.231C132.619 261.556 132.499 261.537 133.887 260.673C134.807 260.099 135.194 260.189 136.309 261.234C137.039 261.919 137.937 262.478 138.304 262.478C138.672 262.478 138.972 262.858 138.972 263.321C138.972 263.785 138.719 264.164 138.409 264.164C137.67 264.164 137.684 267.307 138.429 268.696C138.75 269.294 139.384 269.783 139.837 269.783C140.291 269.783 140.678 269.972 140.699 270.204C140.718 270.436 140.856 271.925 141.003 273.512C141.279 276.473 140.432 278.211 138.712 278.211C138.303 278.211 137.809 278.843 137.614 279.615C137.42 280.388 137.028 281.02 136.743 281.02C136.458 281.02 136.048 282.221 135.83 283.689C135.614 285.157 135.281 286.484 135.092 286.639C134.903 286.793 133.891 288.627 132.845 290.712C131.797 292.798 130.594 294.505 130.169 294.505C129.744 294.505 129.397 294.905 129.397 295.394C129.397 296.711 128.018 296.023 127.808 294.602C127.71 293.93 127.456 293.36 127.245 293.335C124.857 293.042 124.327 293.096 124.327 293.631C124.327 293.975 123.837 294.674 123.239 295.185C122.087 296.169 121.499 295.839 120.772 293.803C120.578 293.262 119.91 292.819 119.286 292.819C118.515 292.819 118.035 292.326 117.783 291.274C117.579 290.424 117.14 289.385 116.806 288.964C116.462 288.531 116.131 285.008 116.044 280.85C115.958 276.808 115.633 273.246 115.32 272.934C114.494 272.11 114.625 270.906 115.54 270.906C116.108 270.906 116.276 270.33 116.139 268.855C115.986 267.221 116.276 266.45 117.565 265.062C118.454 264.105 119.66 262.718 120.245 261.98C121.244 260.72 121.44 260.682 123.483 261.355C125.458 262.005 125.739 261.969 126.561 260.957Z" fill="#3E5BF1"/>
<path d="M262.831 249.685C265.635 250.177 268.416 250.508 269.012 250.419C270.676 250.173 271.217 250.387 272.333 251.733C273.601 253.261 277.917 255.152 280.867 255.47C282.64 255.661 283.192 255.918 283.724 256.799C284.087 257.398 284.839 258.281 285.395 258.76C285.951 259.238 287.062 260.554 287.864 261.684C290.064 264.786 290.182 264.933 290.576 265.029C290.778 265.079 291.754 266.369 292.748 267.897C293.741 269.424 295.014 271.205 295.577 271.854C296.139 272.503 296.535 273.301 296.456 273.627C296.376 273.953 296.451 274.328 296.62 274.46C297.089 274.823 298.298 278.122 298.164 278.672C298.099 278.938 298.252 279.206 298.503 279.267C298.754 279.328 298.888 280.247 298.802 281.309C298.716 282.371 298.81 283.28 299.012 283.329C299.213 283.378 299.363 284.061 299.344 284.846C299.325 285.631 299.581 286.462 299.912 286.692C300.243 286.922 300.437 287.431 300.341 287.822C300.246 288.214 300.367 288.582 300.609 288.641C300.852 288.7 301.007 289.548 300.954 290.526C300.901 291.503 301.006 292.913 301.189 293.66C301.372 294.406 301.439 295.36 301.339 295.778C301.239 296.197 301.322 297.214 301.523 298.039C301.724 298.863 301.779 299.996 301.644 300.557C301.51 301.117 301.553 301.732 301.74 301.923C301.927 302.114 302.006 303.192 301.915 304.318C301.823 305.445 301.96 306.583 302.22 306.847C302.864 307.504 298.879 324.031 298.005 324.332C297.674 324.445 297.039 325.392 296.595 326.434C296.15 327.476 295.597 328.283 295.365 328.227C295.133 328.17 294.825 328.613 294.68 329.21C294.426 330.253 286.167 340.242 284.967 340.957C284.806 341.053 283.797 342.206 282.725 343.518C281.654 344.831 280.337 346.184 279.799 346.526C279.261 346.867 277.856 348.008 276.677 349.059C275.497 350.11 273.676 351.493 272.628 352.131C270.811 353.237 270.073 353.942 271.076 353.612C271.806 353.372 274.905 351.741 277.411 350.277C278.664 349.545 279.753 349.05 279.829 349.176C280.045 349.534 278.182 352.106 277.777 352.007C277.579 351.959 277.361 352.148 277.293 352.427C277.031 353.505 272.502 356.631 270.385 357.195C269.162 357.521 268.124 357.945 268.077 358.137C268.03 358.329 267.706 358.417 267.356 358.332C267.006 358.247 266.407 358.411 266.024 358.698C265.279 359.255 262.917 359.43 262.626 358.95C262.53 358.79 264.15 357.663 266.228 356.445C269.991 354.239 271.504 352.937 268.665 354.346C264.912 356.209 259.406 359.818 259.763 360.182C259.98 360.403 259.115 361.101 257.841 361.733C256.566 362.365 254.925 363.557 254.193 364.382C253.462 365.206 252.592 365.977 252.261 366.096C251.889 366.228 251.986 366.393 252.515 366.527C253.423 366.756 252.672 369.085 251.654 369.196C251.398 369.225 251.128 369.491 251.054 369.789C250.98 370.087 250.469 370.847 249.918 371.479C248.885 372.665 247.041 376.938 244.965 382.962C243.919 385.995 243.548 386.563 241.914 387.635C240.892 388.306 239.505 389.496 238.832 390.28C238.159 391.064 236.549 392.711 235.254 393.94C233.96 395.168 232.843 396.41 232.772 396.699C232.449 398.03 231.601 396.354 231.745 394.671C231.834 393.63 231.789 393.138 231.644 393.577C231.5 394.015 231.196 394.329 230.969 394.274C230.743 394.219 230.3 394.665 229.985 395.265C229.67 395.865 229.209 396.307 228.96 396.246C228.71 396.186 228.43 396.45 228.337 396.833C228.244 397.217 227.856 397.454 227.475 397.362C226.934 397.23 226.934 396.553 227.475 394.285C227.974 392.185 227.99 391.56 227.533 392.038C227.184 392.401 226.556 392.522 226.137 392.306C225.229 391.837 223.137 394.27 222.053 397.057C221.669 398.043 221.148 398.918 220.895 399.001C220.642 399.084 220.288 399.757 220.109 400.496C219.929 401.235 219.455 401.937 219.056 402.057C218.231 402.303 215.397 405.788 215.131 406.883C215.034 407.281 214.868 407.585 214.762 407.559C214.656 407.533 214.209 407.559 213.77 407.616C213.091 407.705 213.082 407.262 213.709 404.683C214.15 402.87 214.273 401.34 214.014 400.889C212.969 399.068 212.706 397.248 213.074 394.382C213.29 392.693 213.274 390.812 213.038 390.202C212.802 389.592 212.74 388.553 212.9 387.894C213.06 387.235 213.012 386.399 212.792 386.036C211.378 383.696 218.266 361.6 221.485 358.15C221.935 357.668 222.358 357.048 222.425 356.771C222.523 356.368 226.256 352.915 228.555 351.101C228.818 350.894 229.465 350.224 229.992 349.613C230.521 349.001 231.365 348.471 231.868 348.436C232.372 348.4 232.832 348.177 232.89 347.938C232.948 347.7 233.285 347.575 233.638 347.661C233.992 347.747 234.499 347.502 234.764 347.117C236.927 343.975 245.95 337.492 252.673 334.25C254.108 333.558 256.755 332.132 258.555 331.081C260.355 330.03 263.488 328.247 265.517 327.118C268.145 325.657 269.393 324.651 269.857 323.621C270.215 322.826 270.663 322.213 270.853 322.259C272.537 322.669 277.958 306.74 276.901 304.484C276.7 304.055 276.557 302.974 276.582 302.082C276.609 301.19 276.476 299.828 276.287 299.056C276.098 298.284 276 297.416 276.068 297.127C276.137 296.838 275.954 296.279 275.662 295.884C275.371 295.49 275.204 294.593 275.291 293.892C275.394 293.063 275.141 292.477 274.568 292.218C273.153 291.578 272.845 289.566 274.142 289.443C274.487 289.41 274.344 289.351 273.825 289.311C273.203 289.263 272.385 288.347 271.428 286.628C270.186 284.397 269.663 283.905 267.831 283.245C266.652 282.82 265.489 282.216 265.246 281.904C263.968 280.256 248.224 276.478 247.075 277.544C246.9 277.707 246.132 277.842 245.369 277.844C243.758 277.849 240.252 278.967 237.907 280.225C231.934 283.429 230.805 284.917 232.463 287.399C233.66 289.193 233.71 289.585 232.708 289.341C232.327 289.248 231.939 289.486 231.846 289.87C231.752 290.253 232.012 290.649 232.423 290.749C233.01 290.892 233.032 291.185 232.524 292.127C231.194 294.595 230.115 298.578 230.54 299.454C230.879 300.156 230.815 300.36 230.19 300.574C228.764 301.059 228.433 300.615 228.369 298.131C228.307 295.723 228.258 295.642 226.587 295.236C225.092 294.872 224.849 294.62 224.724 293.305C224.568 291.665 223.409 291.015 222.637 292.135C222.329 292.582 222.46 293.234 222.999 293.946C224.892 296.445 221.859 298.163 219.771 295.774C218.197 293.972 215.577 289.358 215.323 287.939C215.184 287.161 214.783 286.454 214.433 286.369C213.985 286.26 213.937 285.268 214.27 283.006C214.594 280.801 214.542 279.558 214.101 279.031C213.196 277.951 212.825 278.369 213.582 279.615C214.19 280.616 214.173 280.65 213.112 280.55C211.344 280.384 211.237 279.632 212.536 276.499C214.264 272.333 214.944 271.074 215.799 270.455C216.219 270.151 216.897 269.153 217.307 268.237C217.717 267.322 218.237 266.618 218.463 266.672C218.688 266.727 218.975 266.353 219.1 265.841C219.516 264.13 222.701 261.164 225.978 259.438C226.713 259.051 228.796 257.833 230.608 256.732C232.42 255.63 234.483 254.724 235.193 254.718C235.902 254.711 236.528 254.52 236.584 254.292C236.639 254.064 236.875 253.924 237.106 253.98C237.338 254.037 238.81 253.62 240.378 253.054C241.945 252.488 243.492 252.089 243.816 252.168C244.139 252.246 244.45 252.118 244.508 251.883C244.565 251.647 245.215 251.463 245.953 251.473C247.591 251.495 248.627 251.037 250.056 249.662C250.957 248.795 251.627 248.668 253.895 248.936C255.405 249.115 256.887 249.155 257.188 249.025C257.488 248.896 260.028 249.193 262.831 249.685Z" fill="#3E5BF1"/>
<path d="M252.443 248.36C251.136 248.042 251.086 247.229 252.372 247.205C252.845 247.197 253.267 247.173 253.311 247.152C253.354 247.131 253.433 247.457 253.486 247.876C253.555 248.426 253.266 248.561 252.443 248.36Z" fill="#3E5BF1"/>
<path d="M226.487 255.58C226.195 255.676 226.035 255.428 226.131 255.03C226.228 254.632 226.516 254.356 226.77 254.418C227.024 254.48 227.184 254.727 227.125 254.967C227.066 255.208 226.779 255.483 226.487 255.58Z" fill="#3E5BF1"/>
<path d="M247.999 279.771C247.486 279.646 247.151 279.236 247.245 278.849C247.339 278.462 247.825 278.252 248.338 278.377C248.851 278.502 249.186 278.912 249.092 279.299C248.998 279.686 248.512 279.896 247.999 279.771Z" fill="#3E5BF1"/>
<path d="M258.513 283.808C257.392 283.535 257.149 282.996 257.93 282.518C258.397 282.231 258.388 282.229 259.208 282.799C260.227 283.507 259.803 284.122 258.513 283.808Z" fill="#3E5BF1"/>
<path d="M266.138 285.797C265.474 285.809 265.312 285.64 265.594 285.23C265.816 284.909 266.286 284.716 266.64 284.802C267.6 285.036 267.226 285.777 266.138 285.797Z" fill="#3E5BF1"/>
<path d="M239.819 282.731C237.198 284.028 236.302 282.887 238.312 280.812C239.573 279.51 240.004 279.485 240.721 280.672C241.388 281.774 241.287 282.004 239.819 282.731Z" fill="#3E5BF1"/>
<path d="M248.474 283.599C247.167 283.691 246.871 283.165 247.827 282.449C248.776 281.739 249.269 281.847 249.388 282.792C249.445 283.243 249.091 283.556 248.474 283.599Z" fill="#3E5BF1"/>
<path d="M199.114 438.673C200.087 438.062 201.211 437.081 201.613 436.494C202.811 434.741 207.783 437.098 207.277 439.18C207.21 439.453 206.948 439.627 206.694 439.565C206.008 439.398 205.804 440.792 206.376 441.738C207.043 442.843 207.36 442.863 207.614 441.818C207.968 440.361 209.199 440.103 211.561 440.993C213.983 441.904 214.469 441.807 215.721 440.162C216.198 439.534 216.802 439.072 217.061 439.135C217.596 439.265 217.044 442.08 216.506 441.963C216.315 441.922 215.246 442.382 214.132 442.985C211.655 444.327 210.555 448.075 212.577 448.281C213.492 448.374 213.552 448.633 213.15 450.737C211.706 458.288 211.213 461.835 211.593 461.927C212.28 462.095 209.144 473.27 208.392 473.333C208.05 473.361 207.665 472.732 207.537 471.934L207.303 470.483L206.823 471.709C206.559 472.384 205.775 473.197 205.08 473.516C204.147 473.945 203.563 474.767 202.843 476.667C201.965 478.987 200.625 480.615 201.057 478.838C201.154 478.439 201.042 478.067 200.808 478.01C200.574 477.953 200.405 477.191 200.431 476.318C200.594 470.985 199.146 472.371 196.409 480.167C194.85 484.612 194.461 485.086 193.491 483.73C193.096 483.179 192.838 482.46 192.918 482.133C193.045 481.61 192.477 481.175 191.951 481.392C191.475 481.587 190.568 479.729 190.757 478.949C190.874 478.469 190.658 478 190.277 477.907C189.846 477.802 189.477 478.177 189.301 478.901C188.978 480.229 188.096 480.266 188.006 478.954C187.972 478.472 187.874 477.618 187.787 477.055C187.7 476.492 187.645 475.427 187.664 474.687C187.683 473.946 187.398 473.268 187.03 473.178C186.089 472.949 183.836 467.471 183.916 465.602C183.952 464.746 183.828 463.89 183.641 463.698C182.628 462.666 185.505 455.355 188.425 451.535C188.976 450.816 189.498 449.836 189.587 449.357C189.681 448.85 189.394 449.068 188.9 449.879C188.433 450.645 187.874 451.229 187.656 451.176C187.439 451.124 187.166 451.444 187.049 451.89C186.552 453.784 185.932 450.51 186.413 448.532C186.685 447.414 186.814 446.103 186.699 445.618C186.277 443.839 187.207 439.251 187.952 439.433C188.712 439.618 189.324 442.562 188.947 444.213C188.813 444.798 188.91 445.758 189.162 446.345C189.544 447.232 189.652 447.285 189.804 446.659C190.034 445.714 191.57 444.745 192.485 444.967C192.979 445.088 193.021 445.412 192.63 446.11C192.104 447.051 192.127 447.052 193.297 446.15C193.964 445.635 194.832 444.463 195.227 443.545C195.621 442.627 196.163 441.804 196.43 441.716C196.697 441.629 197.012 441.158 197.131 440.67C197.249 440.183 198.142 439.284 199.114 438.673Z" fill="#3E5BF1"/>
<path d="M195.531 438.816C194.759 438.628 195.516 437.427 196.679 436.996C197.763 436.594 197.887 436.628 197.877 437.318C197.866 438.045 196.346 439.015 195.531 438.816Z" fill="#3E5BF1"/>
<path d="M214.764 461.382C214.246 461.7 213.362 460.425 213.554 459.637C213.639 459.285 214.125 459.097 214.633 459.221C215.532 459.44 215.618 460.859 214.764 461.382Z" fill="#3E5BF1"/>
<path d="M21.0233 380.748C20.1733 380.918 20.2456 380.303 21.163 379.558C22.0657 378.823 23.7769 378.293 23.8624 378.721C23.9298 379.059 21.774 380.598 21.0233 380.748Z" fill="#3E5BF1"/>
<path d="M20.5459 382.574C21.1926 381.227 22.4679 380.321 25.341 379.167C27.0377 378.485 40.8366 375.737 43.3849 375.573C47.177 375.33 49.106 375.446 51.6218 376.07C53.4758 376.53 54.0415 376.745 54.094 377.008C54.122 377.148 54.3333 377.226 54.563 377.182C54.7931 377.137 55.4811 377.256 56.0923 377.446C56.7034 377.635 57.6842 377.669 58.2715 377.52C59.0585 377.32 59.3175 377.38 59.2549 377.747C59.2061 378.033 59.6085 378.422 60.2022 378.662C60.7698 378.891 62.8815 380.176 64.8952 381.518C66.9087 382.86 69.0734 384.251 69.7054 384.61C71.41 385.579 72.6463 386.756 73.6119 388.332C74.0855 389.105 74.6144 389.866 74.7868 390.023C74.9592 390.18 75.3307 390.89 75.6127 391.599C75.8943 392.309 76.2428 392.944 76.3871 393.011C76.7888 393.198 78.2096 395.133 78.3084 395.628C78.3566 395.869 78.746 396.673 79.1743 397.414C80.1028 399.022 83.6438 414.854 84.0004 418.993C84.285 422.293 84.2409 425.559 83.9112 425.625C83.7695 425.654 83.6873 426.375 83.7288 427.228C83.7702 428.082 83.6826 428.804 83.5343 428.834C83.386 428.864 83.3701 429.924 83.4985 431.191C83.724 433.409 83.4369 435.468 82.7475 436.583C82.5671 436.875 82.4626 437.331 82.5155 437.596C82.6052 438.045 82.0469 439.083 79.7334 442.765C79.2293 443.568 78.8646 444.536 78.9232 444.917C79.0758 445.906 78.7886 446.493 78.0836 446.634C77.7064 446.709 77.5347 446.977 77.6356 447.333C77.7389 447.697 77.531 448.003 77.0685 448.166C76.6111 448.327 76.3845 448.655 76.462 449.044C76.5876 449.673 74.6162 452.897 74.0352 453.013C73.8612 453.048 73.4983 453.512 73.2287 454.044C72.9594 454.577 72.5317 455.054 72.2785 455.105C72.0252 455.155 71.7388 455.424 71.6416 455.703C71.5444 455.982 70.6617 456.886 69.68 457.712C68.6983 458.538 67.5919 459.722 67.2211 460.343C66.8503 460.964 66.4186 461.498 66.2619 461.529C66.1052 461.56 65.5304 462.341 64.9843 463.264C63.6144 465.579 63.5688 465.678 63.4726 466.552C63.4258 466.977 63.2472 467.353 63.0759 467.388C62.9045 467.422 62.7959 467.609 62.8346 467.803C62.9125 468.193 62.3158 471.145 61.9222 472.318C61.7845 472.729 61.9634 474.65 62.3204 476.59C63.4713 482.844 63.4666 482.727 62.6196 484.133C62.189 484.848 61.8932 485.716 61.9623 486.063C62.1584 487.045 61.5915 487.293 60.4613 486.718C59.1768 486.065 58.99 486.452 59.3311 489.059C59.7645 492.371 59.2724 492.858 55.8624 492.491C55.1058 492.409 54.9078 492.495 54.9828 492.87C55.1355 493.636 54.1035 493.633 53.6032 492.867C53.1938 492.24 53.1697 492.279 53.3487 493.277C53.4579 493.884 53.4405 494.91 53.3107 495.558C53.1805 496.207 53.1387 497.62 53.2176 498.699C53.2965 499.778 53.2212 500.689 53.0508 500.723C52.8804 500.757 52.7888 501.05 52.847 501.373C52.9056 501.697 52.7911 502.298 52.5925 502.709C52.3942 503.121 52.3037 503.818 52.3915 504.258C52.6649 505.628 51.7503 505.066 50.0161 502.8C49.0023 501.476 48.1603 500.686 47.822 500.742C47.3539 500.82 44.1369 497.693 43.9972 497.024C43.9709 496.9 43.6221 496.393 43.2215 495.899C42.821 495.404 42.2522 494.226 41.9573 493.279C41.6628 492.333 41.2921 491.584 41.1341 491.616C40.7024 491.702 40.1373 488.421 40.444 487.608C40.6578 487.04 40.5828 486.813 40.0672 486.469C39.542 486.118 39.4495 485.825 39.5651 484.879C39.6432 484.241 39.3892 481.535 39.0014 478.864C38.6068 476.147 38.4253 473.814 38.5892 473.567C38.7503 473.325 38.8173 472.801 38.7377 472.402C38.6581 472.003 38.8432 471.183 39.1492 470.579C39.4548 469.974 39.5519 469.623 39.3648 469.798C38.9499 470.186 38.2892 469.568 38.6968 469.174C38.8558 469.02 39.0219 468.552 39.0659 468.133C39.1099 467.715 39.4278 466.912 39.7721 466.35C40.1166 465.787 40.4351 464.962 40.4803 464.516C40.525 464.07 40.8076 462.683 41.1081 461.435C41.4084 460.186 41.6231 459.007 41.5848 458.815C41.5466 458.623 41.6536 458.439 41.8229 458.405C41.992 458.371 42.1393 457.872 42.15 457.295C42.1607 456.719 42.2713 456.226 42.3956 456.202C42.5199 456.177 42.7222 455.706 42.845 455.154C43.1484 453.792 44.4124 451.757 45.2387 451.3C45.6914 451.05 45.862 450.652 45.7523 450.103C45.6242 449.461 45.7946 449.194 46.5243 448.889C47.1276 448.638 47.4734 448.228 47.4976 447.736C47.5391 446.877 48.8579 444.466 49.339 444.37C49.5114 444.336 49.8499 443.955 50.0911 443.523C50.3323 443.092 50.7567 442.694 51.034 442.639C51.3116 442.583 51.5117 442.404 51.4789 442.239C51.4461 442.075 51.7735 441.773 52.2066 441.567C52.9759 441.202 54.9261 438.622 54.8232 438.107C54.7701 437.841 56.0056 435.625 58.2161 432.022C58.9023 430.903 59.495 429.707 59.533 429.365C59.5709 429.022 59.7421 428.714 59.9135 428.68C60.0849 428.645 60.1792 428.387 60.123 428.105C60.0666 427.823 60.2288 427.46 60.4833 427.299C60.7378 427.138 60.9062 426.807 60.8577 426.564C60.8091 426.321 60.9751 425.812 61.227 425.434C61.4787 425.056 61.6726 424.513 61.6579 424.227C61.6267 423.628 62.2355 422.96 62.6657 423.121C63.2469 423.338 64.16 422.223 63.994 421.499L63.8246 420.761L63.6729 421.575C63.5256 422.365 62.8862 422.756 62.3398 422.391C62.1922 422.292 62.2263 421.826 62.4157 421.354C63.5364 418.565 60.2223 401.248 58.4116 400.432C58.2643 400.366 57.9826 400.031 57.7859 399.687C57.4415 399.086 55.097 397.961 54.4559 398.089C54.2848 398.124 54.1213 398.039 54.0923 397.901C54.0634 397.763 53.4024 397.387 52.6229 397.066C51.8434 396.745 51.0478 396.317 50.8545 396.114C50.6613 395.912 49.9264 395.861 49.2218 396.002C48.5169 396.143 47.4646 396.119 46.8832 395.949C46.3021 395.779 45.3465 395.735 44.7599 395.851C44.1734 395.967 43.5847 395.946 43.452 395.803C43.3193 395.66 42.3228 395.609 41.2375 395.69C40.1521 395.77 39.0185 395.704 38.7182 395.543C37.7923 395.047 29.9555 396.787 28.8719 397.729C28.3834 398.153 27.7593 398.551 27.4851 398.614C26.8475 398.758 25.9729 399.741 26.0663 400.208C26.1057 400.406 25.8205 400.74 25.4329 400.952C24.4695 401.478 22.5397 404.622 22.0756 406.423C21.6697 407.997 22.1997 411.845 22.8058 411.724C22.9896 411.688 23.2226 411.994 23.3237 412.404C23.4981 413.114 23.5106 413.107 23.5779 412.266L23.6487 411.382L24.2223 412.071C24.5377 412.45 24.7889 413.183 24.7806 413.7C24.7646 414.701 26.2982 416.886 27.243 417.209C27.5256 417.305 27.8007 417.603 27.8541 417.87C27.9073 418.137 28.0996 418.326 28.281 418.289C28.4628 418.253 28.8244 418.798 29.0848 419.5C29.3451 420.202 29.7821 420.815 30.0556 420.862C30.329 420.909 30.6012 421.19 30.6604 421.486C30.7426 421.898 30.9758 421.937 31.6482 421.648C33.287 420.947 33.6255 421.442 33.0597 423.714C32.7812 424.833 32.6218 426.092 32.7056 426.511C32.8804 427.387 31.6858 429.098 30.772 429.28C30.3808 429.359 30.2042 429.645 30.2882 430.066C30.4049 430.651 30.3139 430.703 29.509 430.514C29.0077 430.396 28.5584 430.103 28.5105 429.863C28.4007 429.313 27.4991 429.048 25.8403 429.078C24.2998 429.107 24.4863 430.028 26.048 430.105C27.1354 430.159 28.3504 430.802 28.4668 431.385C28.5138 431.62 28.7133 431.781 28.9101 431.741C29.1072 431.702 29.5694 431.871 29.9377 432.117C30.5632 432.535 30.5204 432.568 29.2854 432.613C28.5583 432.639 27.5698 432.379 27.0884 432.035C25.9083 431.191 24.1228 430.508 24.2074 430.932C24.245 431.121 24.1147 431.307 23.9179 431.346C23.4552 431.439 22.4352 430.757 22.3427 430.293C22.3033 430.096 21.9741 429.994 21.6109 430.066C21.2481 430.139 20.3667 429.767 19.6531 429.239C18.9391 428.712 18.2305 428.305 18.0784 428.335C17.6271 428.425 16.2341 427.539 16.1477 427.106C16.1038 426.886 15.9454 426.679 15.7951 426.645C15.3807 426.551 13.5994 424.782 13.5203 424.386C13.4821 424.195 13.3125 424.065 13.1431 424.099C12.974 424.133 12.6463 423.729 12.4151 423.2C12.1839 422.672 11.8562 422.268 11.6871 422.301C11.5177 422.335 11.3368 422.176 11.2845 421.947C11.2323 421.718 10.779 420.986 10.2769 420.32C9.77472 419.655 9.31251 418.878 9.24917 418.593C9.18589 418.31 8.92697 417.938 8.67319 417.769C8.40938 417.592 7.8614 415.997 7.3916 414.038C6.9399 412.156 6.27646 410.002 5.91704 409.251C5.4505 408.276 5.32381 407.654 5.47436 407.076C5.59023 406.632 5.66523 405.684 5.64064 404.971C5.61646 404.258 5.73985 403.646 5.91526 403.611C6.09066 403.576 6.19732 403.361 6.15208 403.135C5.81211 401.431 8.04292 395.875 9.15615 395.652C9.48124 395.587 9.02188 397.279 8.55641 397.861C8.46519 397.975 8.33221 398.315 8.26038 398.616C8.18888 398.918 7.88872 399.903 7.59364 400.806C7.29855 401.709 7.08905 402.612 7.12821 402.814C7.16703 403.015 7.063 403.648 6.89681 404.22C6.73029 404.792 6.67248 406.057 6.76782 407.031C6.9211 408.595 6.95597 408.667 7.06523 407.646C7.13319 407.01 7.34554 406.458 7.53732 406.42C7.91352 406.345 8.67542 405.333 8.60854 404.998C8.55067 404.708 9.5953 402.377 9.87053 402.182C9.99622 402.093 10.0671 401.844 10.0286 401.628C9.94172 401.146 15.6328 392.617 16.1042 392.523C16.2906 392.486 16.5849 392.192 16.7587 391.87C16.9324 391.548 17.334 391.233 17.6514 391.17C17.9692 391.106 18.7553 390.484 19.3989 389.787C20.0429 389.09 20.9353 388.346 21.3828 388.134C21.8303 387.921 22.2519 387.597 22.3201 387.413C22.3887 387.229 22.8067 387.006 23.2497 386.918C23.826 386.803 23.9721 386.626 23.7637 386.296C23.5976 386.033 23.6852 385.7 23.9674 385.521C24.5514 385.152 24.4643 384.254 23.8514 384.324C22.844 384.438 21.4079 384.945 20.8925 385.369C20.0885 386.03 18.7999 385.191 19.4579 384.434C19.6972 384.158 20.1868 383.321 20.5459 382.574Z" fill="#3E5BF1"/>
<path d="M64.5021 380.416C64.131 380.49 63.7894 380.326 63.7337 380.047C63.678 379.768 63.9305 379.485 64.3017 379.411C64.6729 379.337 65.0145 379.501 65.0701 379.78C65.1258 380.059 64.8733 380.342 64.5021 380.416Z" fill="#3E5BF1"/>
<path d="M62.342 533.855C62.7967 534.575 63.152 534.314 63.3149 533.138C63.5071 531.753 64.3951 531.57 65.7166 532.644C66.276 533.098 66.8476 533.454 66.9869 533.435C67.4704 533.366 72.4062 536.65 72.496 537.1C72.5456 537.349 72.7366 537.522 72.9203 537.486C73.1041 537.449 73.3329 537.812 73.4288 538.293C73.5487 538.893 74.1953 539.553 75.4972 540.403C77.2882 541.573 77.4315 541.765 78.124 543.931C79.8876 549.446 79.941 549.677 79.5995 550.311C79.4136 550.656 79.3792 551.284 79.523 551.708C79.6757 552.159 79.5973 552.598 79.3342 552.764C79.0224 552.962 78.9684 553.858 79.1582 555.67C79.4741 558.683 79.4204 559.002 78.6655 558.593C77.9955 558.23 77.5983 556.507 78.1163 556.21C78.3604 556.071 78.2923 555.962 77.9206 555.899C77.4768 555.823 77.3632 556.115 77.4063 557.226C77.4366 558.01 77.3673 558.834 77.2525 559.058C77.1374 559.282 77.0477 560.404 77.053 561.552C77.0697 565.351 77.056 565.555 76.7777 565.611C76.6253 565.641 76.3719 565.527 76.2144 565.358C76.0186 565.148 75.8036 565.204 75.5347 565.537C75.297 565.831 75.1147 565.888 75.0737 565.683C74.9815 565.221 74.1256 565.107 73.4011 565.46C72.7574 565.773 72.3687 567.05 72.3687 568.851C72.3687 569.476 72.2541 570.095 72.1139 570.226C71.9736 570.357 71.9019 570.68 71.9546 570.944C72.1816 572.081 71.415 574.248 70.607 574.753C69.5871 575.391 69.0985 574.899 68.2329 572.366C67.9266 571.47 67.5594 570.682 67.4171 570.614C66.7389 570.294 65.6231 568.813 65.4657 568.025C65.3487 567.439 65.0647 567.131 64.6157 567.105C63.582 567.043 62.6559 565.375 60.5607 559.799C60.0589 558.463 59.479 557.135 59.2719 556.848C58.7958 556.186 58.4956 553.549 58.4721 549.815C58.4534 546.846 57.7844 544.482 56.7176 543.616C56.4767 543.421 56.2483 542.677 56.2101 541.963C56.1714 541.249 56.086 539.853 56.0197 538.861C55.7801 535.274 56.7283 536.432 57.5977 540.788C58.2861 544.237 58.4194 544.614 58.7209 543.963C58.9501 543.468 58.9252 543.056 58.6457 542.716C57.8834 541.788 57.0063 536.488 57.5953 536.37C58.3277 536.224 58.7451 537.065 58.6095 538.414C58.5335 539.17 58.6466 539.759 58.9315 540.093C59.7573 541.061 61.2705 538.301 60.9085 536.487C60.4599 534.239 61.4444 532.432 62.342 533.855Z" fill="#3E5BF1"/>
</svg>
