<svg width="34" height="34" viewBox="0 0 34 34" fill="none" xmlns="http://www.w3.org/2000/svg">
<path fill-rule="evenodd" clip-rule="evenodd" d="M16.9988 2.83325C18.0204 2.83325 18.9629 3.38321 19.4655 4.27262L22.9156 10.3777L28.8761 11.5439C29.9145 11.747 30.7532 12.5118 31.0509 13.5271C31.3487 14.5424 31.0559 15.6391 30.2917 16.3709L25.7583 20.7122L26.807 27.9256C26.9592 28.972 26.5159 30.016 25.6575 30.6334C24.7991 31.2508 23.6683 31.3389 22.7247 30.8617L16.9988 27.9665L11.2729 30.8617C10.3293 31.3389 9.19846 31.2508 8.34003 30.6334C7.48161 30.016 7.0384 28.972 7.19054 27.9256L8.2393 20.7122L3.70581 16.3709C2.94163 15.6391 2.64886 14.5424 2.94662 13.5271C3.24439 12.5118 4.08306 11.747 5.12145 11.5439L11.082 10.3777L14.5321 4.27262C15.0347 3.38321 15.9772 2.83325 16.9988 2.83325ZM12.9067 12.9078L5.66545 14.3245L11.2532 19.6754L9.99439 28.3333L16.9988 24.7916L24.0032 28.3333L22.7444 19.6754L28.3321 14.3245L21.0909 12.9078L16.9988 5.66659L12.9067 12.9078Z" fill="white"/>
</svg>
