<svg width="34" height="34" viewBox="0 0 34 34" fill="none" xmlns="http://www.w3.org/2000/svg">
<path fill-rule="evenodd" clip-rule="evenodd" d="M14.5885 3.02306C16.2205 2.38816 17.9485 3.41541 18.3364 5.07241L20.354 4.37472C22.1887 3.74029 24.0833 5.15694 24.0833 7.16318V7.85177L26.1025 7.22336C27.9204 6.65759 29.75 8.06977 29.75 10.0387V23.7239C29.75 25.6929 27.9204 27.105 26.1025 26.5393L24.0833 25.9109V26.5995C24.0833 28.6057 22.1887 30.0223 20.354 29.3879L18.3796 28.7052C18.1195 30.3647 16.5312 31.5014 14.8962 31.0774L6.39616 28.8729C5.13486 28.5458 4.25001 27.3701 4.25001 26.0214V9.08191C4.25001 7.85668 4.98263 6.75997 6.08849 6.32976L14.5885 3.02306ZM21.25 23.9698C21.2495 23.9474 21.2495 23.9251 21.25 23.9026V9.86003C21.2495 9.83758 21.2495 9.81519 21.25 9.79286V7.16317L18.8647 7.98802C18.7161 8.0394 18.5651 8.06382 18.4167 8.06384V21.4372V25.6988C18.5651 25.6988 18.7161 25.7232 18.8647 25.7746L21.25 26.5995V23.9698ZM24.0833 10.9205V22.8422L26.9167 23.7239V10.0387L24.0833 10.9205ZM15.5833 5.7752L7.08334 9.08191V26.0214L15.5833 28.2258V21.4372V5.7752Z" fill="white"/>
</svg>
