<svg width="189" height="65" viewBox="0 0 189 65" fill="none" xmlns="http://www.w3.org/2000/svg">
<path d="M116.735 58.154L115.976 51.2935C121.323 47.2938 127.145 46.4783 133.424 47.1773C138.758 47.7727 144.14 48.1179 149.444 46.776C153.101 45.8526 155.658 43.3458 158.017 40.6016C164.664 32.8581 171.303 25.1045 177.936 17.3408C178.699 16.4477 179.557 15.589 179.764 14.4974C175.021 14.8339 170.277 14.9591 165.533 14.3464C160.333 13.6733 155.184 13.7725 150.634 16.7885C147.995 18.5144 146.059 21.0731 144.01 23.4678C140.561 27.4934 137.063 31.463 133.424 35.6396C132.497 35.8511 131.311 35.7864 129.715 35.5749L144.731 18.1736C143.17 16.823 141.251 16.5642 139.345 16.4779C136.83 16.3355 134.309 16.3268 131.794 16.452C128.05 16.7404 124.309 15.8648 121.082 13.9451C118.611 15.9385 117.114 18.7517 114.945 20.6804H111.461C113.781 16.7713 117.563 14.273 119.654 10.3596C120.767 10.1913 121.345 11.2743 122.147 11.7575C125.519 13.7898 129.107 14.2342 132.906 13.7553C137.585 13.1641 142.113 13.5309 146.456 16.1068C152.415 11.0542 159.505 11.1664 166.806 11.8525C170.993 12.2451 175.24 12.5687 179.432 11.5504C181.838 10.9636 183.839 9.64331 185.702 8.09863C187.962 11.4512 187.932 14.204 185.53 17.0604C179.186 24.5896 172.761 32.0929 166.387 39.6308C164.412 41.9651 162.506 44.3511 160.535 46.694C156.883 51.0519 151.954 52.6656 146.525 52.8425C141.095 53.0194 135.744 52.8425 130.345 52.8684C125.269 52.8771 120.638 54.1413 116.735 58.154Z" fill="white"/>
<path d="M9.15095 21.7949H12.2831L15.4752 38.5948L24.4971 21.7949H27.914L16.0447 43.6152H13.4371L9.15095 21.7949ZM7.59236 21.7949H10.7095L8.71635 36.4967L7.47247 43.6152H3.80078L7.59236 21.7949ZM26.1906 21.7949H29.3377L25.5462 43.6152H21.8745L23.1783 36.1819L26.1906 21.7949Z" fill="white"/>
<path d="M38.989 40.3632L40.2179 32.5852C40.2779 32.0657 40.2429 31.5961 40.113 31.1765C39.9831 30.7568 39.7434 30.4271 39.3937 30.1874C39.054 29.9376 38.6044 29.8077 38.0449 29.7977C37.5453 29.7877 37.0758 29.8726 36.6362 30.0525C36.1966 30.2223 35.8219 30.4771 35.5122 30.8168C35.2124 31.1565 35.0126 31.5711 34.9127 32.0607L31.3909 32.0756C31.4508 31.2264 31.7006 30.4871 32.1402 29.8576C32.5898 29.2182 33.1543 28.6937 33.8337 28.2841C34.5231 27.8644 35.2624 27.5597 36.0517 27.3699C36.851 27.1701 37.6303 27.0752 38.3896 27.0851C39.4886 27.1051 40.4627 27.3399 41.3119 27.7895C42.1612 28.2391 42.8056 28.8735 43.2452 29.6928C43.6948 30.5121 43.8646 31.5012 43.7547 32.6601L42.5708 39.8836C42.4809 40.4531 42.4159 41.0376 42.376 41.637C42.346 42.2265 42.4259 42.796 42.6158 43.3455L42.5858 43.6152L39.0939 43.6302C38.9441 43.1007 38.8691 42.5612 38.8691 42.0117C38.8691 41.4522 38.9091 40.9027 38.989 40.3632ZM40.6226 33.7541L40.2629 35.9871L37.925 35.9721C37.4454 35.9721 36.9509 36.0171 36.4413 36.107C35.9418 36.1969 35.4722 36.3518 35.0326 36.5716C34.593 36.7914 34.2233 37.0911 33.9236 37.4708C33.6239 37.8404 33.439 38.305 33.3691 38.8645C33.3191 39.3141 33.3691 39.7038 33.519 40.0335C33.6788 40.3532 33.9186 40.6079 34.2383 40.7978C34.558 40.9876 34.9377 41.0875 35.3773 41.0975C35.9668 41.1075 36.5462 40.9926 37.1157 40.7528C37.6952 40.513 38.1947 40.1733 38.6144 39.7337C39.044 39.2841 39.3387 38.7696 39.4986 38.1901L40.4427 39.8087C40.2229 40.4181 39.9132 40.9776 39.5136 41.4872C39.1239 41.9967 38.6693 42.4363 38.1498 42.806C37.6303 43.1756 37.0608 43.4604 36.4413 43.6602C35.8319 43.86 35.2024 43.9549 34.553 43.9449C33.6538 43.925 32.8346 43.7201 32.0953 43.3305C31.3559 42.9309 30.7714 42.3764 30.3418 41.667C29.9122 40.9576 29.7224 40.1384 29.7723 39.2092C29.8223 38.1602 30.0871 37.2859 30.5666 36.5866C31.0562 35.8772 31.6806 35.3177 32.4399 34.9081C33.2092 34.4885 34.0485 34.1887 34.9577 34.0089C35.8668 33.8291 36.766 33.7391 37.6552 33.7391L40.6226 33.7541Z" fill="white"/>
<path d="M58.8911 27.3999L58.3815 30.2773H51.5177L49.1948 43.6152H45.673L48.4905 27.3999H58.8911Z" fill="white"/>
<path d="M62.6677 38.1152L70.5805 27.3999H74.2222L71.4048 43.6152H67.868L69.7413 32.8999L61.8134 43.6152H58.1867L61.0042 27.3999H64.526L62.6677 38.1152Z" fill="white"/>
<path d="M82.0602 41.0525C82.6496 41.0625 83.1892 40.9526 83.6787 40.7228C84.1683 40.4931 84.5729 40.1633 84.8926 39.7337C85.2223 39.3041 85.4521 38.8096 85.582 38.2501L88.924 38.2351C88.7941 39.394 88.3845 40.4031 87.6951 41.2624C87.0157 42.1216 86.1665 42.786 85.1474 43.2556C84.1383 43.7151 83.0693 43.9349 81.9403 43.915C80.7913 43.895 79.8072 43.6602 78.9879 43.2106C78.1787 42.761 77.5243 42.1566 77.0247 41.3972C76.5252 40.6379 76.1755 39.7787 75.9757 38.8196C75.7858 37.8504 75.7409 36.8463 75.8408 35.8073L75.9007 35.2678C76.0206 34.1588 76.2854 33.1097 76.695 32.1206C77.1146 31.1315 77.6691 30.2573 78.3585 29.498C79.0579 28.7287 79.8821 28.1292 80.8313 27.6996C81.7804 27.27 82.8495 27.0702 84.0384 27.1001C85.2373 27.1201 86.2714 27.3949 87.1406 27.9244C88.0098 28.4539 88.6742 29.1783 89.1338 30.0974C89.5934 31.0066 89.8182 32.0457 89.8082 33.2146L86.4962 33.1996C86.4962 32.6401 86.4013 32.1206 86.2114 31.641C86.0316 31.1515 85.7418 30.7568 85.3422 30.4571C84.9526 30.1474 84.443 29.9825 83.8136 29.9626C83.0743 29.9426 82.4398 30.0874 81.9103 30.3972C81.3908 30.7069 80.9562 31.1265 80.6065 31.656C80.2668 32.1855 79.997 32.77 79.7972 33.4094C79.6074 34.0389 79.4775 34.6633 79.4076 35.2828L79.3476 35.8073C79.2977 36.3368 79.2777 36.9063 79.2877 37.5157C79.3077 38.1152 79.4026 38.6797 79.5724 39.2092C79.7423 39.7387 80.022 40.1733 80.4117 40.513C80.8113 40.8527 81.3608 41.0326 82.0602 41.0525Z" fill="white"/>
<path d="M100.793 27.3999L97.9758 43.6152H94.439L97.2565 27.3999H100.793ZM105.949 27.3999L105.454 30.2473H91.6815L92.176 27.3999H105.949Z" fill="white"/>
<path d="M111.254 30.7269L107.927 49.8496H104.39L108.287 27.3999H111.539L111.254 30.7269ZM120.665 35.2678L120.635 35.5825C120.515 36.5616 120.281 37.5507 119.931 38.5498C119.591 39.5389 119.127 40.4481 118.537 41.2773C117.958 42.0966 117.243 42.751 116.394 43.2406C115.545 43.7301 114.546 43.9599 113.397 43.93C112.388 43.91 111.539 43.6702 110.849 43.2106C110.16 42.741 109.61 42.1316 109.201 41.3823C108.791 40.6329 108.501 39.8137 108.331 38.9245C108.172 38.0253 108.112 37.1361 108.152 36.2569L108.301 35.058C108.461 34.1088 108.731 33.1597 109.111 32.2105C109.5 31.2614 110 30.3972 110.609 29.6179C111.219 28.8286 111.943 28.2041 112.782 27.7446C113.622 27.285 114.586 27.0702 115.675 27.1001C116.784 27.1301 117.688 27.3949 118.387 27.8944C119.087 28.394 119.616 29.0434 119.976 29.8427C120.346 30.6419 120.575 31.5162 120.665 32.4653C120.765 33.4144 120.765 34.3486 120.665 35.2678ZM117.099 35.5675L117.144 35.2378C117.193 34.7283 117.208 34.1738 117.188 33.5743C117.178 32.9748 117.094 32.4103 116.934 31.8808C116.774 31.3413 116.499 30.8967 116.109 30.547C115.73 30.1973 115.2 30.0125 114.521 29.9925C113.901 29.9626 113.342 30.0625 112.842 30.2923C112.343 30.5121 111.903 30.8218 111.524 31.2214C111.144 31.6211 110.824 32.0756 110.564 32.5852C110.315 33.0947 110.135 33.6242 110.025 34.1738L109.56 37.1111C109.53 37.7705 109.62 38.3999 109.83 38.9994C110.05 39.5889 110.39 40.0734 110.849 40.4531C111.319 40.8327 111.913 41.0326 112.633 41.0525C113.372 41.0725 114.006 40.9177 114.536 40.588C115.065 40.2583 115.505 39.8187 115.855 39.2692C116.204 38.7097 116.479 38.1052 116.679 37.4558C116.889 36.7964 117.029 36.167 117.099 35.5675Z" fill="white"/>
</svg>
