<svg width="117" height="40" viewBox="0 0 117 40" fill="none" xmlns="http://www.w3.org/2000/svg">
<path d="M72.2649 35.9998L71.795 31.7529C75.1052 29.2768 78.7091 28.772 82.596 29.2047C85.8982 29.5733 89.2298 29.787 92.5133 28.9563C94.7771 28.3847 96.3602 26.8328 97.8204 25.1341C101.935 20.3405 106.045 15.5406 110.151 10.7345C110.624 10.1816 111.155 9.6501 111.283 8.97432C108.346 9.18266 105.41 9.26012 102.473 8.88084C99.254 8.46416 96.0665 8.52559 93.2501 10.3926C91.6164 11.4611 90.4178 13.045 89.1497 14.5274C87.0141 17.0195 84.8491 19.4768 82.596 22.0624C82.022 22.1933 81.2879 22.1532 80.3002 22.0223L89.5955 11.25C88.6292 10.414 87.4412 10.2537 86.2613 10.2003C84.7045 10.1122 83.1442 10.1068 81.5869 10.1843C79.2695 10.3628 76.9536 9.82083 74.9558 8.63243C73.4261 9.86645 72.4998 11.608 71.157 12.8019H69C70.4362 10.382 72.7774 8.83543 74.0721 6.4128C74.7609 6.30863 75.1186 6.97906 75.6151 7.27822C77.7027 8.53627 79.9238 8.81139 82.2756 8.51491C85.1721 8.14898 87.9751 8.37601 90.6634 9.97062C94.3527 6.84284 98.7414 6.91229 103.261 7.33698C105.853 7.58005 108.483 7.78037 111.077 7.15001C112.567 6.78675 113.806 5.96941 114.959 5.01318C116.358 7.08858 116.339 8.79269 114.852 10.5609C110.925 15.2219 106.948 19.8668 103.002 24.5331C101.779 25.9781 100.599 27.4552 99.3794 28.9056C97.1183 31.6033 94.067 32.6023 90.7061 32.7118C87.3451 32.8213 84.0322 32.7118 80.6899 32.7278C77.5479 32.7332 74.6808 33.5158 72.2649 35.9998Z" fill="#2E638C"/>
<path d="M5.66357 13.4922H7.60254L9.57861 23.8921L15.1636 13.4922H17.2788L9.93115 27H8.31689L5.66357 13.4922ZM4.69873 13.4922H6.62842L5.39453 22.5933L4.62451 27H2.35156L4.69873 13.4922ZM16.2119 13.4922H18.1602L15.813 27H13.54L14.3472 22.3984L16.2119 13.4922Z" fill="#2D638C"/>
<path d="M24.1348 24.9868L24.8955 20.1719C24.9326 19.8503 24.911 19.5596 24.8306 19.2998C24.7502 19.04 24.6017 18.8359 24.3853 18.6875C24.175 18.5329 23.8966 18.4525 23.5503 18.4463C23.241 18.4401 22.9504 18.4927 22.6782 18.604C22.4061 18.7091 22.1742 18.8669 21.9824 19.0771C21.7969 19.2874 21.6732 19.5441 21.6113 19.8472L19.4312 19.8564C19.4683 19.3307 19.6229 18.873 19.895 18.4834C20.1733 18.0876 20.5228 17.7629 20.9434 17.5093C21.3701 17.2495 21.8278 17.0609 22.3164 16.9434C22.8112 16.8197 23.2936 16.7609 23.7637 16.7671C24.444 16.7795 25.047 16.9248 25.5728 17.2031C26.0985 17.4814 26.4974 17.8742 26.7695 18.3813C27.0479 18.8885 27.153 19.5008 27.085 20.2183L26.3521 24.6899C26.2964 25.0425 26.2562 25.4043 26.2314 25.7754C26.2129 26.1403 26.2624 26.4928 26.3799 26.833L26.3613 27L24.1997 27.0093C24.1069 26.6815 24.0605 26.3475 24.0605 26.0073C24.0605 25.661 24.0853 25.3208 24.1348 24.9868ZM25.146 20.8955L24.9233 22.2778L23.4761 22.2686C23.1792 22.2686 22.873 22.2964 22.5576 22.3521C22.2484 22.4077 21.9577 22.5036 21.6855 22.6396C21.4134 22.7757 21.1846 22.9613 20.999 23.1963C20.8135 23.4251 20.6991 23.7127 20.6558 24.0591C20.6248 24.3374 20.6558 24.5786 20.7485 24.7827C20.8475 24.9806 20.9959 25.1383 21.1938 25.2559C21.3918 25.3734 21.6268 25.4352 21.8989 25.4414C22.2638 25.4476 22.6226 25.3765 22.9751 25.228C23.3338 25.0796 23.6431 24.8693 23.9028 24.5972C24.1688 24.3188 24.3512 24.0003 24.4502 23.6416L25.0347 24.6436C24.8986 25.0208 24.7069 25.3672 24.4595 25.6826C24.2183 25.998 23.9368 26.2702 23.6152 26.499C23.2936 26.7279 22.9411 26.9041 22.5576 27.0278C22.1803 27.1515 21.7907 27.2103 21.3887 27.2041C20.832 27.1917 20.3249 27.0649 19.8672 26.8237C19.4095 26.5763 19.0477 26.2331 18.7817 25.7939C18.5158 25.3548 18.3983 24.8477 18.4292 24.2725C18.4601 23.623 18.624 23.0819 18.9209 22.6489C19.224 22.2098 19.6105 21.8634 20.0806 21.6099C20.5568 21.3501 21.0763 21.1646 21.6392 21.0532C22.202 20.9419 22.7586 20.8862 23.3091 20.8862L25.146 20.8955Z" fill="#2D638C"/>
<path d="M36.4551 16.9619L36.1396 18.7432H31.8906L30.4526 27H28.2725L30.0166 16.9619H36.4551Z" fill="#2D638C"/>
<path d="M38.793 23.5952L43.6914 16.9619H45.9458L44.2017 27H42.0122L43.1719 20.3667L38.2642 27H36.019L37.7632 16.9619H39.9434L38.793 23.5952Z" fill="#2D638C"/>
<path d="M50.7979 25.4136C51.1628 25.4198 51.4967 25.3517 51.7998 25.2095C52.1029 25.0672 52.3534 24.8631 52.5513 24.5972C52.7554 24.3312 52.8976 24.0251 52.978 23.6787L55.0469 23.6694C54.9665 24.3869 54.7129 25.0116 54.2861 25.5435C53.8656 26.0754 53.3398 26.4867 52.709 26.7773C52.0843 27.0618 51.4225 27.1979 50.7236 27.1855C50.0124 27.1732 49.4032 27.0278 48.896 26.7495C48.395 26.4712 47.9899 26.097 47.6807 25.627C47.3714 25.1569 47.1549 24.625 47.0312 24.0312C46.9137 23.4313 46.8859 22.8097 46.9478 22.1665L46.9849 21.8325C47.0591 21.146 47.223 20.4966 47.4766 19.8843C47.7363 19.272 48.0796 18.7308 48.5063 18.2607C48.9393 17.7845 49.4495 17.4134 50.0371 17.1475C50.6247 16.8815 51.2865 16.7578 52.0225 16.7764C52.7646 16.7887 53.4048 16.9588 53.9429 17.2866C54.481 17.6144 54.8923 18.0628 55.1768 18.6318C55.4613 19.1947 55.6004 19.8379 55.5942 20.5615L53.5439 20.5522C53.5439 20.2059 53.4852 19.8843 53.3677 19.5874C53.2563 19.2843 53.077 19.04 52.8296 18.8545C52.5884 18.6628 52.2729 18.5607 51.8833 18.5483C51.4256 18.536 51.0329 18.6257 50.7051 18.8174C50.3835 19.0091 50.1144 19.2689 49.8979 19.5967C49.6877 19.9245 49.5207 20.2863 49.397 20.6821C49.2795 21.0718 49.1991 21.4583 49.1558 21.8418L49.1187 22.1665C49.0877 22.4943 49.0754 22.8468 49.0815 23.2241C49.0939 23.5952 49.1527 23.9447 49.2578 24.2725C49.363 24.6003 49.5361 24.8693 49.7773 25.0796C50.0247 25.2899 50.3649 25.4012 50.7979 25.4136Z" fill="#2D638C"/>
<path d="M62.3945 16.9619L60.6504 27H58.4609L60.2051 16.9619H62.3945ZM65.5859 16.9619L65.2798 18.7246H56.7539L57.0601 16.9619H65.5859Z" fill="#2D638C"/>
<path d="M68.8701 19.0215L66.8105 30.8594H64.6211L67.0332 16.9619H69.0464L68.8701 19.0215ZM74.6963 21.8325L74.6777 22.0273C74.6035 22.6335 74.4582 23.2458 74.2417 23.8643C74.0314 24.4766 73.7438 25.0394 73.3789 25.5527C73.0202 26.0599 72.578 26.465 72.0522 26.7681C71.5265 27.0711 70.908 27.2134 70.1968 27.1948C69.5721 27.1825 69.0464 27.034 68.6196 26.7495C68.1929 26.4588 67.8527 26.0815 67.5991 25.6177C67.3455 25.1538 67.1662 24.6466 67.061 24.0962C66.9621 23.5396 66.925 22.9891 66.9497 22.4448L67.0425 21.7026C67.1414 21.1151 67.3084 20.5275 67.5435 19.9399C67.7847 19.3524 68.0939 18.8174 68.4712 18.335C68.8485 17.8464 69.2969 17.4598 69.8164 17.1753C70.3359 16.8908 70.9328 16.7578 71.6069 16.7764C72.2935 16.7949 72.8532 16.9588 73.2861 17.2681C73.7191 17.5773 74.0469 17.9793 74.2695 18.4741C74.4984 18.9689 74.6406 19.5101 74.6963 20.0977C74.7581 20.6852 74.7581 21.2635 74.6963 21.8325ZM72.4883 22.0181L72.5161 21.814C72.547 21.4985 72.5563 21.1553 72.5439 20.7842C72.5378 20.4131 72.4852 20.0636 72.3862 19.7358C72.2873 19.4019 72.1172 19.1266 71.876 18.9102C71.641 18.6937 71.3131 18.5793 70.8926 18.5669C70.5091 18.5483 70.1628 18.6102 69.8535 18.7524C69.5443 18.8885 69.2721 19.0802 69.0371 19.3276C68.8021 19.575 68.6042 19.8564 68.4434 20.1719C68.2887 20.4873 68.1774 20.8151 68.1094 21.1553L67.8218 22.9736C67.8032 23.3818 67.8589 23.7715 67.9888 24.1426C68.1248 24.5075 68.3351 24.8075 68.6196 25.0425C68.9103 25.2775 69.2783 25.4012 69.7236 25.4136C70.1813 25.4259 70.5741 25.3301 70.9019 25.126C71.2297 24.9219 71.5018 24.6497 71.7183 24.3096C71.9347 23.9632 72.1048 23.589 72.2285 23.187C72.3584 22.7788 72.445 22.3892 72.4883 22.0181Z" fill="#2D638C"/>
</svg>
