<svg width="20" height="20" viewBox="0 0 20 20" fill="none" xmlns="http://www.w3.org/2000/svg">
<path fill-rule="evenodd" clip-rule="evenodd" d="M1.66797 9.99935C1.66797 14.6017 5.39893 18.3327 10.0013 18.3327C14.6037 18.3327 18.3346 14.6017 18.3346 9.99935C18.3346 5.39698 14.6037 1.66602 10.0013 1.66602C5.39893 1.66602 1.66797 5.39698 1.66797 9.99935ZM3.33464 9.99935C3.33464 6.31745 6.3194 3.33268 10.0013 3.33268C13.6832 3.33268 16.668 6.31745 16.668 9.99935C16.668 13.6812 13.6832 16.666 10.0013 16.666C6.3194 16.666 3.33464 13.6812 3.33464 9.99935ZM13.9489 8.06245C14.2599 7.72319 14.237 7.19605 13.8977 6.88505C13.5585 6.57406 13.0313 6.59698 12.7203 6.93624L8.78119 11.2335L7.30815 9.46586C7.01352 9.1123 6.48805 9.06453 6.13448 9.35916C5.78092 9.6538 5.73315 10.1793 6.02778 10.5328L8.11112 13.0328C8.26505 13.2175 8.49126 13.3268 8.73163 13.3324C8.97201 13.3381 9.20312 13.2397 9.3656 13.0625L13.9489 8.06245Z" fill="#82879E"/>
</svg>
