<svg width="20" height="20" viewBox="0 0 20 20" fill="none" xmlns="http://www.w3.org/2000/svg">
<path fill-rule="evenodd" clip-rule="evenodd" d="M1.66602 9.99935C1.66602 14.6017 5.39698 18.3327 9.99935 18.3327C14.6017 18.3327 18.3327 14.6017 18.3327 9.99935C18.3327 5.39698 14.6017 1.66602 9.99935 1.66602C5.39698 1.66602 1.66602 5.39698 1.66602 9.99935ZM3.33268 9.99935C3.33268 6.31745 6.31745 3.33268 9.99935 3.33268C13.6812 3.33268 16.666 6.31745 16.666 9.99935C16.666 13.6812 13.6812 16.666 9.99935 16.666C6.31745 16.666 3.33268 13.6812 3.33268 9.99935ZM13.947 8.06245C14.258 7.72319 14.2351 7.19605 13.8958 6.88505C13.5565 6.57406 13.0294 6.59698 12.7184 6.93624L8.77923 11.2335L7.3062 9.46586C7.01156 9.1123 6.48609 9.06453 6.13253 9.35916C5.77896 9.6538 5.73119 10.1793 6.02583 10.5328L8.10916 13.0328C8.26309 13.2175 8.4893 13.3268 8.72968 13.3324C8.97006 13.3381 9.20117 13.2397 9.36364 13.0625L13.947 8.06245Z" fill="#4CAF50"/>
</svg>
