<svg width="20" height="20" viewBox="0 0 20 20" fill="none" xmlns="http://www.w3.org/2000/svg">
<path fill-rule="evenodd" clip-rule="evenodd" d="M10.8333 2.50131C10.8333 2.22799 10.6993 1.97205 10.4747 1.81637C10.25 1.66069 9.96331 1.62506 9.7074 1.72103L3.04073 4.22103C2.71548 4.343 2.5 4.65394 2.5 5.00131V17.5013C2.5 17.9615 2.8731 18.3346 3.33333 18.3346C3.79357 18.3346 4.16667 17.9615 4.16667 17.5013V5.57881L9.16667 3.70381V10.0013V17.5013C9.16667 17.9615 9.53976 18.3346 10 18.3346C10.4602 18.3346 10.8333 17.9615 10.8333 17.5013V11.0686L15.8333 12.3186V17.5013C15.8333 17.9615 16.2064 18.3346 16.6667 18.3346C17.1269 18.3346 17.5 17.9615 17.5 17.5013V11.668C17.5 11.2856 17.2398 10.9523 16.8688 10.8595L10.8333 9.35066V2.50131Z" fill="#82879E"/>
<path d="M13.4296 3.27923C13.7551 2.9538 14.2827 2.9538 14.6081 3.27923L15.492 4.16312L16.3759 3.27924C16.7013 2.9538 17.229 2.9538 17.5544 3.27924C17.8799 3.60467 17.8799 4.13231 17.5544 4.45775L16.6705 5.34163L17.5544 6.22551C17.8799 6.55095 17.8799 7.07859 17.5544 7.40402C17.229 7.72946 16.7013 7.72946 16.3759 7.40402L15.492 6.52014L14.6081 7.40403C14.2827 7.72946 13.7551 7.72946 13.4296 7.40403C13.1042 7.07859 13.1042 6.55095 13.4296 6.22552L14.3135 5.34163L13.4296 4.45775C13.1042 4.13231 13.1042 3.60467 13.4296 3.27923Z" fill="#82879E"/>
</svg>
