<svg width="20" height="20" viewBox="0 0 20 20" fill="none" xmlns="http://www.w3.org/2000/svg">
<path fill-rule="evenodd" clip-rule="evenodd" d="M6.66667 8.33398C5.74619 8.33398 5 7.58779 5 6.66732C5 5.74684 5.74619 5.00065 6.66667 5.00065C7.58714 5.00065 8.33333 5.74684 8.33333 6.66732C8.33333 7.58779 7.58714 8.33398 6.66667 8.33398ZM8.99982 9.04797C9.61705 8.44299 10 7.59987 10 6.66732C10 4.82637 8.50762 3.33398 6.66667 3.33398C4.82572 3.33398 3.33333 4.82637 3.33333 6.66732C3.33333 7.59987 3.71629 8.44299 4.33351 9.04797C3.22716 9.79706 2.5 11.0639 2.5 12.5007V15.834C2.5 16.2942 2.8731 16.6673 3.33333 16.6673C3.79357 16.6673 4.16667 16.2942 4.16667 15.834V12.5007C4.16667 11.1199 5.28596 10.0007 6.66667 10.0007C8.04738 10.0007 9.16667 11.1199 9.16667 12.5007V15.834C9.16667 16.2942 9.53976 16.6673 10 16.6673C10.4602 16.6673 10.8333 16.2942 10.8333 15.834V12.5007C10.8333 11.0639 10.1062 9.79706 8.99982 9.04797ZM12.5195 4.18825C12.8449 3.86282 13.3725 3.86282 13.698 4.18825L14.5819 5.07214L15.4657 4.18826C15.7912 3.86282 16.3188 3.86282 16.6443 4.18826C16.9697 4.51369 16.9697 5.04133 16.6443 5.36677L15.7604 6.25065L16.6443 7.13453C16.9697 7.45997 16.9697 7.98761 16.6443 8.31304C16.3188 8.63848 15.7912 8.63848 15.4657 8.31304L14.5819 7.42916L13.698 8.31305C13.3725 8.63848 12.8449 8.63848 12.5195 8.31305C12.194 7.98761 12.194 7.45997 12.5195 7.13454L13.4034 6.25065L12.5195 5.36677C12.194 5.04133 12.194 4.51369 12.5195 4.18825Z" fill="#82879E"/>
</svg>
