<svg width="30" height="30" viewBox="0 0 30 30" fill="none" xmlns="http://www.w3.org/2000/svg">
<path fill-rule="evenodd" clip-rule="evenodd" d="M4.26052 15.1117C3.97004 15.4112 3.75581 15.7801 3.63686 16.1855L2.60689 19.6964C2.34064 20.604 2.58032 21.5891 3.23055 22.2595C3.88078 22.93 4.83605 23.1772 5.71623 22.9026L9.12109 21.8406C9.5143 21.7179 9.87203 21.497 10.1625 21.1975L19.6669 11.3971L20.7894 12.6703L19.1361 14.375C18.6491 14.8772 18.6491 15.6914 19.1361 16.1935C19.6231 16.6957 20.4127 16.6957 20.8997 16.1935L23.3937 13.6218C23.8644 13.1365 23.8824 12.3555 23.4346 11.8476L21.4215 9.56414C22.7959 7.87342 22.7123 5.34989 21.1709 3.76042C19.5411 2.07986 16.8987 2.07986 15.2689 3.76042L4.26052 15.1117ZM19.4073 5.5789C19.942 6.13027 20.0408 6.96097 19.7035 7.6155L17.5768 5.20323C18.1855 4.94338 18.9124 5.06861 19.4073 5.5789ZM17.9873 9.49201L15.7255 6.92653L7.53047 15.3768L9.90536 17.8257L17.9873 9.49201ZM5.90462 17.3373L5.8617 17.4836L4.9941 20.4411L7.8622 19.5464L8.0041 19.5022L5.90462 17.3373ZM6.23678 26.8554C7.23257 26.9081 8.28848 26.6709 9.23887 26.3592C10.2044 26.0426 11.1497 25.6189 11.9477 25.2288C12.1949 25.1079 12.4395 24.9843 12.6699 24.866C12.711 24.985 12.7522 25.0974 12.7898 25.1982C12.7019 25.2736 12.5954 25.3856 12.5072 25.5401C12.4043 25.7206 12.3036 26.0016 12.3429 26.3455C12.3822 26.6891 12.543 26.9376 12.6826 27.0878C12.9085 27.3308 13.1642 27.4123 13.2175 27.4293L13.2211 27.4305C13.3116 27.4596 13.3876 27.4727 13.4265 27.4787C13.5618 27.4995 13.7058 27.5 13.7828 27.5C14.05 27.5 14.4248 27.4548 14.7744 27.2272C15.099 27.1571 15.4911 27.0695 15.8972 26.9666C16.6013 26.7882 17.4258 26.5455 18.1296 26.2238C18.4812 26.063 18.8462 25.8632 19.1623 25.6116L19.1749 25.6015C19.284 25.9015 19.372 26.2091 19.4155 26.4497C19.4847 26.8328 19.7187 27.1628 20.0517 27.3471C20.3847 27.5314 20.7807 27.55 21.1286 27.3978L21.1287 27.3977L21.1293 27.3975L21.1317 27.3964L21.1419 27.392L21.1823 27.3744L21.338 27.3067C21.4728 27.2483 21.6665 27.1647 21.9012 27.0643C22.371 26.8632 23.0029 26.5959 23.6543 26.329C24.3082 26.0612 24.9708 25.7984 25.5054 25.6043C25.7741 25.5067 25.9962 25.4317 26.1619 25.3827C26.2541 25.3554 26.3056 25.3434 26.3258 25.3387C26.3286 25.338 26.3307 25.3375 26.3323 25.3372C26.9841 25.295 27.5 24.7365 27.5 24.0539C27.5 23.3437 26.9417 22.768 26.253 22.768C25.9668 22.768 25.6522 22.858 25.4739 22.9107C25.2404 22.9798 24.9661 23.0736 24.677 23.1785C24.0962 23.3895 23.398 23.6668 22.7335 23.939C22.2717 24.1281 21.8208 24.317 21.4288 24.4831C21.2745 24.0896 21.092 23.7064 20.8932 23.3876C20.7722 23.1935 20.6188 22.9799 20.43 22.7942C20.2564 22.6234 19.9482 22.372 19.5127 22.293C18.9908 22.1982 18.5138 22.3894 18.1789 22.7207C17.9239 22.973 17.7723 23.281 17.6756 23.5444C17.6663 23.5528 17.654 23.5634 17.6384 23.5758C17.5385 23.6553 17.3698 23.758 17.1187 23.8727C16.6173 24.102 15.9613 24.3021 15.302 24.4691L15.1997 24.4948L15.1431 24.3419L15.1431 24.3418C15.0276 24.0309 14.9475 23.8148 14.9055 23.6188C14.9029 23.6064 14.9006 23.595 14.8986 23.5845C14.9198 23.5454 14.9412 23.5019 14.9612 23.4547L14.9621 23.4525C14.9968 23.3702 15.1945 22.9026 14.9535 22.3664C14.6553 21.7027 14.0357 21.6199 13.8647 21.6104C13.6605 21.5989 13.4963 21.6403 13.4344 21.6566C13.1955 21.7198 12.911 21.8635 12.7306 21.9549C12.5507 22.0459 12.36 22.146 12.1525 22.2548L12.1523 22.2549C11.7895 22.4452 11.3755 22.6624 10.8792 22.905C10.1289 23.2718 9.29711 23.6415 8.48307 23.9084C7.65387 24.1803 6.92758 24.3168 6.36459 24.287C5.67679 24.2506 5.0906 24.7961 5.05531 25.5053C5.02001 26.2145 5.54898 26.819 6.23678 26.8554ZM20.0201 24.4261C20.0201 24.4262 20.0189 24.429 20.0163 24.4339C20.0187 24.4284 20.02 24.4259 20.0201 24.4261ZM17.7018 23.5182C17.7018 23.5182 17.701 23.5192 17.6993 23.5212L17.7018 23.5182ZM14.8872 23.4912C14.8876 23.4914 14.8879 23.4968 14.8874 23.5064C14.8867 23.4957 14.8869 23.4909 14.8872 23.4912Z" fill="#3E5BF1"/>
</svg>
