<svg width="30" height="30" viewBox="0 0 30 30" fill="none" xmlns="http://www.w3.org/2000/svg">
<path d="M15 5H12.5C12.1685 5 11.8505 5.1317 11.6161 5.36612C11.3817 5.60054 11.25 5.91848 11.25 6.25C11.25 6.91304 10.9866 7.54893 10.5178 8.01777C10.0489 8.48661 9.41304 8.75 8.75 8.75H6.25C5.58696 8.75 4.95107 9.01339 4.48223 9.48223C4.01339 9.95107 3.75 10.587 3.75 11.25V22.5C3.75 23.163 4.01339 23.7989 4.48223 24.2678C4.95107 24.7366 5.58696 25 6.25 25H23.75C24.413 25 25.0489 24.7366 25.5178 24.2678C25.9866 23.7989 26.25 23.163 26.25 22.5V13.75M18.75 7.5H26.25M22.5 3.75V11.25M18.75 16.25C18.75 18.3211 17.0711 20 15 20C12.9289 20 11.25 18.3211 11.25 16.25C11.25 14.1789 12.9289 12.5 15 12.5C17.0711 12.5 18.75 14.1789 18.75 16.25Z" stroke="#C1C3D1" stroke-width="2" stroke-linecap="round" stroke-linejoin="round"/>
</svg>
