<svg width="32" height="32" viewBox="0 0 32 32" fill="none" xmlns="http://www.w3.org/2000/svg">
<g clip-path="url(#clip0_3407_26298)">
<path d="M28.9434 13.5659L17.5225 13.5653C17.0182 13.5653 16.6094 13.974 16.6094 14.4784V18.1268C16.6094 18.6311 17.0182 19.0399 17.5224 19.0399H23.954C23.2497 20.8676 21.9353 22.3983 20.2582 23.3708L23.0006 28.1182C27.3998 25.574 30.0006 21.1099 30.0006 16.1127C30.0006 15.4011 29.9482 14.8925 29.8433 14.3197C29.7636 13.8846 29.3858 13.5659 28.9434 13.5659Z" fill="#167EE6"/>
<path d="M16.001 24.5217C12.8535 24.5217 10.1058 22.802 8.63002 20.2572L3.88281 22.9934C6.29863 27.1804 10.8242 29.9999 16.001 29.9999C18.5405 29.9999 20.9367 29.3162 23.001 28.1246V28.1181L20.2585 23.3707C19.0041 24.0982 17.5525 24.5217 16.001 24.5217Z" fill="#12B347"/>
<path d="M23 28.1247V28.1181L20.2576 23.3707C19.0032 24.0982 17.5516 24.5217 16 24.5217V30C18.5395 30 20.9359 29.3162 23 28.1247Z" fill="#0F993E"/>
<path d="M7.47827 16C7.47827 14.4485 7.90166 12.9971 8.62906 11.7427L3.88185 9.00647C2.6837 11.0642 2 13.4539 2 16C2 18.546 2.6837 20.9357 3.88185 22.9935L8.62906 20.2572C7.90166 19.0029 7.47827 17.5514 7.47827 16Z" fill="#FFD500"/>
<path d="M16.001 7.47827C18.0534 7.47827 19.9387 8.20758 21.4113 9.42071C21.7746 9.71996 22.3026 9.69836 22.6354 9.36559L25.2205 6.78051C25.598 6.40295 25.5711 5.78492 25.1678 5.43503C22.7006 3.29462 19.4904 2 16.001 2C10.8242 2 6.29863 4.81952 3.88281 9.00651L8.63002 11.7427C10.1058 9.19797 12.8535 7.47827 16.001 7.47827Z" fill="#FF4B26"/>
<path d="M21.4103 9.42071C21.7736 9.71996 22.3017 9.69836 22.6344 9.36559L25.2195 6.78051C25.597 6.40295 25.5701 5.78492 25.1668 5.43503C22.6996 3.29456 19.4894 2 16 2V7.47827C18.0524 7.47827 19.9378 8.20758 21.4103 9.42071Z" fill="#D93F21"/>
</g>
<defs>
<clipPath id="clip0_3407_26298">
<rect width="28" height="28" fill="white" transform="translate(2 2)"/>
</clipPath>
</defs>
</svg>
