<svg width="63" height="43" viewBox="0 0 63 43" fill="none" xmlns="http://www.w3.org/2000/svg">
<path fill-rule="evenodd" clip-rule="evenodd" d="M41.9295 33.1447C48.0964 33.1447 53.0957 28.0254 53.0957 21.7103C53.0957 15.3952 48.0964 10.2759 41.9295 10.2759C39.1656 10.2759 36.6362 11.3042 34.6863 13.0077C32.7364 11.3045 30.2072 10.2763 27.4435 10.2763C21.2766 10.2763 16.2773 15.3957 16.2773 21.7107C16.2773 28.0258 21.2766 33.1452 27.4435 33.1452C30.2075 33.1452 32.7369 32.1168 34.6868 30.4133C36.6366 32.1165 39.1658 33.1447 41.9295 33.1447Z" fill="#ED0006"/>
<path fill-rule="evenodd" clip-rule="evenodd" d="M34.6875 30.4131C37.0883 28.3159 38.6107 25.1951 38.6107 21.7103C38.6107 18.2255 37.0883 15.1048 34.6875 13.0075C36.6374 11.3041 39.1667 10.2759 41.9305 10.2759C48.0974 10.2759 53.0967 15.3952 53.0967 21.7103C53.0967 28.0254 48.0974 33.1447 41.9305 33.1447C39.1667 33.1447 36.6374 32.1165 34.6875 30.4131Z" fill="#F9A000"/>
<path fill-rule="evenodd" clip-rule="evenodd" d="M34.6849 30.413C37.0857 28.3157 38.6081 25.195 38.6081 21.7102C38.6081 18.2253 37.0857 15.1046 34.6849 13.0073C32.2841 15.1046 30.7617 18.2253 30.7617 21.7102C30.7617 25.195 32.2841 28.3157 34.6849 30.413Z" fill="#FF5E00"/>
</svg>
