<svg width="20" height="20" viewBox="0 0 20 20" fill="none" xmlns="http://www.w3.org/2000/svg">
<path fill-rule="evenodd" clip-rule="evenodd" d="M1.66602 8.9195V8.64039C1.66602 5.24915 4.40205 2.5 7.77713 2.5H12.2216C15.5966 2.5 18.3327 5.24915 18.3327 8.64039C18.3327 12.0155 15.6226 14.7546 12.2697 14.7806L9.50779 17.0932C8.37932 18.0381 6.66602 17.2318 6.66602 15.7558V14.7214C3.8391 14.3151 1.66602 11.8723 1.66602 8.9195ZM8.44081 15.8067L11.4067 13.3233C11.5742 13.183 11.7855 13.1061 12.0036 13.1061H12.2216C14.6762 13.1061 16.666 11.1067 16.666 8.64039C16.666 6.17403 14.6762 4.17465 12.2216 4.17465H7.77713C5.32253 4.17465 3.33268 6.17403 3.33268 8.64039V8.9195C3.33268 11.2317 5.19816 13.1061 7.49935 13.1061C7.88917 13.1061 8.21648 13.3751 8.30751 13.7384C8.32395 13.804 8.33268 13.8727 8.33268 13.9435V15.7558C8.33268 15.8119 8.39787 15.8426 8.44081 15.8067Z" fill="#CC4B2F"/>
</svg>
