<svg width="20" height="20" viewBox="0 0 20 20" fill="none" xmlns="http://www.w3.org/2000/svg">
<path fill-rule="evenodd" clip-rule="evenodd" d="M9.99935 18.3346C5.39698 18.3346 1.66602 14.6037 1.66602 10.0013C1.66602 5.39893 5.39698 1.66797 9.99935 1.66797C14.6017 1.66797 18.3327 5.39893 18.3327 10.0013C18.3327 14.6037 14.6017 18.3346 9.99935 18.3346ZM9.99935 3.33464C6.31745 3.33464 3.33268 6.3194 3.33268 10.0013C3.33268 13.6832 6.31745 16.668 9.99935 16.668C13.6812 16.668 16.666 13.6832 16.666 10.0013C16.666 6.3194 13.6812 3.33464 9.99935 3.33464ZM8.33268 5.83464C8.33268 5.3744 8.70578 5.0013 9.16602 5.0013H11.041C12.7669 5.0013 14.166 6.40041 14.166 8.1263C14.166 9.85219 12.7669 11.2513 11.041 11.2513H9.99935V12.0846H11.666C12.1263 12.0846 12.4993 12.4577 12.4993 12.918C12.4993 13.3782 12.1263 13.7513 11.666 13.7513H9.99935V14.5846C9.99935 15.0449 9.62625 15.418 9.16602 15.418C8.70578 15.418 8.33268 15.0449 8.33268 14.5846V13.7513H6.66602C6.20578 13.7513 5.83268 13.3782 5.83268 12.918C5.83268 12.4577 6.20578 12.0846 6.66602 12.0846H8.33268V11.2513H6.66602C6.20578 11.2513 5.83268 10.8782 5.83268 10.418C5.83268 9.95773 6.20578 9.58464 6.66602 9.58464H8.33268V5.83464ZM9.99935 9.58464H11.041C11.8464 9.58464 12.4993 8.93172 12.4993 8.1263C12.4993 7.32089 11.8464 6.66797 11.041 6.66797H9.99935V9.58464Z" fill="#CC4B2F"/>
</svg>
