<svg width="20" height="20" viewBox="0 0 20 20" fill="none" xmlns="http://www.w3.org/2000/svg">
<path d="M17.5 10.0007V6.66732C17.5 4.82637 16.0076 3.33398 14.1667 3.33398H5.83333C3.99238 3.33398 2.5 4.82637 2.5 6.66732V14.1673C2.5 16.0083 3.99238 17.5007 5.83333 17.5007H10" stroke="#CC4B2F" stroke-width="2" stroke-linecap="round"/>
<path d="M6.66602 2.5V5" stroke="#CC4B2F" stroke-width="2" stroke-linecap="round"/>
<path d="M13.334 2.5V5" stroke="#CC4B2F" stroke-width="2" stroke-linecap="round"/>
<path d="M13.553 19.0902V12.7266H16.0323C16.3611 12.7266 16.6764 12.8702 16.9089 13.126C17.1414 13.3817 17.272 13.7285 17.272 14.0902C17.272 14.4519 17.1414 14.7987 16.9089 15.0544C16.6764 15.3102 16.3611 15.4538 16.0323 15.4538H12.7266M15.4538 17.7266H12.7266" stroke="#CC4B2F" stroke-width="1.75" stroke-linecap="round" stroke-linejoin="round"/>
</svg>
