<svg width="56" height="38" viewBox="0 0 56 38" fill="none" xmlns="http://www.w3.org/2000/svg">
<rect width="56" height="38" rx="6" fill="#F4F6FA"/>
<path fill-rule="evenodd" clip-rule="evenodd" d="M34.0123 28.0065C38.9766 28.0065 43.001 23.9668 43.001 18.9837C43.001 14.0006 38.9766 9.96094 34.0123 9.96094C31.7875 9.96094 29.7516 10.7722 28.182 12.1162C26.6124 10.7724 24.5766 9.9612 22.352 9.9612C17.3877 9.9612 13.3633 14.0008 13.3633 18.984C13.3633 23.9671 17.3877 28.0067 22.352 28.0067C24.5767 28.0067 26.6127 27.1954 28.1823 25.8515C29.7518 27.1953 31.7877 28.0065 34.0123 28.0065Z" fill="#ED0006"/>
<path fill-rule="evenodd" clip-rule="evenodd" d="M28.1797 25.8514C30.1126 24.1964 31.3383 21.7337 31.3383 18.9837C31.3383 16.2337 30.1126 13.771 28.1797 12.116C29.7493 10.7722 31.7852 9.96094 34.0098 9.96094C38.9742 9.96094 42.9985 14.0006 42.9985 18.9837C42.9985 23.9668 38.9742 28.0065 34.0098 28.0065C31.7852 28.0065 29.7493 27.1952 28.1797 25.8514Z" fill="#F9A000"/>
<path fill-rule="evenodd" clip-rule="evenodd" d="M28.1781 25.8515C30.111 24.1966 31.3367 21.7339 31.3367 18.9839C31.3367 16.2338 30.111 13.7712 28.1781 12.1162C26.2452 13.7712 25.0195 16.2338 25.0195 18.9839C25.0195 21.7339 26.2452 24.1966 28.1781 25.8515Z" fill="#FF5E00"/>
</svg>
