<svg width="22" height="22" viewBox="0 0 22 22" fill="none" xmlns="http://www.w3.org/2000/svg">
<g clip-path="url(#clip0_3408_21173)">
<path d="M11 22C17.0751 22 22 17.0751 22 11C22 4.92487 17.0751 0 11 0C4.92487 0 0 4.92487 0 11C0 17.0751 4.92487 22 11 22Z" fill="url(#paint0_linear_3408_21173)"/>
<path fill-rule="evenodd" clip-rule="evenodd" d="M4.97749 10.884C8.1842 9.48683 10.3225 8.56575 11.3924 8.12077C14.4472 6.85018 15.082 6.62945 15.4957 6.62215C15.5867 6.62056 15.7902 6.64312 15.922 6.75006C16.1175 6.90871 16.1186 7.25306 16.0969 7.48096C15.9313 9.22034 15.215 13.4413 14.8506 15.3894C14.6964 16.2137 14.3928 16.4901 14.0989 16.5172C13.4601 16.5759 12.975 16.095 12.3563 15.6895C11.3882 15.0548 10.8413 14.6598 9.90149 14.0405C8.81545 13.3248 9.5195 12.9315 10.1384 12.2886C10.3004 12.1204 13.1149 9.56035 13.1694 9.3281C13.1762 9.29906 13.1825 9.19078 13.1182 9.13363C13.0539 9.07648 12.959 9.09599 12.8905 9.11154C12.7934 9.13358 11.2468 10.1559 8.25063 12.1783C7.81162 12.4798 7.41399 12.6266 7.05773 12.619C6.66495 12.6105 5.90948 12.3969 5.34783 12.2143C4.65896 11.9904 4.11145 11.872 4.15915 11.4917C4.18398 11.2936 4.45675 11.091 4.97749 10.884V10.884Z" fill="white"/>
</g>
<defs>
<linearGradient id="paint0_linear_3408_21173" x1="11" y1="0" x2="11" y2="21.8281" gradientUnits="userSpaceOnUse">
<stop stop-color="#2AABEE"/>
<stop offset="1" stop-color="#229ED9"/>
</linearGradient>
<clipPath id="clip0_3408_21173">
<rect width="22" height="22" fill="white"/>
</clipPath>
</defs>
</svg>
