<svg width="20" height="20" viewBox="0 0 20 20" fill="none" xmlns="http://www.w3.org/2000/svg">
<path fill-rule="evenodd" clip-rule="evenodd" d="M5 2.49935C5 2.03911 5.3731 1.66602 5.83333 1.66602H7.5H12.5H14.1667C14.6269 1.66602 15 2.03911 15 2.49935C15 2.95959 14.6269 3.33268 14.1667 3.33268V6.24935V6.66602C14.1667 8.02902 13.5122 9.23916 12.5004 9.99935C13.5122 10.7595 14.1667 11.9697 14.1667 13.3327V13.7493V16.666C14.6269 16.666 15 17.0391 15 17.4993C15 17.9596 14.6269 18.3327 14.1667 18.3327H12.5H7.5H5.83333C5.3731 18.3327 5 17.9596 5 17.4993C5 17.0391 5.3731 16.666 5.83333 16.666V13.7493V13.3327C5.83333 11.9697 6.48779 10.7595 7.4996 9.99935C6.48779 9.23916 5.83333 8.02902 5.83333 6.66602V6.24935V3.33268C5.3731 3.33268 5 2.95959 5 2.49935ZM7.5 16.666H9.16667H10.8333H12.5V14.9993V13.7493V13.3327C12.5 11.952 11.3807 10.8327 10 10.8327C8.61929 10.8327 7.5 11.952 7.5 13.3327V13.7493V14.9993V16.666ZM10.8333 3.33268H12.5V4.99935V6.24935V6.66602C12.5 8.04673 11.3807 9.16602 10 9.16602C8.61929 9.16602 7.5 8.04673 7.5 6.66602V6.24935V4.99935V3.33268H9.16667H10.8333Z" fill="#82879E"/>
</svg>
