<svg width="26" height="26" viewBox="0 0 26 26" fill="none" xmlns="http://www.w3.org/2000/svg">
<path fill-rule="evenodd" clip-rule="evenodd" d="M12.6553 0.219616C13.1334 0.165711 13.5608 0.0840271 13.6049 0.0381261C13.7534 -0.115937 16.6497 0.234437 16.7714 0.421219C16.8111 0.48195 16.9883 0.56739 17.1653 0.610937C17.3423 0.654484 17.487 0.74218 17.487 0.805618C17.487 0.869173 17.5557 0.921062 17.6398 0.921062C18.0245 0.921062 19.9434 3.13315 19.9434 3.5765C19.9434 3.6696 19.9867 3.74574 20.0397 3.74574C20.1645 3.74574 20.6453 4.71368 20.6453 4.96507C20.6453 5.07123 20.6946 5.15809 20.7551 5.15809C20.8155 5.15809 20.9005 5.39713 20.944 5.68913C20.9875 5.98125 21.0698 6.24924 21.1266 6.28455C21.2657 6.37106 21.2594 8.75567 21.1196 9.01425C21.0588 9.12665 20.9773 9.41724 20.9387 9.65993C20.9001 9.90273 20.8241 10.1013 20.7696 10.1013C20.7152 10.1013 20.6373 10.2347 20.5967 10.3978C20.556 10.5609 20.0765 11.1483 19.5312 11.7031C18.9859 12.258 18.5397 12.7437 18.5397 12.7823C18.5397 12.8641 19.5079 14.1167 19.9011 14.5435C20.0489 14.704 20.205 14.9486 20.2479 15.087C20.2908 15.2255 20.3615 15.3652 20.405 15.3976C20.4735 15.4485 21.1553 16.5938 21.4716 17.1895C21.5308 17.301 21.691 17.7172 21.8275 18.1142C21.9641 18.5112 22.1484 18.976 22.2372 19.147C22.3258 19.3181 22.3987 19.5402 22.3992 19.6405C22.3995 19.7409 22.4484 19.8733 22.5078 19.9347C22.5673 19.9963 22.6689 20.3113 22.7339 20.635C22.7989 20.9586 22.907 21.4353 22.9741 21.6942C23.2024 22.5748 23.1293 25.4178 22.8703 25.7302L22.6468 26L13.1501 25.9958L3.65349 25.9914L3.39778 25.726C2.75442 25.0578 2.71056 22.0071 3.32479 20.635C3.43884 20.3799 3.63699 19.6393 3.80672 18.8328C4.0684 17.5901 4.60612 16.2842 5.29241 15.2248C5.50156 14.9019 5.67257 14.5948 5.67257 14.542C5.67257 14.4892 5.73843 14.367 5.81879 14.2704C5.89927 14.1738 6.01835 14.0304 6.08351 13.9517C6.69856 13.2093 6.69282 13.1383 5.95811 12.4022C5.6762 12.1198 5.20468 11.2299 5.20468 10.9803C5.20468 10.8852 5.15777 10.8074 5.10033 10.8074C5.04302 10.8074 4.95985 10.6623 4.91563 10.485C4.87142 10.3076 4.77363 10.1241 4.6983 10.0772C4.49687 9.95159 4.50565 5.96124 4.70754 5.89368C4.78802 5.86673 4.85376 5.76681 4.85376 5.67183C4.85376 5.51636 5.29381 4.59882 5.43863 4.45228C5.47079 4.41968 5.70767 4.12825 5.96501 3.80459C6.54977 3.06923 7.32203 2.33681 7.51492 2.33481C7.5954 2.3341 7.66113 2.28574 7.66113 2.22759C7.66113 2.16934 7.88491 2.00468 8.15827 1.86168C8.43164 1.71857 8.68173 1.5611 8.7139 1.51178C8.78677 1.39985 9.82586 0.921062 9.99582 0.921062C10.0645 0.921062 10.2122 0.871883 10.3239 0.811858C10.7423 0.586825 11.8148 0.314478 12.6553 0.219616ZM15.5521 1.5239C16.0373 1.5964 16.4342 1.69667 16.4342 1.74646C16.4342 1.79636 16.5638 1.86981 16.7222 1.90982C16.9714 1.97279 18.1888 3.06559 18.1888 3.22648C18.1888 3.28309 18.6572 3.98162 18.7737 4.09884C19.9757 5.30827 20.0995 8.94929 18.9842 10.2923C18.5764 10.7833 17.7951 11.5136 17.6775 11.5136C17.6483 11.5136 17.3446 11.699 17.0027 11.9256C16.6608 12.1521 16.2908 12.3375 16.1806 12.3375C16.0703 12.3375 15.9507 12.3853 15.9149 12.4436C15.879 12.5019 15.5337 12.5866 15.1475 12.6317C14.7612 12.6768 14.4159 12.7616 14.38 12.8198C14.2548 13.0237 11.2831 12.9375 10.644 12.7114C9.38428 12.2659 8.24939 11.5007 7.97216 10.9098C7.93064 10.8211 7.84537 10.6692 7.78279 10.5721C7.55738 10.2222 7.19324 9.28531 7.19324 9.05545C7.19324 8.92622 7.1406 8.78781 7.07626 8.74779C6.8884 8.63104 6.93707 6.3527 7.14025 5.74657C7.35736 5.09913 7.66968 4.45039 7.86584 4.23936C7.94632 4.15286 8.01229 4.0461 8.01264 4.0022C8.01346 3.8871 8.80116 3.04052 8.91264 3.03475C8.96423 3.03216 9.18858 2.87327 9.4113 2.68167C9.63402 2.49018 9.87089 2.33306 9.93768 2.33271C10.0045 2.33224 10.1956 2.26032 10.3624 2.17275C10.5292 2.08507 10.8647 1.97585 11.1079 1.92995C11.3511 1.88405 11.6357 1.7973 11.7404 1.73716C12.2205 1.4614 14.3414 1.34265 15.5521 1.5239ZM18.0797 13.9852C18.0197 13.9852 17.9372 13.8793 17.8964 13.7498C17.8555 13.6204 17.7599 13.5206 17.6838 13.5281C17.3751 13.5586 17.136 13.6551 17.136 13.7491C17.136 13.804 16.9781 13.8838 16.7851 13.9264C16.5921 13.969 16.4342 14.0527 16.4342 14.1122C16.4342 14.1719 16.3684 14.221 16.288 14.2213C16.2076 14.2218 16.0013 14.2958 15.8297 14.3859C15.6579 14.476 15.2895 14.5876 15.0108 14.6338C14.7321 14.6801 14.4302 14.7782 14.3398 14.8518C14.0988 15.0481 10.0623 15.0361 9.86598 14.8385C9.78561 14.7576 9.63834 14.691 9.53856 14.6907C9.43879 14.6902 9.21607 14.6158 9.04342 14.5252C8.60126 14.2931 8.01206 14.1761 8.01206 14.3205C8.01206 14.3859 7.94632 14.5101 7.86584 14.5968C7.78548 14.6835 7.58802 15.0183 7.42719 15.3408C7.26635 15.6633 7.10188 15.9537 7.06176 15.986C7.02152 16.0184 6.95157 16.2171 6.90619 16.4274C6.8608 16.6377 6.77529 16.8099 6.7161 16.8099C6.6568 16.8099 6.60837 16.921 6.60837 17.0569C6.60837 17.1928 6.53479 17.4709 6.44472 17.6748C6.20773 18.212 6.01847 18.9883 5.89506 19.9288C5.83564 20.3819 5.73667 20.8586 5.67514 20.9881C5.3475 21.6776 5.33733 24.3424 5.6624 24.3424C5.77096 24.3424 5.9153 24.3983 5.98326 24.4667C6.12515 24.6094 20.8562 24.7859 21.3897 24.6512L21.7129 24.5695L21.6622 23.3673C21.6039 21.9844 21.2653 20.3536 20.8865 19.6307C20.8345 19.5315 20.7523 19.2684 20.7037 19.0461C20.6552 18.8238 20.5714 18.5607 20.5175 18.4615C20.4636 18.3623 20.3102 18.0163 20.1767 17.6926C20.0431 17.369 19.8619 16.9717 19.7741 16.8099C19.6863 16.6481 19.5174 16.3328 19.3988 16.1091C19.2802 15.8855 19.1173 15.6301 19.0369 15.5416C18.9565 15.4531 18.8906 15.3293 18.8906 15.2664C18.8906 15.2036 18.8371 15.0883 18.7715 15.0101C18.2958 14.4426 18.1888 14.2835 18.1888 14.1438C18.1888 14.0565 18.1397 13.9852 18.0797 13.9852Z" fill="#EC9023"/>
</svg>
