<svg width="84" height="83" viewBox="0 0 84 83" fill="none" xmlns="http://www.w3.org/2000/svg">
<path fill-rule="evenodd" clip-rule="evenodd" d="M37.413 0.152088C35.5776 0.282949 33.9275 0.508006 33.7461 0.652686C33.5645 0.797367 32.6861 1.00381 31.7943 1.11183C30.9024 1.21956 30.1724 1.42573 30.1724 1.56956C30.1724 1.7134 29.8234 1.83213 29.3967 1.83297C28.9699 1.8341 28.2574 2.02447 27.8132 2.25602C27.3687 2.48784 26.8609 2.6816 26.6849 2.68695C26.5086 2.69231 25.8568 2.94163 25.2362 3.24142C24.6157 3.54122 23.9495 3.79053 23.7554 3.79589C23.5616 3.80125 23.4028 3.92224 23.4028 4.06523C23.4028 4.20793 23.022 4.40845 22.5566 4.51055C22.0912 4.61264 21.7104 4.81316 21.7104 4.95587C21.7104 5.09886 21.5471 5.21562 21.3474 5.21562C20.8659 5.21562 16.6332 8.03026 16.6332 8.35036C16.6332 8.48771 16.4747 8.60277 16.2807 8.60644C15.5061 8.62082 10.284 13.6804 8.96643 15.6932C8.70552 16.0917 8.32472 16.5974 8.12022 16.8174C7.44439 17.5436 6.47889 19.0071 6.47889 19.3057C6.47889 19.4671 6.37989 19.599 6.2586 19.599C6.13759 19.599 5.89304 19.9482 5.71506 20.3746C5.53708 20.8011 5.13627 21.5944 4.82403 22.1373C4.51178 22.6802 4.06753 23.5686 3.8368 24.1115C3.60579 24.6544 3.15392 25.6945 2.83237 26.4227C2.5111 27.1509 2.24792 28.0077 2.24792 28.3264C2.24792 28.6451 2.14214 28.906 2.01296 28.906C1.76051 28.906 1.25815 31.0294 0.812487 33.9825C0.660172 34.9907 0.413367 36.3569 0.26359 37.0182C-0.0878633 38.5719 -0.0878633 44.0585 0.26359 45.6122C0.413367 46.2735 0.657635 47.6397 0.806565 48.6479C1.20653 51.3579 1.65248 53.2419 1.96839 53.5578C2.12212 53.7115 2.24876 54.0973 2.24961 54.4154C2.25074 54.7333 2.429 55.334 2.64619 55.7503C2.86338 56.1662 3.12655 56.8961 3.23091 57.3719C3.33556 57.8477 3.5378 58.2369 3.68053 58.2369C3.82353 58.2369 3.9403 58.4233 3.9403 58.6512C3.9403 59.0486 5.01161 61.329 5.33543 61.6212C5.55854 61.8226 6.14239 62.7722 6.54941 63.5954C6.90425 64.3135 6.96659 64.4051 7.82407 65.4729C8.0926 65.8074 8.50272 66.3632 8.73542 66.7079C9.9373 68.4886 14.6484 73.1985 16.2101 74.1808C16.6756 74.4735 17.7764 75.2576 18.6568 75.9229C19.5371 76.5885 20.3937 77.1328 20.5607 77.1328C20.7277 77.1328 20.8642 77.2495 20.8642 77.3925C20.8642 77.5352 21.245 77.7357 21.7104 77.8378C22.1758 77.9399 22.5566 78.1303 22.5566 78.2609C22.5566 78.3915 22.9374 78.5818 23.4028 78.6839C23.8682 78.786 24.249 78.9865 24.249 79.1293C24.249 79.2722 24.4078 79.3932 24.6016 79.3986C24.7956 79.4039 25.4619 79.6533 26.0824 79.9531C26.703 80.2529 27.3548 80.5022 27.5311 80.5075C27.7071 80.5129 28.2148 80.7066 28.6594 80.9385C29.1036 81.17 29.7908 81.3604 30.1865 81.3615C30.582 81.3624 31.0262 81.4791 31.1737 81.6204C31.4248 81.8615 32.9891 82.1876 36.6599 82.764C38.6777 83.081 45.3904 83.0779 47.3784 82.759C48.2316 82.6222 49.8501 82.361 50.9747 82.1791C52.0993 81.9969 53.0196 81.7389 53.0196 81.6055C53.0196 81.4723 53.3686 81.3624 53.7953 81.3615C54.2221 81.3604 54.9346 81.17 55.3788 80.9385C55.8234 80.7066 56.3311 80.5129 56.5071 80.5075C56.6834 80.5022 57.3352 80.2529 57.9558 79.9531C58.5763 79.6533 59.2428 79.4039 59.4366 79.3986C59.6307 79.3932 59.7892 79.2722 59.7892 79.1293C59.7892 78.9865 60.17 78.786 60.6354 78.6839C61.1008 78.5818 61.4816 78.3915 61.4816 78.2609C61.4816 78.1303 61.8624 77.9399 62.3278 77.8378C62.7932 77.7357 63.174 77.5352 63.174 77.3925C63.174 77.2495 63.306 77.1328 63.4674 77.1328C63.8013 77.1328 65.5228 75.9734 65.6655 75.6521C65.7174 75.5356 65.8747 75.4406 66.0158 75.4406C66.7046 75.4406 73.5385 69.0857 75.164 66.9332C76.0491 65.7617 78.3482 62.165 78.8303 61.1982C79.1397 60.5777 79.4881 60.0278 79.6043 59.9762C79.7205 59.9243 79.8201 59.7339 79.8254 59.5531C79.8308 59.372 80.0801 58.7163 80.38 58.0959C80.6798 57.4754 80.9291 56.7455 80.9345 56.4742C80.9399 56.2029 81.0631 55.9807 81.2089 55.9807C81.3545 55.9807 81.5593 55.4096 81.6639 54.7115C81.7686 54.0135 81.955 53.4424 82.078 53.4424C82.201 53.4424 82.3911 52.776 82.5005 51.9618C82.61 51.1475 82.8077 50.3466 82.94 50.1825C83.1868 49.8756 83.7368 45.527 83.9721 42.0203C84.0449 40.9345 83.9704 39.2211 83.8065 38.2129C83.6426 37.2046 83.3848 35.5548 83.2336 34.5465C82.8379 31.9096 82.3395 29.655 82.08 29.329C81.9564 29.1739 81.7612 28.607 81.6459 28.0692C81.5308 27.5314 81.3409 26.8968 81.2239 26.6591C80.4575 25.1006 79.8158 23.583 79.8158 23.3286C79.8158 23.1644 79.7205 22.9882 79.6043 22.9363C79.4881 22.8847 79.1414 22.3347 78.8343 21.7143C78.1779 20.3879 77.2245 18.9332 76.9247 18.8001C76.8085 18.7482 76.7131 18.5846 76.7131 18.436C76.7131 17.399 68.7089 8.88198 67.7344 8.88198C67.6013 8.88198 67.2625 8.62816 66.9819 8.31793C66.7012 8.0077 66.3111 7.75387 66.1154 7.75387C65.9196 7.75387 65.7174 7.65855 65.6655 7.54235C65.5126 7.19856 62.6951 5.70691 60.4944 4.8047C59.8738 4.55031 59.1597 4.23021 58.9072 4.09315C58.6548 3.95608 57.9566 3.75528 57.3558 3.64698C56.755 3.53868 56.1365 3.35282 55.9813 3.23437C55.6874 3.0096 51.8415 2.35106 51.6926 2.49997C51.6457 2.54679 52.3379 2.81584 53.2303 3.09815C55.7432 3.89234 60.267 5.90377 60.6382 6.39196C60.7175 6.49603 61.1205 6.66609 61.5346 6.76988C61.9484 6.87366 62.3557 7.13764 62.4395 7.35621C62.5236 7.57506 62.7864 7.75387 63.0242 7.75387C63.2617 7.75387 63.4561 7.86132 63.4561 7.99275C63.4561 8.12417 63.6992 8.34641 63.9962 8.4863C65.6297 9.25652 72.0771 15.5982 72.593 16.9426C73.0387 18.104 72.2754 17.7571 70.5438 16.0108C66.9232 12.3602 64.9928 11.1187 68.2173 14.5149C70.6837 17.1124 71.6359 18.1813 71.6359 18.3528C71.6359 18.5739 72.881 20.2934 73.1168 20.398C73.233 20.4499 73.3284 20.6629 73.3284 20.8716C73.3284 21.0803 73.4888 21.4187 73.6852 21.6237C73.8815 21.8285 74.5006 22.9481 75.0605 24.1115C76.6127 27.3354 76.9952 28.2466 76.9952 28.7204C76.9952 28.9593 77.1103 29.2258 77.2507 29.3127C77.3915 29.3995 77.5937 30.1049 77.7003 30.8802C77.807 31.6555 77.9959 32.3526 78.1203 32.4294C78.9744 32.957 78.2679 46.3655 77.2942 48.1129C77.1557 48.3617 76.9534 49.1564 76.8451 49.879C76.7368 50.6018 76.5357 51.2626 76.3986 51.3472C76.2613 51.4321 76.149 51.6969 76.149 51.9358C76.149 52.4096 75.7665 53.3209 74.2143 56.5447C73.6544 57.7081 73.0353 58.8277 72.839 59.0325C72.6427 59.2375 72.4822 59.5286 72.4822 59.6792C72.4822 59.8298 72.353 60.1062 72.1947 60.2934C71.104 61.5868 70.7897 62.0172 70.7897 62.2177C70.7897 63.0971 62.0951 70.7953 60.3957 71.4209C60.1396 71.5151 59.8668 71.6648 59.7892 71.7536C59.3559 72.25 54.7352 74.284 52.4555 74.982C46.4975 76.8056 35.3517 76.9153 32.1375 75.1814C31.8998 75.0531 31.2882 74.8568 30.7788 74.7448C30.2691 74.6329 29.5118 74.3638 29.0957 74.1467C28.6794 73.9295 28.1965 73.7513 28.0222 73.7501C27.3819 73.7467 24.5477 72.2965 23.7472 71.5627C23.5356 71.3687 23.1811 71.2102 22.9597 71.2102C22.738 71.2102 22.5566 71.0833 22.5566 70.9281C22.5566 70.773 22.3981 70.6458 22.204 70.6458C22.0103 70.6456 21.5192 70.3601 21.113 70.0113C20.7068 69.6624 19.7656 68.8693 19.0215 68.2489C16.8005 66.3974 13.8885 63.2826 13.1258 61.9433C12.9805 61.6886 12.7266 61.3259 12.5616 61.1375C12.0167 60.5157 11.7033 60.0486 11.1725 59.0663C9.37175 55.7361 9.04543 55.057 8.87732 54.2924C8.77465 53.8248 8.58819 53.4424 8.46296 53.4424C8.33772 53.4424 8.14957 52.8713 8.04492 52.1733C7.94028 51.4753 7.73548 50.9042 7.58993 50.9042C7.4441 50.9042 7.3251 50.5914 7.3251 50.209C7.3251 49.8265 7.1426 48.97 6.91977 48.3053C5.93734 45.3758 5.82421 34.4388 6.76434 33.2774C6.88986 33.1223 7.08392 32.4877 7.19562 31.8673C7.30732 31.2468 7.49771 30.6122 7.61872 30.4571C7.73972 30.302 7.92758 29.6993 8.03645 29.1175C8.14505 28.536 8.34701 28.0599 8.48466 28.0599C8.62259 28.0599 8.73542 27.9259 8.73542 27.7624C8.73542 27.18 10.6608 23.0542 11.2035 22.474C11.3976 22.2668 11.5561 21.9156 11.5561 21.6942C11.5561 21.4726 11.683 21.2912 11.8381 21.2912C11.9933 21.2912 12.1202 21.1189 12.1202 20.9085C12.1202 20.6981 12.7548 19.6769 13.5305 18.6393C14.3062 17.602 14.9408 16.7023 14.9408 16.6406C14.9408 16.4426 18.6314 12.8304 18.8351 12.829C18.9428 12.8284 19.4364 12.4477 19.9323 11.9829C20.4279 11.5184 20.9714 11.1382 21.1398 11.1382C21.3082 11.1382 21.5192 10.9478 21.6083 10.7152C21.6977 10.4825 21.9386 10.2921 22.1437 10.2921C22.3485 10.2921 22.6894 10.1336 22.901 9.93959C23.4744 9.41389 24.2955 8.90201 25.1657 8.52776C25.5925 8.34444 25.9414 8.09513 25.9414 7.97414C25.9414 7.85286 26.0754 7.75387 26.239 7.75387C26.5354 7.75387 28.7708 6.83418 29.6441 6.35304C29.8965 6.214 30.5642 6.01376 31.128 5.908C31.6919 5.80224 32.2204 5.60679 32.3025 5.47396C32.3849 5.34084 33.0816 5.14849 33.8508 5.0464C34.62 4.94431 35.2495 4.76325 35.2495 4.64395C35.2495 4.52437 36.1699 4.33597 37.2945 4.22485C38.4191 4.11402 39.5547 3.90983 39.8176 3.77164C40.0807 3.63316 42.585 3.49299 45.3828 3.45971C51.7845 3.38356 51.7092 2.98365 45.1218 2.07608C42.6755 1.73906 33.8528 1.93563 33.0872 2.34429C32.8026 2.49602 31.8083 2.69316 30.8775 2.78228C29.3812 2.92527 29.3157 2.91229 30.3134 2.66862C30.934 2.51689 31.6955 2.27096 32.0058 2.12177C33.4807 1.41332 38.3957 0.742654 42.4422 0.697812C45.9804 0.65861 47.9185 0.193264 44.6987 0.155755C43.6128 0.143346 42.28 0.083837 41.737 0.023765C41.1941 -0.036307 39.2481 0.0215093 37.413 0.152088ZM29.2497 3.41177C29.1561 3.5054 28.9127 3.51555 28.7093 3.43405C28.4842 3.34408 28.5511 3.27724 28.8797 3.2637C29.177 3.25157 29.3434 3.31813 29.2497 3.41177ZM27.8219 3.71157C27.7184 3.81479 27.5492 3.81479 27.4457 3.71157C27.3424 3.60806 27.427 3.52345 27.6338 3.52345C27.8405 3.52345 27.9252 3.60806 27.8219 3.71157ZM73.6104 18.5953C73.6104 18.6638 73.4637 18.8102 73.2846 18.9208C73.0829 19.0457 73.0356 18.9983 73.1605 18.7967C73.3613 18.4715 73.6104 18.3601 73.6104 18.5953ZM76.9058 26.1387C76.8158 26.3635 76.749 26.2967 76.7354 25.9681C76.7233 25.6708 76.7898 25.5044 76.8835 25.5981C76.9771 25.6917 76.9873 25.9351 76.9058 26.1387ZM24.8131 28.6739C24.115 29.0005 23.3241 29.5352 23.0556 29.8623C22.7868 30.1895 22.406 30.6444 22.2094 30.8731C21.7234 31.4383 21.7189 35.4425 22.204 35.6041C22.3981 35.6687 22.5566 35.8907 22.5566 36.0974C22.5566 36.5692 24.6024 38.2129 25.1897 38.2129C25.4297 38.2129 25.7045 38.3398 25.8004 38.4949C26.7219 39.9857 31.8648 37.6928 31.8648 35.7911C31.8648 35.4352 31.9917 35.0655 32.1468 34.9696C32.8833 34.5144 32.111 31.1089 30.9608 29.7402C29.5598 28.0731 27.035 27.6352 24.8131 28.6739ZM52.7376 29.1133C49.5201 30.3516 48.5856 36.3515 51.4683 37.2642C51.7786 37.3626 52.1123 37.5668 52.2096 37.7185C52.4615 38.1102 56.0964 38.1444 56.3441 37.7574C56.4549 37.5843 56.7993 37.3626 57.1096 37.2642C59.7274 36.4356 59.6614 30.9569 57.0151 29.3995C56.1943 28.9164 53.685 28.7486 52.7376 29.1133ZM79.1741 40.8166C79.1112 41.3234 79.0585 40.9768 79.0571 40.0461C79.0554 39.1154 79.1067 38.7005 79.1713 39.1244C79.2356 39.5483 79.2368 40.3098 79.1741 40.8166ZM36.3778 47.1994C36.1451 47.334 35.1353 47.5252 34.1337 47.6247C33.1321 47.724 32.1863 47.9316 32.0323 48.0856C31.878 48.2398 31.5491 48.3659 31.3012 48.3659C30.776 48.3659 27.2445 50.1308 26.6818 50.6746C26.4711 50.8785 25.9961 51.3103 25.6263 51.634C22.5806 54.3023 21.6879 58.2369 24.1283 58.2369C24.7824 58.2369 27.3517 56.0842 27.3517 55.5362C27.3517 55.204 28.3785 54.2885 28.7514 54.2885C28.8969 54.2885 29.1174 54.1297 29.2416 53.9357C29.4912 53.5453 31.8811 52.3143 32.3894 52.3143C32.5663 52.3143 32.7109 52.2018 32.7109 52.0644C32.7109 51.9268 33.314 51.7246 34.0508 51.6149C34.7875 51.5052 35.5359 51.2959 35.7136 51.1498C36.2063 50.7448 44.1746 50.52 45.968 50.8607C49.0191 51.44 50.0701 51.715 50.9042 52.1507C51.3696 52.3938 51.965 52.5935 52.2274 52.5946C52.4897 52.5955 52.7768 52.7134 52.8651 52.8566C52.9536 52.9999 53.4055 53.2004 53.8689 53.3022C54.3327 53.4041 54.712 53.5902 54.712 53.7163C54.712 53.8423 55.0062 54.0192 55.3659 54.1094C55.7255 54.1996 56.5486 54.8077 57.195 55.4603C58.477 56.7551 59.0098 56.7825 58.1899 55.5117C57.6224 54.6317 54.7744 51.7502 54.4726 51.7502C54.3685 51.7502 53.9603 51.4648 53.566 51.1157C52.4169 50.099 51.9266 49.8172 49.4512 48.7492C48.9624 48.5385 48.3213 48.3659 48.0268 48.3659C47.732 48.3659 47.3707 48.2475 47.2232 48.1028C46.5228 47.4149 37.3298 46.6492 36.3778 47.1994Z" fill="#C1C3D1"/>
</svg>
