<svg width="63" height="43" viewBox="0 0 63 43" fill="none" xmlns="http://www.w3.org/2000/svg">
<path fill-rule="evenodd" clip-rule="evenodd" d="M19.127 29.1292H15.3104L12.4485 18.2612C12.3126 17.7613 12.0242 17.3193 11.5999 17.111C10.5411 16.5876 9.37438 16.1709 8.10156 15.9608V15.5424H14.2498C15.0983 15.5424 15.7347 16.1709 15.8408 16.9009L17.3257 24.7404L21.1405 15.5424H24.851L19.127 29.1292ZM26.9725 29.1292H23.3681L26.3361 15.5424H29.9406L26.9725 29.1292ZM34.6038 19.3063C34.7099 18.5745 35.3463 18.1561 36.0888 18.1561C37.2555 18.0511 38.5265 18.2612 39.5872 18.7828L40.2236 15.8575C39.1629 15.4391 37.9961 15.229 36.9373 15.229C33.4389 15.229 30.8933 17.111 30.8933 19.7229C30.8933 21.71 32.6965 22.7533 33.9693 23.3818C35.3463 24.0086 35.8766 24.427 35.7706 25.0537C35.7706 25.9938 34.7099 26.4122 33.6511 26.4122C32.3783 26.4122 31.1055 26.0988 29.9406 25.5754L29.3042 28.5025C30.577 29.0241 31.954 29.2343 33.2268 29.2343C37.1495 29.3375 39.5872 27.4573 39.5872 24.6353C39.5872 21.0814 34.6038 20.8731 34.6038 19.3063ZM52.2011 29.1292L49.3391 15.5424H46.265C45.6286 15.5424 44.9922 15.9608 44.7801 16.5876L39.4804 29.1292H43.1909L43.9316 27.144H48.4906L48.9149 29.1292H52.2011ZM46.7963 19.2012L47.8551 24.3218H44.8871L46.7963 19.2012Z" fill="white"/>
</svg>
