<svg width="36" height="34" viewBox="0 0 36 34" fill="none" xmlns="http://www.w3.org/2000/svg">
<path fill-rule="evenodd" clip-rule="evenodd" d="M9.70757 0.044087C9.58295 0.0664361 9.35566 0.0993968 9.20249 0.117429C8.9186 0.15075 8.65804 0.346901 8.4161 0.709432C8.37872 0.765462 8.31242 0.857692 8.26883 0.914352C8.22524 0.971056 8.18953 1.03954 8.18953 1.06657C8.18953 1.09355 8.1705 1.11567 8.14725 1.11567C8.12401 1.11567 8.0907 1.16118 8.07321 1.21685C8.05567 1.27252 8.02884 1.32815 8.01348 1.34051C7.95611 1.38678 7.7817 1.65331 7.7817 1.69468C7.7817 1.71838 7.76462 1.74446 7.74377 1.75273C7.66071 1.78556 6.94406 3.06787 6.78043 3.47649C6.76062 3.52595 6.70253 3.66144 6.65132 3.77755C6.60012 3.89366 6.5582 4.01031 6.5582 4.03675C6.5582 4.06314 6.53786 4.11994 6.51293 4.16288C6.44043 4.28803 6.01443 5.58998 6.01443 5.68653C6.01443 5.73483 5.99617 5.7936 5.97387 5.81707C5.95158 5.84054 5.91188 5.95085 5.88564 6.06215C5.80915 6.38659 5.7333 6.66229 5.69383 6.75915C5.67366 6.80862 5.63424 6.95026 5.60614 7.07393C5.57805 7.19759 5.52666 7.42018 5.49191 7.56857C5.45715 7.71697 5.40671 7.94968 5.3798 8.0857C5.35288 8.22173 5.30856 8.43736 5.28128 8.56488L5.23166 8.79669L4.84137 8.81909C4.37445 8.84589 3.79786 8.92009 3.59848 8.97908C3.51909 9.00256 3.3318 9.05787 3.18226 9.10207C3.03272 9.14623 2.83932 9.2189 2.75245 9.26359C2.66559 9.30825 2.5687 9.34481 2.53721 9.34481C2.50567 9.34481 2.47989 9.36504 2.47989 9.38978C2.47989 9.41451 2.45442 9.43479 2.42324 9.43488C2.3255 9.43506 1.73473 9.85187 1.49923 10.0868C1.03258 10.5523 0.440729 11.4907 0.440729 11.7651C0.440729 11.8091 0.420518 11.8651 0.395822 11.8896C0.342804 11.9422 0.274016 12.2489 0.210123 12.7174C0.184837 12.9029 0.144235 13.143 0.119946 13.251C0.0293621 13.6533 -0.0193043 15.5986 0.00720476 17.7538C0.0604494 22.0774 0.0881352 23.5779 0.11546 23.6221C0.130776 23.6469 0.156969 25.0026 0.173735 26.635C0.192903 28.5042 0.222131 29.6695 0.252673 29.7827C0.279363 29.8817 0.321144 30.0739 0.345478 30.2099C0.434204 30.7054 0.493883 30.9528 0.534847 30.9946C0.557867 31.0181 0.576673 31.0749 0.576673 31.1208C0.576673 31.1983 0.704414 31.5252 0.804831 31.7045C0.828894 31.7474 0.84856 31.8118 0.84856 31.8474C0.84856 31.8831 0.876791 31.9403 0.911275 31.9745C0.94576 32.0088 1.0199 32.1266 1.07595 32.2363C1.25943 32.5954 1.85889 33.3127 1.97549 33.3127C1.99171 33.3127 2.05579 33.3583 2.11782 33.4139C2.1799 33.4695 2.33261 33.5619 2.45723 33.6191C2.58184 33.6763 2.72155 33.7435 2.76773 33.7685C2.94966 33.8669 3.54043 33.9364 3.9073 33.9026C3.95714 33.898 4.21204 33.9193 4.47373 33.9499C5.06989 34.0196 12.123 34.0156 14.5789 33.9442C15.4886 33.9177 17.283 33.8776 18.5666 33.855C19.8501 33.8325 21.4611 33.7973 22.1464 33.777C23.5602 33.7349 27.9297 33.7303 28.5811 33.7702C30.4214 33.8827 31.722 33.8361 32.2913 33.6371C32.3567 33.6143 32.5581 33.5478 32.7387 33.4895C32.9194 33.4312 33.0673 33.3692 33.0673 33.3517C33.0673 33.3342 33.1284 33.3065 33.2032 33.2902C33.278 33.274 33.3391 33.242 33.3391 33.2192C33.3391 33.1964 33.3645 33.1778 33.3954 33.1778C33.4516 33.1778 33.8516 32.9208 34.0602 32.7506C34.3633 32.5034 34.8345 31.9743 34.8345 31.8812C34.8345 31.8565 34.8498 31.8296 34.8685 31.8213C34.8872 31.813 34.9367 31.7456 34.9784 31.6714C35.3861 30.9468 35.6142 30.2711 35.7449 29.4005C35.7691 29.2398 35.8097 29.007 35.8354 28.8834C35.8626 28.7515 35.8978 27.2075 35.9205 25.151C35.9417 23.2219 35.9737 20.9859 35.9916 20.1821C36.026 18.635 35.9483 14.3179 35.8726 13.5718C35.7847 12.7052 35.7348 12.4178 35.5754 11.863C35.394 11.2316 35.118 10.6659 34.8119 10.2979C34.6321 10.0817 34.2425 9.70455 34.1992 9.70455C34.1747 9.70455 34.1548 9.68521 34.1548 9.66161C34.1548 9.60553 33.5992 9.27879 33.288 9.15181C33.0582 9.05805 32.9805 9.05265 31.8965 9.0553L30.7483 9.05805L30.7705 8.9204C30.7828 8.84467 30.825 8.63094 30.8644 8.44545C30.9038 8.25996 30.9618 7.98678 30.9934 7.83838C31.0249 7.68999 31.0634 7.54834 31.079 7.52361C31.0945 7.49887 31.1212 7.38241 31.1384 7.26481C31.1556 7.14718 31.1989 6.99541 31.2346 6.92756C31.2702 6.85965 31.2997 6.74341 31.3 6.66921C31.3003 6.59502 31.331 6.47635 31.3682 6.40552C31.4055 6.33465 31.4359 6.23973 31.4359 6.19458C31.4359 6.14939 31.4551 6.10064 31.4786 6.08625C31.5021 6.07182 31.5349 5.96439 31.5515 5.84751C31.5681 5.7306 31.6101 5.59012 31.6447 5.53535C31.6795 5.48058 31.7078 5.39622 31.7078 5.34788C31.7078 5.29954 31.7371 5.20272 31.773 5.1327C31.8765 4.93071 31.9797 4.681 31.9797 4.63275C31.9797 4.60842 32.0102 4.53054 32.0474 4.45967C32.0846 4.38885 32.1152 4.29545 32.1154 4.25219C32.1155 4.20893 32.136 4.17349 32.161 4.17349C32.1859 4.17349 32.2063 4.14926 32.2063 4.11967C32.2063 4.06593 32.6577 3.13689 32.7046 3.09426C32.7182 3.0819 32.7542 3.02119 32.7846 2.95936C32.8548 2.81704 32.9381 2.68811 33.0106 2.60955C33.0418 2.57583 33.0673 2.52857 33.0673 2.50455C33.0673 2.48054 33.088 2.43647 33.1134 2.40661C33.2967 2.1909 33.3391 2.12938 33.3391 2.07934C33.3391 2.04808 33.3545 2.0158 33.3731 2.00752C33.4228 1.98567 33.611 1.71127 33.611 1.66086C33.611 1.63717 33.6263 1.61109 33.645 1.60281C33.6837 1.58577 33.8829 1.3116 33.8829 1.27549C33.8829 1.23884 34.3304 0.801077 34.3695 0.799503C34.5581 0.791768 34.6163 0.263216 34.4471 0.0952606C34.3475 -0.00357899 32.6485 -0.015631 29.3061 0.0589258C26.6495 0.118149 25.1777 0.115001 20.9909 0.0409389C18.1608 -0.00915537 16.9495 -0.0106398 14.5789 0.033114C12.4902 0.0716515 11.4751 0.0734961 11.0217 0.0396352C10.2982 -0.0143713 10.0289 -0.013472 9.70757 0.044087ZM10.8178 0.895644C11.5899 0.939983 12.5349 0.940433 15.3719 0.897893C17.3408 0.86835 19.1761 0.858546 19.4502 0.876083C20.1901 0.923435 31.5593 0.913992 32.4611 0.865291C33.2779 0.821178 33.314 0.829407 33.1264 1.01769C33.0939 1.05038 33.0673 1.10389 33.0673 1.13654C33.0673 1.16923 33.0367 1.20763 32.9993 1.22189C32.9619 1.2361 32.9313 1.27706 32.9313 1.31286C32.9313 1.3487 32.9151 1.38472 32.8953 1.39299C32.863 1.40644 32.2168 2.34959 32.0851 2.57574C31.9407 2.82342 31.4351 3.86335 31.3629 4.06107C31.3178 4.18474 31.2547 4.3365 31.2227 4.39833C31.1907 4.46016 31.1645 4.55626 31.1643 4.61193C31.1642 4.6676 31.1446 4.71311 31.1208 4.71311C31.097 4.71311 31.0635 4.78713 31.0465 4.87756C31.0293 4.96799 30.9878 5.09448 30.954 5.15861C30.9203 5.22273 30.8926 5.31955 30.8924 5.37373C30.8923 5.42792 30.8741 5.48332 30.8521 5.49685C30.83 5.51034 30.7978 5.61553 30.7804 5.73055C30.763 5.84554 30.7226 6.00261 30.6906 6.0796C30.5612 6.39136 30.3484 7.08404 30.3484 7.19381C30.3484 7.25825 30.3179 7.36892 30.2807 7.43978C30.2435 7.51061 30.2129 7.64277 30.2127 7.73347C30.2126 7.82413 30.1924 7.90507 30.1679 7.91334C30.125 7.92778 30.0861 8.11529 29.9874 8.78271C29.9618 8.95583 29.9179 9.24925 29.8899 9.43474C29.7975 10.0472 29.6946 13.55 29.7585 13.9091C29.7805 14.0327 29.8198 14.2755 29.8458 14.4487C29.8719 14.6218 29.9105 14.8449 29.9316 14.9445C29.9756 15.1521 29.9587 15.2356 29.8726 15.2356C29.8394 15.2356 29.8054 15.2512 29.797 15.2702C29.7887 15.2892 29.6698 15.3955 29.5327 15.5063C29.3956 15.6171 29.2386 15.7533 29.1837 15.809C29.1288 15.8646 29.0719 15.9101 29.0572 15.9101C29.0425 15.9101 28.9855 15.9527 28.9304 16.0047C28.8754 16.0566 28.759 16.1518 28.6717 16.216C28.5845 16.2803 28.4582 16.3896 28.3911 16.4588C28.3239 16.528 28.2577 16.5846 28.2438 16.5846C28.2299 16.5846 28.1807 16.6201 28.1343 16.6633C28.088 16.7066 27.9725 16.8027 27.8777 16.8769C27.783 16.9511 27.6469 17.0675 27.5753 17.1355C27.5037 17.2035 27.4254 17.2592 27.4014 17.2592C27.3773 17.2592 27.3576 17.2753 27.3576 17.2949C27.3576 17.3145 27.2514 17.4107 27.1217 17.5085C26.9919 17.6063 26.8281 17.742 26.7576 17.81C26.6871 17.8781 26.62 17.9337 26.6084 17.9337C26.5967 17.9337 26.5509 17.9691 26.5064 18.0124C26.462 18.0557 26.3256 18.172 26.2034 18.2709C26.0812 18.3699 25.9491 18.4812 25.9099 18.5183C25.8707 18.5554 25.7794 18.6317 25.7071 18.6879C25.5224 18.8314 25.1476 19.1491 25.0043 19.2835C24.938 19.3458 24.8235 19.4436 24.7499 19.501C24.5733 19.6386 24.1237 20.0267 23.8936 20.2403C23.4875 20.6173 23.4152 20.6909 23.4152 20.728C23.4152 20.8052 23.2951 20.7637 23.1416 20.6336C23.0554 20.5604 22.961 20.4997 22.9319 20.4987C22.9028 20.4977 22.8722 20.4789 22.8639 20.457C22.8435 20.4031 22.428 20.0921 22.3764 20.0921C22.3537 20.0921 22.3285 20.0769 22.3201 20.0584C22.2972 20.0072 22.0206 19.8223 21.967 19.8223C21.9411 19.8223 21.9199 19.8066 21.9199 19.7872C21.9199 19.7679 21.8638 19.7282 21.7952 19.6989C21.6651 19.6434 21.5055 19.5487 21.4667 19.5039C21.4543 19.4896 21.3421 19.4289 21.2175 19.3691C21.0929 19.3093 20.9805 19.2468 20.9678 19.2301C20.9551 19.2135 20.8888 19.186 20.8205 19.169C20.7522 19.152 20.6964 19.12 20.6964 19.098C20.6964 19.0759 20.6709 19.0578 20.6397 19.0576C20.6086 19.0574 20.5219 19.0255 20.4471 18.9866C20.3724 18.9477 20.1888 18.8759 20.0393 18.8271C19.8898 18.7782 19.7342 18.7205 19.6937 18.6988C19.6531 18.6771 19.541 18.6452 19.4445 18.6279C19.3479 18.6106 19.2427 18.5758 19.2106 18.5505C19.1785 18.5252 18.9486 18.4947 18.6997 18.4828C18.4508 18.4709 18.2363 18.4437 18.223 18.4223C18.1916 18.3719 17.4013 18.3713 17.3699 18.4216C17.3568 18.4426 17.1895 18.473 16.9981 18.489C16.8066 18.5051 16.6275 18.5359 16.6001 18.5576C16.5726 18.5792 16.4537 18.6107 16.3359 18.6276C16.2181 18.6445 16.1098 18.6775 16.0953 18.7007C16.0808 18.724 16.0344 18.7432 15.9923 18.7434C15.9502 18.7436 15.861 18.772 15.7941 18.8066C15.7273 18.8412 15.61 18.8832 15.5335 18.8998C15.4571 18.9165 15.3946 18.9471 15.3946 18.9679C15.3946 18.9888 15.3334 19.0191 15.2586 19.0354C15.1838 19.0517 15.1227 19.082 15.1227 19.1029C15.1227 19.1237 15.0615 19.154 14.9867 19.1703C14.912 19.1866 14.8508 19.2186 14.8508 19.2413C14.8508 19.2641 14.8279 19.2827 14.8001 19.2827C14.7372 19.2827 14.1993 19.6018 14.1786 19.6513C14.1703 19.6712 14.144 19.6874 14.1201 19.6874C14.0693 19.6874 13.7928 19.8743 13.7708 19.9235C13.7625 19.942 13.738 19.9572 13.7165 19.9572C13.695 19.9572 13.4993 20.089 13.2817 20.25C12.8517 20.5681 12.8103 20.5752 12.5852 20.3694C12.5131 20.3035 12.4275 20.229 12.395 20.2039C12.215 20.065 11.8765 19.7907 11.813 19.7324C11.7726 19.6953 11.6899 19.6245 11.6293 19.575C11.3184 19.3216 11.1875 19.2156 11.0264 19.0867C10.9293 19.009 10.7639 18.8696 10.6589 18.7768C10.5538 18.6841 10.4554 18.6082 10.4404 18.6082C10.4253 18.6082 10.3436 18.5425 10.2588 18.4621C10.0493 18.2634 9.68405 17.9598 9.6309 17.9401C9.60702 17.9312 9.52151 17.8604 9.44085 17.7827C9.28954 17.6369 9.23036 17.5869 8.84791 17.2816C8.48793 16.9943 8.40505 16.9261 8.32851 16.8545C8.28886 16.8174 8.15554 16.7061 8.03224 16.6071C7.90894 16.5082 7.77504 16.3969 7.73466 16.3598C7.64965 16.2817 7.53016 16.183 7.21712 15.9325C7.0935 15.8336 6.95937 15.7224 6.919 15.6853C6.87862 15.6482 6.70752 15.5065 6.53876 15.3705C6.36997 15.2345 6.18635 15.0827 6.13075 15.0333C6.07515 14.9838 5.93445 14.8653 5.81813 14.7701L5.6066 14.5968V14.0251C5.6066 13.7107 5.62626 13.3434 5.65032 13.2091C5.67434 13.0747 5.71585 12.6005 5.74245 12.1553C5.91288 9.30766 6.04597 8.37175 6.53219 6.60176C6.80127 5.62214 6.84803 5.46326 6.88293 5.40975C6.89919 5.38484 6.92743 5.28555 6.94564 5.18909C6.96386 5.09268 7.00636 4.96129 7.04012 4.89716C7.07384 4.83304 7.10153 4.75497 7.10171 4.72372C7.10184 4.69247 7.12224 4.63176 7.14698 4.58882C7.19845 4.49942 7.32429 4.15488 7.36022 4.00486C7.37355 3.94919 7.40246 3.90369 7.42448 3.90369C7.44646 3.90369 7.4645 3.88012 7.4645 3.85134C7.4645 3.79999 7.91737 2.86852 7.96377 2.82445C7.97682 2.81209 8.01239 2.75138 8.04285 2.68955C8.11299 2.54723 8.19628 2.4183 8.26883 2.33975C8.30001 2.30602 8.32547 2.2512 8.32547 2.21793C8.32547 2.18465 8.34075 2.1507 8.35946 2.14243C8.39929 2.12484 8.59736 1.85072 8.59736 1.81313C8.59736 1.76177 9.06995 1.0707 9.10507 1.0707C9.12491 1.0707 9.14114 1.05047 9.14114 1.02574C9.14114 0.879906 9.30142 0.803954 9.57163 0.821762C9.72116 0.831655 10.2819 0.864886 10.8178 0.895644ZM17.6603 2.7852C17.1234 2.84622 16.753 2.90504 16.4594 2.97591C16.3099 3.01202 16.0958 3.06391 15.9836 3.0912C15.8715 3.1185 15.7389 3.1583 15.6891 3.17961C15.6393 3.20093 15.5067 3.2534 15.3946 3.29612C15.2824 3.33889 15.1069 3.41214 15.0044 3.45891C14.902 3.50567 14.795 3.54394 14.7665 3.54394C14.7381 3.54394 14.7148 3.56256 14.7148 3.58536C14.7148 3.60811 14.6537 3.64008 14.5789 3.65636C14.5041 3.67264 14.4429 3.70461 14.4429 3.72737C14.4429 3.75017 14.4201 3.76878 14.3922 3.76878C14.3294 3.76878 13.7915 4.08783 13.7708 4.13738C13.7625 4.15726 13.7372 4.17349 13.7145 4.17349C13.6629 4.17349 13.2475 4.48445 13.227 4.53836C13.2187 4.56026 13.1952 4.5782 13.1747 4.5782C13.1071 4.5782 12.6207 5.0255 12.2905 5.39136C11.9107 5.81222 11.4525 6.44105 11.4523 6.54182C11.4522 6.57064 11.4369 6.601 11.4182 6.60927C11.3659 6.63234 11.1803 6.99298 11.1803 7.07159C11.1803 7.10999 11.1599 7.14138 11.135 7.14138C11.1101 7.14138 11.089 7.1667 11.0881 7.19759C11.0873 7.22853 11.0472 7.33474 10.999 7.43367C10.9509 7.5326 10.9108 7.65505 10.9099 7.70573C10.9091 7.75645 10.8882 7.81797 10.8635 7.84247C10.8388 7.86698 10.799 7.97729 10.775 8.08755C10.7511 8.19786 10.7088 8.38924 10.6812 8.5129C10.6534 8.63656 10.6069 8.84904 10.5777 8.98506C10.5229 9.24102 10.51 10.6388 10.5598 10.9187C10.5753 11.0052 10.6089 11.2036 10.6346 11.3595C10.6602 11.5154 10.7018 11.681 10.7268 11.7276C10.7519 11.7741 10.7726 11.8691 10.7727 11.9387C10.7729 12.0084 10.8035 12.1233 10.8407 12.1942C10.878 12.265 10.9084 12.353 10.9084 12.3897C10.9084 12.4265 10.9364 12.5203 10.9707 12.5982C11.0049 12.6761 11.1003 12.9018 11.1827 13.0996C11.265 13.2975 11.3492 13.4817 11.3697 13.5091C11.3902 13.5364 11.4601 13.6578 11.5249 13.7789C11.5897 13.8999 11.6559 14.0091 11.672 14.0215C11.6882 14.0338 11.7416 14.1222 11.7907 14.2178C11.8398 14.3134 11.9061 14.4016 11.938 14.4137C11.9699 14.4259 11.996 14.4537 11.996 14.4756C11.996 14.5611 12.4588 15.1072 12.8257 15.4544C13.2061 15.8145 13.3257 15.9164 13.5287 16.0535C13.6452 16.1321 13.7508 16.2081 13.7632 16.2223C13.8813 16.3572 15.1588 16.9894 15.313 16.9894C15.3479 16.9894 15.3958 17.0068 15.4195 17.0281C15.4597 17.0644 15.9199 17.1808 16.5501 17.3141C16.8923 17.3865 18.647 17.3921 18.6937 17.321C18.711 17.2946 18.826 17.2596 18.9493 17.2432C19.0726 17.2269 19.1847 17.1959 19.1985 17.1744C19.2124 17.1529 19.3103 17.1209 19.4162 17.1034C19.5221 17.0858 19.6088 17.0529 19.6088 17.0304C19.6088 17.0078 19.6429 16.9894 19.6845 16.9894C20.0018 16.9894 21.1413 16.2182 21.6599 15.6524C21.7655 15.5373 21.8825 15.4112 21.9199 15.3723C22.5507 14.716 21.5159 13.9301 20.5831 14.3569C20.2912 14.4905 19.2298 15.0087 19.1557 15.0538C18.7939 15.274 18.1701 15.491 17.7105 15.5565C17.2846 15.6173 16.4868 15.5494 16.2628 15.4335C16.1965 15.3992 16.1078 15.371 16.0656 15.3708C16.0235 15.3706 15.9773 15.3519 15.9632 15.329C15.9489 15.3062 15.8763 15.2742 15.8019 15.258C15.7274 15.2417 15.6664 15.212 15.6664 15.1919C15.6664 15.1718 15.6106 15.1415 15.5423 15.1245C15.474 15.1075 15.4077 15.08 15.395 15.0634C15.3652 15.0245 15.0872 14.8309 15.0612 14.8309C14.9655 14.8309 13.6273 13.5037 13.6273 13.4088C13.6273 13.3857 13.4375 13.1118 13.3974 13.0771C13.3831 13.0648 13.3574 13.0243 13.3403 12.9872C13.3231 12.9501 13.2698 12.8591 13.2219 12.7849C13.174 12.7107 13.0917 12.5589 13.039 12.4476C12.9863 12.3363 12.9135 12.188 12.8774 12.1179C12.8412 12.0479 12.8116 11.97 12.8116 11.9449C12.8116 11.9197 12.7842 11.8353 12.7507 11.7574C12.3314 10.7826 12.2987 9.30924 12.6737 8.28806C12.7282 8.13967 12.7839 7.9727 12.7975 7.91708C12.8111 7.86145 12.838 7.8159 12.8573 7.8159C12.8766 7.8159 12.9065 7.76045 12.9236 7.69269C12.9407 7.62492 12.9695 7.55918 12.9875 7.54654C13.0056 7.53395 13.0696 7.44266 13.1298 7.34373C13.2573 7.13409 13.252 7.14133 13.4949 6.84909C13.8535 6.41753 13.9459 6.3293 14.375 6.0094C14.9769 5.56053 15.7806 5.16004 16.3917 5.00441C16.5536 4.96317 16.7212 4.91124 16.7642 4.88902C16.8072 4.86681 17.0475 4.83529 17.2983 4.81896C17.549 4.80264 17.7648 4.77215 17.7778 4.7512C17.8089 4.70128 18.6119 4.70151 18.6119 4.75142C18.6119 4.77251 18.7887 4.80327 19.0048 4.81973C19.2209 4.83623 19.4197 4.86775 19.4466 4.88979C19.4735 4.91187 19.5752 4.94469 19.6726 4.96273C19.77 4.9808 19.9025 5.02294 19.9671 5.05644C20.0317 5.0899 20.1152 5.11804 20.1526 5.11899C20.19 5.11993 20.2602 5.15038 20.3085 5.18671C20.3569 5.223 20.4334 5.25272 20.4784 5.25272C20.5235 5.25272 20.5604 5.27296 20.5604 5.29769C20.5604 5.32242 20.5864 5.34266 20.6181 5.34266C20.6498 5.34266 20.7841 5.41348 20.9166 5.50005C21.049 5.58661 21.1743 5.65744 21.195 5.65744C21.2157 5.65744 21.2394 5.67259 21.2477 5.69116C21.256 5.70973 21.3542 5.78559 21.4659 5.85979C21.6689 5.99461 22.5996 6.87701 22.5996 6.93466C22.5996 6.96245 22.7722 7.22277 22.8262 7.27628C22.8939 7.34351 23.2793 8.08571 23.2793 8.14889C23.2793 8.16849 23.3088 8.24831 23.3448 8.32624C23.6321 8.94792 23.5853 10.0383 23.2498 10.5365C22.8695 11.1013 21.9391 11.1263 21.5672 10.5816C21.4996 10.4826 21.434 10.3914 21.4215 10.3791C21.3336 10.2923 21.2673 9.95763 21.2374 9.45012C21.2182 9.12469 21.183 8.82115 21.1593 8.7756C21.1356 8.73005 21.1023 8.61691 21.0854 8.52414C21.0686 8.43142 21.037 8.35551 21.0151 8.35551C20.9933 8.35551 20.962 8.29481 20.9456 8.22061C20.9292 8.14641 20.897 8.0857 20.874 8.0857C20.8511 8.0857 20.8323 8.05949 20.8323 8.02738C20.8323 7.72241 19.4344 6.60176 19.0539 6.60176C19.0202 6.60176 18.9723 6.58171 18.9476 6.5572C18.8303 6.44078 17.8905 6.32818 17.4564 6.3785C17.0367 6.42715 16.651 6.50877 16.5977 6.56026C16.574 6.5831 16.527 6.60176 16.4932 6.60176C16.3372 6.60176 15.6282 6.99096 15.4534 7.17263C15.3985 7.22965 15.3416 7.27628 15.327 7.27628C15.2998 7.27628 15.0622 7.5116 14.8394 7.75924C14.7709 7.83541 14.7148 7.91982 14.7148 7.94675C14.7148 7.97373 14.6948 7.99577 14.6704 7.99577C14.646 7.99577 14.6131 8.04636 14.5975 8.10819C14.5819 8.17002 14.5525 8.22061 14.5323 8.22061C14.512 8.22061 14.482 8.28132 14.4656 8.35551C14.4492 8.42971 14.4215 8.49042 14.4041 8.49042C14.3718 8.49042 14.2206 8.96883 14.1303 9.35668C14.0667 9.63004 14.0665 10.0948 14.13 10.4438C14.1829 10.735 14.4784 11.6906 14.5271 11.7281C14.5431 11.7405 14.5966 11.8315 14.646 11.9305C14.8458 12.3311 15.6041 13.2121 15.7492 13.2121C15.7743 13.2121 15.8016 13.2272 15.81 13.2458C15.9849 13.6364 17.6458 14.0217 18.3627 13.838C18.4624 13.8124 18.6211 13.7722 18.7154 13.7486C18.8097 13.7249 18.9218 13.6886 18.9646 13.6678C19.0074 13.647 19.1239 13.5916 19.2236 13.5447C19.7622 13.2912 20.3551 12.7381 20.6009 12.2598L20.6628 12.1395L20.8474 12.3712C21.0724 12.6537 21.3785 12.9409 21.4554 12.9417C21.4866 12.942 21.512 12.9586 21.512 12.9786C21.512 13.021 21.8172 13.1601 22.0514 13.2244C22.3166 13.2971 22.7853 13.3143 22.9825 13.2585C23.5636 13.0941 23.6893 13.0471 23.9364 12.902C24.3207 12.6761 24.6667 12.3744 24.9113 12.0516C24.9732 11.9699 25.0596 11.8605 25.1032 11.8086C25.1468 11.7568 25.1825 11.6871 25.1825 11.6538C25.1825 11.6205 25.2029 11.5932 25.2278 11.5932C25.2528 11.5932 25.2738 11.5679 25.2747 11.537C25.2755 11.5061 25.3156 11.3998 25.3638 11.3009C25.4119 11.202 25.452 11.0897 25.4529 11.0513C25.4537 11.013 25.4755 10.9607 25.5013 10.9351C25.581 10.856 25.6447 10.4273 25.6675 9.81697C25.6881 9.26445 25.6705 9.09249 25.5386 8.55787C25.421 8.08089 25.401 8.01533 25.3612 7.97553C25.3377 7.95201 25.3185 7.90453 25.3185 7.8699C25.3185 7.70109 24.6479 6.38425 24.5392 6.33946C24.5192 6.33119 24.5028 6.30511 24.5028 6.28141C24.5028 6.24058 24.3296 5.97509 24.2717 5.92724C24.2567 5.91488 24.2363 5.88232 24.2264 5.85485C24.1888 5.75128 23.9194 5.44923 23.4136 4.94352C22.8692 4.39923 22.7722 4.31204 22.5089 4.13005C22.4217 4.06975 22.3402 4.0081 22.3277 3.99304C22.2832 3.93921 21.7484 3.63388 21.6987 3.63388C21.6708 3.63388 21.648 3.61526 21.648 3.59246C21.648 3.56971 21.5868 3.53774 21.512 3.52146C21.4373 3.50518 21.3761 3.47321 21.3761 3.45045C21.3761 3.42765 21.3506 3.40836 21.3194 3.40751C21.2883 3.40665 21.1812 3.3669 21.0815 3.3191C20.9818 3.2713 20.8771 3.23155 20.8488 3.2307C20.8205 3.22984 20.739 3.19895 20.6675 3.16198C20.5962 3.12507 20.4959 3.09471 20.4449 3.09453C20.3938 3.0944 20.3326 3.07506 20.3089 3.05163C20.2443 2.98769 19.4928 2.85431 18.7932 2.78272C18.2664 2.72881 18.1545 2.72903 17.6603 2.7852ZM18.2947 3.44794C18.2947 3.49583 18.1256 3.71406 17.9921 3.83853C17.9377 3.88921 17.8801 3.98243 17.8641 4.04565C17.8365 4.15461 17.8152 4.16198 17.4544 4.18725C17.2451 4.20191 17.0324 4.23586 16.9819 4.26271C16.8544 4.33048 16.8603 4.24297 16.9919 4.11512C17.1246 3.98625 17.2978 3.74027 17.2978 3.68064C17.2978 3.65492 17.3168 3.63388 17.34 3.63388C17.3633 3.63388 17.3949 3.59453 17.4103 3.54641C17.4308 3.48229 17.489 3.45441 17.6286 3.44187C18.0118 3.40742 18.2947 3.40998 18.2947 3.44794ZM19.4891 3.51282C19.5105 3.51935 19.3824 3.67071 19.2043 3.8491L18.8807 4.17349L18.4857 4.17327L18.0908 4.17309L18.238 4.03612C18.3191 3.96075 18.3853 3.86978 18.3853 3.83394C18.3853 3.7981 18.4057 3.76878 18.4306 3.76878C18.4556 3.76878 18.4759 3.74117 18.4759 3.7074C18.4759 3.46534 19.0028 3.36416 19.4891 3.51282ZM17.0876 3.55518C17.0688 3.58612 16.9747 3.71086 16.8783 3.83246C16.782 3.954 16.6735 4.11049 16.6372 4.18019C16.5595 4.3294 16.3971 4.4205 16.1309 4.46444C16.025 4.48188 15.9383 4.51462 15.9383 4.53719C15.9383 4.55977 15.8924 4.57848 15.8364 4.57883C15.7803 4.57915 15.4724 4.70893 15.1521 4.86726L14.5698 5.1551L14.9935 4.72156C15.8861 3.80831 15.9009 3.79558 16.1649 3.71563C16.8526 3.50738 17.148 3.45603 17.0876 3.55518ZM20.3452 3.72453C20.5421 3.78209 20.6393 3.90634 20.5264 3.95616C20.4757 3.97851 20.313 4.22183 20.2441 4.37832C20.1813 4.52092 20.0569 4.52092 19.733 4.3785C19.6892 4.35921 19.5494 4.33052 19.4223 4.31469L19.1913 4.28591L19.4001 4.07299C19.5149 3.95589 19.6088 3.84869 19.6088 3.83475C19.6088 3.82085 19.6594 3.76294 19.7212 3.7061C19.8424 3.59467 19.9073 3.5966 20.3452 3.72453ZM21.116 4.01741C21.1843 4.03441 21.2401 4.06193 21.2401 4.07857C21.2401 4.0952 21.2962 4.13428 21.3648 4.1654C21.7282 4.33048 21.7569 4.37221 21.6027 4.51075C21.5528 4.5555 21.512 4.61935 21.512 4.65263C21.512 4.6859 21.4956 4.71311 21.4754 4.71311C21.4553 4.71311 21.4037 4.79216 21.3607 4.88884C21.2732 5.08562 21.2964 5.08855 20.855 4.82517C20.7553 4.76568 20.6431 4.71549 20.6057 4.71365C20.3995 4.70335 20.3582 4.5867 20.5066 4.43305C20.6674 4.26649 20.7795 4.1346 20.8756 3.99884C20.9118 3.94757 20.9528 3.92388 20.9667 3.94609C20.9805 3.9683 21.0477 4.00041 21.116 4.01741ZM15.2749 4.09372C15.256 4.12407 15.1392 4.24041 15.0152 4.35229C14.8912 4.46417 14.7474 4.60312 14.6957 4.66104C14.6439 4.71896 14.4585 4.91119 14.2836 5.08823C14.1088 5.26527 13.8539 5.551 13.7172 5.72318C13.5805 5.89536 13.4075 6.09862 13.3327 6.17488C13.1496 6.36154 12.8386 6.73752 12.8162 6.79922C12.8062 6.82665 12.7848 6.8592 12.7686 6.87157C12.5707 7.02257 11.996 8.35915 11.996 8.66835C11.996 8.73756 11.9654 8.81936 11.928 8.85016C11.8906 8.88096 11.86 8.92476 11.86 8.94752C11.86 8.97027 11.8392 9.0133 11.8138 9.04316C11.7883 9.07302 11.6813 9.22753 11.5759 9.38645C11.4704 9.54537 11.3638 9.70617 11.3389 9.74372C11.1682 10.0011 11.157 9.98673 11.1734 9.53241C11.1821 9.29318 11.2064 9.07657 11.2274 9.05103C11.2485 9.02544 11.3665 8.81297 11.4897 8.57887C11.824 7.94311 11.8802 7.84058 11.9081 7.81594C11.9611 7.76899 12.2678 7.23995 12.2678 7.19547C12.2678 7.16984 12.2835 7.14214 12.3026 7.13387C12.3217 7.12564 12.4237 6.97594 12.5292 6.80124C12.6348 6.62654 12.7568 6.44442 12.8004 6.39653C12.844 6.34864 12.9361 6.22682 13.0052 6.12582C13.0742 6.02482 13.166 5.90323 13.2091 5.85556C13.4095 5.63392 13.6273 5.34536 13.6273 5.30138C13.6273 5.27462 13.6437 5.25272 13.6637 5.25272C13.6838 5.25272 13.8112 5.10154 13.9469 4.91672C14.0827 4.73191 14.2105 4.58014 14.2311 4.57946C14.2517 4.57879 14.4122 4.49348 14.5879 4.38992C15.1738 4.04452 15.354 3.96682 15.2749 4.09372ZM22.1011 4.62317C22.1586 4.67264 22.2188 4.71311 22.2349 4.71311C22.251 4.71311 22.3513 4.79621 22.4578 4.89784L22.6516 5.08252L22.5576 5.18176C22.5059 5.23636 22.4636 5.30498 22.4636 5.3343C22.4636 5.36366 22.4479 5.38763 22.4286 5.38763C22.4093 5.38763 22.3552 5.45845 22.3082 5.54502C22.2054 5.73438 22.1997 5.73505 22.0228 5.57874C21.9458 5.51075 21.7999 5.40449 21.6986 5.34266C21.4771 5.20744 21.4768 5.20515 21.648 4.95346C21.7227 4.84352 21.7839 4.74099 21.7839 4.72565C21.7839 4.57276 21.972 4.51201 22.1011 4.62317ZM23.3624 5.81545C23.4442 5.91879 23.4513 6.10712 23.3733 6.10712C23.3561 6.10712 23.2922 6.21819 23.2313 6.35399C23.1365 6.56556 23.0074 6.68626 23.0074 6.56331C23.0074 6.54213 22.8851 6.39235 22.7355 6.23037C22.494 5.96884 22.3982 5.79234 22.4977 5.79234C22.5164 5.79234 22.5815 5.69624 22.6423 5.57874C22.8288 5.21837 22.8194 5.22075 23.0579 5.47424C23.1762 5.59988 23.3132 5.7534 23.3624 5.81545ZM13.2248 5.42135C13.201 5.46461 13.1421 5.54151 13.094 5.59214C13.0458 5.64282 12.9288 5.79459 12.8339 5.9294C12.739 6.06426 12.6494 6.18468 12.6346 6.19705C12.5764 6.24575 12.4038 6.51066 12.4038 6.55122C12.4038 6.57492 12.3885 6.601 12.3698 6.60927C12.3317 6.62604 12.1319 6.90022 12.1319 6.93561C12.1319 6.94811 12.0174 7.14574 11.8774 7.37481C11.7374 7.60387 11.6048 7.83222 11.5826 7.88227C11.5544 7.94613 11.551 7.92643 11.5712 7.8163C11.6008 7.65586 11.8413 7.13634 11.9982 6.89405C12.0463 6.81986 12.0996 6.7288 12.1168 6.6917C12.1339 6.6546 12.1597 6.61413 12.174 6.60176C12.1884 6.5894 12.2557 6.49834 12.3238 6.39941C12.4783 6.17452 12.6006 6.0295 12.9587 5.64637C13.259 5.32503 13.2938 5.29553 13.2248 5.42135ZM23.8231 6.41398C23.8231 6.43435 23.8929 6.54843 23.9782 6.66751C24.1458 6.90143 24.1451 6.93241 23.9664 7.23131C23.9146 7.31788 23.8368 7.45786 23.7935 7.5424L23.7149 7.69615L23.6715 7.56489C23.6477 7.49271 23.616 7.42355 23.601 7.41114C23.5861 7.39878 23.5418 7.32795 23.5026 7.25375C23.4634 7.1796 23.4046 7.07676 23.3718 7.02523C23.3201 6.94392 23.3281 6.9003 23.4317 6.69552C23.4974 6.5657 23.5512 6.43079 23.5512 6.39572C23.5512 6.36064 23.5716 6.33195 23.5965 6.33195C23.6214 6.33195 23.6418 6.3016 23.6418 6.2645C23.6418 6.21203 23.6619 6.21702 23.7324 6.28699C23.7823 6.33645 23.8231 6.39361 23.8231 6.41398ZM17.8415 6.94118C17.8415 6.95472 17.795 7.01039 17.738 7.06484C17.6811 7.1193 17.5236 7.30551 17.3879 7.47864C17.2523 7.65176 17.1305 7.80353 17.1172 7.8159C17.1039 7.82826 17.0422 7.91483 16.9802 8.00827C16.9181 8.10167 16.7846 8.22668 16.6836 8.28599C16.577 8.34863 16.4629 8.466 16.4117 8.56583C16.3632 8.6604 16.3122 8.74786 16.2984 8.76022C16.2409 8.81171 16.0852 9.1608 16.0077 9.41226C15.9618 9.56065 15.912 9.69218 15.897 9.70455C15.8819 9.71692 15.7892 9.85857 15.6911 10.0193C15.593 10.1801 15.4555 10.3905 15.3857 10.487C15.3158 10.5835 15.2586 10.6897 15.2586 10.7231C15.2586 10.7565 15.2386 10.7838 15.2142 10.7838C15.1897 10.7838 15.1571 10.8336 15.1417 10.8944C15.1263 10.9552 15.0852 11.0285 15.0503 11.0572C15.0153 11.086 14.9861 11.1526 14.9854 11.2052C14.9835 11.3357 14.9151 11.2204 14.8321 10.9468C14.7759 10.7614 15.0104 10.0969 15.1753 9.97391C15.1923 9.96127 15.2201 9.89553 15.2373 9.82776C15.2544 9.76 15.285 9.70455 15.3052 9.70455C15.3255 9.70455 15.3555 9.64384 15.3719 9.56965C15.3883 9.49545 15.4205 9.43474 15.4434 9.43474C15.4664 9.43474 15.4852 9.41181 15.4852 9.3838C15.4852 9.32147 16.205 8.24907 16.2609 8.22812C16.2829 8.21984 16.3008 8.19516 16.3008 8.17321C16.3008 8.13571 16.7442 7.45971 16.8006 7.41119C16.815 7.39882 16.8751 7.30776 16.9342 7.20883C16.9933 7.1099 17.0479 7.02086 17.0557 7.01093C17.0634 7.00103 17.1975 6.9785 17.3537 6.96088C17.7472 6.91649 17.8415 6.91267 17.8415 6.94118ZM18.4871 6.99784L18.6568 7.02896L18.5212 7.23131C18.4467 7.34261 18.3856 7.45728 18.3855 7.48615C18.3854 7.51497 18.37 7.54532 18.3513 7.5536C18.3015 7.57554 18.1134 7.84989 18.1134 7.90057C18.1134 7.92445 17.9503 7.95053 17.7508 7.95863C17.3827 7.97351 17.3439 7.95993 17.445 7.8516C17.5515 7.7377 17.7056 7.50485 17.7056 7.45795C17.7056 7.43223 17.7243 7.41119 17.7472 7.41119C17.7701 7.41119 17.8333 7.33982 17.8876 7.25258C18.0757 6.95058 18.1221 6.93088 18.4871 6.99784ZM16.6231 7.28483C16.5458 7.36671 16.4824 7.45899 16.4823 7.48988C16.4822 7.52082 16.4635 7.54609 16.4407 7.54609C16.4179 7.54609 16.3391 7.64304 16.2657 7.76149C16.1922 7.87998 16.1038 8.00701 16.0692 8.04375C15.9584 8.16152 15.8024 8.39531 15.8024 8.44365C15.8024 8.46937 15.7849 8.49042 15.7636 8.49042C15.706 8.49042 15.2137 9.25829 14.942 9.772C14.8112 10.0193 14.6936 10.2318 14.6806 10.2442C14.6272 10.295 14.7192 9.21683 14.7842 9.03003C14.963 8.51641 15.6665 7.54609 15.8601 7.54609C15.8757 7.54609 15.9762 7.48813 16.0833 7.41726C16.337 7.24953 16.7047 7.08625 16.7475 7.12236C16.7564 7.12987 16.7004 7.20298 16.6231 7.28483ZM19.13 7.23554C19.5343 7.44208 19.5192 7.42733 19.4491 7.54883C19.4143 7.60913 19.3712 7.68886 19.3533 7.72596C19.3355 7.76306 19.3092 7.80353 19.2949 7.8159C19.2366 7.86635 19.065 8.12995 19.065 8.16903C19.065 8.26409 18.9356 8.24233 18.6587 8.10072C18.4976 8.01825 18.3889 7.9508 18.4172 7.9508C18.4455 7.9508 18.4822 7.89009 18.4986 7.8159C18.515 7.7417 18.5456 7.68099 18.5666 7.68099C18.5876 7.68099 18.6181 7.62029 18.6346 7.54609C18.651 7.47189 18.6815 7.41119 18.7025 7.41119C18.7235 7.41119 18.7541 7.35048 18.7705 7.27628C18.8062 7.11507 18.8783 7.10689 19.13 7.23554ZM24.432 7.47675C24.4959 7.61075 24.5481 7.74188 24.5481 7.76814C24.5481 7.7944 24.5662 7.8159 24.5883 7.8159C24.6669 7.8159 24.6677 8.08971 24.5897 8.25537C24.4275 8.59951 24.3669 8.75325 24.3669 8.82057C24.3669 8.85866 24.3484 8.90115 24.3257 8.91505C24.3031 8.9289 24.247 9.05656 24.2011 9.19875L24.1176 9.45723L24.0885 9.04654C24.0611 8.66031 24.0339 8.53399 23.8892 8.11943C23.8568 8.02671 23.8445 7.9508 23.8616 7.9508C23.8946 7.9508 24.0337 7.69574 24.1716 7.38241C24.2697 7.15945 24.283 7.16427 24.432 7.47675ZM19.9902 7.84171C20.2156 8.06538 20.2158 8.07662 19.9974 8.33303C19.8459 8.51083 19.832 8.52922 19.6994 8.72618C19.5674 8.92238 19.5397 8.93052 19.4689 8.79395C19.4401 8.73832 19.3672 8.64025 19.307 8.57608C19.21 8.47266 19.2054 8.45282 19.2672 8.40192C19.3056 8.37035 19.3369 8.32943 19.3369 8.31099C19.3369 8.25051 19.7103 7.63603 19.747 7.63603C19.7668 7.63603 19.8762 7.72857 19.9902 7.84171ZM20.4591 8.42485C20.5669 8.59038 20.6838 8.8726 20.6538 8.89513C20.5979 8.93708 20.3406 9.37984 20.2448 9.59892C20.1923 9.71885 20.1269 9.85668 20.0993 9.9052C20.0717 9.95372 20.0011 10.0832 19.9423 10.1929L19.8354 10.3925L19.8334 10.0148C19.8323 9.80708 19.8039 9.53592 19.7705 9.41226C19.7145 9.20577 19.7165 9.17982 19.7951 9.0946C19.8422 9.04352 19.8807 8.97944 19.8807 8.95219C19.8807 8.92494 19.8971 8.89589 19.9171 8.88762C19.9685 8.86644 20.2885 8.33235 20.2885 8.26773C20.2885 8.20788 20.3618 8.27538 20.4591 8.42485ZM24.9428 8.89513C25.0976 9.57176 25.0533 10.4239 24.8383 10.903C24.8033 10.9809 24.7747 11.0565 24.7747 11.0709C24.7747 11.268 23.9065 12.2677 23.7353 12.2677C23.7124 12.2677 23.6657 12.293 23.6317 12.3239C23.533 12.4134 23.2793 12.537 23.2793 12.4956C23.2793 12.4748 23.3098 12.3999 23.347 12.3291C23.3842 12.2582 23.4148 12.1559 23.415 12.1017C23.4151 12.0476 23.434 11.9917 23.4571 11.9776C23.4801 11.9635 23.5133 11.887 23.5308 11.8077C23.5483 11.7285 23.5798 11.6326 23.6007 11.5947C23.686 11.4397 23.8231 11.0995 23.8231 11.0426C23.8231 11.0091 23.8403 10.9624 23.8614 10.9389C23.8824 10.9154 23.9459 10.7647 24.0024 10.6039C24.059 10.4431 24.1335 10.2479 24.1681 10.1699C24.2026 10.092 24.2309 9.99707 24.2309 9.95898C24.2309 9.92089 24.249 9.87862 24.2712 9.865C24.2934 9.85142 24.325 9.78446 24.3415 9.7162C24.3763 9.57234 24.6204 8.89373 24.7121 8.68598C24.7465 8.60805 24.776 8.50687 24.7775 8.46114C24.7819 8.33397 24.8633 8.54762 24.9428 8.89513ZM18.0436 8.58382C18.4194 8.65275 18.9734 9.04559 18.9742 9.24363C18.9743 9.27457 18.9906 9.29984 19.0104 9.29984C19.1241 9.29984 19.2646 10.1998 19.1608 10.2635C19.1387 10.277 19.1068 10.3615 19.0898 10.4511C19.0562 10.6293 19.0321 10.6656 18.7851 10.9107C18.5546 11.1393 18.5293 11.1556 18.266 11.2447C17.8961 11.3698 17.3713 11.3177 17.1392 11.1329C16.8373 10.8925 16.6439 10.6433 16.5979 10.4353C16.5802 10.3555 16.5469 10.2786 16.5239 10.2645C16.4548 10.2221 16.4755 9.59685 16.5524 9.4065C16.7081 9.02072 16.8747 8.76022 16.9657 8.76022C16.9824 8.76022 17.0295 8.73028 17.0702 8.69367C17.111 8.65702 17.2554 8.60882 17.391 8.58647C17.7359 8.52972 17.7484 8.52967 18.0436 8.58382ZM20.7705 10.1857C20.7049 10.3044 20.5686 10.5736 20.4676 10.7838C20.288 11.1577 20.239 11.2635 20.0883 11.6026C20.0475 11.6943 20.0069 11.8614 19.9979 11.9739C19.9872 12.1089 19.9398 12.2327 19.8584 12.3388C19.7302 12.5055 19.4386 12.8073 19.4057 12.8073C19.3953 12.8073 19.2991 12.8655 19.1919 12.9366C19.0848 13.0077 18.9461 13.081 18.8838 13.0995C18.8215 13.118 18.7445 13.1538 18.7128 13.179C18.6066 13.2634 18.5945 13.1676 18.6944 13.0334C18.7487 12.9605 18.7932 12.8815 18.7932 12.8579C18.7932 12.8342 18.8084 12.8081 18.8271 12.7998C18.8753 12.7786 19.0285 12.5467 19.1339 12.3352C19.1833 12.2362 19.2354 12.1452 19.2497 12.1328C19.264 12.1205 19.338 11.9889 19.4141 11.8405C19.4901 11.6921 19.8097 11.0685 20.1244 10.4546C20.439 9.84076 20.6964 9.31126 20.6964 9.27794C20.6964 9.24466 20.7219 9.20878 20.753 9.19826C20.8889 9.1523 20.9029 9.94581 20.7705 10.1857ZM11.8168 10.9637C11.7138 11.1747 11.5758 11.4188 11.5202 11.4884C11.3365 11.7182 11.3449 11.7225 11.2822 11.3661C11.1757 10.761 11.163 10.5182 11.2336 10.4337C11.2691 10.3913 11.3379 10.276 11.3865 10.1774C11.4351 10.0789 11.4952 9.9762 11.5202 9.94927C11.5451 9.92233 11.6058 9.82592 11.6551 9.73495C11.7044 9.64403 11.7604 9.56965 11.7797 9.56965C11.7989 9.56965 11.8182 9.53421 11.8224 9.49095C11.8267 9.44769 11.8445 9.72591 11.8619 10.1093C11.8895 10.7153 11.8836 10.8268 11.8168 10.9637ZM31.696 9.50764C32.0528 9.53444 32.0635 9.55391 31.8475 9.78136C31.7956 9.83599 31.7531 9.89859 31.7531 9.92053C31.7531 9.94248 31.7124 9.99707 31.6625 10.0418C31.6127 10.0866 31.5719 10.1504 31.5719 10.1837C31.5719 10.217 31.556 10.2442 31.5365 10.2442C31.517 10.2442 31.4771 10.2998 31.4478 10.3678C31.4185 10.4359 31.3013 10.6534 31.1873 10.8512C31.0733 11.0491 30.9556 11.2616 30.9257 11.3234C30.8958 11.3852 30.8608 11.4459 30.8477 11.4583C30.8348 11.4707 30.7653 11.5921 30.6933 11.7281C30.4854 12.1207 30.4734 12.1109 30.5 11.5707C30.5356 10.8489 30.649 9.60468 30.6873 9.51357C30.7226 9.42998 30.6669 9.43034 31.696 9.50764ZM32.8294 9.64866C33.0965 9.73234 33.1101 9.75721 32.9653 9.89782C32.8362 10.0232 32.6594 10.2721 32.6594 10.3285C32.6594 10.3522 32.6441 10.3783 32.6254 10.3866C32.5758 10.4084 32.3875 10.6828 32.3875 10.7332C32.3875 10.7569 32.3722 10.783 32.3536 10.7913C32.3066 10.812 31.9797 11.3488 31.9797 11.4051C31.9797 11.4302 31.9633 11.4575 31.9431 11.4658C31.8936 11.4861 31.3 12.6669 31.3 12.7451C31.3 12.7793 31.2812 12.8073 31.2583 12.8073C31.2353 12.8073 31.2031 12.868 31.1867 12.9422C31.1703 13.0164 31.1381 13.0771 31.1151 13.0771C31.0922 13.0771 31.0734 13.099 31.0734 13.1256C31.0734 13.1523 31.002 13.3214 30.9148 13.5013C30.8276 13.6813 30.7562 13.8607 30.7562 13.8999C30.7562 13.9391 30.7358 13.9837 30.7109 13.999C30.686 14.0143 30.6656 14.0776 30.6656 14.1398C30.6656 14.5139 31.1752 13.8196 31.594 12.8748C31.7926 12.4267 31.8281 12.3511 32.038 11.9305C32.2731 11.4592 32.4007 11.2201 32.4338 11.1885C32.4468 11.1761 32.4827 11.1154 32.5136 11.0536C32.5445 10.9918 32.6092 10.8805 32.6574 10.8063C32.7057 10.7321 32.7921 10.5803 32.8496 10.469C32.907 10.3577 32.9693 10.2599 32.988 10.2517C33.0066 10.2434 33.0219 10.2143 33.0219 10.187C33.0219 9.97769 33.3186 9.77398 33.4298 9.90691C33.4608 9.94401 33.5039 9.97436 33.5256 9.97436C33.5634 9.97436 33.6807 10.0647 33.9143 10.2735C33.9739 10.3268 34.0054 10.3774 33.9844 10.386C33.9417 10.4034 33.6759 10.8433 33.5403 11.121C33.492 11.22 33.4412 11.311 33.4274 11.3234C33.4136 11.3358 33.3535 11.4268 33.2938 11.5258C33.2342 11.6247 33.1741 11.7157 33.1603 11.7281C33.1 11.7822 32.9313 12.0432 32.9313 12.0823C32.9313 12.106 32.916 12.1321 32.8973 12.1403C32.8457 12.1631 32.6594 12.4375 32.6594 12.4908C32.6594 12.5165 32.641 12.5375 32.6186 12.5375C32.5961 12.5375 32.5556 12.5932 32.5286 12.6612C32.5016 12.7292 32.4605 12.8152 32.4373 12.8523C32.414 12.8894 32.3632 12.9929 32.3241 13.0824C32.285 13.1718 32.1562 13.3235 32.0377 13.4196C31.9191 13.5157 31.7912 13.6246 31.7532 13.6617C31.7152 13.6988 31.625 13.7751 31.5527 13.8313C31.3608 13.9804 30.9906 14.2949 30.8391 14.4374C30.7669 14.5055 30.6881 14.5611 30.664 14.5611C30.6399 14.5611 30.6203 14.5806 30.6203 14.6045C30.6203 14.6516 30.4427 14.7596 30.4133 14.7304C30.231 14.5495 30.4438 12.6047 30.668 12.4028C30.6819 12.3903 30.7359 12.2992 30.7881 12.2003C30.8403 12.1013 30.9564 11.8889 31.0461 11.7281C31.1359 11.5673 31.2651 11.3245 31.3333 11.1885C31.4015 11.0525 31.4702 10.9311 31.4859 10.9187C31.5015 10.9063 31.53 10.8456 31.5492 10.7838C31.5684 10.722 31.5977 10.6612 31.6143 10.6489C31.6467 10.6247 31.814 10.3166 32.0599 9.82821L32.2127 9.52464L32.4021 9.54941C32.5063 9.56304 32.6985 9.60769 32.8294 9.64866ZM5.16324 9.69331C5.15064 9.76135 4.98524 10.0254 4.79569 10.2801C4.60614 10.5349 4.43068 10.7769 4.40576 10.8179C4.38084 10.8589 4.34005 10.9161 4.31513 10.945C4.29021 10.974 4.23923 11.0429 4.20184 11.0982C4.14311 11.1852 4.05031 11.3109 3.91935 11.4808C3.90032 11.5055 3.81381 11.6067 3.72713 11.7056C3.64044 11.8046 3.56907 11.9091 3.56848 11.938C3.56789 11.9668 3.55217 11.9972 3.53345 12.0054C3.48184 12.0282 3.29555 12.3026 3.29555 12.3559C3.29555 12.3816 3.2791 12.4026 3.25898 12.4026C3.23886 12.4026 3.2032 12.4548 3.17968 12.5185L3.13695 12.6344L2.86506 12.4251C2.71552 12.3099 2.57659 12.1998 2.55633 12.1804C2.48668 12.1137 3.03205 11.1335 3.33932 10.7731C3.36592 10.7419 3.49348 10.5747 3.62272 10.4016C3.752 10.2284 3.88419 10.06 3.9165 10.0274C3.94881 9.99468 3.97527 9.9525 3.97527 9.93366C3.97527 9.91482 4.05004 9.8252 4.14144 9.73454L4.30756 9.56965H4.74689H5.18621L5.16324 9.69331ZM3.74154 9.83946C3.68625 9.91365 3.62449 9.97436 3.60423 9.97436C3.58398 9.97436 3.56744 9.99388 3.56744 10.0178C3.56744 10.0417 3.51134 10.1215 3.44282 10.1952C3.29578 10.3533 3.25178 10.4086 3.15313 10.5589C3.11261 10.6208 3.04138 10.715 2.99489 10.7684C2.94839 10.8217 2.8845 10.9026 2.85287 10.9482C2.82124 10.9938 2.72436 11.1308 2.63763 11.2526C2.55085 11.3744 2.47989 11.5009 2.47989 11.5337C2.47989 11.5664 2.46085 11.5932 2.43761 11.5932C2.41436 11.5932 2.38251 11.6388 2.36683 11.6944C2.31852 11.8654 2.23845 12.0017 2.21122 11.9592C2.16867 11.8929 1.75766 11.5932 1.70913 11.5932C1.68443 11.5932 1.66422 11.5734 1.66422 11.5491C1.66422 11.5249 1.61324 11.4923 1.55094 11.4768C1.4048 11.4404 1.40756 11.4168 1.59113 11.1321C1.72984 10.9168 2.22096 10.3791 2.27878 10.3791C2.30144 10.3791 2.56952 10.2002 2.61583 10.1542C2.62829 10.1418 2.74045 10.0849 2.86506 10.0277C2.98968 9.97053 3.12481 9.90619 3.16536 9.88469C3.20592 9.8632 3.31318 9.83181 3.40376 9.81495C3.49434 9.79808 3.57963 9.76634 3.59327 9.74444C3.60691 9.72249 3.66849 9.70455 3.73007 9.70455H3.84204L3.74154 9.83946ZM5.09232 10.966C5.06459 11.6341 5.05475 11.6952 4.96064 11.7867C4.83167 11.9119 4.65499 12.1608 4.65499 12.2172C4.65499 12.2409 4.63972 12.267 4.621 12.2752C4.56939 12.298 4.3831 12.5724 4.3831 12.6257C4.3831 12.6514 4.36597 12.6724 4.34508 12.6724C4.32415 12.6724 4.28314 12.718 4.25395 12.7736C4.22477 12.8292 4.16179 12.9355 4.11402 13.0097C4.06631 13.0839 4.0257 13.1824 4.02389 13.2286C4.02095 13.3035 4.00196 13.2987 3.85065 13.185C3.60546 13.0008 3.57007 12.9729 3.47921 12.8917C3.43426 12.8515 3.37417 12.8108 3.34567 12.8014C3.31553 12.7915 3.35106 12.7221 3.43063 12.6357C3.50585 12.5539 3.56744 12.468 3.56744 12.4448C3.56744 12.4216 3.58606 12.4026 3.60885 12.4026C3.63165 12.4026 3.7104 12.3057 3.78386 12.1872C3.85731 12.0687 3.94572 11.9417 3.98034 11.905C4.0683 11.8115 4.24716 11.5572 4.24716 11.5257C4.24716 11.5113 4.27267 11.4693 4.3038 11.4324C4.33498 11.3954 4.38129 11.3407 4.40671 11.3106C4.53749 11.1561 5.06282 10.3461 5.06282 10.2989C5.06282 10.2688 5.07619 10.2442 5.09255 10.2442C5.10891 10.2442 5.10881 10.569 5.09232 10.966ZM16.0237 10.6714C16.2481 11.1798 16.263 11.2662 16.1379 11.3369C16.1029 11.3567 16.0743 11.4005 16.0743 11.4343C16.0743 11.4681 16.059 11.5025 16.0403 11.5108C15.9948 11.5308 15.6664 12.0113 15.6664 12.0577C15.6664 12.2975 15.3231 12.1266 15.2303 11.8405C15.2142 11.7911 15.1851 11.7403 15.1656 11.7277C15.1197 11.6982 15.6128 10.7133 15.7457 10.569C15.7769 10.5352 15.8024 10.4786 15.8024 10.4433C15.8024 10.408 15.8228 10.3791 15.8477 10.3791C15.8726 10.3791 15.8951 10.3436 15.8975 10.3004C15.9001 10.2571 15.9206 10.3026 15.9431 10.4016C15.9656 10.5005 16.0019 10.6219 16.0237 10.6714ZM21.07 10.7976C21.1081 10.8671 21.1925 10.9833 21.2576 11.0558C21.3228 11.1284 21.3761 11.2065 21.3761 11.2294C21.3761 11.2865 21.2252 11.5673 21.1849 11.5852C21.167 11.5932 21.1395 11.6677 21.1238 11.7508C21.0978 11.8883 20.9683 11.9382 20.9683 11.8107C20.9683 11.6656 20.6855 11.5124 20.534 11.5752C20.3668 11.6445 20.3644 11.6296 20.5011 11.3684C20.5334 11.3065 20.56 11.2304 20.5602 11.1991C20.5603 11.1679 20.5792 11.1071 20.6021 11.0642C20.7317 10.8214 20.8323 10.594 20.8323 10.5441C20.8323 10.3931 20.9459 10.3759 20.9732 10.5227C20.9884 10.6045 21.0319 10.7282 21.07 10.7976ZM34.2172 10.6152C34.248 10.6461 34.2881 10.7017 34.3064 10.7388C34.3594 10.8465 34.4489 10.994 34.5012 11.06C34.6301 11.2227 34.6046 11.3201 34.3885 11.4924C34.2724 11.5849 34.1673 11.6713 34.1548 11.6842C34.1423 11.6972 33.9894 11.8179 33.815 11.9525C33.6405 12.0871 33.4528 12.2434 33.398 12.2999C33.3431 12.3564 33.28 12.4026 33.2577 12.4026C33.2355 12.4026 33.1803 12.4431 33.1352 12.4926C32.9359 12.7111 33.0046 12.5451 33.2979 12.0991C33.4728 11.8332 33.732 11.378 33.874 11.0875C34.016 10.7969 34.1387 10.5591 34.1467 10.5591C34.1547 10.559 34.1864 10.5843 34.2172 10.6152ZM12.1501 11.7814C12.2122 12.0083 12.1908 12.0913 11.9955 12.3801C11.9453 12.4543 11.8919 12.5505 11.8769 12.5937C11.8618 12.637 11.8314 12.6724 11.8094 12.6724C11.7874 12.6724 11.7694 12.7071 11.7694 12.7494C11.7694 12.8524 11.6014 12.5212 11.5629 12.342C11.5461 12.2641 11.5126 12.1759 11.4884 12.1461C11.4583 12.109 11.4795 12.0452 11.5555 11.9437C11.6165 11.8622 11.735 11.6553 11.8188 11.4839L11.9711 11.1723L12.0318 11.3715C12.0652 11.4811 12.1184 11.6655 12.1501 11.7814ZM23.3678 11.4246C23.3175 11.5544 23.2484 11.7214 23.2143 11.7956C23.1802 11.8698 23.1163 12.0114 23.0722 12.1103C22.8065 12.7065 22.8422 12.6708 22.5104 12.6718C22.1219 12.6728 21.8461 12.5524 21.9562 12.4297C22.0513 12.3235 22.191 12.0386 22.1932 11.9462C22.194 11.9128 22.2246 11.8462 22.2612 11.7982C22.2977 11.7502 22.3277 11.6762 22.3277 11.6337C22.3277 11.5733 22.3793 11.552 22.5656 11.5355C22.9123 11.5047 23.128 11.437 23.2925 11.3073C23.3725 11.2443 23.4427 11.1918 23.4485 11.1906C23.4544 11.1894 23.4181 11.2947 23.3678 11.4246ZM21.7586 11.3923C21.807 11.4286 21.8936 11.4583 21.9512 11.4583C22.0845 11.4583 22.0826 11.5058 21.937 11.8112C21.8717 11.9482 21.8078 12.1374 21.7951 12.2315C21.7663 12.4448 21.703 12.4484 21.4437 12.2519C21.2666 12.1178 21.2511 12.0919 21.3024 12.0159C21.334 11.9689 21.3871 11.8596 21.4201 11.7731C21.598 11.3079 21.6172 11.2862 21.7586 11.3923ZM16.5501 11.5033C16.5952 11.5527 16.6595 11.5932 16.693 11.5932C16.7266 11.5932 16.754 11.6095 16.754 11.6295C16.754 11.6495 16.8354 11.7014 16.9348 11.745C17.1133 11.8232 17.1148 11.8257 17.0475 11.9448C16.9329 12.1476 16.8444 12.2793 16.7312 12.4154C16.7062 12.4455 16.6144 12.5758 16.5272 12.705C16.3438 12.977 16.3263 12.9821 16.135 12.8179C16.0562 12.7502 15.9397 12.6572 15.876 12.6111L15.7603 12.5273L15.8606 12.3414C15.9158 12.2392 15.9735 12.1454 15.9889 12.133C16.0042 12.1205 16.0324 12.0597 16.0516 11.9979C16.0708 11.9361 16.1008 11.8754 16.1183 11.863C16.1358 11.8506 16.2063 11.7444 16.2751 11.6269C16.416 11.3861 16.4353 11.3774 16.5501 11.5033ZM19.1904 11.5792C18.979 11.9883 18.7689 12.3412 18.5253 12.6965C18.3735 12.9178 18.2494 13.114 18.2494 13.1325C18.2494 13.2738 18.0825 13.347 17.7597 13.347H17.4261L17.5738 13.1619C17.655 13.0601 17.8472 12.7317 18.0009 12.4322C18.2457 11.9549 18.2966 11.8842 18.4131 11.8605C18.5948 11.8237 18.9291 11.674 18.9291 11.6295C18.9291 11.6095 18.9565 11.5932 18.99 11.5932C19.0236 11.5932 19.088 11.5526 19.1333 11.503C19.2425 11.3832 19.2716 11.422 19.1904 11.5792ZM1.57264 12.1778C1.61882 12.2218 2.01337 12.5633 2.25603 12.7693C2.39161 12.8844 2.60573 13.0665 2.73184 13.174C2.85799 13.2815 3.05937 13.4504 3.17941 13.5493C3.29945 13.6482 3.42053 13.7498 3.44853 13.7751C3.47654 13.8003 3.60025 13.9015 3.72346 13.9999C3.84662 14.0983 4.00046 14.2295 4.06526 14.2913C4.13011 14.3531 4.2893 14.4837 4.41908 14.5816C4.54882 14.6794 4.65499 14.7755 4.65499 14.7951C4.65499 14.8148 4.67633 14.8309 4.70248 14.8309C4.72858 14.8309 4.79488 14.8771 4.84975 14.9336C4.90463 14.9902 5.05276 15.1166 5.17892 15.2147C5.39738 15.3845 5.85379 15.7659 6.01121 15.9101C6.08657 15.9792 6.26447 16.1261 6.57533 16.376C6.67199 16.4537 6.78468 16.5475 6.82578 16.5846C6.90345 16.6548 7.09056 16.809 7.39099 17.0505C7.48765 17.1282 7.60003 17.2221 7.64077 17.2592C7.68151 17.2963 7.81568 17.4076 7.93899 17.5065C8.06229 17.6054 8.19619 17.7167 8.23657 17.7538C8.32158 17.832 8.44107 17.9306 8.7541 18.1811C8.87772 18.28 9.01185 18.3912 9.05223 18.4283C9.13724 18.5065 9.25673 18.6051 9.56977 18.8556C9.69339 18.9545 9.82752 19.0658 9.86789 19.1029C9.9529 19.181 10.0724 19.2796 10.3854 19.5301C10.509 19.629 10.6432 19.7403 10.6836 19.7774C10.773 19.8596 10.9055 19.9686 11.203 20.2047C11.3276 20.3035 11.4499 20.4058 11.4748 20.432C11.4998 20.4581 11.5915 20.5319 11.6788 20.596C11.766 20.6601 11.8824 20.7551 11.9374 20.807C11.9925 20.859 12.0485 20.9016 12.062 20.9016C12.0755 20.9016 12.1274 20.942 12.1772 20.9915C12.2271 21.041 12.2491 21.0814 12.2262 21.0814C12.2033 21.0814 12.0997 21.1624 11.996 21.2613C11.8922 21.3602 11.7988 21.4412 11.7883 21.4412C11.7779 21.4412 11.7328 21.4766 11.688 21.5199C11.6432 21.5631 11.4977 21.6896 11.3646 21.8009C11.2315 21.9122 11.0255 22.0943 10.9069 22.2056C10.7882 22.3169 10.6126 22.4759 10.5166 22.5589C9.72633 23.2416 7.89675 25.0281 6.96604 26.0258C6.67942 26.3331 6.37867 26.6522 6.29764 26.7349C6.21662 26.8176 6.15037 26.8938 6.15037 26.9042C6.15037 26.9145 6.05349 27.0214 5.93513 27.1416C5.69197 27.3887 5.14058 27.9984 5.00015 28.1756C4.94899 28.2401 4.84535 28.3558 4.76977 28.4327C4.69419 28.5097 4.55076 28.6715 4.45107 28.7923C4.1994 29.0975 4.02122 29.3034 3.86198 29.4733C3.78721 29.5531 3.69545 29.6633 3.65807 29.7182C3.62068 29.7731 3.54931 29.8639 3.49947 29.9199C3.44962 29.9759 3.29668 30.1481 3.15961 30.3025C3.02253 30.4569 2.81354 30.6884 2.69513 30.8169C2.57672 30.9454 2.47989 31.0626 2.47989 31.0773C2.47989 31.092 2.3932 31.1965 2.2873 31.3095C2.18135 31.4225 2.00381 31.6159 1.8927 31.7393C1.78159 31.8627 1.67963 31.9634 1.66613 31.9631C1.61084 31.9619 1.43303 31.6358 1.45569 31.5772C1.4691 31.5425 1.46035 31.514 1.43625 31.514C1.41209 31.514 1.39234 31.4817 1.39234 31.4421C1.39234 31.4026 1.36383 31.3064 1.32894 31.2285C0.963342 30.4112 0.81752 28.7097 0.890975 26.1179C0.911593 25.3899 0.797309 19.62 0.762236 19.62C0.759698 19.62 0.744654 18.8328 0.728839 17.8707C0.687104 15.3312 0.828938 13.091 1.08836 12.193C1.19889 11.8106 1.18765 11.811 1.57264 12.1778ZM17.9404 11.9675C17.9573 11.9718 17.8809 12.107 17.7705 12.2677C17.6601 12.4285 17.5697 12.5853 17.5697 12.6162C17.5697 12.6472 17.5493 12.6724 17.5243 12.6724C17.4994 12.6724 17.4789 12.6978 17.4788 12.7286C17.4786 12.7596 17.4499 12.8391 17.415 12.9055C17.3802 12.9718 17.3384 13.0861 17.3221 13.1594L17.2926 13.2927L17.0573 13.2358C16.6866 13.1463 16.5709 13.0893 16.6011 13.0111C16.6157 12.9732 16.6432 12.9422 16.6622 12.9422C16.6989 12.9422 17.0248 12.4697 17.2225 12.1299L17.3419 11.9246L17.6257 11.9421C17.7818 11.9516 17.9234 11.9631 17.9404 11.9675ZM5.07623 14.1506C5.06658 14.1679 4.73089 13.9137 4.60899 13.7966C4.54229 13.7326 4.33212 13.5648 4.13387 13.4172C4.07265 13.3717 4.06381 13.3493 4.10664 13.3484C4.25296 13.3451 4.45347 13.0721 4.86529 12.3153C5.0355 12.0027 5.03939 12.0181 5.06282 13.0937C5.07528 13.6658 5.08131 14.1414 5.07623 14.1506ZM35.0025 12.5472C35.1453 13.4 35.1962 20.023 35.1044 25.8031C35.0525 29.0734 35.0465 29.187 34.8994 29.6897C34.8637 29.8117 34.8345 29.977 34.8345 30.057C34.8345 30.137 34.8136 30.2094 34.7881 30.2178C34.7626 30.2262 34.729 30.3139 34.7135 30.4127C34.6828 30.6077 34.4763 31.0687 34.3445 31.2366L34.2622 31.3413L33.9366 31.0214C33.7575 30.8455 33.611 30.6921 33.611 30.6806C33.611 30.6524 33.4357 30.4797 33.4071 30.4797C33.3786 30.4797 33.2032 30.3072 33.2032 30.2791C33.2032 30.2426 29.6236 26.7063 28.8544 25.9829C27.8114 25.0021 26.919 24.1415 25.7302 22.9701C24.7358 21.9902 24.5642 21.8287 23.9668 21.3111L23.6869 21.0687L23.8318 20.9626C23.9114 20.9043 24.0016 20.8566 24.032 20.8566C24.0625 20.8566 24.0942 20.8402 24.1025 20.8203C24.1108 20.8003 24.2094 20.7216 24.3215 20.6455C24.4337 20.5693 24.5968 20.4443 24.6841 20.3678C24.7713 20.2912 24.8548 20.2282 24.8697 20.2278C24.8846 20.2274 24.9457 20.1869 25.0057 20.138C25.0656 20.089 25.1349 20.0331 25.1599 20.0139C25.5207 19.7361 25.8442 19.4822 25.8622 19.4626C25.8747 19.4491 26.0276 19.3278 26.2021 19.1932C26.3766 19.0586 26.5615 18.9052 26.613 18.8523C26.6646 18.7994 26.728 18.7481 26.7539 18.7383C26.8004 18.7208 27.1709 18.4246 27.3103 18.2934C27.3498 18.2563 27.5244 18.1154 27.6983 17.9802C27.8723 17.845 28.0596 17.6882 28.1145 17.6317C28.1693 17.5752 28.2269 17.529 28.2423 17.529C28.2577 17.529 28.2967 17.5037 28.3288 17.4728C28.3609 17.4419 28.4643 17.3558 28.5585 17.2817C28.6527 17.2075 28.7635 17.1164 28.8046 17.0793C28.8457 17.0422 28.9805 16.9309 29.1041 16.8321C29.4171 16.5815 29.5366 16.4829 29.6216 16.4048C29.662 16.3677 29.7961 16.2564 29.9197 16.1575C30.2328 15.907 30.3523 15.8084 30.4373 15.7303C30.4777 15.6932 30.6118 15.5819 30.7354 15.483C31.0484 15.2325 31.1679 15.1339 31.253 15.0557C31.2933 15.0186 31.4275 14.9074 31.5511 14.8085C31.8641 14.558 31.9836 14.4594 32.0686 14.3812C32.109 14.3441 32.2431 14.2329 32.3667 14.134C32.6798 13.8835 32.7993 13.7849 32.8843 13.7067C32.9247 13.6696 33.0588 13.5584 33.1824 13.4595C33.5021 13.2036 33.6164 13.1091 33.699 13.0322C33.7388 12.9951 33.9137 12.8541 34.0877 12.7189C34.2617 12.5838 34.4489 12.427 34.5038 12.3704C34.5587 12.314 34.6157 12.2677 34.6303 12.2677C34.645 12.2677 34.7009 12.2272 34.7546 12.1775C34.8903 12.0521 34.9293 12.1102 35.0025 12.5472ZM12.4038 12.4071C12.4038 12.4722 12.5401 12.7667 12.6099 12.8523C12.7619 13.0386 12.7409 13.106 12.4162 13.4737C12.3357 13.5647 12.2695 13.6691 12.2689 13.7055C12.2676 13.7848 12.203 13.6979 12.023 13.375L11.9008 13.1558L12.0956 12.7588C12.2662 12.4114 12.4038 12.2544 12.4038 12.4071ZM12.9476 13.3937C12.9476 13.4464 13.1 13.6685 13.2534 13.8395C13.3795 13.98 13.3795 13.9853 13.2492 14.191C13.1908 14.2832 13.1059 14.4368 13.0604 14.5322L12.9779 14.7057L12.7669 14.4717C12.5116 14.189 12.3578 13.9243 12.434 13.8991C12.463 13.8895 12.5639 13.7613 12.6583 13.6143C12.8132 13.3731 12.9476 13.2706 12.9476 13.3937ZM14.0338 14.817C14.0345 14.8712 14.0163 14.9271 13.9933 14.9412C13.9703 14.9553 13.9381 15.0273 13.9217 15.1012C13.9053 15.1751 13.8732 15.2356 13.8503 15.2356C13.8273 15.2356 13.8085 15.2647 13.8085 15.3004C13.8085 15.42 13.7311 15.4143 13.5767 15.2833C13.4924 15.2117 13.3637 15.1022 13.2907 15.04L13.1581 14.9268L13.3247 14.5966C13.4163 14.4149 13.4913 14.2415 13.4913 14.2111C13.4913 14.1806 13.6131 14.2823 13.762 14.4371C13.9208 14.6023 14.0331 14.7592 14.0338 14.817ZM21.4821 14.8764C21.5331 14.9227 20.9715 15.4693 20.5378 15.7956C20.4131 15.8893 20.301 15.9793 20.2885 15.9956C20.2519 16.0435 19.5654 16.3768 19.546 16.3562C19.5362 16.3458 19.5762 16.2361 19.6349 16.1125C19.6936 15.9888 19.7423 15.8647 19.7431 15.8366C19.744 15.8085 19.7752 15.7276 19.8125 15.6567C19.8497 15.5859 19.8809 15.4975 19.8819 15.4604C19.8856 15.3161 20.078 15.1945 20.8097 14.8743C21.0021 14.7901 21.3884 14.7913 21.4821 14.8764ZM14.5044 15.1108C14.7847 15.3272 14.8173 15.4522 14.6433 15.6439C14.6079 15.6829 14.5789 15.7493 14.5789 15.7914C14.5789 15.9013 14.4535 15.9335 14.3584 15.8481C14.3138 15.808 14.2533 15.7752 14.2241 15.7752C14.1949 15.7752 14.1711 15.7581 14.1711 15.7371C14.1711 15.7162 14.1301 15.6807 14.0799 15.6584L13.9888 15.6178L14.0799 15.4494C14.1301 15.3567 14.1711 15.2502 14.1711 15.2127C14.1711 14.9726 14.2816 14.9388 14.5044 15.1108ZM15.1227 15.5405C15.1227 15.5598 15.2754 15.6458 15.462 15.7316C15.8378 15.9045 15.8293 15.8937 15.7347 16.0736C15.6975 16.1445 15.6669 16.2458 15.6667 16.2988C15.6666 16.3518 15.6359 16.4068 15.5985 16.4211C15.5611 16.4353 15.5305 16.4289 15.5305 16.4069C15.5305 16.3849 15.4642 16.3527 15.3832 16.3352C15.3022 16.3177 15.1957 16.2756 15.1465 16.2416C15.0974 16.2077 15.0234 16.1799 14.9822 16.1799C14.8246 16.1799 14.7939 16.0652 14.8934 15.8486C14.9447 15.7367 14.9867 15.6138 14.9867 15.5753C14.9867 15.5369 15.0173 15.5054 15.0547 15.5054C15.0921 15.5054 15.1227 15.5212 15.1227 15.5405ZM19.4894 15.6261C19.4726 15.6924 19.4315 15.7987 19.3982 15.8621C19.3648 15.9256 19.3374 16.0118 19.3372 16.0536C19.3371 16.0954 19.3188 16.1408 19.2967 16.1543C19.2747 16.1678 19.2438 16.2467 19.2281 16.3296C19.1947 16.5064 19.1067 16.5587 18.7252 16.6291C18.5756 16.6566 18.3985 16.6904 18.3317 16.704C18.207 16.7295 18.1913 16.6082 18.3012 16.4677C18.3225 16.4405 18.3526 16.3262 18.3681 16.2138C18.3986 15.993 18.4143 15.9794 18.8158 15.826C18.9404 15.7785 19.1341 15.6889 19.2463 15.6271C19.5096 15.482 19.5258 15.4819 19.4894 15.6261ZM16.4594 16.0911C16.4844 16.1097 16.6302 16.1391 16.7835 16.1563L17.0622 16.1877L16.9648 16.4566C16.8698 16.7185 16.8637 16.7247 16.7313 16.6951C16.6566 16.6784 16.4619 16.6404 16.2987 16.6105C15.8937 16.5364 15.8793 16.5244 15.9614 16.3294C15.9986 16.2412 16.029 16.1307 16.029 16.084C16.029 15.997 16.3403 16.0022 16.4594 16.0911ZM18.1134 16.1035C18.1134 16.1356 18.0925 16.1827 18.0669 16.2081C18.0413 16.2335 18.0079 16.359 17.9926 16.4869L17.9648 16.7196H17.5578C17.221 16.7196 17.1595 16.7091 17.2015 16.6588C17.2295 16.6254 17.2651 16.5055 17.2808 16.3923L17.3092 16.1865L17.644 16.1554C17.8281 16.1383 17.9899 16.1065 18.0035 16.0846C18.0408 16.0248 18.1134 16.0372 18.1134 16.1035ZM17.4993 19.3614C17.4635 19.4295 17.4342 19.5306 17.434 19.5863C17.4338 19.6419 17.4175 19.6874 17.3977 19.6874C17.3779 19.6874 17.3266 19.8005 17.2838 19.9387C17.2409 20.0768 17.1663 20.2761 17.1179 20.3815C16.9172 20.8187 17.0419 21.3282 17.2507 20.9241C17.2891 20.8499 17.3322 20.779 17.3467 20.7667C17.3611 20.7543 17.42 20.5924 17.4777 20.4069C17.5353 20.2214 17.6102 20.0059 17.644 19.928C17.6779 19.85 17.7056 19.745 17.7056 19.6945C17.7056 19.6441 17.7237 19.5917 17.7458 19.5782C17.7679 19.5646 17.7999 19.4797 17.8169 19.3896L17.8479 19.2256L18.1233 19.2542C18.2747 19.2699 18.467 19.2827 18.5506 19.2827C18.7268 19.2827 18.7351 19.322 18.6119 19.575C18.5637 19.6739 18.5237 19.7805 18.5228 19.8117C18.5219 19.843 18.5016 19.9037 18.4775 19.9466C18.3741 20.1313 18.2494 20.4539 18.2494 20.5367C18.2494 20.5861 18.2313 20.6375 18.2093 20.6511C18.1363 20.6958 18.0997 21.0902 18.1648 21.1301C18.268 21.1934 18.5213 20.8269 18.5213 20.6144C18.5213 20.5774 18.5399 20.5357 18.5626 20.5218C18.5854 20.5078 18.6181 20.4139 18.6352 20.3131C18.6524 20.2123 18.6948 20.0758 18.7295 20.0098C18.7642 19.9438 18.7927 19.8556 18.7929 19.8138C18.793 19.7719 18.812 19.7262 18.835 19.7121C18.858 19.698 18.8902 19.6259 18.9066 19.552C18.9447 19.3796 19.0392 19.3778 19.5248 19.5405C19.9528 19.6838 19.9668 19.7042 19.8331 19.9891C19.7774 20.1076 19.7063 20.2653 19.6751 20.3395C19.5461 20.6462 19.5166 20.713 19.3778 21.014C19.0858 21.6474 19.0379 22.0401 19.2631 21.9543C19.3398 21.9251 19.6088 21.4113 19.6088 21.2941C19.6088 21.2543 19.6276 21.2101 19.6506 21.196C19.6737 21.1819 19.7068 21.1055 19.7244 21.0262C19.7419 20.9469 19.7733 20.851 19.7942 20.8131C19.8665 20.6819 20.0166 20.3218 20.0166 20.2796C20.0166 20.2564 20.0471 20.1794 20.0843 20.1085C20.1216 20.0377 20.1521 19.9443 20.1523 19.901C20.1527 19.7904 20.5103 19.9237 20.971 20.2062C20.9918 20.219 20.9351 20.3756 20.845 20.5543C20.7548 20.7329 20.6655 20.9196 20.6464 20.969C20.6123 21.0578 20.5602 21.1804 20.3885 21.5761C20.1597 22.1036 20.1334 22.2059 20.2079 22.2798C20.3057 22.3768 20.6964 21.8154 20.6964 21.5779C20.6964 21.5515 20.7161 21.4947 20.7403 21.4518C20.7644 21.4089 20.8613 21.1901 20.9555 20.9657C21.0497 20.7414 21.1585 20.5107 21.1973 20.4532L21.2677 20.3486L21.4646 20.4902C21.5729 20.568 21.6778 20.6318 21.6978 20.6318C21.8916 20.6318 21.9848 20.8723 21.8787 21.099C21.8311 21.2007 21.7583 21.3647 21.7168 21.4637C21.6753 21.5626 21.6141 21.7042 21.5808 21.7784C21.5476 21.8526 21.4852 22.0044 21.4421 22.1157C21.399 22.227 21.339 22.3788 21.3088 22.453C21.0421 23.1075 21.1965 23.4927 21.4792 22.8783C21.5476 22.7297 21.6456 22.4822 21.697 22.3282C21.7483 22.1742 21.808 22.0078 21.8296 21.9583C22.0009 21.5647 22.0558 21.4214 22.0558 21.368C22.0558 21.3341 22.0746 21.3063 22.0975 21.3063C22.1205 21.3063 22.1527 21.2456 22.1691 21.1714C22.2085 20.9932 22.24 20.9992 22.569 21.248C22.9312 21.5217 22.9709 21.6095 22.8292 21.8234C22.8128 21.8481 22.7523 21.9898 22.6948 22.1382C22.5476 22.5179 22.4666 22.7096 22.4127 22.8064C22.2508 23.0969 22.1625 23.534 22.2584 23.5705C22.335 23.5996 22.4636 23.4891 22.4636 23.3941C22.4636 23.3588 22.484 23.3298 22.5089 23.3298C22.5339 23.3298 22.5549 23.3046 22.5558 23.2736C22.5567 23.2427 22.5967 23.1365 22.6449 23.0375C22.6931 22.9386 22.7331 22.8263 22.734 22.788C22.7348 22.7496 22.753 22.699 22.7744 22.6756C22.7957 22.652 22.8806 22.4254 22.963 22.1719C23.1323 21.6508 23.1173 21.6646 23.3173 21.8459C23.3992 21.9201 23.4739 21.9808 23.4834 21.9808C23.4928 21.9808 23.5927 22.071 23.7054 22.1813C23.9238 22.3948 23.927 22.4216 23.7765 22.7677C23.2523 23.9734 23.0332 24.7238 23.2055 24.7238C23.258 24.7238 23.4746 24.342 23.6009 24.0268C23.6207 23.9774 23.6788 23.8419 23.73 23.7258C23.7812 23.6097 23.8231 23.4731 23.8231 23.4223C23.8231 23.3714 23.8412 23.3298 23.8634 23.3298C23.8855 23.3298 23.9168 23.2599 23.933 23.1743C23.9492 23.0888 23.9921 22.9624 24.0284 22.8933C24.0647 22.8243 24.0945 22.7323 24.0947 22.689C24.0952 22.5482 24.1921 22.6046 24.5547 22.9568C24.8363 23.2303 24.897 23.3113 24.8431 23.3413C24.8054 23.3622 24.7747 23.407 24.7747 23.4407C24.7747 23.4745 24.7594 23.5089 24.7407 23.5172C24.673 23.5471 24.095 24.756 24.095 24.8678C24.095 24.9024 24.0748 24.9508 24.0501 24.9753C23.9681 25.0566 23.8393 25.7529 23.8846 25.8699C23.9277 25.9816 24.0453 25.8942 24.0769 25.7271C24.0932 25.6406 24.1534 25.4825 24.2106 25.3758C24.2678 25.269 24.3015 25.1686 24.2854 25.1527C24.2693 25.1367 24.2765 25.1096 24.3015 25.0924C24.3263 25.0752 24.3846 24.97 24.4309 24.8588C24.4772 24.7475 24.5429 24.5926 24.5769 24.5147C24.6109 24.4368 24.6387 24.3507 24.6387 24.3236C24.6387 24.2964 24.6591 24.2742 24.6841 24.2742C24.709 24.2742 24.7299 24.2489 24.7305 24.218C24.7311 24.1871 24.8096 24.0064 24.9048 23.8165L25.0779 23.4713L25.4307 23.8235C25.7686 24.1607 25.8759 24.4091 25.6837 24.4091C25.6613 24.4091 25.6294 24.4698 25.613 24.544C25.5966 24.6182 25.566 24.6789 25.545 24.6789C25.5241 24.6789 25.4926 24.7435 25.4752 24.8225C25.4577 24.9015 25.4153 24.994 25.3809 25.0281C25.3466 25.0621 25.3185 25.1367 25.3185 25.1937C25.3185 25.2507 25.2879 25.3226 25.2505 25.3534C25.2131 25.3842 25.1825 25.4375 25.1825 25.4719C25.1825 25.5063 25.1628 25.5696 25.1388 25.6126C25.0485 25.7738 24.9106 26.1153 24.9106 26.1777C24.9106 26.2133 24.8802 26.3004 24.8429 26.3713C24.8057 26.4421 24.7751 26.5443 24.775 26.5983C24.7748 26.6524 24.7538 26.751 24.7284 26.8174C24.6706 26.9682 24.7487 27.0946 24.8487 27.0123C24.8828 26.9842 24.9106 26.9333 24.9106 26.8993C24.9106 26.8652 24.931 26.8373 24.9559 26.8373C24.9809 26.8373 25.0013 26.8143 25.0013 26.7861C25.0013 26.7578 25.0398 26.6516 25.0869 26.55C25.1341 26.4483 25.2082 26.2741 25.2517 26.1628C25.2952 26.0515 25.3586 25.8967 25.3926 25.8188C25.4266 25.7408 25.4544 25.6546 25.4544 25.627C25.4544 25.5995 25.474 25.5419 25.4979 25.4989C25.6015 25.3133 25.7909 24.8784 25.7816 24.8474C25.7761 24.8288 25.8278 24.7239 25.8967 24.6141L26.0218 24.4146L26.3499 24.7287C26.5303 24.9015 26.6779 25.0506 26.6779 25.0601C26.6779 25.0773 26.5118 25.4446 26.2655 25.9718C26.1932 26.1265 26.1341 26.2734 26.1341 26.2984C26.1341 26.3234 26.1145 26.3791 26.0904 26.422C26.0025 26.579 25.8622 26.924 25.8622 26.9833C25.8622 27.0168 25.8447 27.0634 25.8234 27.0869C25.7892 27.1246 25.6897 27.4285 25.5329 27.9746C25.4215 28.3626 25.7194 28.3062 25.8398 27.9166C25.8588 27.8547 25.8882 27.794 25.9051 27.7817C25.9219 27.7693 25.9815 27.6175 26.0376 27.4444C26.0938 27.2713 26.1561 27.0892 26.1762 27.0397C26.3331 26.6526 26.406 26.442 26.406 26.3756C26.406 26.3328 26.4242 26.2977 26.4464 26.2977C26.4686 26.2977 26.4999 26.2421 26.5159 26.1741C26.532 26.106 26.5734 25.9897 26.6081 25.9155C26.7236 25.6684 26.8138 25.4526 26.8138 25.4234C26.8138 25.2737 26.9379 25.2894 27.1129 25.4611C27.2163 25.5626 27.3748 25.7097 27.4652 25.788C27.622 25.9238 27.6776 26.083 27.5875 26.1383C27.5485 26.1622 27.2832 26.6838 27.1518 26.9947C27.1204 27.0689 27.064 27.2005 27.0265 27.287C26.9889 27.3736 26.9231 27.5355 26.8803 27.6468C26.8375 27.7581 26.7754 27.9098 26.7423 27.984C26.6839 28.115 26.4939 28.6506 26.3435 29.1082C26.1732 29.6265 26.3356 29.7605 26.5615 29.2881C26.7025 28.9932 26.8138 28.7288 26.8138 28.6886C26.8138 28.6654 26.8443 28.5884 26.8815 28.5175C26.9187 28.4467 26.9493 28.3432 26.9495 28.2876C26.9497 28.2319 26.9693 28.1864 26.9931 28.1864C27.0169 28.1864 27.0501 28.1105 27.0669 28.0178C27.0838 27.925 27.1111 27.8289 27.1277 27.8042C27.1442 27.7794 27.2049 27.6378 27.2624 27.4894C27.4148 27.0963 27.4812 26.9466 27.684 26.5388L27.8659 26.1728L28.0309 26.3364C28.1217 26.4264 28.2918 26.5856 28.409 26.6901C28.5953 26.8563 28.6138 26.8884 28.5563 26.9455C28.5201 26.9814 28.4905 27.0252 28.4905 27.0428C28.4905 27.0858 28.294 27.4834 28.2587 27.5119C28.2434 27.5242 28.2151 27.5849 28.1959 27.6468C28.1768 27.7086 28.1474 27.7693 28.1307 27.7817C28.0968 27.8068 27.9402 28.0935 27.7746 28.4337C27.7144 28.5574 27.5757 28.8407 27.4665 29.0633C27.0899 29.8308 26.9825 30.3448 27.199 30.3448C27.2613 30.3448 27.3123 30.3237 27.3123 30.2978C27.3123 30.2719 27.3837 30.0995 27.4709 29.9146C27.5581 29.7297 27.6295 29.5584 27.6295 29.5338C27.6295 29.5093 27.6489 29.4541 27.6726 29.4111C27.6963 29.3682 27.7493 29.2521 27.7902 29.1532C27.8312 29.0543 28.0812 28.5431 28.3459 28.0172L28.8271 27.0611L29.1459 27.3696C29.3213 27.5392 29.4978 27.7063 29.5381 27.7407C29.607 27.7994 29.5808 27.9633 29.4883 28.0515C29.3869 28.1484 28.4443 30.0473 28.4449 30.1537C28.445 30.1847 28.4257 30.2099 28.4019 30.2099C28.3781 30.2099 28.3449 30.2858 28.328 30.3786C28.3112 30.4713 28.2774 30.5722 28.2529 30.6028C28.1628 30.7156 28.1861 31.1318 28.2826 31.1318C28.3915 31.1318 28.707 30.5364 28.9259 29.9176C28.9696 29.794 29.0323 29.6529 29.0652 29.6041C29.098 29.5553 29.1249 29.4794 29.1249 29.4355C29.1249 29.3915 29.1453 29.3555 29.1702 29.3555C29.1951 29.3555 29.2159 29.3303 29.2163 29.2993C29.2167 29.2684 29.2762 29.1318 29.3486 28.9958C29.421 28.8598 29.5277 28.6574 29.5857 28.5461C29.6437 28.4348 29.7038 28.3337 29.7191 28.3213C29.7345 28.3089 29.7614 28.2532 29.7789 28.1976C29.8279 28.0416 29.8771 28.0685 30.2853 28.4746C30.7208 28.9077 30.7184 28.8998 30.507 29.195C30.4197 29.3167 30.3484 29.4414 30.3484 29.4721C30.3484 29.5028 30.332 29.5347 30.312 29.5429C30.2638 29.5628 29.9406 30.0962 29.9406 30.1558C29.9406 30.1815 29.9238 30.2092 29.9034 30.2174C29.883 30.2257 29.8047 30.3538 29.7293 30.5022C29.654 30.6506 29.53 30.8935 29.4539 31.0418C29.0495 31.8295 28.8675 32.4605 29.0456 32.4573C29.1527 32.4555 29.8046 31.2809 29.8046 31.0898C29.8046 31.0511 29.825 31.0194 29.8499 31.0194C29.8748 31.0194 29.8952 30.9959 29.8952 30.9672C29.8952 30.8987 30.2252 30.2368 30.2691 30.2174C30.2878 30.2092 30.3031 30.1784 30.3031 30.149C30.3031 30.1195 30.3744 29.9879 30.4617 29.8565C30.5489 29.725 30.6203 29.5991 30.6203 29.5765C30.6203 29.5539 30.6384 29.5354 30.6607 29.5354C30.6829 29.5354 30.7137 29.4899 30.729 29.4342C30.7444 29.3786 30.7968 29.2863 30.8455 29.229L30.9341 29.1249L31.3195 29.5213C31.6685 29.8801 31.7696 30.0403 31.6738 30.0825C31.6222 30.1053 31.4359 30.3797 31.4359 30.433C31.4359 30.4587 31.42 30.4797 31.4005 30.4797C31.3811 30.4797 31.3407 30.5354 31.3107 30.6034C31.2808 30.6714 31.2162 30.7878 31.1674 30.862C31.1184 30.9362 31.0314 31.0879 30.974 31.1992C30.9165 31.3105 30.8593 31.4117 30.8469 31.4241C30.7925 31.4779 30.3484 32.3773 30.3484 32.4336C30.3484 32.4678 30.327 32.5029 30.3009 32.5115C30.2131 32.5406 30.1877 33.0429 30.2741 33.0429C30.3149 33.0429 30.3484 33.0275 30.3484 33.0087C30.3484 32.9899 30.3944 32.9242 30.4507 32.8626C30.507 32.801 30.5782 32.7 30.609 32.6382C30.6398 32.5764 30.6819 32.4954 30.7027 32.4583C30.8313 32.2286 30.9529 32 31.0614 31.7838C31.1296 31.6478 31.1994 31.5261 31.2165 31.5136C31.2335 31.5009 31.2615 31.4352 31.2786 31.3674C31.2958 31.2996 31.3232 31.2442 31.3395 31.2442C31.3559 31.2442 31.4192 31.138 31.4803 31.0081C31.5414 30.8783 31.6033 30.7619 31.6179 30.7496C31.6325 30.7372 31.7121 30.6158 31.7948 30.4797C31.8775 30.3437 31.9521 30.2249 31.9605 30.2156C31.9689 30.2064 32.1296 30.3515 32.3176 30.538C32.7025 30.9199 32.726 30.9962 32.5533 31.3032C32.4949 31.4069 32.4332 31.5657 32.4161 31.656C32.399 31.7462 32.3551 31.8315 32.3183 31.8455C32.2816 31.8595 32.2516 31.9019 32.2516 31.9398C32.2516 31.9777 32.236 32.0087 32.217 32.0087C32.1979 32.0087 32.1346 32.1085 32.0762 32.2305C32.0178 32.3525 31.9416 32.4632 31.9069 32.4764C31.8722 32.4897 31.8438 32.5315 31.8438 32.5694C31.8438 32.6072 31.828 32.6382 31.8088 32.6382C31.7896 32.6382 31.7251 32.7267 31.6656 32.835C31.5094 33.1186 30.8851 33.1586 28.6264 33.0295C27.1696 32.9462 21.1221 33.0022 17.6376 33.1312C16.3542 33.1787 13.718 33.2357 9.25442 33.3125C7.90858 33.3357 6.45575 33.3755 6.02594 33.4011C4.09119 33.5163 2.95447 33.4202 2.58647 33.1104C2.55706 33.0856 2.46634 33.0148 2.38477 32.953C2.04804 32.6976 1.81517 32.3684 1.97132 32.3684C1.99072 32.3684 2.06829 32.3128 2.14379 32.2447C2.21928 32.1767 2.355 32.0654 2.4454 31.9974C2.58339 31.8936 2.86465 31.6257 3.10237 31.3716C3.13319 31.3386 3.29242 31.1779 3.45619 31.0144C3.61996 30.8509 3.78807 30.6688 3.82981 30.6097C3.8715 30.5506 4.00799 30.3987 4.13305 30.2722C4.25812 30.1456 4.48279 29.9077 4.63233 29.7434C4.78187 29.5791 4.98578 29.3578 5.08548 29.2517C5.18517 29.1455 5.36616 28.9484 5.48769 28.8136C6.5766 27.6061 7.4407 26.7043 9.01965 25.1275C9.63824 24.5098 10.1521 24.0044 10.1617 24.0044C10.1712 24.0044 10.2783 23.9082 10.3996 23.7908C10.7779 23.4245 11.0795 23.15 11.1038 23.15C11.133 23.15 11.0323 23.4342 10.9922 23.4647C10.9166 23.5225 10.9346 23.7346 11.0151 23.7346C11.0969 23.7346 11.3162 23.4681 11.3162 23.3688C11.3162 23.3256 11.335 23.2786 11.3581 23.2645C11.3811 23.2504 11.4141 23.1734 11.4315 23.0933C11.483 22.8561 11.6942 22.5204 11.792 22.5204C11.8045 22.5204 11.8519 22.485 11.8973 22.4417C12.1477 22.2031 12.2678 22.1183 12.2678 22.1801C12.2678 22.216 12.249 22.2569 12.226 22.2709C12.203 22.2851 12.1705 22.3584 12.1538 22.434C12.1371 22.5096 12.0948 22.6257 12.0599 22.6921C11.9743 22.855 11.9766 23.133 12.0639 23.1662C12.1053 23.182 12.1319 23.1663 12.1319 23.1261C12.1319 23.0898 12.1508 23.06 12.174 23.06C12.234 23.06 12.5397 22.4054 12.5397 22.2769C12.5397 22.237 12.5591 22.1693 12.5829 22.1263C12.6066 22.0834 12.6606 21.9708 12.703 21.8761C12.7453 21.7815 12.8507 21.6499 12.9371 21.5838C13.0235 21.5178 13.1458 21.4181 13.2088 21.3625C13.3503 21.2375 13.3994 21.234 13.3685 21.3512C13.3555 21.4007 13.3268 21.4412 13.3048 21.4412C13.2828 21.4412 13.2641 21.4665 13.2632 21.4974C13.2624 21.5283 13.2223 21.6345 13.1741 21.7335C13.126 21.8324 13.0859 21.9476 13.085 21.9894C13.0842 22.0312 13.0643 22.0772 13.0408 22.0916C13.0173 22.106 12.9841 22.2135 12.9671 22.3303C12.95 22.4473 12.9196 22.5743 12.8996 22.6128C12.8532 22.7021 12.9192 22.8106 13.001 22.7795C13.0354 22.7664 13.1038 22.6774 13.1528 22.5818C13.202 22.4862 13.2558 22.3977 13.2725 22.3851C13.2892 22.3724 13.3169 22.3067 13.3341 22.2389C13.3512 22.1712 13.3811 22.1157 13.4006 22.1157C13.42 22.1157 13.4502 22.0398 13.4677 21.9471C13.4852 21.8543 13.5139 21.7582 13.5314 21.7335C13.549 21.7087 13.6108 21.5671 13.6687 21.4187C13.9037 20.8168 13.8685 20.8582 14.5003 20.4402C15.0945 20.047 15.1693 20.0119 15.0821 20.1665C15.0563 20.2122 14.9919 20.3507 14.939 20.4744C14.886 20.598 14.7834 20.8222 14.7108 20.9726C14.6383 21.1229 14.5789 21.2665 14.5789 21.2917C14.5789 21.3169 14.5471 21.4007 14.5082 21.478C14.4682 21.5576 14.4437 21.6987 14.4516 21.8037L14.4656 21.9889L14.5836 21.8837C14.7063 21.7742 14.9867 21.2398 14.9867 21.1153C14.9867 21.0761 15.002 21.0372 15.0207 21.029C15.0394 21.0207 15.1027 20.8926 15.1614 20.7442C15.22 20.5958 15.2965 20.4106 15.3313 20.3327C15.3661 20.2548 15.3946 20.1718 15.3946 20.1485C15.3946 20.0188 15.5493 19.8294 15.7222 19.7476C16.1158 19.5613 16.2313 19.5135 16.2478 19.5299C16.2658 19.5477 16.0701 19.9638 16.0257 20.0022C15.8464 20.1576 15.4106 21.2965 15.4975 21.3828C15.6104 21.4948 15.7962 21.2198 16.1416 20.4294C16.1848 20.3305 16.2995 20.0854 16.3965 19.8847C16.4934 19.6841 16.5727 19.5007 16.5727 19.4773C16.5727 19.4253 17.0259 19.2908 17.2751 19.2688C17.3748 19.2601 17.4807 19.2495 17.5103 19.2453C17.5488 19.2399 17.5456 19.2733 17.4993 19.3614ZM33.2189 31.3906C33.3972 31.5701 33.5999 31.7628 33.6693 31.8189C33.7596 31.8919 33.7845 31.9404 33.7569 31.9894C33.7041 32.0832 33.0676 32.5483 32.9922 32.5483C32.9587 32.5483 32.9313 32.5685 32.9313 32.5932C32.9313 32.618 32.9058 32.6383 32.8747 32.6385C32.8435 32.6387 32.7633 32.6671 32.6964 32.7017C32.6296 32.7363 32.5073 32.7792 32.4246 32.797C32.3419 32.8148 32.2641 32.8446 32.2516 32.8632C32.2391 32.8818 32.1415 32.9115 32.0345 32.9292L31.8401 32.9615L31.9538 32.8398C32.0163 32.7729 32.081 32.6749 32.0976 32.622C32.1142 32.569 32.1862 32.452 32.2577 32.3619C32.3291 32.2718 32.3875 32.1757 32.3875 32.1483C32.3875 32.121 32.4079 32.0986 32.4329 32.0986C32.4578 32.0986 32.4782 32.0651 32.4782 32.0243C32.4782 31.9834 32.5413 31.8173 32.6185 31.6552C32.6956 31.4931 32.7697 31.2939 32.783 31.2124C32.8167 31.0065 32.8512 31.0206 33.2189 31.3906Z" fill="#3E5BF1"/>
</svg>
