<svg width="68" height="43" viewBox="0 0 68 43" fill="none" xmlns="http://www.w3.org/2000/svg">
<path fill-rule="evenodd" clip-rule="evenodd" d="M5.1754 0.152131C3.83297 0.631937 3.32632 0.878176 3.32632 1.05142C3.32632 1.1579 3.18449 1.24506 3.01111 1.24506C2.63499 1.24506 1.37086 2.52626 1.36956 2.90882C1.36891 3.05652 1.29082 3.17716 1.19597 3.17716C0.183978 3.17716 -0.502586 36.2503 0.466767 38.2983C0.629051 38.6407 0.904889 39.2189 1.07979 39.583C1.59275 40.6501 3.10335 42.0838 4.0094 42.3628C4.29176 42.45 4.59262 42.6288 4.67789 42.7606C4.7908 42.9347 12.7677 43 33.9369 43H63.0408L64.091 42.508C65.3773 41.9054 66.9334 40.364 67.5047 39.1263C67.9145 38.2386 67.9317 37.585 67.9652 21.603L68 5.00193L67.5077 3.94013C66.9748 2.79053 64.8396 0.601024 64.2516 0.601024C64.0523 0.601024 63.7669 0.480375 63.6173 0.332676C63.3138 0.0332001 6.00379 -0.14391 5.1754 0.152131ZM66.8035 7.09268C66.6669 4.29006 65.7039 2.70981 63.4893 1.65359C62.55 1.20556 5.68553 0.992599 5.40773 1.43591C5.34204 1.54089 5.0401 1.68837 4.73685 1.76351C4.26457 1.88029 3.37223 2.66709 2.28693 3.92339C1.93212 4.33407 1.56361 5.9229 1.43504 7.59675L1.33453 8.90349L15.2196 9.04754C25.8777 9.1581 50.9367 9.22873 65.9523 9.19052L66.9058 9.18816L66.8035 7.09268ZM2.45617 11.7229C3.0544 11.1168 3.54365 10.5642 3.54365 10.4949C3.54321 10.3337 1.99977 10.2592 1.64039 10.403C1.47006 10.4713 1.36847 10.9444 1.36847 11.6683V12.8248L2.45617 11.7229ZM4.43425 11.4423C4.85301 11.0881 5.25786 10.6976 5.33378 10.5745C5.84347 9.74696 4.44404 10.5677 3.04744 11.915C1.14571 13.7494 0.690189 14.8067 2.52056 13.1372C3.15425 12.5593 4.01549 11.7965 4.43425 11.4423ZM8.90466 10.9105C9.04149 10.9077 9.20315 10.7774 9.26406 10.6207C9.34912 10.4022 9.0476 10.336 7.96796 10.3367C6.48173 10.3375 6.2272 10.4953 3.501 13.106C3.2852 13.3128 3.05527 13.4817 2.98958 13.4817C2.9241 13.4817 2.64369 13.7232 2.36654 14.0184C2.08918 14.3136 1.75134 14.5551 1.61538 14.5551C1.44766 14.5551 1.36847 15.2432 1.36847 16.7019V18.8487H17.7043C33.857 18.8487 34.0413 18.844 34.1538 18.4193C34.2164 18.1832 34.3541 17.99 34.4598 17.99C34.5653 17.99 34.6519 17.8659 34.6519 17.7143C34.6519 17.5625 35.1397 16.742 35.7357 15.8908C36.7864 14.3902 37.3146 13.7771 39.4922 11.5292C40.0604 10.9425 40.5255 10.4155 40.5255 10.3579C40.5255 10.181 39.3725 10.4483 39.2379 10.6563C39.0908 10.8839 37.5354 12.7108 37.0164 13.266C36.8212 13.4746 36.1482 14.3089 35.5206 15.1199C34.8932 15.931 34.2941 16.6268 34.1895 16.666C34.0848 16.7056 33.9993 16.8208 33.9993 16.9226C33.9993 17.3867 32.5407 18.6795 32.4065 18.3343C32.333 18.145 32.3676 17.99 32.4833 17.99C32.5992 17.99 32.6941 17.8895 32.6941 17.7667C32.6941 17.558 33.5131 16.2968 33.8035 16.0579C33.8753 15.9988 33.9732 15.8434 34.0211 15.7122C34.1736 15.2947 35.3629 13.9169 37.0992 12.1462C37.2237 12.0193 37.3399 11.901 37.4483 11.7908C38.4079 10.8142 38.7475 10.4686 38.6808 10.352C38.6443 10.2881 38.4859 10.2929 38.2408 10.3003C38.1902 10.3019 38.1359 10.3035 38.0782 10.3047C37.2718 10.3212 37.0755 10.5067 34.764 13.4399C34.6426 13.594 34.2741 14.0079 33.9449 14.3595C33.6158 14.7114 33.3467 15.0521 33.3467 15.1167C33.3467 15.5057 30.7647 18.3043 30.5768 18.119C30.4195 17.9636 31.5812 16.0579 31.8331 16.0579C31.9477 16.0579 32.0436 15.9372 32.0465 15.7895C32.0493 15.642 32.3911 15.1348 32.8059 14.6625C34.1971 13.079 35.0448 12.0917 35.6628 11.3349C36.0002 10.9217 36.372 10.517 36.4888 10.4357C36.6059 10.3543 36.389 10.2965 36.0072 10.3073C35.3159 10.3266 34.424 11.1497 32.3345 13.6964C31.9954 14.1097 31.6194 14.5564 31.4989 14.6891C31.1948 15.0242 29.7795 16.698 29.2524 17.3459C28.5487 18.2109 28.4547 17.6707 29.1138 16.5506C29.4471 15.9844 29.7775 15.4729 29.8482 15.4138C29.9187 15.3548 30.5274 14.6303 31.2005 13.8037C31.8735 12.9772 32.8274 11.8744 33.3206 11.353C33.4216 11.2461 33.5126 11.1505 33.594 11.065L33.5951 11.0638L33.596 11.0629C34.0153 10.6224 34.1798 10.4495 34.1444 10.3852C34.1215 10.3437 34.0152 10.3475 33.8401 10.3538C33.7874 10.3557 33.7283 10.3578 33.6634 10.359C33.0454 10.37 31.8457 11.6383 30.3012 13.9126C30.1217 14.1769 29.8757 14.5019 29.7545 14.6352C29.6333 14.7683 28.9983 15.5534 28.3433 16.3799C27.6883 17.2064 27.035 18.0041 26.8917 18.1527C26.4198 18.6411 26.3652 18.0394 26.8151 17.3067C27.0555 16.9151 27.3733 16.3531 27.5215 16.0579C27.6694 15.7627 27.8419 15.4729 27.9047 15.4138C27.9674 15.3548 28.5696 14.6303 29.2426 13.8037C29.9157 12.9772 30.8696 11.8744 31.3627 11.353C31.4244 11.2878 31.4825 11.2265 31.5371 11.1689C32.0186 10.6611 32.2261 10.4422 32.1803 10.3557C32.1456 10.2902 31.9655 10.3007 31.6489 10.3191L31.6482 10.3191L31.6215 10.3207C31.5822 10.323 31.5409 10.3253 31.4976 10.3277C31.0791 10.3504 30.7365 10.4198 30.7362 10.482C30.7362 10.5443 30.4582 10.8957 30.1182 11.263C29.7784 11.6301 29.1175 12.4002 28.6498 12.9742C28.1821 13.5483 27.6705 14.1524 27.5125 14.3166C27.3548 14.4808 27.0618 14.8675 26.8616 15.1755C26.015 16.4789 24.7124 17.8416 24.5546 17.5896C24.4128 17.3633 25.0913 16.0613 25.3521 16.0592C25.4418 16.0585 25.5153 15.9574 25.5153 15.8346C25.5153 15.4617 26.4161 14.3293 27.9626 12.758C28.7703 11.9375 29.431 11.1851 29.431 11.0859C29.431 10.9867 29.5778 10.9056 29.7573 10.9056C29.9368 10.9056 30.0836 10.7587 30.0836 10.5793C30.0836 10.1684 29.0666 10.3088 28.7012 10.7706L28.6373 10.8511L28.6318 10.8581C28.4657 11.0674 28.1656 11.4459 27.9082 11.7701C27.6091 12.1469 27.1059 12.7269 26.7899 13.0592C26.4738 13.3916 26.1801 13.7537 26.1372 13.8643C25.8784 14.5302 22.3201 18.3431 22.1313 18.157C21.9944 18.022 22.3618 17.23 22.776 16.7674C22.9068 16.6216 23.1115 16.3771 23.2311 16.224C24.2222 14.9574 25.2418 13.7934 26.4799 12.5157C28.3809 10.5535 28.5108 10.3208 27.6779 10.3695C27.3246 10.3904 27.0007 10.447 26.9582 10.4955C26.916 10.5439 26.5132 11.0666 26.0633 11.657C25.6132 12.2473 25.1836 12.7787 25.1083 12.8377C25.033 12.8967 24.5799 13.427 24.1013 14.0159C23.6227 14.6049 23.0843 15.2434 22.9048 15.4349C22.7254 15.6264 22.2922 16.1345 21.9424 16.5645C21.5926 16.9943 21.2257 17.3459 21.1267 17.3459C20.7477 17.3459 20.9868 16.7755 21.7114 15.9505C22.1265 15.4782 22.7987 14.7054 23.2055 14.2331C23.6123 13.7608 24.3919 12.8688 24.9382 12.2508C26.2338 10.7847 26.4953 10.3129 25.9937 10.3448C25.6719 10.3655 23.5574 12.2604 23.5574 12.5283C23.5574 12.5803 23.3862 12.7986 23.1768 13.0135C22.9673 13.2282 22.2087 14.0633 21.4908 14.8694C19.2199 17.4191 18.554 18.0018 18.554 17.4389C18.554 17.2912 19.6326 15.8209 19.9606 15.5212C20.0901 15.4031 20.421 15.0167 20.6964 14.6625C20.9718 14.3082 22.0416 13.1664 23.0741 12.125C24.8152 10.3687 24.9047 10.2366 24.3086 10.3002C23.9088 10.3429 23.4197 10.6441 23.0136 11.0975C22.6547 11.4983 22.0862 12.1262 21.7503 12.4929C21.4145 12.8598 20.925 13.436 20.6627 13.7735C20.4003 14.1109 19.9165 14.6698 19.5874 15.0152C19.2582 15.3606 18.9891 15.7176 18.9891 15.8084C18.9891 16.0124 17.6123 17.3459 17.4015 17.3459C17.3176 17.3459 17.2488 17.201 17.2488 17.0239C17.2488 16.8468 17.3467 16.7019 17.4664 16.7019C17.586 16.7019 17.6839 16.6014 17.6839 16.4786C17.6839 15.9864 19.2408 14.0766 21.746 11.496C22.4051 10.8171 22.8435 10.2615 22.7201 10.2615C22.5165 10.2615 18.9891 13.6116 18.9891 13.805C18.9891 13.8505 18.4098 14.4969 17.7017 15.2412C15.8659 17.171 15.0808 18.0733 15.0769 18.2583C15.0717 18.4951 14.4208 18.455 14.4208 18.218C14.4208 17.5445 20.1564 11.1203 20.7577 11.1203C20.8534 11.1203 21.0333 10.9328 21.1576 10.7038C21.3525 10.3446 21.3148 10.2929 20.8843 10.3281C20.463 10.3624 18.9891 11.5685 18.9891 11.8787C18.9891 12.0794 13.4134 17.7753 13.2169 17.7753C13.0074 17.7753 13.1262 17.151 13.3875 16.8782C13.5372 16.7223 14.2448 15.87 14.9605 14.9845C15.676 14.0989 16.9242 12.7123 17.7341 11.903C19.2706 10.3676 19.3511 10.2615 18.9804 10.2615C18.7357 10.2615 17.5832 11.4058 15.9764 13.2441C13.3995 16.1925 10.8458 18.5089 11.1941 17.5823C11.3261 17.2307 13.6301 14.7022 15.6717 12.6681C17.948 10.4002 18.013 10.2714 16.8333 10.3648C16.1505 10.4189 15.8178 10.6132 15.1474 11.3493C13.7105 12.9266 8.69648 17.7963 8.28598 18.0132C7.58007 18.3858 7.85505 17.8174 8.87357 16.7979C9.41197 16.2588 9.85249 15.7786 9.85249 15.7305C9.85249 15.6324 12.305 13.2417 13.9244 11.7613L13.9313 11.755C14.7204 11.0336 15.102 10.6847 15.0334 10.5151C14.9693 10.3562 14.5106 10.3544 13.6226 10.3509L13.6142 10.3509L11.9717 10.3444L9.97539 12.2888C8.87725 13.3581 7.20505 14.9093 6.25919 15.7359C5.31333 16.5624 4.36441 17.4076 4.15035 17.6143C3.77009 17.9816 3.32632 18.1156 3.32632 17.8633C3.32632 17.5044 6.48847 14.4373 8.67953 12.6707C10.6045 11.119 11.4044 10.227 10.7881 10.3199C10.2197 10.4056 8.74523 11.5058 6.69536 13.3744C6.30662 13.7286 5.47582 14.4531 4.84909 14.9845C4.22236 15.5158 3.35829 16.2768 2.92908 16.6757C2.43897 17.131 2.11529 17.3026 2.05917 17.1366C1.98064 16.9039 5.28068 13.4817 5.58371 13.4817C5.64854 13.4817 5.97464 13.2368 6.30856 12.9373C7.81262 11.5883 8.67494 10.9152 8.90466 10.9105ZM41.0554 12.7044C42.0069 11.7523 42.7472 10.9232 42.985 10.5439C43.2352 10.1441 41.3369 10.2961 40.9321 10.7081C40.7369 10.9067 40.0639 11.7327 39.4363 12.5438C38.8089 13.3549 38.2098 14.0506 38.1052 14.0899C38.0005 14.1294 37.915 14.2492 37.915 14.3565C37.915 14.6008 36.4107 16.5692 36.1499 16.666C36.044 16.7056 35.9572 16.8595 35.9572 17.0085C35.9572 17.1574 35.7614 17.4543 35.5221 17.668C35.2828 17.8816 35.087 18.1785 35.087 18.3274C35.087 18.4764 34.9648 18.6469 34.8151 18.7066C34.6656 18.766 35.0015 18.8225 35.5619 18.8317C36.3979 18.8457 36.6052 18.7718 36.7186 18.4193C36.7945 18.1832 36.9478 17.99 37.0594 17.99C37.171 17.99 37.2624 17.8479 37.2624 17.674C37.2624 17.2925 39.8226 13.9381 41.0554 12.7044ZM44.2715 11.4962C44.7238 11.0535 45.0938 10.6108 45.0938 10.5123C45.0938 10.1768 43.8986 10.3436 43.5166 10.7326C43.3072 10.9459 43.136 11.1677 43.136 11.2257C43.136 11.3742 41.7883 13.0994 41.1002 13.8317C40.7841 14.1681 40.5255 14.5021 40.5255 14.5738C40.5255 14.6455 40.3323 14.9362 40.0965 15.22C39.1545 16.3524 37.9936 17.6765 37.4423 18.2469L36.8608 18.8487H38.8811H40.9014L41.5292 17.9363C42.1425 17.0452 42.3667 16.7429 42.8096 16.2112C43.0744 15.8932 44.6753 13.9128 44.9818 13.5236C45.1032 13.3695 45.4473 12.9798 45.7464 12.6576C46.0455 12.3353 46.6103 11.6724 47.0014 11.1842L47.7125 10.2968L46.8352 10.3663C45.9259 10.4384 45.5465 10.7452 44.6411 12.14C44.392 12.5236 44.0983 12.8377 43.9883 12.8377C43.8784 12.8377 43.7886 12.9433 43.7886 13.0721C43.7886 13.2011 43.6174 13.5281 43.4079 13.7988C43.1984 14.0693 42.8803 14.5042 42.7009 14.7651C42.5214 15.0257 42.2277 15.4145 42.0483 15.6285C41.8688 15.8425 41.5751 16.232 41.3956 16.4937C40.9275 17.1763 39.5485 18.634 39.3708 18.634C38.6547 18.634 42.0889 13.6322 44.2715 11.4962ZM49.1113 11.5393C49.5264 11.1316 49.8688 10.7016 49.8725 10.5836C49.8842 10.2029 48.4861 10.3167 48.085 10.7291C47.8755 10.9442 47.7043 11.1724 47.7043 11.2362C47.7043 11.3551 46.8204 12.6447 46.6064 12.8377C46.5411 12.8967 46.007 13.573 45.4197 14.3404C44.3218 15.7754 44.0466 16.1023 42.5099 17.7993C42.0167 18.3438 41.6132 18.8268 41.6132 18.8727C41.6132 18.9185 42.5577 18.9395 43.7122 18.9191L45.8112 18.8824L46.2629 18.1677C46.5113 17.7749 46.7904 17.4211 46.8831 17.3818C46.9757 17.3423 47.0517 17.2178 47.0517 17.1046C47.0517 16.9211 47.8511 15.6869 48.1468 15.4138C48.2107 15.3548 48.4828 15.0167 48.7513 14.6625C49.7574 13.3353 50.4501 12.5202 51.3481 11.6063C52.461 10.4739 52.4823 10.3388 51.5532 10.3045C50.9724 10.2828 50.7607 10.4 50.4533 10.9137C50.2438 11.2635 49.9802 11.5496 49.8673 11.5496C49.7546 11.5496 49.6621 11.6454 49.6621 11.7624C49.6621 12.0198 48.1687 13.989 47.897 14.0899C47.7911 14.1294 47.7043 14.258 47.7043 14.3759C47.7043 14.9486 44.3305 18.549 44.1155 18.2057C44.0401 18.0853 44.1314 17.8356 44.3185 17.651C44.5056 17.4664 44.6587 17.1854 44.6587 17.0265C44.6587 16.8676 44.7323 16.7056 44.8219 16.666C44.957 16.6068 45.8162 15.5931 46.9396 14.1676C47.061 14.0135 47.4295 13.5996 47.7587 13.2479C48.0878 12.8961 48.3569 12.5344 48.3569 12.4442C48.3569 12.354 48.6965 11.9468 49.1113 11.5393ZM53.741 11.4017C54.1297 10.994 54.448 10.5947 54.448 10.5147C54.448 9.65745 52.7031 10.7326 51.8099 12.14C51.5662 12.5236 51.2771 12.8377 51.167 12.8377C51.0572 12.8377 50.9674 12.9334 50.9674 13.0504C50.9674 13.2608 49.5399 15.2062 49.2334 15.4138C49.1461 15.4729 49.0356 15.6283 48.9878 15.7592C48.897 16.0072 47.4506 17.774 46.7658 18.4732C46.3819 18.8652 46.3934 18.8744 47.1939 18.8088C47.8557 18.7547 48.0821 18.6151 48.3501 18.0973C48.5333 17.7431 48.7567 17.4211 48.8464 17.3818C48.936 17.3423 49.0095 17.2178 49.0095 17.1046C49.0095 16.8354 49.8579 15.6472 50.4779 15.0485C50.747 14.7885 50.9674 14.5272 50.9674 14.4682C50.9674 14.369 51.9961 13.2316 53.741 11.4017ZM55.6988 11.178C56.0876 10.759 56.4058 10.3824 56.4058 10.3412C56.4058 10.0084 55.242 10.4814 54.8424 10.9766C54.5657 11.3197 54.0669 11.903 53.734 12.2727C53.4012 12.6425 52.8632 13.3315 52.5382 13.8037C52.2134 14.276 51.896 14.7108 51.8329 14.7698C51.7699 14.8288 51.1856 15.5534 50.5345 16.3799C49.8834 17.2064 49.1222 18.0999 48.8427 18.3657L48.3345 18.8487H49.2212C49.9301 18.8487 50.1525 18.7519 50.3295 18.3657C50.4514 18.0999 50.6724 17.6894 50.8207 17.4533C52.1373 15.358 52.555 14.7698 52.7264 14.7698C52.8358 14.7698 52.9252 14.6781 52.9252 14.5663C52.9252 14.4542 53.1726 14.0991 53.4747 13.7773C53.7771 13.4555 54.242 12.9105 54.508 12.5659C54.7741 12.2216 55.3101 11.5968 55.6988 11.178ZM57.8314 10.7092C57.7637 10.6012 57.8314 10.464 57.9817 10.4041C58.132 10.3444 58.0384 10.2877 57.7739 10.2785C57.2988 10.2618 56.825 10.6542 55.9005 11.83C55.6401 12.1612 55.2431 12.6443 55.0184 12.9034C54.7936 13.1625 54.3203 13.8332 53.9664 14.3941C53.6124 14.9551 53.2334 15.4138 53.124 15.4138C53.0146 15.4138 52.9252 15.5096 52.9252 15.6266C52.9252 15.8325 51.5069 17.7723 51.1971 17.99C50.6898 18.3468 50.7911 18.8487 51.3707 18.8487C51.9419 18.8487 53.1427 17.5265 53.1427 16.8973C53.1427 16.7899 53.2406 16.7019 53.3603 16.7019C53.4799 16.7019 53.5778 16.6014 53.5778 16.4786C53.5778 16.2513 54.3225 15.1373 54.8437 14.5845C55.0014 14.4171 55.2944 14.0281 55.4946 13.72C55.9708 12.9869 56.177 12.7278 56.8953 11.9599C57.2244 11.608 57.4935 11.227 57.4935 11.113C57.4935 10.9988 57.5973 10.9056 57.7239 10.9056C57.8505 10.9056 57.899 10.8171 57.8314 10.7092ZM60.042 11.0559C60.1958 10.9614 60.3215 10.7682 60.3215 10.6265C60.3215 10.2167 58.9543 10.2976 58.5268 10.7328C58.3173 10.9459 58.1461 11.1677 58.1461 11.2257C58.1461 11.4062 56.5844 13.3703 56.381 13.4459C56.2751 13.4854 56.1883 13.6099 56.1883 13.723C56.1883 13.9008 55.4139 15.1047 55.1006 15.4138C55.0408 15.4729 54.7515 15.8593 54.4578 16.2725C53.8922 17.0681 53.8728 17.0926 53.027 18.0973L52.4849 18.7413L53.5208 18.9891C54.0906 19.1254 54.733 19.2461 54.9483 19.2574C55.356 19.2789 56.8409 17.9986 56.8409 17.6255C56.8409 17.5078 57.0349 17.1796 57.2718 16.8958C58.0541 15.9595 58.7668 15.0291 59.2338 14.3338C59.4133 14.0665 59.8292 13.5691 60.1584 13.2282C60.4875 12.8871 60.7566 12.5374 60.7566 12.4508C60.7566 12.3643 61.1912 11.8459 61.7223 11.2991L62.6879 10.3045H61.9739C61.4166 10.3045 61.178 10.4412 60.8871 10.9271C60.6822 11.2695 60.422 11.5496 60.3091 11.5496C60.1964 11.5496 60.104 11.6454 60.104 11.7624C60.104 12.0198 58.6106 13.989 58.3389 14.0899C58.2329 14.1294 58.1461 14.258 58.1461 14.3759C58.1461 14.6137 56.795 16.3305 56.028 17.0673C55.7571 17.3273 55.5357 17.6263 55.5357 17.7317C55.5357 17.8371 55.3399 18.0984 55.1006 18.312C54.4069 18.9316 54.5687 18.2856 55.4269 17.0098C55.8457 16.3872 56.1883 15.8226 56.1883 15.755C56.1883 15.6264 57.6636 13.6676 57.9005 13.4817C57.9758 13.4227 58.4255 12.8914 58.8999 12.301C59.3741 11.7106 59.8882 11.1503 60.042 11.0559ZM63.282 11.657C63.4199 11.5389 63.6893 11.1969 63.88 10.8972C64.2018 10.3921 64.1996 10.3502 63.8515 10.3245C63.5063 10.2989 62.0618 11.6119 62.0618 11.9513C62.0618 12.032 61.8906 12.2514 61.6812 12.4386C61.4717 12.6258 61.0557 13.096 60.7566 13.4832C60.4575 13.8707 60.0659 14.3437 59.8864 14.5347C59.707 14.7256 59.3369 15.1704 59.0642 15.5235C57.8131 17.142 57.5784 17.4329 57.2216 17.8062C57.0121 18.0254 56.8409 18.3013 56.8409 18.4193C56.8409 18.5374 56.743 18.634 56.6234 18.634C56.5037 18.634 56.4058 18.7789 56.4058 18.956C56.4058 19.588 58.0315 19.3785 58.0687 18.7418C58.0859 18.447 58.4042 17.8642 58.7757 17.4464C59.1473 17.0286 59.4514 16.5454 59.4514 16.3724C59.4514 16.1993 59.5467 16.0579 59.6633 16.0579C59.7799 16.0579 60.0163 15.7921 60.1886 15.4675C60.3611 15.1429 60.6818 14.6829 60.9013 14.4456C61.1208 14.2082 61.6899 13.532 62.1656 12.9429C62.6416 12.3536 63.1439 11.775 63.282 11.657ZM64.9521 12.0434C65.3127 11.822 66.1951 10.689 66.1951 10.4472C66.1951 9.88544 64.9027 10.3575 64.6469 11.0129C64.4272 11.576 63.089 13.4817 62.9133 13.4817C62.8039 13.4817 62.7145 13.6077 62.7145 13.7617C62.7145 13.9156 62.3718 14.3692 61.9531 14.7698C61.5343 15.1704 61.1917 15.5763 61.1917 15.6721C61.1917 15.7678 60.5038 16.5237 59.6628 17.3519C58.7742 18.2272 58.2504 18.8921 58.412 18.9399C58.5649 18.9852 58.854 19.0739 59.0544 19.1372C59.2869 19.2106 59.5475 19.0578 59.7757 18.7141C59.9724 18.418 60.3224 17.9891 60.5536 17.7609C60.7849 17.5327 60.9742 17.2113 60.9742 17.0469C60.9742 16.8824 61.1169 16.6937 61.2911 16.6278C61.4656 16.5617 61.8486 16.1319 62.1425 15.6725C62.4362 15.2131 63.123 14.3632 63.6684 13.7838C64.2137 13.2044 64.6628 12.6144 64.6662 12.4727C64.6695 12.3311 64.7983 12.1378 64.9521 12.0434ZM66.0863 12.9304C66.6933 12.3137 66.8477 11.9863 66.8477 11.3165C66.8477 10.1237 66.6745 10.2461 65.6069 12.1937C65.2329 12.8757 64.2244 14.4763 63.5307 15.4894C63.0538 16.1852 62.1959 17.1632 61.3548 17.9689C60.1225 19.1501 60.2428 19.3238 62.2052 19.1947C63.8196 19.0887 64.2259 18.9011 64.234 18.2583C64.2357 18.1108 64.3351 17.99 64.4548 17.99C64.5744 17.99 64.6723 17.8895 64.6723 17.7667C64.6723 17.5694 65.4581 16.3436 65.7674 16.0579C66.4796 15.4003 66.8477 14.6039 66.8468 13.7211L66.8462 12.7304L66.405 13.4442C66.1624 13.8368 65.7713 14.3621 65.5357 14.6118C65.3001 14.8613 65.1074 15.1478 65.1074 15.2487C65.1074 15.4879 64.7674 15.8885 63.639 16.9786C63.1304 17.47 62.7145 17.9951 62.7145 18.1456C62.7145 18.2961 62.5676 18.4193 62.3882 18.4193C61.9879 18.4193 61.9672 18.1164 62.3418 17.7369C62.496 17.581 62.86 17.0669 63.1508 16.5946C63.8085 15.5265 63.9799 15.311 64.7267 14.6135C65.0558 14.3063 65.3249 13.9759 65.3249 13.8795C65.3249 13.7831 65.6676 13.3561 66.0863 12.9304ZM66.8477 18.8131V17.2208V17.1447C66.8477 17.0859 66.8477 17.029 66.8477 16.974C66.8474 16.1494 66.8414 15.7567 66.7453 15.7336C66.6534 15.7115 66.4791 16.0278 66.1483 16.6276L66.1185 16.6817C65.7989 17.2609 65.2958 17.9612 64.9999 18.2381C64.7043 18.5149 64.4606 18.8622 64.4585 19.0097C64.4583 19.023 64.458 19.0357 64.4577 19.0479L64.4577 19.0486C64.456 19.1278 64.4547 19.1839 64.4818 19.2178C64.5477 19.3004 64.7817 19.2508 65.5861 19.0801L65.7494 19.0455L66.8477 18.8131ZM66.874 20.3514L64.9573 20.3334C56.9262 20.2574 49.8514 20.2508 27.2012 20.2986L1.36847 20.3532L1.36868 28.6711C1.3689 36.3057 1.40262 37.0768 1.77983 38.0568C2.28496 39.3698 3.83992 41.111 4.66722 41.2903C5.00375 41.3633 5.33507 41.5121 5.40338 41.6211C5.69227 42.0825 62.3394 41.8639 63.4084 41.3972C64.5805 40.8856 65.2975 40.2528 66.1183 39.0055L66.7389 38.0624L66.8064 29.2069L66.874 20.3514Z" fill="#82879E"/>
<path fill-rule="evenodd" clip-rule="evenodd" d="M54.165 6.38274C51.4755 6.92008 53.2169 7.40869 58.3917 7.56862C62.9022 7.70816 63.7221 7.54072 62.4356 6.74297C61.8708 6.39305 55.5028 6.11568 54.165 6.38274ZM6.86133 27.7282C6.29399 27.6539 5.93679 27.4959 5.93679 27.3193C5.93679 26.9575 25.0163 27.1095 26.0048 27.479C26.6787 27.7308 26.7679 27.9714 26.2588 28.1642C25.6969 28.377 11.1893 28.2859 9.41741 28.0586C8.52006 27.9433 7.36994 27.7948 6.86133 27.7282ZM6.51173 31.7545C5.47625 30.9074 6.8535 30.6549 13.5507 30.4643C25.0204 30.1378 26.1816 30.1811 25.8921 30.9258C25.7033 31.4112 24.7036 31.5147 20.1984 31.5147C17.9021 31.5147 15.4426 31.6236 14.7328 31.7567C12.7627 32.1257 6.96356 32.1242 6.51173 31.7545ZM7.35079 34.2637C6.68512 33.9021 6.72711 33.8365 7.78587 33.5821C9.10329 33.2656 25.2277 33.5615 25.5792 33.9086C26.3324 34.652 25.6502 34.7102 16.6986 34.6634C9.08283 34.6235 7.92248 34.5739 7.35079 34.2637ZM45.8656 36.6423C46.9174 36.5371 47.8309 36.3989 47.8955 36.3351C47.9603 36.2713 49.6813 36.2763 51.72 36.3463C53.7588 36.4162 57.266 36.5 59.5138 36.5322C63.947 36.5959 64.9969 36.8611 63.9237 37.6461C63.202 38.1742 44.3894 38.2107 43.8571 37.6852C43.3143 37.1494 43.9156 36.8374 45.8656 36.6423ZM22.3684 38.5877C17.2782 39.063 4.20561 38.1064 7.18764 37.4768C8.25445 37.2516 24.8631 37.4332 24.9558 37.671C25.144 38.1536 24.4733 38.3913 22.3684 38.5877ZM11.4636 11.8405C10.7346 12.5661 9.26622 13.9809 8.2005 14.9845C5.70489 17.335 4.99984 18.1141 5.09969 18.4101C5.26633 18.903 13.1156 11.4365 13.1156 10.7851C13.1156 10.2862 12.8639 10.4468 11.4636 11.8405ZM6.76802 11.1739C6.61008 11.3216 5.74644 12.0215 4.84909 12.7291C3.10856 14.1019 1.58601 15.4933 1.58601 15.7107C1.58601 15.9879 1.94756 15.8222 2.58626 15.2528C2.95042 14.9282 3.7192 14.276 4.29481 13.8037C4.87042 13.3315 5.67445 12.631 6.08146 12.2473C6.48848 11.8637 6.87416 11.5496 6.93855 11.5496C7.00294 11.5496 7.20242 11.4047 7.38189 11.2276C7.8087 10.8064 7.21723 10.7547 6.76802 11.1739ZM54.6655 18.8487C54.5061 18.8487 54.4408 18.9131 54.5204 18.9919C54.6003 19.0705 54.7308 19.0705 54.8106 18.9919C54.8902 18.9131 54.825 18.8487 54.6655 18.8487Z" fill="#82879E"/>
</svg>
