<svg width="166" height="149" viewBox="0 0 166 149" fill="none" xmlns="http://www.w3.org/2000/svg">
<path fill-rule="evenodd" clip-rule="evenodd" d="M41.1232 4.37623V8.41808L39.8168 8.10753C39.0981 7.93678 37.4415 7.58776 36.1351 7.33303C34.8287 7.07784 33.2933 6.63687 32.7228 6.35353C31.2815 5.6372 30.0221 6.16542 30.5941 7.24625C30.8349 7.70175 31.1856 9.9441 31.3737 12.2291L31.7157 16.3845L29.2192 16.0453L26.7224 15.7062L27.0193 19.5097L27.3162 23.3128L25.3152 24.2674C24.2145 24.7928 22.5152 25.3482 21.539 25.5026C19.2008 25.8718 18.6155 26.6388 19.0027 28.8258C19.9238 34.024 19.8782 38.3318 18.9024 38.3318C17.4606 38.3318 17.0302 39.2161 16.7328 42.7883C15.9513 52.1762 15.4151 56.7903 15.0213 57.517C14.7809 57.9607 14.3652 59.6833 14.0972 61.3454C12.3618 72.1138 12.2079 73.5042 12.6022 74.8613C12.9552 76.0773 12.7999 76.591 11.5752 78.2605C7.09397 84.3693 7.11296 94.5743 11.6127 98.5678C12.7942 99.6163 12.9058 100.254 11.9072 100.254C11.5153 100.254 11.1946 100.448 11.1946 100.686C11.1946 100.924 10.5533 101.257 9.76946 101.427C8.98561 101.597 8.34429 101.93 8.34429 102.168C8.34429 102.406 7.95 102.6 7.4683 102.6C5.76237 102.6 1.21844 108.152 1.21844 110.235C1.21844 110.637 0.951466 111.054 0.624627 111.161C-0.159691 111.419 -0.229085 124.514 0.551433 125.017C0.837892 125.201 1.21607 125.932 1.39184 126.642C1.56761 127.351 1.92156 127.932 2.17762 127.932C2.43415 127.932 2.64361 128.207 2.64361 128.543C2.64361 129.302 5.56902 132.154 6.34811 132.154C6.66213 132.154 6.91912 132.355 6.91912 132.602C6.91912 132.848 7.72101 133.18 8.70058 133.339C9.68062 133.498 10.9096 133.817 11.4322 134.048C12.4436 134.494 15.2578 135.072 21.4084 136.097C23.4986 136.446 25.5295 136.857 25.9214 137.013C26.587 137.277 31.6396 138.056 35.4225 138.478C36.337 138.581 38.3679 138.891 39.9356 139.168C41.5033 139.446 44.4961 139.884 46.5864 140.141C48.6766 140.399 50.7075 140.737 51.0994 140.893C51.4913 141.048 53.8429 141.472 56.325 141.834C66.6608 143.342 91.8649 147.535 96.7048 148.552C99.8098 149.204 103.005 149.137 104.081 148.398C104.596 148.044 105.713 147.605 106.562 147.422C107.411 147.24 108.106 146.896 108.106 146.659C108.106 146.421 108.357 146.227 108.663 146.227C109.469 146.227 117.036 142.709 134.767 134.093C140.677 131.22 145.737 128.87 146.01 128.87C146.283 128.87 146.578 128.711 146.665 128.518C146.752 128.324 151.097 126.05 156.32 123.463C162.455 120.425 165.873 118.474 165.975 117.951C166.195 116.826 164.947 115.735 163.44 115.735C162.573 115.735 162.095 115.439 161.925 114.797C161.789 114.281 161.501 113.858 161.286 113.858C161.071 113.858 160.751 112.906 160.574 111.742C160.398 110.577 160.064 109.509 159.833 109.369C159.244 109.009 159.296 97.0971 159.887 96.7359C160.149 96.5764 160.362 96.0684 160.362 95.6072C160.362 95.1461 160.8 94.2703 161.334 93.6614C162.915 91.8624 162.413 90.258 160.125 89.7959C157.637 89.2935 150.629 88.0719 148.367 87.7464C146.872 87.5311 146.586 87.3078 146.586 86.3564C146.586 85.5711 146.184 85.0467 145.279 84.6498C141.445 82.968 139.462 74.5409 141.525 68.6916C142.418 66.1584 142.505 66.1167 148.011 65.5373C157.214 64.5691 158.076 64.2201 156.093 62.262C155.149 61.3299 155.097 60.8655 155.231 54.5348L155.374 47.7989L153.83 47.053C152.982 46.6425 151.552 45.9487 150.653 45.512C148.742 44.5822 148.854 44.1117 151.083 43.6984C152.678 43.4029 153.038 42.0847 151.523 42.0847C151.159 42.0847 150.861 41.9073 150.861 41.6911C150.861 41.4744 150.342 41.0629 149.706 40.7773C148.271 40.1318 146.472 38.6452 144.254 36.2729C143.315 35.269 141.158 33.0248 139.46 31.2853L136.372 28.1221L122.12 28.4903C108.669 28.8375 102.271 29.422 101.242 30.3982C100.993 30.6332 100.385 30.826 99.8896 30.826C99.3946 30.826 98.4217 31.1103 97.7281 31.4579C97.0346 31.8055 95.4098 32.5969 94.1177 33.2171C90.6664 34.873 86.1362 39.4877 85.0593 42.4449C84.0792 45.1362 84.3662 45.3098 81.7814 40.4597C81.0204 39.0312 80.2189 37.8627 79.9999 37.8627C79.7814 37.8627 79.6028 37.6187 79.6028 37.3213C79.6028 36.613 74.8066 29.4187 74.3344 29.4187C74.1349 29.4187 73.9026 29.133 73.818 28.784C73.5881 27.8331 70.2865 23.9916 66.5107 20.2823C62.9606 16.7945 61.7968 15.7676 57.9877 12.7625C56.6813 11.7319 55.5055 10.7782 55.3749 10.6431C55.2443 10.508 53.6409 9.24278 51.812 7.83217C49.983 6.42108 48.0771 4.89976 47.5764 4.45176C47.0757 4.00376 45.793 3.05241 44.726 2.33749C43.6591 1.62256 42.7146 0.879024 42.6277 0.685751C41.8372 -1.06966 41.1232 0.682466 41.1232 4.37623ZM43.65 2.89619C44.032 3.27336 45.8106 4.68913 47.603 6.04298C51.7436 9.1696 51.4757 8.95756 53.7122 10.8776C54.7574 11.775 55.7507 12.5139 55.9198 12.52C57.0927 12.5613 73.9021 29.0786 73.9021 30.1895C73.9021 30.4245 75.9002 33.2861 76.3121 33.6407C76.4617 33.7697 76.7315 34.1919 76.9111 34.5789C77.0907 34.9659 77.6608 35.9159 78.1776 36.6899C78.6945 37.4639 79.3829 38.625 79.7068 39.27C80.0308 39.915 80.4084 40.5483 80.5462 40.6773C81.2464 41.3332 85.3401 50.0464 85.6156 51.4669L85.9344 53.1087L84.55 51.4823C82.417 48.9759 78.0033 44.9204 77.3971 44.9092C77.0983 44.9035 76.731 44.5827 76.5804 44.1957C76.4303 43.8086 75.98 43.492 75.5796 43.492C75.1796 43.492 74.8522 43.295 74.8522 43.0543C74.8522 42.8137 74.371 42.4689 73.7834 42.2878C73.1957 42.1062 72.6076 41.8285 72.4769 41.6695C71.7948 40.8411 64.6428 37.8627 63.3345 37.8627C62.7193 37.8627 61.9487 37.599 61.6219 37.2763C60.9374 36.5998 45.6443 36.4267 43.3056 37.0689L41.9255 37.448L42.2367 32.4224C42.4082 29.658 42.5484 21.7295 42.5484 14.8031C42.5484 7.8772 42.64 2.21036 42.7521 2.21036C42.8638 2.21036 43.2681 2.51903 43.65 2.89619ZM37.3228 8.80135C41.356 9.8029 40.9792 9.24559 41.1982 14.5367C41.307 17.1745 41.2695 23.4493 41.1137 28.4805C40.7755 39.4258 40.6899 39.0172 43.2134 38.5279C44.2847 38.3201 48.5816 38.147 52.7621 38.1432C60.2438 38.1362 62.5858 38.4655 66.1354 40.0211C66.9587 40.3823 67.8508 40.6773 68.1183 40.6773C71.0489 40.6773 84.9249 52.0898 85.5139 54.9852C85.7377 56.0848 85.7025 56.1875 85.3534 55.4543C84.8014 54.2947 82.2484 51.936 81.5458 51.936C81.2607 51.936 81.028 51.7601 81.028 51.5447C81.028 51.3299 79.7985 50.3297 78.2964 49.323C76.7943 48.3158 75.4555 47.3476 75.3225 47.1712C75.189 46.9944 74.4945 46.7049 73.7786 46.5276C73.0627 46.3503 72.4769 46.0355 72.4769 45.8277C72.4769 45.6203 71.5687 45.3028 70.458 45.1222C69.3473 44.9411 68.2252 44.624 67.9639 44.4176C65.4552 42.4337 44.29 42.3947 39.4605 44.365C38.6035 44.715 35.3926 45.7404 32.7522 46.5079C31.7978 46.7851 31.7656 46.6955 32.138 44.7942C32.3542 43.6909 32.5399 41.1662 32.5513 39.1832C32.5627 37.2003 32.8078 34.9838 33.0962 34.2576C33.7674 32.5664 33.7831 20.2331 33.1185 16.5182C32.842 14.9701 32.509 12.3014 32.3788 10.5877L32.1422 7.47236L33.9014 7.93021C34.8686 8.18212 36.4083 8.57383 37.3228 8.80135ZM32.2344 19.1157C32.728 20.9949 32.4188 31.0948 31.7185 35.9862C31.4416 37.9213 31.1309 41.3519 31.0283 43.6093L30.8425 47.714H32.2292C32.9921 47.714 34.29 47.4189 35.1133 47.0577C37.2145 46.1368 40.3645 45.3605 43.9735 44.874C45.6719 44.6451 48.7408 44.2262 50.793 43.9433C54.5312 43.4277 64.8775 44.3279 66.7919 45.3351C67.1924 45.5458 68.2542 45.8774 69.1516 46.0721C70.0489 46.2668 71.1107 46.6102 71.5112 46.8353C71.9116 47.0605 72.7739 47.455 73.4271 47.7126C75.0342 48.3463 76.4289 49.233 78.6066 51.0067C79.2346 51.5175 79.8759 51.9369 80.0318 51.9383C80.9686 51.9458 85.7786 57.425 85.7786 58.4847C85.7786 58.7531 85.9923 58.9726 86.2536 58.9726C86.5149 58.9726 86.7286 59.4441 86.7286 60.0201C86.7286 60.8988 86.3785 60.6727 84.5538 58.6128C83.3581 57.2627 82.1933 56.158 81.9658 56.158C81.7382 56.158 80.9696 55.625 80.2579 54.9739C79.5463 54.3228 78.4665 53.6665 77.8584 53.5155C77.2503 53.3649 76.7524 53.0764 76.7524 52.8742C76.7524 52.672 76.1667 52.3615 75.4508 52.1841C74.7349 52.0068 74.0228 51.6597 73.8684 51.4129C73.714 51.1662 72.7501 50.8336 71.7259 50.6741C70.7021 50.5141 69.7572 50.2265 69.6266 50.0342C68.3976 48.2277 49.9061 48.276 48.0353 50.091C47.7868 50.3316 47.1783 50.5286 46.6819 50.5286C45.8315 50.5286 44.1684 51.1427 40.8857 52.6678C40.1019 53.0318 39.033 53.2955 38.5104 53.2537C36.9622 53.1299 33.9973 53.819 33.9973 54.3026C33.9973 54.5489 33.6235 54.752 33.166 54.7534C32.7085 54.7553 31.7613 55.0518 31.0601 55.413C30.3594 55.7742 29.1299 56.2119 28.3285 56.3855C27.5271 56.5595 26.8715 56.8865 26.8715 57.1121C26.8715 57.3382 26.1209 57.6619 25.2036 57.8317C24.2863 58.0015 23.4184 58.3281 23.2754 58.5565C23.1324 58.7854 22.6292 58.9726 22.1575 58.9726C21.3547 58.9726 21.2844 58.0527 21.0564 44.5475C20.9181 36.3648 20.6012 29.6012 20.3238 28.9177C19.7946 27.6136 20.709 26.6214 22.4705 26.5881C22.9313 26.5792 24.1637 26.1715 25.2088 25.6818L27.109 24.7914L27.4872 26.6045C27.6962 27.6089 27.5589 34.4476 27.1784 41.936C26.4943 55.4135 26.5746 56.8532 27.9371 55.5078C28.3333 55.1165 29.2706 54.6516 30.0207 54.4743C30.7708 54.297 31.5983 53.994 31.8596 53.8007C32.1209 53.6074 33.242 53.3015 34.3513 53.1209C35.4601 52.9403 36.4729 52.6241 36.6017 52.4182C36.7309 52.2127 37.7954 51.9022 38.9684 51.7286C40.1413 51.5546 41.2101 51.2379 41.3436 51.025C41.4771 50.8115 42.6045 50.4864 43.8491 50.3025C45.0933 50.1186 46.3251 49.8306 46.5864 49.6622C48.6272 48.3468 66.171 47.1032 67.486 48.1807C68.2618 48.8164 68.7672 48.1488 68.1986 47.2402C67.6518 46.3667 59.6181 46.0369 55.3749 46.7138C48.2006 47.858 46.0866 48.2891 45.66 48.6935C45.4116 48.9285 44.7531 49.1213 44.1959 49.1213C43.1921 49.1213 37.4871 50.6947 35.6601 51.4753C35.1375 51.6986 33.9688 52.026 33.0629 52.2029C31.4073 52.5261 30.89 52.718 28.8558 53.7646L27.7523 54.3322L28.0354 47.622C28.1912 43.9315 28.5575 39.0716 28.8496 36.8217C29.3494 32.9699 29.2534 29.6814 28.3888 21.0601C27.9846 17.0267 27.7927 17.4447 30.0207 17.5057C31.6506 17.5498 31.8643 17.7055 32.2344 19.1157ZM140.734 34.0071C146.064 39.2522 149.431 42.0847 150.336 42.0847C150.625 42.0847 150.861 42.3596 150.861 42.6954C150.861 43.3114 148.162 43.8363 139.46 44.9134C137.239 45.1883 134.51 45.6142 133.396 45.8601C132.282 46.1054 128.434 46.3174 124.845 46.3306C113.671 46.3719 106.388 47.7736 101.346 50.8537C100.371 51.449 99.4431 51.936 99.2835 51.936C99.1234 51.936 98.5024 52.3052 97.9034 52.7569C97.3048 53.2087 96.3347 53.8945 95.748 54.2815C93.7029 55.6307 91.598 57.8125 90.6474 59.567L89.6901 61.3341L88.6293 56.864C88.046 54.4049 87.38 52.2779 87.1486 52.1367C86.9178 51.996 86.7272 51.5236 86.7258 51.0873C86.7239 50.6511 86.4032 49.6894 86.0132 48.9506C84.9495 46.9362 85.9343 40.6773 87.3153 40.6773C87.5153 40.6773 87.6788 40.4259 87.6788 40.1182C87.6788 39.6509 90.484 36.8625 92.1961 35.6283C93.3277 34.8121 98.9623 32.2479 100.268 31.9547C101.052 31.7788 101.907 31.4739 102.168 31.2769C103.277 30.4404 112.009 29.6748 123.308 29.4229C129.971 29.2747 135.461 29.1072 135.508 29.0514C135.555 28.9956 137.907 31.2253 140.734 34.0071ZM19.8473 41.4983C19.9034 42.7241 19.9566 47.3152 19.9661 51.7014L19.9832 59.6763L21.6093 59.8292C22.5038 59.9136 23.7865 59.733 24.4596 59.4281C27.3807 58.1057 28.6074 57.6094 29.7218 57.2998C30.375 57.1182 31.0164 56.8138 31.147 56.6228C31.2776 56.4319 32.1328 56.1265 33.0473 55.944C34.3038 55.6935 33.8981 56.0116 31.3846 57.2472C25.4777 60.151 22.6217 61.1366 18.6046 61.6587L16.7504 61.8994L17.0564 59.6979C17.2241 58.4876 17.4839 53.8706 17.6335 49.4389C17.9452 40.2092 18.0754 39.27 19.0421 39.27C19.5504 39.27 19.7737 39.8883 19.8473 41.4983ZM148.011 45.3314C148.011 45.5687 148.652 45.9023 149.436 46.0721C150.22 46.2419 150.861 46.5586 150.861 46.7758C150.861 46.993 151.539 47.3171 152.366 47.4968C153.742 47.7951 153.793 47.8683 152.96 48.3459C150.722 49.6294 148.539 50.0056 143.838 49.9174C141.119 49.8663 138.815 49.9516 138.717 50.1078C138.62 50.2636 137.304 50.1993 135.793 49.9648C130.198 49.096 110.937 50.075 107.869 51.3843C107.346 51.6071 105.743 52.1513 104.306 52.5937C101.004 53.6102 97.1799 55.3304 97.1799 55.7995C97.1799 55.9966 96.8697 56.158 96.4911 56.158C96.112 56.158 95.6312 56.4375 95.4222 56.7795C95.2132 57.1215 94.6569 57.5414 94.1861 57.7126C93.6479 57.9082 93.4441 57.8416 93.6369 57.5329C94.1286 56.7481 99.6877 52.8742 100.323 52.8742C100.641 52.8742 100.972 52.7156 101.06 52.5224C101.225 52.1541 104.48 50.5676 106.919 49.6669C109.768 48.6137 114.239 48.093 123.783 47.7032C132.685 47.3396 134.954 47.091 140.648 45.8563C141.693 45.6297 143.111 45.5528 143.799 45.6851C144.487 45.8174 145.194 45.6949 145.371 45.4125C145.759 44.7914 148.011 44.722 148.011 45.3314ZM154.187 50.4606C154.187 51.7661 154.105 51.8093 150.98 52.1602C149.216 52.3582 146.918 52.6387 145.873 52.7837C144.828 52.9291 137.88 53.0646 130.434 53.0853C115.196 53.1275 114.584 53.1566 114.999 53.8194C115.362 54.3993 142.701 54.358 146.586 53.7721C152.17 52.9295 154.187 52.9422 154.187 53.8199C154.187 54.6343 152.226 55.2028 149.375 55.2146C148.689 55.2174 147.844 55.557 147.497 55.9689C146.875 56.7101 150.529 56.6308 153.394 55.8413C154.086 55.6504 154.232 55.8272 154.107 56.7007C153.998 57.4616 153.584 57.8496 152.762 57.9621C152.108 58.0513 151.36 58.2901 151.099 58.4922C150.838 58.6944 149.01 59.005 147.038 59.1818C141.241 59.7025 141.249 60.4906 147.048 60.22C149.991 60.0825 152.093 59.7804 152.194 59.4802C152.288 59.2011 152.818 58.9726 153.371 58.9726C155.322 58.9726 153.303 60.1219 150.244 60.7529C143.321 62.1813 129.453 63.4629 128.184 62.7916C124.62 60.9082 103.087 63.1918 98.7276 65.9159C98.1414 66.2818 97.3091 66.4479 96.8773 66.2841C96.4293 66.1143 95.7015 66.3362 95.1818 66.8002C94.5766 67.3411 94.1618 67.4447 93.9443 67.1093C93.7642 66.8321 93.1457 66.4596 92.5699 66.2823C90.588 65.672 95.3215 59.4511 98.3357 58.7038C99.0065 58.5378 99.5552 58.2305 99.5552 58.0208C99.5552 57.8111 100.196 57.5005 100.98 57.3307C101.764 57.1609 102.406 56.7364 102.406 56.3878C102.406 54.8426 96.1429 58.041 93.2113 61.0836C92.4655 61.8576 91.56 63.1627 91.1994 63.9836C90.5367 65.4918 89.579 66.4507 89.579 65.6058C89.579 62.3835 96.2778 56.9273 104.068 53.8044C108.422 52.0589 120.802 50.4559 126.004 50.964C133.665 51.7117 152.21 50.7923 153.412 49.605C154.121 48.9046 154.187 48.9773 154.187 50.4606ZM68.3373 50.9011C68.6546 51.154 69.8223 51.5086 70.933 51.6897C72.0437 51.8703 72.952 52.1963 72.952 52.4135C72.952 52.6312 73.4333 52.9005 74.0209 53.0121C74.9373 53.1866 74.9035 53.2246 73.7834 53.2795C73.0646 53.3147 72.4769 53.1519 72.4769 52.9178C72.4769 52.2095 63.9583 51.8098 60.1255 52.3385C54.3768 53.1308 50.4215 53.8786 49.9118 54.2689C49.6505 54.4687 48.4263 54.7764 47.1911 54.9533C45.9564 55.1297 44.8215 55.4731 44.669 55.7161C44.517 55.959 44.031 56.1594 43.5892 56.1608C43.1474 56.1626 42.1735 56.4793 41.4253 56.8644C40.6766 57.25 39.8634 57.5653 39.6178 57.5653C39.3722 57.5653 38.1669 57.9992 36.9403 58.5293C29.3446 61.8117 26.5181 62.7358 21.4084 63.6083C19.8407 63.8757 18.0768 64.2337 17.4891 64.403C16.7343 64.6207 16.4203 64.5147 16.4203 64.0423C16.4203 63.5999 17.3462 63.1993 19.1519 62.8601C23.2117 62.0973 25.5822 61.4368 27.1399 60.6347C27.9067 60.2397 28.8017 59.9155 29.1281 59.9136C29.4549 59.9122 29.7218 59.7166 29.7218 59.4788C29.7218 59.2414 30.3632 58.9079 31.147 58.7381C31.9308 58.5682 32.5722 58.2516 32.5722 58.0344C32.5722 57.8172 33.2135 57.5005 33.9973 57.3307C34.7812 57.1609 35.4225 56.8443 35.4225 56.6271C35.4225 56.4099 36.0638 56.0932 36.8477 55.9234C37.6315 55.7536 38.2729 55.4369 38.2729 55.2197C38.2729 55.0025 38.9142 54.6859 39.698 54.5161C40.4819 54.3463 41.1232 54.0127 41.1232 53.7753C41.1232 53.5375 41.4648 53.3433 41.8828 53.3433C42.3004 53.3433 43.3161 53.0464 44.1393 52.6833C45.4624 52.0997 49.0652 50.9949 51.812 50.3311C53.4713 49.9296 67.7354 50.4217 68.3373 50.9011ZM86.5705 53.6562C86.3961 53.8279 86.2536 53.6872 86.2536 53.3433C86.2536 52.9994 86.3961 52.8587 86.5705 53.0304C86.7443 53.2026 86.7443 53.484 86.5705 53.6562ZM73.1895 54.2402C74.4959 54.5597 76.2385 55.1217 77.0617 55.4895C77.885 55.8573 78.7937 56.158 79.0807 56.158C79.3681 56.158 79.6028 56.3691 79.6028 56.6271C79.6028 56.8851 79.8907 57.0962 80.2427 57.0962C80.5948 57.0962 81.3757 57.5184 81.9781 58.0344C82.5805 58.5504 82.8195 58.9726 82.5092 58.9726C81.7862 58.9726 82.4246 60.1505 84.0864 61.8839C84.7557 62.5824 85.3035 63.348 85.3035 63.5858C85.3035 63.8237 85.6241 64.2806 86.016 64.6019C87.0683 65.4641 86.8845 66.0093 85.541 66.0093C84.8878 66.0093 84.3534 65.8169 84.3534 65.5819C84.3534 64.9261 79.4973 60.3799 78.7966 60.3799C78.456 60.3799 78.1776 60.1918 78.1776 59.9615C78.1776 59.7316 77.5919 59.3981 76.876 59.2208C76.1601 59.0434 75.4346 58.6752 75.2641 58.4022C75.0931 58.1296 73.8304 57.7998 72.458 57.6694C69.5772 57.3959 69.4788 58.2577 72.3306 58.7859C73.2769 58.9614 74.6057 59.3901 75.2831 59.7396C75.9605 60.0886 76.6898 60.3752 76.9031 60.3771C77.5358 60.3818 80.6745 62.7851 82.3096 64.5161C84.7225 67.0708 80.9762 68.952 77.1805 67.0919C76.5534 66.7847 74.971 66.2921 73.6646 65.998C72.3582 65.7034 69.7929 65.125 67.9639 64.7122C62.3093 63.4362 45.9104 63.9302 42.3109 65.4848C41.7883 65.7104 40.2918 66.1153 38.9854 66.3845C34.2605 67.3579 31.8416 67.9481 30.9095 68.3557C30.387 68.5837 28.9974 68.9121 27.8216 69.0847C26.6459 69.2578 25.4701 69.5576 25.2088 69.7513C24.9476 69.9446 23.7822 70.2467 22.6198 70.4222C21.4568 70.5981 20.2811 70.9147 20.007 71.1258C18.7657 72.0828 15.4701 72.1551 15.4701 71.2253C15.4701 70.227 16.35 69.7621 18.2407 69.7617C19.5485 69.7612 25.5442 68.625 28.0592 67.9012C28.843 67.6751 31.0877 67.0366 33.0473 66.4821C35.0069 65.9276 36.9379 65.3042 37.3384 65.0973C37.7389 64.8904 38.8078 64.5644 39.7137 64.373C40.6196 64.1811 41.5745 63.8654 41.8358 63.6707C42.0971 63.4761 43.166 63.165 44.2111 62.9793C45.2562 62.7935 46.3251 62.4778 46.5864 62.278C50.6177 59.1917 74.6627 60.5704 76.895 64.0155C77.4408 64.8585 78.6836 64.7581 78.3496 63.8983C78.199 63.5112 77.7781 63.1946 77.4142 63.1946C77.0503 63.1946 76.7524 62.9985 76.7524 62.7583C76.7524 62.285 73.7354 60.8186 71.018 59.9709C68.99 59.3385 55.8471 59.2649 53.4747 59.8733C51.6951 60.3293 45.4719 60.9644 47.0538 60.5286C47.5721 60.3856 49.6029 59.7466 51.5668 59.1082C61.4195 55.906 71.4632 55.1531 75.5691 57.3091C78.0494 58.6114 78.7999 58.5528 77.5206 57.1567C75.4959 54.9477 61.8257 53.7744 59.487 55.6086C59.1849 55.8455 57.9273 56.1838 56.6922 56.3606C55.4575 56.537 54.3226 56.8804 54.1701 57.1234C54.0181 57.3664 53.4253 57.5667 52.8528 57.5681C52.2804 57.57 51.1996 57.8866 50.4514 58.2718C49.7027 58.6574 48.7407 58.974 48.3136 58.9754C47.8861 58.9773 46.9241 59.2939 46.1759 59.6791C45.4272 60.0647 44.4652 60.3813 44.0381 60.3827C43.6106 60.3846 42.7065 60.6713 42.0291 61.0203C41.3517 61.3698 39.9622 61.8093 38.9413 61.9979C37.9204 62.186 36.8715 62.505 36.6102 62.7063C36.3489 62.9075 35.28 63.2241 34.2349 63.4099C33.1898 63.5957 32.1209 63.9095 31.8596 64.1079C31.3931 64.4617 25.2359 65.5842 19.3894 66.3817C17.0915 66.6951 16.4203 66.6519 16.4203 66.1908C16.4203 65.2784 16.9019 65.1325 21.6934 64.5968C24.1423 64.3228 26.3523 63.895 26.6041 63.6463C26.8554 63.3982 27.4582 63.1946 27.9428 63.1946C28.4273 63.1946 29.8278 62.7607 31.0544 62.2306C32.281 61.7005 33.8192 61.0451 34.4724 60.774C35.1256 60.5028 36.3014 59.9939 37.0852 59.643C37.8691 59.2921 39.1004 58.8689 39.8211 58.7024C40.5422 58.5359 41.2495 58.2117 41.393 57.9823C41.5369 57.7529 42.1227 57.5639 42.6951 57.5625C43.2676 57.5606 44.3065 57.2655 45.0034 56.9067C45.7008 56.5473 47.1973 56.1026 48.3289 55.9182C49.4609 55.7339 50.6006 55.4191 50.8619 55.2188C51.1232 55.019 52.7265 54.7028 54.4248 54.5161C56.1231 54.3298 57.8333 53.9897 58.2252 53.7608C59.2176 53.1805 70.305 53.5361 73.1895 54.2402ZM35.7394 55.0635C35.565 55.2352 35.28 55.2352 35.1057 55.0635C34.9318 54.8914 35.0743 54.7506 35.4225 54.7506C35.7707 54.7506 35.9133 54.8914 35.7394 55.0635ZM105.968 56.134C102.878 56.8916 96.7519 60.6755 94.2331 63.3827C91.9628 65.8225 93.2545 65.4763 96.0369 62.8986C97.5181 61.5264 99.1832 60.2645 99.7366 60.0943C100.29 59.924 100.85 59.6547 100.98 59.4957C101.319 59.0847 104.159 57.8055 106.8 56.8752C110.019 55.7409 109.492 55.2709 105.968 56.134ZM117.527 56.8626C117.427 56.9611 115.855 57.1708 114.033 57.3289C110.932 57.5977 104.36 59.2292 103.831 59.8616C103.7 60.0178 102.804 60.5418 101.839 61.0259C99.7851 62.0561 96.7048 64.7328 96.7048 65.4862C96.7048 66.1889 97.911 66.1505 98.6901 65.4229C99.0349 65.1006 100.387 64.3481 101.693 63.7514C102.999 63.1547 104.397 62.4947 104.8 62.2845C105.202 62.0744 107.073 61.7493 108.957 61.5626C113.833 61.0789 113.419 60.1759 108.462 60.4864C104.789 60.7163 104.677 60.6966 106.681 60.1754C107.857 59.8695 109.139 59.4914 109.531 59.3352C110.279 59.0373 114.448 58.4693 118.082 58.1704C125.026 57.5995 127.605 57.5432 128.378 57.9443C128.866 58.1976 130.599 58.2586 132.334 58.0841L135.422 57.7736L132.809 57.388C130.041 56.9789 117.834 56.5595 117.527 56.8626ZM93.3794 58.6879C93.3794 58.7892 93.0478 58.9979 92.6421 59.1518C92.2193 59.3118 92.0288 59.233 92.1951 58.9674C92.474 58.5213 93.3794 58.3079 93.3794 58.6879ZM15.5091 64.1328C15.2545 66.0679 14.8122 68.8999 14.5267 70.4264C14.0612 72.9141 14.7462 75.3497 15.3908 73.5C15.4782 73.2504 16.654 73.0365 18.0037 73.0252C20.5932 73.0037 24.0549 72.5923 31.8596 71.3796C47.7365 68.9126 55.449 68.4946 70.5767 69.2818C84.4327 70.0023 83.9097 70.4405 69.0076 70.5953C62.1625 70.6661 54.1041 70.9316 51.0994 71.1845C48.0947 71.4378 42.109 71.8576 37.7978 72.1185C25.938 72.8353 19.1832 73.4601 17.6558 73.9822C16.8981 74.2412 15.6417 74.4532 14.863 74.4532H13.4473L13.7884 70.5915C13.9761 68.4674 14.3024 66.4094 14.5134 66.0177C14.7243 65.626 15.0706 63.8279 15.2829 62.0218C15.4948 60.2157 15.7372 59.1603 15.8208 59.6763C15.9044 60.1923 15.7642 62.1977 15.5091 64.1328ZM85.7638 62.0218C85.7638 62.2798 85.5567 62.1743 85.3035 61.7873C85.0503 61.4002 84.8432 60.8725 84.8432 60.6145C84.8432 60.3565 85.0503 60.462 85.3035 60.849C85.5567 61.2361 85.7638 61.7638 85.7638 62.0218ZM45.7451 61.6015C45.5873 61.7572 45.1774 61.7741 44.8349 61.6386C44.4558 61.4889 44.5683 61.3777 45.1217 61.3552C45.6225 61.335 45.9028 61.4458 45.7451 61.6015ZM104.652 61.6015C104.494 61.7572 104.084 61.7741 103.742 61.6386C103.363 61.4889 103.475 61.3777 104.029 61.3552C104.53 61.335 104.81 61.4458 104.652 61.6015ZM153.897 62.5271C154.04 62.8944 154.003 63.2096 153.816 63.2279C153.628 63.2462 151.871 63.4343 149.911 63.6463C147.952 63.8579 143.676 64.2712 140.41 64.5649C137.144 64.859 133.981 65.3037 133.381 65.5542C132.781 65.8043 131.177 66.0144 129.818 66.0205C128.458 66.0266 126.491 66.2593 125.446 66.5379C124.401 66.8161 121.087 67.235 118.082 67.4691C115.078 67.7027 112.248 68.1034 111.795 68.359C111.341 68.6147 109.951 68.8309 108.707 68.8394C106.365 68.8553 101.753 69.4366 98.2616 70.1562C97.1547 70.3846 96.3685 70.3889 96.5082 70.166C96.6474 69.9437 97.0459 69.7621 97.3946 69.7621C98.2179 69.7621 98.664 68.6006 98.0673 68.0114C97.6046 67.5545 101.619 65.5401 102.992 65.5401C103.349 65.5401 103.844 65.3441 104.092 65.1048C104.895 64.3298 113.416 63.7064 119.27 63.9944C126.874 64.3688 137.762 64.1947 140.41 63.6567C141.586 63.4179 143.937 62.9957 145.636 62.7194C147.334 62.4426 149.579 62.0551 150.624 61.8581C152.814 61.4453 153.534 61.5926 153.897 62.5271ZM50.6243 62.1588C50.6243 62.3629 52.9227 62.5899 55.7312 62.6636C67.5862 62.9741 73.1397 63.9832 78.2964 66.765C79.4028 67.3617 79.6028 67.3683 79.6028 66.8063C79.6028 66.4408 78.4836 65.5692 77.1159 64.8684C74.7748 63.6689 73.3772 63.2593 68.2014 62.2573C65.5245 61.7389 50.6243 61.655 50.6243 62.1588ZM102.722 62.1002C102.548 62.2719 102.263 62.2719 102.089 62.1002C101.915 61.928 102.057 61.7873 102.406 61.7873C102.754 61.7873 102.896 61.928 102.722 62.1002ZM87.103 64.1971C86.9842 64.5484 86.769 64.3355 86.6008 63.7012C86.3942 62.9211 86.456 62.7377 86.8085 63.0858C87.085 63.3588 87.217 63.8584 87.103 64.1971ZM38.5897 63.5075C38.4154 63.6792 38.1304 63.6792 37.956 63.5075C37.7822 63.3353 37.9246 63.1946 38.2729 63.1946C38.6211 63.1946 38.7636 63.3353 38.5897 63.5075ZM36.7189 64.4162C36.5612 64.5719 36.1512 64.5888 35.8087 64.4532C35.4296 64.3036 35.5422 64.1924 36.0957 64.1699C36.5964 64.1497 36.8767 64.2604 36.7189 64.4162ZM34.1162 64.9125C33.7898 65.0429 33.2553 65.0429 32.9285 64.9125C32.6021 64.7825 32.8691 64.676 33.5223 64.676C34.1755 64.676 34.443 64.7825 34.1162 64.9125ZM65.3511 65.5045C67.3107 65.7906 69.9829 66.3297 71.2893 66.7021C72.5957 67.0741 74.3059 67.4611 75.0898 67.562C75.8736 67.6629 69.7307 67.7769 61.4386 67.8153C53.1469 67.8543 45.451 68.0883 44.3365 68.3365C42.4648 68.7526 36.8758 69.5487 32.3347 70.0455L30.4344 70.2533L32.2971 69.5665C33.3218 69.1884 35.032 68.7352 36.0976 68.5593C37.1636 68.3839 38.1422 68.0973 38.2729 67.9227C38.5878 67.5024 43.478 66.5924 49.8585 65.7672C52.7031 65.3994 55.1616 64.9669 55.3217 64.806C55.6709 64.4551 60.4485 64.7877 65.3511 65.5045ZM116.504 64.9097C116.333 65.0785 115.389 65.3708 114.406 65.5594L112.619 65.9014L114.519 65.9501C117.066 66.0153 119.983 65.5134 119.983 65.0096C119.983 64.5377 116.968 64.4509 116.504 64.9097ZM123.189 64.9125C123.516 65.0429 124.051 65.0429 124.377 64.9125C124.704 64.7825 124.436 64.676 123.783 64.676C123.13 64.676 122.863 64.7825 123.189 64.9125ZM30.672 66.1007C29.4962 66.354 28.3309 66.7537 28.0829 66.9887C27.8344 67.2242 27.0601 67.4166 26.3613 67.4166C25.6625 67.4166 24.1818 67.7332 23.0711 68.1202C21.9604 68.5073 19.9091 68.8239 18.5134 68.8239C16.4521 68.8239 16.0264 68.6916 16.2483 68.1202C16.4397 67.6277 17.2555 67.4063 18.9652 67.3823C21.2811 67.35 23.4193 67.0521 28.2967 66.0824C29.4724 65.8488 30.9689 65.6537 31.6221 65.649C32.2753 65.6443 31.8477 65.8479 30.672 66.1007ZM105.256 66.7364C104.08 67.069 102.06 67.3579 100.767 67.379C99.1913 67.4039 98.5728 67.5723 98.8925 67.888C99.4383 68.427 108.041 67.3049 109.413 66.5159C110.625 65.8188 108.01 65.9576 105.256 66.7364ZM133.041 68.8122C130.954 69.8377 128.979 70.6821 128.652 70.6886C128.326 70.6952 128.059 70.8885 128.059 71.1188C128.059 71.3487 127.473 71.6822 126.757 71.8595C126.041 72.0368 125.346 72.3235 125.213 72.4966C124.63 73.2542 114.067 78.4749 112.163 78.9468C111.5 79.1115 110.957 79.4342 110.957 79.6641C110.957 79.8944 110.615 80.0825 110.197 80.0825C109.779 80.0825 108.764 80.3837 107.94 80.7524C103.643 82.6748 101.935 83.3663 101.482 83.3663C101.206 83.3663 100.98 83.5774 100.98 83.8354C100.98 84.0934 100.746 84.3045 100.458 84.3045C99.91 84.3045 97.5804 85.2432 94.8417 86.5675C93.1187 87.4007 88.2949 87.4762 86.8061 86.6932C86.3714 86.4643 84.5196 86.1406 82.6907 85.9736C80.8617 85.8066 78.5102 85.4698 77.465 85.2249C76.4199 84.9805 73.4271 84.563 70.8143 84.297C64.4841 83.6525 56.6766 82.6523 50.8619 81.7413C48.2491 81.3318 44.2942 80.774 42.0733 80.5019C39.8524 80.2294 37.2871 79.8072 36.3727 79.5632C35.4582 79.3193 33.1066 78.9313 31.147 78.7015C25.6245 78.0527 20.6031 77.2543 18.9993 76.7701C18.197 76.5281 16.9319 76.3297 16.1884 76.3297C15.445 76.3297 14.9784 76.1899 15.1518 76.0186C15.5281 75.6471 19.8701 75.1761 31.3846 74.2585C36.0876 73.8833 40.6838 73.4503 41.5983 73.2959C42.5128 73.1416 50.4225 72.7996 59.1754 72.536C67.9283 72.2728 76.352 71.9416 77.894 71.7999C80.1572 71.5931 80.781 71.6883 81.1244 72.2948C81.6964 73.3039 95.3044 73.4226 96.3148 72.4276C96.6597 72.0875 98.9733 71.5626 101.455 71.2609C103.938 70.9593 108.106 70.3973 110.719 70.0122C113.332 69.6266 117.5 69.0819 119.983 68.8014C122.465 68.5209 125.03 68.2042 125.683 68.0982C127.582 67.79 133.866 67.0915 135.417 67.0164C136.53 66.9625 136.016 67.3509 133.041 68.8122ZM93.6854 68.1709C97.5177 69.6162 95.1438 70.9025 87.8047 71.3562C83.5044 71.6221 83.4023 71.6039 82.6337 70.4456C81.752 69.1166 81.7087 69.2133 83.6408 68.2009C85.5467 67.2022 91.073 67.1858 93.6854 68.1709ZM139.603 69.7875C139.39 71.639 139.159 72.0059 137.865 72.543C137.044 72.884 135.786 73.4357 135.07 73.7697C134.355 74.1033 133.126 74.5161 132.339 74.6868C131.553 74.8571 130.909 75.1911 130.909 75.4285C130.909 75.6663 130.574 75.8606 130.166 75.8606C128.232 75.8606 123.23 78.754 123.944 79.4596C124.207 79.7194 127.842 78.4787 129.959 77.4063C130.612 77.0751 131.414 76.8035 131.74 76.8016C132.067 76.8002 132.334 76.5877 132.334 76.3297C132.334 76.0716 132.708 75.8535 133.165 75.8446C133.623 75.8357 134.852 75.421 135.897 74.9223C138.315 73.7693 139.46 73.7402 139.46 74.8313C139.46 75.7996 127.578 81.959 125.709 81.959C125.434 81.959 125.208 82.1532 125.208 82.391C125.208 82.6284 124.567 82.9619 123.783 83.1318C122.999 83.3016 122.358 83.6182 122.358 83.8354C122.358 84.0526 121.717 84.3693 120.933 84.5391C120.149 84.7089 119.508 85.0424 119.508 85.2798C119.508 85.5176 119.213 85.7118 118.853 85.7118C118.493 85.7118 117.933 86.0285 117.607 86.4155C116.81 87.3645 118.154 87.3828 119.909 86.4469C122.394 85.1226 128.469 82.4281 128.972 82.4281C129.253 82.4281 129.484 82.217 129.484 81.959C129.484 81.701 129.696 81.4899 129.954 81.4899C130.751 81.4899 135.184 79.4586 135.184 79.0937C135.184 78.9046 135.826 78.6105 136.61 78.4407C137.393 78.2708 138.035 77.9373 138.035 77.6999C138.035 75.7606 139.39 77.7248 139.656 80.0502C139.831 81.5799 140.164 82.8995 140.395 82.9821C141.955 83.5385 141.345 85.5359 139.367 86.3456C138.242 86.8063 136.444 87.5906 135.37 88.0893C134.296 88.5875 133.174 88.9956 132.876 88.9956C132.578 88.9956 132.334 89.2067 132.334 89.4647C132.334 89.7227 131.993 89.9338 131.576 89.9338C131.159 89.9338 130.251 90.2261 129.557 90.5836C128.863 90.941 127.361 91.6269 126.217 92.1082C124.151 92.9779 119.727 95.1522 103.831 103.113C94.0079 108.031 94.7196 107.892 94.8987 104.86L95.0422 102.43L98.13 100.843C107.554 95.999 109.61 94.6249 107.433 94.6249C107.02 94.6249 106.681 94.8191 106.681 95.057C106.681 95.2943 106.04 95.6279 105.256 95.7977C104.472 95.9675 103.831 96.2546 103.831 96.4357C103.831 96.6168 103.243 97.0118 102.524 97.3139C100.759 98.0565 97.1433 100.103 96.5338 100.705C95.0293 102.19 94.0735 100.335 93.6426 95.094C93.4835 93.159 93.1452 91.5053 92.8916 91.4195C91.6954 91.0147 92.8322 88.5265 94.2132 88.5265C94.7718 88.5265 96.14 87.9964 100.268 86.181C104.265 84.4227 105.746 83.8354 106.18 83.8354C106.455 83.8354 106.681 83.6243 106.681 83.3663C106.681 83.1083 106.907 82.8972 107.182 82.8972C107.458 82.8972 108.687 82.4633 109.914 81.9332C111.14 81.4031 112.572 80.7895 113.094 80.5695C115.552 79.5351 124.523 75.2183 124.733 74.9688C124.864 74.8144 125.719 74.3486 126.633 73.9334C127.548 73.5188 129.919 72.4107 131.902 71.4706C133.886 70.531 135.756 69.7621 136.059 69.7621C136.362 69.7621 136.61 69.5679 136.61 69.3301C136.61 69.0927 137.251 68.7592 138.035 68.5893C138.819 68.4195 139.46 68.0508 139.46 67.7703C139.46 67.4898 139.547 67.3481 139.654 67.4555C139.761 67.5634 139.738 68.6123 139.603 69.7875ZM29.8497 70.539C29.5281 70.6675 28.8867 70.6755 28.4245 70.5563C27.9623 70.4372 28.2254 70.3321 29.0093 70.3227C29.7931 70.3133 30.1713 70.4104 29.8497 70.539ZM95.5965 71.4824C95.4222 71.6541 95.2797 71.5133 95.2797 71.1695C95.2797 70.8256 95.4222 70.6849 95.5965 70.8566C95.7704 71.0287 95.7704 71.3102 95.5965 71.4824ZM15.0046 98.3778C15.2606 98.3778 15.4991 97.7971 15.5348 97.0878C15.5984 95.8198 15.6032 95.8179 15.8203 96.9705C15.9419 97.6155 16.2868 98.2985 16.587 98.488C16.8996 98.6851 16.6055 98.8356 15.8991 98.8399C14.6416 98.8469 12.6198 97.479 12.6198 96.621C12.6198 96.3606 12.3163 95.8986 11.9457 95.5946C9.34908 93.4667 10.493 81.1183 13.5039 78.7718C14.2193 78.2141 14.293 78.9815 14.4108 88.2713C14.4892 94.4762 14.7186 98.3778 15.0046 98.3778ZM24.9713 79.8939C27.4535 80.2871 31.0877 80.8176 33.0473 81.0728C35.0069 81.3285 37.2515 81.7254 38.0354 81.9557C38.8192 82.186 41.0639 82.5027 43.0235 82.6594C44.9831 82.8165 47.4415 83.1449 48.4866 83.3902C49.5317 83.6356 52.3108 84.0503 54.6623 84.312C61.7877 85.1053 69.333 86.105 70.3392 86.3888C70.8617 86.5365 73.3202 86.8677 75.8024 87.1257C89.5358 88.5514 91.4787 89.0083 91.4797 90.812C91.4797 91.7108 87.2759 91.6817 85.4232 90.7707C84.2023 90.1703 83.7316 90.4175 84.132 91.4486C84.3933 92.1208 87.1862 92.7485 89.9168 92.7485C91.2845 92.7485 92.4293 93.7486 92.4298 94.9435C92.4298 95.8516 84.2921 95.9839 83.1657 95.094C82.4018 94.4903 75.3273 93.9719 75.3273 94.5199C75.3273 95.1419 76.494 95.5631 78.2166 95.5631C78.979 95.5631 79.6028 95.7499 79.6028 95.9783C79.6028 96.2068 80.9629 96.2856 82.6256 96.1538C84.5994 95.9971 85.7633 96.0975 85.979 96.4423C86.1676 96.7434 87.598 96.9705 89.3073 96.9705H92.3049L92.5994 98.7296C92.7614 99.6974 92.8963 102.283 92.8996 104.476L92.9049 108.464L90.4108 108.298C89.0388 108.207 87.7025 107.965 87.4412 107.759C87.1799 107.553 85.256 107.232 83.1657 107.046C81.0755 106.86 79.1515 106.575 78.8902 106.413C78.4398 106.133 76.5325 105.884 62.5007 104.266C59.2347 103.89 53.9973 103.251 50.8619 102.847C47.7265 102.442 42.8097 101.894 39.9356 101.628C37.0615 101.362 34.0686 100.959 33.2848 100.731C32.5009 100.504 30.4135 100.174 28.6463 99.9962C26.8791 99.8194 25.3299 99.5098 25.204 99.3085C25.0781 99.1073 23.4886 98.7953 21.6725 98.6152C18.9252 98.3426 18.2459 98.1006 17.6326 97.1764C16.4939 95.4604 16.7182 95.2329 19.1519 95.6349C26.3333 96.8218 29.7936 97.4063 32.3347 97.8618C33.9024 98.1423 36.2429 98.3736 37.5365 98.375C41.2956 98.3792 39.4904 97.487 34.6786 96.9616C30.8192 96.5408 27.0739 95.9366 20.4582 94.6676C19.1518 94.4166 17.816 94.199 17.4891 94.184C17.0777 94.1643 16.8953 93.2185 16.8953 91.1066C16.8953 87.4255 16.5756 87.4659 28.0592 89.6894C30.1494 90.0943 33.4629 90.6464 35.4225 90.9166C37.3821 91.1868 39.6268 91.5973 40.4106 91.8286C42.8885 92.5599 51.0994 92.9596 51.0994 92.3488C51.0994 92.0523 50.8324 91.7971 50.5056 91.7807C47.3579 91.6245 37.1674 90.1562 29.4844 88.7526C27.1328 88.3234 23.4526 87.7403 21.3063 87.4574C16.9277 86.8799 16.8136 86.7659 17.2222 83.3593L17.5082 80.9771L20.8834 81.2666C22.7399 81.4261 24.6863 81.7451 25.2088 81.9759C25.7314 82.2067 27.7622 82.6078 29.7218 82.8672C35.6344 83.6501 40.184 84.3003 44.6861 85.0063C52.9079 86.2959 52.9592 86.2996 51.4903 85.4848C50.259 84.8018 48.5146 84.4565 39.4605 83.1041C37.109 82.7527 33.3679 82.126 31.147 81.7113C28.9261 81.2966 25.0958 80.7069 22.6355 80.4015C19.6331 80.0286 18.0892 79.6317 17.9414 79.194C17.7728 78.694 18.0393 78.6161 19.0896 78.8605C19.8426 79.0355 22.4891 79.5004 24.9713 79.8939ZM145.03 86.4901C145.129 86.7889 144.558 87.1755 143.761 87.3481C142.963 87.5212 142.31 87.8402 142.31 88.0574C142.31 88.2746 141.669 88.5912 140.885 88.7611C140.101 88.9309 139.46 89.2414 139.46 89.4511C139.46 89.6608 138.874 89.9775 138.158 90.1548C137.442 90.3321 136.748 90.6192 136.614 90.7923C136.247 91.2694 129.239 94.6249 128.609 94.6249C128.306 94.6249 128.059 94.836 128.059 95.094C128.059 95.3521 127.824 95.5631 127.536 95.5631C127.25 95.5631 126.234 95.8953 125.28 96.3015C124.326 96.7078 122.904 97.3111 122.12 97.6423C121.337 97.9734 119.71 98.6968 118.505 99.2494C117.301 99.802 116.072 100.254 115.774 100.254C115.476 100.254 115.232 100.442 115.232 100.673C115.232 100.903 114.646 101.236 113.93 101.413C113.215 101.591 112.52 101.878 112.386 102.052C112.014 102.539 96.4621 110.106 95.8336 110.106C95.5291 110.106 95.2797 110.336 95.2797 110.618C95.2797 111.154 94.3557 111.098 85.6598 110.03C83.1125 109.717 81.028 109.29 81.028 109.08C81.028 108.87 79.9059 108.68 78.5339 108.659C77.1619 108.637 74.8641 108.437 73.4271 108.214C70.9002 107.823 66.8656 107.244 55.3749 105.623C52.3702 105.199 47.8809 104.565 45.3987 104.215L40.8857 103.578L46.1113 103.819C48.9854 103.951 51.9783 104.261 52.7621 104.507C53.5459 104.753 56.5388 105.168 59.4129 105.429C68.5283 106.259 75.0736 107.046 75.5815 107.373C75.8518 107.548 77.4551 107.842 79.1444 108.027C80.8337 108.213 82.3349 108.544 82.4807 108.765C83.3401 110.064 94.2108 109.788 96.5381 108.409C97.8056 107.657 101.835 105.582 105.493 103.799C109.151 102.015 112.251 100.41 112.382 100.234C112.512 100.056 113.154 99.749 113.807 99.5506C114.46 99.3521 115.101 99.0594 115.232 98.9004C115.605 98.4468 119.788 96.5014 120.391 96.5014C120.689 96.5014 120.933 96.3072 120.933 96.0693C120.933 95.832 121.574 95.4984 122.358 95.3286C123.142 95.1588 123.783 94.8421 123.783 94.6249C123.783 94.4077 124.424 94.0911 125.208 93.9213C125.992 93.7514 126.633 93.4179 126.633 93.1805C126.633 92.9427 127.02 92.7485 127.493 92.7485C127.965 92.7485 128.767 92.4384 129.274 92.0598C129.781 91.6808 130.517 91.3571 130.909 91.3402C131.301 91.3233 132.477 90.9016 133.522 90.4029C134.567 89.9043 135.689 89.4896 136.016 89.4807C136.343 89.4718 136.61 89.2973 136.61 89.0927C136.61 88.8882 137.789 88.3248 139.23 87.8411C140.672 87.357 142.097 86.6698 142.396 86.3137C143.022 85.5688 144.762 85.6851 145.03 86.4901ZM149.199 89.727C155.743 90.6914 157.525 91.1634 156.206 91.5813C155.03 91.9533 154.804 92.5698 155.731 92.8761C156.057 92.984 155.738 92.983 155.022 92.8737C154.306 92.7649 153.079 92.9915 152.296 93.3776C151.512 93.7636 150.23 94.2182 149.447 94.388C148.663 94.5583 147.9 94.8919 147.751 95.1302C147.602 95.3685 147.118 95.5702 146.677 95.5791C146.235 95.588 145.018 96.0027 143.973 96.5014C142.928 97 141.897 97.4147 141.683 97.4236C141.087 97.448 139.944 98.7001 140.246 98.998C140.393 99.1424 140.864 99.0768 141.293 98.8521C141.722 98.6269 143.355 97.9631 144.923 97.3763C146.491 96.7894 147.987 96.1603 148.249 95.9783C148.51 95.7963 149.579 95.5223 150.624 95.3699C151.669 95.2174 152.203 95.2207 151.811 95.3779C146.767 97.395 132.677 104.412 132.413 105.039C132.326 105.245 132.047 105.414 131.794 105.414C131.539 105.414 130.328 105.848 129.101 106.378C127.875 106.909 126.443 107.513 125.921 107.722C124.128 108.438 120.22 110.165 119.395 110.604C118.942 110.846 118.3 111.051 117.97 111.06C117.64 111.069 116.515 111.483 115.47 111.982C114.424 112.481 113.302 112.895 112.976 112.904C112.649 112.913 112.382 113.131 112.382 113.389C112.382 113.647 112.147 113.858 111.86 113.858C111.359 113.858 109.482 114.596 106.444 115.988C105.66 116.347 104.431 116.776 103.712 116.942C102.993 117.108 102.406 117.432 102.406 117.662C102.406 118.216 97.4977 118.203 96.9186 117.647C96.6706 117.409 94.864 116.99 92.9044 116.716C90.9448 116.443 87.3106 115.895 84.8284 115.499C82.3463 115.104 78.0707 114.478 75.3273 114.108C72.5838 113.739 69.9117 113.319 69.3891 113.175C68.8665 113.031 66.7287 112.702 64.6385 112.443C60.9991 111.992 57.2509 111.388 48.9616 109.915C46.8714 109.543 43.6647 109.005 41.8358 108.718C40.0068 108.431 37.5484 107.989 36.3727 107.735C35.1969 107.481 32.8453 107.081 31.147 106.846C26.2216 106.163 13.6084 103.844 11.7937 103.288C10.7984 102.983 10.8441 102.904 12.5063 102.052C14.4122 101.075 14.7205 101.086 21.6459 102.373C23.8668 102.786 27.1803 103.329 29.0093 103.579C30.8382 103.829 33.2967 104.24 34.4724 104.493C35.6482 104.746 38.5342 105.179 40.8857 105.456C43.2372 105.733 47.4059 106.257 50.1493 106.621C52.8928 106.984 57.0614 107.508 59.4129 107.784C61.7645 108.061 64.4366 108.488 65.3511 108.734C66.2656 108.98 68.8309 109.385 71.0518 109.632C75.4104 110.119 82.1419 111.088 87.4098 111.989C91.1761 112.632 96.3224 112.411 96.5984 111.594C96.7006 111.291 97.1072 111.044 97.5024 111.044C97.8977 111.044 98.7884 110.753 99.482 110.398C103.571 108.304 110.883 104.945 111.354 104.945C111.658 104.945 111.907 104.734 111.907 104.476C111.907 104.218 112.156 104.007 112.46 104.007C113.089 104.007 122.942 99.2504 123.313 98.7676C123.446 98.5941 124.141 98.307 124.857 98.1297C125.573 97.9523 126.158 97.6418 126.158 97.4396C126.158 97.2374 126.744 96.9268 127.46 96.7495C128.176 96.5722 128.87 96.2846 129.004 96.1111C129.137 95.937 132.183 94.3543 135.773 92.5937C139.363 90.8331 142.433 89.179 142.596 88.9187C142.759 88.6579 143.349 88.5912 143.908 88.7709C144.466 88.9501 146.847 89.3803 149.199 89.727ZM160.006 91.6517C159.68 91.7821 159.145 91.7821 158.819 91.6517C158.492 91.5218 158.759 91.4153 159.412 91.4153C160.066 91.4153 160.333 91.5218 160.006 91.6517ZM158.333 92.5627C158.176 92.7185 157.766 92.7354 157.423 92.5998C157.044 92.4501 157.157 92.339 157.71 92.3164C158.211 92.2963 158.491 92.407 158.333 92.5627ZM154.424 94.1558C153.902 94.3777 153.153 94.5588 152.762 94.5588C152.313 94.5588 152.4 94.4101 152.999 94.1558C153.522 93.9339 154.27 93.7529 154.662 93.7529C155.111 93.7529 155.023 93.9016 154.424 94.1558ZM159.038 95.4914C158.661 95.7278 158.319 97.3866 158.145 99.8236L157.862 103.773L155.569 104.828C154.308 105.409 153.053 105.884 152.781 105.884C152.509 105.884 152.286 106.078 152.286 106.316C152.286 106.553 151.645 106.887 150.861 107.056C150.077 107.226 149.436 107.526 149.436 107.723C149.436 107.919 148.59 108.331 147.556 108.637C146.522 108.943 145.533 109.421 145.359 109.699C144.765 110.648 148.137 109.613 152.567 107.487C157.713 105.017 157.819 105.006 158.098 106.885C158.268 108.029 158.122 108.405 157.439 108.581C156.957 108.706 156.562 108.994 156.562 109.222C156.562 109.45 156.336 109.636 156.061 109.636C155.573 109.636 151.832 111.15 150.371 111.939C149.97 112.155 148.955 112.481 148.114 112.663C147.274 112.846 146.586 113.189 146.586 113.426C146.586 113.664 146.245 113.858 145.828 113.858C145.411 113.858 144.502 114.149 143.809 114.504C143.115 114.859 141.556 115.601 140.344 116.153C137.845 117.29 136.764 118.299 137.536 118.77C137.811 118.937 138.035 118.867 138.035 118.614C138.035 118.362 138.676 118.016 139.46 117.846C140.244 117.676 140.885 117.359 140.885 117.142C140.885 116.925 141.526 116.608 142.31 116.439C143.094 116.269 143.735 115.935 143.735 115.698C143.735 115.46 144.109 115.264 144.567 115.263C145.024 115.261 145.972 114.965 146.673 114.603C147.373 114.242 148.603 113.804 149.404 113.631C150.206 113.457 150.861 113.121 150.861 112.883C150.861 112.645 151.185 112.451 151.581 112.451C151.976 112.451 153.619 111.83 155.231 111.072C158.396 109.584 159.36 109.851 159.397 112.229C159.406 112.753 159.745 113.65 160.152 114.224C161.081 115.533 160.847 115.898 158.341 117.049C157.232 117.559 154.685 118.739 152.68 119.67C150.676 120.602 148.805 121.364 148.523 121.364C148.241 121.364 148.011 121.575 148.011 121.833C148.011 122.091 147.669 122.302 147.251 122.302C146.834 122.302 145.818 122.604 144.995 122.972C140.698 124.895 138.989 125.586 138.536 125.586C138.26 125.586 138.035 125.78 138.035 126.018C138.035 126.256 137.393 126.589 136.61 126.759C135.826 126.929 135.184 127.262 135.184 127.5C135.184 127.738 134.862 127.932 134.469 127.932C133.728 127.932 124.207 132.591 123.778 133.163C123.645 133.341 122.95 133.632 122.234 133.809C121.518 133.987 120.933 134.303 120.933 134.513C120.933 134.723 120.291 135.033 119.508 135.203C118.724 135.373 118.082 135.689 118.082 135.907C118.082 136.124 117.441 136.44 116.657 136.61C115.873 136.78 115.232 137.097 115.232 137.314C115.232 137.531 114.591 137.848 113.807 138.018C113.023 138.187 112.382 138.504 112.382 138.721C112.382 138.938 111.74 139.255 110.957 139.425C110.173 139.595 109.531 139.911 109.531 140.129C109.531 140.346 108.89 140.662 108.106 140.832C107.322 141.002 106.681 141.319 106.681 141.536C106.681 141.753 106.04 142.07 105.256 142.24C104.472 142.409 103.831 142.743 103.831 142.98C103.831 143.218 103.51 143.412 103.118 143.412C102.526 143.412 102.406 142.499 102.406 138.008V132.603L103.712 132.036C104.431 131.724 105.125 131.359 105.256 131.224C105.693 130.775 109.866 128.87 110.415 128.87C110.713 128.87 110.957 128.685 110.957 128.459C110.957 128.234 111.544 127.926 112.263 127.775C113.909 127.43 116.797 125.159 115.622 125.134C115.184 125.125 114.504 125.434 114.112 125.821C113.72 126.208 113.15 126.524 112.845 126.524C112.54 126.524 111.723 126.815 111.03 127.17C110.336 127.525 108.807 128.277 107.631 128.842C106.455 129.407 104.798 130.297 103.949 130.82L102.406 131.771V130.32C102.406 129.344 102.638 128.87 103.118 128.87C103.51 128.87 103.831 128.682 103.831 128.451C103.831 128.222 104.416 127.888 105.132 127.711C105.848 127.533 106.543 127.241 106.676 127.062C107.043 126.568 113.986 123.241 114.651 123.241C114.971 123.241 115.232 123.03 115.232 122.772C115.232 122.514 115.606 122.3 116.063 122.297C116.521 122.294 118.059 121.714 119.481 121.007C122.059 119.727 123.115 118.55 121.685 118.55C121.271 118.55 120.933 118.744 120.933 118.982C120.933 119.219 120.291 119.552 119.508 119.722C118.724 119.892 118.082 120.226 118.082 120.463C118.082 120.701 117.741 120.895 117.323 120.895C115.812 120.895 105.707 125.73 103.586 127.468C102.673 128.216 102.622 128.155 102.029 125.586C101.76 124.425 101.326 122.8 101.063 121.974C100.59 120.488 100.607 120.465 102.802 119.668C104.021 119.226 105.222 118.687 105.47 118.472C105.718 118.257 106.252 118.073 106.657 118.064C107.062 118.056 108.249 117.641 109.294 117.142C110.339 116.644 111.462 116.229 111.788 116.22C112.115 116.211 112.382 115.993 112.382 115.735C112.382 115.477 112.723 115.266 113.14 115.266C113.557 115.266 114.465 114.981 115.159 114.633C117.868 113.275 119.8 112.471 121.052 112.182C121.77 112.016 122.358 111.692 122.358 111.462C122.358 111.232 122.593 111.044 122.88 111.044C123.167 111.044 124.183 110.712 125.136 110.305C126.09 109.899 127.512 109.296 128.296 108.964C131.954 107.418 140.189 103.325 140.331 102.983C140.418 102.772 140.739 102.593 141.043 102.584C141.348 102.575 142.453 102.16 143.498 101.662C144.543 101.163 145.666 100.748 145.992 100.739C146.319 100.73 146.586 100.512 146.586 100.254C146.586 99.9962 146.82 99.7851 147.108 99.7851C147.639 99.7851 148.436 99.4539 153.474 97.137C157.388 95.3375 160.98 94.275 159.038 95.4914ZM18.6374 99.6289C18.463 99.8006 18.178 99.8006 18.0037 99.6289C17.8298 99.4568 17.9723 99.316 18.3205 99.316C18.6687 99.316 18.8112 99.4568 18.6374 99.6289ZM22.2487 100.093C21.9271 100.221 21.2858 100.229 20.8236 100.11C20.3613 99.9911 20.6245 99.886 21.4084 99.8766C22.1922 99.8672 22.5704 99.9643 22.2487 100.093ZM25.5742 101.031C25.2526 101.16 24.6112 101.168 24.149 101.048C23.6868 100.929 23.9499 100.824 24.7337 100.815C25.5176 100.805 25.8958 100.903 25.5742 101.031ZM29.1281 101.516C28.6706 101.634 27.9228 101.634 27.4653 101.516C27.0079 101.398 27.3822 101.301 28.2967 101.301C29.2111 101.301 29.5855 101.398 29.1281 101.516ZM34.1228 102.461C33.5385 102.572 32.4696 102.575 31.7475 102.467C31.0254 102.36 31.5033 102.269 32.8097 102.265C34.1161 102.262 34.7071 102.35 34.1228 102.461ZM39.8168 102.939C38.9679 103.043 37.5779 103.043 36.7289 102.939C35.88 102.835 36.5745 102.75 38.2729 102.75C39.9712 102.75 40.6658 102.835 39.8168 102.939ZM7.33573 112.803C7.3039 116.867 7.14381 122.405 6.97944 125.109L6.6816 130.027L5.3752 128.633C4.65644 127.865 4.06739 127.024 4.06596 126.764C4.06406 126.503 3.71014 125.657 3.27879 124.882C1.63557 121.933 2.77284 108.254 4.66262 108.233C4.85834 108.231 5.01891 107.982 5.01891 107.68C5.01891 107.025 6.42224 105.414 6.99279 105.414C7.21369 105.414 7.36803 108.739 7.33573 112.803ZM9.61127 106.196C9.43692 106.368 9.29442 106.227 9.29442 105.884C9.29442 105.54 9.43692 105.399 9.61127 105.571C9.78514 105.743 9.78514 106.024 9.61127 106.196ZM16.4203 106.824C18.1186 107.07 21.2183 107.58 23.3086 107.958C37.7759 110.577 45.5603 111.849 56.5626 113.392C58.6528 113.685 61.0043 114.112 61.7882 114.339C62.572 114.567 64.9236 114.897 67.0138 115.072C69.104 115.247 71.028 115.55 71.2893 115.745C71.5506 115.94 73.3677 116.243 75.3273 116.419C77.2869 116.594 79.5315 116.929 80.3154 117.163C81.0992 117.397 83.5577 117.799 85.7786 118.057C90.5244 118.608 97.0013 119.687 98.407 120.16C100.477 120.859 101.447 128.068 101.097 140.155L100.98 144.169L97.0611 143.56C94.9058 143.226 91.5386 142.719 89.579 142.436C87.6194 142.152 85.6764 141.747 85.2612 141.536C84.846 141.326 83.2427 141.013 81.6983 140.843C80.1539 140.672 78.3558 140.34 77.7026 140.106C77.0494 139.871 74.591 139.461 72.2394 139.193C65.6628 138.445 57.7687 137.377 55.1374 136.88C53.831 136.634 51.6524 136.419 50.2961 136.404C48.9398 136.388 47.7175 136.196 47.5792 135.975C47.4415 135.755 45.6348 135.435 43.5645 135.265C41.4942 135.095 39.1898 134.752 38.443 134.504C37.6962 134.256 35.0543 133.849 32.5722 133.599C26.6629 133.005 22.083 132.24 21.0683 131.678C20.6198 131.43 19.0165 131.096 17.5053 130.935C12.7035 130.425 11.016 129.671 10.6426 127.867C10.2236 125.845 9.16948 125.865 18.558 127.715C20.6483 128.126 23.9618 128.739 25.9214 129.076C27.881 129.413 29.805 129.805 30.1969 129.947C32.1931 130.667 36.8477 130.783 36.8477 130.111C36.8477 129.643 36.1403 129.357 34.5912 129.198C32.1209 128.945 25.9205 127.905 19.9832 126.747C17.8929 126.34 14.8611 125.785 13.2459 125.514C11.6312 125.244 10.2217 124.78 10.1139 124.484C9.82648 123.692 10.9163 116.554 11.2707 116.904C11.4365 117.069 13.2511 117.498 15.3024 117.859C17.3542 118.22 20.5295 118.833 22.3585 119.22C24.1875 119.608 26.9665 120.155 28.5342 120.437C30.1019 120.719 32.0259 121.142 32.8097 121.376C33.5936 121.611 35.5175 121.926 37.0852 122.076C38.6529 122.226 40.6838 122.558 41.5983 122.813C44.622 123.656 51.0994 124.063 51.0994 123.41C51.0994 123.078 50.2353 122.724 49.0804 122.583C47.9698 122.448 46.3132 122.213 45.3987 122.061C44.4842 121.91 41.8121 121.488 39.4605 121.124C34.4729 120.353 29.0335 119.355 24.0212 118.292C22.0615 117.876 18.8549 117.246 16.8953 116.892C10.1742 115.677 10.7186 116.063 10.7267 112.513C10.7362 108.456 11.1186 107.845 13.1875 108.58C14.0511 108.886 16.0402 109.266 17.6079 109.423C19.1756 109.581 20.8858 109.899 21.4084 110.129C21.9309 110.361 23.748 110.763 25.4463 111.023C27.1447 111.283 30.3513 111.83 32.5722 112.238C34.7931 112.646 38.5342 113.265 40.8857 113.614C43.2372 113.964 46.0163 114.454 47.0614 114.705C50.1488 115.445 52.5246 115.703 52.5246 115.297C52.5246 115.089 51.5089 114.667 50.2681 114.359C49.0272 114.051 47.2633 113.592 46.3488 113.34C45.4344 113.088 43.2966 112.688 41.5983 112.452C38.7166 112.05 34.8064 111.372 27.3466 109.978C25.6483 109.661 24.045 109.264 23.7837 109.096C23.5224 108.929 22.0259 108.648 20.4582 108.474C18.8905 108.299 16.9666 107.979 16.1827 107.762C15.3989 107.547 13.9561 107.237 12.9761 107.075C11.9965 106.912 11.1946 106.574 11.1946 106.323C11.1946 106.071 11.6759 105.981 12.2635 106.122C12.8512 106.263 14.7219 106.579 16.4203 106.824ZM163.598 117.546C164.303 117.988 162.919 119.078 160.837 119.718C160.184 119.919 159.543 120.214 159.412 120.374C159.019 120.854 143.462 128.401 142.864 128.401C142.56 128.401 142.31 128.612 142.31 128.87C142.31 129.128 141.978 129.339 141.572 129.339C141.165 129.339 139.829 129.773 138.602 130.303C137.376 130.833 135.945 131.448 135.422 131.669C134.899 131.891 132.975 132.736 131.146 133.548C127.971 134.959 125.935 135.949 115.707 141.063C109.159 144.336 105.199 146.125 103.712 146.484C102.993 146.656 102.406 146.999 102.406 147.244C102.406 147.489 102.139 147.524 101.812 147.321C101.485 147.118 99.2939 146.687 96.9424 146.362C94.5908 146.037 90.6901 145.446 88.274 145.049C85.8579 144.652 81.9572 144.01 79.6056 143.623C68.896 141.861 66.295 141.439 62.7383 140.888C60.648 140.564 58.5859 140.141 58.1555 139.948C57.7251 139.755 57.0837 139.646 56.7303 139.707C55.5327 139.915 42.8553 137.921 41.3607 137.29C40.8382 137.07 38.4866 136.666 36.1351 136.393C33.7836 136.119 30.0425 135.592 27.8216 135.222L23.7837 134.549L28.2967 134.812C30.7788 134.957 33.1304 135.238 33.5223 135.437C33.9142 135.636 36.052 135.939 38.2729 136.11C42.1811 136.41 47.1792 137.08 56.0875 138.496C62.5934 139.53 63.2946 139.633 68.914 140.368C75.6817 141.253 81.5534 142.219 82.4531 142.597C83.1348 142.882 85.1591 143.255 91.9543 144.345C93.6526 144.617 95.9538 145.047 97.0678 145.299C99.598 145.872 102.406 145.893 102.406 145.339C102.406 145.11 102.991 144.776 103.707 144.599C104.423 144.421 105.118 144.134 105.251 143.961C105.608 143.497 109.784 141.536 110.415 141.536C110.713 141.536 110.957 141.342 110.957 141.104C110.957 140.866 111.598 140.533 112.382 140.363C113.166 140.193 113.807 139.877 113.807 139.659C113.807 139.442 114.448 139.126 115.232 138.956C116.016 138.786 116.657 138.469 116.657 138.252C116.657 138.035 117.299 137.718 118.082 137.548C118.866 137.379 119.508 137.062 119.508 136.845C119.508 136.628 120.149 136.311 120.933 136.141C121.717 135.971 122.358 135.655 122.358 135.437C122.358 135.22 122.999 134.904 123.783 134.734C124.567 134.564 125.213 134.283 125.218 134.11C125.223 133.937 126.395 133.268 127.821 132.623C129.247 131.978 130.419 131.292 130.424 131.098C130.43 130.904 130.679 130.746 130.978 130.746C131.277 130.746 133.078 130.008 134.979 129.104C136.88 128.201 138.666 127.463 138.948 127.463C139.23 127.463 139.46 127.252 139.46 126.993C139.46 126.735 139.686 126.524 139.961 126.524C140.395 126.524 141.876 125.937 145.873 124.179C146.396 123.949 147.892 123.316 149.199 122.772C150.505 122.227 152.001 121.594 152.524 121.364C156.521 119.606 158.002 119.019 158.436 119.019C158.712 119.019 158.937 118.845 158.937 118.632C158.937 118.328 160.776 117.639 162.738 117.209C162.868 117.18 163.255 117.332 163.598 117.546ZM9.39469 129.691C9.68923 130.272 10.3571 130.746 10.8792 130.746C11.4008 130.746 11.7205 130.852 11.5889 130.982C11.4573 131.112 10.3215 131.079 9.06494 130.909C7.13146 130.647 6.90014 130.513 7.56189 130.035C7.99229 129.724 8.37328 128.755 8.40891 127.88C8.45927 126.644 8.51674 126.552 8.66639 127.463C8.77232 128.108 9.10016 129.11 9.39469 129.691ZM14.1728 131.992C13.8512 132.121 13.2098 132.129 12.7476 132.01C12.2854 131.891 12.5485 131.785 13.3324 131.776C14.1162 131.767 14.4944 131.864 14.1728 131.992ZM17.7323 132.476C17.2782 132.593 16.4231 132.597 15.8321 132.485C15.2412 132.373 15.6127 132.277 16.6578 132.272C17.7029 132.267 18.1865 132.359 17.7323 132.476ZM22.3585 133.534C24.8597 134.045 22.6126 134.089 19.7456 133.585C18.1428 133.303 17.9642 133.201 19.0331 133.178C19.8169 133.16 21.3134 133.321 22.3585 133.534Z" fill="#3E5BF1"/>
</svg>
