<svg width="34" height="34" viewBox="0 0 34 34" fill="none" xmlns="http://www.w3.org/2000/svg">
<path fill-rule="evenodd" clip-rule="evenodd" d="M18.4995 4.25C16.4567 4.25 14.8608 5.88652 14.7577 7.83882C14.7129 8.68554 14.6398 9.58958 14.5244 10.2964C14.4822 10.5555 14.3423 10.9421 14.0881 11.4329C13.8427 11.9065 13.5309 12.4012 13.2137 12.8606C12.8986 13.3171 12.5905 13.7208 12.3608 14.0108C12.3232 14.0583 12.2878 14.1026 12.255 14.1434L10.2263 14.7333C9.75117 14.3775 9.16061 14.1667 8.52066 14.1667H5.6783C4.10851 14.1667 2.83594 15.4352 2.83594 17V26.9167C2.83594 28.4815 4.10851 29.75 5.6783 29.75H8.52066C9.38831 29.75 10.1652 29.3625 10.6865 28.7516L10.6872 28.7519C12.0425 29.4087 13.5298 29.75 15.0368 29.75H25.8349C27.9511 29.75 29.747 28.2028 30.0535 26.1156L31.1235 18.8299C31.5002 16.265 29.5054 13.9643 26.9049 13.9643H23.689V9.42303C23.689 6.56604 21.3656 4.25 18.4995 4.25ZM11.363 25.929L11.9299 26.2037C12.898 26.6729 13.9604 26.9167 15.0368 26.9167H25.8349C26.5403 26.9167 27.1389 26.4009 27.2411 25.7052L28.3111 18.4195C28.4366 17.5645 27.7717 16.7976 26.9049 16.7976H22.2678C21.4829 16.7976 20.8467 16.1634 20.8467 15.381V9.42303C20.8467 8.13085 19.7958 7.08333 18.4995 7.08333C18.0493 7.08333 17.624 7.45845 17.5961 7.98776C17.5497 8.8663 17.4702 9.89149 17.3299 10.7513C17.2175 11.4405 16.9232 12.1352 16.6135 12.7331C16.2949 13.348 15.9127 13.949 15.5552 14.4668C15.1957 14.9875 14.8485 15.4424 14.5916 15.7667C14.4627 15.9294 14.3555 16.0606 14.2794 16.1524C14.2414 16.1983 14.2111 16.2344 14.1896 16.2597L14.1643 16.2896L14.157 16.2982L14.1546 16.3009L14.1538 16.3019L14.1535 16.3022C14.1534 16.3024 14.1533 16.3025 13.0739 15.381L14.1533 16.3025C13.9737 16.5115 13.7369 16.6639 13.4719 16.7409L11.363 17.3541V25.929ZM8.52066 17H5.6783V19.8333V24.0833V26.9167H8.52066V26.8155V24.0833V19.8333V17Z" fill="#3E5BF1"/>
</svg>
