<svg width="34" height="34" viewBox="0 0 34 34" fill="none" xmlns="http://www.w3.org/2000/svg">
<path fill-rule="evenodd" clip-rule="evenodd" d="M17.0026 31.1668C9.17857 31.1668 2.83594 24.8242 2.83594 17.0002C2.83594 9.17613 9.17857 2.8335 17.0026 2.8335C24.8266 2.8335 31.1693 9.17613 31.1693 17.0002C31.1693 24.8242 24.8266 31.1668 17.0026 31.1668ZM17.0026 5.66683C10.7434 5.66683 5.66927 10.7409 5.66927 17.0002C5.66927 23.2594 10.7434 28.3335 17.0026 28.3335C23.2618 28.3335 28.3359 23.2594 28.3359 17.0002C28.3359 10.7409 23.2618 5.66683 17.0026 5.66683ZM14.1693 9.91683C14.1693 9.13443 14.8035 8.50016 15.5859 8.50016H18.7734C21.7075 8.50016 24.0859 10.8787 24.0859 13.8127C24.0859 16.7467 21.7075 19.1252 18.7734 19.1252H17.0026V20.5418H19.8359C20.6183 20.5418 21.2526 21.1761 21.2526 21.9585C21.2526 22.7409 20.6183 23.3752 19.8359 23.3752H17.0026V24.7918C17.0026 25.5742 16.3683 26.2085 15.5859 26.2085C14.8035 26.2085 14.1693 25.5742 14.1693 24.7918V23.3752H11.3359C10.5535 23.3752 9.91927 22.7409 9.91927 21.9585C9.91927 21.1761 10.5535 20.5418 11.3359 20.5418H14.1693V19.1252H11.3359C10.5535 19.1252 9.91927 18.4909 9.91927 17.7085C9.91927 16.9261 10.5535 16.2918 11.3359 16.2918H14.1693V9.91683ZM17.0026 16.2918H18.7734C20.1426 16.2918 21.2526 15.1819 21.2526 13.8127C21.2526 12.4435 20.1426 11.3335 18.7734 11.3335H17.0026V16.2918Z" fill="#3E5BF1"/>
</svg>
