<svg width="34" height="34" viewBox="0 0 34 34" fill="none" xmlns="http://www.w3.org/2000/svg">
<path fill-rule="evenodd" clip-rule="evenodd" d="M11.3333 2.8335C10.5509 2.8335 9.91667 3.46776 9.91667 4.25016V5.66683H8.5C6.15279 5.66683 4.25 7.56962 4.25 9.91683V12.7502V26.9168C4.25 29.264 6.15279 31.1668 8.5 31.1668H25.5C27.8472 31.1668 29.75 29.264 29.75 26.9168V12.7502V9.91683C29.75 7.56962 27.8472 5.66683 25.5 5.66683H24.0833V4.25016C24.0833 3.46776 23.4491 2.8335 22.6667 2.8335C21.8843 2.8335 21.25 3.46776 21.25 4.25016V5.66683H12.75V4.25016C12.75 3.46776 12.1157 2.8335 11.3333 2.8335ZM22.6667 8.50016H11.3333H8.5C7.7176 8.50016 7.08333 9.13443 7.08333 9.91683V11.3335H26.9167V9.91683C26.9167 9.13443 26.2824 8.50016 25.5 8.50016H22.6667ZM7.08333 26.9168V14.1668H26.9167V26.9168C26.9167 27.6992 26.2824 28.3335 25.5 28.3335H8.5C7.7176 28.3335 7.08333 27.6992 7.08333 26.9168Z" fill="#3E5BF1"/>
</svg>
