<svg width="50" height="65" viewBox="0 0 50 65" fill="none" xmlns="http://www.w3.org/2000/svg">
<path fill-rule="evenodd" clip-rule="evenodd" d="M40.363 0.0730215C40.0308 0.10826 39.2153 0.180258 38.5509 0.233036C37.8865 0.285814 36.9804 0.358135 36.5374 0.393774C36.0945 0.429413 31.9447 0.493002 27.3158 0.535048C17.0673 0.62819 16.9184 0.63644 16.7495 1.11817C16.706 1.24207 16.5378 1.42483 16.3756 1.5243C16.0563 1.72003 15.9034 1.84433 15.3285 2.37499C15.1221 2.56552 14.7388 2.90789 14.4767 3.13583C14.003 3.54788 13.251 4.25538 11.8231 5.63249C10.3951 7.0096 9.38476 7.958 8.79393 8.47561C8.29177 8.91554 7.95271 9.21202 7.37444 9.71698C7.32394 9.76103 7.05519 9.99528 6.77709 10.2376C6.49899 10.4798 6.19021 10.7506 6.0909 10.8392C5.99168 10.9278 5.68137 11.1981 5.40141 11.4398C5.12146 11.6816 4.77982 11.9887 4.64226 12.1223C4.50462 12.2558 4.2957 12.4405 4.17796 12.5326C3.05187 13.4134 1.15254 15.3234 1.07458 15.6534C1.06024 15.714 1.00588 15.7645 0.953769 15.7656C0.804854 15.7687 0.577091 16.299 0.577091 16.6427C0.577091 16.8142 0.535613 17.056 0.485035 17.18C0.423423 17.3308 0.371153 18.7447 0.327341 21.4499C0.151928 32.2685 0.149191 32.6373 0.24326 32.695C0.293999 32.7263 0.335476 32.7878 0.335476 32.8318C0.335476 32.8759 0.30632 32.894 0.270642 32.872C0.174399 32.8129 0.172868 32.9062 0.0850815 43.9946C-0.0476456 60.7597 -0.049495 60.5825 0.257195 60.8874C0.300283 60.9303 0.335476 61.0257 0.335476 61.0995C0.335476 61.7987 2.10063 64.0567 2.64717 64.0567C2.70467 64.0567 2.75162 64.0898 2.75162 64.1304C2.75162 64.171 2.86035 64.2279 2.99324 64.2569C3.12613 64.2859 3.23485 64.34 3.23485 64.377C3.23485 64.4141 3.3526 64.4695 3.4966 64.5001C3.64053 64.5306 3.79628 64.5859 3.84267 64.6229C3.94528 64.7046 4.64919 64.838 5.57046 64.9504C6.40218 65.0518 16.2505 64.9857 18.9398 64.8606C19.9365 64.8143 22.2741 64.7401 24.1345 64.6958C31.3498 64.5238 33.8376 64.4514 34.8461 64.3842C35.6433 64.3311 41.5969 64.3232 45.3161 64.3703C45.4933 64.3726 45.9723 64.4133 46.3805 64.4609C47.1537 64.5509 47.692 64.4359 47.692 64.1807C47.692 64.1268 47.8913 63.9989 48.135 63.8965C48.3786 63.7941 48.5779 63.6801 48.5779 63.6432C48.5779 63.6064 48.6184 63.5762 48.668 63.5762C48.7851 63.5762 49.3833 62.9813 49.3833 62.8648C49.3833 62.8156 49.4151 62.7753 49.454 62.7753C49.6422 62.7753 50.0644 60.9626 49.9484 60.6529C49.7068 60.0086 49.5847 51.7666 49.6962 43.6342C49.7429 40.2205 49.8043 33.1027 49.8325 27.8169C49.8606 22.5311 49.907 17.0891 49.9356 15.7236C50.0757 9.00812 49.983 4.48459 49.6994 4.19491C49.6584 4.1531 49.6249 4.05043 49.6249 3.96674C49.6249 3.72928 49.0719 2.5491 48.9606 2.5491C48.9273 2.5491 48.9001 2.4956 48.9001 2.43025C48.9001 2.27536 47.7257 1.10752 47.5699 1.10752C47.5042 1.10752 47.4504 1.07997 47.4504 1.04633C47.4504 1.01269 47.2601 0.901051 47.0275 0.798298C46.795 0.695545 46.5395 0.577496 46.4598 0.536011C46.2038 0.402664 45.3395 0.240726 43.983 0.0719803C43.2079 -0.0244456 41.2764 -0.023885 40.363 0.0730215ZM44.108 1.59037C44.965 1.68311 45.7591 1.84337 45.7591 1.92361C45.7591 1.95933 45.8038 1.98849 45.8585 1.98849C46.9272 1.98849 48.1805 3.6576 48.4141 5.39223C48.4879 5.94059 48.4307 18.8828 48.3413 21.8503C48.3088 22.9295 48.2753 25.7004 48.267 28.0079C48.2587 30.3154 48.2347 32.2308 48.2137 32.2646C48.1157 32.4223 48.1746 59.3407 48.2734 59.5148C48.4695 59.8605 48.4096 61.6016 48.1925 61.8684C48.0911 61.9927 47.9873 62.1576 47.9616 62.2347C47.9359 62.3118 47.8647 62.3748 47.8034 62.3748C47.7422 62.3748 47.692 62.4027 47.692 62.4367C47.692 62.6279 46.5873 62.8679 45.9174 62.8222C43.6079 62.665 30.8951 62.7863 26.0675 63.0118C19.5966 63.3139 5.91807 63.4449 5.04697 63.2131C4.36424 63.0315 3.85999 62.8459 3.71172 62.7217C3.64181 62.6631 3.5587 62.6151 3.52713 62.6151C3.17372 62.6151 2.13301 61.2421 1.97926 60.5729C1.9489 60.4407 1.88374 60.282 1.83445 60.2201C1.77276 60.1427 1.74691 59.3334 1.75142 57.6173C1.75504 56.2475 1.76616 47.1828 1.77614 37.4733L1.79427 19.8198L2.05143 19.4963C2.19293 19.3183 2.39927 19.0745 2.51001 18.9542C2.81654 18.6215 3.09005 18.2406 3.27714 17.886C3.3704 17.7091 3.73959 17.687 4.61915 17.8055C4.98109 17.8543 5.05711 17.8882 4.98157 17.967C4.92898 18.0218 4.65032 18.3292 4.36239 18.6501C4.07447 18.9709 3.48557 19.586 3.05364 20.0169C2.31889 20.7498 2.26839 20.8212 2.26839 21.125C2.26839 21.5239 2.39645 21.5457 2.67197 21.1939C2.78223 21.0532 3.18049 20.6115 3.55701 20.2125C3.93352 19.8136 4.38655 19.3113 4.56374 19.0963C4.74092 18.8814 5.04431 18.5301 5.23792 18.3158L5.58988 17.926H6.33542C6.89991 17.926 7.10528 17.9551 7.18123 18.0461C7.25049 18.1291 7.25355 18.1663 7.19106 18.1663C7.14137 18.1663 7.10069 18.1997 7.10069 18.2405C7.10069 18.2813 6.8379 18.5811 6.51679 18.9067C4.94299 20.5022 4.20816 21.4146 4.17852 21.8101C4.15581 22.1144 4.35925 22.163 4.61641 21.9145C4.84731 21.6916 5.40939 20.9998 5.40939 20.9386C5.40939 20.9145 5.50901 20.7903 5.63087 20.6626C5.75264 20.5349 6.00288 20.2543 6.18682 20.0391C6.37077 19.8239 6.61859 19.5398 6.73746 19.4076C7.23527 18.8545 7.32064 18.7512 7.54744 18.4282L7.78527 18.0896L8.30877 18.0938C8.59669 18.0961 8.98666 18.1224 9.17536 18.1522L9.51837 18.2063L8.89348 18.8617C7.80009 20.0084 7.63402 20.1907 7.1611 20.7639C6.66659 21.3634 6.56495 21.6901 6.87293 21.6901C7.03159 21.6901 7.53729 21.2276 8.02688 20.6348C8.53154 20.0237 8.69116 19.837 9.14161 19.3306C10.1335 18.2156 10.083 18.2532 10.4875 18.3308C10.6845 18.3686 10.9786 18.4011 11.1411 18.403C11.6315 18.4088 11.5939 18.5312 10.8659 19.299C10.7884 19.3808 10.7249 19.4644 10.7249 19.485C10.7249 19.5055 10.6252 19.6267 10.5034 19.7544C10.3816 19.8821 10.1189 20.1786 9.91953 20.4133C9.7202 20.648 9.49364 20.8952 9.41617 20.9625C9.18744 21.1613 9.22924 21.53 9.48043 21.53C9.68452 21.53 9.75926 21.4664 10.3431 20.7963C10.5096 20.6051 10.7715 20.3046 10.9251 20.1284C11.0787 19.9522 11.2052 19.7631 11.2063 19.708C11.2073 19.6529 11.2381 19.6078 11.2748 19.6078C11.3113 19.6078 11.4988 19.3916 11.6914 19.1273C12.0371 18.6527 12.4563 18.4675 12.6132 18.7199C12.6383 18.7601 12.8034 18.8174 12.9804 18.8471C13.4354 18.9235 13.4188 18.9518 12.2551 20.0794C11.6793 20.6375 11.2081 21.138 11.2081 21.1918C11.2081 21.2456 11.1719 21.2897 11.1276 21.2897C11.014 21.2897 11.0271 21.7984 11.1437 21.9144C11.3118 22.0815 11.4261 22.0211 11.6805 21.6301C11.8167 21.4209 12.0579 21.1055 12.2165 20.9293C12.5324 20.5785 13.1366 19.9003 13.5579 19.4236L13.8269 19.1192L14.1256 19.2434C14.29 19.3117 14.5344 19.3676 14.6687 19.3676C15.0768 19.3676 15.0428 19.4216 13.8659 20.6427C13.2067 21.3268 13.0137 21.7255 13.2481 21.919C13.3575 22.0093 13.6229 21.9691 13.6256 21.8618C13.6263 21.8334 13.7259 21.6979 13.8471 21.5606C13.9682 21.4232 14.2303 21.1201 14.4297 20.8872C14.629 20.6542 14.8478 20.4062 14.916 20.336C14.9842 20.2658 15.1654 20.0374 15.3187 19.8282C15.4752 19.6146 15.6858 19.4265 15.7988 19.3993C16.0233 19.3452 16.7649 18.8784 16.7651 18.7911C16.7652 18.7603 16.8568 18.6369 16.9686 18.517C17.0804 18.397 17.1941 18.206 17.2213 18.0924C17.2485 17.9789 17.2987 17.8499 17.3329 17.8059C17.3671 17.7618 17.4214 17.5816 17.4532 17.4054C17.5575 16.8306 17.7996 16.5198 19.3828 14.9286C20.6728 13.6321 20.7254 13.5699 20.665 13.4134C20.5794 13.1914 20.4058 13.2618 19.9538 13.7014C19.716 13.9326 19.3816 14.2423 19.2105 14.3897C19.0395 14.537 18.6774 14.8704 18.4059 15.1305C17.8644 15.6494 17.6876 15.7293 17.8143 15.398C17.8575 15.285 17.8928 15.059 17.8928 14.8958C17.8928 14.6361 17.9494 14.5489 18.344 14.2002C18.5921 13.9809 18.8932 13.7114 19.013 13.6012C19.1329 13.4911 19.4101 13.2569 19.629 13.0808C19.848 12.9046 20.1165 12.6884 20.2257 12.6003C20.684 12.2305 21.2772 11.5797 21.3236 11.3961C21.351 11.2875 21.4082 11.1986 21.4508 11.1986C21.4934 11.1986 21.5166 11.1176 21.5026 11.0184C21.4709 10.797 21.2841 10.7835 21.1634 10.994C21.0238 11.2376 20.9344 11.3486 20.6229 11.6649C20.3035 11.9892 19.8292 12.3999 19.774 12.3999C19.7385 12.3999 19.2567 12.7256 19.1814 12.8004C19.1593 12.8224 18.96 12.9845 18.7385 13.1606C18.517 13.3368 18.2542 13.5673 18.1546 13.6728L17.9734 13.8649V13.4702C17.9734 12.6773 18.1327 12.3151 18.7288 11.7524C20.2593 10.3079 21.1144 9.36411 21.1144 9.11952C21.1144 9.07371 21.1467 9.03623 21.1863 9.03623C21.3284 9.03623 21.3608 8.76641 21.2336 8.64155C21.1107 8.52078 20.6411 8.91065 20.6333 9.1401C20.6303 9.22676 18.4712 11.3454 18.2846 11.4447C17.966 11.6143 18.1779 10.1333 18.5296 9.73332C18.9254 9.28314 19.9557 8.20267 20.8526 7.29728C21.3834 6.76141 21.5976 6.48887 21.5976 6.34912C21.5976 5.95677 21.3767 6.13905 19.1701 8.35244L18.215 9.31053V8.97152C18.215 8.49355 18.4208 8.20996 19.7135 6.90637C20.3289 6.28577 21.0021 5.58307 21.2094 5.34481C21.4167 5.10663 21.6976 4.79237 21.8336 4.64645C21.9696 4.50061 22.0808 4.3474 22.0808 4.30607C22.0808 4.26475 22.1171 4.23095 22.1614 4.23095C22.2056 4.23095 22.2419 4.17689 22.2419 4.11082C22.2419 3.80248 21.876 4.03882 21.0556 4.87702C20.0063 5.94916 19.5581 6.38796 18.819 7.06663L18.2552 7.58431L18.2305 7.13046C18.2169 6.8809 18.2411 6.66498 18.2841 6.65073C18.3271 6.63647 18.4996 6.41055 18.6674 6.14866C18.8351 5.88677 19.0013 5.67253 19.0366 5.67253C19.072 5.67253 19.1009 5.62408 19.1009 5.56482C19.1009 5.50555 19.1734 5.39183 19.262 5.31214C19.3506 5.23245 19.4231 5.13795 19.4231 5.10215C19.4231 5.06643 19.5408 4.91666 19.6848 4.76938C19.958 4.48987 20.0591 4.37158 20.591 3.71046C20.7681 3.4903 20.9493 3.26949 20.9936 3.21976C21.0378 3.17002 21.1284 3.04725 21.1949 2.9469C21.2613 2.84655 21.3792 2.708 21.4566 2.63896C21.5341 2.56993 21.5976 2.47134 21.5976 2.41976C21.5976 2.36818 21.6519 2.30523 21.7184 2.27985C21.7848 2.25454 21.8392 2.15787 21.8392 2.06505C21.8392 1.89742 21.8501 1.89662 23.4701 1.94428C26.3999 2.03045 34.5445 2.01171 35.6515 1.91625C38.2532 1.69176 38.8502 1.64435 39.7187 1.59285C41.0845 1.51196 43.371 1.51068 44.108 1.59037ZM19.7796 1.85194C19.9149 1.86627 19.8994 1.90583 19.6588 2.16035C19.1932 2.65306 18.9961 2.88571 18.5693 3.44689L18.1584 3.987L18.1041 3.1279C18.0742 2.65538 18.0296 2.15931 18.0049 2.02541L17.9601 1.7821L18.7923 1.80885C19.2499 1.8235 19.6942 1.84297 19.7796 1.85194ZM21.5841 1.95052C21.599 1.96406 21.5446 2.04447 21.4633 2.1292C21.2952 2.30467 20.3849 3.31619 19.9774 3.78054C19.8275 3.95128 19.56 4.2396 19.3828 4.42124C19.0074 4.80614 18.4566 5.47688 18.4566 5.5492C18.4566 5.57667 18.3931 5.66685 18.3157 5.74966C18.1805 5.89398 18.1751 5.87708 18.1849 5.33664C18.1906 5.0267 18.2279 4.75024 18.268 4.72229C18.308 4.69434 18.493 4.41916 18.679 4.11082C18.8651 3.80248 19.1079 3.44208 19.2186 3.30994C19.4923 2.98326 19.5256 2.93945 19.6755 2.70928C19.7473 2.59916 19.9186 2.38292 20.0562 2.22875C20.1938 2.07458 20.307 1.9297 20.3077 1.90688C20.309 1.86419 21.5358 1.90616 21.5841 1.95052ZM16.5885 7.31434C16.5933 10.9841 16.4239 13.9327 16.0917 15.9638C15.8379 17.5155 15.625 17.9035 15.0758 17.8155C14.7021 17.7556 13.6768 17.4263 13.6199 17.3478C13.5757 17.2871 13.2847 17.2141 12.4162 17.0459C12.1726 16.9987 11.8102 16.9243 11.6108 16.8807C11.4115 16.837 10.9483 16.7675 10.5816 16.7262C10.2148 16.6849 9.88273 16.6315 9.84375 16.6074C9.80477 16.5835 8.96322 16.5276 7.97365 16.4833C6.10572 16.3996 3.6129 16.2095 3.00572 16.1045L2.6557 16.0439L2.83772 15.8143C3.07281 15.5178 3.71478 14.8797 4.01068 14.6485C4.13769 14.5492 4.42827 14.3001 4.65635 14.0947C6.35676 12.5643 6.41217 12.515 7.09884 11.9194C7.37823 11.6771 7.74403 11.3528 7.91171 11.1986C8.40429 10.7459 8.63422 10.5424 9.3155 9.95612C10.6133 8.83913 12.7848 6.7168 14.2283 5.1546C14.6713 4.6752 15.1968 4.11202 15.3961 3.90307C16.1111 3.15369 16.2821 2.9626 16.2821 2.91302C16.2821 2.88531 16.3274 2.81419 16.3827 2.75493C16.5208 2.60725 16.5842 4.01255 16.5885 7.31434ZM2.69122 17.5743C2.85737 17.6012 2.99324 17.6385 2.99324 17.6573C2.99324 17.7745 2.60239 18.2726 2.00664 18.9148L1.70463 19.2404V18.5932C1.70463 18.2372 1.68095 17.8283 1.65203 17.6844L1.59936 17.4227L1.99432 17.4741C2.21145 17.5024 2.52515 17.5475 2.69122 17.5743ZM17.6751 18.7794C16.8569 19.6136 16.5237 20.0076 16.5237 20.1409C16.5237 20.6206 17.0147 20.2481 18.3358 18.7665C18.6459 18.4188 18.963 18.0794 19.0405 18.0123C19.2596 17.8227 19.1722 17.6056 18.8766 17.6056C18.8491 17.6056 18.3085 18.1338 17.6751 18.7794ZM17.5831 23.1769C17.399 23.378 17.2485 23.5762 17.2485 23.6174C17.2485 23.6586 17.2193 23.6923 17.1835 23.6923C17.1478 23.6923 16.9447 23.9277 16.7323 24.2154C16.5198 24.5031 16.304 24.7824 16.2526 24.8361C16.2012 24.8898 15.9603 25.1847 15.7172 25.4915C15.4742 25.7983 15.1847 26.1438 15.074 26.2594C14.9632 26.3749 14.7639 26.6063 14.631 26.7735C14.4981 26.9406 14.3259 27.1347 14.2485 27.2047C14.171 27.2747 14.1075 27.3749 14.1075 27.4276C14.1075 27.4802 14.0804 27.5352 14.0471 27.5499C13.9794 27.5798 13.6243 28.0681 13.6243 28.1313C13.6243 28.413 12.8996 28.8109 12.7384 28.6177C12.6832 28.5517 12.5882 28.4976 12.5272 28.4976C12.4662 28.4976 12.4162 28.4674 12.4162 28.4306C12.4162 28.3937 12.118 28.1685 11.7535 27.93C11.389 27.6916 10.7639 27.169 10.3643 26.7688C9.28634 25.6893 8.54692 25.309 8.19891 25.6551C8.01222 25.8406 8.02487 25.8763 8.43022 26.3085C8.62995 26.5214 8.816 26.7677 8.84378 26.8558C8.87157 26.9439 8.91739 27.034 8.94574 27.056C8.97401 27.0781 9.18777 27.3369 9.42068 27.6312C9.88442 28.2172 10.9474 29.2172 11.1075 29.2179C11.1629 29.2182 11.2081 29.2503 11.2081 29.2893C11.2081 29.3283 11.4877 29.5445 11.8293 29.7698C12.781 30.3974 13.5347 30.3479 14.2887 29.6083C14.5858 29.3168 15.074 28.6757 15.074 28.577C15.074 28.5333 15.102 28.4976 15.1363 28.4976C15.1706 28.4976 15.3571 28.2814 15.5506 28.0171C15.7441 27.7528 15.9335 27.5366 15.9715 27.5366C16.0094 27.5366 16.0404 27.5026 16.0404 27.4612C16.0404 27.4197 16.1945 27.2269 16.3827 27.0327C16.7445 26.6595 17.2856 26.0368 17.5863 25.6475C17.6854 25.5192 17.7905 25.3962 17.8199 25.3742C17.9312 25.2908 18.4566 24.5687 18.4566 24.4992C18.4566 24.4592 18.4837 24.4145 18.517 24.3998C18.9873 24.1919 19.0241 22.9715 18.56 22.9715C18.5031 22.9715 18.4566 22.9355 18.4566 22.8915C18.4566 22.6441 17.906 22.824 17.5831 23.1769ZM32.4703 23.1449C25.3235 23.2772 23.7279 23.3829 23.4931 23.7392C23.4178 23.8535 23.4016 23.9429 23.4509 23.9732C23.567 24.0446 23.546 24.5638 23.412 24.9337C23.1438 25.6739 23.2679 26.3906 23.7487 26.8782C24.2208 27.3572 24.589 27.4381 26.5507 27.4934C27.4809 27.5197 28.695 27.5778 29.2487 27.6226C29.8024 27.6673 31.4877 27.7385 32.9938 27.7808C34.4998 27.823 36.6925 27.9154 37.8663 27.986C41.1775 28.1852 41.5828 28.1976 41.6783 28.1027C41.7256 28.0556 41.8212 28.0171 41.8907 28.0171C42.3875 28.0171 43.0076 27.2 43.1068 26.4144C43.1817 25.8212 43.0771 24.5172 42.9439 24.3848C42.8976 24.3387 42.8597 24.2327 42.8597 24.1491C42.8597 23.9787 42.295 23.3042 42.0271 23.1545C41.8261 23.0423 38.2021 23.0386 32.4703 23.1449ZM25.5202 24.5455C25.6967 24.5886 25.6964 24.5902 25.4762 24.8013C25.3544 24.9182 25.0953 25.2243 24.9005 25.4817C24.4723 26.0476 24.4018 25.97 24.4746 25.0131L24.5215 24.3958L24.9321 24.4489C25.1579 24.4782 25.4225 24.5216 25.5202 24.5455ZM27.0173 24.8536C26.8935 25.0078 26.7652 25.1339 26.7319 25.1339C26.6986 25.1339 26.6715 25.1679 26.6715 25.2093C26.6715 25.2508 26.5084 25.4491 26.3091 25.6502C26.1097 25.8513 25.9467 26.0516 25.9467 26.0955C25.9467 26.1393 25.73 26.1751 25.4634 26.1751C24.86 26.1751 24.8604 26.1549 25.4776 25.3456C26.0918 24.5403 26.0354 24.576 26.6951 24.5745L27.2421 24.5733L27.0173 24.8536ZM28.7314 25.0024C28.5287 25.2384 28.3628 25.4688 28.3628 25.5144C28.3628 25.56 28.3084 25.618 28.242 25.6434C28.1756 25.6687 28.1212 25.7292 28.1212 25.7778C28.1212 26.0264 27.8482 26.1347 27.2212 26.1349C26.5296 26.135 26.5152 26.126 26.7591 25.8469C26.8517 25.7411 27.1141 25.4112 27.3422 25.1139L27.7571 24.5733H28.4286H29.1001L28.7314 25.0024ZM30.4458 24.6734C30.2574 24.8277 29.8125 25.4266 29.8125 25.5259C29.8125 25.5746 29.7751 25.6144 29.7295 25.6144C29.6837 25.6144 29.6239 25.6776 29.5964 25.7546C29.4849 26.067 29.3103 26.1751 28.9166 26.1751C28.5451 26.1751 28.4528 26.0504 28.6793 25.8547C28.7048 25.8327 28.8306 25.6609 28.9588 25.473C29.4598 24.7386 29.6778 24.5733 30.1446 24.5733C30.4949 24.5733 30.547 24.5906 30.4458 24.6734ZM32.4703 24.6141C32.4703 24.6495 32.1314 25.0317 31.6447 25.5457C31.5673 25.6276 31.5038 25.7151 31.5038 25.7403C31.5038 25.7655 31.4527 25.8369 31.3902 25.8991C31.3277 25.9611 31.2637 26.0504 31.248 26.0972C31.2301 26.1506 30.9854 26.1736 30.595 26.1587L29.9705 26.135L30.2539 25.7076C30.4098 25.4725 30.5373 25.2653 30.5373 25.2471C30.5373 25.2289 30.6823 25.0698 30.8595 24.8937L31.1816 24.5733H31.826C32.1803 24.5733 32.4703 24.5917 32.4703 24.6141ZM34.0331 24.7507C33.9487 24.8483 33.7802 25.0375 33.6586 25.1712C33.537 25.3048 33.4373 25.4593 33.4371 25.5143C33.4369 25.5694 33.403 25.6144 33.3618 25.6144C33.3207 25.6144 33.2101 25.7677 33.1161 25.9548L32.9452 26.2952L32.5266 26.2708C31.9007 26.2342 31.8508 26.2042 32.0555 25.9876C32.1508 25.8868 32.2286 25.7818 32.2286 25.7541C32.2286 25.7266 32.3827 25.5451 32.5709 25.3509C32.7591 25.1567 32.9818 24.9023 33.0654 24.7855C33.2012 24.5962 33.27 24.5733 33.7021 24.5733H34.1865L34.0331 24.7507ZM35.9473 24.7935C35.8603 24.9147 35.6947 25.1148 35.5794 25.2382C35.464 25.3615 35.3696 25.4937 35.3696 25.5318C35.3696 25.5699 35.3425 25.6131 35.3092 25.6278C35.2175 25.6683 34.8864 26.1571 34.8864 26.2519C34.8864 26.3022 34.647 26.3352 34.2824 26.3352C33.7991 26.3352 33.6783 26.3112 33.6783 26.2151C33.6783 26.149 33.7146 26.095 33.7589 26.095C33.8032 26.095 33.8394 26.0525 33.8394 26.0007C33.8394 25.8835 34.407 25.0369 34.5441 24.9497C34.5995 24.9145 34.6448 24.8364 34.6448 24.7762C34.6448 24.6171 34.7733 24.5867 35.4758 24.5796L36.1054 24.5733L35.9473 24.7935ZM37.5697 24.9537C37.4007 25.1629 37.2395 25.3522 37.2116 25.3742C37.0962 25.4654 36.5777 26.1822 36.5777 26.2504C36.5777 26.3751 36.2582 26.4339 35.8837 26.3781L35.5277 26.325L35.7184 26.0071C35.8232 25.8323 35.9779 25.6084 36.0621 25.5094C36.1463 25.4105 36.3537 25.1594 36.5227 24.9514L36.8301 24.5733H37.3536H37.8771L37.5697 24.9537ZM39.7404 24.7135C39.7108 24.7905 39.6568 24.8897 39.6206 24.9337C39.5843 24.9777 39.4828 25.1004 39.395 25.2062C39.3073 25.3121 39.2355 25.4214 39.2355 25.4493C39.2355 25.4772 39.0198 25.7239 38.7561 25.9977L38.2768 26.4956L37.7429 26.4354L37.209 26.3753L37.6183 25.8382C37.8433 25.5429 38.0274 25.2636 38.0274 25.2175C38.0274 25.1716 38.0607 25.1339 38.1013 25.1339C38.1421 25.1339 38.2537 25.0078 38.3495 24.8536L38.5238 24.5733H39.159C39.7308 24.5733 39.7888 24.5873 39.7404 24.7135ZM41.41 24.6467C41.41 24.6871 41.3822 24.7321 41.3482 24.7469C41.2981 24.7685 40.8954 25.2456 40.5829 25.6537C40.5488 25.6981 40.4282 25.8427 40.3151 25.9748C40.2019 26.107 40.0534 26.2962 39.9852 26.3953C39.8348 26.6139 39.2355 26.662 39.2355 26.4554C39.2355 26.3893 39.2658 26.3352 39.3029 26.3352C39.387 26.3352 40.2019 25.1124 40.2019 24.9861C40.2019 24.9353 40.2358 24.8937 40.2771 24.8937C40.3184 24.8937 40.3752 24.8216 40.4033 24.7335C40.4575 24.5636 41.41 24.4815 41.41 24.6467ZM41.6616 25.815C41.667 26.513 41.5311 26.6771 40.9778 26.6405L40.6003 26.6155L41.0043 26.0549C41.2265 25.7466 41.4521 25.4324 41.5057 25.3566C41.6428 25.1628 41.6569 25.2044 41.6616 25.815ZM1.61225 31.8213C1.74377 31.9802 1.74345 31.9802 1.56368 31.8289C1.46398 31.7449 1.38666 31.6008 1.39182 31.5085C1.40084 31.3471 1.40269 31.3468 1.44038 31.5009C1.46196 31.589 1.53936 31.7332 1.61225 31.8213ZM1.39173 32.2746C1.63915 32.6202 1.52519 32.5461 1.21793 32.1616C1.06837 31.9745 1.00958 31.8721 1.08746 31.9343C1.16526 31.9964 1.30217 32.1496 1.39173 32.2746ZM0.775458 32.6021L1.06942 33.0226L0.745175 32.6622C0.45258 32.3371 0.356739 32.1817 0.448714 32.1817C0.466754 32.1817 0.613737 32.3708 0.775458 32.6021ZM17.9918 33.9162C17.8469 33.9872 17.5207 34.2781 17.267 34.5627C17.0132 34.8472 16.6243 35.2676 16.4029 35.4968C15.9298 35.9866 15.3695 36.6517 15.3237 36.778C15.3059 36.8268 15.2653 36.8848 15.2335 36.9069C15.2016 36.9289 14.9821 37.1992 14.7456 37.5075C14.2034 38.2145 14.2398 38.1693 13.9081 38.5487C13.754 38.7249 13.6272 38.8948 13.6261 38.9264C13.6219 39.0591 13.0417 39.5498 12.8891 39.5498C12.5843 39.5498 12.1811 39.2055 11.2347 38.1376C10.3418 37.1299 9.94337 36.7698 9.5882 36.6496C8.96942 36.4401 8.57801 36.796 8.9836 37.1993C9.09652 37.3115 9.28674 37.5709 9.4065 37.7758C9.64361 38.1815 9.98082 38.6621 10.1174 38.7889C10.1648 38.833 10.402 39.1213 10.6445 39.4296C10.8869 39.738 11.122 40.0288 11.1668 40.0759C11.3352 40.2524 12.0965 40.7511 12.198 40.7511C12.2559 40.7511 12.3426 40.79 12.3905 40.8377C12.8542 41.2987 13.9905 40.7295 14.8514 39.605C15.1234 39.2497 15.4025 38.8994 15.4717 38.8264C15.6117 38.6789 16.1199 38.0924 16.3649 37.7956C16.4522 37.6897 16.5237 37.5798 16.5237 37.5514C16.5237 37.523 16.6599 37.3573 16.8266 37.1832C16.9932 37.0092 17.2059 36.7688 17.2993 36.649C17.3928 36.5292 17.8001 36.0818 18.2045 35.6548C18.6117 35.2249 18.9438 34.8039 18.9488 34.7113C18.989 33.9571 18.588 33.624 17.9918 33.9162ZM27.6782 36.2694C24.2914 36.3708 23.087 36.5921 23.4639 37.0436C23.5565 37.1546 23.5173 37.6413 23.3717 38.1883C23.2584 38.6134 23.3003 39.4868 23.4361 39.5318C23.488 39.549 23.5305 39.6111 23.5305 39.6698C23.5305 40.1318 24.6192 40.5108 25.9463 40.5108C26.5189 40.5108 27.3421 40.5471 27.7758 40.5915C28.2094 40.6358 29.7783 40.7102 31.2622 40.7567C35.1556 40.8787 38.7973 41.0451 39.9796 41.155C40.9739 41.2473 41.8932 41.2086 41.8932 41.0743C41.8932 41.0383 41.9885 40.9849 42.1049 40.9559C42.5873 40.8355 43.0248 40.1684 43.1057 39.4296C43.1692 38.8507 43.0652 37.5597 42.9455 37.4406C42.8983 37.3937 42.8592 37.2814 42.8586 37.1912C42.858 37.1008 42.6859 36.8377 42.4761 36.6062L42.0946 36.1854L35.8126 36.1997C32.3575 36.2075 28.697 36.2389 27.6782 36.2694ZM25.1507 37.5476C25.5957 37.5476 25.5983 37.5849 25.1876 38.0681C24.9118 38.3926 24.8808 38.4334 24.7103 38.6974C24.4877 39.042 24.4126 38.8622 24.4701 38.1215C24.5111 37.5939 24.5448 37.4686 24.6366 37.5036C24.6999 37.5278 24.9313 37.5476 25.1507 37.5476ZM27.1547 37.7098C27.1547 37.7475 27.1162 37.802 27.0692 37.8309C27.0222 37.8598 26.9498 37.9611 26.9084 38.0559C26.8252 38.2462 26.656 38.5264 26.5867 38.5887C26.5622 38.6107 26.4596 38.7639 26.3587 38.9291C26.2207 39.1548 26.1217 39.2296 25.9602 39.2303C25.842 39.2308 25.604 39.2544 25.4315 39.2827C25.0426 39.3466 25.0573 39.1886 25.5081 38.4541C25.6654 38.1977 25.8375 37.916 25.8905 37.8279C25.9435 37.7398 26.0104 37.6497 26.0391 37.6276C26.1263 37.5607 27.1547 37.6365 27.1547 37.7098ZM39.1276 37.7736C39.054 37.8545 38.9939 37.9598 38.9939 38.0077C38.9939 38.0556 38.9667 38.1068 38.9335 38.1215C38.8417 38.1621 38.5106 38.6509 38.5106 38.7457C38.5106 38.7915 38.4805 38.829 38.4438 38.829C38.407 38.829 38.2571 38.9948 38.1107 39.1975L37.8445 39.5661L37.3118 39.51C37.0188 39.4791 36.7625 39.438 36.7422 39.4185C36.705 39.3826 37.0596 38.6624 37.1508 38.5887C37.2431 38.5141 37.5442 37.8751 37.5442 37.7538C37.5442 37.6558 37.6986 37.629 38.3697 37.6104C39.3212 37.5842 39.3035 37.5803 39.1276 37.7736ZM40.199 37.8715C40.0678 38.0364 39.9603 38.2112 39.9603 38.2599C39.9603 38.3086 39.9313 38.3484 39.8958 38.3484C39.8158 38.3484 39.4771 39.0304 39.4771 39.1915C39.4771 39.2564 39.4408 39.3095 39.3965 39.3095C39.3523 39.3095 39.316 39.3636 39.316 39.4296C39.316 39.5165 39.2263 39.5498 38.9914 39.5498H38.6669L38.8505 39.2096C38.9515 39.0225 39.054 38.8513 39.0783 38.8292C39.1025 38.807 39.22 38.6209 39.3393 38.4156C39.7039 37.7877 39.9372 37.5577 40.2016 37.5651L40.4378 37.5717L40.199 37.8715ZM41.5432 37.8998C41.9115 38.962 41.5952 39.8645 40.8919 39.7579C40.0285 39.6271 39.9547 39.6077 39.9917 39.5205C40.013 39.4706 40.0748 39.2945 40.1289 39.1293C40.1831 38.9642 40.254 38.829 40.2865 38.829C40.319 38.829 40.369 38.7357 40.3978 38.6219C40.4266 38.508 40.4853 38.3729 40.5282 38.3215C40.5712 38.2703 40.7141 38.1022 40.8458 37.948C40.9775 37.7938 41.0858 37.6381 41.0866 37.602C41.0908 37.3884 41.4462 37.6203 41.5432 37.8998ZM28.6037 38.017C28.4712 38.231 28.3628 38.4308 28.3628 38.4608C28.3628 38.4908 28.3262 38.5589 28.2814 38.6121C28.2366 38.6653 28.1252 38.8079 28.034 38.9291C27.8857 39.1257 27.817 39.1493 27.3942 39.1493H26.9206L27.0578 38.8891C27.1332 38.746 27.2199 38.6101 27.2503 38.5871C27.2808 38.5642 27.3458 38.456 27.3947 38.3468C27.4776 38.1621 27.5855 37.9704 27.7434 37.7278C27.7844 37.6647 28.0005 37.6276 28.3266 37.6276H28.8446L28.6037 38.017ZM29.7187 38.4085L29.3142 39.1894L28.9942 39.1773C28.604 39.1627 28.5434 39.1124 28.6956 38.9296C28.76 38.8522 28.9379 38.5294 29.0911 38.212L29.3695 37.6352L29.7465 37.6314L30.1233 37.6276L29.7187 38.4085ZM31.788 37.8471C31.7576 37.9678 31.7084 38.0849 31.6786 38.1074C31.6251 38.1478 31.4763 38.4393 31.224 38.998C31.1251 39.217 31.0503 39.2827 30.916 39.2686C30.8185 39.2582 30.5846 39.2453 30.3964 39.2397C30.0618 39.2296 29.9025 39.0117 30.1284 38.8729C30.1694 38.8477 30.2266 38.7194 30.2557 38.5878C30.2848 38.4562 30.339 38.3484 30.3763 38.3484C30.4135 38.3484 30.4679 38.2403 30.4971 38.1082C30.5262 37.976 30.5835 37.8679 30.6242 37.8679C30.6651 37.8679 30.6984 37.8139 30.6984 37.7478C30.6984 37.6522 30.8157 37.6276 31.2709 37.6276H31.8434L31.788 37.8471ZM33.5173 37.6685C33.5173 37.731 32.9382 38.5421 32.8542 38.5972C32.8135 38.6239 32.76 38.7951 32.7355 38.9776L32.6907 39.3095H32.1767H31.6627L31.7933 39.0092C31.8652 38.844 31.9445 38.6377 31.9696 38.5508C31.9947 38.4639 32.063 38.3017 32.1214 38.1904C32.1798 38.0791 32.2278 37.931 32.2282 37.8613C32.2284 37.7915 32.2528 37.7104 32.2824 37.6811C32.3445 37.6192 33.5173 37.6073 33.5173 37.6685ZM35.3696 37.703C35.3696 37.7445 35.3311 37.802 35.2841 37.8309C35.2371 37.8598 35.164 37.9611 35.1217 38.0559C34.6503 39.1123 34.3792 39.3541 33.7012 39.3231L33.1237 39.2967L33.4109 38.7625C33.5688 38.4687 33.7479 38.1714 33.809 38.1018C33.87 38.0323 33.9199 37.9497 33.9199 37.9183C33.9199 37.8869 33.9653 37.81 34.0206 37.7475C34.1363 37.6168 35.3696 37.5762 35.3696 37.703ZM37.0609 37.7478C37.0609 37.8139 37.0247 37.8679 36.9804 37.8679C36.9361 37.8679 36.8999 37.9097 36.8999 37.9609C36.8999 38.012 36.7187 38.3194 36.4972 38.644C36.2757 38.9686 36.0945 39.2691 36.0945 39.3119C36.0945 39.3546 35.8601 39.3896 35.5736 39.3896C35.1065 39.3896 35.0594 39.3751 35.1174 39.2494C35.153 39.1724 35.2322 38.9922 35.2935 38.849C35.3548 38.7058 35.4304 38.5887 35.4614 38.5887C35.4925 38.5887 35.5418 38.4806 35.571 38.3484C35.6001 38.2163 35.6494 38.1082 35.6805 38.1082C35.7116 38.1082 35.778 38.0001 35.8282 37.8679C35.9347 37.5874 37.0609 37.4776 37.0609 37.7478ZM17.2007 45.2777C16.8888 45.4138 16.2564 46.0959 15.8411 46.7442C15.6671 47.0159 15.4958 47.2382 15.4604 47.2382C15.425 47.2382 15.3961 47.2867 15.3961 47.3459C15.3961 47.4052 15.3237 47.5189 15.2351 47.5986C15.1465 47.6783 15.074 47.7891 15.074 47.8446C15.074 47.9002 15.0419 47.9576 15.0026 47.9724C14.9251 48.0014 14.3491 48.7343 14.3491 48.804C14.3491 48.8275 14.3039 48.9005 14.2485 48.9663C14.1931 49.032 14.1111 49.1296 14.0662 49.1831C13.8908 49.3923 13.5082 49.9985 13.3922 50.2509C13.137 50.8062 12.1746 51.1407 12.1746 50.6741C12.1746 50.6344 12.1293 50.6017 12.0739 50.6013C12.0186 50.601 11.8914 50.4839 11.7913 50.3411C10.808 48.9371 9.32605 47.9054 8.92529 48.3457C8.73329 48.5567 8.75052 48.6055 9.17455 49.0527C9.63177 49.535 9.97744 49.9378 10.0138 50.031C10.3152 50.8023 12.0414 52.2037 12.69 52.2037C13.2189 52.2037 14.3491 51.4471 14.3491 51.0932C14.3491 51.0432 14.383 51.0023 14.4243 51.0023C14.4656 51.0023 14.5248 50.9212 14.5559 50.8221C14.587 50.7231 14.6347 50.6239 14.662 50.6019C14.7358 50.5423 15.074 50.0541 15.074 50.0072C15.074 49.985 15.1736 49.8593 15.2955 49.7281C15.5614 49.4416 15.6378 49.3449 15.8141 49.0714C15.8881 48.9565 15.9966 48.8114 16.055 48.7489C16.2416 48.5496 16.5237 48.1283 16.5237 48.049C16.5237 48.0068 16.5508 47.9604 16.5841 47.9456C16.6583 47.9128 17.0069 47.4245 17.0069 47.3533C17.0069 47.3249 17.2786 47.0401 17.6107 46.7204C18.3594 45.9997 18.4412 45.756 18.0552 45.3974C17.7734 45.1356 17.5864 45.1094 17.2007 45.2777ZM28.8863 49.2426C28.7534 49.2817 27.6725 49.3468 26.4842 49.3872C25.0859 49.4348 24.2918 49.4924 24.2332 49.5507C24.1833 49.6003 24.0128 49.6408 23.8542 49.6408C23.6077 49.6408 23.5526 49.6758 23.4746 49.8811C23.4244 50.0133 23.4165 50.1214 23.457 50.1214C23.5738 50.1214 23.5424 50.6557 23.4001 51.0884C23.129 51.9126 23.4425 52.9748 24.0208 53.1919C24.1498 53.2403 24.2554 53.3064 24.2554 53.3388C24.2554 53.4616 26.2644 53.6083 29.6514 53.7329C36.6434 53.9901 38.0156 54.0479 39.0341 54.1285C41.5574 54.3282 42.2259 54.1987 42.804 53.3991C43.3429 52.6534 43.1954 50.323 42.5729 49.7494C42.4648 49.6499 42.3765 49.5384 42.3765 49.5017C42.3765 49.1745 34.9752 48.9356 34.8666 49.2594C34.8473 49.3168 34.7839 49.3144 34.6664 49.2519C34.4396 49.1312 34.1835 49.1353 34.1411 49.2604C34.1156 49.3358 34.0791 49.3381 33.9935 49.27C33.9038 49.1985 33.4963 49.1824 33.1951 49.2384C33.0668 49.2623 29.4278 49.2294 29.2921 49.2032C29.2018 49.1858 29.0192 49.2036 28.8863 49.2426ZM25.0406 50.6008C25.1475 50.6014 25.2218 50.6512 25.2218 50.722C25.2218 50.7881 25.1941 50.8422 25.1603 50.8422C25.1265 50.8422 25.0136 51.0313 24.9095 51.2626C24.5219 52.1237 24.5535 52.0776 24.4819 51.8851C24.3448 51.5167 24.5036 50.5048 24.6905 50.5546C24.7834 50.5794 24.941 50.6002 25.0406 50.6008ZM26.7141 50.8213C26.6837 50.942 26.6303 51.0591 26.5954 51.0816C26.5606 51.104 26.5042 51.2126 26.4702 51.3227C26.4361 51.4328 26.3696 51.5475 26.3224 51.5775C26.2753 51.6076 26.2349 51.7786 26.2326 51.9577L26.2285 52.2833L25.6571 52.2835L25.0856 52.2837L25.1785 51.9434C25.2296 51.7562 25.3781 51.3785 25.5084 51.1042L25.7453 50.6053L26.2574 50.6037L26.7695 50.6019L26.7141 50.8213ZM28.3622 50.7354C28.3625 50.7867 28.3342 50.8408 28.2993 50.8555C28.1826 50.9045 27.6929 51.7598 27.642 52.0034C27.5941 52.2327 27.5707 52.2448 27.1316 52.2677C26.5905 52.296 26.5866 52.2846 26.9131 51.6303C27.046 51.364 27.1547 51.1125 27.1547 51.0714C27.1547 50.7741 27.4091 50.6202 27.8822 50.631C28.187 50.6379 28.3618 50.676 28.3622 50.7354ZM29.5156 50.9902C29.0791 51.5905 28.9828 52.2037 29.3249 52.2037C29.4808 52.2037 29.8125 51.8558 29.8125 51.6923C29.8123 51.2658 30.3208 50.6382 30.6651 50.64C30.9821 50.6417 31.1601 50.7769 30.9488 50.8555C30.8104 50.907 30.3763 51.8092 30.3763 52.0453V52.2837H29.2893H28.2024L28.3499 51.9033C28.7778 50.7997 28.8551 50.6934 29.2487 50.6666C29.6736 50.6377 29.7259 50.701 29.5156 50.9902ZM32.7119 50.6836C32.7119 50.7285 32.6134 50.9177 32.4931 51.1041C32.1306 51.6652 31.987 51.9543 31.987 52.1233C31.987 52.2672 31.9336 52.2837 31.4711 52.2837C30.8656 52.2837 30.8638 52.2753 31.2902 51.4054C31.6679 50.6347 31.707 50.6019 32.2465 50.6019C32.5091 50.6019 32.7119 50.6375 32.7119 50.6836ZM34.1173 50.8221C34.0385 50.9433 33.8561 51.1866 33.712 51.363C33.5678 51.5392 33.4019 51.8366 33.3432 52.0237C33.237 52.3619 33.2342 52.3638 32.8493 52.3638H32.462L32.6583 52.1036C32.7662 51.9604 32.9583 51.6336 33.0852 51.3774C33.2121 51.1211 33.3517 50.8418 33.3954 50.7567C33.4576 50.6356 33.5606 50.6019 33.8678 50.6019H34.2606L34.1173 50.8221ZM35.9334 50.7112C35.9334 50.7714 35.8609 50.9122 35.7723 51.0242C35.6837 51.1362 35.6113 51.2672 35.6113 51.3153C35.6113 51.3634 35.5774 51.4028 35.5361 51.4028C35.4948 51.4028 35.4401 51.4659 35.4146 51.5429C35.389 51.62 35.2601 51.8092 35.1281 51.9634C34.9961 52.1176 34.8586 52.2797 34.8225 52.3238C34.6906 52.4847 33.853 52.3695 33.8984 52.1968C33.9206 52.1124 33.9708 52.0435 34.0099 52.0435C34.049 52.0435 34.081 52.005 34.081 51.958C34.081 51.9109 34.2683 51.5866 34.4971 51.2372L34.9132 50.6019H35.4233C35.8007 50.6019 35.9334 50.6303 35.9334 50.7112ZM37.6875 50.942C37.5865 51.1291 37.4858 51.3004 37.4636 51.3225C37.3415 51.4447 37.0609 51.8888 37.0609 51.9602C37.0609 52.006 37.0276 52.0435 36.9868 52.0435C36.946 52.0435 36.8887 52.1516 36.8596 52.2837C36.8068 52.5227 36.8033 52.524 36.2463 52.524C35.6926 52.524 35.6871 52.5219 35.7754 52.3438C35.8245 52.2448 35.9254 52.0375 35.9997 51.8833C36.0739 51.7291 36.1529 51.585 36.1751 51.563C36.2527 51.486 36.5777 50.7838 36.5777 50.6932C36.5777 50.6324 36.7939 50.6019 37.2244 50.6019H37.8712L37.6875 50.942ZM39.3196 50.8622C39.2243 51.0054 39.1036 51.2126 39.0515 51.3227C38.9995 51.4328 38.9303 51.5422 38.8978 51.5658C38.8653 51.5895 38.7305 51.8221 38.5983 52.0828L38.3578 52.5568L37.9712 52.5333C37.5012 52.5048 37.4955 52.5001 37.6568 52.2711C37.7277 52.1703 37.7858 52.0239 37.7858 51.9455C37.7858 51.8673 37.8191 51.8032 37.86 51.8032C37.9007 51.8032 37.958 51.6951 37.9871 51.563C38.0163 51.4308 38.0735 51.3227 38.1143 51.3227C38.1551 51.3227 38.1885 51.2819 38.1885 51.232C38.1885 50.8591 38.5231 50.6019 39.0084 50.6019H39.4929L39.3196 50.8622ZM40.9268 50.7135C40.9268 50.7748 40.8804 50.8427 40.8237 50.8643C40.767 50.886 40.6492 51.0425 40.5619 51.2121C40.4746 51.3817 40.358 51.5686 40.3026 51.6275C40.2473 51.6864 40.2019 51.7817 40.2019 51.8392C40.2019 51.8967 40.1476 51.9886 40.0811 52.0435C40.0147 52.0983 39.9592 52.2018 39.9577 52.2735C39.9527 52.5283 39.7747 52.6462 39.4588 52.6041L39.1586 52.5641L39.3288 52.2037C39.4225 52.0054 39.5692 51.7171 39.655 51.563C39.7408 51.4088 39.8525 51.1836 39.9033 51.0624C39.9541 50.9412 40.0239 50.8422 40.0585 50.8422C40.0931 50.8422 40.1214 50.7881 40.1214 50.722C40.1214 50.6313 40.2198 50.6019 40.5241 50.6019C40.8146 50.6019 40.9268 50.633 40.9268 50.7135ZM41.6602 51.5983C41.6821 52.6394 41.6027 52.7643 40.9181 52.7643H40.451L40.5634 52.544C40.6252 52.4229 40.7505 52.1616 40.842 51.9634C41.0254 51.5659 41.1568 51.3457 41.3093 51.1802C41.3647 51.1202 41.4111 51.0285 41.4126 50.9766C41.4206 50.6787 41.6531 51.2624 41.6602 51.5983Z" fill="#3E5BF1"/>
</svg>
