<svg width="34" height="34" viewBox="0 0 34 34" fill="none" xmlns="http://www.w3.org/2000/svg">
<path fill-rule="evenodd" clip-rule="evenodd" d="M8.5 26.9167L9.91667 26.9167C9.91667 29.2639 11.8195 31.1667 14.1667 31.1667H25.5C27.8472 31.1667 29.75 29.2639 29.75 26.9167V11.3334C29.75 8.98616 27.8472 7.08337 25.5 7.08338C25.5 4.73617 23.5972 2.83337 21.25 2.83337H8.5C6.15279 2.83337 4.25 4.73616 4.25 7.08337L4.25 22.6667C4.25 25.0139 6.15279 26.9167 8.5 26.9167ZM11.3333 24.0834H11.3355L21.25 24.0834C22.0324 24.0834 22.6667 23.4491 22.6667 22.6667L22.6667 8.50004V7.08338C22.6667 6.30097 22.0324 5.66671 21.25 5.66671L8.5 5.66671C7.7176 5.66671 7.08334 6.30097 7.08334 7.08337L7.08333 22.6667C7.08333 23.4491 7.7176 24.0834 8.5 24.0834H11.3311H11.3333ZM26.9167 11.3334C26.9167 10.551 26.2824 9.91671 25.5 9.91671L25.5 22.6667C25.5 25.0139 23.5972 26.9167 21.25 26.9167L12.75 26.9167C12.75 27.6991 13.3843 28.3334 14.1667 28.3334H25.5C26.2824 28.3334 26.9167 27.6991 26.9167 26.9167V11.3334ZM18.4167 8.50004C19.1991 8.50004 19.8333 9.13431 19.8333 9.91671C19.8333 10.6991 19.1991 11.3334 18.4167 11.3334H11.3333C10.5509 11.3334 9.91667 10.6991 9.91667 9.91671C9.91667 9.13431 10.5509 8.50004 11.3333 8.50004H18.4167ZM19.8333 14.875C19.8333 14.0926 19.1991 13.4584 18.4167 13.4584H11.3333C10.5509 13.4584 9.91667 14.0926 9.91667 14.875C9.91667 15.6574 10.5509 16.2917 11.3333 16.2917H18.4167C19.1991 16.2917 19.8333 15.6574 19.8333 14.875ZM18.4167 18.4167C19.1991 18.4167 19.8333 19.051 19.8333 19.8334C19.8333 20.6158 19.1991 21.25 18.4167 21.25H11.3333C10.5509 21.25 9.91667 20.6158 9.91667 19.8334C9.91667 19.051 10.5509 18.4167 11.3333 18.4167H18.4167Z" fill="white"/>
</svg>
