<svg width="300" height="256" viewBox="0 0 300 256" fill="none" xmlns="http://www.w3.org/2000/svg">
<g clip-path="url(#clip0_3520_21728)">
<rect width="300" height="256" fill="white"/>
<circle cx="126.5" cy="64.4999" r="22.1247" stroke="#E3E7ED"/>
<circle cx="126.496" cy="64.5001" r="92.2613" stroke="#E3E7ED"/>
<circle cx="126.5" cy="64.5" r="190" stroke="#E3E7ED"/>
<path fill-rule="evenodd" clip-rule="evenodd" d="M111.878 20.0294C110.852 20.4138 107.028 21.5502 103.38 22.5549C97.424 24.1955 88.5916 26.781 71.1087 32.0018C66.0879 33.501 65.2123 33.8271 64.9407 34.2986C64.5905 34.9062 82.3427 101.458 83.0805 102.304C83.4652 102.745 96.788 99.3294 100.287 97.8924C104.381 96.2113 105.961 95.4946 106.148 95.2345C106.258 95.0818 106.873 94.7285 107.516 94.4495C108.159 94.1704 108.72 93.8236 108.764 93.6789C108.807 93.5339 109.037 93.3624 109.274 93.298C109.512 93.2333 109.971 92.9371 110.296 92.6392C110.62 92.3415 111.217 91.9259 111.623 91.7158C112.029 91.5055 112.335 91.237 112.303 91.1187C112.271 91.0004 112.57 90.7355 112.967 90.53C113.364 90.3245 113.66 90.0504 113.626 89.9211C113.591 89.7916 113.691 89.6513 113.848 89.6091C114.203 89.5142 116.75 86.8885 116.792 86.5756C116.808 86.45 116.926 86.3196 117.054 86.2853C117.277 86.2256 118.353 84.8981 119.612 83.131C120.987 81.2004 124.212 75.2592 124.104 74.8565C124.072 74.7359 124.22 74.3673 124.433 74.0378C124.646 73.7082 124.781 73.2932 124.734 73.1159C124.686 72.9385 124.723 72.7322 124.816 72.6569C125.055 72.4635 125.566 70.9141 125.838 69.553C125.966 68.9163 126.156 68.2909 126.26 68.163C126.461 67.9157 126.351 66.3877 125.884 62.9677C125.726 61.8051 125.598 60.4221 125.6 59.8943C125.604 58.8781 125.169 55.9621 124.244 50.8089C123.934 49.0842 123.621 47.0113 123.549 46.2023C123.359 44.0942 120.265 30.3535 118.679 24.5772C116.833 17.8524 117.143 18.059 111.878 20.0294ZM117.214 28.7885C119.826 38.66 121.403 46.4141 122.722 55.8727C122.965 57.6152 123.331 60.2497 123.536 61.7275C123.741 63.2052 123.845 64.5225 123.767 64.6553C123.69 64.7878 123.71 65.2088 123.813 65.5905C123.941 66.0699 123.852 66.3686 123.523 66.5554C123.262 66.704 123.02 66.7217 122.986 66.5942C122.952 66.4669 122.752 66.4089 122.541 66.4654C122.33 66.5219 122.216 66.7848 122.286 67.0493C122.467 67.7228 121.566 68.1941 121.197 67.6187C120.77 66.9503 119.887 67.2952 120.09 68.0513C120.18 68.3876 120.096 68.7774 119.903 68.9176C119.568 69.1606 119.271 68.9058 118.532 67.7448C117.975 66.8689 117.413 67.4977 117.807 68.5554C118.142 69.4536 118.121 69.5667 117.597 69.7073C117.25 69.8001 116.974 69.7083 116.912 69.4798C116.856 69.269 116.695 69.1273 116.554 69.165C116.414 69.2027 116.252 69.061 116.196 68.8502C116.139 68.6394 115.908 68.5165 115.682 68.5771C115.362 68.6627 115.347 68.8806 115.615 69.5536C115.804 70.0301 115.875 70.4425 115.773 70.4698C115.404 70.5686 114.566 69.9215 114.437 69.4391C114.341 69.0836 114.126 68.994 113.666 69.1173C112.96 69.3065 112.949 69.4813 113.591 70.3701C114.292 71.3421 112.837 71.4253 111.995 70.4615C111.15 69.4941 110.27 69.6746 110.805 70.7056C111.166 71.4023 111.147 71.4355 110.264 71.6722C109.621 71.8444 109.319 71.8032 109.246 71.5339C109.19 71.3231 109.029 71.1814 108.888 71.2191C108.748 71.2567 108.571 71.0576 108.496 70.7765C108.42 70.4926 108.188 70.3111 107.976 70.3681C107.725 70.4352 107.659 70.7215 107.786 71.1932C108.02 72.0692 106.632 72.4561 106.121 71.657C105.941 71.3762 105.601 71.2784 105.189 71.3887C104.695 71.521 104.604 71.6519 104.81 71.9343C105.019 72.2227 104.952 72.3064 104.51 72.309C103.676 72.314 102.672 73.0905 102.49 73.8703C102.402 74.2437 102.142 74.5849 101.911 74.6284C101.017 74.7968 101.507 75.6211 102.411 75.4695C102.888 75.3896 101.25 76.0323 98.77 76.8977C95.3366 78.0962 93.6132 78.5742 91.5413 78.9031C86.0847 79.7692 85.0015 80.3476 86.0728 81.8224C86.6344 82.5957 101.211 79.1658 103.831 77.6438C104.441 77.2899 104.497 77.3173 104.696 78.0617C104.903 78.8323 104.874 78.8679 103.787 79.1589C102.18 79.5895 102.13 80.3634 103.729 80.0502C104.676 79.8649 104.855 79.904 104.743 80.2723C104.626 80.656 103.351 81.0558 95.7812 83.0827L86.9557 85.4456L87.1312 86.0851C87.4976 87.4199 87.6715 87.4281 92.3166 86.3357C94.6967 85.776 98.555 84.7444 100.891 84.0432C103.679 83.2063 105.117 82.8679 105.077 83.0583C105.045 83.2177 105.001 83.5685 104.98 83.8376C104.959 84.1067 104.735 84.3826 104.482 84.4504C103.094 84.8223 102.939 85.9467 104.322 85.6079L105.157 85.4035L104.249 86.1031C103.465 86.7077 102.343 87.0634 95.9951 88.7207C87.9569 90.8192 88.0081 90.7939 88.8984 92.1858C89.2778 92.7787 89.6083 92.7531 93.9968 91.7917C99.5217 90.5813 100.034 90.4383 102.259 89.4874C104.514 88.524 104.579 88.5157 104.508 89.1971C104.473 89.5274 104.143 89.7447 103.357 89.9553C101.927 90.3387 101.501 90.6664 101.66 91.261C101.806 91.8066 103.039 91.6229 103.758 90.948C104.087 90.6404 104.161 90.6595 104.163 91.0518C104.167 91.6052 102.748 92.5836 101.429 92.937C100.8 93.1053 100.561 93.2929 100.633 93.561C100.711 93.8505 101.048 93.8606 102.013 93.6019C103.249 93.271 103.704 93.4387 103.154 94.0226C102.37 94.8549 96.5207 96.9224 89.5435 98.833L84.9127 100.101L83.5819 95.7334C82.0451 90.689 66.9227 35.6384 67.0575 35.5793C67.8424 35.2359 98.5241 26.2824 109.889 23.0806L115.3 21.5558L117.214 28.7885ZM72.2346 38.9636L71.7918 39.7305L74.4447 49.8058C75.9035 55.3473 77.1552 60.3755 77.2261 60.9796C77.4898 63.227 77.4066 63.2219 84.172 61.4091C87.4438 60.5325 90.8277 59.7591 91.6916 59.6909C93.6595 59.535 95.4569 58.4911 95.96 57.2115C96.6379 55.4874 90.5212 34.4156 89.2149 33.9752C89.0318 33.9136 85.2361 34.8384 80.7796 36.0301L72.6772 38.197L72.2346 38.9636ZM102.3 31.0813C93.406 33.6125 93.5047 33.5666 94.0297 34.9405L94.2671 35.5616L103.283 33.066C110.559 31.0522 112.35 30.4835 112.559 30.121C112.882 29.5611 112.582 28.3372 112.139 28.4135C111.117 28.5899 109.771 28.9548 102.3 31.0813ZM88.8378 38.4627C89.3186 39.56 90.4408 43.2472 91.51 47.2406L93.3532 54.1266L92.2917 53.5358C91.708 53.2107 91.1414 52.9687 91.0325 52.9978C90.9237 53.027 90.6161 52.9246 90.3488 52.7702C90.0815 52.6159 89.641 52.5491 89.3701 52.6216C88.7073 52.7992 88.6375 52.3721 89.1862 51.4938C89.4352 51.0954 89.6506 50.4582 89.6654 50.0776C89.6798 49.6972 89.7716 49.2977 89.8692 49.1896C90.1235 48.9081 89.6291 45.168 89.2377 44.4126C89.0066 43.9662 89.0144 43.6998 89.2641 43.5184C90.4913 42.6271 88.1901 40.2606 85.5032 39.6506C82.1202 38.8829 76.873 41.6834 77.4763 43.9349C77.5273 44.1253 77.454 44.3117 77.3134 44.3494C77.0239 44.427 77.595 46.8158 77.9524 47.0224C78.0803 47.096 78.5072 48.2872 78.9008 49.6694C79.5942 52.1041 80.4804 53.5113 81.5683 53.905C81.7006 53.9528 81.4204 54.2626 80.9457 54.5936C80.0914 55.1889 78.9665 56.3867 78.6965 56.9879C78.6197 57.1592 78.4994 56.8217 78.429 56.238C78.3589 55.6543 77.4637 51.7654 76.4399 47.5961L74.5785 40.0155L81.2939 38.2931L88.0094 36.5709L88.8378 38.4627ZM95.9969 37.4504C95.8196 37.6135 95.4896 37.863 95.2641 38.0047C94.7574 38.3237 95.0039 39.4112 95.6505 39.7085C96.119 39.9239 102.207 38.1505 103.016 37.5626C103.462 37.2392 103.169 36.1342 102.542 35.772C102.019 35.4705 96.6542 36.8465 95.9969 37.4504ZM84.7896 44.9937C84.7208 45.1124 84.5675 45.1535 84.4487 45.0851C84.33 45.0163 84.3862 44.9191 84.5735 44.869C84.7608 44.8188 84.858 44.8749 84.7896 44.9937ZM83.5935 45.9532C84.0491 45.8311 84.8958 46.4982 84.9309 47.0072C85.0001 48.0129 86.3454 47.2627 86.9574 45.8773C87.142 45.4592 87.1779 45.4512 87.2807 45.806C87.4269 46.3107 86.6058 47.5455 85.8406 47.971C85.1707 48.3438 85.0392 48.8671 85.5073 49.2996C85.777 49.5486 85.977 49.455 86.7018 48.741C87.1804 48.2693 87.5907 47.9526 87.6134 48.0371C87.6693 48.2456 87.1618 49.1052 86.9489 49.1622C86.4286 49.3017 85.2755 50.5555 85.364 50.8856C85.4466 51.1941 85.6668 51.1836 86.4494 50.8336L87.4311 50.3947L87.0544 51.0473C86.6511 51.7458 84.8534 52.4184 84.4372 52.0263C84.3126 51.909 83.9479 51.8835 83.6267 51.9696C82.5997 52.2448 81.9077 51.5338 81.2189 49.4958L80.5911 47.6373L81.4654 46.9405C81.9463 46.5572 82.488 46.1061 82.6689 45.938C82.8498 45.7701 83.0633 45.7233 83.143 45.834C83.2231 45.9445 83.4256 45.9982 83.5935 45.9532ZM86.1843 45.259C86.1351 45.4228 85.9574 45.5917 85.7895 45.6345C85.6058 45.681 85.6106 45.5721 85.801 45.3617C86.2068 44.9128 86.2952 44.8891 86.1843 45.259ZM96.2173 42.982C96.1929 43.2148 96.3217 43.6732 96.504 44.0007L96.8352 44.5961L102.549 43.0652C108.766 41.3991 109.048 41.2508 108.356 40.0064L108.022 39.4075L102.142 40.9831C97.1468 42.3216 96.2549 42.6225 96.2173 42.982ZM85.643 46.1344C85.5743 46.2531 85.4209 46.2942 85.3021 46.2258C85.1834 46.1571 85.2396 46.0599 85.4269 46.0097C85.6142 45.9595 85.7114 46.0156 85.643 46.1344ZM106.96 44.0919C100.682 46.0643 97.6681 47.1637 97.5457 47.5265C97.3712 48.0446 97.6136 48.6948 98.083 48.9667C98.7355 49.3445 112.488 44.998 112.707 44.3444C113.015 43.4222 111.975 42.3004 111.197 42.7172C111.09 42.7748 109.183 43.3933 106.96 44.0919ZM83.2978 56.1658C83.3009 56.7089 82.6537 57.1245 82.529 56.6594C82.4795 56.4744 82.9792 55.7728 83.2565 55.6374C83.2774 55.6274 83.2959 55.8651 83.2978 56.1658ZM84.9747 55.5862C84.8543 55.8479 84.6891 56.0237 84.6075 55.9768C84.3829 55.8469 84.6131 55.2657 84.9218 55.183C85.0914 55.1375 85.1113 55.2894 84.9747 55.5862ZM87.1311 54.8832C87.2639 55.0081 87.3342 55.1772 87.2869 55.2585C87.1566 55.4846 86.2837 55.3403 86.2143 55.0812C86.1286 54.7613 86.8388 54.608 87.1311 54.8832ZM88.6874 55.4521C88.6187 55.5708 88.5215 55.5147 88.4713 55.3274C88.4211 55.1401 88.4772 55.0429 88.5961 55.1113C88.7147 55.18 88.7558 55.3333 88.6874 55.4521ZM81.0844 58.3337C80.9611 58.9318 80.8464 59.6094 80.8293 59.8399C80.8116 60.0764 80.711 59.9699 80.5988 59.5963C80.4894 59.2318 80.5568 58.5666 80.7489 58.1182C81.2344 56.9844 81.3472 57.0569 81.0844 58.3337ZM91.1336 56.1469C90.952 56.5423 90.8374 56.55 90.2866 56.2057C89.3479 55.6183 89.7404 54.7641 90.6959 55.3157C91.2172 55.6167 91.3027 55.7792 91.1336 56.1469ZM84.3126 58.3432C84.2376 58.8237 84.1 59.2374 84.007 59.2623C83.7845 59.322 83.7643 58.1919 83.9789 57.6885C84.2598 57.0288 84.4573 57.4163 84.3126 58.3432ZM86.8785 56.7812C86.5973 58.3125 86.4576 58.6057 85.9427 58.7437C85.4968 58.8632 85.3701 58.7766 85.3675 58.35C85.3658 58.0492 85.4659 57.7759 85.5901 57.7426C85.714 57.7094 85.7695 57.5097 85.713 57.2989C85.6485 57.0579 85.8533 56.8505 86.2642 56.7404C86.6238 56.644 86.9004 56.6625 86.8785 56.7812ZM88.2062 57.8173C87.8407 58.4504 87.6551 57.9877 87.9206 57.1053C88.0762 56.5879 88.1302 56.5595 88.3033 56.902C88.414 57.121 88.3705 57.5331 88.2062 57.8173ZM82.7901 58.4003C82.6336 58.5184 82.5643 58.8352 82.6365 59.1046C82.7272 59.4434 82.59 59.6407 82.1917 59.7446C81.8669 59.8292 81.7134 59.7808 81.8396 59.6336C81.9627 59.4899 82.0837 59.1513 82.1087 58.8809C82.1335 58.6105 82.3611 58.3438 82.6145 58.2877C82.8852 58.2278 82.9577 58.2744 82.7901 58.4003ZM90.2374 57.319C90.3619 57.4363 90.2269 57.5957 89.9377 57.6732C89.6484 57.7507 89.3807 57.6992 89.343 57.5587C89.3054 57.4181 89.4402 57.2588 89.6428 57.2045C89.8454 57.1502 90.1129 57.2018 90.2374 57.319ZM92.5372 56.7028C92.6635 56.8218 92.5022 56.9841 92.1725 57.0703C91.6969 57.1942 91.6433 57.1559 91.8984 56.874C92.2916 56.4394 92.265 56.4465 92.5372 56.7028ZM114.333 54.7447C112.745 55.2826 106.307 57.2419 100.026 59.0987C93.7453 60.9559 87.0161 62.9797 85.0723 63.5958L81.5384 64.7167L81.7088 65.6624C81.9314 66.8969 81.6951 66.9257 88.8161 64.7914C92.0929 63.8093 99.9698 61.4697 106.32 59.592L117.867 56.1781L118.334 55.3868L118.8 54.5955L118.01 54.1812C117.248 53.7813 117.121 53.8008 114.333 54.7447ZM115.76 60.0695C114.265 60.8669 95.1461 66.4713 89.0045 67.9127C82.6015 69.4153 82.6651 69.3845 83.0375 70.8072C83.1931 71.4012 83.3622 71.4917 84.2316 71.4458C85.8262 71.3615 103.448 66.546 110.963 64.1411C118.3 61.7926 119.127 61.392 118.841 60.3239C118.516 59.1114 117.686 59.0428 115.76 60.0695ZM110.552 66.6953C107.35 67.6744 104.079 68.7898 103.284 69.1737C102.459 69.5724 98.1182 70.9142 93.1672 72.3017C88.398 73.6382 84.4103 74.7571 84.3055 74.7881C83.7076 74.965 84.6259 76.6227 85.3156 76.6118C86.395 76.5946 105.309 71.1593 106.178 70.6165C106.59 70.3594 109.926 69.2546 113.591 68.1618C120.529 66.0935 120.889 65.9238 120.603 64.857C120.423 64.1819 119.267 64.0479 117.693 64.5197C116.967 64.7374 113.754 65.7162 110.552 66.6953ZM123.366 70.1022C123.287 70.4373 123.144 70.6657 123.047 70.6101C122.78 70.4559 122.926 69.6488 123.236 69.5657C123.424 69.5151 123.464 69.6794 123.366 70.1022ZM108.866 74.2036C109.676 74.134 112.218 73.5825 114.514 72.9781C119.151 71.7578 120.002 71.7734 119.316 73.0653C118.983 73.6919 118.974 73.6945 118.09 73.4002C117.012 73.0422 115.747 73.3076 115.895 73.8605C115.952 74.0714 116.142 74.2079 116.319 74.1639C116.495 74.1198 116.987 74.2295 117.411 74.4069L118.182 74.73L117.807 75.3863L117.431 76.0428L116.522 75.6056C114.727 74.743 114.067 75.6621 115.798 76.6132L116.747 77.1339L116.26 77.7841C115.782 78.4236 115.763 78.4283 115.134 78.065C113.912 77.3594 112.938 77.1487 112.712 77.5404C112.558 77.808 112.822 78.0749 113.719 78.5588L114.936 79.2145L114.535 79.8544C114.009 80.6958 113.97 80.6971 112.708 79.9183C111.538 79.1967 111.088 79.1673 111.02 79.8085C110.996 80.0432 111.401 80.4549 111.973 80.7766C113.14 81.4326 113.217 81.5912 112.662 82.1865C112.256 82.6217 111.342 82.4202 111.192 81.8627C111.048 81.3253 109.759 80.8283 109.491 81.2069C109.259 81.5348 109.391 81.7444 110.299 82.488C111.367 83.3627 111.548 83.9264 110.823 84.1207C110.62 84.175 110.49 84.3641 110.533 84.5406C110.577 84.7174 110.331 84.598 109.988 84.2759C109.645 83.9537 109.205 83.7325 109.011 83.7845C108.538 83.9112 109.492 86.1638 110.084 86.318C110.312 86.3775 110.543 86.5927 110.597 86.7966C110.652 87.0003 110.808 87.1373 110.944 87.1008C111.08 87.0644 111.172 87.2247 111.147 87.4572C111.049 88.3973 109.4 87.4387 109.083 86.2571C109.042 86.1025 108.906 86.0036 108.782 86.0368C108.658 86.07 108.435 85.914 108.287 85.6903C108.138 85.4667 107.823 85.1277 107.586 84.9372C107.255 84.6706 107.188 84.4371 107.295 83.9197C107.671 82.1092 106.656 76.5053 105.702 75.1214C105.282 74.513 105.287 74.5118 108.866 74.2036ZM121.688 70.9504C121.813 71.4154 121.026 72.3395 120.71 72.0994C119.823 71.4255 119.827 71.3007 120.742 71.0556C121.242 70.9216 121.668 70.8742 121.688 70.9504ZM122.472 72.8419C122.124 73.4961 122.089 73.5133 122.141 73.0087C122.216 72.2729 122.54 71.6598 122.719 71.9124C122.797 72.0222 122.686 72.4404 122.472 72.8419ZM120.595 74.4218C120.368 75.0425 120.33 75.06 120.049 74.6724C119.847 74.3938 119.876 74.0949 120.137 73.7705C120.64 73.1451 120.916 73.5381 120.595 74.4218ZM119.61 75.8569C119.995 76.3872 119.242 77.472 118.717 77.1442C118.37 76.9284 118.351 76.7695 118.609 76.2656C118.984 75.5354 119.286 75.4116 119.61 75.8569ZM121.43 75.4359C121.361 75.5546 121.264 75.4985 121.214 75.3112C121.163 75.1239 121.22 75.0267 121.338 75.0951C121.457 75.1638 121.498 75.3171 121.43 75.4359ZM118.154 79.0716C117.706 79.7841 117.653 79.806 117.14 79.4925C116.637 79.1838 116.632 79.1111 117.073 78.4097C117.521 77.6973 117.575 77.6753 118.087 77.9889C118.591 78.2976 118.595 78.3703 118.154 79.0716ZM116.44 80.3007C116.716 80.4598 116.908 80.6333 116.866 80.6858C115.831 82.0019 115.521 82.2346 115.129 81.9886C114.586 81.6483 114.488 81.2214 114.927 81.1039C115.12 81.052 115.376 80.7988 115.494 80.541C115.762 79.9582 115.821 79.9431 116.44 80.3007ZM114.556 83.1888C114.624 83.4341 114.573 83.6635 114.443 83.6985C114.312 83.7335 114.088 83.9652 113.945 84.2134C113.722 84.599 113.617 84.5705 113.22 84.0184C112.801 83.4345 112.811 83.3415 113.324 83.056C113.637 82.8822 113.856 82.598 113.812 82.4244C113.685 81.9252 114.413 82.6733 114.556 83.1888ZM117.133 82.5669C116.897 83.0068 116.608 83.3923 116.49 83.4237C116.146 83.5159 116.601 82.3261 116.998 82.0954C117.198 81.9796 117.406 81.8583 117.461 81.826C117.516 81.7936 117.369 82.1271 117.133 82.5669ZM112.665 85.3292C112.732 85.5697 112.596 85.9448 112.363 86.163C111.753 86.7351 111.2 85.8264 111.638 84.9717C111.98 84.304 112.423 84.4585 112.665 85.3292ZM108.519 87.4742C109.636 88.8258 109.684 88.986 109.132 89.5036C108.8 89.8149 108.671 89.8353 108.597 89.5879C108.544 89.4086 108.174 88.8774 107.775 88.4073C107.019 87.5161 106.721 86.262 107.282 86.33C107.461 86.3514 108.018 86.8664 108.519 87.4742ZM115.592 84.6231C115.567 84.8556 115.395 85.0866 115.209 85.1363C115.024 85.1861 114.739 85.4559 114.578 85.7359C114.311 86.1988 114.274 86.2086 114.176 85.8434C114.117 85.6227 114.227 85.3995 114.421 85.3476C114.614 85.2958 114.869 85.0425 114.988 84.7848C115.107 84.5271 115.301 84.2902 115.42 84.2584C115.538 84.2265 115.616 84.3906 115.592 84.6231ZM113.573 86.6606C113.61 86.796 113.417 87.1104 113.144 87.3587L112.649 87.8104L113.018 87.1445C113.451 86.3651 113.486 86.3343 113.573 86.6606ZM107.562 90.7769C107.141 91.0933 106.847 90.6225 106.837 89.6175L106.83 88.8878L107.369 89.7019C107.823 90.3867 107.853 90.5574 107.562 90.7769Z" fill="#E9ECFF"/>
<path fill-rule="evenodd" clip-rule="evenodd" d="M204.113 -30.6636C203.37 -30.7866 200.704 -31.4204 198.189 -32.072C194.081 -33.1361 187.938 -34.6232 175.743 -37.5055C172.241 -38.3333 171.608 -38.4392 171.285 -38.2516C170.868 -38.0099 158.634 7.68599 158.783 8.44236C158.861 8.83673 167.961 11.3682 170.536 11.7118C173.549 12.1137 174.735 12.2285 174.936 12.1377C175.053 12.0844 175.541 12.085 176.019 12.1391C176.497 12.1932 176.95 12.1791 177.025 12.1078C177.101 12.0364 177.296 12.0131 177.46 12.0561C177.623 12.0989 177.998 12.0801 178.293 12.014C178.588 11.9478 179.086 11.9051 179.4 11.9191C179.713 11.9329 179.988 11.8779 180.009 11.7966C180.031 11.7153 180.3 11.66 180.606 11.6737C180.913 11.6873 181.183 11.6257 181.207 11.5368C181.23 11.4478 181.338 11.3987 181.446 11.4275C181.69 11.4924 184.106 10.8022 184.237 10.6302C184.29 10.5612 184.405 10.5239 184.493 10.5473C184.646 10.5881 185.742 10.1667 187.096 9.54604C188.576 8.86795 192.532 6.43675 192.605 6.16007C192.628 6.0772 192.842 5.90847 193.081 5.78526C193.321 5.66205 193.544 5.46137 193.576 5.33953C193.609 5.21769 193.701 5.10759 193.783 5.09461C193.991 5.06149 194.826 4.31411 195.455 3.59734C195.749 3.26207 196.076 2.95477 196.182 2.91432C196.386 2.83614 196.844 1.88883 197.738 -0.30677C198.042 -1.05312 198.44 -1.92018 198.622 -2.23356C198.973 -2.83692 199.713 -4.72174 200.927 -8.10612C201.334 -9.23875 201.858 -10.5799 202.092 -11.0863C202.701 -12.4061 205.567 -21.6451 206.603 -25.6265C207.808 -30.2618 207.921 -30.0329 204.113 -30.6636ZM204.288 -23.6219C202.46 -16.8511 200.742 -11.6954 198.286 -5.61351C197.834 -4.4931 197.149 -2.79939 196.765 -1.84962C196.381 -0.899809 195.992 -0.0799533 195.9 -0.0274751C195.808 0.0248275 195.676 0.282401 195.606 0.544686C195.519 0.874034 195.363 1.02116 195.104 1.01991C194.897 1.01883 194.747 0.946518 194.771 0.858914C194.794 0.771485 194.694 0.668271 194.55 0.629667C194.405 0.591063 194.247 0.708351 194.198 0.890054C194.075 1.35283 193.377 1.3246 193.355 0.855959C193.329 0.311595 192.686 0.214535 192.547 0.734014C192.486 0.96505 192.302 1.16823 192.139 1.18558C191.857 1.21558 191.767 0.961834 191.725 0.0179364C191.694 -0.694256 191.144 -0.512841 191.016 0.251885C190.907 0.901223 190.856 0.961513 190.496 0.865447C190.258 0.801996 190.125 0.652558 190.167 0.495608C190.205 0.350772 190.158 0.211213 190.061 0.185477C189.965 0.159741 189.917 0.0201817 189.956 -0.124654C189.994 -0.269491 189.899 -0.421871 189.744 -0.463283C189.524 -0.521821 189.44 -0.397249 189.369 0.0949755C189.318 0.443455 189.219 0.713221 189.149 0.694503C188.896 0.627028 188.619 -0.0454372 188.707 -0.376893C188.772 -0.621095 188.675 -0.748205 188.358 -0.832525C187.873 -0.961814 187.807 -0.861343 187.884 -0.112477C187.969 0.706352 187.074 0.257279 186.903 -0.604936C186.732 -1.47029 186.146 -1.66406 186.111 -0.867363C186.087 -0.329009 186.065 -0.315606 185.458 -0.47737C185.016 -0.595054 184.851 -0.72314 184.9 -0.908179C184.938 -1.05301 184.891 -1.19257 184.794 -1.21831C184.698 -1.24405 184.661 -1.42311 184.712 -1.61622C184.764 -1.81127 184.689 -1.99855 184.543 -2.03753C184.371 -2.08339 184.233 -1.93549 184.147 -1.61141C183.987 -1.0096 183.027 -1.25514 182.997 -1.90592C182.986 -2.13464 182.817 -2.3094 182.534 -2.38483C182.195 -2.47519 182.096 -2.42842 182.122 -2.19C182.148 -1.94655 182.079 -1.91971 181.815 -2.06964C181.317 -2.35218 180.453 -2.23424 180.077 -1.8325C179.898 -1.64014 179.626 -1.52629 179.473 -1.57951C178.883 -1.78561 178.893 -1.12714 179.483 -0.907637C179.794 -0.791751 178.599 -0.970439 176.826 -1.30483C174.372 -1.76777 173.182 -2.07373 171.836 -2.5878C168.292 -3.94175 167.449 -3.96861 167.581 -2.72371C167.65 -2.071 177.502 0.881347 179.583 0.873335C180.067 0.871451 180.091 0.90704 179.955 1.41844C179.814 1.94793 179.784 1.95902 179.038 1.7601C177.934 1.46582 177.639 1.90909 178.698 2.27059C179.325 2.48471 179.418 2.56937 179.225 2.7502C179.024 2.93861 178.128 2.73967 172.928 1.35269L166.865 -0.264577L166.751 0.17625C166.511 1.09627 166.612 1.16072 169.751 2.10196C171.36 2.58427 174.01 3.29211 175.64 3.67498C177.587 4.13207 178.558 4.42324 178.47 4.52319C178.396 4.60683 178.249 4.80064 178.145 4.95361C178.04 5.10664 177.812 5.19403 177.638 5.14765C176.685 4.89352 176.207 5.50972 177.147 5.78193L177.714 5.94647L176.934 6.05178C176.26 6.14287 175.47 5.97016 171.124 4.78188C165.62 3.27698 165.659 3.27952 165.712 4.41302C165.735 4.8959 165.941 4.99393 168.882 5.92519C172.585 7.09764 172.939 7.18806 174.59 7.38442C176.262 7.58336 176.304 7.60094 176.028 7.98201C175.894 8.16671 175.623 8.18314 175.083 8.03921C174.1 7.77721 173.734 7.82637 173.625 8.23489C173.526 8.60971 174.322 8.92263 174.982 8.7675C175.282 8.69684 175.32 8.73356 175.187 8.96794C174.999 9.29852 173.82 9.39473 172.914 9.15323C172.482 9.03816 172.275 9.06788 172.226 9.25204C172.173 9.45095 172.37 9.57256 173.034 9.74935C173.882 9.97554 174.096 10.2314 173.569 10.3906C172.817 10.6174 168.627 9.84391 163.819 8.59069L160.628 7.759L161.332 4.70319C162.146 1.17407 172.006 -36.7751 172.106 -36.7641C172.691 -36.6996 194.021 -31.517 201.883 -29.5292L205.626 -28.5827L204.288 -23.6219ZM174.028 -32.9759L173.502 -32.6711L171.629 -25.7651C170.599 -21.9667 169.621 -18.5449 169.456 -18.161C168.843 -16.7329 168.795 -16.7645 173.444 -15.5256C175.691 -14.9265 177.971 -14.2274 178.508 -13.9721C179.733 -13.3906 181.16 -13.3962 181.898 -13.9855C182.893 -14.7795 186.471 -29.4177 185.844 -30.1274C185.757 -30.2268 183.18 -30.9768 180.119 -31.7944L174.554 -33.2805L174.028 -32.9759ZM194.625 -27.367C188.463 -28.9074 188.538 -28.9009 188.38 -27.9033L188.308 -27.4522L194.53 -25.8486C199.551 -24.5547 200.811 -24.2795 201.06 -24.4236C201.444 -24.6461 201.685 -25.4777 201.395 -25.5837C200.727 -25.829 199.8 -26.0731 194.625 -27.367ZM184.083 -27.5855C183.993 -26.7677 183.397 -24.1884 182.666 -21.4451L181.404 -16.7148L180.974 -17.4302C180.738 -17.8237 180.484 -18.1619 180.409 -18.1818C180.334 -18.2017 180.186 -18.3681 180.08 -18.5515C179.974 -18.735 179.734 -18.9257 179.548 -18.9753C179.093 -19.0967 179.198 -19.3748 179.825 -19.7096C180.11 -19.8614 180.457 -20.1669 180.596 -20.3884C180.735 -20.6099 180.926 -20.8163 181.021 -20.8472C181.269 -20.9276 182.256 -23.3232 182.282 -23.9069C182.297 -24.2518 182.393 -24.4077 182.604 -24.4301C183.64 -24.5403 183.081 -26.7373 181.691 -28.0209C179.94 -29.637 175.857 -29.7677 175.445 -28.2209C175.41 -28.0901 175.303 -28.0042 175.206 -28.03C175.007 -28.083 174.529 -26.4654 174.671 -26.22C174.721 -26.1323 174.567 -25.2771 174.328 -24.3195C173.907 -22.6327 173.952 -21.4915 174.465 -20.8844C174.527 -20.8106 174.254 -20.7222 173.858 -20.6878C173.146 -20.6262 172.066 -20.2986 171.699 -20.0332C171.595 -19.9576 171.639 -20.1997 171.797 -20.5713C171.955 -20.9428 172.755 -23.5642 173.574 -26.3967L175.063 -31.5467L179.65 -30.2712L184.238 -28.9954L184.083 -27.5855ZM188.691 -25.7353C188.529 -25.699 188.247 -25.6636 188.065 -25.6564C187.654 -25.6401 187.428 -24.9084 187.711 -24.5099C187.916 -24.2211 192.147 -23.1909 192.83 -23.2637C193.206 -23.3035 193.411 -24.0615 193.161 -24.492C192.954 -24.8504 189.289 -25.8696 188.691 -25.7353ZM179.435 -25.085C179.354 -25.0379 179.248 -25.066 179.201 -25.1475C179.154 -25.229 179.221 -25.2676 179.349 -25.2333C179.478 -25.199 179.517 -25.1323 179.435 -25.085ZM178.395 -24.9237C178.708 -24.8403 178.983 -24.1532 178.83 -23.8381C178.526 -23.2157 179.584 -23.2014 180.423 -23.8164C180.676 -24.002 180.7 -23.9944 180.64 -23.7481C180.554 -23.3975 179.642 -22.9439 179.041 -22.9528C178.514 -22.9604 178.257 -22.6939 178.387 -22.2761C178.462 -22.0355 178.614 -22.0227 179.29 -22.1994C179.736 -22.3162 180.089 -22.3641 180.073 -22.306C180.035 -22.1628 179.439 -21.825 179.292 -21.864C178.935 -21.9592 177.819 -21.608 177.759 -21.3812C177.702 -21.1693 177.837 -21.1001 178.422 -21.0402L179.157 -20.9651L178.709 -20.7058C178.23 -20.4282 176.929 -20.6437 176.816 -21.0198C176.782 -21.1322 176.574 -21.2724 176.353 -21.3312C175.647 -21.5193 175.479 -22.1795 175.767 -23.6286L176.03 -24.9499L176.79 -25.0651C177.207 -25.1285 177.684 -25.2114 177.849 -25.2495C178.015 -25.2875 178.158 -25.2422 178.167 -25.149C178.177 -25.0558 178.279 -24.9545 178.395 -24.9237ZM180.175 -24.4493C180.089 -24.3687 179.926 -24.329 179.811 -24.361C179.686 -24.3963 179.726 -24.4595 179.911 -24.5195C180.307 -24.6476 180.367 -24.6315 180.175 -24.4493ZM186.927 -22.3672C186.832 -22.237 186.752 -21.92 186.748 -21.6626L186.742 -21.1947L190.667 -20.1485C194.939 -19.0099 195.157 -19.0017 195.171 -19.9796L195.178 -20.4503L191.138 -21.5271C187.706 -22.4418 187.072 -22.5683 186.927 -22.3672ZM179.552 -24.1136C179.471 -24.0666 179.366 -24.0946 179.318 -24.1761C179.271 -24.2576 179.338 -24.2963 179.467 -24.262C179.595 -24.2277 179.634 -24.161 179.552 -24.1136ZM192.941 -18.0259C188.528 -19.003 186.358 -19.381 186.16 -19.207C185.879 -18.9584 185.801 -18.4884 185.987 -18.1657C186.246 -17.7172 195.921 -15.5928 196.275 -15.9068C196.775 -16.3499 196.54 -17.3741 195.934 -17.3925C195.85 -17.395 194.503 -17.6801 192.941 -18.0259ZM174.72 -18.9461C174.535 -18.6218 174.008 -18.5962 174.093 -18.9157C174.127 -19.0428 174.665 -19.2893 174.876 -19.2748C174.892 -19.2736 174.822 -19.1258 174.72 -18.9461ZM175.916 -18.7166C175.755 -18.6021 175.596 -18.5541 175.564 -18.6099C175.475 -18.7642 175.811 -19.0313 176.023 -18.9748C176.14 -18.9437 176.099 -18.8465 175.916 -18.7166ZM177.441 -18.3963C177.477 -18.2764 177.461 -18.1517 177.405 -18.1194C177.25 -18.0295 176.78 -18.4145 176.827 -18.5925C176.886 -18.8123 177.361 -18.6602 177.441 -18.3963ZM178.172 -17.5244C178.091 -17.4773 178.052 -17.544 178.086 -17.6727C178.121 -17.8014 178.187 -17.84 178.235 -17.7586C178.282 -17.677 178.254 -17.5717 178.172 -17.5244ZM172.659 -18.4141C172.381 -18.1003 172.081 -17.7363 171.991 -17.6049C171.9 -17.4702 171.877 -17.568 171.938 -17.8289C171.998 -18.0833 172.266 -18.4562 172.534 -18.6573C173.211 -19.1658 173.253 -19.084 172.659 -18.4141ZM179.39 -16.2727C179.147 -16.0996 179.076 -16.1343 178.866 -16.5279C178.508 -17.1992 179.035 -17.5732 179.414 -16.9174C179.622 -16.5597 179.617 -16.4337 179.39 -16.2727ZM174.578 -17.3024C174.368 -17.0421 174.145 -16.8429 174.081 -16.86C173.928 -16.9007 174.303 -17.5803 174.603 -17.8064C174.997 -18.1029 174.981 -17.8046 174.578 -17.3024ZM176.64 -17.353C175.948 -16.5379 175.764 -16.4112 175.411 -16.5055C175.104 -16.5872 175.059 -16.6821 175.203 -16.9369C175.305 -17.1165 175.459 -17.2449 175.544 -17.2222C175.629 -17.1995 175.73 -17.2994 175.769 -17.4442C175.813 -17.6097 176.006 -17.663 176.289 -17.5878C176.536 -17.5219 176.694 -17.4162 176.64 -17.353ZM177.075 -16.2814C176.641 -16.0298 176.689 -16.3688 177.149 -16.8031C177.419 -17.0578 177.461 -17.0562 177.447 -16.793C177.438 -16.6247 177.271 -16.3943 177.075 -16.2814ZM173.652 -17.79C173.518 -17.7733 173.368 -17.6085 173.319 -17.4235C173.257 -17.1907 173.108 -17.1203 172.835 -17.1948C172.613 -17.2558 172.538 -17.3372 172.664 -17.3816C172.786 -17.4249 172.974 -17.585 173.082 -17.7374C173.189 -17.8899 173.416 -17.9706 173.586 -17.9172C173.768 -17.8601 173.795 -17.8076 173.652 -17.79ZM178.455 -15.8821C178.489 -15.7696 178.354 -15.721 178.155 -15.774C177.957 -15.8269 177.815 -15.9493 177.841 -16.0459C177.866 -16.1424 178.001 -16.1911 178.141 -16.154C178.28 -16.1169 178.421 -15.9946 178.455 -15.8821ZM180.035 -15.461C180.07 -15.3469 179.918 -15.3055 179.692 -15.3672C179.367 -15.4564 179.348 -15.4975 179.596 -15.5779C179.979 -15.7019 179.961 -15.7067 180.035 -15.461ZM193.68 -9.15879C192.55 -9.38277 188.047 -10.4224 183.672 -11.469C179.297 -12.5155 174.598 -13.6163 173.23 -13.9156L170.743 -14.4592L170.52 -13.8378C170.23 -13.0268 170.079 -13.0906 175.049 -11.9213C177.336 -11.3832 182.826 -10.077 187.25 -9.01891L195.292 -7.09488L195.841 -7.40611L196.39 -7.71729L196.062 -8.2344C195.745 -8.73361 195.663 -8.76547 193.68 -9.15879ZM192.705 -5.50049C191.542 -5.53804 178.241 -8.75254 174.092 -9.99882C169.766 -11.2982 169.814 -11.2947 169.548 -10.3202C169.437 -9.91338 169.507 -9.80155 170.04 -9.53102C171.018 -9.03491 183.157 -5.86371 188.454 -4.72057C193.627 -3.60449 194.256 -3.5597 194.452 -4.29354C194.674 -5.12657 194.203 -5.45192 192.705 -5.50049ZM187.335 -3.34106C185.093 -3.85539 182.764 -4.31193 182.159 -4.35582C181.532 -4.40134 178.488 -5.08971 175.066 -5.96016C171.769 -6.7986 169.012 -7.49884 168.939 -7.51623C168.523 -7.61577 168.501 -6.31446 168.916 -6.08464C169.564 -5.7251 182.685 -2.48016 183.388 -2.50562C183.721 -2.5176 186.085 -2.03222 188.641 -1.42689C193.48 -0.280906 193.752 -0.258478 193.948 -0.991437C194.071 -1.45526 193.429 -1.931 192.331 -2.18936C191.824 -2.30836 189.576 -2.82673 187.335 -3.34106ZM193.795 3.07704C193.633 3.24968 193.47 3.33661 193.431 3.2703C193.325 3.08708 193.688 2.65641 193.901 2.71317C194.031 2.74775 193.998 2.85922 193.795 3.07704ZM183.759 0.550692C184.265 0.786691 185.967 1.32923 187.541 1.75627C190.719 2.61861 191.22 2.91932 190.369 3.45327C189.956 3.71213 189.95 3.71072 189.524 3.23247C189.006 2.65032 188.161 2.37474 188.06 2.75465C188.022 2.89949 188.088 3.04609 188.208 3.08034C188.329 3.11464 188.584 3.34825 188.775 3.59921L189.124 4.05572L188.675 4.31774L188.227 4.57993L187.835 4.00811C187.063 2.87963 186.355 3.20051 187.06 4.35998L187.446 4.99482L186.933 5.21512C186.429 5.43185 186.417 5.4283 186.167 4.99649C185.681 4.15778 185.174 3.69881 184.905 3.85449C184.721 3.96085 184.787 4.21021 185.155 4.80577L185.655 5.61278L185.197 5.85654C184.596 6.177 184.572 6.16452 184.087 5.26835C183.639 4.43814 183.381 4.26632 183.121 4.62482C183.026 4.75613 183.126 5.1401 183.356 5.52753C183.826 6.31777 183.818 6.43875 183.283 6.60278C182.892 6.72277 182.417 6.28963 182.519 5.90656C182.618 5.53736 182.021 4.79983 181.731 4.93333C181.481 5.04892 181.488 5.21906 181.773 5.97265C182.109 6.85928 182.024 7.25675 181.526 7.12396C181.386 7.08685 181.244 7.15481 181.209 7.27471C181.175 7.39484 181.07 7.23971 180.976 6.93038C180.882 6.62104 180.696 6.3387 180.562 6.30314C180.238 6.21657 180.034 7.88419 180.333 8.17868C180.448 8.29215 180.512 8.49943 180.475 8.63953C180.437 8.77945 180.483 8.91449 180.577 8.93943C180.67 8.96433 180.67 9.09111 180.576 9.22116C180.195 9.74693 179.542 8.6115 179.758 7.79971C179.787 7.6935 179.74 7.58815 179.655 7.56546C179.569 7.54271 179.49 7.3734 179.478 7.18939C179.467 7.00535 179.395 6.69561 179.319 6.50114C179.213 6.22881 179.254 6.06695 179.495 5.79577C180.339 4.84687 181.655 1.16358 181.561 0.0127936C181.52 -0.493122 181.523 -0.492327 183.759 0.550692ZM192.506 3.00726C192.42 3.32677 191.635 3.60715 191.53 3.35593C191.233 2.65104 191.278 2.57805 191.906 2.74557C192.25 2.83714 192.52 2.95494 192.506 3.00726ZM192.324 4.40158C191.892 4.67166 191.866 4.67011 192.07 4.38742C192.366 3.97519 192.769 3.72115 192.79 3.93301C192.798 4.02503 192.589 4.23579 192.324 4.40158ZM190.665 4.69882C190.318 4.99078 190.289 4.98823 190.255 4.66099C190.23 4.42588 190.349 4.25793 190.616 4.15431C191.13 3.95448 191.159 4.283 190.665 4.69882ZM189.587 5.2155C189.635 5.66307 188.815 6.05101 188.615 5.67586C188.482 5.42873 188.525 5.32755 188.852 5.11613C189.325 4.80972 189.547 4.8397 189.587 5.2155ZM190.815 5.5886C190.733 5.63568 190.695 5.56898 190.729 5.44029C190.763 5.31161 190.83 5.27298 190.877 5.3544C190.924 5.43596 190.896 5.54129 190.815 5.5886ZM187.619 6.63035C187.109 6.90091 187.069 6.89572 186.872 6.53361C186.678 6.17724 186.7 6.13237 187.203 5.86613C187.714 5.59557 187.753 5.60075 187.95 5.96286C188.145 6.31924 188.122 6.36411 187.619 6.63035ZM186.178 6.77481C186.288 6.96408 186.343 7.13302 186.3 7.15003C185.233 7.57882 184.969 7.61104 184.819 7.3302C184.613 6.9415 184.701 6.65402 185.002 6.73437C185.135 6.76979 185.374 6.7065 185.533 6.59372C185.892 6.33861 185.932 6.34995 186.178 6.77481ZM184.067 7.8484C184.024 8.01766 183.915 8.13677 183.825 8.11286C183.735 8.089 183.523 8.15018 183.352 8.24881C183.088 8.40204 183.035 8.34899 182.988 7.88446C182.938 7.39331 182.976 7.34133 183.38 7.34732C183.625 7.3509 183.853 7.25691 183.886 7.13843C183.982 6.79778 184.159 7.49258 184.067 7.8484ZM185.814 8.36092C185.523 8.54186 185.219 8.67236 185.138 8.65088C184.902 8.5879 185.58 8.03558 185.895 8.03426C186.054 8.03358 186.219 8.03275 186.263 8.03242C186.307 8.03213 186.105 8.17999 185.814 8.36092ZM182.208 8.47447C182.165 8.6404 181.956 8.81719 181.743 8.86734C181.184 8.99886 181.166 8.2685 181.72 7.90989C182.152 7.62973 182.363 7.87331 182.208 8.47447ZM179.006 8.33091C179.207 9.51783 179.181 9.62967 178.675 9.74866C178.371 9.82028 178.287 9.78813 178.328 9.61574C178.358 9.49073 178.32 9.04793 178.243 8.63138C178.098 7.84176 178.351 6.99338 178.661 7.22604C178.76 7.29999 178.915 7.79726 179.006 8.33091ZM184.192 9.05687C184.098 9.18688 183.916 9.26542 183.789 9.2314C183.661 9.19743 183.4 9.26062 183.207 9.37183C182.89 9.55589 182.865 9.54919 182.932 9.29832C182.972 9.14664 183.114 9.05153 183.247 9.087C183.38 9.12242 183.619 9.05913 183.777 8.94635C183.936 8.83357 184.133 8.7591 184.215 8.78085C184.296 8.80261 184.286 8.92682 184.192 9.05687ZM182.293 9.57823C182.268 9.67127 182.045 9.79223 181.798 9.84671L181.349 9.94595L181.797 9.67613C182.321 9.36029 182.353 9.35404 182.293 9.57823ZM177.304 9.96865C176.945 10.0129 176.932 9.63186 177.27 9.03034L177.516 8.59366L177.558 9.26296C177.593 9.82594 177.553 9.93796 177.304 9.96865Z" fill="#E9ECFF"/>
<path fill-rule="evenodd" clip-rule="evenodd" d="M188.087 137.146C188.477 136.673 190.012 135.053 191.498 133.546C193.924 131.085 197.48 127.363 204.489 119.944C206.502 117.813 206.835 117.41 206.834 117.106C206.834 116.714 179.621 89.4389 179.027 89.2353C178.717 89.1292 173.218 94.5101 171.925 96.1849C170.412 98.1443 169.847 98.9335 169.829 99.1118C169.819 99.2164 169.619 99.5597 169.386 99.8746C169.153 100.19 168.978 100.515 168.997 100.597C169.017 100.679 168.953 100.827 168.856 100.924C168.759 101.022 168.62 101.294 168.546 101.529C168.472 101.764 168.299 102.132 168.161 102.348C168.023 102.563 167.95 102.779 167.999 102.827C168.047 102.875 167.976 103.087 167.842 103.298C167.707 103.508 167.64 103.724 167.693 103.777C167.746 103.83 167.737 103.926 167.672 103.99C167.527 104.136 167.027 106.12 167.095 106.283C167.122 106.349 167.101 106.445 167.049 106.497C166.958 106.588 166.808 107.533 166.692 108.741C166.566 110.06 166.665 113.841 166.83 114.006C166.879 114.055 166.911 114.275 166.9 114.494C166.889 114.713 166.939 114.952 167.012 115.025C167.085 115.097 167.124 115.208 167.1 115.27C167.039 115.431 167.225 116.324 167.473 117.06C167.59 117.404 167.673 117.76 167.658 117.851C167.63 118.027 168.11 118.737 169.293 120.263C169.695 120.782 170.144 121.416 170.29 121.672C170.572 122.166 171.599 123.457 173.488 125.694C174.121 126.443 174.852 127.36 175.114 127.731C175.795 128.699 181.137 134.491 183.521 136.845C186.296 139.587 186.088 139.573 188.087 137.146ZM183.053 134.395C179.026 130.344 176.094 127.028 172.809 122.815C172.204 122.039 171.29 120.865 170.778 120.207C170.265 119.548 169.846 118.939 169.846 118.853C169.847 118.767 169.719 118.569 169.563 118.413C169.367 118.216 169.326 118.047 169.433 117.864C169.518 117.719 169.63 117.643 169.683 117.695C169.735 117.747 169.848 117.72 169.934 117.633C170.021 117.547 170.003 117.388 169.894 117.279C169.618 117.003 169.923 116.523 170.263 116.699C170.657 116.903 170.988 116.489 170.678 116.179C170.54 116.042 170.472 115.829 170.526 115.708C170.62 115.496 170.836 115.536 171.518 115.892C172.033 116.161 172.13 115.699 171.643 115.297C171.23 114.955 171.208 114.895 171.423 114.68C171.565 114.538 171.724 114.505 171.818 114.599C171.904 114.685 172.022 114.709 172.079 114.651C172.137 114.594 172.255 114.617 172.341 114.703C172.427 114.79 172.574 114.785 172.666 114.692C172.797 114.561 172.744 114.451 172.426 114.2C172.201 114.022 172.051 113.842 172.093 113.8C172.244 113.65 172.831 113.728 173.029 113.926C173.174 114.072 173.303 114.055 173.492 113.866C173.781 113.577 173.737 113.49 173.178 113.238C172.566 112.964 173.248 112.516 173.926 112.748C174.605 112.98 174.981 112.647 174.434 112.297C174.064 112.06 174.064 112.039 174.426 111.677C174.689 111.414 174.847 111.349 174.957 111.46C175.043 111.546 175.161 111.569 175.219 111.512C175.276 111.454 175.417 111.501 175.532 111.617C175.649 111.733 175.812 111.756 175.899 111.669C176.001 111.566 175.953 111.409 175.76 111.216C175.401 110.857 175.966 110.281 176.437 110.526C176.603 110.611 176.795 110.564 176.963 110.395C177.165 110.193 177.173 110.104 176.994 110.025C176.812 109.944 176.821 109.884 177.035 109.759C177.437 109.524 177.707 108.867 177.577 108.438C177.515 108.233 177.545 107.995 177.645 107.909C178.031 107.577 177.563 107.315 177.168 107.641C176.959 107.813 177.573 107.044 178.532 105.931C179.86 104.39 180.561 103.677 181.473 102.938C183.874 100.992 184.237 100.409 183.305 99.9942C182.817 99.7766 176.715 105.515 175.871 106.985C175.675 107.327 175.64 107.33 175.335 107.025C175.02 106.709 175.024 106.684 175.469 106.239C176.127 105.581 175.935 105.192 175.248 105.791C174.841 106.145 174.743 106.177 174.695 105.967C174.644 105.748 175.15 105.198 178.25 102.099L181.864 98.4859L181.601 98.2252C181.05 97.6811 180.963 97.7257 179.018 99.5541C178.022 100.491 176.441 102.07 175.506 103.063C174.39 104.248 173.788 104.814 173.753 104.711C173.725 104.624 173.648 104.442 173.583 104.306C173.517 104.17 173.549 103.973 173.653 103.87C174.221 103.301 173.982 102.713 173.406 103.264L173.059 103.597L173.303 103.004C173.514 102.492 173.958 102.006 176.569 99.4276C179.876 96.1628 179.859 96.1893 179.038 95.7641C178.689 95.583 178.536 95.6878 176.679 97.3809C174.341 99.5125 174.132 99.7251 173.32 100.808C172.498 101.905 172.468 101.928 172.312 101.578C172.237 101.408 172.336 101.21 172.658 100.889C173.243 100.303 173.358 100.025 173.115 99.7813C172.891 99.5579 172.346 99.9917 172.186 100.52C172.113 100.761 172.071 100.772 171.961 100.583C171.804 100.316 172.218 99.4448 172.758 98.9048C173.015 98.6475 173.079 98.4897 172.969 98.3799C172.85 98.2614 172.684 98.3508 172.289 98.7462C171.783 99.252 171.515 99.298 171.618 98.8615C171.765 98.239 174.021 95.6014 176.866 92.7244L178.755 90.8148L180.621 92.5585C182.777 94.5724 205.5 117.011 205.451 117.077C205.167 117.463 192.807 130.382 188.198 135.112L186.003 137.364L183.053 134.395ZM201.996 116.886V116.391L197.893 112.252C195.637 109.975 193.624 107.89 193.421 107.617C192.664 106.602 192.706 106.581 189.936 109.351C188.596 110.691 187.173 112.012 186.773 112.287C185.864 112.913 185.285 113.921 185.399 114.682C185.553 115.707 194.41 124.204 195.166 124.052C195.272 124.03 196.852 122.521 198.677 120.697L201.996 117.381L201.996 116.886ZM189.636 129.113C193.237 125.4 193.202 125.449 192.563 124.931L192.274 124.696L188.605 128.427C185.643 131.437 184.935 132.214 184.935 132.448C184.935 132.81 185.423 133.318 185.616 133.158C186.062 132.786 186.612 132.233 189.636 129.113ZM194.093 121.772C193.553 121.375 191.978 119.903 190.344 118.267L187.525 115.447L188.204 115.436C188.578 115.431 188.92 115.389 188.965 115.345C189.009 115.3 189.187 115.264 189.36 115.264C189.532 115.264 189.764 115.173 189.875 115.062C190.147 114.791 190.3 114.978 190.28 115.557C190.271 115.82 190.344 116.189 190.444 116.377C190.543 116.565 190.61 116.785 190.593 116.864C190.549 117.072 191.834 118.745 192.235 119.002C192.472 119.153 192.543 119.285 192.473 119.442C192.127 120.217 193.904 120.72 195.376 120.264C197.23 119.69 198.989 116.866 198.067 115.944C197.989 115.866 197.972 115.755 198.03 115.697C198.148 115.579 197.203 114.581 196.972 114.581C196.89 114.581 196.35 114.124 195.773 113.564C194.756 112.579 193.933 112.145 193.296 112.258C193.218 112.272 193.267 112.044 193.405 111.751C193.652 111.223 193.862 110.328 193.825 109.962C193.814 109.857 193.967 109.987 194.164 110.25C194.361 110.513 195.883 112.147 197.545 113.88L200.567 117.032L197.795 119.745L195.024 122.457L194.093 121.772ZM190.908 124.265C190.949 124.136 191.039 123.923 191.108 123.792C191.264 123.495 190.841 123.037 190.444 123.074C190.157 123.101 187.704 125.663 187.477 126.174C187.351 126.455 187.802 126.909 188.207 126.909C188.544 126.909 190.759 124.741 190.908 124.265ZM194.228 117.476C194.228 117.4 194.291 117.337 194.367 117.337C194.444 117.337 194.444 117.4 194.367 117.476C194.291 117.553 194.228 117.553 194.228 117.476ZM194.539 116.677C194.352 116.864 193.755 116.777 193.596 116.54C193.281 116.073 192.839 116.812 192.93 117.655C192.958 117.909 192.943 117.923 192.794 117.78C192.582 117.576 192.634 116.748 192.886 116.328C193.106 115.96 193.023 115.67 192.676 115.591C192.475 115.546 192.405 115.647 192.253 116.196C192.153 116.558 192.043 116.826 192.008 116.792C191.923 116.706 191.929 116.148 192.016 116.061C192.229 115.848 192.437 114.918 192.301 114.783C192.175 114.656 192.071 114.723 191.79 115.111L191.437 115.599L191.437 115.177C191.437 114.726 192.12 113.897 192.431 113.971C192.525 113.993 192.708 113.903 192.84 113.772C193.26 113.351 193.795 113.502 194.698 114.297L195.522 115.021L195.293 115.603C195.168 115.924 195.031 116.294 194.991 116.426C194.95 116.558 194.86 116.64 194.79 116.609C194.721 116.578 194.607 116.608 194.539 116.677ZM193.478 117.738C193.456 117.645 193.495 117.513 193.564 117.445C193.64 117.372 193.668 117.426 193.635 117.581C193.564 117.912 193.528 117.948 193.478 117.738ZM189.254 121.647C189.201 121.527 189.01 121.341 188.831 121.234L188.504 121.038L186.164 123.378C183.618 125.924 183.523 126.074 184.206 126.483L184.535 126.68L186.943 124.272C188.989 122.227 189.337 121.832 189.254 121.647ZM193.495 117.162C193.495 117.086 193.558 117.023 193.635 117.023C193.711 117.023 193.711 117.086 193.635 117.162C193.558 117.239 193.495 117.239 193.495 117.162ZM183.74 124.114C186.23 121.402 187.382 120.027 187.34 119.817C187.279 119.517 186.98 119.27 186.677 119.27C186.255 119.269 180.809 125.221 180.885 125.599C180.994 126.132 181.811 126.384 182.072 125.965C182.108 125.907 182.858 125.074 183.74 124.114ZM191.826 111.647C191.672 111.385 191.87 111.002 192.06 111.193C192.136 111.269 192.09 111.748 191.993 111.891C191.986 111.902 191.911 111.792 191.826 111.647ZM191.175 112.397C191.161 112.236 191.191 112.105 191.244 112.105C191.389 112.105 191.44 112.451 191.314 112.577C191.244 112.647 191.192 112.579 191.175 112.397ZM190.327 113.34C190.228 113.317 190.147 113.255 190.147 113.202C190.147 113.056 190.61 112.882 190.716 112.988C190.847 113.119 190.546 113.392 190.327 113.34ZM189.414 113.5C189.414 113.423 189.477 113.423 189.554 113.5C189.631 113.577 189.631 113.64 189.554 113.64C189.477 113.64 189.414 113.577 189.414 113.5ZM192.292 109.978C192.184 109.653 192.05 109.293 191.994 109.177C191.936 109.057 192.015 109.081 192.174 109.23C192.329 109.376 192.482 109.717 192.514 109.988C192.596 110.673 192.521 110.67 192.292 109.978ZM188.035 113.848C188.012 113.605 188.066 113.57 188.429 113.582C189.048 113.604 189.097 114.128 188.479 114.128C188.143 114.128 188.056 114.073 188.035 113.848ZM190.725 110.876C190.627 110.622 190.578 110.383 190.616 110.345C190.707 110.254 191.033 110.796 191.07 111.1C191.118 111.498 190.914 111.365 190.725 110.876ZM189.919 112.35C189.627 111.53 189.612 111.349 189.823 111.138C190.006 110.955 190.092 110.962 190.212 111.168C190.297 111.313 190.325 111.473 190.274 111.524C190.223 111.575 190.252 111.687 190.339 111.774C190.437 111.872 190.396 112.03 190.228 112.198C190.081 112.345 189.941 112.414 189.919 112.35ZM188.986 112.22C188.986 111.811 189.205 111.983 189.323 112.485C189.393 112.779 189.375 112.808 189.195 112.69C189.08 112.615 188.986 112.403 188.986 112.22ZM191.447 110.422C191.489 110.321 191.434 110.149 191.324 110.038C191.185 109.9 191.197 109.766 191.36 109.604C191.494 109.472 191.582 109.453 191.562 109.559C191.543 109.663 191.579 109.861 191.642 109.999C191.706 110.137 191.67 110.33 191.563 110.428C191.449 110.533 191.401 110.53 191.447 110.422ZM188.141 113.029C188.048 113.007 188.069 112.892 188.187 112.774C188.306 112.655 188.45 112.605 188.508 112.663C188.565 112.72 188.544 112.835 188.461 112.918C188.378 113.001 188.234 113.051 188.141 113.029ZM187.2 113.971C187.105 113.949 187.138 113.825 187.273 113.691C187.469 113.498 187.506 113.501 187.461 113.709C187.392 114.03 187.403 114.019 187.2 113.971ZM177.188 121.016C177.807 120.311 180.378 117.561 182.902 114.905C185.425 112.248 188.119 109.386 188.888 108.544L190.286 107.013L189.939 106.602C189.486 106.066 189.593 105.986 186.74 109.012C185.427 110.404 182.266 113.74 179.714 116.426L175.076 121.31L175.071 121.823L175.066 122.337L175.565 122.317C176.046 122.298 176.102 122.253 177.188 121.016ZM175.008 118.835C175.509 118.031 183.204 109.968 185.776 107.552C188.457 105.034 188.435 105.066 187.857 104.481C187.615 104.237 187.508 104.241 187.1 104.506C186.351 104.993 179.161 112.254 176.193 115.521C173.295 118.711 173.007 119.136 173.444 119.574C173.941 120.07 174.362 119.871 175.008 118.835ZM175.678 114.169C176.955 112.799 178.228 111.344 178.505 110.935C178.794 110.511 180.521 108.647 182.532 106.591C184.468 104.609 186.087 102.952 186.129 102.907C186.369 102.655 185.461 102.108 185.13 102.307C184.612 102.617 176.969 110.54 176.7 111.046C176.573 111.285 175.265 112.754 173.795 114.308C171.013 117.251 170.886 117.434 171.323 117.871C171.599 118.147 172.197 117.889 172.827 117.22C173.118 116.912 174.401 115.539 175.678 114.169ZM168.518 116.102C168.462 115.918 168.467 115.767 168.53 115.767C168.702 115.767 168.858 116.199 168.731 116.326C168.653 116.403 168.588 116.335 168.518 116.102ZM174.394 110.06C174.022 110.32 172.945 111.298 172.001 112.233C170.096 114.121 169.68 114.352 169.651 113.534C169.637 113.137 169.64 113.134 170.151 113.029C170.773 112.901 171.312 112.419 171.085 112.192C170.999 112.106 170.868 112.093 170.795 112.164C170.722 112.234 170.453 112.319 170.198 112.351L169.734 112.411L169.733 111.988L169.731 111.565L170.294 111.522C171.405 111.438 171.467 110.808 170.362 110.832L169.757 110.845L169.811 110.393C169.864 109.95 169.872 109.942 170.278 109.942C171.068 109.942 171.598 109.772 171.598 109.519C171.598 109.346 171.396 109.291 170.825 109.308L170.053 109.33L170.068 108.908C170.087 108.353 170.106 108.342 170.935 108.366C171.704 108.388 171.93 108.277 171.783 107.947C171.73 107.827 171.418 107.741 171.051 107.745C170.302 107.753 170.22 107.698 170.323 107.254C170.398 106.93 170.897 106.772 171.125 107C171.346 107.22 172.109 107.101 172.133 106.842C172.154 106.618 172.031 106.554 171.383 106.447C170.621 106.322 170.376 106.1 170.673 105.803C170.756 105.72 170.766 105.592 170.696 105.519C170.625 105.445 170.778 105.434 171.034 105.494C171.29 105.554 171.565 105.539 171.645 105.459C171.838 105.266 170.746 104.441 170.416 104.532C170.289 104.567 170.117 104.527 170.034 104.444C169.95 104.36 169.836 104.338 169.781 104.393C169.725 104.449 169.636 104.397 169.583 104.278C169.367 103.794 170.434 103.798 170.918 104.282C170.981 104.345 171.075 104.355 171.125 104.304C171.176 104.253 171.328 104.267 171.462 104.333C171.597 104.4 171.845 104.476 172.012 104.502C172.248 104.539 172.345 104.633 172.438 104.914C172.762 105.896 174.821 108.327 175.671 108.73C176.044 108.908 176.042 108.909 174.394 110.06ZM169.093 115.222C168.902 115.032 169.025 114.364 169.246 114.392C169.864 114.47 169.897 114.532 169.522 114.906C169.317 115.111 169.124 115.253 169.093 115.222ZM168.184 114.525C168.17 114.111 168.182 114.093 168.298 114.352C168.467 114.729 168.482 115.117 168.325 115.044C168.256 115.013 168.193 114.779 168.184 114.525ZM168.652 113.235C168.588 112.871 168.601 112.851 168.846 112.961C169.022 113.039 169.092 113.192 169.056 113.422C168.987 113.866 168.743 113.753 168.652 113.235ZM168.728 112.264C168.393 112.115 168.454 111.379 168.8 111.39C169.028 111.398 169.082 111.47 169.098 111.786C169.121 112.244 169.009 112.389 168.728 112.264ZM167.964 112.977C167.964 112.9 168.027 112.9 168.103 112.977C168.18 113.054 168.18 113.116 168.103 113.116C168.027 113.116 167.964 113.054 167.964 112.977ZM168.534 110.299C168.551 109.829 168.571 109.803 168.907 109.812C169.237 109.821 169.26 109.855 169.242 110.318C169.225 110.788 169.205 110.814 168.869 110.805C168.539 110.797 168.516 110.763 168.534 110.299ZM169.02 109.225C168.842 109.225 168.7 109.194 168.706 109.157C168.839 108.23 168.924 108.031 169.183 108.04C169.542 108.053 169.708 108.233 169.529 108.412C169.449 108.492 169.397 108.686 169.411 108.844C169.444 109.201 169.42 109.225 169.02 109.225ZM169.125 107.299C169.024 107.199 168.984 107.073 169.038 107.02C169.091 106.967 169.135 106.792 169.135 106.631C169.135 106.382 169.194 106.367 169.54 106.523C169.907 106.689 169.928 106.737 169.759 107.018C169.656 107.19 169.629 107.389 169.699 107.461C169.9 107.667 169.338 107.508 169.125 107.299ZM168.051 108.32C168.042 108.041 168.074 107.774 168.122 107.726C168.263 107.585 168.376 108.289 168.248 108.511C168.184 108.623 168.117 108.74 168.099 108.771C168.081 108.802 168.06 108.6 168.051 108.32ZM169.443 105.733C169.343 105.635 169.304 105.415 169.356 105.244C169.491 104.797 170.013 105.082 170.04 105.619C170.061 106.038 169.803 106.087 169.443 105.733ZM170.851 103.534C169.932 103.192 169.864 103.128 169.987 102.722C170.06 102.479 170.117 102.433 170.222 102.532C170.298 102.604 170.626 102.758 170.95 102.874C171.566 103.094 172.061 103.619 171.77 103.743C171.678 103.782 171.264 103.688 170.851 103.534ZM168.222 106.893C168.169 106.774 168.188 106.614 168.264 106.538C168.34 106.462 168.402 106.252 168.402 106.071C168.402 105.772 168.417 105.757 168.567 105.906C168.657 105.997 168.666 106.136 168.587 106.215C168.508 106.294 168.455 106.488 168.469 106.646C168.484 106.804 168.456 106.973 168.408 107.022C168.359 107.071 168.276 107.013 168.222 106.893ZM168.63 105.342C168.575 105.287 168.58 105.08 168.643 104.884L168.756 104.526L168.764 104.952C168.772 105.451 168.764 105.476 168.63 105.342ZM170.391 101.666C170.506 101.396 170.781 101.541 171.066 102.025L171.274 102.377L170.785 102.133C170.374 101.929 170.311 101.854 170.391 101.666Z" fill="#E9ECFF"/>
</g>
<defs>
<clipPath id="clip0_3520_21728">
<rect width="300" height="256" fill="white"/>
</clipPath>
</defs>
</svg>
